<svg width="51" height="50" viewBox="0 0 51 50" fill="none" xmlns="http://www.w3.org/2000/svg">
<path d="M25.2236 18.4912C21.6396 18.4912 18.7148 21.416 18.7148 25C18.7148 28.584 21.6396 31.5088 25.2236 31.5088C28.8076 31.5088 31.7324 28.584 31.7324 25C31.7324 21.416 28.8076 18.4912 25.2236 18.4912ZM44.7451 25C44.7451 22.3047 44.7695 19.6338 44.6181 16.9433C44.4668 13.8183 43.7539 11.0449 41.4687 8.75975C39.1787 6.46971 36.4101 5.76171 33.2851 5.61034C30.5898 5.45897 27.9189 5.48339 25.2285 5.48339C22.5332 5.48339 19.8623 5.45897 17.1719 5.61034C14.0469 5.76171 11.2734 6.4746 8.98827 8.75975C6.69823 11.0498 5.99022 13.8183 5.83885 16.9433C5.68749 19.6387 5.7119 22.3096 5.7119 25C5.7119 27.6904 5.68749 30.3662 5.83885 33.0566C5.99022 36.1816 6.70311 38.9551 8.98827 41.2402C11.2783 43.5303 14.0469 44.2383 17.1719 44.3896C19.8672 44.541 22.5381 44.5166 25.2285 44.5166C27.9238 44.5166 30.5947 44.541 33.2851 44.3896C36.4101 44.2383 39.1836 43.5254 41.4687 41.2402C43.7588 38.9502 44.4668 36.1816 44.6181 33.0566C44.7744 30.3662 44.7451 27.6953 44.7451 25ZM25.2236 35.0146C19.6816 35.0146 15.209 30.542 15.209 25C15.209 19.458 19.6816 14.9853 25.2236 14.9853C30.7656 14.9853 35.2383 19.458 35.2383 25C35.2383 30.542 30.7656 35.0146 25.2236 35.0146ZM35.6484 16.9141C34.3545 16.9141 33.3096 15.8691 33.3096 14.5752C33.3096 13.2812 34.3545 12.2363 35.6484 12.2363C36.9424 12.2363 37.9873 13.2812 37.9873 14.5752C37.9877 14.8824 37.9274 15.1867 37.81 15.4707C37.6926 15.7546 37.5204 16.0126 37.3031 16.2299C37.0858 16.4471 36.8279 16.6194 36.5439 16.7368C36.26 16.8542 35.9557 16.9144 35.6484 16.9141Z" fill="url(#paint0_linear_258:2774)"/>
<defs>
<linearGradient id="paint0_linear_258:2774" x1="5.71045" y1="14.4705" x2="44.0302" y2="15.0454" gradientUnits="userSpaceOnUse">
<stop offset="0.267495" stop-color="#FFC6CE"/>
<stop offset="1" stop-color="#64D6EE"/>
</linearGradient>
</defs>
</svg>
