<svg width="157" height="40" viewBox="0 0 157 40" fill="none" xmlns="http://www.w3.org/2000/svg">
<rect width="157" height="40" rx="20" fill="url(#paint0_linear_258:3235)"/>
<path d="M21.6353 25V13.32H23.9073V23H28.6273V25H21.6353ZM34.0973 25.304C33.3506 25.304 32.6946 25.176 32.1293 24.92C31.5746 24.664 31.1106 24.3227 30.7373 23.896C30.3746 23.4587 30.0973 22.9733 29.9053 22.44C29.724 21.9067 29.6333 21.3627 29.6333 20.808V20.504C29.6333 19.928 29.724 19.3733 29.9053 18.84C30.0973 18.3067 30.3746 17.8267 30.7373 17.4C31.1106 16.9733 31.5693 16.6373 32.1133 16.392C32.6573 16.136 33.2866 16.008 34.0013 16.008C34.94 16.008 35.724 16.216 36.3533 16.632C36.9826 17.0373 37.4573 17.576 37.7773 18.248C38.108 18.9093 38.2733 19.624 38.2733 20.392V21.192H31.7453C31.82 21.8747 32.044 22.424 32.4173 22.84C32.8013 23.256 33.3613 23.464 34.0973 23.464C34.6306 23.464 35.068 23.3573 35.4093 23.144C35.7613 22.92 35.9853 22.648 36.0813 22.328H38.1293C37.9373 23.224 37.484 23.944 36.7693 24.488C36.0546 25.032 35.164 25.304 34.0973 25.304ZM34.0013 17.848C33.372 17.848 32.8706 18.024 32.4973 18.376C32.124 18.728 31.884 19.2133 31.7773 19.832H36.1453C36.06 19.2133 35.836 18.728 35.4733 18.376C35.1213 18.024 34.6306 17.848 34.0013 17.848ZM42.5952 25.224C41.6352 25.224 40.8672 24.9787 40.2912 24.488C39.7259 23.9973 39.4432 23.3093 39.4432 22.424C39.4432 21.4747 39.7845 20.776 40.4672 20.328C41.1605 19.8693 42.0885 19.64 43.2512 19.64H45.0272V19.56C45.0272 18.568 44.5259 18.072 43.5232 18.072C43.2565 18.072 42.9365 18.0773 42.5632 18.088C42.1899 18.0987 41.8112 18.1147 41.4272 18.136C41.0539 18.1467 40.7179 18.1627 40.4192 18.184V16.296C40.7819 16.264 41.2139 16.2373 41.7152 16.216C42.2272 16.1947 42.6965 16.184 43.1232 16.184C44.4565 16.184 45.4592 16.456 46.1312 17C46.8139 17.5333 47.1552 18.4027 47.1552 19.608V25H45.3952V23.336C45.0005 24.5947 44.0672 25.224 42.5952 25.224ZM43.2192 23.64C43.5179 23.64 43.8005 23.5867 44.0672 23.48C44.3339 23.3627 44.5525 23.1707 44.7232 22.904C44.9045 22.6267 45.0059 22.2533 45.0272 21.784V20.968H43.2192C42.7072 20.968 42.3125 21.096 42.0352 21.352C41.7685 21.5973 41.6352 21.9173 41.6352 22.312C41.6352 22.7173 41.7685 23.0427 42.0352 23.288C42.3125 23.5227 42.7072 23.64 43.2192 23.64ZM49.5374 25V16.312H51.2974V19.144C51.5321 17.1813 52.5668 16.2 54.4014 16.2H54.7214V18.136H54.1134C53.3561 18.136 52.7748 18.3387 52.3694 18.744C51.9641 19.1493 51.7614 19.7253 51.7614 20.472V25H49.5374ZM56.2093 25V16.312H57.9693V18.456C58.3426 16.8453 59.3346 16.04 60.9453 16.04H61.0413C62.076 16.04 62.86 16.376 63.3933 17.048C63.9266 17.72 64.1933 18.712 64.1933 20.024V25H61.9693V19.832C61.9693 19.2987 61.8146 18.8667 61.5053 18.536C61.196 18.2053 60.78 18.04 60.2573 18.04C59.7133 18.04 59.2706 18.2107 58.9293 18.552C58.5986 18.8933 58.4333 19.3413 58.4333 19.896V25H56.2093ZM70.0374 25V16.312H71.7974V18.44C72.1601 16.84 73.1041 16.04 74.6294 16.04H74.7254C76.1014 16.04 77.0081 16.696 77.4454 18.008C77.8721 16.696 78.7788 16.04 80.1654 16.04H80.2614C81.2534 16.04 82.0054 16.3813 82.5174 17.064C83.0401 17.7467 83.3014 18.7387 83.3014 20.04V25H81.0774V19.832C81.0774 19.288 80.9388 18.856 80.6614 18.536C80.3841 18.2053 79.9894 18.04 79.4774 18.04C78.9548 18.04 78.5388 18.2107 78.2294 18.552C77.9308 18.8827 77.7814 19.3307 77.7814 19.896V25H75.5574V19.832C75.5574 19.288 75.4188 18.856 75.1414 18.536C74.8641 18.2053 74.4694 18.04 73.9574 18.04C73.4348 18.04 73.0188 18.2107 72.7094 18.552C72.4108 18.8827 72.2614 19.3307 72.2614 19.896V25H70.0374ZM89.8541 25.304C88.8301 25.304 87.9661 25.096 87.2621 24.68C86.5581 24.2533 86.0194 23.6987 85.6461 23.016C85.2834 22.3333 85.1021 21.608 85.1021 20.84V20.504C85.1021 19.704 85.2887 18.9627 85.6621 18.28C86.0461 17.5973 86.5901 17.048 87.2941 16.632C88.0087 16.216 88.8621 16.008 89.8541 16.008C90.8354 16.008 91.6781 16.216 92.3821 16.632C93.0967 17.048 93.6407 17.5973 94.0141 18.28C94.3981 18.9627 94.5901 19.704 94.5901 20.504V20.84C94.5901 21.608 94.4034 22.3333 94.0301 23.016C93.6674 23.6987 93.1341 24.2533 92.4301 24.68C91.7261 25.096 90.8674 25.304 89.8541 25.304ZM89.8541 23.4C90.6647 23.4 91.2834 23.144 91.7101 22.632C92.1474 22.1093 92.3661 21.4533 92.3661 20.664C92.3661 19.8747 92.1421 19.2187 91.6941 18.696C91.2461 18.1733 90.6327 17.912 89.8541 17.912C89.0647 17.912 88.4461 18.1733 87.9981 18.696C87.5501 19.2187 87.3261 19.8747 87.3261 20.664C87.3261 21.4533 87.5394 22.1093 87.9661 22.632C88.4034 23.144 89.0327 23.4 89.8541 23.4ZM96.5374 25V16.312H98.2974V19.144C98.5321 17.1813 99.5668 16.2 101.401 16.2H101.721V18.136H101.113C100.356 18.136 99.7748 18.3387 99.3694 18.744C98.9641 19.1493 98.7614 19.7253 98.7614 20.472V25H96.5374ZM107.035 25.304C106.288 25.304 105.632 25.176 105.067 24.92C104.512 24.664 104.048 24.3227 103.675 23.896C103.312 23.4587 103.035 22.9733 102.843 22.44C102.661 21.9067 102.571 21.3627 102.571 20.808V20.504C102.571 19.928 102.661 19.3733 102.843 18.84C103.035 18.3067 103.312 17.8267 103.675 17.4C104.048 16.9733 104.507 16.6373 105.051 16.392C105.595 16.136 106.224 16.008 106.939 16.008C107.877 16.008 108.661 16.216 109.291 16.632C109.92 17.0373 110.395 17.576 110.715 18.248C111.045 18.9093 111.211 19.624 111.211 20.392V21.192H104.683C104.757 21.8747 104.981 22.424 105.355 22.84C105.739 23.256 106.299 23.464 107.035 23.464C107.568 23.464 108.005 23.3573 108.347 23.144C108.699 22.92 108.923 22.648 109.019 22.328H111.067C110.875 23.224 110.421 23.944 109.707 24.488C108.992 25.032 108.101 25.304 107.035 25.304ZM106.939 17.848C106.309 17.848 105.808 18.024 105.435 18.376C105.061 18.728 104.821 19.2133 104.715 19.832H109.083C108.997 19.2133 108.773 18.728 108.411 18.376C108.059 18.024 107.568 17.848 106.939 17.848Z" fill="#22262A"/>
<path d="M137.354 20.3536C137.549 20.1583 137.549 19.8417 137.354 19.6464L134.172 16.4645C133.976 16.2692 133.66 16.2692 133.464 16.4645C133.269 16.6597 133.269 16.9763 133.464 17.1716L136.293 20L133.464 22.8284C133.269 23.0237 133.269 23.3403 133.464 23.5355C133.66 23.7308 133.976 23.7308 134.172 23.5355L137.354 20.3536ZM122 20.5H137V19.5H122V20.5Z" fill="#22262A"/>
<defs>
<linearGradient id="paint0_linear_258:3235" x1="-5.44938e-07" y1="9.21053" x2="153.618" y2="18.256" gradientUnits="userSpaceOnUse">
<stop offset="0.267495" stop-color="#FFC6CE"/>
<stop offset="1" stop-color="#64D6EE"/>
</linearGradient>
</defs>
</svg>
