<svg width="178" height="152" viewBox="20 20 78 42" fill="none" xmlns="http://www.w3.org/2000/svg">
<rect x="20" y="20" width="78" height="42" rx="21" fill="url(#paint0_linear_258:3649)"/>
<g filter="url(#filter0_d_258:3649)">
<path d="M43.456 47.216C42.484 47.216 41.566 47.012 40.702 46.604C40.582 46.52 40.546 46.406 40.594 46.262L41.17 43.724C41.17 43.664 41.2 43.634 41.26 43.634C41.332 43.634 41.374 43.664 41.386 43.724C41.83 45.764 42.682 46.784 43.942 46.784C44.53 46.784 45.004 46.58 45.364 46.172C45.736 45.752 45.922 45.2 45.922 44.516C45.922 43.94 45.754 43.442 45.418 43.022C45.094 42.602 44.62 42.152 43.996 41.672C43.54 41.324 43.18 41.03 42.916 40.79C42.652 40.55 42.43 40.268 42.25 39.944C42.07 39.62 41.98 39.26 41.98 38.864C41.98 38.696 41.998 38.522 42.034 38.342C42.226 37.442 42.7 36.752 43.456 36.272C44.224 35.792 45.088 35.552 46.048 35.552C46.756 35.552 47.464 35.696 48.172 35.984C48.34 36.068 48.406 36.17 48.37 36.29L48.1 38.63C48.088 38.666 48.052 38.684 47.992 38.684C47.944 38.684 47.914 38.666 47.902 38.63C47.71 37.79 47.404 37.13 46.984 36.65C46.564 36.17 46.09 35.93 45.562 35.93C45.154 35.93 44.818 36.044 44.554 36.272C44.29 36.488 44.098 36.752 43.978 37.064C43.858 37.364 43.798 37.658 43.798 37.946C43.798 38.306 43.882 38.63 44.05 38.918C44.218 39.206 44.416 39.458 44.644 39.674C44.872 39.878 45.214 40.16 45.67 40.52C46.378 41.072 46.918 41.576 47.29 42.032C47.662 42.488 47.848 43.028 47.848 43.652C47.848 43.856 47.836 44.012 47.812 44.12C47.644 45.032 47.182 45.776 46.426 46.352C45.67 46.928 44.68 47.216 43.456 47.216ZM51.3351 47.234C50.4951 47.234 49.8771 46.964 49.4811 46.424C49.0851 45.872 48.8871 45.182 48.8871 44.354C48.8871 44.054 48.9171 43.724 48.9771 43.364C49.0971 42.668 49.3671 42.05 49.7871 41.51C50.2191 40.97 50.7231 40.556 51.2991 40.268C51.8751 39.968 52.4451 39.818 53.0091 39.818C53.4531 39.818 53.8431 39.914 54.1791 40.106C54.5271 40.298 54.7011 40.574 54.7011 40.934C54.7011 41.21 54.6171 41.432 54.4491 41.6C54.2931 41.756 54.0711 41.834 53.7831 41.834C53.4951 41.834 53.2851 41.762 53.1531 41.618C53.0211 41.462 52.9311 41.264 52.8831 41.024C52.8231 40.796 52.7451 40.622 52.6491 40.502C52.5651 40.382 52.4211 40.322 52.2171 40.322C51.8571 40.322 51.5391 40.544 51.2631 40.988C50.9871 41.42 50.7891 42.002 50.6691 42.734C50.5971 43.13 50.5611 43.508 50.5611 43.868C50.5611 44.624 50.7171 45.23 51.0291 45.686C51.3411 46.13 51.8091 46.352 52.4331 46.352C52.6731 46.352 52.9491 46.298 53.2611 46.19C53.5731 46.07 53.8251 45.938 54.0171 45.794H54.0351C54.0711 45.794 54.1071 45.812 54.1431 45.848C54.1791 45.884 54.1851 45.92 54.1611 45.956C53.7291 46.376 53.2671 46.694 52.7751 46.91C52.2831 47.126 51.8031 47.234 51.3351 47.234ZM60.0413 39.89C60.3533 39.89 60.6473 40.004 60.9233 40.232C61.2113 40.46 61.3313 40.718 61.2833 41.006C61.2593 41.186 61.1753 41.354 61.0313 41.51C60.8873 41.666 60.7073 41.744 60.4913 41.744C60.2753 41.744 60.0413 41.642 59.7893 41.438C59.7053 41.378 59.6213 41.324 59.5373 41.276C59.4533 41.228 59.3693 41.204 59.2853 41.204C59.0813 41.204 58.8293 41.522 58.5293 42.158C58.2293 42.794 57.9413 43.556 57.6653 44.444C57.4013 45.32 57.2093 46.094 57.0893 46.766V46.784C57.0653 46.892 56.9693 46.976 56.8013 47.036C56.6333 47.108 56.3933 47.144 56.0813 47.144C55.6853 47.144 55.4873 47.096 55.4873 47C55.4993 46.916 55.5353 46.736 55.5953 46.46C55.6673 46.184 55.7273 45.92 55.7753 45.668L56.5133 41.654C56.5373 41.462 56.5493 41.336 56.5493 41.276C56.5493 40.94 56.4413 40.772 56.2253 40.772C55.9853 40.772 55.6433 41.012 55.1993 41.492C55.1873 41.504 55.1693 41.51 55.1453 41.51C55.0973 41.51 55.0613 41.492 55.0373 41.456C55.0133 41.408 55.0193 41.366 55.0553 41.33C55.4873 40.826 55.8713 40.46 56.2073 40.232C56.5553 40.004 56.9033 39.89 57.2513 39.89C57.5513 39.89 57.7673 39.974 57.8993 40.142C58.0313 40.298 58.0973 40.532 58.0973 40.844C58.0973 41.024 58.0793 41.222 58.0433 41.438L57.6833 43.418C58.3913 41.066 59.1773 39.89 60.0413 39.89ZM63.6389 47.252C62.8469 47.252 62.2409 47 61.8209 46.496C61.4129 45.98 61.2089 45.314 61.2089 44.498C61.2089 44.138 61.2389 43.814 61.2989 43.526C61.4309 42.806 61.6889 42.164 62.0729 41.6C62.4689 41.036 62.9429 40.598 63.4949 40.286C64.0469 39.974 64.6409 39.818 65.2769 39.818C66.0809 39.818 66.6929 40.064 67.1129 40.556C67.5449 41.036 67.7609 41.684 67.7609 42.5C67.7609 42.824 67.7249 43.166 67.6529 43.526C67.4969 44.318 67.2089 44.996 66.7889 45.56C66.3809 46.112 65.8949 46.532 65.3309 46.82C64.7789 47.108 64.2149 47.252 63.6389 47.252ZM64.2509 46.802C64.6349 46.802 64.9649 46.58 65.2409 46.136C65.5289 45.692 65.7389 45.086 65.8709 44.318C65.9549 43.85 65.9969 43.376 65.9969 42.896C65.9969 42.116 65.8769 41.48 65.6369 40.988C65.4089 40.496 65.0909 40.25 64.6829 40.25C64.3229 40.25 63.9989 40.46 63.7109 40.88C63.4349 41.3 63.2249 41.924 63.0809 42.752C62.9969 43.22 62.9549 43.694 62.9549 44.174C62.9549 44.954 63.0689 45.59 63.2969 46.082C63.5249 46.562 63.8429 46.802 64.2509 46.802ZM69.8346 47.162C69.2586 47.162 68.9706 46.82 68.9706 46.136C68.9706 45.896 68.9946 45.65 69.0426 45.398L70.6986 36.398C70.7346 36.158 70.7526 35.96 70.7526 35.804C70.7526 35.456 70.6386 35.282 70.4106 35.282C70.2666 35.282 70.0146 35.366 69.6546 35.534H69.6366C69.5766 35.534 69.5406 35.504 69.5286 35.444C69.5166 35.372 69.5346 35.33 69.5826 35.318L72.3726 33.95H72.4086C72.4566 33.95 72.4986 33.968 72.5346 34.004C72.5826 34.04 72.6006 34.07 72.5886 34.094L70.5726 45.398C70.5366 45.578 70.5186 45.728 70.5186 45.848C70.5186 46.112 70.6086 46.244 70.7886 46.244C70.9086 46.244 71.0406 46.19 71.1846 46.082C71.3406 45.974 71.5266 45.818 71.7426 45.614C71.7666 45.59 71.7906 45.578 71.8146 45.578C71.8506 45.578 71.8806 45.602 71.9046 45.65C71.9286 45.686 71.9226 45.722 71.8866 45.758C71.4786 46.238 71.1186 46.592 70.8066 46.82C70.4946 47.048 70.1706 47.162 69.8346 47.162ZM74.2818 47.162C73.7058 47.162 73.4178 46.82 73.4178 46.136C73.4178 45.896 73.4418 45.65 73.4898 45.398L75.1458 36.398C75.1818 36.158 75.1998 35.96 75.1998 35.804C75.1998 35.456 75.0858 35.282 74.8578 35.282C74.7138 35.282 74.4618 35.366 74.1018 35.534H74.0838C74.0238 35.534 73.9878 35.504 73.9758 35.444C73.9638 35.372 73.9818 35.33 74.0298 35.318L76.8198 33.95H76.8558C76.9038 33.95 76.9458 33.968 76.9818 34.004C77.0298 34.04 77.0478 34.07 77.0358 34.094L75.0198 45.398C74.9838 45.578 74.9658 45.728 74.9658 45.848C74.9658 46.112 75.0558 46.244 75.2358 46.244C75.3558 46.244 75.4878 46.19 75.6318 46.082C75.7878 45.974 75.9738 45.818 76.1898 45.614C76.2138 45.59 76.2378 45.578 76.2618 45.578C76.2978 45.578 76.3278 45.602 76.3518 45.65C76.3758 45.686 76.3698 45.722 76.3338 45.758C75.9258 46.238 75.5658 46.592 75.2538 46.82C74.9418 47.048 74.6178 47.162 74.2818 47.162Z" fill="#22262A"/>
</g>
<defs>
<filter id="filter0_d_258:3649" x="-59.478" y="-62.05" width="236.532" height="213.302" filterUnits="userSpaceOnUse" color-interpolation-filters="sRGB">
<feFlood flood-opacity="0" result="BackgroundImageFix"/>
<feColorMatrix in="SourceAlpha" type="matrix" values="0 0 0 0 0 0 0 0 0 0 0 0 0 0 0 0 0 0 127 0" result="hardAlpha"/>
<feOffset dy="4"/>
<feGaussianBlur stdDeviation="50"/>
<feComposite in2="hardAlpha" operator="out"/>
<feColorMatrix type="matrix" values="0 0 0 0 0 0 0 0 0 0 0 0 0 0 0 0 0 0 0.25 0"/>
<feBlend mode="normal" in2="BackgroundImageFix" result="effect1_dropShadow_258:3649"/>
<feBlend mode="normal" in="SourceGraphic" in2="effect1_dropShadow_258:3649" result="shape"/>
</filter>
<linearGradient id="paint0_linear_258:3649" x1="20" y1="29.6711" x2="96.525" y2="31.8031" gradientUnits="userSpaceOnUse">
<stop offset="0.267495" stop-color="#FFC6CE"/>
<stop offset="1" stop-color="#64D6EE"/>
</linearGradient>
</defs>
</svg>
