<svg width="177" height="65" viewBox="0 0 177 65" fill="none" xmlns="http://www.w3.org/2000/svg">
<g filter="url(#filter0_d_1040_4026)">
<path d="M10 40C10 23.4315 23.4315 10 40 10H177V65H10V40Z" fill="url(#paint0_linear_1040_4026)"/>
<path d="M36.6353 45V33.32H38.9073V43H43.6273V45H36.6353ZM49.0973 45.304C48.3506 45.304 47.6946 45.176 47.1293 44.92C46.5746 44.664 46.1106 44.3227 45.7373 43.896C45.3746 43.4587 45.0973 42.9733 44.9053 42.44C44.724 41.9067 44.6333 41.3627 44.6333 40.808V40.504C44.6333 39.928 44.724 39.3733 44.9053 38.84C45.0973 38.3067 45.3746 37.8267 45.7373 37.4C46.1106 36.9733 46.5693 36.6373 47.1133 36.392C47.6573 36.136 48.2866 36.008 49.0013 36.008C49.94 36.008 50.724 36.216 51.3533 36.632C51.9826 37.0373 52.4573 37.576 52.7773 38.248C53.108 38.9093 53.2733 39.624 53.2733 40.392V41.192H46.7453C46.82 41.8747 47.044 42.424 47.4173 42.84C47.8013 43.256 48.3613 43.464 49.0973 43.464C49.6306 43.464 50.068 43.3573 50.4093 43.144C50.7613 42.92 50.9853 42.648 51.0813 42.328H53.1293C52.9373 43.224 52.484 43.944 51.7693 44.488C51.0546 45.032 50.164 45.304 49.0973 45.304ZM49.0013 37.848C48.372 37.848 47.8706 38.024 47.4973 38.376C47.124 38.728 46.884 39.2133 46.7773 39.832H51.1453C51.06 39.2133 50.836 38.728 50.4733 38.376C50.1213 38.024 49.6306 37.848 49.0013 37.848ZM57.5952 45.224C56.6352 45.224 55.8672 44.9787 55.2912 44.488C54.7259 43.9973 54.4432 43.3093 54.4432 42.424C54.4432 41.4747 54.7845 40.776 55.4672 40.328C56.1605 39.8693 57.0885 39.64 58.2512 39.64H60.0272V39.56C60.0272 38.568 59.5259 38.072 58.5232 38.072C58.2565 38.072 57.9365 38.0773 57.5632 38.088C57.1899 38.0987 56.8112 38.1147 56.4272 38.136C56.0539 38.1467 55.7179 38.1627 55.4192 38.184V36.296C55.7819 36.264 56.2139 36.2373 56.7152 36.216C57.2272 36.1947 57.6965 36.184 58.1232 36.184C59.4565 36.184 60.4592 36.456 61.1312 37C61.8139 37.5333 62.1552 38.4027 62.1552 39.608V45H60.3952V43.336C60.0005 44.5947 59.0672 45.224 57.5952 45.224ZM58.2192 43.64C58.5179 43.64 58.8005 43.5867 59.0672 43.48C59.3339 43.3627 59.5525 43.1707 59.7232 42.904C59.9045 42.6267 60.0059 42.2533 60.0272 41.784V40.968H58.2192C57.7072 40.968 57.3125 41.096 57.0352 41.352C56.7685 41.5973 56.6352 41.9173 56.6352 42.312C56.6352 42.7173 56.7685 43.0427 57.0352 43.288C57.3125 43.5227 57.7072 43.64 58.2192 43.64ZM64.5374 45V36.312H66.2974V39.144C66.5321 37.1813 67.5668 36.2 69.4014 36.2H69.7214V38.136H69.1134C68.3561 38.136 67.7748 38.3387 67.3694 38.744C66.9641 39.1493 66.7614 39.7253 66.7614 40.472V45H64.5374ZM71.2093 45V36.312H72.9693V38.456C73.3426 36.8453 74.3346 36.04 75.9453 36.04H76.0413C77.076 36.04 77.86 36.376 78.3933 37.048C78.9266 37.72 79.1933 38.712 79.1933 40.024V45H76.9693V39.832C76.9693 39.2987 76.8146 38.8667 76.5053 38.536C76.196 38.2053 75.78 38.04 75.2573 38.04C74.7133 38.04 74.2706 38.2107 73.9293 38.552C73.5986 38.8933 73.4333 39.3413 73.4333 39.896V45H71.2093ZM85.0374 45V36.312H86.7974V38.44C87.1601 36.84 88.1041 36.04 89.6294 36.04H89.7254C91.1014 36.04 92.0081 36.696 92.4454 38.008C92.8721 36.696 93.7788 36.04 95.1654 36.04H95.2614C96.2534 36.04 97.0054 36.3813 97.5174 37.064C98.0401 37.7467 98.3014 38.7387 98.3014 40.04V45H96.0774V39.832C96.0774 39.288 95.9388 38.856 95.6614 38.536C95.3841 38.2053 94.9894 38.04 94.4774 38.04C93.9548 38.04 93.5388 38.2107 93.2294 38.552C92.9308 38.8827 92.7814 39.3307 92.7814 39.896V45H90.5574V39.832C90.5574 39.288 90.4188 38.856 90.1414 38.536C89.8641 38.2053 89.4694 38.04 88.9574 38.04C88.4348 38.04 88.0188 38.2107 87.7094 38.552C87.4108 38.8827 87.2614 39.3307 87.2614 39.896V45H85.0374ZM104.854 45.304C103.83 45.304 102.966 45.096 102.262 44.68C101.558 44.2533 101.019 43.6987 100.646 43.016C100.283 42.3333 100.102 41.608 100.102 40.84V40.504C100.102 39.704 100.289 38.9627 100.662 38.28C101.046 37.5973 101.59 37.048 102.294 36.632C103.009 36.216 103.862 36.008 104.854 36.008C105.835 36.008 106.678 36.216 107.382 36.632C108.097 37.048 108.641 37.5973 109.014 38.28C109.398 38.9627 109.59 39.704 109.59 40.504V40.84C109.59 41.608 109.403 42.3333 109.03 43.016C108.667 43.6987 108.134 44.2533 107.43 44.68C106.726 45.096 105.867 45.304 104.854 45.304ZM104.854 43.4C105.665 43.4 106.283 43.144 106.71 42.632C107.147 42.1093 107.366 41.4533 107.366 40.664C107.366 39.8747 107.142 39.2187 106.694 38.696C106.246 38.1733 105.633 37.912 104.854 37.912C104.065 37.912 103.446 38.1733 102.998 38.696C102.55 39.2187 102.326 39.8747 102.326 40.664C102.326 41.4533 102.539 42.1093 102.966 42.632C103.403 43.144 104.033 43.4 104.854 43.4ZM111.537 45V36.312H113.297V39.144C113.532 37.1813 114.567 36.2 116.401 36.2H116.721V38.136H116.113C115.356 38.136 114.775 38.3387 114.369 38.744C113.964 39.1493 113.761 39.7253 113.761 40.472V45H111.537ZM122.035 45.304C121.288 45.304 120.632 45.176 120.067 44.92C119.512 44.664 119.048 44.3227 118.675 43.896C118.312 43.4587 118.035 42.9733 117.843 42.44C117.661 41.9067 117.571 41.3627 117.571 40.808V40.504C117.571 39.928 117.661 39.3733 117.843 38.84C118.035 38.3067 118.312 37.8267 118.675 37.4C119.048 36.9733 119.507 36.6373 120.051 36.392C120.595 36.136 121.224 36.008 121.939 36.008C122.877 36.008 123.661 36.216 124.291 36.632C124.92 37.0373 125.395 37.576 125.715 38.248C126.045 38.9093 126.211 39.624 126.211 40.392V41.192H119.683C119.757 41.8747 119.981 42.424 120.355 42.84C120.739 43.256 121.299 43.464 122.035 43.464C122.568 43.464 123.005 43.3573 123.347 43.144C123.699 42.92 123.923 42.648 124.019 42.328H126.067C125.875 43.224 125.421 43.944 124.707 44.488C123.992 45.032 123.101 45.304 122.035 45.304ZM121.939 37.848C121.309 37.848 120.808 38.024 120.435 38.376C120.061 38.728 119.821 39.2133 119.715 39.832H124.083C123.997 39.2133 123.773 38.728 123.411 38.376C123.059 38.024 122.568 37.848 121.939 37.848Z" fill="#22262A"/>
<path d="M152.354 40.3536C152.549 40.1583 152.549 39.8417 152.354 39.6464L149.172 36.4645C148.976 36.2692 148.66 36.2692 148.464 36.4645C148.269 36.6597 148.269 36.9763 148.464 37.1716L151.293 40L148.464 42.8284C148.269 43.0237 148.269 43.3403 148.464 43.5355C148.66 43.7308 148.976 43.7308 149.172 43.5355L152.354 40.3536ZM137 40.5H152V39.5H137V40.5Z" fill="#22262A"/>
</g>
<defs>
<filter id="filter0_d_1040_4026" x="0" y="0" width="187" height="75" filterUnits="userSpaceOnUse" color-interpolation-filters="sRGB">
<feFlood flood-opacity="0" result="BackgroundImageFix"/>
<feColorMatrix in="SourceAlpha" type="matrix" values="0 0 0 0 0 0 0 0 0 0 0 0 0 0 0 0 0 0 127 0" result="hardAlpha"/>
<feOffset/>
<feGaussianBlur stdDeviation="5"/>
<feComposite in2="hardAlpha" operator="out"/>
<feColorMatrix type="matrix" values="0 0 0 0 0 0 0 0 0 0 0 0 0 0 0 0 0 0 0.25 0"/>
<feBlend mode="normal" in2="BackgroundImageFix" result="effect1_dropShadow_1040_4026"/>
<feBlend mode="normal" in="SourceGraphic" in2="effect1_dropShadow_1040_4026" result="shape"/>
</filter>
<linearGradient id="paint0_linear_1040_4026" x1="10" y1="22.6645" x2="173.63" y2="30.118" gradientUnits="userSpaceOnUse">
<stop offset="0.267495" stop-color="#FFC6CE"/>
<stop offset="1" stop-color="#64D6EE"/>
</linearGradient>
</defs>
</svg>
