<svg width="165" height="58" viewBox="0 0 165 58" fill="none" xmlns="http://www.w3.org/2000/svg">
<g filter="url(#filter0_d_1040_4026)">
<rect x="4" width="157" height="50" rx="25" fill="url(#paint0_linear_1040_4026)"/>
<path d="M25.6353 30V18.32H27.9073V28H32.6273V30H25.6353ZM38.0973 30.304C37.3506 30.304 36.6946 30.176 36.1293 29.92C35.5746 29.664 35.1106 29.3227 34.7373 28.896C34.3746 28.4587 34.0973 27.9733 33.9053 27.44C33.724 26.9067 33.6333 26.3627 33.6333 25.808V25.504C33.6333 24.928 33.724 24.3733 33.9053 23.84C34.0973 23.3067 34.3746 22.8267 34.7373 22.4C35.1106 21.9733 35.5693 21.6373 36.1133 21.392C36.6573 21.136 37.2866 21.008 38.0013 21.008C38.94 21.008 39.724 21.216 40.3533 21.632C40.9826 22.0373 41.4573 22.576 41.7773 23.248C42.108 23.9093 42.2733 24.624 42.2733 25.392V26.192H35.7453C35.82 26.8747 36.044 27.424 36.4173 27.84C36.8013 28.256 37.3613 28.464 38.0973 28.464C38.6306 28.464 39.068 28.3573 39.4093 28.144C39.7613 27.92 39.9853 27.648 40.0813 27.328H42.1293C41.9373 28.224 41.484 28.944 40.7693 29.488C40.0546 30.032 39.164 30.304 38.0973 30.304ZM38.0013 22.848C37.372 22.848 36.8706 23.024 36.4973 23.376C36.124 23.728 35.884 24.2133 35.7773 24.832H40.1453C40.06 24.2133 39.836 23.728 39.4733 23.376C39.1213 23.024 38.6306 22.848 38.0013 22.848ZM46.5952 30.224C45.6352 30.224 44.8672 29.9787 44.2912 29.488C43.7259 28.9973 43.4432 28.3093 43.4432 27.424C43.4432 26.4747 43.7845 25.776 44.4672 25.328C45.1605 24.8693 46.0885 24.64 47.2512 24.64H49.0272V24.56C49.0272 23.568 48.5259 23.072 47.5232 23.072C47.2565 23.072 46.9365 23.0773 46.5632 23.088C46.1899 23.0987 45.8112 23.1147 45.4272 23.136C45.0539 23.1467 44.7179 23.1627 44.4192 23.184V21.296C44.7819 21.264 45.2139 21.2373 45.7152 21.216C46.2272 21.1947 46.6965 21.184 47.1232 21.184C48.4565 21.184 49.4592 21.456 50.1312 22C50.8139 22.5333 51.1552 23.4027 51.1552 24.608V30H49.3952V28.336C49.0005 29.5947 48.0672 30.224 46.5952 30.224ZM47.2192 28.64C47.5179 28.64 47.8005 28.5867 48.0672 28.48C48.3339 28.3627 48.5525 28.1707 48.7232 27.904C48.9045 27.6267 49.0059 27.2533 49.0272 26.784V25.968H47.2192C46.7072 25.968 46.3125 26.096 46.0352 26.352C45.7685 26.5973 45.6352 26.9173 45.6352 27.312C45.6352 27.7173 45.7685 28.0427 46.0352 28.288C46.3125 28.5227 46.7072 28.64 47.2192 28.64ZM53.5374 30V21.312H55.2974V24.144C55.5321 22.1813 56.5668 21.2 58.4014 21.2H58.7214V23.136H58.1134C57.3561 23.136 56.7748 23.3387 56.3694 23.744C55.9641 24.1493 55.7614 24.7253 55.7614 25.472V30H53.5374ZM60.2093 30V21.312H61.9693V23.456C62.3426 21.8453 63.3346 21.04 64.9453 21.04H65.0413C66.076 21.04 66.86 21.376 67.3933 22.048C67.9266 22.72 68.1933 23.712 68.1933 25.024V30H65.9693V24.832C65.9693 24.2987 65.8146 23.8667 65.5053 23.536C65.196 23.2053 64.78 23.04 64.2573 23.04C63.7133 23.04 63.2706 23.2107 62.9293 23.552C62.5986 23.8933 62.4333 24.3413 62.4333 24.896V30H60.2093ZM74.0374 30V21.312H75.7974V23.44C76.1601 21.84 77.1041 21.04 78.6294 21.04H78.7254C80.1014 21.04 81.0081 21.696 81.4454 23.008C81.8721 21.696 82.7788 21.04 84.1654 21.04H84.2614C85.2534 21.04 86.0054 21.3813 86.5174 22.064C87.0401 22.7467 87.3014 23.7387 87.3014 25.04V30H85.0774V24.832C85.0774 24.288 84.9388 23.856 84.6614 23.536C84.3841 23.2053 83.9894 23.04 83.4774 23.04C82.9548 23.04 82.5388 23.2107 82.2294 23.552C81.9308 23.8827 81.7814 24.3307 81.7814 24.896V30H79.5574V24.832C79.5574 24.288 79.4188 23.856 79.1414 23.536C78.8641 23.2053 78.4694 23.04 77.9574 23.04C77.4348 23.04 77.0188 23.2107 76.7094 23.552C76.4108 23.8827 76.2614 24.3307 76.2614 24.896V30H74.0374ZM93.8541 30.304C92.8301 30.304 91.9661 30.096 91.2621 29.68C90.5581 29.2533 90.0194 28.6987 89.6461 28.016C89.2834 27.3333 89.1021 26.608 89.1021 25.84V25.504C89.1021 24.704 89.2887 23.9627 89.6621 23.28C90.0461 22.5973 90.5901 22.048 91.2941 21.632C92.0087 21.216 92.8621 21.008 93.8541 21.008C94.8354 21.008 95.6781 21.216 96.3821 21.632C97.0967 22.048 97.6407 22.5973 98.0141 23.28C98.3981 23.9627 98.5901 24.704 98.5901 25.504V25.84C98.5901 26.608 98.4034 27.3333 98.0301 28.016C97.6674 28.6987 97.1341 29.2533 96.4301 29.68C95.7261 30.096 94.8674 30.304 93.8541 30.304ZM93.8541 28.4C94.6647 28.4 95.2834 28.144 95.7101 27.632C96.1474 27.1093 96.3661 26.4533 96.3661 25.664C96.3661 24.8747 96.1421 24.2187 95.6941 23.696C95.2461 23.1733 94.6327 22.912 93.8541 22.912C93.0647 22.912 92.4461 23.1733 91.9981 23.696C91.5501 24.2187 91.3261 24.8747 91.3261 25.664C91.3261 26.4533 91.5394 27.1093 91.9661 27.632C92.4034 28.144 93.0327 28.4 93.8541 28.4ZM100.537 30V21.312H102.297V24.144C102.532 22.1813 103.567 21.2 105.401 21.2H105.721V23.136H105.113C104.356 23.136 103.775 23.3387 103.369 23.744C102.964 24.1493 102.761 24.7253 102.761 25.472V30H100.537ZM111.035 30.304C110.288 30.304 109.632 30.176 109.067 29.92C108.512 29.664 108.048 29.3227 107.675 28.896C107.312 28.4587 107.035 27.9733 106.843 27.44C106.661 26.9067 106.571 26.3627 106.571 25.808V25.504C106.571 24.928 106.661 24.3733 106.843 23.84C107.035 23.3067 107.312 22.8267 107.675 22.4C108.048 21.9733 108.507 21.6373 109.051 21.392C109.595 21.136 110.224 21.008 110.939 21.008C111.877 21.008 112.661 21.216 113.291 21.632C113.92 22.0373 114.395 22.576 114.715 23.248C115.045 23.9093 115.211 24.624 115.211 25.392V26.192H108.683C108.757 26.8747 108.981 27.424 109.355 27.84C109.739 28.256 110.299 28.464 111.035 28.464C111.568 28.464 112.005 28.3573 112.347 28.144C112.699 27.92 112.923 27.648 113.019 27.328H115.067C114.875 28.224 114.421 28.944 113.707 29.488C112.992 30.032 112.101 30.304 111.035 30.304ZM110.939 22.848C110.309 22.848 109.808 23.024 109.435 23.376C109.061 23.728 108.821 24.2133 108.715 24.832H113.083C112.997 24.2133 112.773 23.728 112.411 23.376C112.059 23.024 111.568 22.848 110.939 22.848Z" fill="#22262A"/>
<path d="M141.354 25.3536C141.549 25.1583 141.549 24.8417 141.354 24.6464L138.172 21.4645C137.976 21.2692 137.66 21.2692 137.464 21.4645C137.269 21.6597 137.269 21.9763 137.464 22.1716L140.293 25L137.464 27.8284C137.269 28.0237 137.269 28.3403 137.464 28.5355C137.66 28.7308 137.976 28.7308 138.172 28.5355L141.354 25.3536ZM126 25.5H141V24.5H126V25.5Z" fill="#22262A"/>
</g>
<defs>
<filter id="filter0_d_1040_4026" x="0" y="0" width="165" height="58" filterUnits="userSpaceOnUse" color-interpolation-filters="sRGB">
<feFlood flood-opacity="0" result="BackgroundImageFix"/>
<feColorMatrix in="SourceAlpha" type="matrix" values="0 0 0 0 0 0 0 0 0 0 0 0 0 0 0 0 0 0 127 0" result="hardAlpha"/>
<feOffset dy="4"/>
<feGaussianBlur stdDeviation="2"/>
<feComposite in2="hardAlpha" operator="out"/>
<feColorMatrix type="matrix" values="0 0 0 0 0 0 0 0 0 0 0 0 0 0 0 0 0 0 0.25 0"/>
<feBlend mode="normal" in2="BackgroundImageFix" result="effect1_dropShadow_1040_4026"/>
<feBlend mode="normal" in="SourceGraphic" in2="effect1_dropShadow_1040_4026" result="shape"/>
</filter>
<linearGradient id="paint0_linear_1040_4026" x1="4" y1="11.5132" x2="157.809" y2="18.7585" gradientUnits="userSpaceOnUse">
<stop offset="0.267495" stop-color="#FFC6CE"/>
<stop offset="1" stop-color="#64D6EE"/>
</linearGradient>
</defs>
</svg>
