<svg width="400" height="400" viewBox="0 0 400 400" fill="none" xmlns="http://www.w3.org/2000/svg">
<mask id="mask0_313:885" style="mask-type:alpha" maskUnits="userSpaceOnUse" x="-100" y="-100" width="600" height="600">
<circle cx="200" cy="200" r="300" fill="#22262A"/>
</mask>
<g mask="url(#mask0_313:885)">
<circle cx="200" cy="200" r="300" fill="#22262A"/>
<path d="M221.772 139.179L245.523 151.847L220.778 166.134L194.472 181.321L168.167 196.509L143.421 210.796L144.326 183.893L145.291 155.19L146.256 126.487L147.168 99.3876L171.092 112.148L196.432 125.664L221.772 139.179ZM139.56 325.608L140.465 298.705L141.43 270.002L142.395 241.299L143.307 214.2L167.231 226.96L192.571 240.476L217.911 253.992L241.662 266.66L216.917 280.946L190.611 296.134L164.306 311.321L139.56 325.608ZM248.529 153.45L272.453 166.21L297.793 179.726L323.133 193.242L346.884 205.91L322.139 220.196L295.833 235.384L269.528 250.571L244.782 264.858L245.687 237.955L246.652 209.252L247.617 180.549L248.529 153.45Z" fill="url(#paint0_linear_313:885)" stroke="#22262A" stroke-width="2"/>
<path d="M169.95 255.914C168.304 263.556 168.757 267.841 169.95 275.482C171.143 283.124 161.556 281.073 155.53 281.073C149.504 281.073 146.922 290.105 155.53 291.61C164.139 293.116 174.254 295.051 174.254 295.051C174.254 295.051 179.143 297.385 181.572 304.943C184 312.5 193.206 322.146 196.004 325.371C198.802 328.597 205.461 403 205.461 403L264 395.904C264 395.904 245.061 318.705 243.339 313.974C243.339 313.974 245.922 315.91 251.948 295.051C257.974 274.192 251.373 249.678 251.948 245.592C252.523 241.507 251.948 242.582 253.67 232.905C255.391 223.228 246.352 221.293 243.339 229.034C240.326 236.776 239.465 239.356 238.174 242.797C236.883 246.237 229.565 245.592 229.565 242.797V229.034C229.565 220.648 217.728 218.713 216.222 229.034L216.167 229.407C214.71 239.393 214.492 240.885 213.854 242.797C213.209 244.732 207.613 246.022 206.752 243.872C205.891 241.722 204.385 236.776 202.448 229.034C200.511 221.293 190.611 222.368 190.396 232.905C190.18 243.442 190.396 245.162 190.396 247.528C190.396 249.893 184.585 250.968 183.724 248.818C182.863 246.667 182.217 244.732 179.204 235.055C176.191 225.379 165.836 229.679 167.367 237.636C168.899 245.592 171.596 248.272 169.95 255.914Z" fill="#22262A"/>
<path d="M216.222 229.034C217.728 218.713 229.565 220.648 229.565 229.034M216.222 229.034L216.167 229.407M216.222 229.034C216.203 229.16 216.185 229.284 216.167 229.407M229.565 229.034C229.565 237.421 229.565 240.001 229.565 242.797M229.565 229.034V242.797M229.565 242.797C229.565 245.592 236.883 246.237 238.174 242.797C239.465 239.356 240.326 236.776 243.339 229.034C246.352 221.293 255.391 223.228 253.67 232.905C251.948 242.582 252.523 241.507 251.948 245.592C251.373 249.678 257.974 274.192 251.948 295.051C245.922 315.91 243.339 313.974 243.339 313.974C245.061 318.705 264 395.904 264 395.904L205.461 403C205.461 403 198.802 328.597 196.004 325.371C193.206 322.146 184 312.5 181.572 304.943C179.143 297.385 174.254 295.051 174.254 295.051C174.254 295.051 164.139 293.116 155.53 291.61C146.922 290.105 149.504 281.073 155.53 281.073C161.556 281.073 171.143 283.124 169.95 275.482C168.757 267.841 168.304 263.556 169.95 255.914C171.596 248.272 168.899 245.592 167.367 237.636C165.836 229.679 176.191 225.379 179.204 235.055C182.217 244.732 182.863 246.667 183.724 248.818C184.585 250.968 190.396 249.893 190.396 247.528C190.396 245.162 190.18 243.442 190.396 232.905C190.611 222.368 200.511 221.293 202.448 229.034C204.385 236.776 205.891 241.722 206.752 243.872C207.613 246.022 213.209 244.732 213.854 242.797C214.492 240.885 214.71 239.393 216.167 229.407" stroke="url(#paint1_linear_313:885)" stroke-width="2"/>
<path d="M280.396 202.993C287.837 200.598 291.321 198.062 297.342 193.209C303.364 188.355 306.381 197.682 309.394 202.901C312.407 208.12 321.52 205.84 318.519 197.632C315.519 189.424 312.137 179.697 312.137 179.697C312.137 179.697 310.96 179.78 317.045 168.414C323.129 157.048 324.626 147.138 326.02 143.102C327.415 139.067 390.02 98.6965 390.02 98.6965L354.605 51.5481C354.605 51.5481 297.219 106.549 293.983 110.406C293.983 110.406 294.367 107.201 273.29 112.412C252.213 117.623 234.284 135.597 230.458 137.141C226.632 138.686 227.851 138.647 218.609 141.994C209.368 145.341 212.212 154.137 220.422 152.876C228.633 151.614 231.298 151.07 234.924 150.468C238.549 149.866 241.649 156.525 239.228 157.923L227.309 164.804C220.046 168.998 224.289 180.216 233.981 176.36L234.331 176.221C243.708 172.49 245.109 171.933 247.084 171.529C249.082 171.121 252.998 175.322 251.566 177.142C250.134 178.963 246.604 182.741 240.868 188.289C235.132 193.837 241.014 201.873 250.246 196.791C259.479 191.709 260.861 190.662 262.91 189.48C264.958 188.297 268.795 192.792 267.363 194.612C265.931 196.433 264.578 197.96 257.704 205.408C250.831 212.855 259.733 219.673 265.858 214.369C271.982 209.064 272.954 205.388 280.396 202.993Z" fill="#22262A"/>
<path d="M233.981 176.36C224.289 180.216 220.046 168.998 227.309 164.804M233.981 176.36L234.331 176.221M233.981 176.36C234.099 176.313 234.216 176.267 234.331 176.221M227.309 164.804C234.572 160.611 236.807 159.321 239.228 157.923M227.309 164.804L239.228 157.923M239.228 157.923C241.649 156.525 238.549 149.866 234.924 150.468C231.298 151.07 228.633 151.614 220.422 152.876C212.212 154.137 209.368 145.341 218.609 141.994C227.851 138.647 226.632 138.686 230.458 137.141C234.284 135.597 252.213 117.623 273.29 112.412C294.367 107.201 293.983 110.406 293.983 110.406C297.219 106.549 354.605 51.5481 354.605 51.5481L390.02 98.6965C390.02 98.6965 327.415 139.067 326.02 143.102C324.626 147.138 323.129 157.048 317.045 168.414C310.96 179.78 312.137 179.697 312.137 179.697C312.137 179.697 315.519 189.424 318.519 197.632C321.52 205.84 312.407 208.12 309.394 202.901C306.381 197.682 303.364 188.355 297.342 193.209C291.321 198.062 287.837 200.598 280.396 202.993C272.954 205.388 271.982 209.064 265.858 214.369C259.733 219.673 250.831 212.855 257.704 205.408C264.578 197.96 265.931 196.433 267.363 194.612C268.795 192.792 264.958 188.297 262.91 189.48C260.861 190.662 259.479 191.709 250.246 196.791C241.014 201.873 235.132 193.837 240.868 188.289C246.604 182.741 250.134 178.963 251.566 177.142C252.998 175.322 249.082 171.121 247.084 171.529C245.109 171.933 243.708 172.49 234.331 176.221" stroke="url(#paint2_linear_313:885)" stroke-width="2"/>
<path d="M195.993 160.355C193.598 152.914 191.063 149.43 186.209 143.408C181.355 137.387 190.682 134.37 195.901 131.357C201.12 128.343 198.841 119.231 190.632 122.231C182.424 125.232 172.697 128.614 172.697 128.614C172.697 128.614 172.78 129.79 161.414 123.706C150.048 117.621 140.138 116.125 136.102 114.73C132.067 113.336 91.6965 50.7304 91.6965 50.7304L44.5482 86.1455C44.5482 86.1455 99.5493 143.532 103.406 146.768C103.406 146.768 100.201 146.383 105.412 167.46C110.623 188.538 128.597 206.467 130.141 210.293C131.686 214.119 131.647 212.9 134.994 222.141C138.341 231.383 147.137 228.539 145.876 220.328C144.614 212.117 144.07 209.452 143.468 205.827C142.866 202.202 149.525 199.102 150.923 201.523L157.804 213.441C161.998 220.704 173.216 216.462 169.36 206.77L169.221 206.42C165.49 197.043 164.933 195.642 164.529 193.667C164.121 191.668 168.322 187.753 170.142 189.185C171.963 190.617 175.741 194.147 181.289 199.883C186.837 205.618 194.873 199.737 189.791 190.504C184.709 181.272 183.662 179.889 182.48 177.841C181.297 175.792 185.792 171.956 187.612 173.388C189.433 174.819 190.96 176.173 198.408 183.046C205.855 189.92 212.673 181.018 207.369 174.893C202.064 168.768 198.388 167.797 195.993 160.355Z" fill="#22262A"/>
<path d="M169.36 206.77C173.216 216.462 161.998 220.704 157.804 213.441M169.36 206.77L169.221 206.42M169.36 206.77C169.313 206.652 169.267 206.535 169.221 206.42M157.804 213.441C153.611 206.178 152.321 203.944 150.923 201.523M157.804 213.441L150.923 201.523M150.923 201.523C149.525 199.102 142.866 202.202 143.468 205.827C144.07 209.452 144.614 212.117 145.876 220.328C147.137 228.539 138.341 231.383 134.994 222.141C131.647 212.9 131.686 214.119 130.141 210.293C128.597 206.467 110.623 188.538 105.412 167.46C100.201 146.383 103.406 146.768 103.406 146.768C99.5493 143.532 44.5482 86.1455 44.5482 86.1455L91.6965 50.7304C91.6965 50.7304 132.067 113.336 136.102 114.73C140.138 116.125 150.048 117.621 161.414 123.706C172.78 129.79 172.697 128.614 172.697 128.614C172.697 128.614 182.424 125.232 190.632 122.231C198.841 119.231 201.12 128.343 195.901 131.357C190.682 134.37 181.355 137.387 186.209 143.408C191.063 149.43 193.598 152.914 195.993 160.355C198.388 167.797 202.064 168.768 207.369 174.893C212.673 181.018 205.855 189.92 198.408 183.046C190.96 176.173 189.433 174.819 187.612 173.388C185.792 171.956 181.297 175.792 182.48 177.841C183.662 179.889 184.709 181.272 189.791 190.504C194.873 199.737 186.837 205.618 181.289 199.883C175.741 194.147 171.963 190.617 170.142 189.185C168.322 187.753 164.121 191.668 164.529 193.667C164.933 195.642 165.49 197.043 169.221 206.42" stroke="url(#paint3_linear_313:885)" stroke-width="2"/>
<path d="M134.871 284.25C134.871 291.717 135.688 297.2 137.321 300.7C138.955 303.967 141.988 306.3 146.421 307.7C151.088 309.1 158.438 309.8 168.471 309.8C169.171 309.8 169.521 310.5 169.521 311.9C169.521 313.3 169.171 314 168.471 314C158.905 314 151.438 313.883 146.071 313.65L115.621 313.3L90.0715 313.65C85.4048 313.883 79.1048 314 71.1715 314C70.4715 314 70.1215 313.3 70.1215 311.9C70.1215 310.5 70.4715 309.8 71.1715 309.8C78.6382 309.8 84.0048 309.217 87.2715 308.05C90.7715 306.883 93.1048 304.667 94.2715 301.4C95.4382 297.9 96.0215 292.65 96.0215 285.65V123.6C96.0215 116.6 95.4382 111.467 94.2715 108.2C93.1048 104.933 90.7715 102.717 87.2715 101.55C83.7715 100.15 78.4048 99.45 71.1715 99.45C70.4715 99.45 70.1215 98.75 70.1215 97.35C70.1215 95.95 70.4715 95.25 71.1715 95.25L89.7215 95.6C100.455 96.0667 108.971 96.3 115.271 96.3C120.871 96.3 127.521 95.95 135.221 95.25C138.255 95.0167 142.105 94.7833 146.771 94.55C151.438 94.3167 156.805 94.2 162.871 94.2C186.671 94.2 205.455 99.2167 219.221 109.25C232.988 119.05 239.871 134.333 239.871 155.1C239.871 169.567 236.138 181.817 228.671 191.85C221.205 201.883 211.521 209.467 199.621 214.6C187.955 219.733 175.938 222.3 163.571 222.3C157.271 222.3 151.788 221.717 147.121 220.55C146.655 220.55 146.421 219.967 146.421 218.8C146.421 218.1 146.538 217.4 146.771 216.7C147.238 216 147.705 215.767 148.171 216C151.671 216.933 155.638 217.4 160.071 217.4C170.805 217.4 179.671 212.383 186.671 202.35C193.905 192.317 197.521 178.083 197.521 159.65C197.521 141.217 193.555 126.983 185.621 116.95C177.921 106.917 166.605 101.9 151.671 101.9C145.138 101.9 140.705 103.417 138.371 106.45C136.038 109.483 134.871 115.433 134.871 124.3V284.25Z" fill="url(#paint4_linear_313:885)"/>
<path d="M137.321 300.7L135.509 301.546L135.521 301.57L135.533 301.594L137.321 300.7ZM146.421 307.7L145.819 309.607L145.833 309.612L145.847 309.616L146.421 307.7ZM146.071 313.65L146.158 311.652L146.126 311.651L146.094 311.65L146.071 313.65ZM115.621 313.3L115.644 311.3L115.619 311.3L115.594 311.3L115.621 313.3ZM90.0715 313.65L90.0441 311.65L90.0078 311.651L89.9716 311.652L90.0715 313.65ZM87.2715 308.05L86.639 306.153L86.6188 306.159L86.5988 306.167L87.2715 308.05ZM94.2715 301.4L96.155 302.073L96.1621 302.053L96.1688 302.032L94.2715 301.4ZM94.2715 108.2L92.388 108.873L94.2715 108.2ZM87.2715 101.55L86.5287 103.407L86.5833 103.429L86.639 103.447L87.2715 101.55ZM71.1715 95.25L71.2092 93.2504L71.1904 93.25H71.1715V95.25ZM89.7215 95.6L89.8084 93.6019L89.7838 93.6008L89.7592 93.6003L89.7215 95.6ZM135.221 95.25L135.068 93.2559L135.054 93.257L135.04 93.2582L135.221 95.25ZM146.771 94.55L146.672 92.5525L146.771 94.55ZM219.221 109.25L218.044 110.866L218.053 110.873L218.062 110.879L219.221 109.25ZM228.671 191.85L230.276 193.044L228.671 191.85ZM199.621 214.6L198.829 212.764L198.823 212.766L198.816 212.769L199.621 214.6ZM147.121 220.55L147.607 218.61L147.368 218.55H147.121V220.55ZM146.771 216.7L145.107 215.591L144.959 215.813L144.874 216.068L146.771 216.7ZM148.171 216L147.277 217.789L147.459 217.88L147.656 217.932L148.171 216ZM186.671 202.35L185.049 201.18L185.04 201.193L185.031 201.206L186.671 202.35ZM185.621 116.95L184.035 118.168L184.044 118.179L184.053 118.19L185.621 116.95ZM138.371 106.45L136.786 105.231V105.231L138.371 106.45ZM132.871 284.25C132.871 291.786 133.684 297.634 135.509 301.546L139.134 299.854C137.693 296.766 136.871 291.647 136.871 284.25H132.871ZM135.533 301.594C137.47 305.469 141.018 308.091 145.819 309.607L147.024 305.793C142.958 304.509 140.44 302.464 139.11 299.806L135.533 301.594ZM145.847 309.616C150.808 311.104 158.404 311.8 168.471 311.8V307.8C158.472 307.8 151.368 307.096 146.996 305.784L145.847 309.616ZM168.471 311.8C168.297 311.8 168.054 311.751 167.821 311.595C167.601 311.449 167.501 311.282 167.47 311.219C167.443 311.165 167.461 311.179 167.483 311.31C167.504 311.436 167.521 311.628 167.521 311.9H171.521C171.521 311.098 171.432 310.198 171.048 309.431C170.842 309.018 170.523 308.589 170.04 308.267C169.545 307.937 168.996 307.8 168.471 307.8V311.8ZM167.521 311.9C167.521 312.172 167.504 312.364 167.483 312.49C167.461 312.621 167.443 312.635 167.47 312.581C167.501 312.518 167.601 312.351 167.821 312.205C168.054 312.049 168.297 312 168.471 312V316C168.996 316 169.545 315.863 170.04 315.533C170.523 315.211 170.842 314.782 171.048 314.369C171.432 313.602 171.521 312.702 171.521 311.9H167.521ZM168.471 312C158.915 312 151.482 311.883 146.158 311.652L145.985 315.648C151.394 315.883 158.894 316 168.471 316V312ZM146.094 311.65L115.644 311.3L115.599 315.3L146.049 315.65L146.094 311.65ZM115.594 311.3L90.0441 311.65L90.0989 315.65L115.649 315.3L115.594 311.3ZM89.9716 311.652C85.3532 311.883 79.091 312 71.1715 312V316C79.1187 316 85.4564 315.883 90.1714 315.647L89.9716 311.652ZM71.1715 312C71.3465 312 71.5888 312.049 71.8215 312.205C72.0417 312.351 72.1417 312.518 72.1728 312.581C72.2001 312.635 72.1818 312.621 72.1599 312.49C72.1389 312.364 72.1215 312.172 72.1215 311.9H68.1215C68.1215 312.702 68.2112 313.602 68.5951 314.369C68.8013 314.782 69.12 315.211 69.6027 315.533C70.0979 315.863 70.6465 316 71.1715 316V312ZM72.1215 311.9C72.1215 311.628 72.1389 311.436 72.1599 311.31C72.1818 311.179 72.2001 311.165 72.1728 311.219C72.1417 311.282 72.0417 311.449 71.8215 311.595C71.5888 311.751 71.3465 311.8 71.1715 311.8V307.8C70.6465 307.8 70.0979 307.937 69.6027 308.267C69.12 308.589 68.8013 309.018 68.5951 309.431C68.2112 310.198 68.1215 311.098 68.1215 311.9H72.1215ZM71.1715 311.8C78.6651 311.8 84.3299 311.224 87.9442 309.933L86.5988 306.167C83.6797 307.209 78.6112 307.8 71.1715 307.8V311.8ZM87.9039 309.947C91.9441 308.601 94.7669 305.959 96.155 302.073L92.388 300.727C91.4428 303.374 89.5989 305.166 86.639 306.153L87.9039 309.947ZM96.1688 302.032C97.4397 298.22 98.0215 292.708 98.0215 285.65H94.0215C94.0215 292.592 93.4366 297.58 92.3741 300.768L96.1688 302.032ZM98.0215 285.65V123.6H94.0215V285.65H98.0215ZM98.0215 123.6C98.0215 116.555 97.4429 111.133 96.155 107.527L92.388 108.873C93.4334 111.8 94.0215 116.645 94.0215 123.6H98.0215ZM96.155 107.527C94.7669 103.641 91.9441 100.999 87.9039 99.6526L86.639 103.447C89.5989 104.434 91.4428 106.226 92.388 108.873L96.155 107.527ZM88.0143 99.693C84.1494 98.1471 78.4691 97.45 71.1715 97.45V101.45C78.3406 101.45 83.3935 102.153 86.5287 103.407L88.0143 99.693ZM71.1715 97.45C71.3465 97.45 71.5888 97.4995 71.8215 97.6546C72.0417 97.8015 72.1417 97.9683 72.1728 98.0306C72.2001 98.085 72.1818 98.0715 72.1599 97.9399C72.1389 97.8138 72.1215 97.622 72.1215 97.35H68.1215C68.1215 98.1521 68.2112 99.0515 68.5951 99.8194C68.8013 100.232 69.12 100.661 69.6027 100.983C70.098 101.313 70.6465 101.45 71.1715 101.45V97.45ZM72.1215 97.35C72.1215 97.078 72.1389 96.8862 72.1599 96.76C72.1818 96.6285 72.2001 96.615 72.1728 96.6694C72.1417 96.7317 72.0417 96.8985 71.8215 97.0453C71.5888 97.2005 71.3465 97.25 71.1715 97.25V93.25C70.6465 93.25 70.098 93.387 69.6027 93.7171C69.12 94.039 68.8013 94.4683 68.5951 94.8806C68.2112 95.6485 68.1215 96.5478 68.1215 97.35H72.1215ZM71.1338 97.2496L89.6838 97.5996L89.7592 93.6003L71.2092 93.2504L71.1338 97.2496ZM89.6346 97.5981C100.38 98.0653 108.929 98.3 115.271 98.3V94.3C109.014 94.3 100.53 94.068 89.8084 93.6019L89.6346 97.5981ZM115.271 98.3C120.95 98.3 127.663 97.9454 135.403 97.2418L135.04 93.2582C127.38 93.9546 120.793 94.3 115.271 94.3V98.3ZM135.375 97.2441C138.384 97.0127 142.214 96.7803 146.871 96.5475L146.672 92.5525C141.995 92.7863 138.126 93.0207 135.068 93.2559L135.375 97.2441ZM146.871 96.5475C151.497 96.3162 156.829 96.2 162.871 96.2V92.2C156.781 92.2 151.38 92.3171 146.672 92.5525L146.871 96.5475ZM162.871 96.2C186.412 96.2 204.731 101.164 218.044 110.866L220.399 107.634C206.179 97.2694 186.931 92.2 162.871 92.2V96.2ZM218.062 110.879C231.179 120.217 237.871 134.814 237.871 155.1H241.871C241.871 133.853 234.798 117.883 220.381 107.621L218.062 110.879ZM237.871 155.1C237.871 169.207 234.238 181.02 227.067 190.656L230.276 193.044C238.038 182.613 241.871 169.927 241.871 155.1H237.871ZM227.067 190.656C219.818 200.397 210.419 207.764 198.829 212.764L200.414 216.436C212.624 211.169 222.592 203.37 230.276 193.044L227.067 190.656ZM198.816 212.769C187.395 217.795 175.652 220.3 163.571 220.3V224.3C176.224 224.3 188.514 221.672 200.427 216.431L198.816 212.769ZM163.571 220.3C157.388 220.3 152.074 219.727 147.607 218.61L146.636 222.49C151.502 223.707 157.155 224.3 163.571 224.3V220.3ZM147.121 218.55C147.46 218.55 147.814 218.67 148.096 218.904C148.342 219.109 148.433 219.318 148.453 219.37C148.476 219.426 148.463 219.417 148.448 219.301C148.433 219.193 148.421 219.03 148.421 218.8H144.421C144.421 219.458 144.479 220.204 144.74 220.855C144.877 221.198 145.114 221.626 145.535 221.977C145.991 222.357 146.549 222.55 147.121 222.55V218.55ZM148.421 218.8C148.421 218.326 148.5 217.84 148.669 217.332L144.874 216.068C144.577 216.96 144.421 217.874 144.421 218.8H148.421ZM148.436 217.809C148.582 217.59 148.579 217.682 148.366 217.789C148.238 217.853 148.05 217.913 147.821 217.912C147.593 217.912 147.405 217.853 147.277 217.789L149.066 214.211C148.27 213.813 147.373 213.813 146.577 214.211C145.897 214.551 145.428 215.11 145.107 215.591L148.436 217.809ZM147.656 217.932C151.357 218.919 155.501 219.4 160.071 219.4V215.4C155.775 215.4 151.986 214.947 148.687 214.068L147.656 217.932ZM160.071 219.4C171.558 219.4 180.998 213.977 188.312 203.494L185.031 201.206C178.345 210.79 170.052 215.4 160.071 215.4V219.4ZM188.294 203.52C195.866 193.016 199.521 178.308 199.521 159.65H195.521C195.521 177.859 191.943 191.618 185.049 201.18L188.294 203.52ZM199.521 159.65C199.521 140.959 195.503 126.222 187.19 115.71L184.053 118.19C191.607 127.744 195.521 141.474 195.521 159.65H199.521ZM187.208 115.732C179.059 105.113 167.1 99.9 151.671 99.9V103.9C166.11 103.9 176.784 108.72 184.035 118.168L187.208 115.732ZM151.671 99.9C144.946 99.9 139.699 101.444 136.786 105.231L139.957 107.669C141.71 105.39 145.331 103.9 151.671 103.9V99.9ZM136.786 105.231C135.352 107.095 134.396 109.683 133.784 112.803C133.167 115.948 132.871 119.791 132.871 124.3H136.871C136.871 119.942 137.159 116.377 137.709 113.572C138.264 110.742 139.057 108.839 139.957 107.669L136.786 105.231ZM132.871 124.3V284.25H136.871V124.3H132.871Z" fill="#22262A"/>
</g>
<defs>
<linearGradient id="paint0_linear_313:885" x1="63.4507" y1="197.386" x2="272.233" y2="81.9939" gradientUnits="userSpaceOnUse">
<stop offset="0.267495" stop-color="#FFC6CE"/>
<stop offset="1" stop-color="#64D6EE"/>
</linearGradient>
<linearGradient id="paint1_linear_313:885" x1="150" y1="263.678" x2="261.921" y2="264.735" gradientUnits="userSpaceOnUse">
<stop offset="0.267495" stop-color="#FFC6CE"/>
<stop offset="1" stop-color="#64D6EE"/>
</linearGradient>
<linearGradient id="paint2_linear_313:885" x1="297.094" y1="216.388" x2="242.049" y2="118.933" gradientUnits="userSpaceOnUse">
<stop offset="0.267495" stop-color="#FFC6CE"/>
<stop offset="1" stop-color="#64D6EE"/>
</linearGradient>
<linearGradient id="paint3_linear_313:885" x1="209.388" y1="143.657" x2="111.933" y2="198.701" gradientUnits="userSpaceOnUse">
<stop offset="0.267495" stop-color="#FFC6CE"/>
<stop offset="1" stop-color="#64D6EE"/>
</linearGradient>
<linearGradient id="paint4_linear_313:885" x1="59" y1="88.6316" x2="249.47" y2="89.939" gradientUnits="userSpaceOnUse">
<stop offset="0.267495" stop-color="#FFC6CE"/>
<stop offset="1" stop-color="#64D6EE"/>
</linearGradient>
</defs>
</svg>
