<svg width="400" height="400" viewBox="0 0 400 400" fill="none" xmlns="http://www.w3.org/2000/svg">
<mask id="mask0_313:387" style="mask-type:alpha" maskUnits="userSpaceOnUse" x="-100" y="-100" width="600" height="600">
<circle cx="200" cy="200" r="300" fill="#22262A"/>
</mask>
<g mask="url(#mask0_313:387)">
<circle cx="200" cy="200" r="300" fill="#22262A"/>
<path d="M292.223 95.25C292.923 95.25 293.273 95.95 293.273 97.35C293.273 98.75 292.923 99.45 292.223 99.45C283.823 99.45 275.773 103.183 268.073 110.65C260.373 118.117 254.189 128.15 249.523 140.75L184.773 313.65C184.539 314.583 183.256 315.05 180.923 315.05C178.589 315.05 177.306 314.583 177.073 313.65L87.8227 124.3C83.6227 115.9 79.4227 109.717 75.2227 105.75C71.0227 101.55 66.356 99.45 61.2227 99.45C60.5227 99.45 60.1727 98.75 60.1727 97.35C60.1727 95.95 60.5227 95.25 61.2227 95.25C64.7227 95.25 67.1727 95.3667 68.5727 95.6C73.2393 96.0667 79.306 96.3 86.7727 96.3C106.839 96.3 123.873 96.0667 137.873 95.6C141.606 95.3667 146.273 95.25 151.873 95.25C152.573 95.25 152.923 95.95 152.923 97.35C152.923 98.75 152.573 99.45 151.873 99.45C144.873 99.45 139.389 100.967 135.423 104C131.689 106.8 129.823 110.883 129.823 116.25C129.823 120.217 131.106 125 133.673 130.6L194.223 259.75L239.723 139.7C242.056 133.167 243.223 127.567 243.223 122.9C243.223 115.667 241.006 109.95 236.573 105.75C232.373 101.55 226.189 99.45 218.023 99.45C217.323 99.45 216.973 98.75 216.973 97.35C216.973 95.95 217.323 95.25 218.023 95.25L235.173 95.6C244.973 96.0667 253.723 96.3 261.423 96.3C265.856 96.3 271.339 96.0667 277.873 95.6L292.223 95.25Z" fill="url(#paint0_linear_313:387)"/>
<path d="M292.223 95.25V93.25H292.198L292.174 93.2506L292.223 95.25ZM249.523 140.75L251.396 141.451L251.398 141.445L249.523 140.75ZM184.773 313.65L182.9 312.949L182.86 313.055L182.832 313.165L184.773 313.65ZM177.073 313.65L179.013 313.165L178.965 312.975L178.882 312.797L177.073 313.65ZM87.8227 124.3L89.6318 123.447L89.6219 123.426L89.6115 123.406L87.8227 124.3ZM75.2227 105.75L73.8084 107.164L73.8286 107.184L73.8494 107.204L75.2227 105.75ZM68.5727 95.6L68.2439 97.5728L68.3085 97.5835L68.3737 97.5901L68.5727 95.6ZM137.873 95.6L137.939 97.5989L137.968 97.5979L137.997 97.5961L137.873 95.6ZM135.423 104L136.623 105.6L136.63 105.594L136.638 105.589L135.423 104ZM133.673 130.6L131.855 131.433L131.858 131.441L131.862 131.449L133.673 130.6ZM194.223 259.75L192.412 260.599L194.418 264.878L196.093 260.459L194.223 259.75ZM239.723 139.7L241.593 140.409L241.6 140.391L241.606 140.373L239.723 139.7ZM236.573 105.75L235.158 107.164L235.178 107.183L235.197 107.202L236.573 105.75ZM218.023 95.25L218.063 93.2504L218.043 93.25H218.023V95.25ZM235.173 95.6L235.268 93.6023L235.241 93.601L235.213 93.6004L235.173 95.6ZM277.873 95.6L277.824 93.6006L277.777 93.6017L277.73 93.6051L277.873 95.6ZM292.223 97.25C292.048 97.25 291.805 97.2005 291.573 97.0454C291.352 96.8985 291.252 96.7317 291.221 96.6694C291.194 96.615 291.212 96.6285 291.234 96.76C291.255 96.8862 291.273 97.078 291.273 97.35H295.273C295.273 96.5478 295.183 95.6485 294.799 94.8806C294.593 94.4683 294.274 94.039 293.791 93.7171C293.296 93.387 292.748 93.25 292.223 93.25V97.25ZM291.273 97.35C291.273 97.622 291.255 97.8138 291.234 97.9399C291.212 98.0715 291.194 98.085 291.221 98.0306C291.252 97.9683 291.352 97.8014 291.573 97.6546C291.805 97.4995 292.048 97.45 292.223 97.45V101.45C292.748 101.45 293.296 101.313 293.791 100.983C294.274 100.661 294.593 100.232 294.799 99.8194C295.183 99.0515 295.273 98.1521 295.273 97.35H291.273ZM292.223 97.45C283.17 97.45 274.646 101.49 266.68 109.214L269.465 112.086C276.9 104.876 284.475 101.45 292.223 101.45V97.45ZM266.68 109.214C258.719 116.934 252.392 127.244 247.647 140.055L251.398 141.445C255.987 129.056 262.026 119.299 269.465 112.086L266.68 109.214ZM247.65 140.049L182.9 312.949L186.646 314.351L251.396 141.451L247.65 140.049ZM182.832 313.165C182.938 312.741 183.252 312.711 182.952 312.82C182.631 312.937 181.997 313.05 180.923 313.05V317.05C182.181 317.05 183.356 316.93 184.319 316.58C185.302 316.222 186.374 315.492 186.713 314.135L182.832 313.165ZM180.923 313.05C179.848 313.05 179.214 312.937 178.894 312.82C178.594 312.711 178.907 312.741 179.013 313.165L175.132 314.135C175.472 315.492 176.543 316.222 177.527 316.58C178.489 316.93 179.664 317.05 180.923 317.05V313.05ZM178.882 312.797L89.6318 123.447L86.0135 125.153L175.264 314.503L178.882 312.797ZM89.6115 123.406C85.3639 114.91 81.0392 108.492 76.5959 104.296L73.8494 107.204C77.8061 110.941 81.8814 116.89 86.0338 125.194L89.6115 123.406ZM76.6369 104.336C72.1256 99.8245 66.9703 97.45 61.2227 97.45V101.45C65.7417 101.45 69.9197 103.275 73.8084 107.164L76.6369 104.336ZM61.2227 97.45C61.3976 97.45 61.6399 97.4995 61.8727 97.6546C62.0929 97.8015 62.1929 97.9683 62.224 98.0306C62.2512 98.085 62.233 98.0715 62.2111 97.9399C62.19 97.8138 62.1727 97.622 62.1727 97.35H58.1727C58.1727 98.1521 58.2623 99.0515 58.6463 99.8194C58.8524 100.232 59.1712 100.661 59.6539 100.983C60.1491 101.313 60.6977 101.45 61.2227 101.45V97.45ZM62.1727 97.35C62.1727 97.078 62.19 96.8862 62.2111 96.76C62.233 96.6285 62.2512 96.615 62.224 96.6694C62.1929 96.7317 62.0929 96.8985 61.8727 97.0453C61.6399 97.2005 61.3976 97.25 61.2227 97.25V93.25C60.6977 93.25 60.1491 93.387 59.6539 93.7171C59.1712 94.039 58.8524 94.4683 58.6463 94.8806C58.2623 95.6485 58.1727 96.5478 58.1727 97.35H62.1727ZM61.2227 97.25C64.7259 97.25 67.0253 97.3697 68.2439 97.5728L68.9015 93.6272C67.32 93.3636 64.7194 93.25 61.2227 93.25V97.25ZM68.3737 97.5901C73.1333 98.066 79.2734 98.3 86.7727 98.3V94.3C79.3386 94.3 73.3454 94.0673 68.7717 93.6099L68.3737 97.5901ZM86.7727 98.3C106.853 98.3 123.91 98.0665 137.939 97.5989L137.806 93.6011C123.835 94.0668 106.826 94.3 86.7727 94.3V98.3ZM137.997 97.5961C141.674 97.3663 146.296 97.25 151.873 97.25V93.25C146.249 93.25 141.538 93.367 137.748 93.6039L137.997 97.5961ZM151.873 97.25C151.698 97.25 151.455 97.2005 151.223 97.0454C151.002 96.8985 150.902 96.7317 150.871 96.6694C150.844 96.615 150.862 96.6285 150.884 96.76C150.905 96.8862 150.923 97.078 150.923 97.35H154.923C154.923 96.5478 154.833 95.6485 154.449 94.8806C154.243 94.4683 153.924 94.039 153.441 93.7171C152.946 93.387 152.398 93.25 151.873 93.25V97.25ZM150.923 97.35C150.923 97.622 150.905 97.8138 150.884 97.9399C150.862 98.0715 150.844 98.085 150.871 98.0306C150.902 97.9683 151.002 97.8014 151.223 97.6546C151.455 97.4995 151.698 97.45 151.873 97.45V101.45C152.398 101.45 152.946 101.313 153.441 100.983C153.924 100.661 154.243 100.232 154.449 99.8194C154.833 99.0515 154.923 98.1521 154.923 97.35H150.923ZM151.873 97.45C144.606 97.45 138.639 99.0226 134.208 102.411L136.638 105.589C140.14 102.911 145.139 101.45 151.873 101.45V97.45ZM134.223 102.4C129.905 105.638 127.823 110.361 127.823 116.25H131.823C131.823 111.405 133.473 107.962 136.623 105.6L134.223 102.4ZM127.823 116.25C127.823 120.619 129.228 125.702 131.855 131.433L135.491 129.767C132.984 124.298 131.823 119.814 131.823 116.25H127.823ZM131.862 131.449L192.412 260.599L196.034 258.901L135.484 129.751L131.862 131.449ZM196.093 260.459L241.593 140.409L237.852 138.991L192.352 259.041L196.093 260.459ZM241.606 140.373C243.983 133.718 245.223 127.879 245.223 122.9H241.223C241.223 127.255 240.129 132.615 237.839 139.027L241.606 140.373ZM245.223 122.9C245.223 115.227 242.853 108.945 237.948 104.298L235.197 107.202C239.159 110.955 241.223 116.106 241.223 122.9H245.223ZM237.987 104.336C233.289 99.638 226.517 97.45 218.023 97.45V101.45C225.862 101.45 231.456 103.462 235.158 107.164L237.987 104.336ZM218.023 97.45C218.198 97.45 218.44 97.4995 218.673 97.6546C218.893 97.8015 218.993 97.9683 219.024 98.0306C219.051 98.085 219.033 98.0715 219.011 97.9399C218.99 97.8138 218.973 97.622 218.973 97.35H214.973C214.973 98.1521 215.062 99.0515 215.446 99.8194C215.652 100.232 215.971 100.661 216.454 100.983C216.949 101.313 217.498 101.45 218.023 101.45V97.45ZM218.973 97.35C218.973 97.078 218.99 96.8862 219.011 96.76C219.033 96.6285 219.051 96.615 219.024 96.6694C218.993 96.7317 218.893 96.8985 218.673 97.0453C218.44 97.2005 218.198 97.25 218.023 97.25V93.25C217.498 93.25 216.949 93.387 216.454 93.7171C215.971 94.039 215.652 94.4683 215.446 94.8806C215.062 95.6485 214.973 96.5478 214.973 97.35H218.973ZM217.982 97.2496L235.132 97.5996L235.213 93.6004L218.063 93.2504L217.982 97.2496ZM235.078 97.5977C244.901 98.0655 253.684 98.3 261.423 98.3V94.3C253.762 94.3 245.044 94.0678 235.268 93.6023L235.078 97.5977ZM261.423 98.3C265.92 98.3 271.454 98.0635 278.015 97.5949L277.73 93.6051C271.224 94.0698 265.792 94.3 261.423 94.3V98.3ZM277.921 97.5994L292.271 97.2494L292.174 93.2506L277.824 93.6006L277.921 97.5994Z" fill="#22262A"/>
<path d="M252 209.5L177 191.5C174 190.5 177.5 187 184 189L258 206.5C261.5 207.5 257 211 252 209.5Z" fill="url(#paint1_linear_313:387)"/>
<path d="M105 198.5L264.5 237M105 198.5L186 163L340 198.5M105 198.5V301.5L264.5 342.5M264.5 237L340 198.5M264.5 237V342.5M340 198.5V301.5L264.5 342.5M252 209.5L177 191.5C174 190.5 177.5 187 184 189L258 206.5C261.5 207.5 257 211 252 209.5Z" stroke="url(#paint2_linear_313:387)" stroke-width="2"/>
<path d="M279 111.5L203 97C187.728 112.995 189.5 118.5 192.25 143.75C195 169 198.9 173.348 181.5 190.5L253.5 207.5C269.168 189.642 270 174.75 267.25 159.25C264.5 143.75 256.836 127.267 279 111.5Z" fill="url(#paint3_linear_313:387)" stroke="#22262A" stroke-width="2"/>
</g>
<defs>
<linearGradient id="paint0_linear_313:387" x1="59" y1="88.6316" x2="286.774" y2="90.5013" gradientUnits="userSpaceOnUse">
<stop offset="0.267495" stop-color="#FFC6CE"/>
<stop offset="1" stop-color="#64D6EE"/>
</linearGradient>
<linearGradient id="paint1_linear_313:387" x1="105" y1="204.332" x2="335.646" y2="208.862" gradientUnits="userSpaceOnUse">
<stop offset="0.267495" stop-color="#FFC6CE"/>
<stop offset="1" stop-color="#64D6EE"/>
</linearGradient>
<linearGradient id="paint2_linear_313:387" x1="105" y1="204.332" x2="335.646" y2="208.862" gradientUnits="userSpaceOnUse">
<stop offset="0.267495" stop-color="#FFC6CE"/>
<stop offset="1" stop-color="#64D6EE"/>
</linearGradient>
<linearGradient id="paint3_linear_313:387" x1="181.5" y1="122.444" x2="277.214" y2="123.711" gradientUnits="userSpaceOnUse">
<stop offset="0.267495" stop-color="#FFC6CE"/>
<stop offset="1" stop-color="#64D6EE"/>
</linearGradient>
</defs>
</svg>
