<svg width="282" height="80" viewBox="0 0 282 80" fill="none" xmlns="http://www.w3.org/2000/svg">
<path d="M9.008 19.456C7.424 19.456 6.064 19.184 4.928 18.64C3.792 18.08 2.856 17.352 2.12 16.456C1.4 15.544 0.872 14.568 0.536 13.528C0.2 12.472 0.032 11.448 0.032 10.456V9.928C0.032 8.84 0.208 7.768 0.56 6.712C0.912 5.64 1.448 4.672 2.168 3.808C2.904 2.944 3.824 2.256 4.928 1.744C6.048 1.216 7.368 0.951999 8.888 0.951999C10.472 0.951999 11.864 1.248 13.064 1.84C14.28 2.432 15.248 3.256 15.968 4.312C16.704 5.368 17.144 6.592 17.288 7.984H13.328C13.152 6.944 12.664 6.128 11.864 5.536C11.064 4.928 10.072 4.624 8.888 4.624C7.32 4.624 6.112 5.144 5.264 6.184C4.432 7.208 4.016 8.552 4.016 10.216C4.016 11.32 4.208 12.296 4.592 13.144C4.976 13.976 5.536 14.624 6.272 15.088C7.024 15.552 7.936 15.784 9.008 15.784C10.224 15.784 11.248 15.488 12.08 14.896C12.928 14.304 13.44 13.488 13.616 12.448H17.552C17.408 13.744 16.976 14.92 16.256 15.976C15.552 17.032 14.584 17.88 13.352 18.52C12.136 19.144 10.688 19.456 9.008 19.456ZM26.3553 19.456C24.8193 19.456 23.5073 19.144 22.4193 18.52C21.3473 17.896 20.5313 17.08 19.9713 16.072C19.4113 15.048 19.1313 13.936 19.1313 12.736V12.184C19.1313 10.952 19.4193 9.824 19.9953 8.8C20.5873 7.76 21.4193 6.936 22.4913 6.328C23.5793 5.704 24.8673 5.392 26.3553 5.392C27.8433 5.392 29.1313 5.704 30.2193 6.328C31.3073 6.936 32.1393 7.76 32.7153 8.8C33.3073 9.824 33.6033 10.952 33.6033 12.184V12.736C33.6033 13.936 33.3153 15.048 32.7393 16.072C32.1793 17.08 31.3633 17.896 30.2913 18.52C29.2193 19.144 27.9073 19.456 26.3553 19.456ZM26.3553 16.216C27.4593 16.216 28.2993 15.864 28.8753 15.16C29.4673 14.44 29.7633 13.544 29.7633 12.472C29.7633 11.368 29.4593 10.456 28.8513 9.736C28.2593 9 27.4273 8.632 26.3553 8.632C25.2833 8.632 24.4513 9 23.8593 9.736C23.2673 10.456 22.9713 11.368 22.9713 12.472C22.9713 13.544 23.2593 14.44 23.8353 15.16C24.4113 15.864 25.2513 16.216 26.3553 16.216ZM36.4513 19V4.312H34.8913V1.48H40.3153V19H36.4513ZM44.0216 19V4.312H42.4616V1.48H47.8856V19H44.0216ZM57.4479 19.456C56.3279 19.456 55.3359 19.264 54.4719 18.88C53.6239 18.496 52.9119 17.984 52.3359 17.344C51.7599 16.688 51.3279 15.96 51.0399 15.16C50.7519 14.344 50.6079 13.512 50.6079 12.664V12.184C50.6079 11.32 50.7519 10.48 51.0399 9.664C51.3279 8.848 51.7599 8.12 52.3359 7.48C52.9119 6.84 53.6079 6.336 54.4239 5.968C55.2559 5.584 56.2159 5.392 57.3039 5.392C58.7119 5.392 59.8959 5.712 60.8559 6.352C61.8319 6.976 62.5759 7.8 63.0879 8.824C63.5999 9.848 63.8559 10.952 63.8559 12.136V13.432H54.2319C54.3599 14.328 54.6799 15.04 55.1919 15.568C55.7199 16.08 56.4719 16.336 57.4479 16.336C58.1359 16.336 58.7039 16.208 59.1519 15.952C59.6159 15.68 59.9279 15.336 60.0879 14.92H63.6159C63.3279 16.264 62.6319 17.36 61.5279 18.208C60.4399 19.04 59.0799 19.456 57.4479 19.456ZM57.3039 8.512C56.4719 8.512 55.7919 8.752 55.2639 9.232C54.7519 9.696 54.4239 10.368 54.2799 11.248H60.1839C60.0559 10.368 59.7439 9.696 59.2479 9.232C58.7679 8.752 58.1199 8.512 57.3039 8.512ZM72.3044 19.456C71.1684 19.456 70.1764 19.272 69.3284 18.904C68.4964 18.52 67.8004 18.008 67.2404 17.368C66.6804 16.728 66.2644 16.008 65.9924 15.208C65.7204 14.392 65.5844 13.552 65.5844 12.688V12.232C65.5844 11.032 65.8324 9.912 66.3284 8.872C66.8404 7.832 67.5924 6.992 68.5844 6.352C69.5924 5.712 70.8244 5.392 72.2804 5.392C73.4644 5.392 74.5124 5.624 75.4244 6.088C76.3364 6.536 77.0644 7.168 77.6084 7.984C78.1524 8.8 78.4564 9.736 78.5204 10.792H74.7524C74.6884 10.2 74.4484 9.704 74.0324 9.304C73.6164 8.888 73.0324 8.68 72.2804 8.68C71.3044 8.68 70.5844 9.032 70.1204 9.736C69.6564 10.424 69.4244 11.336 69.4244 12.472C69.4244 13.544 69.6404 14.432 70.0724 15.136C70.5204 15.824 71.2644 16.168 72.3044 16.168C73.0724 16.168 73.6724 15.968 74.1044 15.568C74.5364 15.168 74.7924 14.64 74.8724 13.984H78.6164C78.5524 15.072 78.2404 16.032 77.6804 16.864C77.1364 17.68 76.3924 18.32 75.4484 18.784C74.5204 19.232 73.4724 19.456 72.3044 19.456ZM87.0483 19.168C85.7203 19.168 84.6483 19.008 83.8323 18.688C83.0163 18.352 82.4163 17.8 82.0323 17.032C81.6643 16.248 81.4803 15.192 81.4803 13.864V8.656H79.4883V5.848H81.4803V2.296H85.0563V5.848H88.8963V8.656H85.0563V14.008C85.0563 14.632 85.2163 15.112 85.5363 15.448C85.8723 15.768 86.3443 15.928 86.9523 15.928H88.8963V19.168H87.0483ZM96.5176 23.8V5.848H99.5656V9.184C99.9496 7.968 100.59 7.048 101.486 6.424C102.398 5.784 103.462 5.464 104.678 5.464C105.894 5.464 106.95 5.76 107.846 6.352C108.758 6.928 109.462 7.72 109.958 8.728C110.47 9.736 110.726 10.872 110.726 12.136V12.688C110.726 13.952 110.486 15.096 110.006 16.12C109.526 17.144 108.838 17.952 107.942 18.544C107.046 19.136 105.958 19.432 104.678 19.432C103.782 19.432 102.958 19.264 102.206 18.928C101.454 18.592 100.838 18.08 100.358 17.392V23.8H96.5176ZM103.598 16.216C104.574 16.216 105.358 15.864 105.95 15.16C106.558 14.456 106.862 13.536 106.862 12.4C106.862 11.28 106.558 10.376 105.95 9.688C105.358 9 104.574 8.656 103.598 8.656C103.006 8.656 102.454 8.792 101.942 9.064C101.446 9.336 101.038 9.728 100.718 10.24C100.414 10.752 100.262 11.36 100.262 12.064V12.952C100.262 13.64 100.422 14.232 100.742 14.728C101.078 15.208 101.502 15.576 102.014 15.832C102.526 16.088 103.054 16.216 103.598 16.216ZM113.393 19V1.48H117.233V8.008C117.937 6.296 119.233 5.44 121.121 5.44H121.289C122.745 5.44 123.857 5.96 124.625 7C125.393 8.024 125.777 9.528 125.777 11.512V19H121.937V11.272C121.937 10.552 121.721 9.976 121.289 9.544C120.873 9.096 120.321 8.872 119.633 8.872C118.913 8.872 118.329 9.112 117.881 9.592C117.449 10.056 117.233 10.664 117.233 11.416V19H113.393ZM131.355 18.712L127.323 5.848H131.187L134.091 15.712H134.571L136.971 5.848H140.619L136.947 20.056C136.675 21.08 136.307 21.896 135.843 22.504C135.395 23.112 134.787 23.544 134.019 23.8C133.267 24.072 132.315 24.208 131.163 24.208H128.811V20.944H131.547C132.155 20.944 132.627 20.824 132.963 20.584C133.315 20.344 133.571 19.912 133.731 19.288L133.851 18.712H131.355ZM147.517 19.408C145.645 19.408 144.181 19.024 143.125 18.256C142.069 17.488 141.509 16.408 141.445 15.016H144.853C144.901 15.432 145.149 15.808 145.597 16.144C146.045 16.464 146.709 16.624 147.589 16.624C148.245 16.624 148.797 16.512 149.245 16.288C149.693 16.064 149.917 15.728 149.917 15.28C149.917 14.896 149.749 14.592 149.413 14.368C149.077 14.128 148.477 13.96 147.613 13.864L146.581 13.768C144.997 13.592 143.805 13.152 143.005 12.448C142.221 11.744 141.829 10.824 141.829 9.688C141.829 8.76 142.061 7.984 142.525 7.36C143.005 6.736 143.653 6.264 144.469 5.944C145.285 5.624 146.221 5.464 147.277 5.464C148.973 5.464 150.333 5.84 151.357 6.592C152.397 7.328 152.949 8.4 153.013 9.808H149.605C149.541 9.392 149.309 9.032 148.909 8.728C148.525 8.424 147.965 8.272 147.229 8.272C146.637 8.272 146.165 8.384 145.813 8.608C145.461 8.832 145.285 9.136 145.285 9.52C145.285 9.888 145.437 10.168 145.741 10.36C146.045 10.552 146.541 10.688 147.229 10.768L148.261 10.864C149.861 11.04 151.109 11.496 152.005 12.232C152.917 12.952 153.373 13.912 153.373 15.112C153.373 16.44 152.845 17.488 151.789 18.256C150.733 19.024 149.309 19.408 147.517 19.408ZM157.973 4.552C157.253 4.552 156.717 4.368 156.365 4C156.029 3.616 155.861 3.136 155.861 2.56C155.861 1.968 156.029 1.488 156.365 1.12C156.717 0.735999 157.253 0.543999 157.973 0.543999C158.693 0.543999 159.221 0.735999 159.557 1.12C159.909 1.488 160.085 1.968 160.085 2.56C160.085 3.136 159.909 3.616 159.557 4C159.221 4.368 158.693 4.552 157.973 4.552ZM156.485 19V8.68H154.733V5.848H160.325V19H156.485ZM169.781 19.456C168.645 19.456 167.653 19.272 166.805 18.904C165.973 18.52 165.277 18.008 164.717 17.368C164.157 16.728 163.741 16.008 163.469 15.208C163.197 14.392 163.061 13.552 163.061 12.688V12.232C163.061 11.032 163.309 9.912 163.805 8.872C164.317 7.832 165.069 6.992 166.061 6.352C167.069 5.712 168.301 5.392 169.757 5.392C170.941 5.392 171.989 5.624 172.901 6.088C173.813 6.536 174.541 7.168 175.085 7.984C175.629 8.8 175.933 9.736 175.997 10.792H172.229C172.165 10.2 171.925 9.704 171.509 9.304C171.093 8.888 170.509 8.68 169.757 8.68C168.781 8.68 168.061 9.032 167.597 9.736C167.133 10.424 166.901 11.336 166.901 12.472C166.901 13.544 167.117 14.432 167.549 15.136C167.997 15.824 168.741 16.168 169.781 16.168C170.549 16.168 171.149 15.968 171.581 15.568C172.013 15.168 172.269 14.64 172.349 13.984H176.093C176.029 15.072 175.717 16.032 175.157 16.864C174.613 17.68 173.869 18.32 172.925 18.784C171.997 19.232 170.949 19.456 169.781 19.456ZM182.293 19.336C180.869 19.336 179.717 18.968 178.837 18.232C177.973 17.496 177.541 16.456 177.541 15.112C177.541 14.152 177.789 13.368 178.285 12.76C178.781 12.136 179.477 11.68 180.373 11.392C181.269 11.088 182.301 10.936 183.469 10.936H185.845V10.888C185.845 9.544 185.173 8.872 183.829 8.872C183.477 8.872 183.013 8.888 182.437 8.92C181.861 8.936 181.261 8.96 180.637 8.992C180.029 9.008 179.485 9.032 179.005 9.064V5.824C179.565 5.776 180.253 5.736 181.069 5.704C181.885 5.656 182.637 5.632 183.325 5.632C185.341 5.632 186.877 6.064 187.933 6.928C189.005 7.776 189.541 9.112 189.541 10.936V19H186.493V16.528C186.205 17.44 185.709 18.136 185.005 18.616C184.301 19.096 183.397 19.336 182.293 19.336ZM183.445 16.672C184.069 16.672 184.613 16.496 185.077 16.144C185.541 15.792 185.797 15.12 185.845 14.128V13.072H183.445C182.773 13.072 182.253 13.24 181.885 13.576C181.533 13.912 181.357 14.352 181.357 14.896C181.357 15.424 181.533 15.856 181.885 16.192C182.253 16.512 182.773 16.672 183.445 16.672ZM192.967 19V4.312H191.407V1.48H196.831V19H192.967ZM0.752 49V35.848H3.8V39.184C4.312 36.688 5.736 35.44 8.072 35.44H8.24C10.272 35.44 11.616 36.392 12.272 38.296C12.944 36.392 14.296 35.44 16.328 35.44H16.496C17.984 35.44 19.12 35.952 19.904 36.976C20.688 38 21.08 39.512 21.08 41.512V49H17.24V41.296C17.24 40.576 17.048 39.992 16.664 39.544C16.296 39.096 15.768 38.872 15.08 38.872C14.392 38.872 13.848 39.104 13.448 39.568C13.048 40.032 12.848 40.632 12.848 41.368V49H8.984V41.296C8.984 40.576 8.792 39.992 8.408 39.544C8.04 39.096 7.52 38.872 6.848 38.872C6.144 38.872 5.592 39.104 5.192 39.568C4.792 40.032 4.592 40.632 4.592 41.368V49H0.752ZM28.0976 49.336C26.6736 49.336 25.5216 48.968 24.6416 48.232C23.7776 47.496 23.3456 46.456 23.3456 45.112C23.3456 44.152 23.5936 43.368 24.0896 42.76C24.5856 42.136 25.2816 41.68 26.1776 41.392C27.0736 41.088 28.1056 40.936 29.2736 40.936H31.6496V40.888C31.6496 39.544 30.9776 38.872 29.6336 38.872C29.2816 38.872 28.8176 38.888 28.2416 38.92C27.6656 38.936 27.0656 38.96 26.4416 38.992C25.8336 39.008 25.2896 39.032 24.8096 39.064V35.824C25.3696 35.776 26.0576 35.736 26.8736 35.704C27.6896 35.656 28.4416 35.632 29.1296 35.632C31.1456 35.632 32.6816 36.064 33.7376 36.928C34.8096 37.776 35.3456 39.112 35.3456 40.936V49H32.2976V46.528C32.0096 47.44 31.5136 48.136 30.8096 48.616C30.1056 49.096 29.2016 49.336 28.0976 49.336ZM29.2496 46.672C29.8736 46.672 30.4176 46.496 30.8816 46.144C31.3456 45.792 31.6016 45.12 31.6496 44.128V43.072H29.2496C28.5776 43.072 28.0576 43.24 27.6896 43.576C27.3376 43.912 27.1616 44.352 27.1616 44.896C27.1616 45.424 27.3376 45.856 27.6896 46.192C28.0576 46.512 28.5776 46.672 29.2496 46.672ZM38.6036 49V35.848H41.6516V39.208C42.1796 36.696 43.6596 35.44 46.0916 35.44H46.2596C47.7796 35.44 48.9476 35.944 49.7636 36.952C50.5796 37.944 50.9876 39.456 50.9876 41.488V49H47.1476V41.272C47.1476 40.568 46.9396 39.992 46.5236 39.544C46.1076 39.096 45.5476 38.872 44.8436 38.872C44.1236 38.872 43.5396 39.104 43.0916 39.568C42.6596 40.016 42.4436 40.608 42.4436 41.344V49H38.6036ZM56.3718 34.552C55.6518 34.552 55.1158 34.368 54.7638 34C54.4278 33.616 54.2598 33.136 54.2598 32.56C54.2598 31.968 54.4278 31.488 54.7638 31.12C55.1158 30.736 55.6518 30.544 56.3718 30.544C57.0918 30.544 57.6198 30.736 57.9558 31.12C58.3078 31.488 58.4838 31.968 58.4838 32.56C58.4838 33.136 58.3078 33.616 57.9558 34C57.6198 34.368 57.0918 34.552 56.3718 34.552ZM54.8838 49V38.68H53.1318V35.848H58.7238V49H54.8838ZM62.5634 49V38.92H61.0034V36.112H62.5634V35.728C62.5634 32.736 64.2674 31.24 67.6754 31.24H69.3554V34.12H67.5074C66.5954 34.12 66.1394 34.576 66.1394 35.488V36.112H69.5474V38.92H66.1394V49H62.5634ZM77.4166 49.456C76.2966 49.456 75.3046 49.264 74.4406 48.88C73.5926 48.496 72.8806 47.984 72.3046 47.344C71.7286 46.688 71.2966 45.96 71.0086 45.16C70.7206 44.344 70.5766 43.512 70.5766 42.664V42.184C70.5766 41.32 70.7206 40.48 71.0086 39.664C71.2966 38.848 71.7286 38.12 72.3046 37.48C72.8806 36.84 73.5766 36.336 74.3926 35.968C75.2246 35.584 76.1846 35.392 77.2726 35.392C78.6806 35.392 79.8646 35.712 80.8246 36.352C81.8006 36.976 82.5446 37.8 83.0566 38.824C83.5686 39.848 83.8246 40.952 83.8246 42.136V43.432H74.2006C74.3286 44.328 74.6486 45.04 75.1606 45.568C75.6886 46.08 76.4406 46.336 77.4166 46.336C78.1046 46.336 78.6726 46.208 79.1206 45.952C79.5846 45.68 79.8966 45.336 80.0566 44.92H83.5846C83.2966 46.264 82.6006 47.36 81.4966 48.208C80.4086 49.04 79.0486 49.456 77.4166 49.456ZM77.2726 38.512C76.4406 38.512 75.7606 38.752 75.2326 39.232C74.7206 39.696 74.3926 40.368 74.2486 41.248H80.1526C80.0246 40.368 79.7126 39.696 79.2166 39.232C78.7366 38.752 78.0886 38.512 77.2726 38.512ZM91.3612 49.408C89.4892 49.408 88.0252 49.024 86.9692 48.256C85.9132 47.488 85.3532 46.408 85.2892 45.016H88.6972C88.7452 45.432 88.9932 45.808 89.4412 46.144C89.8892 46.464 90.5532 46.624 91.4332 46.624C92.0892 46.624 92.6412 46.512 93.0892 46.288C93.5372 46.064 93.7612 45.728 93.7612 45.28C93.7612 44.896 93.5932 44.592 93.2572 44.368C92.9212 44.128 92.3212 43.96 91.4572 43.864L90.4252 43.768C88.8412 43.592 87.6492 43.152 86.8492 42.448C86.0652 41.744 85.6732 40.824 85.6732 39.688C85.6732 38.76 85.9052 37.984 86.3692 37.36C86.8492 36.736 87.4972 36.264 88.3132 35.944C89.1292 35.624 90.0652 35.464 91.1212 35.464C92.8172 35.464 94.1772 35.84 95.2012 36.592C96.2412 37.328 96.7932 38.4 96.8572 39.808H93.4492C93.3852 39.392 93.1532 39.032 92.7532 38.728C92.3692 38.424 91.8092 38.272 91.0732 38.272C90.4812 38.272 90.0092 38.384 89.6572 38.608C89.3052 38.832 89.1292 39.136 89.1292 39.52C89.1292 39.888 89.2812 40.168 89.5852 40.36C89.8892 40.552 90.3852 40.688 91.0732 40.768L92.1052 40.864C93.7052 41.04 94.9532 41.496 95.8492 42.232C96.7612 42.952 97.2172 43.912 97.2172 45.112C97.2172 46.44 96.6892 47.488 95.6332 48.256C94.5772 49.024 93.1532 49.408 91.3612 49.408ZM105.681 49.168C104.353 49.168 103.281 49.008 102.465 48.688C101.649 48.352 101.049 47.8 100.665 47.032C100.297 46.248 100.113 45.192 100.113 43.864V38.656H98.1211V35.848H100.113V32.296H103.689V35.848H107.529V38.656H103.689V44.008C103.689 44.632 103.849 45.112 104.169 45.448C104.505 45.768 104.977 45.928 105.585 45.928H107.529V49.168H105.681ZM113.809 49.336C112.385 49.336 111.233 48.968 110.353 48.232C109.489 47.496 109.057 46.456 109.057 45.112C109.057 44.152 109.305 43.368 109.801 42.76C110.297 42.136 110.993 41.68 111.889 41.392C112.785 41.088 113.817 40.936 114.985 40.936H117.361V40.888C117.361 39.544 116.689 38.872 115.345 38.872C114.993 38.872 114.529 38.888 113.953 38.92C113.377 38.936 112.777 38.96 112.153 38.992C111.545 39.008 111.001 39.032 110.521 39.064V35.824C111.081 35.776 111.769 35.736 112.585 35.704C113.401 35.656 114.153 35.632 114.841 35.632C116.857 35.632 118.393 36.064 119.449 36.928C120.521 37.776 121.057 39.112 121.057 40.936V49H118.009V46.528C117.721 47.44 117.225 48.136 116.521 48.616C115.817 49.096 114.913 49.336 113.809 49.336ZM114.961 46.672C115.585 46.672 116.129 46.496 116.593 46.144C117.057 45.792 117.313 45.12 117.361 44.128V43.072H114.961C114.289 43.072 113.769 43.24 113.401 43.576C113.049 43.912 112.873 44.352 112.873 44.896C112.873 45.424 113.049 45.856 113.401 46.192C113.769 46.512 114.289 46.672 114.961 46.672ZM130.291 49.168C128.963 49.168 127.891 49.008 127.075 48.688C126.259 48.352 125.659 47.8 125.275 47.032C124.907 46.248 124.723 45.192 124.723 43.864V38.656H122.731V35.848H124.723V32.296H128.299V35.848H132.139V38.656H128.299V44.008C128.299 44.632 128.459 45.112 128.779 45.448C129.115 45.768 129.587 45.928 130.195 45.928H132.139V49.168H130.291ZM136.833 34.552C136.113 34.552 135.577 34.368 135.225 34C134.889 33.616 134.721 33.136 134.721 32.56C134.721 31.968 134.889 31.488 135.225 31.12C135.577 30.736 136.113 30.544 136.833 30.544C137.553 30.544 138.081 30.736 138.417 31.12C138.769 31.488 138.945 31.968 138.945 32.56C138.945 33.136 138.769 33.616 138.417 34C138.081 34.368 137.553 34.552 136.833 34.552ZM135.345 49V38.68H133.593V35.848H139.185V49H135.345ZM149.144 49.456C147.608 49.456 146.296 49.144 145.208 48.52C144.136 47.896 143.32 47.08 142.76 46.072C142.2 45.048 141.92 43.936 141.92 42.736V42.184C141.92 40.952 142.208 39.824 142.784 38.8C143.376 37.76 144.208 36.936 145.28 36.328C146.368 35.704 147.656 35.392 149.144 35.392C150.632 35.392 151.92 35.704 153.008 36.328C154.096 36.936 154.928 37.76 155.504 38.8C156.096 39.824 156.392 40.952 156.392 42.184V42.736C156.392 43.936 156.104 45.048 155.528 46.072C154.968 47.08 154.152 47.896 153.08 48.52C152.008 49.144 150.696 49.456 149.144 49.456ZM149.144 46.216C150.248 46.216 151.088 45.864 151.664 45.16C152.256 44.44 152.552 43.544 152.552 42.472C152.552 41.368 152.248 40.456 151.64 39.736C151.048 39 150.216 38.632 149.144 38.632C148.072 38.632 147.24 39 146.648 39.736C146.056 40.456 145.76 41.368 145.76 42.472C145.76 43.544 146.048 44.44 146.624 45.16C147.2 45.864 148.04 46.216 149.144 46.216ZM159.072 49V35.848H162.12V39.208C162.648 36.696 164.128 35.44 166.56 35.44H166.728C168.248 35.44 169.416 35.944 170.232 36.952C171.048 37.944 171.456 39.456 171.456 41.488V49H167.616V41.272C167.616 40.568 167.408 39.992 166.992 39.544C166.576 39.096 166.016 38.872 165.312 38.872C164.592 38.872 164.008 39.104 163.56 39.568C163.128 40.016 162.912 40.608 162.912 41.344V49H159.072ZM179.721 49.408C177.849 49.408 176.385 49.024 175.329 48.256C174.273 47.488 173.713 46.408 173.649 45.016H177.057C177.105 45.432 177.353 45.808 177.801 46.144C178.249 46.464 178.913 46.624 179.793 46.624C180.449 46.624 181.001 46.512 181.449 46.288C181.897 46.064 182.121 45.728 182.121 45.28C182.121 44.896 181.953 44.592 181.617 44.368C181.281 44.128 180.681 43.96 179.817 43.864L178.785 43.768C177.201 43.592 176.009 43.152 175.209 42.448C174.425 41.744 174.033 40.824 174.033 39.688C174.033 38.76 174.265 37.984 174.729 37.36C175.209 36.736 175.857 36.264 176.673 35.944C177.489 35.624 178.425 35.464 179.481 35.464C181.177 35.464 182.537 35.84 183.561 36.592C184.601 37.328 185.153 38.4 185.217 39.808H181.809C181.745 39.392 181.513 39.032 181.113 38.728C180.729 38.424 180.169 38.272 179.433 38.272C178.841 38.272 178.369 38.384 178.017 38.608C177.665 38.832 177.489 39.136 177.489 39.52C177.489 39.888 177.641 40.168 177.945 40.36C178.249 40.552 178.745 40.688 179.433 40.768L180.465 40.864C182.065 41.04 183.313 41.496 184.209 42.232C185.121 42.952 185.577 43.912 185.577 45.112C185.577 46.44 185.049 47.488 183.993 48.256C182.937 49.024 181.513 49.408 179.721 49.408ZM199.512 49.456C197.976 49.456 196.664 49.144 195.576 48.52C194.504 47.896 193.688 47.08 193.128 46.072C192.568 45.048 192.288 43.936 192.288 42.736V42.184C192.288 40.952 192.576 39.824 193.152 38.8C193.744 37.76 194.576 36.936 195.648 36.328C196.736 35.704 198.024 35.392 199.512 35.392C201 35.392 202.288 35.704 203.376 36.328C204.464 36.936 205.296 37.76 205.872 38.8C206.464 39.824 206.76 40.952 206.76 42.184V42.736C206.76 43.936 206.472 45.048 205.896 46.072C205.336 47.08 204.52 47.896 203.448 48.52C202.376 49.144 201.064 49.456 199.512 49.456ZM199.512 46.216C200.616 46.216 201.456 45.864 202.032 45.16C202.624 44.44 202.92 43.544 202.92 42.472C202.92 41.368 202.616 40.456 202.008 39.736C201.416 39 200.584 38.632 199.512 38.632C198.44 38.632 197.608 39 197.016 39.736C196.424 40.456 196.128 41.368 196.128 42.472C196.128 43.544 196.416 44.44 196.992 45.16C197.568 45.864 198.408 46.216 199.512 46.216ZM209.728 49V38.92H208.168V36.112H209.728V35.728C209.728 32.736 211.432 31.24 214.84 31.24H216.52V34.12H214.672C213.76 34.12 213.304 34.576 213.304 35.488V36.112H216.712V38.92H213.304V49H209.728ZM231.082 48.712L227.05 35.848H230.914L233.818 45.712H234.298L236.698 35.848H240.346L236.674 50.056C236.402 51.08 236.034 51.896 235.57 52.504C235.122 53.112 234.514 53.544 233.746 53.8C232.994 54.072 232.042 54.208 230.89 54.208H228.538V50.944H231.274C231.882 50.944 232.354 50.824 232.69 50.584C233.042 50.344 233.298 49.912 233.458 49.288L233.578 48.712H231.082ZM248.473 49.456C246.937 49.456 245.625 49.144 244.537 48.52C243.465 47.896 242.649 47.08 242.089 46.072C241.529 45.048 241.249 43.936 241.249 42.736V42.184C241.249 40.952 241.537 39.824 242.113 38.8C242.705 37.76 243.537 36.936 244.609 36.328C245.697 35.704 246.985 35.392 248.473 35.392C249.961 35.392 251.249 35.704 252.337 36.328C253.425 36.936 254.257 37.76 254.833 38.8C255.425 39.824 255.721 40.952 255.721 42.184V42.736C255.721 43.936 255.433 45.048 254.857 46.072C254.297 47.08 253.481 47.896 252.409 48.52C251.337 49.144 250.025 49.456 248.473 49.456ZM248.473 46.216C249.577 46.216 250.417 45.864 250.993 45.16C251.585 44.44 251.881 43.544 251.881 42.472C251.881 41.368 251.577 40.456 250.969 39.736C250.377 39 249.545 38.632 248.473 38.632C247.401 38.632 246.569 39 245.977 39.736C245.385 40.456 245.089 41.368 245.089 42.472C245.089 43.544 245.377 44.44 245.953 45.16C246.529 45.864 247.369 46.216 248.473 46.216ZM262.84 49.408C261.32 49.408 260.152 48.92 259.336 47.944C258.52 46.968 258.112 45.48 258.112 43.48V35.848H261.952V43.672C261.952 44.376 262.152 44.936 262.552 45.352C262.952 45.768 263.488 45.976 264.16 45.976C264.848 45.976 265.408 45.76 265.84 45.328C266.272 44.896 266.488 44.312 266.488 43.576V35.848H270.328V49H267.28V45.928C266.736 48.248 265.312 49.408 263.008 49.408H262.84ZM273.869 49V35.848H276.917V40.312C277.061 38.824 277.517 37.68 278.285 36.88C279.069 36.08 280.133 35.68 281.477 35.68H281.981V38.992H281.021C279.949 38.992 279.125 39.28 278.549 39.856C277.989 40.432 277.709 41.248 277.709 42.304V49H273.869ZM0.968 79V61.48H7.424L14.024 75.808H14.36V61.48H18.056V79H11.552L4.952 64.672H4.616V79H0.968ZM21.9914 79V61.48H32.5034V64.744H25.9274V68.68H32.2154V71.944H25.9274V79H21.9914ZM39.1121 79V64.912H34.1921V61.48H47.9921V64.912H43.0481V79H39.1121ZM54.0253 79.408C52.1533 79.408 50.6893 79.024 49.6333 78.256C48.5773 77.488 48.0173 76.408 47.9533 75.016H51.3613C51.4093 75.432 51.6573 75.808 52.1053 76.144C52.5533 76.464 53.2173 76.624 54.0973 76.624C54.7533 76.624 55.3053 76.512 55.7533 76.288C56.2013 76.064 56.4253 75.728 56.4253 75.28C56.4253 74.896 56.2573 74.592 55.9213 74.368C55.5853 74.128 54.9853 73.96 54.1213 73.864L53.0893 73.768C51.5053 73.592 50.3133 73.152 49.5133 72.448C48.7293 71.744 48.3373 70.824 48.3373 69.688C48.3373 68.76 48.5693 67.984 49.0333 67.36C49.5133 66.736 50.1613 66.264 50.9773 65.944C51.7933 65.624 52.7293 65.464 53.7853 65.464C55.4813 65.464 56.8413 65.84 57.8653 66.592C58.9053 67.328 59.4573 68.4 59.5213 69.808H56.1133C56.0493 69.392 55.8173 69.032 55.4173 68.728C55.0333 68.424 54.4733 68.272 53.7373 68.272C53.1453 68.272 52.6733 68.384 52.3213 68.608C51.9693 68.832 51.7933 69.136 51.7933 69.52C51.7933 69.888 51.9453 70.168 52.2493 70.36C52.5533 70.552 53.0493 70.688 53.7373 70.768L54.7693 70.864C56.3693 71.04 57.6173 71.496 58.5133 72.232C59.4253 72.952 59.8813 73.912 59.8813 75.112C59.8813 76.44 59.3533 77.488 58.2973 78.256C57.2413 79.024 55.8173 79.408 54.0253 79.408Z" fill="url(#paint0_linear_239:764)"/>
<defs>
<linearGradient id="paint0_linear_239:764" x1="-1" y1="16.7237" x2="312.301" y2="33.4353" gradientUnits="userSpaceOnUse">
<stop offset="0.267495" stop-color="#FFC6CE"/>
<stop offset="1" stop-color="#64D6EE"/>
</linearGradient>
</defs>
</svg>
