<svg width="23" height="81" viewBox="0 0 23 81" fill="none" xmlns="http://www.w3.org/2000/svg">
<path d="M0.735999 71.0101C0.735999 70.2581 0.799999 69.4981 0.927999 68.7301C1.04 67.9461 1.192 67.3221 1.384 66.8581C1.432 66.7141 1.496 66.6261 1.576 66.5941C1.64 66.5461 1.76 66.5141 1.936 66.4981L5.272 66.1861C5.32 66.1861 5.352 66.2261 5.368 66.3061C5.384 66.3861 5.36 66.4421 5.296 66.4741C3.984 66.9221 2.984 67.5621 2.296 68.3941C1.592 69.2261 1.24 70.2261 1.24 71.3941C1.24 72.4821 1.536 73.4581 2.128 74.3221C2.704 75.1701 3.536 75.8421 4.624 76.3381C5.712 76.8181 6.984 77.0581 8.44 77.0581C9.912 77.0581 11.208 76.8101 12.328 76.3141C13.432 75.8021 14.288 75.1061 14.896 74.2261C15.488 73.3301 15.784 72.3061 15.784 71.1541C15.784 70.0501 15.488 69.1221 14.896 68.3701C14.288 67.6181 13.296 66.9061 11.92 66.2341C11.872 66.2181 11.856 66.1701 11.872 66.0901C11.888 66.0101 11.92 65.9701 11.968 65.9701L14.944 66.3301C15.136 66.3621 15.264 66.3941 15.328 66.4261C15.376 66.4581 15.432 66.5461 15.496 66.6901C16.024 68.1621 16.288 69.6501 16.288 71.1541C16.288 72.8661 15.968 74.4021 15.328 75.7621C14.672 77.1061 13.76 78.1621 12.592 78.9301C11.424 79.6981 10.096 80.0821 8.608 80.0821C7.088 80.0821 5.736 79.6901 4.552 78.9061C3.352 78.1061 2.416 77.0181 1.744 75.6421C1.072 74.2501 0.735999 72.7061 0.735999 71.0101ZM16.312 59.2341C16.312 60.2261 16.088 61.0981 15.64 61.8501C15.176 62.5861 14.56 63.1541 13.792 63.5541C13.008 63.9541 12.16 64.1541 11.248 64.1541C10.208 64.1541 9.328 63.8901 8.608 63.3621C7.872 62.8341 7.328 62.1621 6.976 61.3461C6.608 60.5301 6.424 59.6901 6.424 58.8261C6.424 57.8341 6.656 56.9701 7.12 56.2341C7.584 55.4981 8.2 54.9381 8.968 54.5541C9.72 54.1541 10.528 53.9541 11.392 53.9541C12.352 53.9541 13.208 54.1941 13.96 54.6741C14.696 55.1541 15.272 55.8021 15.688 56.6181C16.104 57.4181 16.312 58.2901 16.312 59.2341ZM15.808 58.5141C15.808 57.8901 15.504 57.4181 14.896 57.0981C14.272 56.7621 13.384 56.5941 12.232 56.5941C11.112 56.5941 10.152 56.7381 9.352 57.0261C8.552 57.3141 7.952 57.6901 7.552 58.1541C7.136 58.6181 6.928 59.1141 6.928 59.6421C6.928 60.9221 8.072 61.5621 10.36 61.5621C11.432 61.5621 12.384 61.4261 13.216 61.1541C14.032 60.8821 14.672 60.5141 15.136 60.0501C15.584 59.5861 15.808 59.0741 15.808 58.5141ZM15.712 40.9639C15.712 40.9159 15.76 40.8919 15.856 40.8919C15.952 40.8919 16 40.9159 16 40.9639C16 41.3799 15.992 41.7079 15.976 41.9479L15.952 43.3879L15.976 44.7799C15.992 45.0359 16 45.3719 16 45.7879C16 45.8359 15.952 45.8599 15.856 45.8599C15.76 45.8599 15.712 45.8359 15.712 45.7879C15.712 45.2919 15.6 44.9559 15.376 44.7799C15.136 44.6039 14.696 44.5159 14.056 44.5159L10.6 44.5159C9.736 44.5159 9.096 44.6759 8.68 44.9959C8.264 45.2999 8.056 45.7879 8.056 46.4599C8.056 46.8439 8.136 47.2439 8.296 47.6599C8.456 48.0599 8.672 48.4119 8.944 48.7159L14.056 48.7159C14.696 48.7159 15.136 48.6279 15.376 48.4519C15.6 48.2599 15.712 47.9159 15.712 47.4199C15.712 47.3719 15.76 47.3479 15.856 47.3479C15.952 47.3479 16 47.3719 16 47.4199C16 47.8359 15.992 48.1639 15.976 48.4039L15.952 49.8439L15.976 51.2599C15.992 51.4999 16 51.8279 16 52.2439C16 52.2919 15.952 52.3159 15.856 52.3159C15.76 52.3159 15.712 52.2919 15.712 52.2439C15.712 51.7479 15.6 51.4119 15.376 51.2359C15.136 51.0599 14.696 50.9719 14.056 50.9719L9.544 50.9719C9.048 50.9719 8.688 51.0359 8.464 51.1639C8.224 51.2759 8.104 51.4599 8.104 51.7159C8.104 51.9879 8.216 52.3719 8.44 52.8679L8.44 52.9159C8.44 52.9639 8.4 53.0039 8.32 53.0359C8.24 53.0519 8.192 53.0439 8.176 53.0119L6.544 49.6759C6.512 49.5799 6.496 49.5239 6.496 49.5079C6.496 49.3319 6.672 49.1639 7.024 49.0039C7.36 48.8439 7.824 48.7479 8.416 48.7159C7.104 47.6119 6.448 46.3959 6.448 45.0679C6.448 44.2039 6.728 43.5239 7.288 43.0279C7.832 42.5159 8.552 42.2599 9.448 42.2599L14.056 42.2599C14.696 42.2599 15.136 42.1719 15.376 41.9959C15.6 41.8039 15.712 41.4599 15.712 40.9639ZM16.288 34.9311C16.288 35.9871 16.064 36.8831 15.616 37.6191C15.152 38.3391 14.56 38.8831 13.84 39.2511C13.104 39.6031 12.336 39.7791 11.536 39.7791C10.528 39.7791 9.648 39.4991 8.896 38.9391C8.128 38.3791 7.544 37.6671 7.144 36.8031C6.728 35.9231 6.52 35.0271 6.52 34.1151C6.52 33.3471 6.68 32.6591 7 32.0511C7.32 31.4271 7.76 31.1151 8.32 31.1151C8.624 31.1151 8.888 31.2351 9.112 31.4751C9.32 31.6991 9.424 32.0191 9.424 32.4351C9.424 32.8191 9.328 33.1231 9.136 33.3471C8.928 33.5711 8.616 33.7551 8.2 33.8991C7.752 34.0431 7.448 34.1871 7.288 34.3311C7.112 34.4591 7.024 34.6991 7.024 35.0511C7.024 35.7391 7.368 36.2911 8.056 36.7071C8.728 37.1071 9.624 37.3071 10.744 37.3071C12.072 37.3071 13.136 37.0111 13.936 36.4191C14.72 35.8271 15.112 34.8831 15.112 33.5871C15.112 33.1551 15.064 32.7871 14.968 32.4831C14.872 32.1631 14.712 31.7631 14.488 31.2831L14.488 31.2591C14.488 31.2111 14.512 31.1711 14.56 31.1391C14.608 31.0911 14.648 31.0831 14.68 31.1151C15.224 31.7071 15.632 32.2991 15.904 32.8911C16.16 33.4831 16.288 34.1631 16.288 34.9311ZM14.416 21.1804C14.416 21.1484 14.448 21.1164 14.512 21.0844C14.576 21.0364 14.624 21.0284 14.656 21.0604C15.232 21.6524 15.648 22.2524 15.904 22.8604C16.16 23.4684 16.288 24.1324 16.288 24.8524C16.288 25.8604 16.08 26.7324 15.664 27.4684C15.232 28.2044 14.664 28.7644 13.96 29.1484C13.24 29.5324 12.464 29.7244 11.632 29.7244C10.704 29.7244 9.848 29.4924 9.064 29.0284C8.28 28.5644 7.664 27.9244 7.216 27.1084C6.752 26.2764 6.52 25.3404 6.52 24.3004C6.52 23.3084 6.744 22.5404 7.192 21.9964C7.64 21.4524 8.336 21.1804 9.28 21.1804C9.776 21.1804 10.024 21.2684 10.024 21.4444L10.048 27.2764C10.16 27.2924 10.344 27.3004 10.6 27.3004C12.008 27.3004 13.112 26.9804 13.912 26.3404C14.712 25.6844 15.112 24.7484 15.112 23.5324C15.112 23.1004 15.064 22.7324 14.968 22.4284C14.872 22.1244 14.696 21.7244 14.44 21.2284L14.416 21.1804ZM7 25.2124C7 25.7404 7.232 26.1804 7.696 26.5324C8.144 26.8844 8.768 27.1164 9.568 27.2284L9.52 23.7484C8.704 23.7644 8.08 23.8844 7.648 24.1084C7.216 24.3324 7 24.7004 7 25.2124ZM16.312 14.1972C16.312 14.9812 16.224 15.6692 16.048 16.2612L20.656 16.2612C21.136 16.2612 21.488 16.2132 21.712 16.1172C21.936 16.0052 22.088 15.8052 22.168 15.5172C22.264 15.2132 22.312 14.7492 22.312 14.1252C22.312 14.0772 22.36 14.0532 22.456 14.0532C22.552 14.0532 22.6 14.0772 22.6 14.1252C22.6 14.7172 22.592 15.1812 22.576 15.5172L22.552 17.4132L22.576 18.8292C22.592 19.0692 22.6 19.4052 22.6 19.8372C22.6 19.8852 22.552 19.9092 22.456 19.9092C22.36 19.9092 22.312 19.8852 22.312 19.8372C22.312 19.4532 22.264 19.1732 22.168 18.9972C22.088 18.8052 21.936 18.6772 21.712 18.6132C21.488 18.5332 21.136 18.4932 20.656 18.4932L9.544 18.4932C9.032 18.4932 8.664 18.5492 8.44 18.6612C8.216 18.7732 8.104 18.9732 8.104 19.2612C8.104 19.5172 8.216 19.8852 8.44 20.3652L8.44 20.4132C8.44 20.4612 8.4 20.5012 8.32 20.5332C8.24 20.5812 8.192 20.5892 8.176 20.5572L6.52 17.1492C6.504 17.1172 6.496 17.0772 6.496 17.0292C6.496 16.8692 6.632 16.7252 6.904 16.5972C7.176 16.4532 7.544 16.3572 8.008 16.3092C6.952 15.1412 6.424 13.9412 6.424 12.7092C6.424 12.0372 6.6 11.4132 6.952 10.8372C7.304 10.2452 7.816 9.77318 8.488 9.42118C9.16 9.06918 9.944 8.89318 10.84 8.89318C12.12 8.89318 13.176 9.15718 14.008 9.68518C14.824 10.2132 15.416 10.8852 15.784 11.7012C16.136 12.5012 16.312 13.3332 16.312 14.1972ZM7.768 14.2932C7.768 15.0132 8.024 15.6692 8.536 16.2612L8.728 16.2612L14.512 16.2612C14.912 15.9092 15.216 15.5412 15.424 15.1572C15.616 14.7732 15.712 14.3012 15.712 13.7412C15.712 12.1252 14.336 11.3172 11.584 11.3172C10.368 11.3172 9.432 11.6052 8.776 12.1812C8.104 12.7412 7.768 13.4452 7.768 14.2932ZM14.32 0.380493C14.32 0.316493 14.352 0.268493 14.416 0.236493C14.48 0.188493 14.528 0.188493 14.56 0.236493C15.152 0.828493 15.592 1.40449 15.88 1.96449C16.152 2.52449 16.288 3.11649 16.288 3.74049C16.288 4.44449 16.12 5.04449 15.784 5.54049C15.448 6.03649 14.88 6.28449 14.08 6.28449L8.752 6.28449C8.256 6.28449 7.912 6.37249 7.72 6.54849C7.528 6.72449 7.432 7.04449 7.432 7.50849C7.432 7.52449 7.408 7.54849 7.36 7.58049C7.312 7.59649 7.264 7.60449 7.216 7.60449C7.152 7.60449 7.104 7.59649 7.072 7.58049C7.024 7.56449 7 7.54049 7 7.50849C6.968 6.69249 6.792 6.03649 6.472 5.54049C6.152 5.02849 5.664 4.63649 5.008 4.36449C4.944 4.33249 4.912 4.26849 4.912 4.17249C4.912 4.06049 4.944 4.00449 5.008 4.00449L6.928 4.00449C6.912 3.07649 6.84 2.03649 6.712 0.884494C6.712 0.852493 6.776 0.820493 6.904 0.788493C7.016 0.740493 7.144 0.716494 7.288 0.716494C7.448 0.716493 7.608 0.748493 7.768 0.812493C7.912 0.860493 7.976 0.916493 7.96 0.980493C7.736 2.02049 7.616 3.02849 7.6 4.00449L13.288 4.00449C13.896 4.00449 14.344 3.85249 14.632 3.54849C14.92 3.22849 15.064 2.81249 15.064 2.30049C15.064 1.66049 14.824 1.03649 14.344 0.428493L14.32 0.380493Z" fill="url(#paint0_linear_313:33)"/>
<defs>
<linearGradient id="paint0_linear_313:33" x1="0.677631" y1="81.2581" x2="4.08675" y2="0.890915" gradientUnits="userSpaceOnUse">
<stop offset="0.267495" stop-color="#FFC6CE"/>
<stop offset="1" stop-color="#64D6EE"/>
</linearGradient>
</defs>
</svg>
