<svg width="286" height="219" viewBox="0 0 286 219" fill="none" xmlns="http://www.w3.org/2000/svg">
<g filter="url(#filter0_d_258:1985)">
<path d="M106.357 114.096C105.973 114.096 105.525 114.072 105.013 114.024C104.821 114.008 104.581 113.992 104.293 113.976C104.005 113.96 103.677 113.952 103.309 113.952L101.725 113.976C101.469 113.992 101.109 114 100.645 114C100.597 114 100.573 113.952 100.573 113.856C100.573 113.76 100.597 113.712 100.645 113.712C101.093 113.712 101.421 113.672 101.629 113.592C101.853 113.512 102.021 113.36 102.133 113.136C102.245 112.912 102.349 112.552 102.445 112.056L104.413 100.944C104.477 100.528 104.509 100.264 104.509 100.152C104.509 99.816 104.413 99.592 104.221 99.48C104.029 99.352 103.693 99.288 103.213 99.288C103.181 99.288 103.165 99.24 103.165 99.144C103.165 99.048 103.181 99 103.213 99L104.341 99.024C104.981 99.056 105.509 99.072 105.925 99.072C106.373 99.072 106.837 99.048 107.317 99C107.957 98.968 108.421 98.952 108.709 98.952C110.053 98.952 111.229 99.2 112.237 99.696C113.245 100.176 114.013 100.864 114.541 101.76C115.085 102.64 115.357 103.664 115.357 104.832C115.357 105.36 115.317 105.832 115.237 106.248C114.965 107.784 114.373 109.152 113.461 110.352C112.565 111.536 111.485 112.456 110.221 113.112C108.957 113.768 107.669 114.096 106.357 114.096ZM106.261 113.616C107.797 113.616 109.125 113.016 110.245 111.816C111.381 110.6 112.141 108.92 112.525 106.776C112.637 106.152 112.693 105.48 112.693 104.76C112.693 103.208 112.357 101.936 111.685 100.944C111.013 99.936 109.949 99.432 108.493 99.432C107.917 99.432 107.509 99.552 107.269 99.792C107.029 100.016 106.861 100.416 106.765 100.992L104.845 111.792C104.797 112.048 104.773 112.272 104.773 112.464C104.773 112.864 104.885 113.16 105.109 113.352C105.333 113.528 105.717 113.616 106.261 113.616ZM121.93 104.424C122.538 104.424 123.01 104.528 123.346 104.736C123.682 104.944 123.85 105.232 123.85 105.6C123.85 106.32 123.314 107 122.242 107.64C121.186 108.264 119.906 108.72 118.402 109.008C118.354 109.36 118.33 109.704 118.33 110.04C118.33 111 118.53 111.776 118.93 112.368C119.33 112.944 119.922 113.232 120.706 113.232C121.042 113.232 121.402 113.176 121.786 113.064C122.186 112.936 122.546 112.744 122.866 112.488H122.89C122.938 112.488 122.978 112.512 123.01 112.56C123.058 112.608 123.066 112.648 123.034 112.68C122.458 113.24 121.85 113.648 121.21 113.904C120.57 114.16 119.93 114.288 119.29 114.288C118.186 114.288 117.354 113.952 116.794 113.28C116.25 112.608 115.978 111.76 115.978 110.736C115.978 110.384 116.018 109.992 116.098 109.56C116.258 108.696 116.61 107.872 117.154 107.088C117.714 106.304 118.41 105.664 119.242 105.168C120.074 104.672 120.97 104.424 121.93 104.424ZM121.426 106.224C121.442 106.16 121.45 106.064 121.45 105.936C121.45 105.664 121.378 105.456 121.234 105.312C121.106 105.152 120.922 105.072 120.682 105.072C120.17 105.072 119.714 105.4 119.314 106.056C118.93 106.712 118.642 107.568 118.45 108.624C120.29 108.144 121.282 107.344 121.426 106.224ZM127.869 114.312C126.749 114.312 125.925 113.952 125.397 113.232C124.869 112.496 124.605 111.576 124.605 110.472C124.605 110.072 124.645 109.632 124.725 109.152C124.885 108.224 125.245 107.4 125.805 106.68C126.381 105.96 127.053 105.408 127.821 105.024C128.589 104.624 129.349 104.424 130.101 104.424C130.693 104.424 131.213 104.552 131.661 104.808C132.125 105.064 132.357 105.432 132.357 105.912C132.357 106.28 132.245 106.576 132.021 106.8C131.813 107.008 131.517 107.112 131.133 107.112C130.749 107.112 130.469 107.016 130.293 106.824C130.117 106.616 129.997 106.352 129.933 106.032C129.853 105.728 129.749 105.496 129.621 105.336C129.509 105.176 129.317 105.096 129.045 105.096C128.565 105.096 128.141 105.392 127.773 105.984C127.405 106.56 127.141 107.336 126.981 108.312C126.885 108.84 126.837 109.344 126.837 109.824C126.837 110.832 127.045 111.64 127.461 112.248C127.877 112.84 128.501 113.136 129.333 113.136C129.653 113.136 130.021 113.064 130.437 112.92C130.853 112.76 131.189 112.584 131.445 112.392H131.469C131.517 112.392 131.565 112.416 131.613 112.464C131.661 112.512 131.669 112.56 131.637 112.608C131.061 113.168 130.445 113.592 129.789 113.88C129.133 114.168 128.493 114.312 127.869 114.312ZM138.829 104.424C139.437 104.424 139.909 104.528 140.245 104.736C140.581 104.944 140.749 105.232 140.749 105.6C140.749 106.32 140.213 107 139.141 107.64C138.085 108.264 136.805 108.72 135.301 109.008C135.253 109.36 135.229 109.704 135.229 110.04C135.229 111 135.429 111.776 135.829 112.368C136.229 112.944 136.821 113.232 137.605 113.232C137.941 113.232 138.301 113.176 138.685 113.064C139.085 112.936 139.445 112.744 139.765 112.488H139.789C139.837 112.488 139.877 112.512 139.909 112.56C139.957 112.608 139.965 112.648 139.933 112.68C139.357 113.24 138.749 113.648 138.109 113.904C137.469 114.16 136.829 114.288 136.189 114.288C135.085 114.288 134.253 113.952 133.693 113.28C133.149 112.608 132.877 111.76 132.877 110.736C132.877 110.384 132.917 109.992 132.997 109.56C133.157 108.696 133.509 107.872 134.053 107.088C134.613 106.304 135.309 105.664 136.141 105.168C136.973 104.672 137.869 104.424 138.829 104.424ZM138.325 106.224C138.341 106.16 138.349 106.064 138.349 105.936C138.349 105.664 138.277 105.456 138.133 105.312C138.005 105.152 137.821 105.072 137.581 105.072C137.069 105.072 136.613 105.4 136.213 106.056C135.829 106.712 135.541 107.568 135.349 108.624C137.189 108.144 138.181 107.344 138.325 106.224ZM156.671 112.152C156.703 112.12 156.735 112.104 156.767 112.104C156.815 112.104 156.855 112.136 156.887 112.2C156.919 112.248 156.911 112.296 156.863 112.344C156.319 112.984 155.839 113.456 155.423 113.76C155.007 114.064 154.575 114.216 154.127 114.216C153.359 114.216 152.975 113.76 152.975 112.848C152.975 112.528 153.007 112.2 153.071 111.864L153.791 108.048C153.871 107.568 153.911 107.2 153.911 106.944C153.911 106.176 153.679 105.792 153.215 105.792C152.831 105.792 152.423 106.056 151.991 106.584C151.559 107.096 151.143 107.872 150.743 108.912C150.343 109.952 149.999 111.2 149.711 112.656L149.519 113.712C149.487 113.856 149.359 113.968 149.135 114.048C148.911 114.144 148.591 114.192 148.175 114.192C147.647 114.192 147.383 114.128 147.383 114L147.479 113.496C147.639 112.744 147.727 112.32 147.743 112.224L148.535 108C148.615 107.552 148.655 107.208 148.655 106.968C148.655 106.568 148.583 106.272 148.439 106.08C148.311 105.888 148.127 105.792 147.887 105.792C147.487 105.792 147.063 106.08 146.615 106.656C146.167 107.216 145.743 108.04 145.343 109.128C144.943 110.2 144.607 111.464 144.335 112.92L144.191 113.712C144.111 114.032 143.663 114.192 142.847 114.192C142.319 114.192 142.055 114.128 142.055 114L142.151 113.496C142.311 112.744 142.399 112.32 142.415 112.224L143.399 106.872C143.431 106.728 143.447 106.552 143.447 106.344C143.447 105.912 143.311 105.696 143.039 105.696C142.703 105.696 142.239 106.016 141.647 106.656C141.631 106.672 141.607 106.68 141.575 106.68C141.527 106.68 141.487 106.656 141.455 106.608C141.423 106.544 141.423 106.488 141.455 106.44C142.031 105.768 142.543 105.28 142.991 104.976C143.455 104.672 143.919 104.52 144.383 104.52C145.135 104.52 145.511 104.944 145.511 105.792C145.511 106.032 145.487 106.296 145.439 106.584L145.079 108.6C145.607 107.272 146.223 106.248 146.927 105.528C147.631 104.792 148.375 104.424 149.159 104.424C149.671 104.424 150.063 104.592 150.335 104.928C150.607 105.248 150.743 105.736 150.743 106.392C150.743 106.68 150.703 107.064 150.623 107.544L150.455 108.528C150.983 107.216 151.591 106.208 152.279 105.504C152.983 104.784 153.711 104.424 154.463 104.424C155.487 104.424 155.999 105.072 155.999 106.368C155.999 106.8 155.959 107.208 155.879 107.592L155.111 111.864C155.063 112.104 155.039 112.296 155.039 112.44C155.039 112.808 155.167 112.992 155.423 112.992C155.583 112.992 155.751 112.928 155.927 112.8C156.119 112.656 156.367 112.44 156.671 112.152ZM165.805 104.424C166.429 104.424 166.917 104.664 167.269 105.144C167.621 105.608 167.797 106.24 167.797 107.04C167.797 107.328 167.773 107.64 167.725 107.976C167.485 109.272 166.989 110.4 166.237 111.36C165.485 112.32 164.629 113.056 163.669 113.568C162.725 114.064 161.853 114.312 161.053 114.312C160.205 114.312 159.541 114.144 159.061 113.808C158.597 113.456 158.365 112.976 158.365 112.368C158.365 112.256 158.381 112.104 158.413 111.912L160.621 99.864C160.669 99.544 160.693 99.28 160.693 99.072C160.693 98.608 160.541 98.376 160.237 98.376C160.045 98.376 159.709 98.488 159.229 98.712H159.205C159.141 98.712 159.093 98.672 159.061 98.592C159.045 98.496 159.069 98.44 159.133 98.424L162.853 96.6H162.901C162.965 96.6 163.021 96.624 163.069 96.672C163.133 96.72 163.157 96.76 163.141 96.792L161.077 108.408C161.637 107.208 162.333 106.248 163.165 105.528C164.013 104.792 164.893 104.424 165.805 104.424ZM165.349 108.72C165.429 108.384 165.469 108.008 165.469 107.592C165.469 107.112 165.381 106.736 165.205 106.464C165.045 106.176 164.789 106.032 164.437 106.032C163.557 106.032 162.757 106.56 162.037 107.616C161.317 108.656 160.805 110.016 160.501 111.696C160.485 111.776 160.477 111.904 160.477 112.08C160.477 112.528 160.613 112.904 160.885 113.208C161.173 113.496 161.525 113.64 161.941 113.64C162.421 113.64 162.893 113.448 163.357 113.064C163.821 112.664 164.229 112.096 164.581 111.36C164.933 110.608 165.189 109.728 165.349 108.72ZM174.665 104.424C175.273 104.424 175.745 104.528 176.081 104.736C176.417 104.944 176.585 105.232 176.585 105.6C176.585 106.32 176.049 107 174.977 107.64C173.921 108.264 172.641 108.72 171.137 109.008C171.089 109.36 171.065 109.704 171.065 110.04C171.065 111 171.265 111.776 171.665 112.368C172.065 112.944 172.657 113.232 173.441 113.232C173.777 113.232 174.137 113.176 174.521 113.064C174.921 112.936 175.281 112.744 175.601 112.488H175.625C175.673 112.488 175.713 112.512 175.745 112.56C175.793 112.608 175.801 112.648 175.769 112.68C175.193 113.24 174.585 113.648 173.945 113.904C173.305 114.16 172.665 114.288 172.025 114.288C170.921 114.288 170.089 113.952 169.529 113.28C168.985 112.608 168.713 111.76 168.713 110.736C168.713 110.384 168.753 109.992 168.833 109.56C168.993 108.696 169.345 107.872 169.889 107.088C170.449 106.304 171.145 105.664 171.977 105.168C172.809 104.672 173.705 104.424 174.665 104.424ZM174.161 106.224C174.177 106.16 174.185 106.064 174.185 105.936C174.185 105.664 174.113 105.456 173.969 105.312C173.841 105.152 173.657 105.072 173.417 105.072C172.905 105.072 172.449 105.4 172.049 106.056C171.665 106.712 171.377 107.568 171.185 108.624C173.025 108.144 174.017 107.344 174.161 106.224ZM183.891 104.52C184.307 104.52 184.699 104.672 185.067 104.976C185.451 105.28 185.611 105.624 185.547 106.008C185.515 106.248 185.403 106.472 185.211 106.68C185.019 106.888 184.779 106.992 184.491 106.992C184.203 106.992 183.891 106.856 183.555 106.584C183.443 106.504 183.331 106.432 183.219 106.368C183.107 106.304 182.995 106.272 182.883 106.272C182.611 106.272 182.275 106.696 181.875 107.544C181.475 108.392 181.091 109.408 180.723 110.592C180.371 111.76 180.115 112.792 179.955 113.688V113.712C179.923 113.856 179.795 113.968 179.571 114.048C179.347 114.144 179.027 114.192 178.611 114.192C178.083 114.192 177.819 114.128 177.819 114C177.835 113.888 177.883 113.648 177.963 113.28C178.059 112.912 178.139 112.56 178.203 112.224L179.187 106.872C179.219 106.616 179.235 106.448 179.235 106.368C179.235 105.92 179.091 105.696 178.803 105.696C178.483 105.696 178.027 106.016 177.435 106.656C177.419 106.672 177.395 106.68 177.363 106.68C177.299 106.68 177.251 106.656 177.219 106.608C177.187 106.544 177.195 106.488 177.243 106.44C177.819 105.768 178.331 105.28 178.779 104.976C179.243 104.672 179.707 104.52 180.171 104.52C180.571 104.52 180.859 104.632 181.035 104.856C181.211 105.064 181.299 105.376 181.299 105.792C181.299 106.032 181.275 106.296 181.227 106.584L180.747 109.224C181.691 106.088 182.739 104.52 183.891 104.52Z" fill="#22262A"/>
</g>
<defs>
<filter id="filter0_d_258:1985" x="0.573242" y="0.599976" width="285.07" height="217.712" filterUnits="userSpaceOnUse" color-interpolation-filters="sRGB">
<feFlood flood-opacity="0" result="BackgroundImageFix"/>
<feColorMatrix in="SourceAlpha" type="matrix" values="0 0 0 0 0 0 0 0 0 0 0 0 0 0 0 0 0 0 127 0" result="hardAlpha"/>
<feOffset dy="4"/>
<feGaussianBlur stdDeviation="50"/>
<feComposite in2="hardAlpha" operator="out"/>
<feColorMatrix type="matrix" values="0 0 0 0 0 0 0 0 0 0 0 0 0 0 0 0 0 0 0.25 0"/>
<feBlend mode="normal" in2="BackgroundImageFix" result="effect1_dropShadow_258:1985"/>
<feBlend mode="normal" in="SourceGraphic" in2="effect1_dropShadow_258:1985" result="shape"/>
</filter>
</defs>
</svg>
