<svg width="187" height="27" viewBox="0 0 187 27" fill="none" xmlns="http://www.w3.org/2000/svg">
<path d="M18.84 19.64C18.84 19.5867 18.8933 19.56 19 19.56C19.08 19.56 19.1467 19.5867 19.2 19.64C19.28 19.6667 19.32 19.6933 19.32 19.72C19.0533 21.8 18.92 23.6933 18.92 25.4C18.92 25.6133 18.88 25.7733 18.8 25.88C18.72 25.96 18.56 26 18.32 26H0.64C0.56 26 0.52 25.92 0.52 25.76C0.52 25.6 0.56 25.52 0.64 25.52C1.49333 25.52 2.10667 25.4533 2.48 25.32C2.88 25.1867 3.14667 24.9333 3.28 24.56C3.41333 24.16 3.48 23.56 3.48 22.76V4.24C3.48 3.44 3.41333 2.85333 3.28 2.48C3.14667 2.10667 2.88 1.85333 2.48 1.72C2.08 1.56 1.46667 1.48 0.64 1.48C0.56 1.48 0.52 1.4 0.52 1.24C0.52 1.08 0.56 1 0.64 1H17.6C17.8667 1 18 1.12 18 1.36L18.08 6.68C18.08 6.73333 18 6.77333 17.84 6.8C17.7067 6.82667 17.6267 6.8 17.6 6.72C17.1733 5.17333 16.4533 4.02667 15.44 3.28C14.4267 2.53333 13.0933 2.16 11.44 2.16H10.24C9.44 2.16 8.85333 2.33333 8.48 2.68C8.10667 3.02667 7.92 3.56 7.92 4.28V12.44H11.24C12.7867 12.44 13.9733 12.1733 14.8 11.64C15.6267 11.1067 16.04 10.36 16.04 9.4C16.04 9.32 16.1067 9.28 16.24 9.28C16.4 9.28 16.48 9.32 16.48 9.4L16.44 13L16.48 14.92C16.5333 15.8267 16.56 16.5467 16.56 17.08C16.56 17.1333 16.48 17.16 16.32 17.16C16.16 17.16 16.08 17.1333 16.08 17.08C16.08 15.9867 15.6533 15.1333 14.8 14.52C13.9733 13.88 12.7733 13.56 11.2 13.56H7.92V22.6C7.92 23.3733 8.06667 23.9467 8.36 24.32C8.65333 24.6933 9.12 24.88 9.76 24.88H11.08C13.16 24.88 14.8267 24.4533 16.08 23.6C17.3333 22.7467 18.2533 21.4267 18.84 19.64ZM49.9903 1C50.0436 1 50.0703 1.08 50.0703 1.24C50.0703 1.4 50.0436 1.48 49.9903 1.48C48.9236 1.48 48.0836 1.90667 47.4703 2.76C46.857 3.58667 46.5503 4.70667 46.5503 6.12V26.6C46.5503 26.68 46.4836 26.7333 46.3503 26.76C46.2436 26.7867 46.1636 26.7733 46.1103 26.72L27.3503 5.36V20.92C27.3503 22.3333 27.6436 23.4533 28.2303 24.28C28.817 25.1067 29.6303 25.52 30.6703 25.52C30.7236 25.52 30.7503 25.6 30.7503 25.76C30.7503 25.92 30.7236 26 30.6703 26C29.9236 26 29.3503 25.9867 28.9503 25.96L26.7903 25.92L24.3103 25.96C23.857 25.9867 23.2036 26 22.3503 26C22.2703 26 22.2303 25.92 22.2303 25.76C22.2303 25.6 22.2703 25.52 22.3503 25.52C23.5236 25.52 24.4436 25.1067 25.1103 24.28C25.8036 23.4533 26.1503 22.3333 26.1503 20.92V4C25.2703 3.04 24.5103 2.38667 23.8703 2.04C23.257 1.66667 22.617 1.48 21.9503 1.48C21.897 1.48 21.8703 1.4 21.8703 1.24C21.8703 1.08 21.897 1 21.9503 1L23.6303 1.04C23.977 1.06667 24.4836 1.08 25.1503 1.08L28.1903 1.04C28.5636 1.01333 29.017 1 29.5503 1C29.7636 1 29.9236 1.05333 30.0303 1.16C30.137 1.26666 30.3236 1.49333 30.5903 1.84C31.0436 2.45333 31.3636 2.86667 31.5503 3.08L45.3903 19.04V6.12C45.3903 4.68 45.097 3.54667 44.5103 2.72C43.9236 1.89333 43.1103 1.48 42.0703 1.48C42.017 1.48 41.9903 1.4 41.9903 1.24C41.9903 1.08 42.017 1 42.0703 1L43.7903 1.04C44.6436 1.09333 45.3636 1.12 45.9503 1.12C46.4836 1.12 47.2303 1.09333 48.1903 1.04L49.9903 1ZM79.7644 25.52C79.8444 25.52 79.8844 25.6 79.8844 25.76C79.8844 25.92 79.8444 26 79.7644 26C78.831 26 78.0844 25.9867 77.5244 25.96L74.4444 25.92L70.8444 25.96C70.3644 25.9867 69.711 26 68.8844 26C68.8044 26 68.7644 25.92 68.7644 25.76C68.7644 25.6 68.8044 25.52 68.8844 25.52C69.871 25.52 70.591 25.4533 71.0444 25.32C71.4977 25.1867 71.8044 24.9333 71.9644 24.56C72.1244 24.1867 72.2044 23.5867 72.2044 22.76V13.56H59.2844V22.76C59.2844 23.56 59.3644 24.16 59.5244 24.56C59.6844 24.9333 59.991 25.1867 60.4444 25.32C60.8977 25.4533 61.6177 25.52 62.6044 25.52C62.6577 25.52 62.6844 25.6 62.6844 25.76C62.6844 25.92 62.6577 26 62.6044 26C61.671 26 60.9244 25.9867 60.3644 25.96L56.8844 25.92L53.8844 25.96C53.351 25.9867 52.6177 26 51.6844 26C51.631 26 51.6044 25.92 51.6044 25.76C51.6044 25.6 51.631 25.52 51.6844 25.52C52.6177 25.52 53.2977 25.4533 53.7244 25.32C54.151 25.1867 54.4444 24.9333 54.6044 24.56C54.7644 24.16 54.8444 23.56 54.8444 22.76V4.24C54.8444 3.44 54.7644 2.85333 54.6044 2.48C54.4444 2.10667 54.151 1.85333 53.7244 1.72C53.3244 1.56 52.671 1.48 51.7644 1.48C51.6844 1.48 51.6444 1.4 51.6444 1.24C51.6444 1.08 51.6844 1 51.7644 1L53.9244 1.04C55.151 1.09333 56.1377 1.12 56.8844 1.12C57.8977 1.12 59.071 1.09333 60.4044 1.04L62.6044 1C62.6577 1 62.6844 1.08 62.6844 1.24C62.6844 1.4 62.6577 1.48 62.6044 1.48C61.6444 1.48 60.9377 1.56 60.4844 1.72C60.031 1.88 59.711 2.16 59.5244 2.56C59.3644 2.93333 59.2844 3.52 59.2844 4.32V12.44H72.2044V4.32C72.2044 3.52 72.1244 2.93333 71.9644 2.56C71.8044 2.16 71.4977 1.88 71.0444 1.72C70.591 1.56 69.871 1.48 68.8844 1.48C68.8044 1.48 68.7644 1.4 68.7644 1.24C68.7644 1.08 68.8044 1 68.8844 1L70.8444 1.04C72.1777 1.09333 73.3777 1.12 74.4444 1.12C75.1644 1.12 76.191 1.09333 77.5244 1.04L79.7644 1C79.8444 1 79.8844 1.08 79.8844 1.24C79.8844 1.4 79.8444 1.48 79.7644 1.48C78.8577 1.48 78.1777 1.56 77.7244 1.72C77.2977 1.85333 77.0044 2.10667 76.8444 2.48C76.711 2.85333 76.6444 3.44 76.6444 4.24V22.76C76.6444 23.56 76.711 24.16 76.8444 24.56C77.0044 24.9333 77.2977 25.1867 77.7244 25.32C78.151 25.4533 78.831 25.52 79.7644 25.52ZM109.711 25.52C109.845 25.52 109.911 25.6 109.911 25.76C109.911 25.92 109.845 26 109.711 26C109.178 26 108.351 25.9733 107.231 25.92C106.058 25.8667 105.218 25.84 104.711 25.84C104.045 25.84 103.231 25.8667 102.271 25.92C101.365 25.9733 100.645 26 100.111 26C100.005 26 99.9513 25.92 99.9513 25.76C99.9513 25.6 100.005 25.52 100.111 25.52C100.805 25.52 101.298 25.4533 101.591 25.32C101.911 25.16 102.071 24.8933 102.071 24.52C102.071 24.0667 101.805 23.3067 101.271 22.24L98.5513 16.84H88.7113L87.1513 20.32C86.8046 21.0933 86.6313 21.8133 86.6313 22.48C86.6313 23.44 86.9646 24.1867 87.6313 24.72C88.3246 25.2533 89.2446 25.52 90.3913 25.52C90.5246 25.52 90.5913 25.6 90.5913 25.76C90.5913 25.92 90.5246 26 90.3913 26C89.9113 26 89.2179 25.9733 88.3113 25.92C87.2979 25.8667 86.4179 25.84 85.6713 25.84C84.9513 25.84 84.0846 25.8667 83.0713 25.92C82.1646 25.9733 81.4313 26 80.8712 26C80.7646 26 80.7112 25.92 80.7112 25.76C80.7112 25.6 80.7646 25.52 80.8712 25.52C81.6179 25.52 82.2446 25.3733 82.7513 25.08C83.2579 24.76 83.7646 24.2133 84.2713 23.44C84.7779 22.64 85.3779 21.4667 86.0713 19.92L94.7513 0.84C94.8046 0.759999 94.9246 0.719999 95.1113 0.719999C95.3246 0.719999 95.4446 0.759999 95.4713 0.84L105.471 20.52C106.405 22.4133 107.178 23.72 107.791 24.44C108.405 25.16 109.045 25.52 109.711 25.52ZM89.2313 15.72H97.9513L93.3513 6.6L89.2313 15.72ZM138.584 1C138.637 1 138.664 1.08 138.664 1.24C138.664 1.4 138.637 1.48 138.584 1.48C137.517 1.48 136.677 1.90667 136.064 2.76C135.451 3.58667 135.144 4.70667 135.144 6.12V26.6C135.144 26.68 135.077 26.7333 134.944 26.76C134.837 26.7867 134.757 26.7733 134.704 26.72L115.944 5.36V20.92C115.944 22.3333 116.237 23.4533 116.824 24.28C117.411 25.1067 118.224 25.52 119.264 25.52C119.317 25.52 119.344 25.6 119.344 25.76C119.344 25.92 119.317 26 119.264 26C118.517 26 117.944 25.9867 117.544 25.96L115.384 25.92L112.904 25.96C112.451 25.9867 111.797 26 110.944 26C110.864 26 110.824 25.92 110.824 25.76C110.824 25.6 110.864 25.52 110.944 25.52C112.117 25.52 113.037 25.1067 113.704 24.28C114.397 23.4533 114.744 22.3333 114.744 20.92V4C113.864 3.04 113.104 2.38667 112.464 2.04C111.851 1.66667 111.211 1.48 110.544 1.48C110.491 1.48 110.464 1.4 110.464 1.24C110.464 1.08 110.491 1 110.544 1L112.224 1.04C112.571 1.06667 113.077 1.08 113.744 1.08L116.784 1.04C117.157 1.01333 117.611 1 118.144 1C118.357 1 118.517 1.05333 118.624 1.16C118.731 1.26666 118.917 1.49333 119.184 1.84C119.637 2.45333 119.957 2.86667 120.144 3.08L133.984 19.04V6.12C133.984 4.68 133.691 3.54667 133.104 2.72C132.517 1.89333 131.704 1.48 130.664 1.48C130.611 1.48 130.584 1.4 130.584 1.24C130.584 1.08 130.611 1 130.664 1L132.384 1.04C133.237 1.09333 133.957 1.12 134.544 1.12C135.077 1.12 135.824 1.09333 136.784 1.04L138.584 1ZM156.158 0.559999C157.411 0.559999 158.678 0.666665 159.958 0.879999C161.265 1.06667 162.305 1.32 163.078 1.64C163.318 1.72 163.465 1.82667 163.518 1.96C163.598 2.06667 163.651 2.26667 163.678 2.56L164.198 8.12C164.198 8.2 164.131 8.25333 163.998 8.28C163.865 8.30667 163.771 8.26667 163.718 8.16C162.971 5.97333 161.905 4.30667 160.518 3.16C159.131 1.98667 157.465 1.4 155.518 1.4C153.705 1.4 152.078 1.89333 150.638 2.88C149.225 3.84 148.105 5.22666 147.278 7.04C146.478 8.85333 146.078 10.9733 146.078 13.4C146.078 15.8533 146.491 18.0133 147.318 19.88C148.171 21.72 149.331 23.1467 150.798 24.16C152.291 25.1467 153.998 25.64 155.918 25.64C157.758 25.64 159.305 25.1467 160.558 24.16C161.811 23.1467 162.998 21.4933 164.118 19.2C164.145 19.12 164.225 19.0933 164.358 19.12C164.491 19.1467 164.558 19.2 164.558 19.28L163.958 24.24C163.905 24.56 163.851 24.7733 163.798 24.88C163.745 24.96 163.598 25.0533 163.358 25.16C160.905 26.04 158.425 26.48 155.918 26.48C153.065 26.48 150.505 25.9467 148.238 24.88C145.998 23.7867 144.238 22.2667 142.958 20.32C141.678 18.3733 141.038 16.16 141.038 13.68C141.038 11.1467 141.691 8.89333 142.998 6.92C144.331 4.92 146.145 3.36 148.438 2.24C150.758 1.12 153.331 0.559999 156.158 0.559999ZM186.145 19.64C186.145 19.5867 186.198 19.56 186.305 19.56C186.385 19.56 186.451 19.5867 186.505 19.64C186.585 19.6667 186.625 19.6933 186.625 19.72C186.358 21.8 186.225 23.6933 186.225 25.4C186.225 25.6133 186.185 25.7733 186.105 25.88C186.025 25.96 185.865 26 185.625 26H167.945C167.865 26 167.825 25.92 167.825 25.76C167.825 25.6 167.865 25.52 167.945 25.52C168.798 25.52 169.411 25.4533 169.785 25.32C170.185 25.1867 170.451 24.9333 170.585 24.56C170.718 24.16 170.785 23.56 170.785 22.76V4.24C170.785 3.44 170.718 2.85333 170.585 2.48C170.451 2.10667 170.185 1.85333 169.785 1.72C169.385 1.56 168.771 1.48 167.945 1.48C167.865 1.48 167.825 1.4 167.825 1.24C167.825 1.08 167.865 1 167.945 1H184.905C185.171 1 185.305 1.12 185.305 1.36L185.385 6.68C185.385 6.73333 185.305 6.77333 185.145 6.8C185.011 6.82667 184.931 6.8 184.905 6.72C184.478 5.17333 183.758 4.02667 182.745 3.28C181.731 2.53333 180.398 2.16 178.745 2.16H177.545C176.745 2.16 176.158 2.33333 175.785 2.68C175.411 3.02667 175.225 3.56 175.225 4.28V12.44H178.545C180.091 12.44 181.278 12.1733 182.105 11.64C182.931 11.1067 183.345 10.36 183.345 9.4C183.345 9.32 183.411 9.28 183.545 9.28C183.705 9.28 183.785 9.32 183.785 9.4L183.745 13L183.785 14.92C183.838 15.8267 183.865 16.5467 183.865 17.08C183.865 17.1333 183.785 17.16 183.625 17.16C183.465 17.16 183.385 17.1333 183.385 17.08C183.385 15.9867 182.958 15.1333 182.105 14.52C181.278 13.88 180.078 13.56 178.505 13.56H175.225V22.6C175.225 23.3733 175.371 23.9467 175.665 24.32C175.958 24.6933 176.425 24.88 177.065 24.88H178.385C180.465 24.88 182.131 24.4533 183.385 23.6C184.638 22.7467 185.558 21.4267 186.145 19.64Z" fill="url(#paint0_linear_239:766)"/>
<path d="M18.84 19.64L20.7402 20.2639L20.84 19.96V19.64H18.84ZM19.2 19.64L17.7858 21.0542L18.1196 21.3881L18.5675 21.5374L19.2 19.64ZM19.32 19.72L21.3038 19.9743L21.32 19.8477V19.72H19.32ZM18.8 25.88L20.2142 27.2942L20.3147 27.1937L20.4 27.08L18.8 25.88ZM2.48 25.32L1.84754 23.4226L1.82736 23.4294L1.80733 23.4365L2.48 25.32ZM3.28 24.56L5.16348 25.2327L5.17064 25.2126L5.17737 25.1925L3.28 24.56ZM3.28 2.48L1.39652 3.15267L1.39652 3.15267L3.28 2.48ZM2.48 1.72L1.73722 3.57695L1.79179 3.59878L1.84755 3.61736L2.48 1.72ZM18 1.36H16V1.37503L16.0002 1.39007L18 1.36ZM18.08 6.68H20.08V6.66496L20.0798 6.64993L18.08 6.68ZM17.84 6.8L17.5112 4.82721L17.4794 4.83251L17.4478 4.83884L17.84 6.8ZM17.6 6.72L15.672 7.25186L15.686 7.30256L15.7026 7.35245L17.6 6.72ZM15.44 3.28L14.2536 4.89011H14.2536L15.44 3.28ZM8.48 2.68L9.8409 4.14559L9.8409 4.14559L8.48 2.68ZM7.92 12.44H5.92V14.44H7.92V12.44ZM14.8 11.64L13.7157 9.9594L13.7157 9.95941L14.8 11.64ZM16.48 9.4L18.4799 9.42222L18.48 9.41111V9.4H16.48ZM16.44 13L14.4401 12.9778L14.4398 13.0097L14.4404 13.0417L16.44 13ZM16.48 14.92L14.4804 14.9617L14.4812 14.9996L14.4835 15.0374L16.48 14.92ZM14.8 14.52L13.5757 16.1014L13.6038 16.1232L13.6327 16.144L14.8 14.52ZM7.92 13.56V11.56H5.92V13.56H7.92ZM8.36 24.32L9.93264 23.0844L9.93264 23.0844L8.36 24.32ZM16.08 23.6L14.9544 21.9468H14.9544L16.08 23.6ZM20.84 19.64C20.84 19.9766 20.7501 20.3604 20.5141 20.7144C20.2865 21.0559 19.9984 21.2569 19.7744 21.3689C19.3832 21.5645 19.0488 21.56 19 21.56V17.56C18.8445 17.56 18.4302 17.5688 17.9856 17.7911C17.735 17.9164 17.4269 18.1341 17.1859 18.4956C16.9366 18.8696 16.84 19.2767 16.84 19.64H20.84ZM19 21.56C18.8146 21.56 18.5956 21.5283 18.3672 21.437C18.1365 21.3447 17.9408 21.2092 17.7858 21.0542L20.6142 18.2258C20.1613 17.7729 19.5747 17.56 19 17.56V21.56ZM18.5675 21.5374C18.5452 21.5299 18.3793 21.4766 18.1806 21.3441C18.0781 21.2757 17.8893 21.1358 17.7125 20.9C17.5237 20.6483 17.32 20.2443 17.32 19.72H21.32C21.32 18.6449 20.5402 18.1098 20.3994 18.0159C20.1607 17.8568 19.9348 17.7767 19.8325 17.7426L18.5675 21.5374ZM17.3362 19.4657C17.0611 21.6118 16.92 23.5917 16.92 25.4H20.92C20.92 23.795 21.0456 21.9882 21.3038 19.9743L17.3362 19.4657ZM16.92 25.4C16.92 25.3882 16.9204 25.312 16.9497 25.1949C16.9795 25.0758 17.047 24.884 17.2 24.68L20.4 27.08C20.8541 26.4745 20.92 25.8056 20.92 25.4H16.92ZM17.3858 24.4658C17.6935 24.158 18.0144 24.0598 18.1349 24.0297C18.2675 23.9966 18.3435 24 18.32 24V28C18.5365 28 18.8125 27.9834 19.1051 27.9103C19.3856 27.8402 19.8265 27.682 20.2142 27.2942L17.3858 24.4658ZM18.32 24H0.64V28H18.32V24ZM0.64 24C0.96997 24 1.34791 24.0882 1.6969 24.3209C2.03337 24.5452 2.23022 24.8283 2.33885 25.0456C2.52782 25.4235 2.52 25.7379 2.52 25.76H-1.48C-1.48 25.9422 -1.46782 26.3765 -1.23885 26.8344C-1.11022 27.0917 -0.888371 27.4048 -0.521901 27.6491C-0.14291 27.9018 0.270031 28 0.64 28V24ZM2.52 25.76C2.52 25.7822 2.52782 26.0965 2.33885 26.4744C2.23022 26.6917 2.03337 26.9748 1.6969 27.1991C1.34791 27.4318 0.96997 27.52 0.64 27.52V23.52C0.270031 23.52 -0.14291 23.6182 -0.521901 23.8709C-0.888371 24.1152 -1.11022 24.4283 -1.23885 24.6856C-1.46782 25.1435 -1.48 25.5779 -1.48 25.76H2.52ZM0.64 27.52C1.5203 27.52 2.43179 27.4609 3.15267 27.2035L1.80733 23.4365C1.82602 23.4298 1.75071 23.4571 1.52388 23.4817C1.31026 23.5049 1.0196 23.52 0.64 23.52V27.52ZM3.11246 27.2174C4.05263 26.904 4.80872 26.226 5.16348 25.2327L1.39652 23.8873C1.42689 23.8023 1.49119 23.6857 1.6025 23.58C1.71075 23.4772 1.81007 23.4351 1.84754 23.4226L3.11246 27.2174ZM5.17737 25.1925C5.41492 24.4798 5.48 23.6184 5.48 22.76H1.48C1.48 23.5016 1.41174 23.8402 1.38263 23.9275L5.17737 25.1925ZM5.48 22.76V4.24H1.48V22.76H5.48ZM5.48 4.24C5.48 3.39521 5.41807 2.52016 5.16348 1.80733L1.39652 3.15267C1.39311 3.14314 1.41923 3.21846 1.44279 3.42582C1.46522 3.62324 1.48 3.89094 1.48 4.24H5.48ZM5.16349 1.80733C4.80872 0.813993 4.05263 0.136024 3.11246 -0.177369L1.84755 3.61736C1.81007 3.60487 1.71075 3.56283 1.6025 3.46C1.49119 3.35425 1.42689 3.23771 1.39652 3.15267L5.16349 1.80733ZM3.22278 -0.136956C2.45795 -0.442886 1.53093 -0.520001 0.64 -0.520001V3.48C0.993628 3.48 1.26343 3.49739 1.46132 3.5232C1.66744 3.55008 1.7439 3.57962 1.73722 3.57695L3.22278 -0.136956ZM0.64 -0.520001C0.969968 -0.520001 1.34791 -0.431763 1.6969 -0.199103C2.03337 0.0252104 2.23022 0.30831 2.33885 0.52557C2.52782 0.903494 2.52 1.21785 2.52 1.24H-1.48C-1.48 1.42215 -1.46782 1.8565 -1.23885 2.31443C-1.11022 2.57169 -0.888369 2.88479 -0.521898 3.1291C-0.142908 3.38176 0.270032 3.48 0.64 3.48V-0.520001ZM2.52 1.24C2.52 1.26215 2.52782 1.5765 2.33885 1.95443C2.23022 2.17169 2.03337 2.45479 1.6969 2.6791C1.34791 2.91176 0.969968 3 0.64 3V-1C0.270032 -1 -0.142908 -0.901761 -0.521898 -0.649102C-0.888369 -0.404789 -1.11022 -0.0916891 -1.23885 0.165571C-1.46782 0.623495 -1.48 1.05785 -1.48 1.24H2.52ZM0.64 3H17.6V-1H0.64V3ZM17.6 3C17.474 3 17.0061 2.97621 16.5621 2.57659C16.078 2.14091 16 1.60591 16 1.36H20C20 0.874091 19.8553 0.159085 19.2379 -0.396592C18.6606 -0.916212 17.9926 -1 17.6 -1V3ZM16.0002 1.39007L16.0802 6.71007L20.0798 6.64993L19.9998 1.32993L16.0002 1.39007ZM16.08 6.68C16.08 5.52584 16.9755 5.0362 17.1256 4.96114C17.2554 4.89621 17.3601 4.86424 17.4097 4.85046C17.4644 4.83527 17.5011 4.82889 17.5112 4.82721L18.1688 8.77279C18.3132 8.74872 18.6065 8.69283 18.9144 8.53885C19.1445 8.4238 20.08 7.88749 20.08 6.68H16.08ZM17.4478 4.83884C17.5346 4.82147 17.8787 4.75804 18.3125 4.90263C18.5519 4.98244 18.8132 5.12479 19.0442 5.35579C19.2752 5.58678 19.4176 5.84814 19.4974 6.08755L15.7026 7.35245C15.915 7.98966 16.4103 8.48496 17.0475 8.69736C17.5613 8.86863 18.0121 8.80519 18.2322 8.76116L17.4478 4.83884ZM19.528 6.18814C19.0153 4.32955 18.09 2.74834 16.6264 1.66989L14.2536 4.89011C14.8167 5.30499 15.3314 6.01712 15.672 7.25186L19.528 6.18814ZM16.6264 1.66989C15.1756 0.600895 13.3869 0.16 11.44 0.16V4.16C12.7997 4.16 13.6777 4.46577 14.2536 4.89011L16.6264 1.66989ZM11.44 0.16H10.24V4.16H11.44V0.16ZM10.24 0.16C9.21138 0.16 8.02441 0.373768 7.1191 1.21441L9.8409 4.14559C9.7603 4.22043 9.71068 4.22458 9.76669 4.20803C9.82953 4.18947 9.97643 4.16 10.24 4.16V0.16ZM7.1191 1.21441C6.19306 2.0743 5.92 3.23902 5.92 4.28H9.92C9.92 4.08622 9.94591 4.00587 9.94772 4.0007C9.94785 4.00033 9.94129 4.01895 9.92232 4.04875C9.90287 4.07933 9.8756 4.11337 9.8409 4.14559L7.1191 1.21441ZM5.92 4.28V12.44H9.92V4.28H5.92ZM7.92 14.44H11.24V10.44H7.92V14.44ZM11.24 14.44C12.9693 14.44 14.5986 14.15 15.8843 13.3206L13.7157 9.95941C13.348 10.1966 12.604 10.44 11.24 10.44V14.44ZM15.8843 13.3206C17.2647 12.43 18.04 11.0595 18.04 9.4H14.04C14.04 9.66051 13.9887 9.78334 13.7157 9.9594L15.8843 13.3206ZM18.04 9.4C18.04 9.66325 17.983 9.9908 17.8008 10.3188C17.6171 10.6494 17.3625 10.8789 17.119 11.025C16.6916 11.2814 16.308 11.28 16.24 11.28V7.28C16.0386 7.28 15.5551 7.29856 15.061 7.59501C14.4042 7.98912 14.04 8.68244 14.04 9.4H18.04ZM16.24 11.28C16.2179 11.28 15.9035 11.2878 15.5256 11.0989C15.3083 10.9902 15.0252 10.7934 14.8009 10.4569C14.5682 10.1079 14.48 9.72997 14.48 9.4H18.48C18.48 9.03003 18.3818 8.61709 18.1291 8.2381C17.8848 7.87163 17.5717 7.64977 17.3144 7.52114C16.8565 7.29218 16.4221 7.28 16.24 7.28V11.28ZM14.4801 9.37778L14.4401 12.9778L18.4399 13.0222L18.4799 9.42222L14.4801 9.37778ZM14.4404 13.0417L14.4804 14.9617L18.4796 14.8783L18.4396 12.9583L14.4404 13.0417ZM14.4835 15.0374C14.5358 15.928 14.56 16.6036 14.56 17.08H18.56C18.56 16.4898 18.5308 15.7253 18.4765 14.8026L14.4835 15.0374ZM14.56 17.08C14.56 16.5282 14.791 16.0406 15.1308 15.7008C15.4215 15.4101 15.7256 15.2899 15.8675 15.2426C16.0248 15.1902 16.1487 15.1734 16.2041 15.1672C16.2666 15.1603 16.3083 15.16 16.32 15.16V19.16C16.4584 19.16 16.7798 19.1549 17.1325 19.0374C17.4337 18.9369 18.56 18.4352 18.56 17.08H14.56ZM16.32 15.16C16.3317 15.16 16.3734 15.1603 16.4359 15.1672C16.4913 15.1734 16.6152 15.1902 16.7725 15.2426C16.9144 15.2899 17.2185 15.4101 17.5092 15.7008C17.849 16.0406 18.08 16.5282 18.08 17.08H14.08C14.08 18.4352 15.2063 18.9369 15.5075 19.0374C15.8602 19.1549 16.1816 19.16 16.32 19.16V15.16ZM18.08 17.08C18.08 15.3736 17.3679 13.9026 15.9673 12.896L13.6327 16.144C13.9388 16.364 14.08 16.5998 14.08 17.08H18.08ZM16.0243 12.9386C14.7094 11.9206 13.0033 11.56 11.2 11.56V15.56C12.5434 15.56 13.2372 15.8394 13.5757 16.1014L16.0243 12.9386ZM11.2 11.56H7.92V15.56H11.2V11.56ZM5.92 13.56V22.6H9.92V13.56H5.92ZM5.92 22.6C5.92 23.561 6.0906 24.6688 6.78736 25.5556L9.93264 23.0844C9.99453 23.1631 9.98851 23.196 9.96761 23.1143C9.94611 23.0303 9.92 22.8675 9.92 22.6H5.92ZM6.78736 25.5556C7.58173 26.5667 8.73506 26.88 9.76 26.88V22.88C9.62779 22.88 9.61501 22.8599 9.67278 22.883C9.70369 22.8954 9.74855 22.9178 9.7989 22.9549C9.84978 22.9924 9.89534 23.0369 9.93264 23.0844L6.78736 25.5556ZM9.76 26.88H11.08V22.88H9.76V26.88ZM11.08 26.88C13.4163 26.88 15.5178 26.4023 17.2056 25.2532L14.9544 21.9468C14.1355 22.5043 12.9037 22.88 11.08 22.88V26.88ZM17.2056 25.2532C18.9039 24.0969 20.0496 22.3669 20.7402 20.2639L16.9398 19.0161C16.457 20.4864 15.7628 21.3964 14.9544 21.9468L17.2056 25.2532ZM49.9903 1V-1H49.9681L49.9459 -0.999506L49.9903 1ZM47.4703 2.76L49.0765 3.95169L49.0855 3.93955L49.0943 3.92727L47.4703 2.76ZM46.3503 26.76L45.9581 24.7988L45.9114 24.8082L45.8652 24.8197L46.3503 26.76ZM46.1103 26.72L44.6076 28.0398L44.6503 28.0884L44.6961 28.1342L46.1103 26.72ZM27.3503 5.36L28.853 4.0402L25.3503 0.052042V5.36H27.3503ZM28.2303 24.28L29.8613 23.1225L28.2303 24.28ZM28.9503 25.96L29.0834 23.9644L29.0354 23.9612L28.9873 23.9603L28.9503 25.96ZM26.7903 25.92L26.8273 23.9203L26.7927 23.9197L26.7581 23.9203L26.7903 25.92ZM24.3103 25.96L24.2781 23.9603L24.2354 23.9609L24.1929 23.9635L24.3103 25.96ZM25.1103 24.28L23.5779 22.9948L23.5656 23.0095L23.5535 23.0245L25.1103 24.28ZM26.1503 4H28.1503V3.22203L27.6246 2.64855L26.1503 4ZM23.8703 2.04L22.8304 3.7484L22.8734 3.77459L22.9177 3.79858L23.8703 2.04ZM21.9503 1L21.9979 -0.999434L21.9741 -1H21.9503V1ZM23.6303 1.04L23.7837 -0.954109L23.7309 -0.958173L23.6779 -0.959434L23.6303 1.04ZM25.1503 1.08V3.08H25.1635L25.1766 3.07983L25.1503 1.08ZM28.1903 1.04L28.2166 3.03983L28.2748 3.03906L28.3328 3.03492L28.1903 1.04ZM30.0303 1.16L31.4445 -0.254215L31.4445 -0.254224L30.0303 1.16ZM30.5903 1.84L32.1987 0.651216L32.1873 0.635786L32.1756 0.620579L30.5903 1.84ZM31.5503 3.08L33.0613 1.76969L33.0555 1.76299L31.5503 3.08ZM45.3903 19.04L43.8793 20.3503L47.3903 24.3991V19.04H45.3903ZM42.0703 1L42.1168 -0.999459L42.0936 -1H42.0703V1ZM43.7903 1.04L43.9151 -0.956106L43.876 -0.958549L43.8368 -0.95946L43.7903 1.04ZM48.1903 1.04L48.1459 -0.959507L48.1126 -0.958768L48.0794 -0.956922L48.1903 1.04ZM49.9903 3C49.4385 3 48.9509 2.76903 48.6111 2.42921C48.3204 2.13851 48.2002 1.83435 48.1529 1.69245C48.1005 1.53522 48.0837 1.41128 48.0775 1.35586C48.0706 1.2934 48.0703 1.25166 48.0703 1.24H52.0703C52.0703 1.10163 52.0652 0.780221 51.9477 0.42755C51.8473 0.126266 51.3455 -1 49.9903 -1V3ZM48.0703 1.24C48.0703 1.22834 48.0706 1.1866 48.0775 1.12414C48.0837 1.06872 48.1005 0.944777 48.1529 0.787549C48.2002 0.645648 48.3204 0.341493 48.6111 0.0507917C48.9509 -0.289032 49.4385 -0.520001 49.9903 -0.520001V3.48C51.3455 3.48 51.8473 2.35373 51.9477 2.05245C52.0652 1.69978 52.0703 1.37837 52.0703 1.24H48.0703ZM49.9903 -0.520001C48.2913 -0.520001 46.842 0.207335 45.8463 1.59273L49.0943 3.92727C49.3253 3.606 49.556 3.48 49.9903 3.48V-0.520001ZM45.8641 1.56831C44.9151 2.84748 44.5503 4.43461 44.5503 6.12H48.5503C48.5503 4.97872 48.7989 4.32585 49.0765 3.95169L45.8641 1.56831ZM44.5503 6.12V26.6H48.5503V6.12H44.5503ZM44.5503 26.6C44.5503 26.3328 44.6084 26.0417 44.749 25.7606C44.8876 25.4833 45.0744 25.2795 45.2509 25.1383C45.5727 24.8808 45.8777 24.8149 45.9581 24.7988L46.7425 28.7212C46.9562 28.6784 47.3613 28.5725 47.7497 28.2617C48.2208 27.8849 48.5503 27.293 48.5503 26.6H44.5503ZM45.8652 24.8197C45.9889 24.7888 46.2305 24.7458 46.5391 24.7972C46.8776 24.8536 47.2338 25.0151 47.5245 25.3058L44.6961 28.1342C45.4523 28.8904 46.3879 28.8122 46.8354 28.7003L45.8652 24.8197ZM47.613 25.4002L28.853 4.0402L25.8476 6.67979L44.6076 28.0398L47.613 25.4002ZM25.3503 5.36V20.92H29.3503V5.36H25.3503ZM25.3503 20.92C25.3503 22.5893 25.6947 24.1628 26.5993 25.4375L29.8613 23.1225C29.5926 22.7439 29.3503 22.0774 29.3503 20.92H25.3503ZM26.5993 25.4375C27.5725 26.8088 29.0022 27.52 30.6703 27.52V23.52C30.2584 23.52 30.0615 23.4046 29.8613 23.1225L26.5993 25.4375ZM30.6703 27.52C30.1185 27.52 29.6309 27.289 29.2911 26.9492C29.0004 26.6585 28.8802 26.3544 28.8329 26.2125C28.7805 26.0552 28.7637 25.9313 28.7575 25.8759C28.7506 25.8134 28.7503 25.7717 28.7503 25.76H32.7503C32.7503 25.6216 32.7452 25.3002 32.6277 24.9475C32.5272 24.6462 32.0255 23.52 30.6703 23.52V27.52ZM28.7503 25.76C28.7503 25.7483 28.7506 25.7066 28.7575 25.6441C28.7637 25.5887 28.7805 25.4648 28.8329 25.3075C28.8802 25.1656 29.0004 24.8615 29.2911 24.5708C29.6309 24.231 30.1185 24 30.6703 24V28C32.0255 28 32.5272 26.8738 32.6277 26.5725C32.7452 26.2198 32.7503 25.8984 32.7503 25.76H28.7503ZM30.6703 24C29.9372 24 29.4164 23.9866 29.0834 23.9644L28.8173 27.9556C29.2842 27.9867 29.9101 28 30.6703 28V24ZM28.9873 23.9603L26.8273 23.9203L26.7533 27.9197L28.9133 27.9597L28.9873 23.9603ZM26.7581 23.9203L24.2781 23.9603L24.3426 27.9597L26.8226 27.9197L26.7581 23.9203ZM24.1929 23.9635C23.7989 23.9866 23.1921 24 22.3503 24V28C23.2152 28 23.9151 27.9867 24.4278 27.9566L24.1929 23.9635ZM22.3503 24C22.6803 24 23.0582 24.0882 23.4072 24.3209C23.7437 24.5452 23.9405 24.8283 24.0492 25.0456C24.2381 25.4235 24.2303 25.7379 24.2303 25.76H20.2303C20.2303 25.9422 20.2425 26.3765 20.4715 26.8344C20.6001 27.0917 20.8219 27.4048 21.1884 27.6491C21.5674 27.9018 21.9803 28 22.3503 28V24ZM24.2303 25.76C24.2303 25.7822 24.2381 26.0965 24.0492 26.4744C23.9405 26.6917 23.7437 26.9748 23.4072 27.1991C23.0582 27.4318 22.6803 27.52 22.3503 27.52V23.52C21.9803 23.52 21.5674 23.6182 21.1884 23.8709C20.8219 24.1152 20.6001 24.4283 20.4715 24.6856C20.2425 25.1435 20.2303 25.5779 20.2303 25.76H24.2303ZM22.3503 27.52C24.0563 27.52 25.5777 26.8864 26.6671 25.5355L23.5535 23.0245C23.3096 23.3269 22.991 23.52 22.3503 23.52V27.52ZM26.6427 25.5652C27.721 24.2795 28.1503 22.6557 28.1503 20.92H24.1503C24.1503 22.0109 23.8862 22.6272 23.5779 22.9948L26.6427 25.5652ZM28.1503 20.92V4H24.1503V20.92H28.1503ZM27.6246 2.64855C26.6934 1.63268 25.755 0.786307 24.8229 0.281415L22.9177 3.79858C23.2656 3.98702 23.8472 4.44732 24.676 5.35145L27.6246 2.64855ZM24.9102 0.331601C24.0086 -0.217202 23.0121 -0.520001 21.9503 -0.520001V3.48C22.2219 3.48 22.5054 3.55053 22.8304 3.7484L24.9102 0.331601ZM21.9503 -0.520001C22.5021 -0.520001 22.9897 -0.289039 23.3295 0.0507832C23.6202 0.341482 23.7404 0.645638 23.7877 0.787541C23.8401 0.944771 23.8569 1.06871 23.8631 1.12414C23.87 1.1866 23.8703 1.22834 23.8703 1.24H19.8703C19.8703 1.37837 19.8754 1.69978 19.9929 2.05246C20.0934 2.35375 20.5951 3.48 21.9503 3.48V-0.520001ZM23.8703 1.24C23.8703 1.25166 23.87 1.2934 23.8631 1.35586C23.8569 1.41129 23.8401 1.53523 23.7877 1.69246C23.7404 1.83436 23.6202 2.13852 23.3295 2.42922C22.9897 2.76904 22.5021 3 21.9503 3V-1C20.5951 -1 20.0934 0.126244 19.9929 0.427543C19.8754 0.780216 19.8703 1.10163 19.8703 1.24H23.8703ZM21.9027 2.99943L23.5827 3.03943L23.6779 -0.959434L21.9979 -0.999434L21.9027 2.99943ZM23.4769 3.03411C23.9017 3.06678 24.4698 3.08 25.1503 3.08V-0.920001C24.4975 -0.920001 24.0523 -0.933452 23.7837 -0.954109L23.4769 3.03411ZM25.1766 3.07983L28.2166 3.03983L28.164 -0.959827L25.124 -0.919827L25.1766 3.07983ZM28.3328 3.03492C28.6435 3.01272 29.0464 3 29.5503 3V-1C28.9876 -1 28.4838 -0.986055 28.0478 -0.954918L28.3328 3.03492ZM29.5503 3C29.4554 3 29.0168 2.97491 28.6161 2.57422L31.4445 -0.254224C30.8305 -0.868244 30.0719 -1 29.5503 -1V3ZM28.6161 2.57421C28.5994 2.55749 28.6235 2.58065 28.7065 2.68141C28.7807 2.77158 28.8794 2.89606 29.0051 3.05942L32.1756 0.620579C31.9202 0.288626 31.6576 -0.0411873 31.4445 -0.254215L28.6161 2.57421ZM28.982 3.02878C29.4311 3.6365 29.7968 4.11316 30.0452 4.39701L33.0555 1.76299C32.9305 1.62017 32.6561 1.27016 32.1987 0.651216L28.982 3.02878ZM30.0393 4.39029L43.8793 20.3503L46.9013 17.7297L33.0613 1.76971L30.0393 4.39029ZM47.3903 19.04V6.12H43.3903V19.04H47.3903ZM47.3903 6.12C47.3903 4.43346 47.0498 2.84268 46.1413 1.5625L42.8793 3.87749C43.1441 4.25065 43.3903 4.92654 43.3903 6.12H47.3903ZM46.1413 1.5625C45.1682 0.191243 43.7384 -0.520001 42.0703 -0.520001V3.48C42.4822 3.48 42.6791 3.59542 42.8793 3.87749L46.1413 1.5625ZM42.0703 -0.520001C42.6221 -0.520001 43.1097 -0.289047 43.4495 0.0507708C43.7402 0.341469 43.8604 0.645625 43.9077 0.787532C43.9601 0.944764 43.9769 1.06871 43.9831 1.12413C43.99 1.18659 43.9903 1.22834 43.9903 1.24H39.9903C39.9903 1.37837 39.9954 1.69979 40.1129 2.05247C40.2134 2.35378 40.7152 3.48 42.0703 3.48V-0.520001ZM43.9903 1.24C43.9903 1.25166 43.99 1.2934 43.9831 1.35587C43.9769 1.41129 43.9601 1.53523 43.9077 1.69247C43.8604 1.83437 43.7402 2.13853 43.4495 2.42923C43.1097 2.76905 42.6221 3 42.0703 3V-1C40.7152 -1 40.2134 0.126215 40.1129 0.427533C39.9954 0.780211 39.9903 1.10163 39.9903 1.24H43.9903ZM42.0238 2.99946L43.7438 3.03946L43.8368 -0.95946L42.1168 -0.999459L42.0238 2.99946ZM43.6656 3.03611C44.5435 3.09098 45.308 3.12 45.9503 3.12V-0.880001C45.4193 -0.880001 44.7438 -0.904312 43.9151 -0.956106L43.6656 3.03611ZM45.9503 3.12C46.5388 3.12 47.3285 3.09096 48.3013 3.03692L48.0794 -0.956922C47.1321 -0.904296 46.4285 -0.880001 45.9503 -0.880001V3.12ZM48.2347 3.03951L50.0347 2.99951L49.9459 -0.999506L48.1459 -0.959507L48.2347 3.03951ZM77.5244 25.96L77.6195 23.9623L77.5849 23.9606L77.5503 23.9602L77.5244 25.96ZM74.4444 25.92L74.4703 23.9202L74.4463 23.9199L74.4222 23.9201L74.4444 25.92ZM70.8444 25.96L70.8222 23.9601L70.7778 23.9606L70.7334 23.9631L70.8444 25.96ZM71.0444 25.32L70.48 23.4013L71.0444 25.32ZM71.9644 24.56L70.1261 23.7722V23.7722L71.9644 24.56ZM72.2044 13.56H74.2044V11.56H72.2044V13.56ZM59.2844 13.56V11.56H57.2844V13.56H59.2844ZM59.5244 24.56L57.6674 25.3028L57.6765 25.3254L57.6861 25.3478L59.5244 24.56ZM60.4444 25.32L61.0087 23.4013L60.4444 25.32ZM60.3644 25.96L60.4595 23.9623L60.4235 23.9605L60.3874 23.9601L60.3644 25.96ZM56.8844 25.92L56.9074 23.9201L56.8825 23.9198L56.8577 23.9202L56.8844 25.92ZM53.8844 25.96L53.8577 23.9602L53.8211 23.9607L53.7845 23.9625L53.8844 25.96ZM53.7244 25.32L53.1278 23.411H53.1278L53.7244 25.32ZM54.6044 24.56L56.4427 25.3478L56.4523 25.3254L56.4613 25.3028L54.6044 24.56ZM54.6044 2.48L52.7661 3.26784L52.7661 3.26784L54.6044 2.48ZM53.7244 1.72L52.9816 3.57695L53.0537 3.60579L53.1278 3.62896L53.7244 1.72ZM51.7644 1L51.8014 -0.999658L51.7829 -1H51.7644V1ZM53.9244 1.04L54.0112 -0.958113L53.9863 -0.959196L53.9614 -0.959658L53.9244 1.04ZM60.4044 1.04L60.368 -0.95967L60.3462 -0.959273L60.3244 -0.958403L60.4044 1.04ZM62.6044 1V-1H62.5862L62.568 -0.999669L62.6044 1ZM60.4844 1.72L59.8187 -0.165983L59.8187 -0.165981L60.4844 1.72ZM59.5244 2.56L57.712 1.71423L57.6986 1.74299L57.6861 1.77216L59.5244 2.56ZM59.2844 12.44H57.2844V14.44H59.2844V12.44ZM72.2044 12.44V14.44H74.2044V12.44H72.2044ZM71.9644 2.56L70.1074 3.30278L70.1165 3.32542L70.1261 3.34784L71.9644 2.56ZM71.0444 1.72L71.71 -0.165981L71.71 -0.165983L71.0444 1.72ZM68.8844 1L68.9252 -0.999583L68.9048 -1H68.8844V1ZM70.8444 1.04L70.9243 -0.958403L70.9048 -0.959185L70.8852 -0.959584L70.8444 1.04ZM77.5244 1.04L77.4887 -0.959682L77.4665 -0.959287L77.4444 -0.958403L77.5244 1.04ZM79.7644 1V-1H79.7465L79.7287 -0.999681L79.7644 1ZM77.7244 1.72L78.3209 3.62896L78.3557 3.6181L78.39 3.60598L77.7244 1.72ZM76.8444 2.48L75.0061 1.69217L74.9817 1.74905L74.9609 1.80733L76.8444 2.48ZM76.8444 24.56L74.947 25.1925L74.9733 25.2714L75.0061 25.3478L76.8444 24.56ZM77.7244 25.32L78.3209 23.411H78.3209L77.7244 25.32ZM79.7644 27.52C79.4344 27.52 79.0565 27.4318 78.7075 27.1991C78.371 26.9748 78.1741 26.6917 78.0655 26.4744C77.8766 26.0965 77.8844 25.7821 77.8844 25.76H81.8844C81.8844 25.5779 81.8722 25.1435 81.6432 24.6856C81.5146 24.4283 81.2928 24.1152 80.9263 23.8709C80.5473 23.6182 80.1344 23.52 79.7644 23.52V27.52ZM77.8844 25.76C77.8844 25.7379 77.8766 25.4235 78.0655 25.0456C78.1741 24.8283 78.371 24.5452 78.7075 24.3209C79.0565 24.0882 79.4344 24 79.7644 24V28C80.1344 28 80.5473 27.9018 80.9263 27.6491C81.2928 27.4048 81.5146 27.0917 81.6432 26.8344C81.8722 26.3765 81.8844 25.9421 81.8844 25.76H77.8844ZM79.7644 24C78.845 24 78.134 23.9868 77.6195 23.9623L77.4292 27.9577C78.0348 27.9866 78.8171 28 79.7644 28V24ZM77.5503 23.9602L74.4703 23.9202L74.4184 27.9198L77.4984 27.9598L77.5503 23.9602ZM74.4222 23.9201L70.8222 23.9601L70.8666 27.9599L74.4666 27.9199L74.4222 23.9201ZM70.7334 23.9631C70.3074 23.9868 69.6962 24 68.8844 24V28C69.7259 28 70.4214 27.9866 70.9553 27.9569L70.7334 23.9631ZM68.8844 24C69.2143 24 69.5923 24.0882 69.9413 24.3209C70.2777 24.5452 70.4746 24.8283 70.5832 25.0456C70.7722 25.4235 70.7644 25.7379 70.7644 25.76H66.7644C66.7644 25.9421 66.7766 26.3765 67.0055 26.8344C67.1341 27.0917 67.356 27.4048 67.7225 27.6491C68.1015 27.9018 68.5144 28 68.8844 28V24ZM70.7644 25.76C70.7644 25.7821 70.7722 26.0965 70.5832 26.4744C70.4746 26.6917 70.2777 26.9748 69.9413 27.1991C69.5923 27.4318 69.2143 27.52 68.8844 27.52V23.52C68.5144 23.52 68.1015 23.6182 67.7225 23.8709C67.356 24.1152 67.1341 24.4283 67.0055 24.6856C66.7766 25.1435 66.7644 25.5779 66.7644 25.76H70.7644ZM68.8844 27.52C69.9015 27.52 70.8642 27.4577 71.6087 27.2387L70.48 23.4013C70.3179 23.449 69.8406 23.52 68.8844 23.52V27.52ZM71.6087 27.2387C72.5298 26.9678 73.3681 26.3618 73.8027 25.3478L70.1261 23.7722C70.1688 23.6725 70.2431 23.5686 70.3406 23.4881C70.4312 23.4132 70.4951 23.3968 70.48 23.4013L71.6087 27.2387ZM73.8027 25.3478C74.1315 24.5806 74.2044 23.635 74.2044 22.76H70.2044C70.2044 23.1145 70.1869 23.3784 70.1619 23.5657C70.1354 23.7644 70.1087 23.8128 70.1261 23.7722L73.8027 25.3478ZM74.2044 22.76V13.56H70.2044V22.76H74.2044ZM72.2044 11.56H59.2844V15.56H72.2044V11.56ZM57.2844 13.56V22.76H61.2844V13.56H57.2844ZM57.2844 22.76C57.2844 23.6344 57.3635 24.5429 57.6674 25.3028L61.3813 23.8172C61.382 23.8188 61.353 23.7422 61.3268 23.5457C61.3015 23.356 61.2844 23.0979 61.2844 22.76H57.2844ZM57.6861 25.3478C58.1206 26.3618 58.959 26.9678 59.88 27.2387L61.0087 23.4013C60.9936 23.3968 61.0575 23.4132 61.1481 23.4881C61.2457 23.5686 61.32 23.6725 61.3627 23.7722L57.6861 25.3478ZM59.88 27.2387C60.6246 27.4577 61.5872 27.52 62.6044 27.52V23.52C61.6482 23.52 61.1709 23.449 61.0087 23.4013L59.88 27.2387ZM62.6044 27.52C62.0526 27.52 61.565 27.289 61.2252 26.9492C60.9345 26.6585 60.8143 26.3544 60.767 26.2125C60.7146 26.0552 60.6978 25.9313 60.6916 25.8759C60.6847 25.8134 60.6844 25.7717 60.6844 25.76H64.6844C64.6844 25.6216 64.6793 25.3002 64.5617 24.9475C64.4613 24.6462 63.9595 23.52 62.6044 23.52V27.52ZM60.6844 25.76C60.6844 25.7483 60.6847 25.7066 60.6916 25.6441C60.6978 25.5887 60.7146 25.4648 60.767 25.3075C60.8143 25.1656 60.9345 24.8615 61.2252 24.5708C61.565 24.231 62.0526 24 62.6044 24V28C63.9595 28 64.4613 26.8738 64.5617 26.5725C64.6793 26.2198 64.6844 25.8984 64.6844 25.76H60.6844ZM62.6044 24C61.685 24 60.974 23.9868 60.4595 23.9623L60.2692 27.9577C60.8748 27.9866 61.6571 28 62.6044 28V24ZM60.3874 23.9601L56.9074 23.9201L56.8614 27.9199L60.3414 27.9599L60.3874 23.9601ZM56.8577 23.9202L53.8577 23.9602L53.911 27.9598L56.911 27.9198L56.8577 23.9202ZM53.7845 23.9625C53.3001 23.9867 52.605 24 51.6844 24V28C52.6304 28 53.402 27.9866 53.9842 27.9575L53.7845 23.9625ZM51.6844 24C52.2361 24 52.7238 24.231 53.0636 24.5708C53.3543 24.8615 53.4744 25.1656 53.5217 25.3075C53.5742 25.4648 53.591 25.5887 53.5971 25.6441C53.6041 25.7066 53.6044 25.7483 53.6044 25.76H49.6044C49.6044 25.8984 49.6095 26.2198 49.727 26.5725C49.8274 26.8738 50.3292 28 51.6844 28V24ZM53.6044 25.76C53.6044 25.7717 53.6041 25.8134 53.5971 25.8759C53.591 25.9313 53.5742 26.0552 53.5217 26.2125C53.4744 26.3544 53.3543 26.6585 53.0636 26.9492C52.7238 27.289 52.2361 27.52 51.6844 27.52V23.52C50.3292 23.52 49.8274 24.6462 49.727 24.9475C49.6095 25.3002 49.6044 25.6216 49.6044 25.76H53.6044ZM51.6844 27.52C52.6497 27.52 53.5873 27.4582 54.3209 27.229L53.1278 23.411C53.0082 23.4484 52.5857 23.52 51.6844 23.52V27.52ZM54.3209 27.229C55.2422 26.9411 56.0276 26.3164 56.4427 25.3478L52.7661 23.7722C52.7998 23.6935 52.8629 23.5977 52.9571 23.5164C53.0472 23.4386 53.1195 23.4136 53.1278 23.411L54.3209 27.229ZM56.4613 25.3028C56.7653 24.5429 56.8444 23.6344 56.8444 22.76H52.8444C52.8444 23.0979 52.8272 23.356 52.8019 23.5457C52.7757 23.7422 52.7468 23.8188 52.7474 23.8172L56.4613 25.3028ZM56.8444 22.76V4.24H52.8444V22.76H56.8444ZM56.8444 4.24C56.8444 3.38086 56.7694 2.45448 56.4427 1.69216L52.7661 3.26784C52.751 3.23261 52.777 3.28156 52.8027 3.47023C52.8271 3.64917 52.8444 3.90127 52.8444 4.24H56.8444ZM56.4427 1.69216C56.0276 0.723604 55.2422 0.0989389 54.3209 -0.188962L53.1278 3.62896C53.1195 3.62635 53.0472 3.60141 52.9571 3.52364C52.8629 3.44227 52.7998 3.34653 52.7661 3.26784L56.4427 1.69216ZM54.4672 -0.136956C53.6892 -0.448145 52.7069 -0.520001 51.7644 -0.520001V3.48C52.1644 3.48 52.4689 3.49794 52.6913 3.52517C52.9266 3.55398 53.0026 3.58537 52.9816 3.57695L54.4672 -0.136956ZM51.7644 -0.520001C52.0943 -0.520001 52.4723 -0.431763 52.8213 -0.199103C53.1577 0.0252094 53.3546 0.308309 53.4632 0.525569C53.6522 0.903494 53.6444 1.21785 53.6444 1.24H49.6444C49.6444 1.42215 49.6566 1.8565 49.8855 2.31443C50.0142 2.57169 50.236 2.88479 50.6025 3.1291C50.9815 3.38176 51.3944 3.48 51.7644 3.48V-0.520001ZM53.6444 1.24C53.6444 1.26215 53.6522 1.5765 53.4632 1.95443C53.3546 2.17169 53.1577 2.45479 52.8213 2.6791C52.4723 2.91176 52.0943 3 51.7644 3V-1C51.3944 -1 50.9815 -0.901762 50.6025 -0.649102C50.236 -0.404789 50.0142 -0.0916901 49.8855 0.16557C49.6566 0.623494 49.6444 1.05785 49.6444 1.24H53.6444ZM51.7273 2.99966L53.8873 3.03966L53.9614 -0.959658L51.8014 -0.999658L51.7273 2.99966ZM53.8375 3.03811C55.0773 3.09201 56.0963 3.12 56.8844 3.12V-0.880001C56.1791 -0.880001 55.2248 -0.905351 54.0112 -0.958113L53.8375 3.03811ZM56.8844 3.12C57.9312 3.12 59.1321 3.09249 60.4843 3.0384L60.3244 -0.958403C59.01 -0.905824 57.8643 -0.880001 56.8844 -0.880001V3.12ZM60.4407 3.03967L62.6407 2.99967L62.568 -0.999669L60.368 -0.95967L60.4407 3.03967ZM62.6044 3C62.0526 3 61.565 2.76904 61.2252 2.42922C60.9345 2.13852 60.8143 1.83436 60.767 1.69246C60.7146 1.53523 60.6978 1.41129 60.6916 1.35586C60.6847 1.2934 60.6844 1.25166 60.6844 1.24H64.6844C64.6844 1.10163 64.6793 0.780216 64.5617 0.427542C64.4613 0.126241 63.9595 -1 62.6044 -1V3ZM60.6844 1.24C60.6844 1.22834 60.6847 1.1866 60.6916 1.12414C60.6978 1.06871 60.7146 0.94477 60.767 0.78754C60.8143 0.645637 60.9345 0.341481 61.2252 0.0507812C61.565 -0.28904 62.0526 -0.520001 62.6044 -0.520001V3.48C63.9595 3.48 64.4613 2.35376 64.5617 2.05246C64.6793 1.69978 64.6844 1.37837 64.6844 1.24H60.6844ZM62.6044 -0.520001C61.5971 -0.520001 60.6069 -0.444158 59.8187 -0.165983L61.15 3.60598C61.2685 3.56415 61.6916 3.48 62.6044 3.48V-0.520001ZM59.8187 -0.165981C58.9089 0.155149 58.1472 0.781693 57.712 1.71423L61.3367 3.40577C61.3171 3.44777 61.2785 3.50515 61.2214 3.55515C61.1671 3.60268 61.1316 3.61248 61.15 3.60598L59.8187 -0.165981ZM57.6861 1.77216C57.3594 2.53448 57.2844 3.46086 57.2844 4.32H61.2844C61.2844 3.98127 61.3016 3.72916 61.326 3.55023C61.3518 3.36156 61.3778 3.31261 61.3627 3.34784L57.6861 1.77216ZM57.2844 4.32V12.44H61.2844V4.32H57.2844ZM59.2844 14.44H72.2044V10.44H59.2844V14.44ZM74.2044 12.44V4.32H70.2044V12.44H74.2044ZM74.2044 4.32C74.2044 3.46086 74.1294 2.53448 73.8027 1.77216L70.1261 3.34784C70.111 3.31261 70.137 3.36156 70.1627 3.55023C70.1871 3.72917 70.2044 3.98127 70.2044 4.32H74.2044ZM73.8213 1.81722C73.4212 0.816765 72.6362 0.160899 71.71 -0.165981L70.3787 3.60598C70.3921 3.6107 70.3392 3.59391 70.2658 3.52697C70.1881 3.45599 70.1351 3.37191 70.1074 3.30278L73.8213 1.81722ZM71.71 -0.165983C70.9184 -0.445388 69.9108 -0.520001 68.8844 -0.520001V3.48C69.8313 3.48 70.2637 3.56538 70.3787 3.60598L71.71 -0.165983ZM68.8844 -0.520001C69.2143 -0.520001 69.5923 -0.431763 69.9413 -0.199102C70.2777 0.0252113 70.4746 0.308311 70.5832 0.525572C70.7722 0.903495 70.7644 1.21785 70.7644 1.24H66.7644C66.7644 1.42215 66.7766 1.8565 67.0055 2.31443C67.1341 2.57169 67.356 2.88479 67.7225 3.1291C68.1015 3.38176 68.5144 3.48 68.8844 3.48V-0.520001ZM70.7644 1.24C70.7644 1.26215 70.7722 1.5765 70.5832 1.95443C70.4746 2.17169 70.2777 2.45479 69.9413 2.6791C69.5923 2.91176 69.2143 3 68.8844 3V-1C68.5144 -1 68.1015 -0.901761 67.7225 -0.6491C67.356 -0.404787 67.1341 -0.0916872 67.0055 0.165572C66.7766 0.623496 66.7644 1.05785 66.7644 1.24H70.7644ZM68.8436 2.99958L70.8036 3.03958L70.8852 -0.959584L68.9252 -0.999583L68.8436 2.99958ZM70.7644 3.0384C72.1181 3.09255 73.3454 3.12 74.4444 3.12V-0.880001C73.41 -0.880001 72.2373 -0.905884 70.9243 -0.958403L70.7644 3.0384ZM74.4444 3.12C75.2046 3.12 76.2627 3.09207 77.6043 3.0384L77.4444 -0.958403C76.1194 -0.905402 75.1242 -0.880001 74.4444 -0.880001V3.12ZM77.5601 3.03968L79.8001 2.99968L79.7287 -0.999681L77.4887 -0.959682L77.5601 3.03968ZM79.7644 3C79.4344 3 79.0565 2.91176 78.7075 2.6791C78.371 2.45478 78.1741 2.17168 78.0655 1.95442C77.8766 1.5765 77.8844 1.26215 77.8844 1.24H81.8844C81.8844 1.05785 81.8722 0.623501 81.6432 0.16558C81.5146 -0.0916786 81.2928 -0.404779 80.9263 -0.649096C80.5473 -0.901759 80.1344 -1 79.7644 -1V3ZM77.8844 1.24C77.8844 1.21785 77.8766 0.9035 78.0655 0.525578C78.1741 0.30832 78.371 0.025219 78.7075 -0.199097C79.0565 -0.43176 79.4344 -0.520001 79.7644 -0.520001V3.48C80.1344 3.48 80.5473 3.38176 80.9263 3.12909C81.2928 2.88478 81.5146 2.57168 81.6432 2.31442C81.8722 1.8565 81.8844 1.42215 81.8844 1.24H77.8844ZM79.7644 -0.520001C78.7948 -0.520001 77.8393 -0.441478 77.0587 -0.165983L78.39 3.60598C78.5161 3.56147 78.9206 3.48 79.7644 3.48V-0.520001ZM77.1278 -0.188963C76.2065 0.0989389 75.4212 0.723603 75.0061 1.69217L78.6827 3.26783C78.6489 3.34653 78.5858 3.44227 78.4916 3.52364C78.4016 3.60141 78.3293 3.62635 78.3209 3.62896L77.1278 -0.188963ZM74.9609 1.80733C74.7063 2.52016 74.6444 3.39521 74.6444 4.24H78.6444C78.6444 3.89094 78.6592 3.62324 78.6816 3.42582C78.7052 3.21846 78.7313 3.14314 78.7279 3.15267L74.9609 1.80733ZM74.6444 4.24V22.76H78.6444V4.24H74.6444ZM74.6444 22.76C74.6444 23.6184 74.7094 24.4798 74.947 25.1925L78.7417 23.9275C78.7126 23.8402 78.6444 23.5016 78.6444 22.76H74.6444ZM75.0061 25.3478C75.4212 26.3164 76.2065 26.9411 77.1278 27.229L78.3209 23.411C78.3293 23.4136 78.4016 23.4386 78.4916 23.5164C78.5858 23.5977 78.6489 23.6935 78.6827 23.7722L75.0061 25.3478ZM77.1278 27.229C77.8615 27.4582 78.7991 27.52 79.7644 27.52V23.52C78.863 23.52 78.4406 23.4484 78.3209 23.411L77.1278 27.229ZM107.231 25.92L107.326 23.9223L107.322 23.9221L107.231 25.92ZM102.271 25.92L102.16 23.9231L102.154 23.9235L102.271 25.92ZM101.591 25.32L102.419 27.1407L102.453 27.1254L102.486 27.1089L101.591 25.32ZM101.271 22.24L103.06 21.3456L103.057 21.3403L101.271 22.24ZM98.5513 16.84L100.337 15.9403L99.7832 14.84H98.5513V16.84ZM88.7113 16.84V14.84H87.416L86.8862 16.0219L88.7113 16.84ZM87.1513 20.32L88.9763 21.1381L87.1513 20.32ZM87.6312 24.72L86.3819 26.2817L86.3967 26.2936L86.4118 26.3052L87.6312 24.72ZM88.3112 25.92L88.4287 23.9234L88.4164 23.9228L88.3112 25.92ZM83.0713 25.92L82.9661 23.9227L82.9538 23.9235L83.0713 25.92ZM82.7513 25.08L83.7533 26.8109L83.7867 26.7915L83.8192 26.771L82.7513 25.08ZM84.2712 23.44L85.9442 24.5361L85.9526 24.5231L85.9609 24.5101L84.2712 23.44ZM86.0713 19.92L84.2507 19.0918L84.2462 19.1019L86.0713 19.92ZM94.7513 0.84L93.0872 -0.269397L92.9976 -0.135098L92.9308 0.0118189L94.7513 0.84ZM95.4713 0.84L93.5739 1.47246L93.6209 1.61348L93.6882 1.74601L95.4713 0.84ZM105.471 20.52L107.265 19.6357L107.26 19.6248L107.254 19.614L105.471 20.52ZM107.791 24.44L109.314 23.1431L107.791 24.44ZM89.2312 15.72L87.4086 14.8966L86.1331 17.72H89.2312V15.72ZM97.9512 15.72V17.72H101.2L99.737 14.8193L97.9512 15.72ZM93.3512 6.6L95.137 5.69931L93.2519 1.96196L91.5286 5.77661L93.3512 6.6ZM109.711 27.52C109.364 27.52 108.773 27.3984 108.325 26.8604C107.935 26.3922 107.911 25.9085 107.911 25.76H111.911C111.911 25.4515 111.855 24.8478 111.398 24.2996C110.883 23.6816 110.192 23.52 109.711 23.52V27.52ZM107.911 25.76C107.911 25.6115 107.935 25.1278 108.325 24.6596C108.773 24.1216 109.364 24 109.711 24V28C110.192 28 110.883 27.8384 111.398 27.2204C111.855 26.6722 111.911 26.0685 111.911 25.76H107.911ZM109.711 24C109.228 24 108.441 23.9754 107.326 23.9223L107.136 27.9177C108.261 27.9713 109.128 28 109.711 28V24ZM107.322 23.9221C106.147 23.8687 105.267 23.84 104.711 23.84V27.84C105.168 27.84 105.969 27.8647 107.14 27.9179L107.322 23.9221ZM104.711 23.84C103.995 23.84 103.143 23.8685 102.16 23.9231L102.382 27.9169C103.32 27.8648 104.094 27.84 104.711 27.84V23.84ZM102.154 23.9235C101.263 23.9758 100.588 24 100.111 24V28C100.701 28 101.466 27.9708 102.389 27.9165L102.154 23.9235ZM100.111 24C100.336 24 100.629 24.043 100.936 24.1961C101.25 24.3534 101.491 24.5834 101.655 24.8306C101.95 25.2719 101.951 25.6809 101.951 25.76H97.9512C97.9512 25.9991 97.9796 26.5281 98.3271 27.0494C98.7701 27.7138 99.4753 28 100.111 28V24ZM101.951 25.76C101.951 25.8391 101.95 26.2481 101.655 26.6894C101.491 26.9366 101.25 27.1666 100.936 27.3239C100.629 27.477 100.336 27.52 100.111 27.52V23.52C99.4753 23.52 98.7701 23.8062 98.3271 24.4706C97.9796 24.9919 97.9512 25.5209 97.9512 25.76H101.951ZM100.111 27.52C100.836 27.52 101.705 27.465 102.419 27.1407L100.764 23.4993C100.864 23.4538 100.88 23.4682 100.733 23.488C100.602 23.5057 100.4 23.52 100.111 23.52V27.52ZM102.486 27.1089C102.934 26.8849 103.362 26.5353 103.666 26.029C103.967 25.5277 104.071 24.9962 104.071 24.52H100.071C100.071 24.4172 100.095 24.2056 100.236 23.971C100.38 23.7314 100.569 23.5951 100.697 23.5311L102.486 27.1089ZM104.071 24.52C104.071 23.9571 103.918 23.4021 103.758 22.9478C103.587 22.4605 103.348 21.9221 103.06 21.3456L99.4824 23.1344C99.7275 23.6246 99.8884 23.9995 99.9841 24.2722C100.091 24.5779 100.071 24.6296 100.071 24.52H104.071ZM103.057 21.3403L100.337 15.9403L96.7651 17.7397L99.4851 23.1397L103.057 21.3403ZM98.5513 14.84H88.7113V18.84H98.5513V14.84ZM86.8862 16.0219L85.3262 19.5019L88.9763 21.1381L90.5363 17.6581L86.8862 16.0219ZM85.3262 19.5019C84.8944 20.4652 84.6312 21.4659 84.6312 22.48H88.6312C88.6312 22.1608 88.7148 21.7215 88.9763 21.1381L85.3262 19.5019ZM84.6312 22.48C84.6312 23.9619 85.1776 25.3184 86.3819 26.2817L88.8806 23.1583C88.7515 23.055 88.6312 22.9181 88.6312 22.48H84.6312ZM86.4118 26.3052C87.55 27.1807 88.9409 27.52 90.3913 27.52V23.52C89.5483 23.52 89.0992 23.3259 88.8507 23.1348L86.4118 26.3052ZM90.3913 27.52C90.044 27.52 89.4532 27.3984 89.0048 26.8604C88.6146 26.3922 88.5912 25.9085 88.5912 25.76H92.5912C92.5912 25.4515 92.5345 24.8478 92.0777 24.2996C91.5627 23.6816 90.8718 23.52 90.3913 23.52V27.52ZM88.5912 25.76C88.5912 25.6115 88.6146 25.1278 89.0048 24.6596C89.4532 24.1216 90.044 24 90.3913 24V28C90.8718 28 91.5627 27.8384 92.0777 27.2204C92.5345 26.6722 92.5912 26.0685 92.5912 25.76H88.5912ZM90.3913 24C89.9709 24 89.3241 23.9761 88.4287 23.9235L88.1938 27.9165C89.1117 27.9705 89.8516 28 90.3913 28V24ZM88.4164 23.9228C87.3795 23.8682 86.4628 23.84 85.6712 23.84V27.84C86.373 27.84 87.2163 27.8651 88.2061 27.9172L88.4164 23.9228ZM85.6712 23.84C84.9053 23.84 84.0016 23.8683 82.9661 23.9228L83.1764 27.9172C84.1676 27.8651 84.9972 27.84 85.6712 27.84V23.84ZM82.9538 23.9235C82.0655 23.9757 81.3757 24 80.8712 24V28C81.4868 28 82.2637 27.971 83.1887 27.9165L82.9538 23.9235ZM80.8712 24C81.0958 24 81.3894 24.043 81.6957 24.1961C82.0102 24.3534 82.2506 24.5834 82.4154 24.8306C82.7095 25.2719 82.7113 25.6809 82.7113 25.76H78.7113C78.7113 25.9991 78.7396 26.5281 79.0872 27.0494C79.5301 27.7138 80.2353 28 80.8712 28V24ZM82.7113 25.76C82.7113 25.8391 82.7095 26.2481 82.4154 26.6894C82.2506 26.9366 82.0102 27.1666 81.6957 27.3239C81.3894 27.477 81.0958 27.52 80.8712 27.52V23.52C80.2353 23.52 79.5301 23.8062 79.0872 24.4706C78.7396 24.9919 78.7113 25.5209 78.7113 25.76H82.7113ZM80.8712 27.52C81.8747 27.52 82.8692 27.3227 83.7533 26.8109L81.7492 23.3491C81.62 23.4239 81.3612 23.52 80.8712 23.52V27.52ZM83.8192 26.771C84.6632 26.238 85.3573 25.4318 85.9442 24.5361L82.5983 22.3439C82.1718 22.9949 81.8527 23.282 81.6833 23.389L83.8192 26.771ZM85.9609 24.5101C86.5436 23.5901 87.1892 22.3154 87.8963 20.7381L84.2462 19.1019C83.5666 20.618 83.0123 21.6899 82.5816 22.3699L85.9609 24.5101ZM87.8917 20.7482L96.5717 1.66818L92.9308 0.0118189L84.2508 19.0918L87.8917 20.7482ZM96.4154 1.9494C96.1272 2.38156 95.7422 2.5712 95.5137 2.64736C95.2976 2.71941 95.1406 2.72 95.1113 2.72V-1.28C94.8476 -1.28 93.7497 -1.26318 93.0872 -0.269397L96.4154 1.9494ZM95.1113 2.72C95.1051 2.72 95.0707 2.71988 95.0155 2.71325C94.9637 2.70704 94.8606 2.6913 94.7288 2.64736C94.5011 2.57146 93.8441 2.28303 93.5739 1.47246L97.3686 0.207539C97.0718 -0.683027 96.3414 -1.03146 95.9937 -1.14737C95.6371 -1.26622 95.3066 -1.28 95.1113 -1.28V2.72ZM93.6882 1.74601L103.688 21.426L107.254 19.614L97.2543 -0.0660057L93.6882 1.74601ZM103.677 21.4043C104.617 23.3099 105.481 24.8127 106.269 25.7369L109.314 23.1431C108.874 22.6273 108.192 21.5167 107.265 19.6357L103.677 21.4043ZM106.269 25.7369C107.097 26.7094 108.245 27.52 109.711 27.52V23.52C109.755 23.52 109.764 23.536 109.712 23.5068C109.647 23.4704 109.509 23.3727 109.314 23.1431L106.269 25.7369ZM89.2312 17.72H97.9512V13.72H89.2312V17.72ZM99.737 14.8193L95.137 5.69931L91.5655 7.50069L96.1655 16.6207L99.737 14.8193ZM91.5286 5.77661L87.4086 14.8966L91.0539 16.5434L95.1739 7.42339L91.5286 5.77661ZM138.584 1V-1H138.562L138.54 -0.999506L138.584 1ZM136.064 2.76L137.67 3.95169L137.679 3.93955L137.688 3.92727L136.064 2.76ZM134.944 26.76L134.552 24.7988L134.505 24.8082L134.459 24.8197L134.944 26.76ZM134.704 26.72L133.201 28.0398L133.244 28.0884L133.29 28.1342L134.704 26.72ZM115.944 5.36L117.447 4.0402L113.944 0.052042V5.36H115.944ZM116.824 24.28L118.455 23.1225L116.824 24.28ZM117.544 25.96L117.677 23.9644L117.629 23.9612L117.581 23.9603L117.544 25.96ZM115.384 25.92L115.421 23.9203L115.386 23.9197L115.352 23.9203L115.384 25.92ZM112.904 25.96L112.872 23.9603L112.829 23.9609L112.787 23.9635L112.904 25.96ZM113.704 24.28L112.172 22.9948L112.159 23.0095L112.147 23.0245L113.704 24.28ZM114.744 4H116.744V3.22203L116.218 2.64855L114.744 4ZM112.464 2.04L111.424 3.7484L111.467 3.77459L111.511 3.79858L112.464 2.04ZM110.544 1L110.592 -0.999434L110.568 -1H110.544V1ZM112.224 1.04L112.377 -0.954109L112.325 -0.958173L112.272 -0.959434L112.224 1.04ZM113.744 1.08V3.08H113.757L113.77 3.07983L113.744 1.08ZM116.784 1.04L116.81 3.03983L116.869 3.03906L116.927 3.03492L116.784 1.04ZM118.624 1.16L120.038 -0.254215L120.038 -0.254224L118.624 1.16ZM119.184 1.84L120.792 0.651216L120.781 0.635786L120.769 0.620579L119.184 1.84ZM120.144 3.08L121.655 1.76969L121.649 1.76299L120.144 3.08ZM133.984 19.04L132.473 20.3503L135.984 24.3991V19.04H133.984ZM130.664 1L130.711 -0.999459L130.687 -1H130.664V1ZM132.384 1.04L132.509 -0.956106L132.47 -0.958549L132.431 -0.95946L132.384 1.04ZM136.784 1.04L136.74 -0.959507L136.706 -0.958768L136.673 -0.956922L136.784 1.04ZM138.584 3C138.032 3 137.545 2.76903 137.205 2.42921C136.914 2.13851 136.794 1.83435 136.747 1.69245C136.694 1.53522 136.677 1.41128 136.671 1.35586C136.664 1.2934 136.664 1.25166 136.664 1.24H140.664C140.664 1.10163 140.659 0.780221 140.541 0.42755C140.441 0.126266 139.939 -1 138.584 -1V3ZM136.664 1.24C136.664 1.22834 136.664 1.1866 136.671 1.12414C136.677 1.06872 136.694 0.944777 136.747 0.787549C136.794 0.645648 136.914 0.341493 137.205 0.0507917C137.545 -0.289032 138.032 -0.520001 138.584 -0.520001V3.48C139.939 3.48 140.441 2.35373 140.541 2.05245C140.659 1.69978 140.664 1.37837 140.664 1.24H136.664ZM138.584 -0.520001C136.885 -0.520001 135.436 0.207335 134.44 1.59273L137.688 3.92727C137.919 3.606 138.15 3.48 138.584 3.48V-0.520001ZM134.458 1.56831C133.509 2.84748 133.144 4.43461 133.144 6.12H137.144C137.144 4.97872 137.393 4.32585 137.67 3.95169L134.458 1.56831ZM133.144 6.12V26.6H137.144V6.12H133.144ZM133.144 26.6C133.144 26.3328 133.202 26.0417 133.343 25.7606C133.481 25.4833 133.668 25.2795 133.845 25.1383C134.166 24.8808 134.471 24.8149 134.552 24.7988L135.336 28.7212C135.55 28.6784 135.955 28.5725 136.343 28.2617C136.815 27.8849 137.144 27.293 137.144 26.6H133.144ZM134.459 24.8197C134.583 24.7888 134.824 24.7458 135.133 24.7972C135.471 24.8536 135.828 25.0151 136.118 25.3058L133.29 28.1342C134.046 28.8904 134.982 28.8122 135.429 28.7003L134.459 24.8197ZM136.207 25.4002L117.447 4.0402L114.441 6.67979L133.201 28.0398L136.207 25.4002ZM113.944 5.36V20.92H117.944V5.36H113.944ZM113.944 20.92C113.944 22.5893 114.288 24.1628 115.193 25.4375L118.455 23.1225C118.186 22.7439 117.944 22.0774 117.944 20.92H113.944ZM115.193 25.4375C116.166 26.8088 117.596 27.52 119.264 27.52V23.52C118.852 23.52 118.655 23.4046 118.455 23.1225L115.193 25.4375ZM119.264 27.52C118.712 27.52 118.225 27.289 117.885 26.9492C117.594 26.6585 117.474 26.3544 117.427 26.2125C117.374 26.0552 117.357 25.9313 117.351 25.8759C117.344 25.8134 117.344 25.7717 117.344 25.76H121.344C121.344 25.6216 121.339 25.3002 121.221 24.9475C121.121 24.6462 120.619 23.52 119.264 23.52V27.52ZM117.344 25.76C117.344 25.7483 117.344 25.7066 117.351 25.6441C117.357 25.5887 117.374 25.4648 117.427 25.3075C117.474 25.1656 117.594 24.8615 117.885 24.5708C118.225 24.231 118.712 24 119.264 24V28C120.619 28 121.121 26.8738 121.221 26.5725C121.339 26.2198 121.344 25.8984 121.344 25.76H117.344ZM119.264 24C118.531 24 118.01 23.9866 117.677 23.9644L117.411 27.9556C117.878 27.9867 118.504 28 119.264 28V24ZM117.581 23.9603L115.421 23.9203L115.347 27.9197L117.507 27.9597L117.581 23.9603ZM115.352 23.9203L112.872 23.9603L112.936 27.9597L115.416 27.9197L115.352 23.9203ZM112.787 23.9635C112.393 23.9866 111.786 24 110.944 24V28C111.809 28 112.509 27.9867 113.022 27.9566L112.787 23.9635ZM110.944 24C111.274 24 111.652 24.0882 112.001 24.3209C112.337 24.5452 112.534 24.8283 112.643 25.0456C112.832 25.4235 112.824 25.7379 112.824 25.76H108.824C108.824 25.9422 108.836 26.3765 109.065 26.8344C109.194 27.0917 109.416 27.4048 109.782 27.6491C110.161 27.9018 110.574 28 110.944 28V24ZM112.824 25.76C112.824 25.7822 112.832 26.0965 112.643 26.4744C112.534 26.6917 112.337 26.9748 112.001 27.1991C111.652 27.4318 111.274 27.52 110.944 27.52V23.52C110.574 23.52 110.161 23.6182 109.782 23.8709C109.416 24.1152 109.194 24.4283 109.065 24.6856C108.836 25.1435 108.824 25.5779 108.824 25.76H112.824ZM110.944 27.52C112.65 27.52 114.171 26.8864 115.261 25.5355L112.147 23.0245C111.903 23.3269 111.585 23.52 110.944 23.52V27.52ZM115.236 25.5652C116.315 24.2795 116.744 22.6557 116.744 20.92H112.744C112.744 22.0109 112.48 22.6272 112.172 22.9948L115.236 25.5652ZM116.744 20.92V4H112.744V20.92H116.744ZM116.218 2.64855C115.287 1.63268 114.349 0.786307 113.417 0.281415L111.511 3.79858C111.859 3.98702 112.441 4.44732 113.27 5.35145L116.218 2.64855ZM113.504 0.331601C112.602 -0.217202 111.606 -0.520001 110.544 -0.520001V3.48C110.816 3.48 111.099 3.55053 111.424 3.7484L113.504 0.331601ZM110.544 -0.520001C111.096 -0.520001 111.583 -0.289039 111.923 0.0507832C112.214 0.341482 112.334 0.645638 112.381 0.787541C112.434 0.944771 112.451 1.06871 112.457 1.12414C112.464 1.1866 112.464 1.22834 112.464 1.24H108.464C108.464 1.37837 108.469 1.69978 108.587 2.05246C108.687 2.35375 109.189 3.48 110.544 3.48V-0.520001ZM112.464 1.24C112.464 1.25166 112.464 1.2934 112.457 1.35586C112.451 1.41129 112.434 1.53523 112.381 1.69246C112.334 1.83436 112.214 2.13852 111.923 2.42922C111.583 2.76904 111.096 3 110.544 3V-1C109.189 -1 108.687 0.126244 108.587 0.427543C108.469 0.780216 108.464 1.10163 108.464 1.24H112.464ZM110.496 2.99943L112.176 3.03943L112.272 -0.959434L110.592 -0.999434L110.496 2.99943ZM112.071 3.03411C112.495 3.06678 113.063 3.08 113.744 3.08V-0.920001C113.091 -0.920001 112.646 -0.933452 112.377 -0.954109L112.071 3.03411ZM113.77 3.07983L116.81 3.03983L116.758 -0.959827L113.718 -0.919827L113.77 3.07983ZM116.927 3.03492C117.237 3.01272 117.64 3 118.144 3V-1C117.581 -1 117.078 -0.986055 116.642 -0.954918L116.927 3.03492ZM118.144 3C118.049 3 117.611 2.97491 117.21 2.57422L120.038 -0.254224C119.424 -0.868244 118.666 -1 118.144 -1V3ZM117.21 2.57421C117.193 2.55749 117.217 2.58065 117.3 2.68141C117.374 2.77158 117.473 2.89606 117.599 3.05942L120.769 0.620579C120.514 0.288626 120.251 -0.0411873 120.038 -0.254215L117.21 2.57421ZM117.576 3.02878C118.025 3.6365 118.391 4.11316 118.639 4.39701L121.649 1.76299C121.524 1.62017 121.25 1.27016 120.792 0.651216L117.576 3.02878ZM118.633 4.39029L132.473 20.3503L135.495 17.7297L121.655 1.76971L118.633 4.39029ZM135.984 19.04V6.12H131.984V19.04H135.984ZM135.984 6.12C135.984 4.43346 135.644 2.84268 134.735 1.5625L131.473 3.87749C131.738 4.25065 131.984 4.92654 131.984 6.12H135.984ZM134.735 1.5625C133.762 0.191243 132.332 -0.520001 130.664 -0.520001V3.48C131.076 3.48 131.273 3.59542 131.473 3.87749L134.735 1.5625ZM130.664 -0.520001C131.216 -0.520001 131.703 -0.289047 132.043 0.0507708C132.334 0.341469 132.454 0.645625 132.501 0.787532C132.554 0.944764 132.571 1.06871 132.577 1.12413C132.584 1.18659 132.584 1.22834 132.584 1.24H128.584C128.584 1.37837 128.589 1.69979 128.707 2.05247C128.807 2.35378 129.309 3.48 130.664 3.48V-0.520001ZM132.584 1.24C132.584 1.25166 132.584 1.2934 132.577 1.35587C132.571 1.41129 132.554 1.53523 132.501 1.69247C132.454 1.83437 132.334 2.13853 132.043 2.42923C131.703 2.76905 131.216 3 130.664 3V-1C129.309 -1 128.807 0.126215 128.707 0.427533C128.589 0.780211 128.584 1.10163 128.584 1.24H132.584ZM130.618 2.99946L132.338 3.03946L132.431 -0.95946L130.711 -0.999459L130.618 2.99946ZM132.259 3.03611C133.137 3.09098 133.902 3.12 134.544 3.12V-0.880001C134.013 -0.880001 133.338 -0.904312 132.509 -0.956106L132.259 3.03611ZM134.544 3.12C135.133 3.12 135.922 3.09096 136.895 3.03692L136.673 -0.956922C135.726 -0.904296 135.022 -0.880001 134.544 -0.880001V3.12ZM136.828 3.03951L138.628 2.99951L138.54 -0.999506L136.74 -0.959507L136.828 3.03951ZM159.958 0.879999L159.629 2.85279L159.652 2.85661L159.675 2.8599L159.958 0.879999ZM163.078 1.64L162.313 3.48803L162.379 3.51503L162.446 3.53736L163.078 1.64ZM163.518 1.96L161.661 2.70277L161.759 2.94838L161.918 3.16L163.518 1.96ZM163.678 2.56L161.686 2.74107L161.687 2.74624L163.678 2.56ZM164.198 8.12H166.198V8.02668L166.189 7.93376L164.198 8.12ZM163.998 8.28L164.39 10.2412L164.39 10.2412L163.998 8.28ZM163.718 8.16L161.825 8.80629L161.869 8.93386L161.929 9.05442L163.718 8.16ZM160.518 3.16L159.226 4.68677L159.235 4.69408L159.244 4.70129L160.518 3.16ZM150.638 2.88L151.762 4.53445L151.769 4.52986L150.638 2.88ZM147.278 7.04L145.458 6.21038L145.453 6.22152L145.448 6.23272L147.278 7.04ZM147.318 19.88L145.489 20.6899L145.496 20.7057L145.504 20.7214L147.318 19.88ZM150.798 24.16L149.661 25.8055L149.678 25.8172L149.696 25.8287L150.798 24.16ZM160.558 24.16L161.795 25.7315L161.805 25.7234L161.816 25.7153L160.558 24.16ZM164.118 19.2L165.915 20.0777L165.974 19.9584L166.016 19.8324L164.118 19.2ZM164.558 19.28L166.544 19.5202L166.558 19.4005V19.28H164.558ZM163.958 24.24L165.931 24.5688L165.938 24.5246L165.944 24.4802L163.958 24.24ZM163.798 24.88L165.462 25.9894L165.531 25.8858L165.587 25.7744L163.798 24.88ZM163.358 25.16L164.033 27.0426L164.103 27.0176L164.17 26.9876L163.358 25.16ZM148.238 24.88L147.361 26.6773L147.374 26.6836L147.387 26.6896L148.238 24.88ZM142.958 20.32L141.287 21.4188L142.958 20.32ZM142.998 6.92L141.334 5.81059L141.331 5.8158L142.998 6.92ZM148.438 2.24L147.569 0.438876L147.56 0.442863L148.438 2.24ZM156.158 2.56C157.297 2.56 158.454 2.65693 159.629 2.85279L160.287 -1.09279C158.902 -1.3236 157.525 -1.44 156.158 -1.44V2.56ZM159.675 2.8599C160.9 3.03483 161.757 3.25767 162.313 3.48803L163.843 -0.208035C162.853 -0.617673 161.63 -0.901501 160.241 -1.0999L159.675 2.8599ZM162.446 3.53736C162.442 3.53607 162.335 3.50192 162.192 3.39747C162.04 3.287 161.807 3.06723 161.661 2.70277L165.375 1.21723C164.984 0.23893 164.106 -0.125471 163.711 -0.257366L162.446 3.53736ZM161.918 3.16C161.825 3.03529 161.769 2.92511 161.739 2.85495C161.708 2.78333 161.692 2.73002 161.686 2.70533C161.674 2.6607 161.679 2.66421 161.686 2.74107L165.67 2.37893C165.641 2.06468 165.564 1.3548 165.118 0.759995L161.918 3.16ZM161.687 2.74624L162.207 8.30624L166.189 7.93376L165.669 2.37376L161.687 2.74624ZM162.198 8.12C162.198 7.85278 162.256 7.56171 162.397 7.28057C162.535 7.00327 162.722 6.79947 162.899 6.65826C163.221 6.40085 163.526 6.33491 163.606 6.31884L164.39 10.2412C164.604 10.1984 165.009 10.0925 165.398 9.78173C165.869 9.40486 166.198 8.81303 166.198 8.12H162.198ZM163.606 6.31884C163.804 6.27924 164.184 6.24645 164.616 6.43171C165.078 6.62959 165.361 6.97341 165.507 7.26558L161.929 9.05442C162.129 9.45325 162.485 9.87041 163.04 10.1083C163.566 10.3336 164.059 10.3074 164.39 10.2412L163.606 6.31884ZM165.611 7.51371C164.778 5.07519 163.534 3.05905 161.793 1.61871L159.244 4.70129C160.275 5.55428 161.165 6.87148 161.825 8.80629L165.611 7.51371ZM161.81 1.63323C160.035 0.131491 157.901 -0.6 155.518 -0.6V3.4C157.028 3.4 158.228 3.84184 159.226 4.68677L161.81 1.63323ZM155.518 -0.6C153.318 -0.6 151.294 0.00617599 149.508 1.23013L151.769 4.52986C152.862 3.78049 154.092 3.4 155.518 3.4V-0.6ZM149.514 1.22557C147.75 2.42372 146.411 4.11983 145.458 6.21038L149.098 7.86962C149.798 6.3335 150.699 5.25627 151.762 4.53443L149.514 1.22557ZM145.448 6.23272C144.514 8.35073 144.078 10.7562 144.078 13.4H148.078C148.078 11.1905 148.442 9.35594 149.108 7.84728L145.448 6.23272ZM144.078 13.4C144.078 16.077 144.529 18.5221 145.489 20.6899L149.147 19.0701C148.454 17.5046 148.078 15.6296 148.078 13.4H144.078ZM145.504 20.7214C146.486 22.8397 147.862 24.5627 149.661 25.8055L151.935 22.5145C150.8 21.7307 149.857 20.6003 149.133 19.0385L145.504 20.7214ZM149.696 25.8287C151.54 27.0473 153.636 27.64 155.918 27.64V23.64C154.36 23.64 153.043 23.246 151.901 22.4913L149.696 25.8287ZM155.918 27.64C158.135 27.64 160.137 27.0373 161.795 25.7315L159.321 22.5885C158.473 23.256 157.382 23.64 155.918 23.64V27.64ZM161.816 25.7153C163.39 24.442 164.734 22.4969 165.915 20.0777L162.321 18.3223C161.262 20.4898 160.232 21.8514 159.301 22.6047L161.816 25.7153ZM166.016 19.8324C165.936 20.0719 165.793 20.3332 165.562 20.5642C165.331 20.7952 165.07 20.9376 164.831 21.0174C164.397 21.162 164.053 21.0985 163.966 21.0812L164.75 17.1588C164.53 17.1148 164.079 17.0514 163.566 17.2226C162.928 17.435 162.433 17.9303 162.221 18.5676L166.016 19.8324ZM163.966 21.0812C163.886 21.0651 163.581 20.9992 163.259 20.7417C163.082 20.6005 162.895 20.3967 162.757 20.1194C162.616 19.8383 162.558 19.5472 162.558 19.28H166.558C166.558 18.587 166.229 17.9951 165.758 17.6183C165.369 17.3075 164.964 17.2016 164.75 17.1588L163.966 21.0812ZM162.573 19.0398L161.973 23.9998L165.944 24.4802L166.544 19.5202L162.573 19.0398ZM161.985 23.9112C161.975 23.9739 161.965 24.0257 161.957 24.0678C161.948 24.1103 161.942 24.1385 161.938 24.1549C161.933 24.1726 161.934 24.1681 161.941 24.1475C161.944 24.1366 161.951 24.1175 161.961 24.0922C161.971 24.0674 161.987 24.0306 162.009 23.9856L165.587 25.7744C165.794 25.3608 165.883 24.8583 165.931 24.5688L161.985 23.9112ZM162.134 23.7706C162.25 23.5972 162.367 23.4863 162.431 23.4311C162.499 23.3721 162.552 23.3368 162.574 23.3227C162.615 23.2967 162.616 23.3012 162.546 23.3324L164.17 26.9876C164.34 26.9122 164.534 26.8167 164.722 26.6973C164.871 26.6027 165.203 26.3788 165.462 25.9894L162.134 23.7706ZM162.683 23.2774C160.437 24.0829 158.186 24.48 155.918 24.48V28.48C158.664 28.48 161.372 27.9971 164.033 27.0426L162.683 23.2774ZM155.918 24.48C153.318 24.48 151.055 23.9953 149.09 23.0704L147.387 26.6896C149.954 27.898 152.811 28.48 155.918 28.48V24.48ZM149.115 23.0827C147.174 22.1353 145.698 20.847 144.629 19.2212L141.287 21.4188C142.778 23.6863 144.822 25.438 147.361 26.6773L149.115 23.0827ZM144.629 19.2212C143.578 17.6222 143.038 15.7959 143.038 13.68H139.038C139.038 16.5241 139.778 19.1244 141.287 21.4188L144.629 19.2212ZM143.038 13.68C143.038 11.5104 143.591 9.64672 144.666 8.02419L141.331 5.8158C139.792 8.13994 139.038 10.7829 139.038 13.68H143.038ZM144.662 8.0294C145.787 6.34263 147.32 5.01159 149.316 4.03713L147.56 0.442863C144.969 1.70841 142.876 3.49737 141.334 5.8106L144.662 8.0294ZM149.308 4.0411C151.331 3.06433 153.603 2.56 156.158 2.56V-1.44C153.06 -1.44 150.185 -0.82433 147.569 0.438895L149.308 4.0411ZM186.145 19.64L188.045 20.2639L188.145 19.96V19.64H186.145ZM186.505 19.64L185.09 21.0542L185.424 21.3881L185.872 21.5374L186.505 19.64ZM186.625 19.72L188.608 19.9743L188.625 19.8477V19.72H186.625ZM186.105 25.88L187.519 27.2942L187.619 27.1937L187.705 27.08L186.105 25.88ZM169.785 25.32L169.152 23.4226L169.132 23.4294L169.112 23.4365L169.785 25.32ZM170.585 24.56L172.468 25.2327L172.475 25.2126L172.482 25.1925L170.585 24.56ZM170.585 2.48L168.701 3.15267V3.15267L170.585 2.48ZM169.785 1.72L169.042 3.57695L169.096 3.59878L169.152 3.61736L169.785 1.72ZM185.305 1.36H183.305V1.37503L183.305 1.39007L185.305 1.36ZM185.385 6.68H187.385V6.66496L187.384 6.64993L185.385 6.68ZM185.145 6.8L184.816 4.82721L184.784 4.83251L184.752 4.83884L185.145 6.8ZM184.905 6.72L182.977 7.25186L182.991 7.30256L183.007 7.35245L184.905 6.72ZM182.745 3.28L181.558 4.89011L182.745 3.28ZM175.785 2.68L177.146 4.14559V4.14559L175.785 2.68ZM175.225 12.44H173.225V14.44H175.225V12.44ZM182.105 11.64L181.02 9.9594V9.95941L182.105 11.64ZM183.785 9.4L185.785 9.42222L185.785 9.41111V9.4H183.785ZM183.745 13L181.745 12.9778L181.744 13.0097L181.745 13.0417L183.745 13ZM183.785 14.92L181.785 14.9617L181.786 14.9996L181.788 15.0374L183.785 14.92ZM182.105 14.52L180.88 16.1014L180.908 16.1232L180.937 16.144L182.105 14.52ZM175.225 13.56V11.56H173.225V13.56H175.225ZM175.665 24.32L177.237 23.0844V23.0844L175.665 24.32ZM183.385 23.6L182.259 21.9468L183.385 23.6ZM188.145 19.64C188.145 19.9766 188.055 20.3604 187.819 20.7144C187.591 21.0559 187.303 21.2569 187.079 21.3689C186.688 21.5645 186.354 21.56 186.305 21.56V17.56C186.149 17.56 185.735 17.5688 185.29 17.7911C185.04 17.9164 184.732 18.1341 184.491 18.4956C184.241 18.8696 184.145 19.2767 184.145 19.64H188.145ZM186.305 21.56C186.119 21.56 185.9 21.5283 185.672 21.437C185.441 21.3447 185.245 21.2092 185.09 21.0542L187.919 18.2258C187.466 17.7729 186.879 17.56 186.305 17.56V21.56ZM185.872 21.5374C185.85 21.5299 185.684 21.4766 185.485 21.3441C185.383 21.2757 185.194 21.1358 185.017 20.9C184.828 20.6483 184.625 20.2443 184.625 19.72H188.625C188.625 18.6449 187.845 18.1098 187.704 18.0159C187.465 17.8568 187.239 17.7767 187.137 17.7426L185.872 21.5374ZM184.641 19.4657C184.366 21.6118 184.225 23.5917 184.225 25.4H188.225C188.225 23.795 188.35 21.9882 188.608 19.9743L184.641 19.4657ZM184.225 25.4C184.225 25.3882 184.225 25.312 184.254 25.1949C184.284 25.0758 184.352 24.884 184.505 24.68L187.705 27.08C188.159 26.4745 188.225 25.8056 188.225 25.4H184.225ZM184.69 24.4658C184.998 24.158 185.319 24.0598 185.44 24.0297C185.572 23.9966 185.648 24 185.625 24V28C185.841 28 186.117 27.9834 186.41 27.9103C186.69 27.8402 187.131 27.682 187.519 27.2942L184.69 24.4658ZM185.625 24H167.945V28H185.625V24ZM167.945 24C168.275 24 168.653 24.0882 169.002 24.3209C169.338 24.5452 169.535 24.8283 169.644 25.0456C169.833 25.4235 169.825 25.7379 169.825 25.76H165.825C165.825 25.9422 165.837 26.3765 166.066 26.8344C166.194 27.0917 166.416 27.4048 166.783 27.6491C167.162 27.9018 167.575 28 167.945 28V24ZM169.825 25.76C169.825 25.7822 169.833 26.0965 169.644 26.4744C169.535 26.6917 169.338 26.9748 169.002 27.1991C168.653 27.4318 168.275 27.52 167.945 27.52V23.52C167.575 23.52 167.162 23.6182 166.783 23.8709C166.416 24.1152 166.194 24.4283 166.066 24.6856C165.837 25.1435 165.825 25.5779 165.825 25.76H169.825ZM167.945 27.52C168.825 27.52 169.736 27.4609 170.457 27.2035L169.112 23.4365C169.131 23.4298 169.055 23.4571 168.829 23.4817C168.615 23.5049 168.324 23.52 167.945 23.52V27.52ZM170.417 27.2174C171.357 26.904 172.113 26.226 172.468 25.2327L168.701 23.8873C168.732 23.8023 168.796 23.6857 168.907 23.58C169.015 23.4772 169.115 23.4351 169.152 23.4226L170.417 27.2174ZM172.482 25.1925C172.72 24.4798 172.785 23.6184 172.785 22.76H168.785C168.785 23.5016 168.716 23.8402 168.687 23.9275L172.482 25.1925ZM172.785 22.76V4.24H168.785V22.76H172.785ZM172.785 4.24C172.785 3.39521 172.723 2.52016 172.468 1.80733L168.701 3.15267C168.698 3.14314 168.724 3.21846 168.747 3.42582C168.77 3.62324 168.785 3.89094 168.785 4.24H172.785ZM172.468 1.80733C172.113 0.813993 171.357 0.136024 170.417 -0.177369L169.152 3.61736C169.115 3.60487 169.015 3.56283 168.907 3.46C168.796 3.35425 168.732 3.23771 168.701 3.15267L172.468 1.80733ZM170.527 -0.136956C169.763 -0.442886 168.836 -0.520001 167.945 -0.520001V3.48C168.298 3.48 168.568 3.49739 168.766 3.5232C168.972 3.55008 169.049 3.57962 169.042 3.57695L170.527 -0.136956ZM167.945 -0.520001C168.275 -0.520001 168.653 -0.431763 169.002 -0.199103C169.338 0.0252104 169.535 0.30831 169.644 0.52557C169.833 0.903494 169.825 1.21785 169.825 1.24H165.825C165.825 1.42215 165.837 1.8565 166.066 2.31443C166.194 2.57169 166.416 2.88479 166.783 3.1291C167.162 3.38176 167.575 3.48 167.945 3.48V-0.520001ZM169.825 1.24C169.825 1.26215 169.833 1.5765 169.644 1.95443C169.535 2.17169 169.338 2.45479 169.002 2.6791C168.653 2.91176 168.275 3 167.945 3V-1C167.575 -1 167.162 -0.901761 166.783 -0.649102C166.416 -0.404789 166.194 -0.0916891 166.066 0.165571C165.837 0.623495 165.825 1.05785 165.825 1.24H169.825ZM167.945 3H184.905V-1H167.945V3ZM184.905 3C184.779 3 184.311 2.97621 183.867 2.57659C183.383 2.14091 183.305 1.60591 183.305 1.36H187.305C187.305 0.874091 187.16 0.159085 186.543 -0.396592C185.965 -0.916212 185.297 -1 184.905 -1V3ZM183.305 1.39007L183.385 6.71007L187.384 6.64993L187.304 1.32993L183.305 1.39007ZM183.385 6.68C183.385 5.52584 184.28 5.0362 184.43 4.96114C184.56 4.89621 184.665 4.86424 184.714 4.85046C184.769 4.83527 184.806 4.82889 184.816 4.82721L185.473 8.77279C185.618 8.74872 185.911 8.69283 186.219 8.53885C186.449 8.4238 187.385 7.88749 187.385 6.68H183.385ZM184.752 4.83884C184.839 4.82147 185.183 4.75804 185.617 4.90263C185.857 4.98244 186.118 5.12479 186.349 5.35579C186.58 5.58678 186.722 5.84814 186.802 6.08755L183.007 7.35245C183.22 7.98966 183.715 8.48496 184.352 8.69736C184.866 8.86863 185.317 8.80519 185.537 8.76116L184.752 4.83884ZM186.833 6.18814C186.32 4.32955 185.395 2.74834 183.931 1.66989L181.558 4.89011C182.121 5.30499 182.636 6.01712 182.977 7.25186L186.833 6.18814ZM183.931 1.66989C182.48 0.600895 180.692 0.16 178.745 0.16V4.16C180.104 4.16 180.982 4.46577 181.558 4.89011L183.931 1.66989ZM178.745 0.16H177.545V4.16H178.745V0.16ZM177.545 0.16C176.516 0.16 175.329 0.373768 174.424 1.21441L177.146 4.14559C177.065 4.22043 177.015 4.22458 177.071 4.20803C177.134 4.18947 177.281 4.16 177.545 4.16V0.16ZM174.424 1.21441C173.498 2.0743 173.225 3.23902 173.225 4.28H177.225C177.225 4.08622 177.251 4.00587 177.252 4.0007C177.253 4.00033 177.246 4.01895 177.227 4.04875C177.208 4.07933 177.18 4.11337 177.146 4.14559L174.424 1.21441ZM173.225 4.28V12.44H177.225V4.28H173.225ZM175.225 14.44H178.545V10.44H175.225V14.44ZM178.545 14.44C180.274 14.44 181.903 14.15 183.189 13.3206L181.02 9.95941C180.653 10.1966 179.909 10.44 178.545 10.44V14.44ZM183.189 13.3206C184.569 12.43 185.345 11.0595 185.345 9.4H181.345C181.345 9.66051 181.293 9.78334 181.02 9.9594L183.189 13.3206ZM185.345 9.4C185.345 9.66325 185.288 9.9908 185.105 10.3188C184.922 10.6494 184.667 10.8789 184.424 11.025C183.996 11.2814 183.613 11.28 183.545 11.28V7.28C183.343 7.28 182.86 7.29856 182.366 7.59501C181.709 7.98912 181.345 8.68244 181.345 9.4H185.345ZM183.545 11.28C183.523 11.28 183.208 11.2878 182.83 11.0989C182.613 10.9902 182.33 10.7934 182.106 10.4569C181.873 10.1079 181.785 9.72997 181.785 9.4H185.785C185.785 9.03003 185.686 8.61709 185.434 8.2381C185.189 7.87163 184.876 7.64977 184.619 7.52114C184.161 7.29218 183.727 7.28 183.545 7.28V11.28ZM181.785 9.37778L181.745 12.9778L185.745 13.0222L185.785 9.42222L181.785 9.37778ZM181.745 13.0417L181.785 14.9617L185.784 14.8783L185.744 12.9583L181.745 13.0417ZM181.788 15.0374C181.841 15.928 181.865 16.6036 181.865 17.08H185.865C185.865 16.4898 185.836 15.7253 185.781 14.8026L181.788 15.0374ZM181.865 17.08C181.865 16.5282 182.096 16.0406 182.435 15.7008C182.726 15.4101 183.03 15.2899 183.172 15.2426C183.329 15.1902 183.453 15.1734 183.509 15.1672C183.571 15.1603 183.613 15.16 183.625 15.16V19.16C183.763 19.16 184.084 19.1549 184.437 19.0374C184.738 18.9369 185.865 18.4352 185.865 17.08H181.865ZM183.625 15.16C183.636 15.16 183.678 15.1603 183.741 15.1672C183.796 15.1734 183.92 15.1902 184.077 15.2426C184.219 15.2899 184.523 15.4101 184.814 15.7008C185.154 16.0406 185.385 16.5282 185.385 17.08H181.385C181.385 18.4352 182.511 18.9369 182.812 19.0374C183.165 19.1549 183.486 19.16 183.625 19.16V15.16ZM185.385 17.08C185.385 15.3736 184.673 13.9026 183.272 12.896L180.937 16.144C181.243 16.364 181.385 16.5998 181.385 17.08H185.385ZM183.329 12.9386C182.014 11.9206 180.308 11.56 178.505 11.56V15.56C179.848 15.56 180.542 15.8394 180.88 16.1014L183.329 12.9386ZM178.505 11.56H175.225V15.56H178.505V11.56ZM173.225 13.56V22.6H177.225V13.56H173.225ZM173.225 22.6C173.225 23.561 173.395 24.6688 174.092 25.5556L177.237 23.0844C177.299 23.1631 177.293 23.196 177.272 23.1143C177.251 23.0303 177.225 22.8675 177.225 22.6H173.225ZM174.092 25.5556C174.886 26.5667 176.04 26.88 177.065 26.88V22.88C176.932 22.88 176.92 22.8599 176.977 22.883C177.008 22.8954 177.053 22.9178 177.104 22.9549C177.154 22.9924 177.2 23.0369 177.237 23.0844L174.092 25.5556ZM177.065 26.88H178.385V22.88H177.065V26.88ZM178.385 26.88C180.721 26.88 182.822 26.4023 184.51 25.2532L182.259 21.9468C181.44 22.5043 180.208 22.88 178.385 22.88V26.88ZM184.51 25.2532C186.209 24.0969 187.354 22.3669 188.045 20.2639L184.245 19.0161C183.762 20.4864 183.067 21.3964 182.259 21.9468L184.51 25.2532Z" fill="#22262A"/>
<defs>
<linearGradient id="paint0_linear_239:766" x1="-1" y1="0.0526308" x2="310.081" y2="31.1648" gradientUnits="userSpaceOnUse">
<stop offset="0.267495" stop-color="#FFC6CE"/>
<stop offset="1" stop-color="#64D6EE"/>
</linearGradient>
</defs>
</svg>
