<svg width="300" height="300" viewBox="0 0 300 300" fill="none" xmlns="http://www.w3.org/2000/svg">
<rect width="300" height="300" fill="#22262A"/>
<rect width="9" height="9" transform="matrix(0.707107 -0.707107 -0.707107 -0.707107 36.364 240)" fill="url(#paint0_linear_258:1692)"/>
<line y1="-0.5" x2="197.272" y2="-0.5" transform="matrix(-4.37114e-08 -1 -1 4.37114e-08 36.364 227.272)" stroke="white" stroke-dasharray="6 6"/>
<path d="M65.428 185.12V162.95H73.348C75.328 162.95 77.048 163.25 78.508 163.85C79.988 164.43 81.218 165.23 82.198 166.25C83.198 167.25 83.938 168.39 84.418 169.67C84.918 170.95 85.168 172.28 85.168 173.66V174.32C85.168 175.64 84.918 176.94 84.418 178.22C83.938 179.5 83.198 180.66 82.198 181.7C81.218 182.74 79.988 183.57 78.508 184.19C77.048 184.81 75.328 185.12 73.348 185.12H65.428ZM73.618 166.91H69.688V181.16H73.618C75.118 181.16 76.408 180.86 77.488 180.26C78.568 179.64 79.398 178.79 79.978 177.71C80.558 176.63 80.848 175.39 80.848 173.99C80.848 171.81 80.208 170.09 78.928 168.83C77.648 167.55 75.878 166.91 73.618 166.91ZM95.9427 185.57C94.5427 185.57 93.3127 185.33 92.2527 184.85C91.2127 184.37 90.3427 183.73 89.6427 182.93C88.9627 182.11 88.4427 181.2 88.0827 180.2C87.7427 179.2 87.5727 178.18 87.5727 177.14V176.57C87.5727 175.49 87.7427 174.45 88.0827 173.45C88.4427 172.45 88.9627 171.55 89.6427 170.75C90.3427 169.95 91.2027 169.32 92.2227 168.86C93.2427 168.38 94.4227 168.14 95.7627 168.14C97.5227 168.14 98.9927 168.53 100.173 169.31C101.353 170.07 102.243 171.08 102.843 172.34C103.463 173.58 103.773 174.92 103.773 176.36V177.86H91.5327C91.6727 179.14 92.0927 180.17 92.7927 180.95C93.5127 181.73 94.5627 182.12 95.9427 182.12C96.9427 182.12 97.7627 181.92 98.4027 181.52C99.0627 181.1 99.4827 180.59 99.6627 179.99H103.503C103.143 181.67 102.293 183.02 100.953 184.04C99.6127 185.06 97.9427 185.57 95.9427 185.57ZM95.7627 171.59C94.5827 171.59 93.6427 171.92 92.9427 172.58C92.2427 173.24 91.7927 174.15 91.5927 175.31H99.7827C99.6227 174.15 99.2027 173.24 98.5227 172.58C97.8627 171.92 96.9427 171.59 95.7627 171.59ZM110.38 185L105.28 168.71H109.57L113.41 181.58H114.13L117.46 168.71H121.48L117.07 185H110.38ZM130.393 185.51C128.153 185.51 126.393 185.04 125.113 184.1C123.853 183.14 123.193 181.82 123.133 180.14H126.883C126.923 180.72 127.223 181.24 127.783 181.7C128.363 182.14 129.253 182.36 130.453 182.36C131.433 182.36 132.223 182.18 132.823 181.82C133.423 181.46 133.723 180.97 133.723 180.35C133.723 179.81 133.493 179.39 133.033 179.09C132.593 178.77 131.833 178.55 130.753 178.43L129.313 178.28C127.473 178.08 126.063 177.56 125.083 176.72C124.123 175.88 123.643 174.76 123.643 173.36C123.643 172.26 123.923 171.33 124.483 170.57C125.043 169.79 125.813 169.21 126.793 168.83C127.793 168.43 128.933 168.23 130.213 168.23C132.213 168.23 133.833 168.68 135.073 169.58C136.313 170.46 136.963 171.74 137.023 173.42H133.273C133.213 172.86 132.923 172.38 132.403 171.98C131.903 171.58 131.163 171.38 130.183 171.38C129.303 171.38 128.623 171.55 128.143 171.89C127.663 172.23 127.423 172.67 127.423 173.21C127.423 173.73 127.613 174.13 127.993 174.41C128.373 174.69 129.013 174.88 129.913 174.98L131.353 175.13C133.253 175.33 134.753 175.86 135.853 176.72C136.953 177.58 137.503 178.74 137.503 180.2C137.503 181.28 137.203 182.22 136.603 183.02C136.023 183.8 135.203 184.41 134.143 184.85C133.083 185.29 131.833 185.51 130.393 185.51ZM156.992 185.54C155.512 185.54 154.222 185.19 153.122 184.49C152.042 183.79 151.242 182.79 150.722 181.49V185H147.422V163.1H151.592V171.35C152.192 170.31 152.972 169.53 153.932 169.01C154.912 168.47 156.022 168.2 157.262 168.2C158.762 168.2 160.072 168.57 161.192 169.31C162.312 170.03 163.182 171.02 163.802 172.28C164.422 173.52 164.732 174.92 164.732 176.48V177.11C164.732 178.69 164.412 180.12 163.772 181.4C163.132 182.66 162.232 183.67 161.072 184.43C159.932 185.17 158.572 185.54 156.992 185.54ZM156.062 182.03C157.402 182.03 158.482 181.55 159.302 180.59C160.142 179.61 160.562 178.35 160.562 176.81C160.562 175.27 160.142 174.04 159.302 173.12C158.482 172.18 157.402 171.71 156.062 171.71C155.242 171.71 154.482 171.9 153.782 172.28C153.082 172.64 152.522 173.17 152.102 173.87C151.682 174.55 151.472 175.38 151.472 176.36V177.56C151.472 178.5 151.692 179.31 152.132 179.99C152.572 180.65 153.142 181.16 153.842 181.52C154.542 181.86 155.282 182.03 156.062 182.03ZM175.689 185.57C174.289 185.57 173.059 185.33 171.999 184.85C170.959 184.37 170.089 183.73 169.389 182.93C168.709 182.11 168.189 181.2 167.829 180.2C167.489 179.2 167.319 178.18 167.319 177.14V176.57C167.319 175.49 167.489 174.45 167.829 173.45C168.189 172.45 168.709 171.55 169.389 170.75C170.089 169.95 170.949 169.32 171.969 168.86C172.989 168.38 174.169 168.14 175.509 168.14C177.269 168.14 178.739 168.53 179.919 169.31C181.099 170.07 181.989 171.08 182.589 172.34C183.209 173.58 183.519 174.92 183.519 176.36V177.86H171.279C171.419 179.14 171.839 180.17 172.539 180.95C173.259 181.73 174.309 182.12 175.689 182.12C176.689 182.12 177.509 181.92 178.149 181.52C178.809 181.1 179.229 180.59 179.409 179.99H183.249C182.889 181.67 182.039 183.02 180.699 184.04C179.359 185.06 177.689 185.57 175.689 185.57ZM175.509 171.59C174.329 171.59 173.389 171.92 172.689 172.58C171.989 173.24 171.539 174.15 171.339 175.31H179.529C179.369 174.15 178.949 173.24 178.269 172.58C177.609 171.92 176.689 171.59 175.509 171.59ZM193.362 191.42C191.702 191.42 190.152 191.31 188.712 191.09V187.61C189.412 187.71 190.172 187.79 190.992 187.85C191.832 187.91 192.612 187.94 193.332 187.94C195.332 187.94 196.772 187.57 197.652 186.83C198.552 186.11 199.002 184.94 199.002 183.32V181.88C198.442 182.94 197.672 183.75 196.692 184.31C195.732 184.85 194.622 185.12 193.362 185.12C191.862 185.12 190.552 184.76 189.432 184.04C188.332 183.3 187.472 182.32 186.852 181.1C186.232 179.86 185.922 178.47 185.922 176.93V176.3C185.922 174.76 186.242 173.38 186.882 172.16C187.542 170.94 188.442 169.98 189.582 169.28C190.742 168.56 192.082 168.2 193.602 168.2C195.022 168.2 196.242 168.53 197.262 169.19C198.302 169.85 199.092 170.8 199.632 172.04V168.71H202.932V183.08C202.932 186.06 202.162 188.19 200.622 189.47C199.082 190.77 196.662 191.42 193.362 191.42ZM194.562 181.55C195.362 181.55 196.092 181.37 196.752 181.01C197.412 180.65 197.942 180.13 198.342 179.45C198.742 178.77 198.942 177.95 198.942 176.99V175.94C198.942 175.02 198.732 174.24 198.312 173.6C197.912 172.96 197.372 172.48 196.692 172.16C196.032 171.82 195.322 171.65 194.562 171.65C193.242 171.65 192.162 172.11 191.322 173.03C190.502 173.93 190.092 175.13 190.092 176.63C190.092 178.15 190.502 179.35 191.322 180.23C192.162 181.11 193.242 181.55 194.562 181.55ZM209.791 166.76C208.971 166.76 208.361 166.55 207.961 166.13C207.581 165.69 207.391 165.14 207.391 164.48C207.391 163.82 207.581 163.28 207.961 162.86C208.361 162.44 208.971 162.23 209.791 162.23C210.591 162.23 211.181 162.44 211.561 162.86C211.961 163.28 212.161 163.82 212.161 164.48C212.161 165.14 211.961 165.69 211.561 166.13C211.181 166.55 210.591 166.76 209.791 166.76ZM208.261 185V171.83H205.981V168.71H212.431V185H208.261ZM217.237 185V168.71H220.537V172.73C221.237 169.71 223.097 168.2 226.117 168.2H226.297C228.237 168.2 229.707 168.83 230.707 170.09C231.707 171.35 232.207 173.21 232.207 175.67V185H228.037V175.31C228.037 174.31 227.747 173.5 227.167 172.88C226.587 172.26 225.807 171.95 224.827 171.95C223.807 171.95 222.977 172.27 222.337 172.91C221.717 173.55 221.407 174.39 221.407 175.43V185H217.237ZM67.768 223L63.328 206.71H67.378L70.708 219.58H71.338L73.768 207.25H78.568L81.358 219.58H81.988L84.958 206.71H88.738L84.808 223H78.838L76.138 211.3L73.738 223H67.768ZM99.5003 223.57C97.5803 223.57 95.9603 223.18 94.6403 222.4C93.3203 221.6 92.3103 220.56 91.6103 219.28C90.9303 218 90.5903 216.64 90.5903 215.2V214.57C90.5903 213.07 90.9403 211.68 91.6403 210.4C92.3603 209.12 93.3803 208.09 94.7003 207.31C96.0403 206.53 97.6403 206.14 99.5003 206.14C101.34 206.14 102.92 206.53 104.24 207.31C105.58 208.09 106.6 209.12 107.3 210.4C108.02 211.68 108.38 213.07 108.38 214.57V215.2C108.38 216.64 108.03 218 107.33 219.28C106.65 220.56 105.65 221.6 104.33 222.4C103.01 223.18 101.4 223.57 99.5003 223.57ZM99.5003 220C101.02 220 102.18 219.52 102.98 218.56C103.8 217.58 104.21 216.35 104.21 214.87C104.21 213.39 103.79 212.16 102.95 211.18C102.11 210.2 100.96 209.71 99.5003 209.71C98.0203 209.71 96.8603 210.2 96.0203 211.18C95.1803 212.16 94.7603 213.39 94.7603 214.87C94.7603 216.35 95.1603 217.58 95.9603 218.56C96.7803 219.52 97.9603 220 99.5003 220ZM112.032 223V206.71H115.332V212.02C115.772 208.34 117.712 206.5 121.152 206.5H121.752V210.13H120.612C119.192 210.13 118.102 210.51 117.342 211.27C116.582 212.03 116.202 213.11 116.202 214.51V223H112.032ZM124.541 223V201.1H128.711V214.57L134.981 206.71H139.331L133.781 213.64L140.651 223H135.941L130.481 215.38H128.711V223H124.541ZM157.362 223.57C155.442 223.57 153.822 223.18 152.502 222.4C151.182 221.6 150.172 220.56 149.472 219.28C148.792 218 148.452 216.64 148.452 215.2V214.57C148.452 213.07 148.802 211.68 149.502 210.4C150.222 209.12 151.242 208.09 152.562 207.31C153.902 206.53 155.502 206.14 157.362 206.14C159.202 206.14 160.782 206.53 162.102 207.31C163.442 208.09 164.462 209.12 165.162 210.4C165.882 211.68 166.242 213.07 166.242 214.57V215.2C166.242 216.64 165.892 218 165.192 219.28C164.512 220.56 163.512 221.6 162.192 222.4C160.872 223.18 159.262 223.57 157.362 223.57ZM157.362 220C158.882 220 160.042 219.52 160.842 218.56C161.662 217.58 162.072 216.35 162.072 214.87C162.072 213.39 161.652 212.16 160.812 211.18C159.972 210.2 158.822 209.71 157.362 209.71C155.882 209.71 154.722 210.2 153.882 211.18C153.042 212.16 152.622 213.39 152.622 214.87C152.622 216.35 153.022 217.58 153.822 218.56C154.642 219.52 155.822 220 157.362 220ZM169.893 223V206.71H173.193V210.73C173.893 207.71 175.753 206.2 178.773 206.2H178.953C180.893 206.2 182.363 206.83 183.363 208.09C184.363 209.35 184.863 211.21 184.863 213.67V223H180.693V213.31C180.693 212.31 180.403 211.5 179.823 210.88C179.243 210.26 178.463 209.95 177.483 209.95C176.463 209.95 175.633 210.27 174.993 210.91C174.373 211.55 174.063 212.39 174.063 213.43V223H169.893ZM202.901 223.21C201.401 223.21 200.161 223.02 199.181 222.64C198.201 222.24 197.471 221.58 196.991 220.66C196.531 219.74 196.301 218.48 196.301 216.88V209.77H193.721V206.71H196.301L196.331 202.12H200.231L200.201 206.71H205.241V209.77H200.201V217.15C200.201 217.95 200.411 218.57 200.831 219.01C201.271 219.43 201.891 219.64 202.691 219.64H205.241V223.21H202.901ZM208.741 223V201.1H212.911V209.44C213.331 208.4 213.951 207.6 214.771 207.04C215.591 206.48 216.621 206.2 217.861 206.2H218.041C219.901 206.2 221.311 206.85 222.271 208.15C223.231 209.43 223.711 211.28 223.711 213.7V223H219.541V213.31C219.541 212.27 219.241 211.45 218.641 210.85C218.061 210.25 217.291 209.95 216.331 209.95C215.291 209.95 214.461 210.29 213.841 210.97C213.221 211.63 212.911 212.5 212.911 213.58V223H208.741ZM235.484 223.57C234.084 223.57 232.854 223.33 231.794 222.85C230.754 222.37 229.884 221.73 229.184 220.93C228.504 220.11 227.984 219.2 227.624 218.2C227.284 217.2 227.114 216.18 227.114 215.14V214.57C227.114 213.49 227.284 212.45 227.624 211.45C227.984 210.45 228.504 209.55 229.184 208.75C229.884 207.95 230.744 207.32 231.764 206.86C232.784 206.38 233.964 206.14 235.304 206.14C237.064 206.14 238.534 206.53 239.714 207.31C240.894 208.07 241.784 209.08 242.384 210.34C243.004 211.58 243.314 212.92 243.314 214.36V215.86H231.074C231.214 217.14 231.634 218.17 232.334 218.95C233.054 219.73 234.104 220.12 235.484 220.12C236.484 220.12 237.304 219.92 237.944 219.52C238.604 219.1 239.024 218.59 239.204 217.99H243.044C242.684 219.67 241.834 221.02 240.494 222.04C239.154 223.06 237.484 223.57 235.484 223.57ZM235.304 209.59C234.124 209.59 233.184 209.92 232.484 210.58C231.784 211.24 231.334 212.15 231.134 213.31H239.324C239.164 212.15 238.744 211.24 238.064 210.58C237.404 209.92 236.484 209.59 235.304 209.59ZM65.098 267V244.71H68.398V248.79C68.898 247.27 69.718 246.13 70.858 245.37C71.998 244.59 73.308 244.2 74.788 244.2C76.328 244.2 77.658 244.57 78.778 245.31C79.918 246.05 80.808 247.05 81.448 248.31C82.088 249.55 82.408 250.95 82.408 252.51V253.14C82.408 254.7 82.098 256.12 81.478 257.4C80.858 258.66 79.978 259.67 78.838 260.43C77.698 261.17 76.348 261.54 74.788 261.54C73.648 261.54 72.598 261.33 71.638 260.91C70.678 260.47 69.888 259.78 69.268 258.84V267H65.098ZM73.738 258.03C75.078 258.03 76.158 257.55 76.978 256.59C77.818 255.61 78.238 254.36 78.238 252.84C78.238 251.3 77.818 250.06 76.978 249.12C76.158 248.18 75.078 247.71 73.738 247.71C72.918 247.71 72.158 247.9 71.458 248.28C70.758 248.64 70.198 249.17 69.778 249.87C69.358 250.55 69.148 251.38 69.148 252.36V253.56C69.148 254.5 69.368 255.31 69.808 255.99C70.248 256.65 70.818 257.16 71.518 257.52C72.218 257.86 72.958 258.03 73.738 258.03ZM86.2846 261V242.22H84.2446V239.1H90.4546V261H86.2846ZM99.8352 261.42C98.0352 261.42 96.5952 260.96 95.5152 260.04C94.4552 259.12 93.9252 257.83 93.9252 256.17C93.9252 254.39 94.5652 253.08 95.8452 252.24C97.1452 251.38 98.8852 250.95 101.065 250.95H104.395V250.8C104.395 248.94 103.455 248.01 101.575 248.01C101.075 248.01 100.475 248.02 99.7752 248.04C99.0752 248.06 98.3652 248.09 97.6452 248.13C96.9452 248.15 96.3152 248.18 95.7552 248.22V244.68C96.4352 244.62 97.2452 244.57 98.1852 244.53C99.1452 244.49 100.025 244.47 100.825 244.47C103.325 244.47 105.205 244.98 106.465 246C107.745 247 108.385 248.63 108.385 250.89V261H105.085V257.88C104.345 260.24 102.595 261.42 99.8352 261.42ZM101.005 258.45C101.565 258.45 102.095 258.35 102.595 258.15C103.095 257.93 103.505 257.57 103.825 257.07C104.165 256.55 104.355 255.85 104.395 254.97V253.44H101.005C100.045 253.44 99.3052 253.68 98.7852 254.16C98.2852 254.62 98.0352 255.22 98.0352 255.96C98.0352 256.72 98.2852 257.33 98.7852 257.79C99.3052 258.23 100.045 258.45 101.005 258.45ZM119.932 261.21C118.432 261.21 117.192 261.02 116.212 260.64C115.232 260.24 114.502 259.58 114.022 258.66C113.562 257.74 113.332 256.48 113.332 254.88V247.77H110.752V244.71H113.332L113.362 240.12H117.262L117.232 244.71H122.272V247.77H117.232V255.15C117.232 255.95 117.442 256.57 117.862 257.01C118.302 257.43 118.922 257.64 119.722 257.64H122.272V261.21H119.932ZM126.162 261V248.04H124.122V244.98H126.162V244.32C126.162 242.46 126.672 241.09 127.692 240.21C128.732 239.31 130.262 238.86 132.282 238.86H134.322V242.07H131.982C131.362 242.07 130.882 242.24 130.542 242.58C130.222 242.9 130.062 243.36 130.062 243.96V244.98H134.592V248.04H130.062V261H126.162ZM144.94 261.57C143.02 261.57 141.4 261.18 140.08 260.4C138.76 259.6 137.75 258.56 137.05 257.28C136.37 256 136.03 254.64 136.03 253.2V252.57C136.03 251.07 136.38 249.68 137.08 248.4C137.8 247.12 138.82 246.09 140.14 245.31C141.48 244.53 143.08 244.14 144.94 244.14C146.78 244.14 148.36 244.53 149.68 245.31C151.02 246.09 152.04 247.12 152.74 248.4C153.46 249.68 153.82 251.07 153.82 252.57V253.2C153.82 254.64 153.47 256 152.77 257.28C152.09 258.56 151.09 259.6 149.77 260.4C148.45 261.18 146.84 261.57 144.94 261.57ZM144.94 258C146.46 258 147.62 257.52 148.42 256.56C149.24 255.58 149.65 254.35 149.65 252.87C149.65 251.39 149.23 250.16 148.39 249.18C147.55 248.2 146.4 247.71 144.94 247.71C143.46 247.71 142.3 248.2 141.46 249.18C140.62 250.16 140.2 251.39 140.2 252.87C140.2 254.35 140.6 255.58 141.4 256.56C142.22 257.52 143.4 258 144.94 258ZM157.471 261V244.71H160.771V250.02C161.211 246.34 163.151 244.5 166.591 244.5H167.191V248.13H166.051C164.631 248.13 163.541 248.51 162.781 249.27C162.021 250.03 161.641 251.11 161.641 252.51V261H157.471ZM169.981 261V244.71H173.281V248.7C173.961 245.7 175.731 244.2 178.591 244.2H178.771C181.351 244.2 183.051 245.43 183.871 247.89C184.671 245.43 186.371 244.2 188.971 244.2H189.151C191.011 244.2 192.421 244.84 193.381 246.12C194.361 247.4 194.851 249.26 194.851 251.7V261H190.681V251.31C190.681 250.29 190.421 249.48 189.901 248.88C189.381 248.26 188.641 247.95 187.681 247.95C186.701 247.95 185.921 248.27 185.341 248.91C184.781 249.53 184.501 250.37 184.501 251.43V261H180.331V251.31C180.331 250.29 180.071 249.48 179.551 248.88C179.031 248.26 178.291 247.95 177.331 247.95C176.351 247.95 175.571 248.27 174.991 248.91C174.431 249.53 174.151 250.37 174.151 251.43V261H169.981Z" fill="url(#paint1_linear_258:1692)"/>
<defs>
<linearGradient id="paint0_linear_258:1692" x1="-3.12385e-08" y1="2.07237" x2="8.83467" y2="2.20491" gradientUnits="userSpaceOnUse">
<stop offset="0.267495" stop-color="#FFC6CE"/>
<stop offset="1" stop-color="#64D6EE"/>
</linearGradient>
<linearGradient id="paint1_linear_258:1692" x1="62.728" y1="182.25" x2="266.087" y2="187.797" gradientUnits="userSpaceOnUse">
<stop offset="0.267495" stop-color="#FFC6CE"/>
<stop offset="1" stop-color="#64D6EE"/>
</linearGradient>
</defs>
</svg>
