<svg width="300" height="300" viewBox="0 0 300 300" fill="none" xmlns="http://www.w3.org/2000/svg">
<rect width="300" height="300" fill="#22262A"/>
<path d="M85.1461 59L92.6161 37.1H99.5761L107.256 59H102.876L100.866 53.18H91.3261L89.4061 59H85.1461ZM92.5261 49.58H99.6361L96.6061 40.67H95.4961L92.5261 49.58ZM110.179 59V42.71H113.479V48.02C113.919 44.34 115.859 42.5 119.299 42.5H119.899V46.13H118.759C117.339 46.13 116.249 46.51 115.489 47.27C114.729 48.03 114.349 49.11 114.349 50.51V59H110.179ZM130.121 59.21C128.621 59.21 127.381 59.02 126.401 58.64C125.421 58.24 124.691 57.58 124.211 56.66C123.751 55.74 123.521 54.48 123.521 52.88V45.77H120.941V42.71H123.521L123.551 38.12H127.451L127.421 42.71H132.461V45.77H127.421V53.15C127.421 53.95 127.631 54.57 128.051 55.01C128.491 55.43 129.111 55.64 129.911 55.64H132.461V59.21H130.121ZM138.27 40.76C137.45 40.76 136.84 40.55 136.44 40.13C136.06 39.69 135.87 39.14 135.87 38.48C135.87 37.82 136.06 37.28 136.44 36.86C136.84 36.44 137.45 36.23 138.27 36.23C139.07 36.23 139.66 36.44 140.04 36.86C140.44 37.28 140.64 37.82 140.64 38.48C140.64 39.14 140.44 39.69 140.04 40.13C139.66 40.55 139.07 40.76 138.27 40.76ZM136.74 59V45.83H134.46V42.71H140.91V59H136.74ZM151.626 59.51C149.386 59.51 147.626 59.04 146.346 58.1C145.086 57.14 144.426 55.82 144.366 54.14H148.116C148.156 54.72 148.456 55.24 149.016 55.7C149.596 56.14 150.486 56.36 151.686 56.36C152.666 56.36 153.456 56.18 154.056 55.82C154.656 55.46 154.956 54.97 154.956 54.35C154.956 53.81 154.726 53.39 154.266 53.09C153.826 52.77 153.066 52.55 151.986 52.43L150.546 52.28C148.706 52.08 147.296 51.56 146.316 50.72C145.356 49.88 144.876 48.76 144.876 47.36C144.876 46.26 145.156 45.33 145.716 44.57C146.276 43.79 147.046 43.21 148.026 42.83C149.026 42.43 150.166 42.23 151.446 42.23C153.446 42.23 155.066 42.68 156.306 43.58C157.546 44.46 158.196 45.74 158.256 47.42H154.506C154.446 46.86 154.156 46.38 153.636 45.98C153.136 45.58 152.396 45.38 151.416 45.38C150.536 45.38 149.856 45.55 149.376 45.89C148.896 46.23 148.656 46.67 148.656 47.21C148.656 47.73 148.846 48.13 149.226 48.41C149.606 48.69 150.246 48.88 151.146 48.98L152.586 49.13C154.486 49.33 155.986 49.86 157.086 50.72C158.186 51.58 158.736 52.74 158.736 54.2C158.736 55.28 158.436 56.22 157.836 57.02C157.256 57.8 156.436 58.41 155.376 58.85C154.316 59.29 153.066 59.51 151.626 59.51ZM169.261 59.21C167.761 59.21 166.521 59.02 165.541 58.64C164.561 58.24 163.831 57.58 163.351 56.66C162.891 55.74 162.661 54.48 162.661 52.88V45.77H160.081V42.71H162.661L162.691 38.12H166.591L166.561 42.71H171.601V45.77H166.561V53.15C166.561 53.95 166.771 54.57 167.191 55.01C167.631 55.43 168.251 55.64 169.051 55.64H171.601V59.21H169.261ZM186.196 59.42C184.396 59.42 182.956 58.96 181.876 58.04C180.816 57.12 180.286 55.83 180.286 54.17C180.286 52.39 180.926 51.08 182.206 50.24C183.506 49.38 185.246 48.95 187.426 48.95H190.756V48.8C190.756 46.94 189.816 46.01 187.936 46.01C187.436 46.01 186.836 46.02 186.136 46.04C185.436 46.06 184.726 46.09 184.006 46.13C183.306 46.15 182.676 46.18 182.116 46.22V42.68C182.796 42.62 183.606 42.57 184.546 42.53C185.506 42.49 186.386 42.47 187.186 42.47C189.686 42.47 191.566 42.98 192.826 44C194.106 45 194.746 46.63 194.746 48.89V59H191.446V55.88C190.706 58.24 188.956 59.42 186.196 59.42ZM187.366 56.45C187.926 56.45 188.456 56.35 188.956 56.15C189.456 55.93 189.866 55.57 190.186 55.07C190.526 54.55 190.716 53.85 190.756 52.97V51.44H187.366C186.406 51.44 185.666 51.68 185.146 52.16C184.646 52.62 184.396 53.22 184.396 53.96C184.396 54.72 184.646 55.33 185.146 55.79C185.666 56.23 186.406 56.45 187.366 56.45ZM199.212 59V42.71H202.512V46.73C203.212 43.71 205.072 42.2 208.092 42.2H208.272C210.212 42.2 211.682 42.83 212.682 44.09C213.682 45.35 214.182 47.21 214.182 49.67V59H210.012V49.31C210.012 48.31 209.722 47.5 209.142 46.88C208.562 46.26 207.782 45.95 206.802 45.95C205.782 45.95 204.952 46.27 204.312 46.91C203.692 47.55 203.382 48.39 203.382 49.43V59H199.212ZM225.416 59.54C223.896 59.54 222.546 59.18 221.366 58.46C220.186 57.72 219.256 56.72 218.576 55.46C217.916 54.2 217.586 52.78 217.586 51.2V50.57C217.586 49.01 217.906 47.6 218.546 46.34C219.186 45.08 220.076 44.08 221.216 43.34C222.376 42.58 223.736 42.2 225.296 42.2C226.456 42.2 227.496 42.44 228.416 42.92C229.356 43.38 230.126 44.08 230.726 45.02V37.1H234.896V59H231.596V55.58C231.036 56.9 230.206 57.89 229.106 58.55C228.026 59.21 226.796 59.54 225.416 59.54ZM226.346 56.03C227.166 56.03 227.916 55.85 228.596 55.49C229.276 55.11 229.816 54.57 230.216 53.87C230.636 53.17 230.846 52.33 230.846 51.35V50.15C230.846 49.21 230.626 48.41 230.186 47.75C229.766 47.09 229.216 46.59 228.536 46.25C227.856 45.89 227.126 45.71 226.346 45.71C224.986 45.71 223.876 46.19 223.016 47.15C222.176 48.09 221.756 49.34 221.756 50.9C221.756 52.46 222.186 53.71 223.046 54.65C223.906 55.57 225.006 56.03 226.346 56.03ZM115.988 97V74.95H123.548C126.308 74.95 128.438 75.62 129.938 76.96C131.458 78.28 132.218 80.08 132.218 82.36V82.84C132.218 85.12 131.458 86.93 129.938 88.27C128.438 89.61 126.308 90.28 123.548 90.28H120.248V97H115.988ZM123.908 78.64H120.248V86.59H123.908C125.188 86.59 126.168 86.22 126.848 85.48C127.548 84.74 127.898 83.78 127.898 82.6C127.898 81.42 127.548 80.47 126.848 79.75C126.168 79.01 125.188 78.64 123.908 78.64ZM135.521 97V80.71H138.821V86.02C139.261 82.34 141.201 80.5 144.641 80.5H145.241V84.13H144.101C142.681 84.13 141.591 84.51 140.831 85.27C140.071 86.03 139.691 87.11 139.691 88.51V97H135.521ZM155.744 97.57C153.824 97.57 152.204 97.18 150.884 96.4C149.564 95.6 148.554 94.56 147.854 93.28C147.174 92 146.834 90.64 146.834 89.2V88.57C146.834 87.07 147.184 85.68 147.884 84.4C148.604 83.12 149.624 82.09 150.944 81.31C152.284 80.53 153.884 80.14 155.744 80.14C157.584 80.14 159.164 80.53 160.484 81.31C161.824 82.09 162.844 83.12 163.544 84.4C164.264 85.68 164.624 87.07 164.624 88.57V89.2C164.624 90.64 164.274 92 163.574 93.28C162.894 94.56 161.894 95.6 160.574 96.4C159.254 97.18 157.644 97.57 155.744 97.57ZM155.744 94C157.264 94 158.424 93.52 159.224 92.56C160.044 91.58 160.454 90.35 160.454 88.87C160.454 87.39 160.034 86.16 159.194 85.18C158.354 84.2 157.204 83.71 155.744 83.71C154.264 83.71 153.104 84.2 152.264 85.18C151.424 86.16 151.004 87.39 151.004 88.87C151.004 90.35 151.404 91.58 152.204 92.56C153.024 93.52 154.204 94 155.744 94ZM175.025 97.54C173.505 97.54 172.155 97.18 170.975 96.46C169.795 95.72 168.865 94.72 168.185 93.46C167.525 92.2 167.195 90.78 167.195 89.2V88.57C167.195 87.01 167.515 85.6 168.155 84.34C168.795 83.08 169.685 82.08 170.825 81.34C171.985 80.58 173.345 80.2 174.905 80.2C176.065 80.2 177.105 80.44 178.025 80.92C178.965 81.38 179.735 82.08 180.335 83.02V75.1H184.505V97H181.205V93.58C180.645 94.9 179.815 95.89 178.715 96.55C177.635 97.21 176.405 97.54 175.025 97.54ZM175.955 94.03C176.775 94.03 177.525 93.85 178.205 93.49C178.885 93.11 179.425 92.57 179.825 91.87C180.245 91.17 180.455 90.33 180.455 89.35V88.15C180.455 87.21 180.235 86.41 179.795 85.75C179.375 85.09 178.825 84.59 178.145 84.25C177.465 83.89 176.735 83.71 175.955 83.71C174.595 83.71 173.485 84.19 172.625 85.15C171.785 86.09 171.365 87.34 171.365 88.9C171.365 90.46 171.795 91.71 172.655 92.65C173.515 93.57 174.615 94.03 175.955 94.03ZM194.801 97.51C192.921 97.51 191.461 96.9 190.421 95.68C189.401 94.44 188.891 92.59 188.891 90.13V80.68H193.061V90.49C193.061 91.51 193.341 92.31 193.901 92.89C194.461 93.47 195.221 93.76 196.181 93.76C197.141 93.76 197.921 93.45 198.521 92.83C199.141 92.21 199.451 91.37 199.451 90.31V80.68H203.621V97H200.321V93.22C199.621 96.08 197.841 97.51 194.981 97.51H194.801ZM215.642 97.57C214.222 97.57 212.992 97.33 211.952 96.85C210.912 96.37 210.052 95.73 209.372 94.93C208.692 94.13 208.182 93.23 207.842 92.23C207.502 91.23 207.332 90.21 207.332 89.17V88.6C207.332 87.52 207.502 86.48 207.842 85.48C208.202 84.46 208.722 83.55 209.402 82.75C210.102 81.95 210.962 81.32 211.982 80.86C213.022 80.38 214.232 80.14 215.612 80.14C217.032 80.14 218.292 80.42 219.392 80.98C220.512 81.52 221.402 82.28 222.062 83.26C222.742 84.24 223.132 85.38 223.232 86.68H219.182C219.062 85.84 218.702 85.14 218.102 84.58C217.502 84.02 216.672 83.74 215.612 83.74C214.212 83.74 213.172 84.22 212.492 85.18C211.832 86.14 211.502 87.37 211.502 88.87C211.502 90.33 211.822 91.55 212.462 92.53C213.122 93.49 214.182 93.97 215.642 93.97C216.722 93.97 217.572 93.69 218.192 93.13C218.832 92.57 219.212 91.84 219.332 90.94H223.382C223.302 92.26 222.912 93.42 222.212 94.42C221.532 95.42 220.622 96.2 219.482 96.76C218.342 97.3 217.062 97.57 215.642 97.57ZM233.802 97.21C232.302 97.21 231.062 97.02 230.082 96.64C229.102 96.24 228.372 95.58 227.892 94.66C227.432 93.74 227.202 92.48 227.202 90.88V83.77H224.622V80.71H227.202L227.232 76.12H231.132L231.102 80.71H236.142V83.77H231.102V91.15C231.102 91.95 231.312 92.57 231.732 93.01C232.172 93.43 232.792 93.64 233.592 93.64H236.142V97.21H233.802ZM100.548 135.12V112.95H108.468C110.448 112.95 112.168 113.25 113.628 113.85C115.108 114.43 116.338 115.23 117.318 116.25C118.318 117.25 119.058 118.39 119.538 119.67C120.038 120.95 120.288 122.28 120.288 123.66V124.32C120.288 125.64 120.038 126.94 119.538 128.22C119.058 129.5 118.318 130.66 117.318 131.7C116.338 132.74 115.108 133.57 113.628 134.19C112.168 134.81 110.448 135.12 108.468 135.12H100.548ZM108.738 116.91H104.808V131.16H108.738C110.238 131.16 111.528 130.86 112.608 130.26C113.688 129.64 114.518 128.79 115.098 127.71C115.678 126.63 115.968 125.39 115.968 123.99C115.968 121.81 115.328 120.09 114.048 118.83C112.768 117.55 110.998 116.91 108.738 116.91ZM131.063 135.57C129.663 135.57 128.433 135.33 127.373 134.85C126.333 134.37 125.463 133.73 124.763 132.93C124.083 132.11 123.563 131.2 123.203 130.2C122.863 129.2 122.693 128.18 122.693 127.14V126.57C122.693 125.49 122.863 124.45 123.203 123.45C123.563 122.45 124.083 121.55 124.763 120.75C125.463 119.95 126.323 119.32 127.343 118.86C128.363 118.38 129.543 118.14 130.883 118.14C132.643 118.14 134.113 118.53 135.293 119.31C136.473 120.07 137.363 121.08 137.963 122.34C138.583 123.58 138.893 124.92 138.893 126.36V127.86H126.653C126.793 129.14 127.213 130.17 127.913 130.95C128.633 131.73 129.683 132.12 131.063 132.12C132.063 132.12 132.883 131.92 133.523 131.52C134.183 131.1 134.603 130.59 134.783 129.99H138.623C138.263 131.67 137.413 133.02 136.073 134.04C134.733 135.06 133.063 135.57 131.063 135.57ZM130.883 121.59C129.703 121.59 128.763 121.92 128.063 122.58C127.363 123.24 126.913 124.15 126.713 125.31H134.903C134.743 124.15 134.323 123.24 133.643 122.58C132.983 121.92 132.063 121.59 130.883 121.59ZM148.286 135.51C146.046 135.51 144.286 135.04 143.006 134.1C141.746 133.14 141.086 131.82 141.026 130.14H144.776C144.816 130.72 145.116 131.24 145.676 131.7C146.256 132.14 147.146 132.36 148.346 132.36C149.326 132.36 150.116 132.18 150.716 131.82C151.316 131.46 151.616 130.97 151.616 130.35C151.616 129.81 151.386 129.39 150.926 129.09C150.486 128.77 149.726 128.55 148.646 128.43L147.206 128.28C145.366 128.08 143.956 127.56 142.976 126.72C142.016 125.88 141.536 124.76 141.536 123.36C141.536 122.26 141.816 121.33 142.376 120.57C142.936 119.79 143.706 119.21 144.686 118.83C145.686 118.43 146.826 118.23 148.106 118.23C150.106 118.23 151.726 118.68 152.966 119.58C154.206 120.46 154.856 121.74 154.916 123.42H151.166C151.106 122.86 150.816 122.38 150.296 121.98C149.796 121.58 149.056 121.38 148.076 121.38C147.196 121.38 146.516 121.55 146.036 121.89C145.556 122.23 145.316 122.67 145.316 123.21C145.316 123.73 145.506 124.13 145.886 124.41C146.266 124.69 146.906 124.88 147.806 124.98L149.246 125.13C151.146 125.33 152.646 125.86 153.746 126.72C154.846 127.58 155.396 128.74 155.396 130.2C155.396 131.28 155.096 132.22 154.496 133.02C153.916 133.8 153.096 134.41 152.036 134.85C150.976 135.29 149.726 135.51 148.286 135.51ZM161.151 116.76C160.331 116.76 159.721 116.55 159.321 116.13C158.941 115.69 158.751 115.14 158.751 114.48C158.751 113.82 158.941 113.28 159.321 112.86C159.721 112.44 160.331 112.23 161.151 112.23C161.951 112.23 162.541 112.44 162.921 112.86C163.321 113.28 163.521 113.82 163.521 114.48C163.521 115.14 163.321 115.69 162.921 116.13C162.541 116.55 161.951 116.76 161.151 116.76ZM159.621 135V121.83H157.341V118.71H163.791V135H159.621ZM174.957 141.42C173.297 141.42 171.747 141.31 170.307 141.09V137.61C171.007 137.71 171.767 137.79 172.587 137.85C173.427 137.91 174.207 137.94 174.927 137.94C176.927 137.94 178.367 137.57 179.247 136.83C180.147 136.11 180.597 134.94 180.597 133.32V131.88C180.037 132.94 179.267 133.75 178.287 134.31C177.327 134.85 176.217 135.12 174.957 135.12C173.457 135.12 172.147 134.76 171.027 134.04C169.927 133.3 169.067 132.32 168.447 131.1C167.827 129.86 167.517 128.47 167.517 126.93V126.3C167.517 124.76 167.837 123.38 168.477 122.16C169.137 120.94 170.037 119.98 171.177 119.28C172.337 118.56 173.677 118.2 175.197 118.2C176.617 118.2 177.837 118.53 178.857 119.19C179.897 119.85 180.687 120.8 181.227 122.04V118.71H184.527V133.08C184.527 136.06 183.757 138.19 182.217 139.47C180.677 140.77 178.257 141.42 174.957 141.42ZM176.157 131.55C176.957 131.55 177.687 131.37 178.347 131.01C179.007 130.65 179.537 130.13 179.937 129.45C180.337 128.77 180.537 127.95 180.537 126.99V125.94C180.537 125.02 180.327 124.24 179.907 123.6C179.507 122.96 178.967 122.48 178.287 122.16C177.627 121.82 176.917 121.65 176.157 121.65C174.837 121.65 173.757 122.11 172.917 123.03C172.097 123.93 171.687 125.13 171.687 126.63C171.687 128.15 172.097 129.35 172.917 130.23C173.757 131.11 174.837 131.55 176.157 131.55ZM189.076 135V118.71H192.376V122.73C193.076 119.71 194.936 118.2 197.956 118.2H198.136C200.076 118.2 201.546 118.83 202.546 120.09C203.546 121.35 204.046 123.21 204.046 125.67V135H199.876V125.31C199.876 124.31 199.586 123.5 199.006 122.88C198.426 122.26 197.646 121.95 196.666 121.95C195.646 121.95 194.816 122.27 194.176 122.91C193.556 123.55 193.246 124.39 193.246 125.43V135H189.076ZM215.819 135.57C214.419 135.57 213.189 135.33 212.129 134.85C211.089 134.37 210.219 133.73 209.519 132.93C208.839 132.11 208.319 131.2 207.959 130.2C207.619 129.2 207.449 128.18 207.449 127.14V126.57C207.449 125.49 207.619 124.45 207.959 123.45C208.319 122.45 208.839 121.55 209.519 120.75C210.219 119.95 211.079 119.32 212.099 118.86C213.119 118.38 214.299 118.14 215.639 118.14C217.399 118.14 218.869 118.53 220.049 119.31C221.229 120.07 222.119 121.08 222.719 122.34C223.339 123.58 223.649 124.92 223.649 126.36V127.86H211.409C211.549 129.14 211.969 130.17 212.669 130.95C213.389 131.73 214.439 132.12 215.819 132.12C216.819 132.12 217.639 131.92 218.279 131.52C218.939 131.1 219.359 130.59 219.539 129.99H223.379C223.019 131.67 222.169 133.02 220.829 134.04C219.489 135.06 217.819 135.57 215.819 135.57ZM215.639 121.59C214.459 121.59 213.519 121.92 212.819 122.58C212.119 123.24 211.669 124.15 211.469 125.31H219.659C219.499 124.15 219.079 123.24 218.399 122.58C217.739 121.92 216.819 121.59 215.639 121.59ZM227.132 135V118.71H230.432V124.02C230.872 120.34 232.812 118.5 236.252 118.5H236.852V122.13H235.712C234.292 122.13 233.202 122.51 232.442 123.27C231.682 124.03 231.302 125.11 231.302 126.51V135H227.132ZM146.244 173V156.71H149.544V162.02C149.984 158.34 151.924 156.5 155.364 156.5H155.964V160.13H154.824C153.404 160.13 152.314 160.51 151.554 161.27C150.794 162.03 150.414 163.11 150.414 164.51V173H146.244ZM165.926 173.57C164.526 173.57 163.296 173.33 162.236 172.85C161.196 172.37 160.326 171.73 159.626 170.93C158.946 170.11 158.426 169.2 158.066 168.2C157.726 167.2 157.556 166.18 157.556 165.14V164.57C157.556 163.49 157.726 162.45 158.066 161.45C158.426 160.45 158.946 159.55 159.626 158.75C160.326 157.95 161.186 157.32 162.206 156.86C163.226 156.38 164.406 156.14 165.746 156.14C167.506 156.14 168.976 156.53 170.156 157.31C171.336 158.07 172.226 159.08 172.826 160.34C173.446 161.58 173.756 162.92 173.756 164.36V165.86H161.516C161.656 167.14 162.076 168.17 162.776 168.95C163.496 169.73 164.546 170.12 165.926 170.12C166.926 170.12 167.746 169.92 168.386 169.52C169.046 169.1 169.466 168.59 169.646 167.99H173.486C173.126 169.67 172.276 171.02 170.936 172.04C169.596 173.06 167.926 173.57 165.926 173.57ZM165.746 159.59C164.566 159.59 163.626 159.92 162.926 160.58C162.226 161.24 161.776 162.15 161.576 163.31H169.766C169.606 162.15 169.186 161.24 168.506 160.58C167.846 159.92 166.926 159.59 165.746 159.59ZM180.363 173L175.263 156.71H179.553L183.393 169.58H184.113L187.443 156.71H191.463L187.053 173H180.363ZM201.551 173.57C200.151 173.57 198.921 173.33 197.861 172.85C196.821 172.37 195.951 171.73 195.251 170.93C194.571 170.11 194.051 169.2 193.691 168.2C193.351 167.2 193.181 166.18 193.181 165.14V164.57C193.181 163.49 193.351 162.45 193.691 161.45C194.051 160.45 194.571 159.55 195.251 158.75C195.951 157.95 196.811 157.32 197.831 156.86C198.851 156.38 200.031 156.14 201.371 156.14C203.131 156.14 204.601 156.53 205.781 157.31C206.961 158.07 207.851 159.08 208.451 160.34C209.071 161.58 209.381 162.92 209.381 164.36V165.86H197.141C197.281 167.14 197.701 168.17 198.401 168.95C199.121 169.73 200.171 170.12 201.551 170.12C202.551 170.12 203.371 169.92 204.011 169.52C204.671 169.1 205.091 168.59 205.271 167.99H209.111C208.751 169.67 207.901 171.02 206.561 172.04C205.221 173.06 203.551 173.57 201.551 173.57ZM201.371 159.59C200.191 159.59 199.251 159.92 198.551 160.58C197.851 161.24 197.401 162.15 197.201 163.31H205.391C205.231 162.15 204.811 161.24 204.131 160.58C203.471 159.92 202.551 159.59 201.371 159.59ZM217.485 173.42C215.685 173.42 214.245 172.96 213.165 172.04C212.105 171.12 211.575 169.83 211.575 168.17C211.575 166.39 212.215 165.08 213.495 164.24C214.795 163.38 216.535 162.95 218.715 162.95H222.045V162.8C222.045 160.94 221.105 160.01 219.225 160.01C218.725 160.01 218.125 160.02 217.425 160.04C216.725 160.06 216.015 160.09 215.295 160.13C214.595 160.15 213.965 160.18 213.405 160.22V156.68C214.085 156.62 214.895 156.57 215.835 156.53C216.795 156.49 217.675 156.47 218.475 156.47C220.975 156.47 222.855 156.98 224.115 158C225.395 159 226.035 160.63 226.035 162.89V173H222.735V169.88C221.995 172.24 220.245 173.42 217.485 173.42ZM218.655 170.45C219.215 170.45 219.745 170.35 220.245 170.15C220.745 169.93 221.155 169.57 221.475 169.07C221.815 168.55 222.005 167.85 222.045 166.97V165.44H218.655C217.695 165.44 216.955 165.68 216.435 166.16C215.935 166.62 215.685 167.22 215.685 167.96C215.685 168.72 215.935 169.33 216.435 169.79C216.955 170.23 217.695 170.45 218.655 170.45ZM230.711 173V154.22H228.671V151.1H234.881V173H230.711Z" fill="url(#paint0_linear_258:1716)"/>
<rect x="263.636" y="60" width="9" height="9" transform="rotate(45 263.636 60)" fill="url(#paint1_linear_258:1716)"/>
<line x1="264.136" y1="72.7279" x2="264.136" y2="270" stroke="white" stroke-dasharray="6 6"/>
<defs>
<linearGradient id="paint0_linear_258:1716" x1="30" y1="65" x2="233.425" y2="69.1615" gradientUnits="userSpaceOnUse">
<stop offset="0.267495" stop-color="#FFC6CE"/>
<stop offset="1" stop-color="#64D6EE"/>
</linearGradient>
<linearGradient id="paint1_linear_258:1716" x1="263.636" y1="62.0724" x2="272.471" y2="62.2049" gradientUnits="userSpaceOnUse">
<stop offset="0.267495" stop-color="#FFC6CE"/>
<stop offset="1" stop-color="#64D6EE"/>
</linearGradient>
</defs>
</svg>
