<svg width="300" height="300" viewBox="0 0 300 300" fill="none" xmlns="http://www.w3.org/2000/svg">
<rect width="300" height="300" fill="#22262A"/>
<path d="M103.888 185V163.1H116.728V166.7H108.148V172.28L116.308 172.25V175.85L108.148 175.88V185H103.888ZM122.45 166.76C121.63 166.76 121.02 166.55 120.62 166.13C120.24 165.69 120.05 165.14 120.05 164.48C120.05 163.82 120.24 163.28 120.62 162.86C121.02 162.44 121.63 162.23 122.45 162.23C123.25 162.23 123.84 162.44 124.22 162.86C124.62 163.28 124.82 163.82 124.82 164.48C124.82 165.14 124.62 165.69 124.22 166.13C123.84 166.55 123.25 166.76 122.45 166.76ZM120.92 185V171.83H118.64V168.71H125.09V185H120.92ZM129.896 185V168.71H133.196V174.02C133.636 170.34 135.576 168.5 139.016 168.5H139.616V172.13H138.476C137.056 172.13 135.966 172.51 135.206 173.27C134.446 174.03 134.066 175.11 134.066 176.51V185H129.896ZM148.316 185.51C146.076 185.51 144.316 185.04 143.036 184.1C141.776 183.14 141.116 181.82 141.056 180.14H144.806C144.846 180.72 145.146 181.24 145.706 181.7C146.286 182.14 147.176 182.36 148.376 182.36C149.356 182.36 150.146 182.18 150.746 181.82C151.346 181.46 151.646 180.97 151.646 180.35C151.646 179.81 151.416 179.39 150.956 179.09C150.516 178.77 149.756 178.55 148.676 178.43L147.236 178.28C145.396 178.08 143.986 177.56 143.006 176.72C142.046 175.88 141.566 174.76 141.566 173.36C141.566 172.26 141.846 171.33 142.406 170.57C142.966 169.79 143.736 169.21 144.716 168.83C145.716 168.43 146.856 168.23 148.136 168.23C150.136 168.23 151.756 168.68 152.996 169.58C154.236 170.46 154.886 171.74 154.946 173.42H151.196C151.136 172.86 150.846 172.38 150.326 171.98C149.826 171.58 149.086 171.38 148.106 171.38C147.226 171.38 146.546 171.55 146.066 171.89C145.586 172.23 145.346 172.67 145.346 173.21C145.346 173.73 145.536 174.13 145.916 174.41C146.296 174.69 146.936 174.88 147.836 174.98L149.276 175.13C151.176 175.33 152.676 175.86 153.776 176.72C154.876 177.58 155.426 178.74 155.426 180.2C155.426 181.28 155.126 182.22 154.526 183.02C153.946 183.8 153.126 184.41 152.066 184.85C151.006 185.29 149.756 185.51 148.316 185.51ZM165.951 185.21C164.451 185.21 163.211 185.02 162.231 184.64C161.251 184.24 160.521 183.58 160.041 182.66C159.581 181.74 159.351 180.48 159.351 178.88V171.77H156.771V168.71H159.351L159.381 164.12H163.281L163.251 168.71H168.291V171.77H163.251V179.15C163.251 179.95 163.461 180.57 163.881 181.01C164.321 181.43 164.941 181.64 165.741 181.64H168.291V185.21H165.951ZM178.595 185V163.1H185.585L194.795 181.46H195.185V163.1H199.205V185H192.185L182.975 166.64H182.555V185H178.595ZM204.611 185V163.1H217.451V166.7H208.871V172.28L217.031 172.25V175.85L208.871 175.88V185H204.611ZM225.982 185V166.85H219.652V163.1H236.572V166.85H230.242V185H225.982ZM133.423 223.54C131.903 223.54 130.553 223.18 129.373 222.46C128.193 221.72 127.263 220.72 126.583 219.46C125.923 218.2 125.593 216.78 125.593 215.2V214.57C125.593 213.01 125.913 211.6 126.553 210.34C127.193 209.08 128.083 208.08 129.223 207.34C130.383 206.58 131.743 206.2 133.303 206.2C134.463 206.2 135.503 206.44 136.423 206.92C137.363 207.38 138.133 208.08 138.733 209.02V201.1H142.903V223H139.603V219.58C139.043 220.9 138.213 221.89 137.113 222.55C136.033 223.21 134.803 223.54 133.423 223.54ZM134.353 220.03C135.173 220.03 135.923 219.85 136.603 219.49C137.283 219.11 137.823 218.57 138.223 217.87C138.643 217.17 138.853 216.33 138.853 215.35V214.15C138.853 213.21 138.633 212.41 138.193 211.75C137.773 211.09 137.223 210.59 136.543 210.25C135.863 209.89 135.133 209.71 134.353 209.71C132.993 209.71 131.883 210.19 131.023 211.15C130.183 212.09 129.763 213.34 129.763 214.9C129.763 216.46 130.193 217.71 131.053 218.65C131.913 219.57 133.013 220.03 134.353 220.03ZM147.65 223V206.71H150.95V212.02C151.39 208.34 153.33 206.5 156.77 206.5H157.37V210.13H156.23C154.81 210.13 153.72 210.51 152.96 211.27C152.2 212.03 151.82 213.11 151.82 214.51V223H147.65ZM167.872 223.57C165.952 223.57 164.332 223.18 163.012 222.4C161.692 221.6 160.682 220.56 159.982 219.28C159.302 218 158.962 216.64 158.962 215.2V214.57C158.962 213.07 159.312 211.68 160.012 210.4C160.732 209.12 161.752 208.09 163.072 207.31C164.412 206.53 166.012 206.14 167.872 206.14C169.712 206.14 171.292 206.53 172.612 207.31C173.952 208.09 174.972 209.12 175.672 210.4C176.392 211.68 176.752 213.07 176.752 214.57V215.2C176.752 216.64 176.402 218 175.702 219.28C175.022 220.56 174.022 221.6 172.702 222.4C171.382 223.18 169.772 223.57 167.872 223.57ZM167.872 220C169.392 220 170.552 219.52 171.352 218.56C172.172 217.58 172.582 216.35 172.582 214.87C172.582 213.39 172.162 212.16 171.322 211.18C170.482 210.2 169.332 209.71 167.872 209.71C166.392 209.71 165.232 210.2 164.392 211.18C163.552 212.16 163.132 213.39 163.132 214.87C163.132 216.35 163.532 217.58 164.332 218.56C165.152 219.52 166.332 220 167.872 220ZM180.404 229V206.71H183.704V210.79C184.204 209.27 185.024 208.13 186.164 207.37C187.304 206.59 188.614 206.2 190.094 206.2C191.634 206.2 192.964 206.57 194.084 207.31C195.224 208.05 196.114 209.05 196.754 210.31C197.394 211.55 197.714 212.95 197.714 214.51V215.14C197.714 216.7 197.404 218.12 196.784 219.4C196.164 220.66 195.284 221.67 194.144 222.43C193.004 223.17 191.654 223.54 190.094 223.54C188.954 223.54 187.904 223.33 186.944 222.91C185.984 222.47 185.194 221.78 184.574 220.84V229H180.404ZM189.044 220.03C190.384 220.03 191.464 219.55 192.284 218.59C193.124 217.61 193.544 216.36 193.544 214.84C193.544 213.3 193.124 212.06 192.284 211.12C191.464 210.18 190.384 209.71 189.044 209.71C188.224 209.71 187.464 209.9 186.764 210.28C186.064 210.64 185.504 211.17 185.084 211.87C184.664 212.55 184.454 213.38 184.454 214.36V215.56C184.454 216.5 184.674 217.31 185.114 217.99C185.554 218.65 186.124 219.16 186.824 219.52C187.524 219.86 188.264 220.03 189.044 220.03ZM215.685 223.57C213.765 223.57 212.145 223.18 210.825 222.4C209.505 221.6 208.495 220.56 207.795 219.28C207.115 218 206.775 216.64 206.775 215.2V214.57C206.775 213.07 207.125 211.68 207.825 210.4C208.545 209.12 209.565 208.09 210.885 207.31C212.225 206.53 213.825 206.14 215.685 206.14C217.525 206.14 219.105 206.53 220.425 207.31C221.765 208.09 222.785 209.12 223.485 210.4C224.205 211.68 224.565 213.07 224.565 214.57V215.2C224.565 216.64 224.215 218 223.515 219.28C222.835 220.56 221.835 221.6 220.515 222.4C219.195 223.18 217.585 223.57 215.685 223.57ZM215.685 220C217.205 220 218.365 219.52 219.165 218.56C219.985 217.58 220.395 216.35 220.395 214.87C220.395 213.39 219.975 212.16 219.135 211.18C218.295 210.2 217.145 209.71 215.685 209.71C214.205 209.71 213.045 210.2 212.205 211.18C211.365 212.16 210.945 213.39 210.945 214.87C210.945 216.35 211.345 217.58 212.145 218.56C212.965 219.52 214.145 220 215.685 220ZM228.606 223V210.04H226.566V206.98H228.606V206.32C228.606 204.46 229.116 203.09 230.136 202.21C231.176 201.31 232.706 200.86 234.726 200.86H236.766V204.07H234.426C233.806 204.07 233.326 204.24 232.986 204.58C232.666 204.9 232.506 205.36 232.506 205.96V206.98H237.036V210.04H232.506V223H228.606ZM105.089 261V239.1H118.349V242.7H109.259V248.07H117.809V251.67H109.259V257.4H118.589V261H105.089ZM129.71 261.21C128.21 261.21 126.97 261.02 125.99 260.64C125.01 260.24 124.28 259.58 123.8 258.66C123.34 257.74 123.11 256.48 123.11 254.88V247.77H120.53V244.71H123.11L123.14 240.12H127.04L127.01 244.71H132.05V247.77H127.01V255.15C127.01 255.95 127.22 256.57 127.64 257.01C128.08 257.43 128.7 257.64 129.5 257.64H132.05V261.21H129.71ZM135.55 261V239.1H139.72V247.44C140.14 246.4 140.76 245.6 141.58 245.04C142.4 244.48 143.43 244.2 144.67 244.2H144.85C146.71 244.2 148.12 244.85 149.08 246.15C150.04 247.43 150.52 249.28 150.52 251.7V261H146.35V251.31C146.35 250.27 146.05 249.45 145.45 248.85C144.87 248.25 144.1 247.95 143.14 247.95C142.1 247.95 141.27 248.29 140.65 248.97C140.03 249.63 139.72 250.5 139.72 251.58V261H135.55ZM162.233 261.57C160.813 261.57 159.583 261.33 158.543 260.85C157.503 260.37 156.643 259.73 155.963 258.93C155.283 258.13 154.773 257.23 154.433 256.23C154.093 255.23 153.923 254.21 153.923 253.17V252.6C153.923 251.52 154.093 250.48 154.433 249.48C154.793 248.46 155.313 247.55 155.993 246.75C156.693 245.95 157.553 245.32 158.573 244.86C159.613 244.38 160.823 244.14 162.203 244.14C163.623 244.14 164.883 244.42 165.983 244.98C167.103 245.52 167.993 246.28 168.653 247.26C169.333 248.24 169.723 249.38 169.823 250.68H165.773C165.653 249.84 165.293 249.14 164.693 248.58C164.093 248.02 163.263 247.74 162.203 247.74C160.803 247.74 159.763 248.22 159.083 249.18C158.423 250.14 158.093 251.37 158.093 252.87C158.093 254.33 158.413 255.55 159.053 256.53C159.713 257.49 160.773 257.97 162.233 257.97C163.313 257.97 164.163 257.69 164.783 257.13C165.423 256.57 165.803 255.84 165.923 254.94H169.973C169.893 256.26 169.503 257.42 168.803 258.42C168.123 259.42 167.213 260.2 166.073 260.76C164.933 261.3 163.653 261.57 162.233 261.57ZM173.524 261V242.22H171.484V239.1H177.694V261H173.524ZM190.285 261.57C188.365 261.57 186.745 261.18 185.425 260.4C184.105 259.6 183.095 258.56 182.395 257.28C181.715 256 181.375 254.64 181.375 253.2V252.57C181.375 251.07 181.725 249.68 182.425 248.4C183.145 247.12 184.165 246.09 185.485 245.31C186.825 244.53 188.425 244.14 190.285 244.14C192.125 244.14 193.705 244.53 195.025 245.31C196.365 246.09 197.385 247.12 198.085 248.4C198.805 249.68 199.165 251.07 199.165 252.57V253.2C199.165 254.64 198.815 256 198.115 257.28C197.435 258.56 196.435 259.6 195.115 260.4C193.795 261.18 192.185 261.57 190.285 261.57ZM190.285 258C191.805 258 192.965 257.52 193.765 256.56C194.585 255.58 194.995 254.35 194.995 252.87C194.995 251.39 194.575 250.16 193.735 249.18C192.895 248.2 191.745 247.71 190.285 247.71C188.805 247.71 187.645 248.2 186.805 249.18C185.965 250.16 185.545 251.39 185.545 252.87C185.545 254.35 185.945 255.58 186.745 256.56C187.565 257.52 188.745 258 190.285 258ZM210.046 261.57C208.626 261.57 207.396 261.33 206.356 260.85C205.316 260.37 204.456 259.73 203.776 258.93C203.096 258.13 202.586 257.23 202.246 256.23C201.906 255.23 201.736 254.21 201.736 253.17V252.6C201.736 251.52 201.906 250.48 202.246 249.48C202.606 248.46 203.126 247.55 203.806 246.75C204.506 245.95 205.366 245.32 206.386 244.86C207.426 244.38 208.636 244.14 210.016 244.14C211.436 244.14 212.696 244.42 213.796 244.98C214.916 245.52 215.806 246.28 216.466 247.26C217.146 248.24 217.536 249.38 217.636 250.68H213.586C213.466 249.84 213.106 249.14 212.506 248.58C211.906 248.02 211.076 247.74 210.016 247.74C208.616 247.74 207.576 248.22 206.896 249.18C206.236 250.14 205.906 251.37 205.906 252.87C205.906 254.33 206.226 255.55 206.866 256.53C207.526 257.49 208.586 257.97 210.046 257.97C211.126 257.97 211.976 257.69 212.596 257.13C213.236 256.57 213.616 255.84 213.736 254.94H217.786C217.706 256.26 217.316 257.42 216.616 258.42C215.936 259.42 215.026 260.2 213.886 260.76C212.746 261.3 211.466 261.57 210.046 261.57ZM221.126 261V239.1H225.296V252.57L231.566 244.71H235.916L230.366 251.64L237.236 261H232.526L227.066 253.38H225.296V261H221.126Z" fill="url(#paint0_linear_258:1700)"/>
<path d="M103.888 185H102.888V186H103.888V185ZM103.888 163.1V162.1H102.888V163.1H103.888ZM116.728 163.1H117.728V162.1H116.728V163.1ZM116.728 166.7V167.7H117.728V166.7H116.728ZM108.148 166.7V165.7H107.148V166.7H108.148ZM108.148 172.28H107.148V173.284L108.152 173.28L108.148 172.28ZM116.308 172.25H117.308V171.246L116.304 171.25L116.308 172.25ZM116.308 175.85L116.312 176.85L117.308 176.846V175.85H116.308ZM108.148 175.88L108.144 174.88L107.148 174.884V175.88H108.148ZM108.148 185V186H109.148V185H108.148ZM104.888 185V163.1H102.888V185H104.888ZM103.888 164.1H116.728V162.1H103.888V164.1ZM115.728 163.1V166.7H117.728V163.1H115.728ZM116.728 165.7H108.148V167.7H116.728V165.7ZM107.148 166.7V172.28H109.148V166.7H107.148ZM108.152 173.28L116.312 173.25L116.304 171.25L108.144 171.28L108.152 173.28ZM115.308 172.25V175.85H117.308V172.25H115.308ZM116.304 174.85L108.144 174.88L108.152 176.88L116.312 176.85L116.304 174.85ZM107.148 175.88V185H109.148V175.88H107.148ZM108.148 184H103.888V186H108.148V184ZM120.62 166.13L119.863 166.784L119.879 166.802L119.896 166.82L120.62 166.13ZM120.62 162.86L119.896 162.17L119.887 162.18L119.879 162.189L120.62 162.86ZM124.22 162.86L123.479 163.531L123.487 163.54L123.496 163.55L124.22 162.86ZM124.22 166.13L123.48 165.457L123.479 165.459L124.22 166.13ZM120.92 185H119.92V186H120.92V185ZM120.92 171.83H121.92V170.83H120.92V171.83ZM118.64 171.83H117.64V172.83H118.64V171.83ZM118.64 168.71V167.71H117.64V168.71H118.64ZM125.09 168.71H126.09V167.71H125.09V168.71ZM125.09 185V186H126.09V185H125.09ZM122.45 165.76C121.788 165.76 121.488 165.592 121.344 165.44L119.896 166.82C120.552 167.508 121.472 167.76 122.45 167.76V165.76ZM121.377 165.476C121.175 165.243 121.05 164.935 121.05 164.48H119.05C119.05 165.345 119.305 166.137 119.863 166.784L121.377 165.476ZM121.05 164.48C121.05 164.024 121.175 163.737 121.362 163.531L119.879 162.189C119.305 162.823 119.05 163.616 119.05 164.48H121.05ZM121.344 163.55C121.488 163.398 121.788 163.23 122.45 163.23V161.23C121.472 161.23 120.552 161.482 119.896 162.17L121.344 163.55ZM122.45 163.23C123.087 163.23 123.356 163.395 123.479 163.531L124.962 162.189C124.324 161.485 123.413 161.23 122.45 161.23V163.23ZM123.496 163.55C123.694 163.758 123.82 164.039 123.82 164.48H125.82C125.82 163.601 125.546 162.802 124.944 162.17L123.496 163.55ZM123.82 164.48C123.82 164.921 123.694 165.222 123.48 165.457L124.96 166.803C125.546 166.158 125.82 165.359 125.82 164.48H123.82ZM123.479 165.459C123.356 165.595 123.087 165.76 122.45 165.76V167.76C123.413 167.76 124.324 167.505 124.962 166.801L123.479 165.459ZM121.92 185V171.83H119.92V185H121.92ZM120.92 170.83H118.64V172.83H120.92V170.83ZM119.64 171.83V168.71H117.64V171.83H119.64ZM118.64 169.71H125.09V167.71H118.64V169.71ZM124.09 168.71V185H126.09V168.71H124.09ZM125.09 184H120.92V186H125.09V184ZM129.896 185H128.896V186H129.896V185ZM129.896 168.71V167.71H128.896V168.71H129.896ZM133.196 168.71H134.196V167.71H133.196V168.71ZM133.196 174.02H132.196L134.189 174.139L133.196 174.02ZM139.616 168.5H140.616V167.5H139.616V168.5ZM139.616 172.13V173.13H140.616V172.13H139.616ZM135.206 173.27L134.499 172.563L135.206 173.27ZM134.066 185V186H135.066V185H134.066ZM130.896 185V168.71H128.896V185H130.896ZM129.896 169.71H133.196V167.71H129.896V169.71ZM132.196 168.71V174.02H134.196V168.71H132.196ZM134.189 174.139C134.392 172.442 134.924 171.313 135.669 170.606C136.405 169.908 137.476 169.5 139.016 169.5V167.5C137.116 167.5 135.497 168.012 134.293 169.154C133.098 170.287 132.44 171.918 132.203 173.901L134.189 174.139ZM139.016 169.5H139.616V167.5H139.016V169.5ZM138.616 168.5V172.13H140.616V168.5H138.616ZM139.616 171.13H138.476V173.13H139.616V171.13ZM138.476 171.13C136.879 171.13 135.501 171.561 134.499 172.563L135.913 173.977C136.431 173.459 137.233 173.13 138.476 173.13V171.13ZM134.499 172.563C133.5 173.562 133.066 174.928 133.066 176.51H135.066C135.066 175.292 135.392 174.498 135.913 173.977L134.499 172.563ZM133.066 176.51V185H135.066V176.51H133.066ZM134.066 184H129.896V186H134.066V184ZM143.036 184.1L142.43 184.895L142.437 184.901L142.444 184.906L143.036 184.1ZM141.056 180.14V179.14H140.019L140.056 180.176L141.056 180.14ZM144.806 180.14L145.803 180.071L145.739 179.14H144.806V180.14ZM145.706 181.7L145.071 182.473L145.086 182.485L145.101 182.497L145.706 181.7ZM150.956 179.09L150.368 179.899L150.388 179.914L150.409 179.928L150.956 179.09ZM148.676 178.43L148.786 177.436L148.779 177.435L148.676 178.43ZM147.236 178.28L147.128 179.274L147.132 179.275L147.236 178.28ZM143.006 176.72L142.347 177.473L142.355 177.479L143.006 176.72ZM142.406 170.57L143.211 171.163L143.218 171.153L142.406 170.57ZM144.716 168.83L145.077 169.762L145.087 169.758L144.716 168.83ZM152.996 169.58L152.408 170.389L152.417 170.396L152.996 169.58ZM154.946 173.42V174.42H155.982L155.945 173.384L154.946 173.42ZM151.196 173.42L150.201 173.527L150.297 174.42H151.196V173.42ZM150.326 171.98L149.701 172.761L149.708 172.767L149.716 172.773L150.326 171.98ZM146.066 171.89L146.644 172.706L146.066 171.89ZM145.916 174.41L146.509 173.605L145.916 174.41ZM147.836 174.98L147.725 175.974L147.732 175.975L147.836 174.98ZM149.276 175.13L149.38 174.135L149.379 174.135L149.276 175.13ZM153.776 176.72L154.392 175.932L153.776 176.72ZM154.526 183.02L153.726 182.42L153.723 182.423L154.526 183.02ZM152.066 184.85L151.682 183.926L152.066 184.85ZM148.316 184.51C146.204 184.51 144.678 184.066 143.628 183.294L142.444 184.906C143.953 186.014 145.948 186.51 148.316 186.51V184.51ZM143.642 183.305C142.636 182.539 142.105 181.506 142.055 180.104L140.056 180.176C140.126 182.134 140.915 183.741 142.43 184.895L143.642 183.305ZM141.056 181.14H144.806V179.14H141.056V181.14ZM143.808 180.209C143.872 181.128 144.354 181.884 145.071 182.473L146.34 180.927C145.937 180.596 145.82 180.312 145.803 180.071L143.808 180.209ZM145.101 182.497C145.936 183.13 147.087 183.36 148.376 183.36V181.36C147.264 181.36 146.636 181.15 146.31 180.903L145.101 182.497ZM148.376 183.36C149.468 183.36 150.455 183.161 151.26 182.677L150.231 180.963C149.837 181.199 149.244 181.36 148.376 181.36V183.36ZM151.26 182.677C152.115 182.165 152.646 181.372 152.646 180.35H150.646C150.646 180.568 150.576 180.755 150.231 180.963L151.26 182.677ZM152.646 180.35C152.646 179.465 152.239 178.733 151.502 178.252L150.409 179.928C150.592 180.047 150.646 180.155 150.646 180.35H152.646ZM151.544 178.281C150.882 177.8 149.898 177.56 148.786 177.436L148.565 179.424C149.613 179.54 150.15 179.74 150.368 179.899L151.544 178.281ZM148.779 177.435L147.339 177.285L147.132 179.275L148.572 179.425L148.779 177.435ZM147.344 177.286C145.621 177.099 144.43 176.624 143.657 175.961L142.355 177.479C143.541 178.496 145.171 179.061 147.128 179.274L147.344 177.286ZM143.664 175.967C142.944 175.337 142.566 174.503 142.566 173.36H140.566C140.566 175.017 141.148 176.423 142.347 177.473L143.664 175.967ZM142.566 173.36C142.566 172.437 142.798 171.724 143.211 171.163L141.601 169.977C140.894 170.936 140.566 172.083 140.566 173.36H142.566ZM143.218 171.153C143.654 170.546 144.26 170.079 145.077 169.762L144.354 167.898C143.211 168.341 142.277 169.034 141.593 169.987L143.218 171.153ZM145.087 169.758C145.949 169.414 146.959 169.23 148.136 169.23V167.23C146.752 167.23 145.482 167.446 144.344 167.902L145.087 169.758ZM148.136 169.23C149.989 169.23 151.385 169.646 152.408 170.389L153.583 168.771C152.127 167.714 150.283 167.23 148.136 167.23V169.23ZM152.417 170.396C153.374 171.074 153.896 172.049 153.946 173.456L155.945 173.384C155.875 171.431 155.098 169.846 153.575 168.764L152.417 170.396ZM154.946 172.42H151.196V174.42H154.946V172.42ZM152.19 173.313C152.096 172.437 151.633 171.724 150.935 171.187L149.716 172.773C150.058 173.036 150.175 173.283 150.201 173.527L152.19 173.313ZM150.95 171.199C150.201 170.599 149.198 170.38 148.106 170.38V172.38C148.973 172.38 149.451 172.561 149.701 172.761L150.95 171.199ZM148.106 170.38C147.116 170.38 146.202 170.568 145.488 171.074L146.644 172.706C146.89 172.532 147.336 172.38 148.106 172.38V170.38ZM145.488 171.074C144.771 171.582 144.346 172.313 144.346 173.21H146.346C146.346 173.027 146.401 172.878 146.644 172.706L145.488 171.074ZM144.346 173.21C144.346 174.01 144.658 174.725 145.323 175.215L146.509 173.605C146.413 173.535 146.346 173.45 146.346 173.21H144.346ZM145.323 175.215C145.923 175.657 146.784 175.869 147.725 175.974L147.946 173.986C147.087 173.891 146.669 173.723 146.509 173.605L145.323 175.215ZM147.732 175.975L149.172 176.125L149.379 174.135L147.939 173.985L147.732 175.975ZM149.171 176.125C150.951 176.312 152.252 176.798 153.16 177.508L154.392 175.932C153.099 174.922 151.401 174.348 149.38 174.135L149.171 176.125ZM153.16 177.508C154.005 178.168 154.426 179.031 154.426 180.2H156.426C156.426 178.449 155.747 176.992 154.392 175.932L153.16 177.508ZM154.426 180.2C154.426 181.082 154.185 181.807 153.726 182.42L155.326 183.62C156.066 182.633 156.426 181.478 156.426 180.2H154.426ZM153.723 182.423C153.269 183.034 152.606 183.543 151.682 183.926L152.449 185.774C153.645 185.277 154.622 184.566 155.328 183.617L153.723 182.423ZM151.682 183.926C150.771 184.305 149.657 184.51 148.316 184.51V186.51C149.855 186.51 151.241 186.275 152.449 185.774L151.682 183.926ZM162.231 184.64L161.853 185.566L161.861 185.569L161.869 185.572L162.231 184.64ZM160.041 182.66L159.146 183.107L159.15 183.115L159.154 183.123L160.041 182.66ZM159.351 171.77H160.351V170.77H159.351V171.77ZM156.771 171.77H155.771V172.77H156.771V171.77ZM156.771 168.71V167.71H155.771V168.71H156.771ZM159.351 168.71V169.71H160.344L160.351 168.717L159.351 168.71ZM159.381 164.12V163.12H158.387L158.381 164.113L159.381 164.12ZM163.281 164.12L164.281 164.127L164.287 163.12H163.281V164.12ZM163.251 168.71L162.251 168.703L162.244 169.71H163.251V168.71ZM168.291 168.71H169.291V167.71H168.291V168.71ZM168.291 171.77V172.77H169.291V171.77H168.291ZM163.251 171.77V170.77H162.251V171.77H163.251ZM163.881 181.01L163.157 181.7L163.173 181.717L163.19 181.733L163.881 181.01ZM168.291 181.64H169.291V180.64H168.291V181.64ZM168.291 185.21V186.21H169.291V185.21H168.291ZM165.951 184.21C164.526 184.21 163.419 184.028 162.592 183.708L161.869 185.572C163.002 186.012 164.376 186.21 165.951 186.21V184.21ZM162.608 183.714C161.843 183.402 161.295 182.903 160.927 182.197L159.154 183.123C159.746 184.257 160.658 185.078 161.853 185.566L162.608 183.714ZM160.935 182.213C160.572 181.488 160.351 180.403 160.351 178.88H158.351C158.351 180.557 158.589 181.992 159.146 183.107L160.935 182.213ZM160.351 178.88V171.77H158.351V178.88H160.351ZM159.351 170.77H156.771V172.77H159.351V170.77ZM157.771 171.77V168.71H155.771V171.77H157.771ZM156.771 169.71H159.351V167.71H156.771V169.71ZM160.351 168.717L160.381 164.127L158.381 164.113L158.351 168.703L160.351 168.717ZM159.381 165.12H163.281V163.12H159.381V165.12ZM162.281 164.113L162.251 168.703L164.251 168.717L164.281 164.127L162.281 164.113ZM163.251 169.71H168.291V167.71H163.251V169.71ZM167.291 168.71V171.77H169.291V168.71H167.291ZM168.291 170.77H163.251V172.77H168.291V170.77ZM162.251 171.77V179.15H164.251V171.77H162.251ZM162.251 179.15C162.251 180.124 162.509 181.022 163.157 181.7L164.604 180.32C164.412 180.118 164.251 179.776 164.251 179.15H162.251ZM163.19 181.733C163.869 182.381 164.767 182.64 165.741 182.64V180.64C165.114 180.64 164.772 180.479 164.571 180.287L163.19 181.733ZM165.741 182.64H168.291V180.64H165.741V182.64ZM167.291 181.64V185.21H169.291V181.64H167.291ZM168.291 184.21H165.951V186.21H168.291V184.21ZM178.595 185H177.595V186H178.595V185ZM178.595 163.1V162.1H177.595V163.1H178.595ZM185.585 163.1L186.479 162.652L186.202 162.1H185.585V163.1ZM194.795 181.46L193.901 181.908L194.178 182.46H194.795V181.46ZM195.185 181.46V182.46H196.185V181.46H195.185ZM195.185 163.1V162.1H194.185V163.1H195.185ZM199.205 163.1H200.205V162.1H199.205V163.1ZM199.205 185V186H200.205V185H199.205ZM192.185 185L191.291 185.448L191.568 186H192.185V185ZM182.975 166.64L183.869 166.192L183.592 165.64H182.975V166.64ZM182.555 166.64V165.64H181.555V166.64H182.555ZM182.555 185V186H183.555V185H182.555ZM179.595 185V163.1H177.595V185H179.595ZM178.595 164.1H185.585V162.1H178.595V164.1ZM184.691 163.548L193.901 181.908L195.689 181.012L186.479 162.652L184.691 163.548ZM194.795 182.46H195.185V180.46H194.795V182.46ZM196.185 181.46V163.1H194.185V181.46H196.185ZM195.185 164.1H199.205V162.1H195.185V164.1ZM198.205 163.1V185H200.205V163.1H198.205ZM199.205 184H192.185V186H199.205V184ZM193.079 184.552L183.869 166.192L182.081 167.088L191.291 185.448L193.079 184.552ZM182.975 165.64H182.555V167.64H182.975V165.64ZM181.555 166.64V185H183.555V166.64H181.555ZM182.555 184H178.595V186H182.555V184ZM204.611 185H203.611V186H204.611V185ZM204.611 163.1V162.1H203.611V163.1H204.611ZM217.451 163.1H218.451V162.1H217.451V163.1ZM217.451 166.7V167.7H218.451V166.7H217.451ZM208.871 166.7V165.7H207.871V166.7H208.871ZM208.871 172.28H207.871V173.284L208.874 173.28L208.871 172.28ZM217.031 172.25H218.031V171.246L217.027 171.25L217.031 172.25ZM217.031 175.85L217.034 176.85L218.031 176.846V175.85H217.031ZM208.871 175.88L208.867 174.88L207.871 174.884V175.88H208.871ZM208.871 185V186H209.871V185H208.871ZM205.611 185V163.1H203.611V185H205.611ZM204.611 164.1H217.451V162.1H204.611V164.1ZM216.451 163.1V166.7H218.451V163.1H216.451ZM217.451 165.7H208.871V167.7H217.451V165.7ZM207.871 166.7V172.28H209.871V166.7H207.871ZM208.874 173.28L217.034 173.25L217.027 171.25L208.867 171.28L208.874 173.28ZM216.031 172.25V175.85H218.031V172.25H216.031ZM217.027 174.85L208.867 174.88L208.874 176.88L217.034 176.85L217.027 174.85ZM207.871 175.88V185H209.871V175.88H207.871ZM208.871 184H204.611V186H208.871V184ZM225.982 185H224.982V186H225.982V185ZM225.982 166.85H226.982V165.85H225.982V166.85ZM219.652 166.85H218.652V167.85H219.652V166.85ZM219.652 163.1V162.1H218.652V163.1H219.652ZM236.572 163.1H237.572V162.1H236.572V163.1ZM236.572 166.85V167.85H237.572V166.85H236.572ZM230.242 166.85V165.85H229.242V166.85H230.242ZM230.242 185V186H231.242V185H230.242ZM226.982 185V166.85H224.982V185H226.982ZM225.982 165.85H219.652V167.85H225.982V165.85ZM220.652 166.85V163.1H218.652V166.85H220.652ZM219.652 164.1H236.572V162.1H219.652V164.1ZM235.572 163.1V166.85H237.572V163.1H235.572ZM236.572 165.85H230.242V167.85H236.572V165.85ZM229.242 166.85V185H231.242V166.85H229.242ZM230.242 184H225.982V186H230.242V184ZM129.373 222.46L128.842 223.307L128.852 223.314L129.373 222.46ZM126.583 219.46L125.697 219.924L125.703 219.935L126.583 219.46ZM126.553 210.34L125.662 209.887L126.553 210.34ZM129.223 207.34L129.768 208.179L129.771 208.176L129.223 207.34ZM136.423 206.92L135.961 207.807L135.972 207.813L135.984 207.818L136.423 206.92ZM138.733 209.02L137.89 209.558L139.733 212.445V209.02H138.733ZM138.733 201.1V200.1H137.733V201.1H138.733ZM142.903 201.1H143.903V200.1H142.903V201.1ZM142.903 223V224H143.903V223H142.903ZM139.603 223H138.603V224H139.603V223ZM139.603 219.58H140.603L138.683 219.189L139.603 219.58ZM137.113 222.55L136.599 221.692L136.592 221.697L137.113 222.55ZM136.603 219.49L137.071 220.374L137.081 220.368L137.091 220.363L136.603 219.49ZM138.223 217.87L137.366 217.356L137.36 217.365L137.355 217.374L138.223 217.87ZM138.193 211.75L137.35 212.287L137.355 212.296L137.361 212.305L138.193 211.75ZM136.543 210.25L136.075 211.134L136.086 211.139L136.096 211.144L136.543 210.25ZM131.023 211.15L130.278 210.483L130.278 210.484L131.023 211.15ZM131.053 218.65L130.315 219.325L130.323 219.333L131.053 218.65ZM133.423 222.54C132.068 222.54 130.902 222.221 129.894 221.606L128.852 223.314C130.205 224.139 131.738 224.54 133.423 224.54V222.54ZM129.905 221.613C128.875 220.967 128.064 220.097 127.463 218.985L125.703 219.935C126.463 221.343 127.511 222.473 128.842 223.307L129.905 221.613ZM127.469 218.996C126.892 217.894 126.593 216.637 126.593 215.2H124.593C124.593 216.923 124.954 218.506 125.697 219.924L127.469 218.996ZM126.593 215.2V214.57H124.593V215.2H126.593ZM126.593 214.57C126.593 213.151 126.883 211.898 127.445 210.793L125.662 209.887C124.943 211.302 124.593 212.869 124.593 214.57H126.593ZM127.445 210.793C128.008 209.683 128.781 208.819 129.768 208.179L128.679 206.501C127.385 207.341 126.378 208.477 125.662 209.887L127.445 210.793ZM129.771 208.176C130.749 207.536 131.913 207.2 133.303 207.2V205.2C131.574 205.2 130.018 205.624 128.675 206.504L129.771 208.176ZM133.303 207.2C134.322 207.2 135.2 207.41 135.961 207.807L136.886 206.033C135.807 205.47 134.605 205.2 133.303 205.2V207.2ZM135.984 207.818C136.748 208.192 137.382 208.762 137.89 209.558L139.576 208.482C138.884 207.398 137.979 206.568 136.863 206.022L135.984 207.818ZM139.733 209.02V201.1H137.733V209.02H139.733ZM138.733 202.1H142.903V200.1H138.733V202.1ZM141.903 201.1V223H143.903V201.1H141.903ZM142.903 222H139.603V224H142.903V222ZM140.603 223V219.58H138.603V223H140.603ZM138.683 219.189C138.195 220.339 137.496 221.154 136.599 221.693L137.628 223.407C138.93 222.626 139.892 221.461 140.524 219.971L138.683 219.189ZM136.592 221.697C135.683 222.252 134.637 222.54 133.423 222.54V224.54C134.97 224.54 136.384 224.168 137.635 223.403L136.592 221.697ZM134.353 221.03C135.325 221.03 136.238 220.815 137.071 220.374L136.135 218.606C135.609 218.885 135.021 219.03 134.353 219.03V221.03ZM137.091 220.363C137.936 219.891 138.605 219.218 139.092 218.366L137.355 217.374C137.042 217.922 136.631 218.329 136.116 218.617L137.091 220.363ZM139.081 218.384C139.611 217.501 139.853 216.475 139.853 215.35H137.853C137.853 216.185 137.675 216.839 137.366 217.356L139.081 218.384ZM139.853 215.35V214.15H137.853V215.35H139.853ZM139.853 214.15C139.853 213.05 139.594 212.048 139.025 211.195L137.361 212.305C137.673 212.772 137.853 213.37 137.853 214.15H139.853ZM139.037 211.213C138.523 210.405 137.838 209.779 136.991 209.356L136.096 211.144C136.609 211.401 137.024 211.775 137.35 212.287L139.037 211.213ZM137.011 209.366C136.185 208.929 135.294 208.71 134.353 208.71V210.71C134.973 210.71 135.542 210.851 136.075 211.134L137.011 209.366ZM134.353 208.71C132.727 208.71 131.34 209.298 130.278 210.483L131.768 211.817C132.427 211.082 133.26 210.71 134.353 210.71V208.71ZM130.278 210.484C129.237 211.648 128.763 213.155 128.763 214.9H130.763C130.763 213.525 131.129 212.532 131.769 211.816L130.278 210.484ZM128.763 214.9C128.763 216.651 129.251 218.161 130.316 219.325L131.791 217.975C131.136 217.259 130.763 216.269 130.763 214.9H128.763ZM130.323 219.333C131.385 220.469 132.756 221.03 134.353 221.03V219.03C133.27 219.03 132.442 218.671 131.784 217.967L130.323 219.333ZM147.65 223H146.65V224H147.65V223ZM147.65 206.71V205.71H146.65V206.71H147.65ZM150.95 206.71H151.95V205.71H150.95V206.71ZM150.95 212.02H149.95L151.943 212.139L150.95 212.02ZM157.37 206.5H158.37V205.5H157.37V206.5ZM157.37 210.13V211.13H158.37V210.13H157.37ZM152.96 211.27L152.253 210.563L152.96 211.27ZM151.82 223V224H152.82V223H151.82ZM148.65 223V206.71H146.65V223H148.65ZM147.65 207.71H150.95V205.71H147.65V207.71ZM149.95 206.71V212.02H151.95V206.71H149.95ZM151.943 212.139C152.146 210.442 152.677 209.313 153.423 208.606C154.159 207.908 155.23 207.5 156.77 207.5V205.5C154.87 205.5 153.251 206.012 152.047 207.154C150.852 208.287 150.194 209.918 149.957 211.901L151.943 212.139ZM156.77 207.5H157.37V205.5H156.77V207.5ZM156.37 206.5V210.13H158.37V206.5H156.37ZM157.37 209.13H156.23V211.13H157.37V209.13ZM156.23 209.13C154.633 209.13 153.255 209.561 152.253 210.563L153.667 211.977C154.185 211.459 154.987 211.13 156.23 211.13V209.13ZM152.253 210.563C151.253 211.562 150.82 212.928 150.82 214.51H152.82C152.82 213.292 153.146 212.498 153.667 211.977L152.253 210.563ZM150.82 214.51V223H152.82V214.51H150.82ZM151.82 222H147.65V224H151.82V222ZM163.012 222.4L162.494 223.255L162.504 223.261L163.012 222.4ZM159.982 219.28L159.099 219.749L159.105 219.76L159.982 219.28ZM160.012 210.4L159.141 209.91L159.135 209.92L160.012 210.4ZM163.072 207.31L162.569 206.446L162.564 206.449L163.072 207.31ZM172.612 207.31L172.104 208.171L172.109 208.174L172.612 207.31ZM175.672 210.4L174.795 210.88L174.801 210.89L175.672 210.4ZM175.702 219.28L174.825 218.8L174.819 218.811L175.702 219.28ZM172.702 222.4L173.211 223.261L173.221 223.255L172.702 222.4ZM171.352 218.56L170.586 217.918L170.584 217.92L171.352 218.56ZM164.332 218.56L163.558 219.192L163.565 219.201L163.572 219.209L164.332 218.56ZM167.872 222.57C166.087 222.57 164.653 222.208 163.521 221.539L162.504 223.261C164.012 224.152 165.818 224.57 167.872 224.57V222.57ZM163.531 221.545C162.352 220.831 161.47 219.917 160.86 218.8L159.105 219.76C159.895 221.203 161.033 222.369 162.494 223.255L163.531 221.545ZM160.866 218.811C160.262 217.674 159.962 216.475 159.962 215.2H157.962C157.962 216.805 158.343 218.326 159.099 219.749L160.866 218.811ZM159.962 215.2V214.57H157.962V215.2H159.962ZM159.962 214.57C159.962 213.233 160.273 212.008 160.89 210.88L159.135 209.92C158.352 211.352 157.962 212.907 157.962 214.57H159.962ZM160.884 210.89C161.514 209.77 162.406 208.866 163.581 208.171L162.564 206.449C161.099 207.314 159.951 208.47 159.141 209.91L160.884 210.89ZM163.576 208.174C164.735 207.499 166.154 207.14 167.872 207.14V205.14C165.871 205.14 164.09 205.561 162.569 206.446L163.576 208.174ZM167.872 207.14C169.569 207.14 170.966 207.499 172.104 208.171L173.121 206.449C171.619 205.561 169.856 205.14 167.872 205.14V207.14ZM172.109 208.174C173.302 208.869 174.188 209.77 174.795 210.88L176.55 209.92C175.757 208.47 174.603 207.311 173.116 206.446L172.109 208.174ZM174.801 210.89C175.435 212.017 175.752 213.238 175.752 214.57H177.752C177.752 212.902 177.35 211.343 176.544 209.91L174.801 210.89ZM175.752 214.57V215.2H177.752V214.57H175.752ZM175.752 215.2C175.752 216.47 175.446 217.665 174.825 218.8L176.58 219.76C177.359 218.335 177.752 216.81 177.752 215.2H175.752ZM174.819 218.811C174.229 219.921 173.36 220.832 172.184 221.545L173.221 223.255C174.685 222.368 175.815 221.199 176.586 219.749L174.819 218.811ZM172.194 221.539C171.061 222.209 169.636 222.57 167.872 222.57V224.57C169.909 224.57 171.704 224.151 173.211 223.261L172.194 221.539ZM167.872 221C169.619 221 171.09 220.437 172.121 219.2L170.584 217.92C170.015 218.603 169.166 219 167.872 219V221ZM172.119 219.202C173.113 218.014 173.582 216.545 173.582 214.87H171.582C171.582 216.155 171.232 217.146 170.586 217.918L172.119 219.202ZM173.582 214.87C173.582 213.188 173.1 211.717 172.082 210.529L170.563 211.831C171.225 212.603 171.582 213.592 171.582 214.87H173.582ZM172.082 210.529C171.026 209.297 169.582 208.71 167.872 208.71V210.71C169.083 210.71 169.939 211.103 170.563 211.831L172.082 210.529ZM167.872 208.71C166.148 208.71 164.692 209.294 163.633 210.529L165.152 211.831C165.773 211.106 166.637 210.71 167.872 210.71V208.71ZM163.633 210.529C162.615 211.717 162.132 213.188 162.132 214.87H164.132C164.132 213.592 164.49 212.603 165.152 211.831L163.633 210.529ZM162.132 214.87C162.132 216.539 162.588 218.004 163.558 219.192L165.107 217.928C164.477 217.156 164.132 216.161 164.132 214.87H162.132ZM163.572 219.209C164.623 220.44 166.11 221 167.872 221V219C166.555 219 165.682 218.6 165.093 217.911L163.572 219.209ZM180.404 229H179.404V230H180.404V229ZM180.404 206.71V205.71H179.404V206.71H180.404ZM183.704 206.71H184.704V205.71H183.704V206.71ZM183.704 210.79H182.704L184.654 211.102L183.704 210.79ZM186.164 207.37L186.719 208.202L186.728 208.195L186.164 207.37ZM194.084 207.31L193.533 208.144L193.539 208.149L194.084 207.31ZM196.754 210.31L195.862 210.763L195.865 210.769L196.754 210.31ZM196.784 219.4L197.681 219.842L197.684 219.836L196.784 219.4ZM194.144 222.43L194.688 223.269L194.699 223.262L194.144 222.43ZM186.944 222.91L186.527 223.819L186.535 223.823L186.543 223.826L186.944 222.91ZM184.574 220.84L185.409 220.289L183.574 217.508V220.84H184.574ZM184.574 229V230H185.574V229H184.574ZM192.284 218.59L191.525 217.939L191.523 217.941L192.284 218.59ZM192.284 211.12L191.53 211.777L191.538 211.786L192.284 211.12ZM186.764 210.28L187.221 211.169L187.231 211.164L187.241 211.159L186.764 210.28ZM185.084 211.87L185.935 212.396L185.941 212.384L185.084 211.87ZM185.114 217.99L184.274 218.533L184.282 218.545L185.114 217.99ZM186.824 219.52L186.366 220.409L186.377 220.415L186.387 220.42L186.824 219.52ZM181.404 229V206.71H179.404V229H181.404ZM180.404 207.71H183.704V205.71H180.404V207.71ZM182.704 206.71V210.79H184.704V206.71H182.704ZM184.654 211.102C185.096 209.758 185.795 208.818 186.719 208.202L185.609 206.538C184.253 207.442 183.312 208.782 182.754 210.478L184.654 211.102ZM186.728 208.195C187.69 207.537 188.8 207.2 190.094 207.2V205.2C188.427 205.2 186.918 205.643 185.599 206.545L186.728 208.195ZM190.094 207.2C191.467 207.2 192.599 207.528 193.533 208.144L194.635 206.476C193.328 205.612 191.8 205.2 190.094 205.2V207.2ZM193.539 208.149C194.526 208.789 195.299 209.653 195.862 210.763L197.645 209.857C196.929 208.447 195.922 207.311 194.628 206.471L193.539 208.149ZM195.865 210.769C196.424 211.851 196.714 213.091 196.714 214.51H198.714C198.714 212.809 198.364 211.249 197.642 209.851L195.865 210.769ZM196.714 214.51V215.14H198.714V214.51H196.714ZM196.714 215.14C196.714 216.564 196.432 217.833 195.884 218.964L197.684 219.836C198.376 218.407 198.714 216.836 198.714 215.14H196.714ZM195.887 218.958C195.342 220.065 194.579 220.938 193.589 221.598L194.699 223.262C195.989 222.402 196.985 221.255 197.681 219.842L195.887 218.958ZM193.599 221.591C192.644 222.211 191.49 222.54 190.094 222.54V224.54C191.818 224.54 193.363 224.129 194.688 223.269L193.599 221.591ZM190.094 222.54C189.079 222.54 188.167 222.354 187.345 221.994L186.543 223.826C187.64 224.306 188.828 224.54 190.094 224.54V222.54ZM187.36 222.001C186.582 221.644 185.933 221.084 185.409 220.289L183.739 221.391C184.455 222.476 185.386 223.296 186.527 223.819L187.36 222.001ZM183.574 220.84V229H185.574V220.84H183.574ZM184.574 228H180.404V230H184.574V228ZM189.044 221.03C190.656 221.03 192.021 220.437 193.044 219.239L191.523 217.941C190.906 218.663 190.112 219.03 189.044 219.03V221.03ZM193.043 219.241C194.065 218.048 194.544 216.554 194.544 214.84H192.544C192.544 216.166 192.182 217.172 191.525 217.939L193.043 219.241ZM194.544 214.84C194.544 213.111 194.068 211.615 193.029 210.454L191.538 211.786C192.18 212.505 192.544 213.489 192.544 214.84H194.544ZM193.037 210.463C192.012 209.287 190.648 208.71 189.044 208.71V210.71C190.119 210.71 190.916 211.073 191.53 211.777L193.037 210.463ZM189.044 208.71C188.062 208.71 187.138 208.939 186.287 209.401L187.241 211.159C187.79 210.861 188.385 210.71 189.044 210.71V208.71ZM186.306 209.391C185.434 209.839 184.738 210.502 184.226 211.356L185.941 212.384C186.269 211.838 186.693 211.441 187.221 211.169L186.306 209.391ZM184.233 211.345C183.696 212.215 183.454 213.236 183.454 214.36H185.454C185.454 213.524 185.632 212.885 185.935 212.395L184.233 211.345ZM183.454 214.36V215.56H185.454V214.36H183.454ZM183.454 215.56C183.454 216.661 183.714 217.667 184.274 218.533L185.953 217.447C185.634 216.953 185.454 216.339 185.454 215.56H183.454ZM184.282 218.545C184.815 219.345 185.514 219.971 186.366 220.409L187.281 218.631C186.734 218.349 186.292 217.955 185.946 217.435L184.282 218.545ZM186.387 220.42C187.223 220.826 188.113 221.03 189.044 221.03V219.03C188.415 219.03 187.824 218.894 187.261 218.62L186.387 220.42ZM210.825 222.4L210.307 223.255L210.316 223.261L210.825 222.4ZM207.795 219.28L206.912 219.749L206.918 219.76L207.795 219.28ZM207.825 210.4L206.953 209.91L206.948 209.92L207.825 210.4ZM210.885 207.31L210.382 206.446L210.376 206.449L210.885 207.31ZM220.425 207.31L219.916 208.171L219.922 208.174L220.425 207.31ZM223.485 210.4L222.608 210.88L222.613 210.89L223.485 210.4ZM223.515 219.28L222.638 218.8L222.632 218.811L223.515 219.28ZM220.515 222.4L221.024 223.261L221.033 223.255L220.515 222.4ZM219.165 218.56L218.398 217.918L218.397 217.92L219.165 218.56ZM212.145 218.56L211.37 219.192L211.377 219.201L211.385 219.209L212.145 218.56ZM215.685 222.57C213.899 222.57 212.465 222.208 211.334 221.539L210.316 223.261C211.825 224.152 213.631 224.57 215.685 224.57V222.57ZM211.343 221.545C210.165 220.831 209.283 219.917 208.672 218.8L206.918 219.76C207.707 221.203 208.845 222.369 210.307 223.255L211.343 221.545ZM208.678 218.811C208.074 217.674 207.775 216.475 207.775 215.2H205.775C205.775 216.805 206.156 218.326 206.912 219.749L208.678 218.811ZM207.775 215.2V214.57H205.775V215.2H207.775ZM207.775 214.57C207.775 213.233 208.085 212.008 208.702 210.88L206.948 209.92C206.165 211.352 205.775 212.907 205.775 214.57H207.775ZM208.697 210.89C209.326 209.77 210.218 208.866 211.394 208.171L210.376 206.449C208.912 207.314 207.764 208.47 206.953 209.91L208.697 210.89ZM211.388 208.174C212.547 207.499 213.966 207.14 215.685 207.14V205.14C213.684 205.14 211.903 205.561 210.382 206.446L211.388 208.174ZM215.685 207.14C217.382 207.14 218.779 207.499 219.916 208.171L220.934 206.449C219.431 205.561 217.668 205.14 215.685 205.14V207.14ZM219.922 208.174C221.115 208.869 222.001 209.77 222.608 210.88L224.362 209.92C223.569 208.47 222.415 207.311 220.928 206.446L219.922 208.174ZM222.613 210.89C223.247 212.017 223.565 213.238 223.565 214.57H225.565C225.565 212.902 225.163 211.343 224.357 209.91L222.613 210.89ZM223.565 214.57V215.2H225.565V214.57H223.565ZM223.565 215.2C223.565 216.47 223.258 217.665 222.638 218.8L224.392 219.76C225.172 218.335 225.565 216.81 225.565 215.2H223.565ZM222.632 218.811C222.042 219.921 221.173 220.832 219.997 221.545L221.033 223.255C222.497 222.368 223.628 221.199 224.398 219.749L222.632 218.811ZM220.006 221.539C218.873 222.209 217.449 222.57 215.685 222.57V224.57C217.721 224.57 219.517 224.151 221.024 223.261L220.006 221.539ZM215.685 221C217.431 221 218.902 220.437 219.933 219.2L218.397 217.92C217.828 218.603 216.979 219 215.685 219V221ZM219.932 219.202C220.926 218.014 221.395 216.545 221.395 214.87H219.395C219.395 216.155 219.044 217.146 218.398 217.918L219.932 219.202ZM221.395 214.87C221.395 213.188 220.912 211.717 219.894 210.529L218.376 211.831C219.038 212.603 219.395 213.592 219.395 214.87H221.395ZM219.894 210.529C218.838 209.297 217.394 208.71 215.685 208.71V210.71C216.896 210.71 217.752 211.103 218.376 211.831L219.894 210.529ZM215.685 208.71C213.961 208.71 212.505 209.294 211.446 210.529L212.964 211.831C213.585 211.106 214.449 210.71 215.685 210.71V208.71ZM211.446 210.529C210.428 211.717 209.945 213.188 209.945 214.87H211.945C211.945 213.592 212.302 212.603 212.964 211.831L211.446 210.529ZM209.945 214.87C209.945 216.539 210.401 218.004 211.37 219.192L212.92 217.928C212.289 217.156 211.945 216.161 211.945 214.87H209.945ZM211.385 219.209C212.436 220.44 213.923 221 215.685 221V219C214.367 219 213.494 218.6 212.905 217.911L211.385 219.209ZM228.606 223H227.606V224H228.606V223ZM228.606 210.04H229.606V209.04H228.606V210.04ZM226.566 210.04H225.566V211.04H226.566V210.04ZM226.566 206.98V205.98H225.566V206.98H226.566ZM228.606 206.98V207.98H229.606V206.98H228.606ZM230.136 202.21L230.79 202.967L230.791 202.966L230.136 202.21ZM236.766 200.86H237.766V199.86H236.766V200.86ZM236.766 204.07V205.07H237.766V204.07H236.766ZM232.986 204.58L233.693 205.287L232.986 204.58ZM232.506 206.98H231.506V207.98H232.506V206.98ZM237.036 206.98H238.036V205.98H237.036V206.98ZM237.036 210.04V211.04H238.036V210.04H237.036ZM232.506 210.04V209.04H231.506V210.04H232.506ZM232.506 223V224H233.506V223H232.506ZM229.606 223V210.04H227.606V223H229.606ZM228.606 209.04H226.566V211.04H228.606V209.04ZM227.566 210.04V206.98H225.566V210.04H227.566ZM226.566 207.98H228.606V205.98H226.566V207.98ZM229.606 206.98V206.32H227.606V206.98H229.606ZM229.606 206.32C229.606 204.635 230.064 203.593 230.79 202.967L229.483 201.453C228.168 202.587 227.606 204.285 227.606 206.32H229.606ZM230.791 202.966C231.58 202.283 232.837 201.86 234.726 201.86V199.86C232.576 199.86 230.772 200.337 229.482 201.454L230.791 202.966ZM234.726 201.86H236.766V199.86H234.726V201.86ZM235.766 200.86V204.07H237.766V200.86H235.766ZM236.766 203.07H234.426V205.07H236.766V203.07ZM234.426 203.07C233.621 203.07 232.857 203.295 232.279 203.873L233.693 205.287C233.796 205.185 233.991 205.07 234.426 205.07V203.07ZM232.279 203.873C231.717 204.435 231.506 205.184 231.506 205.96H233.506C233.506 205.536 233.616 205.365 233.693 205.287L232.279 203.873ZM231.506 205.96V206.98H233.506V205.96H231.506ZM232.506 207.98H237.036V205.98H232.506V207.98ZM236.036 206.98V210.04H238.036V206.98H236.036ZM237.036 209.04H232.506V211.04H237.036V209.04ZM231.506 210.04V223H233.506V210.04H231.506ZM232.506 222H228.606V224H232.506V222ZM105.089 261H104.089V262H105.089V261ZM105.089 239.1V238.1H104.089V239.1H105.089ZM118.349 239.1H119.349V238.1H118.349V239.1ZM118.349 242.7V243.7H119.349V242.7H118.349ZM109.259 242.7V241.7H108.259V242.7H109.259ZM109.259 248.07H108.259V249.07H109.259V248.07ZM117.809 248.07H118.809V247.07H117.809V248.07ZM117.809 251.67V252.67H118.809V251.67H117.809ZM109.259 251.67V250.67H108.259V251.67H109.259ZM109.259 257.4H108.259V258.4H109.259V257.4ZM118.589 257.4H119.589V256.4H118.589V257.4ZM118.589 261V262H119.589V261H118.589ZM106.089 261V239.1H104.089V261H106.089ZM105.089 240.1H118.349V238.1H105.089V240.1ZM117.349 239.1V242.7H119.349V239.1H117.349ZM118.349 241.7H109.259V243.7H118.349V241.7ZM108.259 242.7V248.07H110.259V242.7H108.259ZM109.259 249.07H117.809V247.07H109.259V249.07ZM116.809 248.07V251.67H118.809V248.07H116.809ZM117.809 250.67H109.259V252.67H117.809V250.67ZM108.259 251.67V257.4H110.259V251.67H108.259ZM109.259 258.4H118.589V256.4H109.259V258.4ZM117.589 257.4V261H119.589V257.4H117.589ZM118.589 260H105.089V262H118.589V260ZM125.99 260.64L125.612 261.566L125.621 261.569L125.629 261.572L125.99 260.64ZM123.8 258.66L122.906 259.107L122.91 259.115L122.914 259.123L123.8 258.66ZM123.11 247.77H124.11V246.77H123.11V247.77ZM120.53 247.77H119.53V248.77H120.53V247.77ZM120.53 244.71V243.71H119.53V244.71H120.53ZM123.11 244.71V245.71H124.104L124.11 244.717L123.11 244.71ZM123.14 240.12V239.12H122.147L122.14 240.113L123.14 240.12ZM127.04 240.12L128.04 240.127L128.047 239.12H127.04V240.12ZM127.01 244.71L126.01 244.703L126.004 245.71H127.01V244.71ZM132.05 244.71H133.05V243.71H132.05V244.71ZM132.05 247.77V248.77H133.05V247.77H132.05ZM127.01 247.77V246.77H126.01V247.77H127.01ZM127.64 257.01L126.917 257.7L126.933 257.717L126.95 257.733L127.64 257.01ZM132.05 257.64H133.05V256.64H132.05V257.64ZM132.05 261.21V262.21H133.05V261.21H132.05ZM129.71 260.21C128.285 260.21 127.179 260.028 126.352 259.708L125.629 261.572C126.762 262.012 128.135 262.21 129.71 262.21V260.21ZM126.368 259.714C125.602 259.402 125.055 258.903 124.687 258.197L122.914 259.123C123.506 260.257 124.418 261.078 125.612 261.566L126.368 259.714ZM124.695 258.213C124.332 257.488 124.11 256.403 124.11 254.88H122.11C122.11 256.557 122.349 257.992 122.906 259.107L124.695 258.213ZM124.11 254.88V247.77H122.11V254.88H124.11ZM123.11 246.77H120.53V248.77H123.11V246.77ZM121.53 247.77V244.71H119.53V247.77H121.53ZM120.53 245.71H123.11V243.71H120.53V245.71ZM124.11 244.717L124.14 240.127L122.14 240.113L122.11 244.703L124.11 244.717ZM123.14 241.12H127.04V239.12H123.14V241.12ZM126.04 240.113L126.01 244.703L128.01 244.717L128.04 240.127L126.04 240.113ZM127.01 245.71H132.05V243.71H127.01V245.71ZM131.05 244.71V247.77H133.05V244.71H131.05ZM132.05 246.77H127.01V248.77H132.05V246.77ZM126.01 247.77V255.15H128.01V247.77H126.01ZM126.01 255.15C126.01 256.124 126.269 257.022 126.917 257.7L128.364 256.32C128.172 256.118 128.01 255.776 128.01 255.15H126.01ZM126.95 257.733C127.629 258.381 128.527 258.64 129.5 258.64V256.64C128.874 256.64 128.532 256.479 128.331 256.287L126.95 257.733ZM129.5 258.64H132.05V256.64H129.5V258.64ZM131.05 257.64V261.21H133.05V257.64H131.05ZM132.05 260.21H129.71V262.21H132.05V260.21ZM135.55 261H134.55V262H135.55V261ZM135.55 239.1V238.1H134.55V239.1H135.55ZM139.72 239.1H140.72V238.1H139.72V239.1ZM139.72 247.44H138.72L140.648 247.814L139.72 247.44ZM141.58 245.04L141.016 244.214L141.58 245.04ZM149.08 246.15L148.276 246.744L148.28 246.75L149.08 246.15ZM150.52 261V262H151.52V261H150.52ZM146.35 261H145.35V262H146.35V261ZM145.45 248.85L144.731 249.545L144.737 249.551L144.743 249.557L145.45 248.85ZM140.65 248.97L141.379 249.655L141.384 249.649L141.389 249.644L140.65 248.97ZM139.72 261V262H140.72V261H139.72ZM136.55 261V239.1H134.55V261H136.55ZM135.55 240.1H139.72V238.1H135.55V240.1ZM138.72 239.1V247.44H140.72V239.1H138.72ZM140.648 247.814C141.004 246.933 141.508 246.3 142.144 245.866L141.016 244.214C140.013 244.9 139.277 245.867 138.793 247.066L140.648 247.814ZM142.144 245.866C142.761 245.445 143.581 245.2 144.67 245.2V243.2C143.279 243.2 142.04 243.515 141.016 244.214L142.144 245.866ZM144.67 245.2H144.85V243.2H144.67V245.2ZM144.85 245.2C146.448 245.2 147.535 245.74 148.276 246.744L149.885 245.556C148.706 243.96 146.973 243.2 144.85 243.2V245.2ZM148.28 246.75C149.059 247.788 149.52 249.391 149.52 251.7H151.52C151.52 249.169 151.021 247.072 149.88 245.55L148.28 246.75ZM149.52 251.7V261H151.52V251.7H149.52ZM150.52 260H146.35V262H150.52V260ZM147.35 261V251.31H145.35V261H147.35ZM147.35 251.31C147.35 250.068 146.986 248.971 146.157 248.143L144.743 249.557C145.115 249.929 145.35 250.472 145.35 251.31H147.35ZM146.169 248.155C145.372 247.33 144.327 246.95 143.14 246.95V248.95C143.874 248.95 144.369 249.17 144.731 249.545L146.169 248.155ZM143.14 246.95C141.86 246.95 140.746 247.38 139.911 248.296L141.389 249.644C141.794 249.2 142.341 248.95 143.14 248.95V246.95ZM139.921 248.285C139.095 249.166 138.72 250.298 138.72 251.58H140.72C140.72 250.702 140.966 250.094 141.379 249.655L139.921 248.285ZM138.72 251.58V261H140.72V251.58H138.72ZM139.72 260H135.55V262H139.72V260ZM158.543 260.85L158.962 259.942L158.543 260.85ZM155.963 258.93L156.725 258.282L155.963 258.93ZM154.433 256.23L153.487 256.552L154.433 256.23ZM154.433 249.48L153.49 249.147L153.487 249.158L154.433 249.48ZM155.993 246.75L155.241 246.091L155.236 246.097L155.231 246.102L155.993 246.75ZM158.573 244.86L158.985 245.772L158.992 245.768L158.573 244.86ZM165.983 244.98L165.53 245.871L165.539 245.876L165.549 245.881L165.983 244.98ZM168.653 247.26L167.824 247.819L167.832 247.83L168.653 247.26ZM169.823 250.68V251.68H170.903L170.82 250.603L169.823 250.68ZM165.773 250.68L164.783 250.821L164.906 251.68H165.773V250.68ZM164.693 248.58L165.376 247.849L164.693 248.58ZM159.083 249.18L158.267 248.602L158.259 248.613L159.083 249.18ZM159.053 256.53L158.216 257.077L158.223 257.087L158.229 257.097L159.053 256.53ZM164.783 257.13L164.125 256.377L164.119 256.383L164.113 256.388L164.783 257.13ZM165.923 254.94V253.94H165.048L164.932 254.808L165.923 254.94ZM169.973 254.94L170.972 255L171.036 253.94H169.973V254.94ZM168.803 258.42L167.984 257.846L167.976 257.858L168.803 258.42ZM166.073 260.76L166.501 261.664L166.508 261.661L166.514 261.658L166.073 260.76ZM162.233 260.57C160.924 260.57 159.844 260.349 158.962 259.942L158.124 261.758C159.323 262.311 160.702 262.57 162.233 262.57V260.57ZM158.962 259.942C158.042 259.517 157.303 258.962 156.725 258.282L155.201 259.578C155.984 260.498 156.965 261.223 158.124 261.758L158.962 259.942ZM156.725 258.282C156.127 257.579 155.68 256.79 155.38 255.908L153.487 256.552C153.867 257.67 154.439 258.681 155.201 259.578L156.725 258.282ZM155.38 255.908C155.075 255.01 154.923 254.099 154.923 253.17H152.923C152.923 254.321 153.112 255.45 153.487 256.552L155.38 255.908ZM154.923 253.17V252.6H152.923V253.17H154.923ZM154.923 252.6C154.923 251.627 155.076 250.696 155.38 249.802L153.487 249.158C153.111 250.264 152.923 251.413 152.923 252.6H154.923ZM155.376 249.813C155.697 248.904 156.157 248.102 156.755 247.398L155.231 246.102C154.47 246.998 153.89 248.016 153.49 249.147L155.376 249.813ZM156.746 247.409C157.347 246.722 158.088 246.176 158.985 245.772L158.162 243.948C157.019 244.464 156.04 245.178 155.241 246.091L156.746 247.409ZM158.992 245.768C159.877 245.36 160.939 245.14 162.203 245.14V243.14C160.708 243.14 159.35 243.4 158.154 243.952L158.992 245.768ZM162.203 245.14C163.49 245.14 164.59 245.393 165.53 245.871L166.437 244.089C165.177 243.447 163.757 243.14 162.203 243.14V245.14ZM165.549 245.881C166.518 246.348 167.268 246.993 167.824 247.819L169.483 246.701C168.719 245.567 167.689 244.692 166.418 244.079L165.549 245.881ZM167.832 247.83C168.401 248.651 168.739 249.617 168.826 250.757L170.82 250.603C170.708 249.143 170.266 247.829 169.475 246.69L167.832 247.83ZM169.823 249.68H165.773V251.68H169.823V249.68ZM166.763 250.539C166.612 249.481 166.149 248.57 165.376 247.849L164.011 249.311C164.438 249.71 164.695 250.199 164.783 250.821L166.763 250.539ZM165.376 247.849C164.541 247.07 163.44 246.74 162.203 246.74V248.74C163.086 248.74 163.645 248.97 164.011 249.311L165.376 247.849ZM162.203 246.74C160.549 246.74 159.172 247.325 158.267 248.602L159.899 249.758C160.355 249.115 161.058 248.74 162.203 248.74V246.74ZM158.259 248.613C157.456 249.782 157.093 251.226 157.093 252.87H159.093C159.093 251.514 159.391 250.498 159.907 249.747L158.259 248.613ZM157.093 252.87C157.093 254.476 157.446 255.898 158.216 257.077L159.891 255.983C159.38 255.202 159.093 254.184 159.093 252.87H157.093ZM158.229 257.097C159.123 258.397 160.538 258.97 162.233 258.97V256.97C161.009 256.97 160.303 256.583 159.877 255.963L158.229 257.097ZM162.233 258.97C163.486 258.97 164.601 258.642 165.454 257.872L164.113 256.388C163.726 256.738 163.14 256.97 162.233 256.97V258.97ZM165.442 257.883C166.277 257.152 166.765 256.195 166.915 255.072L164.932 254.808C164.842 255.485 164.569 255.988 164.125 256.377L165.442 257.883ZM165.923 255.94H169.973V253.94H165.923V255.94ZM168.975 254.88C168.905 256.031 168.57 257.01 167.984 257.847L169.623 258.993C170.437 257.83 170.881 256.489 170.972 255L168.975 254.88ZM167.976 257.858C167.399 258.707 166.625 259.375 165.633 259.862L166.514 261.658C167.802 261.025 168.848 260.133 169.63 258.982L167.976 257.858ZM165.645 259.856C164.655 260.325 163.524 260.57 162.233 260.57V262.57C163.783 262.57 165.212 262.275 166.501 261.664L165.645 259.856ZM173.524 261H172.524V262H173.524V261ZM173.524 242.22H174.524V241.22H173.524V242.22ZM171.484 242.22H170.484V243.22H171.484V242.22ZM171.484 239.1V238.1H170.484V239.1H171.484ZM177.694 239.1H178.694V238.1H177.694V239.1ZM177.694 261V262H178.694V261H177.694ZM174.524 261V242.22H172.524V261H174.524ZM173.524 241.22H171.484V243.22H173.524V241.22ZM172.484 242.22V239.1H170.484V242.22H172.484ZM171.484 240.1H177.694V238.1H171.484V240.1ZM176.694 239.1V261H178.694V239.1H176.694ZM177.694 260H173.524V262H177.694V260ZM185.425 260.4L184.906 261.255L184.916 261.261L185.425 260.4ZM182.395 257.28L181.511 257.749L181.517 257.76L182.395 257.28ZM182.425 248.4L181.553 247.91L181.547 247.92L182.425 248.4ZM185.485 245.31L184.982 244.446L184.976 244.449L185.485 245.31ZM195.025 245.31L194.516 246.171L194.522 246.174L195.025 245.31ZM198.085 248.4L197.207 248.88L197.213 248.89L198.085 248.4ZM198.115 257.28L197.237 256.8L197.231 256.811L198.115 257.28ZM195.115 260.4L195.623 261.261L195.633 261.255L195.115 260.4ZM193.765 256.56L192.998 255.918L192.996 255.92L193.765 256.56ZM186.745 256.56L185.97 257.192L185.977 257.201L185.984 257.209L186.745 256.56ZM190.285 260.57C188.499 260.57 187.065 260.208 185.933 259.539L184.916 261.261C186.424 262.152 188.23 262.57 190.285 262.57V260.57ZM185.943 259.545C184.764 258.831 183.882 257.917 183.272 256.8L181.517 257.76C182.307 259.203 183.445 260.369 184.906 261.255L185.943 259.545ZM183.278 256.811C182.674 255.674 182.375 254.475 182.375 253.2H180.375C180.375 254.805 180.755 256.326 181.511 257.749L183.278 256.811ZM182.375 253.2V252.57H180.375V253.2H182.375ZM182.375 252.57C182.375 251.233 182.685 250.008 183.302 248.88L181.547 247.92C180.764 249.352 180.375 250.907 180.375 252.57H182.375ZM183.296 248.89C183.926 247.77 184.818 246.866 185.993 246.171L184.976 244.449C183.511 245.314 182.363 246.47 181.553 247.91L183.296 248.89ZM185.988 246.174C187.147 245.499 188.566 245.14 190.285 245.14V243.14C188.283 243.14 186.502 243.561 184.982 244.446L185.988 246.174ZM190.285 245.14C191.982 245.14 193.378 245.499 194.516 246.171L195.533 244.449C194.031 243.561 192.268 243.14 190.285 243.14V245.14ZM194.522 246.174C195.714 246.869 196.6 247.77 197.207 248.88L198.962 247.92C198.169 246.47 197.015 245.311 195.528 244.446L194.522 246.174ZM197.213 248.89C197.847 250.017 198.165 251.238 198.165 252.57H200.165C200.165 250.902 199.762 249.343 198.956 247.91L197.213 248.89ZM198.165 252.57V253.2H200.165V252.57H198.165ZM198.165 253.2C198.165 254.47 197.858 255.665 197.237 256.8L198.992 257.76C199.771 256.335 200.165 254.81 200.165 253.2H198.165ZM197.231 256.811C196.642 257.921 195.773 258.832 194.596 259.545L195.633 261.255C197.097 260.368 198.228 259.199 198.998 257.749L197.231 256.811ZM194.606 259.539C193.473 260.209 192.048 260.57 190.285 260.57V262.57C192.321 262.57 194.116 262.151 195.623 261.261L194.606 259.539ZM190.285 259C192.031 259 193.502 258.437 194.533 257.2L192.996 255.92C192.427 256.603 191.578 257 190.285 257V259ZM194.532 257.202C195.525 256.014 195.995 254.545 195.995 252.87H193.995C193.995 254.155 193.644 255.146 192.998 255.918L194.532 257.202ZM195.995 252.87C195.995 251.188 195.512 249.717 194.494 248.529L192.975 249.831C193.637 250.603 193.995 251.592 193.995 252.87H195.995ZM194.494 248.529C193.438 247.297 191.994 246.71 190.285 246.71V248.71C191.495 248.71 192.352 249.103 192.975 249.831L194.494 248.529ZM190.285 246.71C188.56 246.71 187.104 247.294 186.045 248.529L187.564 249.831C188.185 249.106 189.049 248.71 190.285 248.71V246.71ZM186.045 248.529C185.027 249.717 184.545 251.188 184.545 252.87H186.545C186.545 251.592 186.902 250.603 187.564 249.831L186.045 248.529ZM184.545 252.87C184.545 254.539 185 256.004 185.97 257.192L187.519 255.928C186.889 255.156 186.545 254.161 186.545 252.87H184.545ZM185.984 257.209C187.036 258.44 188.522 259 190.285 259V257C188.967 257 188.094 256.6 187.505 255.911L185.984 257.209ZM206.356 260.85L206.775 259.942L206.356 260.85ZM203.776 258.93L204.538 258.282L203.776 258.93ZM202.246 256.23L201.299 256.552L202.246 256.23ZM202.246 249.48L201.303 249.147L201.299 249.158L202.246 249.48ZM203.806 246.75L203.053 246.091L203.049 246.097L203.044 246.102L203.806 246.75ZM206.386 244.86L206.797 245.772L206.805 245.768L206.386 244.86ZM213.796 244.98L213.342 245.871L213.352 245.876L213.362 245.881L213.796 244.98ZM216.466 247.26L215.636 247.819L215.644 247.83L216.466 247.26ZM217.636 250.68V251.68H218.716L218.633 250.603L217.636 250.68ZM213.586 250.68L212.596 250.821L212.719 251.68H213.586V250.68ZM212.506 248.58L213.188 247.849L212.506 248.58ZM206.896 249.18L206.08 248.602L206.072 248.613L206.896 249.18ZM206.866 256.53L206.029 257.077L206.035 257.087L206.042 257.097L206.866 256.53ZM212.596 257.13L211.937 256.377L211.931 256.383L211.926 256.388L212.596 257.13ZM213.736 254.94V253.94H212.86L212.745 254.808L213.736 254.94ZM217.786 254.94L218.784 255L218.848 253.94H217.786V254.94ZM216.616 258.42L215.797 257.846L215.789 257.858L216.616 258.42ZM213.886 260.76L214.314 261.664L214.32 261.661L214.327 261.658L213.886 260.76ZM210.046 260.57C208.737 260.57 207.656 260.349 206.775 259.942L205.937 261.758C207.136 262.311 208.515 262.57 210.046 262.57V260.57ZM206.775 259.942C205.855 259.517 205.116 258.962 204.538 258.282L203.014 259.578C203.796 260.498 204.777 261.223 205.937 261.758L206.775 259.942ZM204.538 258.282C203.94 257.579 203.492 256.79 203.193 255.908L201.299 256.552C201.679 257.67 202.252 258.681 203.014 259.578L204.538 258.282ZM203.193 255.908C202.887 255.01 202.736 254.099 202.736 253.17H200.736C200.736 254.321 200.924 255.45 201.299 256.552L203.193 255.908ZM202.736 253.17V252.6H200.736V253.17H202.736ZM202.736 252.6C202.736 251.627 202.889 250.696 203.193 249.802L201.299 249.158C200.923 250.264 200.736 251.413 200.736 252.6H202.736ZM203.189 249.813C203.51 248.904 203.969 248.102 204.568 247.398L203.044 246.102C202.283 246.998 201.702 248.016 201.303 249.147L203.189 249.813ZM204.558 247.409C205.159 246.722 205.901 246.176 206.797 245.772L205.975 243.948C204.831 244.464 203.853 245.178 203.053 246.091L204.558 247.409ZM206.805 245.768C207.689 245.36 208.751 245.14 210.016 245.14V243.14C208.52 243.14 207.162 243.4 205.967 243.952L206.805 245.768ZM210.016 245.14C211.302 245.14 212.403 245.393 213.342 245.871L214.25 244.089C212.989 243.447 211.57 243.14 210.016 243.14V245.14ZM213.362 245.881C214.331 246.348 215.081 246.993 215.636 247.819L217.295 246.701C216.531 245.567 215.501 244.692 214.23 244.079L213.362 245.881ZM215.644 247.83C216.214 248.651 216.551 249.617 216.639 250.757L218.633 250.603C218.521 249.143 218.078 247.829 217.287 246.69L215.644 247.83ZM217.636 249.68H213.586V251.68H217.636V249.68ZM214.576 250.539C214.425 249.481 213.961 248.57 213.188 247.849L211.824 249.311C212.251 249.71 212.507 250.199 212.596 250.821L214.576 250.539ZM213.188 247.849C212.354 247.07 211.253 246.74 210.016 246.74V248.74C210.899 248.74 211.458 248.97 211.824 249.311L213.188 247.849ZM210.016 246.74C208.362 246.74 206.985 247.325 206.08 248.602L207.712 249.758C208.167 249.115 208.87 248.74 210.016 248.74V246.74ZM206.072 248.613C205.268 249.782 204.906 251.226 204.906 252.87H206.906C206.906 251.514 207.203 250.498 207.72 249.747L206.072 248.613ZM204.906 252.87C204.906 254.476 205.259 255.898 206.029 257.077L207.703 255.983C207.193 255.202 206.906 254.184 206.906 252.87H204.906ZM206.042 257.097C206.936 258.397 208.351 258.97 210.046 258.97V256.97C208.821 256.97 208.116 256.583 207.69 255.963L206.042 257.097ZM210.046 258.97C211.299 258.97 212.414 258.642 213.266 257.872L211.926 256.388C211.538 256.738 210.953 256.97 210.046 256.97V258.97ZM213.254 257.883C214.09 257.152 214.577 256.195 214.727 255.072L212.745 254.808C212.654 255.485 212.382 255.988 211.937 256.377L213.254 257.883ZM213.736 255.94H217.786V253.94H213.736V255.94ZM216.788 254.88C216.718 256.031 216.382 257.01 215.797 257.847L217.435 258.993C218.25 257.83 218.694 256.489 218.784 255L216.788 254.88ZM215.789 257.858C215.211 258.707 214.438 259.375 213.445 259.862L214.327 261.658C215.614 261.025 216.66 260.133 217.443 258.982L215.789 257.858ZM213.458 259.856C212.468 260.325 211.337 260.57 210.046 260.57V262.57C211.595 262.57 213.024 262.275 214.314 261.664L213.458 259.856ZM221.126 261H220.126V262H221.126V261ZM221.126 239.1V238.1H220.126V239.1H221.126ZM225.296 239.1H226.296V238.1H225.296V239.1ZM225.296 252.57H224.296V255.427L226.078 253.194L225.296 252.57ZM231.566 244.71V243.71H231.085L230.785 244.086L231.566 244.71ZM235.916 244.71L236.697 245.335L237.998 243.71H235.916V244.71ZM230.366 251.64L229.586 251.015L229.107 251.613L229.56 252.232L230.366 251.64ZM237.236 261V262H239.211L238.043 260.408L237.236 261ZM232.526 261L231.714 261.582L232.013 262H232.526V261ZM227.066 253.38L227.879 252.798L227.58 252.38H227.066V253.38ZM225.296 253.38V252.38H224.296V253.38H225.296ZM225.296 261V262H226.296V261H225.296ZM222.126 261V239.1H220.126V261H222.126ZM221.126 240.1H225.296V238.1H221.126V240.1ZM224.296 239.1V252.57H226.296V239.1H224.296ZM226.078 253.194L232.348 245.334L230.785 244.086L224.515 251.946L226.078 253.194ZM231.566 245.71H235.916V243.71H231.566V245.71ZM235.136 244.085L229.586 251.015L231.147 252.265L236.697 245.335L235.136 244.085ZM229.56 252.232L236.43 261.592L238.043 260.408L231.173 251.048L229.56 252.232ZM237.236 260H232.526V262H237.236V260ZM233.339 260.418L227.879 252.798L226.254 253.962L231.714 261.582L233.339 260.418ZM227.066 252.38H225.296V254.38H227.066V252.38ZM224.296 253.38V261H226.296V253.38H224.296ZM225.296 260H221.126V262H225.296V260Z" fill="#22262A"/>
<rect width="9" height="9" transform="matrix(0.707107 -0.707107 -0.707107 -0.707107 263.636 240)" fill="url(#paint1_linear_258:1700)"/>
<line y1="-0.5" x2="197.272" y2="-0.5" transform="matrix(-4.37114e-08 -1 -1 4.37114e-08 263.636 227.272)" stroke="white" stroke-dasharray="6 6"/>
<defs>
<linearGradient id="paint0_linear_258:1700" x1="30" y1="182.25" x2="233.359" y2="187.797" gradientUnits="userSpaceOnUse">
<stop offset="0.267495" stop-color="#FFC6CE"/>
<stop offset="1" stop-color="#64D6EE"/>
</linearGradient>
<linearGradient id="paint1_linear_258:1700" x1="-3.12385e-08" y1="2.07237" x2="8.83467" y2="2.20491" gradientUnits="userSpaceOnUse">
<stop offset="0.267495" stop-color="#FFC6CE"/>
<stop offset="1" stop-color="#64D6EE"/>
</linearGradient>
</defs>
</svg>
