<svg width="155" height="51" viewBox="0 0 155 51" fill="none" xmlns="http://www.w3.org/2000/svg">
<rect width="154.698" height="50" transform="translate(0 0.5)" fill="#22262A"/>
<path d="M21.684 31.5V18.252H26.49C28.158 18.252 29.466 18.666 30.414 19.494C31.362 20.31 31.836 21.432 31.836 22.86V23.148C31.836 24.564 31.362 25.686 30.414 26.514C29.466 27.33 28.158 27.738 26.49 27.738H24.636V31.5H21.684ZM26.634 20.808H24.636V25.182H26.634C27.318 25.182 27.858 24.984 28.254 24.588C28.65 24.192 28.848 23.664 28.848 23.004C28.848 22.332 28.65 21.798 28.254 21.402C27.858 21.006 27.318 20.808 26.634 20.808ZM33.6899 31.5V18.36H36.6419V23.598H42.1859V18.36H45.1379V31.5H42.1859V26.19H36.6419V31.5H33.6899ZM46.8444 31.5L51.1824 18.36H55.9524L60.4524 31.5H57.3924L56.3304 28.242H50.8404L49.7964 31.5H46.8444ZM51.6144 25.794H55.5204L53.8824 20.772H53.2164L51.6144 25.794ZM66.6681 31.842C65.4801 31.842 64.4721 31.656 63.6441 31.284C62.8281 30.912 62.2101 30.396 61.7901 29.736C61.3821 29.076 61.1781 28.32 61.1781 27.468H64.0401C64.0401 27.972 64.2441 28.416 64.6521 28.8C65.0721 29.172 65.7441 29.358 66.6681 29.358C67.4841 29.358 68.1081 29.202 68.5401 28.89C68.9721 28.566 69.1881 28.152 69.1881 27.648C69.1881 27.228 69.0081 26.898 68.6481 26.658C68.2881 26.406 67.7061 26.244 66.9021 26.172L65.9121 26.082C64.6041 25.974 63.5601 25.572 62.7801 24.876C62.0001 24.168 61.6101 23.226 61.6101 22.05C61.6101 21.21 61.8081 20.484 62.2041 19.872C62.6121 19.26 63.1761 18.792 63.8961 18.468C64.6161 18.132 65.4681 17.964 66.4521 17.964C67.4841 17.964 68.3661 18.144 69.0981 18.504C69.8421 18.864 70.4121 19.368 70.8081 20.016C71.2041 20.652 71.4021 21.396 71.4021 22.248H68.5221C68.5221 21.768 68.3481 21.348 68.0001 20.988C67.6521 20.628 67.1361 20.448 66.4521 20.448C65.7921 20.448 65.3001 20.61 64.9761 20.934C64.6521 21.246 64.4901 21.618 64.4901 22.05C64.4901 22.422 64.6161 22.746 64.8681 23.022C65.1321 23.298 65.5701 23.46 66.1821 23.508L67.1901 23.598C68.1501 23.682 68.9961 23.892 69.7281 24.228C70.4601 24.552 71.0301 25.002 71.4381 25.578C71.8581 26.142 72.0681 26.832 72.0681 27.648C72.0681 28.488 71.8461 29.226 71.4021 29.862C70.9701 30.486 70.3521 30.972 69.5481 31.32C68.7441 31.668 67.7841 31.842 66.6681 31.842ZM74.102 31.5V18.36H82.238V20.808H76.982V23.598H81.95V26.046H76.982V29.052H82.364V31.5H74.102ZM90.2608 31.5V20.916H87.6868V18.36H93.1948V31.5H90.2608Z" fill="url(#paint0_linear_258:1733)"/>
<path d="M115 24.9779H134.698M134.698 24.9779C131.093 27.5451 128.755 30.3564 128.755 34M134.698 24.9779C130.283 21.9434 128.585 18.3774 128.755 16" stroke="url(#paint1_linear_258:1733)" stroke-width="1.35484" stroke-linecap="round"/>
<defs>
<linearGradient id="paint0_linear_258:1733" x1="20" y1="18.7961" x2="93.463" y2="22.3898" gradientUnits="userSpaceOnUse">
<stop offset="0.267495" stop-color="#FFC6CE"/>
<stop offset="1" stop-color="#64D6EE"/>
</linearGradient>
<linearGradient id="paint1_linear_258:1733" x1="115" y1="20.1447" x2="134.335" y2="20.4622" gradientUnits="userSpaceOnUse">
<stop offset="0.267495" stop-color="#FFC6CE"/>
<stop offset="1" stop-color="#64D6EE"/>
</linearGradient>
</defs>
</svg>
