<svg width="300" height="300" viewBox="0 0 300 300" fill="none" xmlns="http://www.w3.org/2000/svg">
<rect width="300" height="300" fill="#22262A"/>
<rect x="36.364" y="60" width="9" height="9" transform="rotate(45 36.364 60)" fill="url(#paint0_linear_258:1684)"/>
<line x1="36.864" y1="72.7279" x2="36.864" y2="270" stroke="white" stroke-dasharray="6 6"/>
<path d="M65.428 59V36.95H72.988C75.748 36.95 77.878 37.62 79.378 38.96C80.898 40.28 81.658 42.08 81.658 44.36V44.84C81.658 47.12 80.898 48.93 79.378 50.27C77.878 51.61 75.748 52.28 72.988 52.28H69.688V59H65.428ZM73.348 40.64H69.688V48.59H73.348C74.628 48.59 75.608 48.22 76.288 47.48C76.988 46.74 77.338 45.78 77.338 44.6C77.338 43.42 76.988 42.47 76.288 41.75C75.608 41.01 74.628 40.64 73.348 40.64ZM84.9613 59V42.71H88.2613V48.02C88.7013 44.34 90.6413 42.5 94.0813 42.5H94.6813V46.13H93.5413C92.1213 46.13 91.0313 46.51 90.2713 47.27C89.5113 48.03 89.1313 49.11 89.1313 50.51V59H84.9613ZM105.184 59.57C103.264 59.57 101.644 59.18 100.324 58.4C99.0039 57.6 97.9939 56.56 97.2939 55.28C96.6139 54 96.2739 52.64 96.2739 51.2V50.57C96.2739 49.07 96.6239 47.68 97.3239 46.4C98.0439 45.12 99.0639 44.09 100.384 43.31C101.724 42.53 103.324 42.14 105.184 42.14C107.024 42.14 108.604 42.53 109.924 43.31C111.264 44.09 112.284 45.12 112.984 46.4C113.704 47.68 114.064 49.07 114.064 50.57V51.2C114.064 52.64 113.714 54 113.014 55.28C112.334 56.56 111.334 57.6 110.014 58.4C108.694 59.18 107.084 59.57 105.184 59.57ZM105.184 56C106.704 56 107.864 55.52 108.664 54.56C109.484 53.58 109.894 52.35 109.894 50.87C109.894 49.39 109.474 48.16 108.634 47.18C107.794 46.2 106.644 45.71 105.184 45.71C103.704 45.71 102.544 46.2 101.704 47.18C100.864 48.16 100.444 49.39 100.444 50.87C100.444 52.35 100.844 53.58 101.644 54.56C102.464 55.52 103.644 56 105.184 56ZM120.325 40.64C119.505 40.64 118.905 40.43 118.525 40.01C118.145 39.57 117.955 39.02 117.955 38.36C117.955 37.7 118.145 37.16 118.525 36.74C118.905 36.32 119.505 36.11 120.325 36.11C121.145 36.11 121.745 36.32 122.125 36.74C122.525 37.16 122.725 37.7 122.725 38.36C122.725 39.02 122.525 39.57 122.125 40.01C121.745 40.43 121.145 40.64 120.325 40.64ZM115.405 65.15V61.58H116.665C117.405 61.58 117.975 61.38 118.375 60.98C118.775 60.58 118.975 60.01 118.975 59.27V45.83H116.605V42.71H122.995V59.03C122.995 61.29 122.475 62.87 121.435 63.77C120.395 64.69 118.715 65.15 116.395 65.15H115.405ZM134.966 59.57C133.566 59.57 132.336 59.33 131.276 58.85C130.236 58.37 129.366 57.73 128.666 56.93C127.986 56.11 127.466 55.2 127.106 54.2C126.766 53.2 126.596 52.18 126.596 51.14V50.57C126.596 49.49 126.766 48.45 127.106 47.45C127.466 46.45 127.986 45.55 128.666 44.75C129.366 43.95 130.226 43.32 131.246 42.86C132.266 42.38 133.446 42.14 134.786 42.14C136.546 42.14 138.016 42.53 139.196 43.31C140.376 44.07 141.266 45.08 141.866 46.34C142.486 47.58 142.796 48.92 142.796 50.36V51.86H130.556C130.696 53.14 131.116 54.17 131.816 54.95C132.536 55.73 133.586 56.12 134.966 56.12C135.966 56.12 136.786 55.92 137.426 55.52C138.086 55.1 138.506 54.59 138.686 53.99H142.526C142.166 55.67 141.316 57.02 139.976 58.04C138.636 59.06 136.966 59.57 134.966 59.57ZM134.786 45.59C133.606 45.59 132.666 45.92 131.966 46.58C131.266 47.24 130.816 48.15 130.616 49.31H138.806C138.646 48.15 138.226 47.24 137.546 46.58C136.886 45.92 135.966 45.59 134.786 45.59ZM153.51 59.57C152.09 59.57 150.86 59.33 149.82 58.85C148.78 58.37 147.92 57.73 147.24 56.93C146.56 56.13 146.05 55.23 145.71 54.23C145.37 53.23 145.2 52.21 145.2 51.17V50.6C145.2 49.52 145.37 48.48 145.71 47.48C146.07 46.46 146.59 45.55 147.27 44.75C147.97 43.95 148.83 43.32 149.85 42.86C150.89 42.38 152.1 42.14 153.48 42.14C154.9 42.14 156.16 42.42 157.26 42.98C158.38 43.52 159.27 44.28 159.93 45.26C160.61 46.24 161 47.38 161.1 48.68H157.05C156.93 47.84 156.57 47.14 155.97 46.58C155.37 46.02 154.54 45.74 153.48 45.74C152.08 45.74 151.04 46.22 150.36 47.18C149.7 48.14 149.37 49.37 149.37 50.87C149.37 52.33 149.69 53.55 150.33 54.53C150.99 55.49 152.05 55.97 153.51 55.97C154.59 55.97 155.44 55.69 156.06 55.13C156.7 54.57 157.08 53.84 157.2 52.94H161.25C161.17 54.26 160.78 55.42 160.08 56.42C159.4 57.42 158.49 58.2 157.35 58.76C156.21 59.3 154.93 59.57 153.51 59.57ZM171.67 59.21C170.17 59.21 168.93 59.02 167.95 58.64C166.97 58.24 166.24 57.58 165.76 56.66C165.3 55.74 165.07 54.48 165.07 52.88V45.77H162.49V42.71H165.07L165.1 38.12H169L168.97 42.71H174.01V45.77H168.97V53.15C168.97 53.95 169.18 54.57 169.6 55.01C170.04 55.43 170.66 55.64 171.46 55.64H174.01V59.21H171.67ZM72.328 97.57C70.908 97.57 69.678 97.33 68.638 96.85C67.598 96.37 66.738 95.73 66.058 94.93C65.378 94.13 64.868 93.23 64.528 92.23C64.188 91.23 64.018 90.21 64.018 89.17V88.6C64.018 87.52 64.188 86.48 64.528 85.48C64.888 84.46 65.408 83.55 66.088 82.75C66.788 81.95 67.648 81.32 68.668 80.86C69.708 80.38 70.918 80.14 72.298 80.14C73.718 80.14 74.978 80.42 76.078 80.98C77.198 81.52 78.088 82.28 78.748 83.26C79.428 84.24 79.818 85.38 79.918 86.68H75.868C75.748 85.84 75.388 85.14 74.788 84.58C74.188 84.02 73.358 83.74 72.298 83.74C70.898 83.74 69.858 84.22 69.178 85.18C68.518 86.14 68.188 87.37 68.188 88.87C68.188 90.33 68.508 91.55 69.148 92.53C69.808 93.49 70.868 93.97 72.328 93.97C73.408 93.97 74.258 93.69 74.878 93.13C75.518 92.57 75.898 91.84 76.018 90.94H80.068C79.988 92.26 79.598 93.42 78.898 94.42C78.218 95.42 77.308 96.2 76.168 96.76C75.028 97.3 73.748 97.57 72.328 97.57ZM91.2386 97.57C89.3186 97.57 87.6986 97.18 86.3786 96.4C85.0586 95.6 84.0486 94.56 83.3486 93.28C82.6686 92 82.3286 90.64 82.3286 89.2V88.57C82.3286 87.07 82.6786 85.68 83.3786 84.4C84.0986 83.12 85.1186 82.09 86.4386 81.31C87.7786 80.53 89.3786 80.14 91.2386 80.14C93.0786 80.14 94.6586 80.53 95.9786 81.31C97.3186 82.09 98.3386 83.12 99.0386 84.4C99.7586 85.68 100.119 87.07 100.119 88.57V89.2C100.119 90.64 99.7686 92 99.0686 93.28C98.3886 94.56 97.3886 95.6 96.0686 96.4C94.7486 97.18 93.1386 97.57 91.2386 97.57ZM91.2386 94C92.7586 94 93.9186 93.52 94.7186 92.56C95.5386 91.58 95.9486 90.35 95.9486 88.87C95.9486 87.39 95.5286 86.16 94.6886 85.18C93.8486 84.2 92.6986 83.71 91.2386 83.71C89.7586 83.71 88.5986 84.2 87.7586 85.18C86.9186 86.16 86.4986 87.39 86.4986 88.87C86.4986 90.35 86.8986 91.58 87.6986 92.56C88.5186 93.52 89.6986 94 91.2386 94ZM103.77 97V80.71H107.07V84.73C107.77 81.71 109.63 80.2 112.65 80.2H112.83C114.77 80.2 116.24 80.83 117.24 82.09C118.24 83.35 118.74 85.21 118.74 87.67V97H114.57V87.31C114.57 86.31 114.28 85.5 113.7 84.88C113.12 84.26 112.34 83.95 111.36 83.95C110.34 83.95 109.51 84.27 108.87 84.91C108.25 85.55 107.94 86.39 107.94 87.43V97H103.77ZM130.453 97.57C129.033 97.57 127.803 97.33 126.763 96.85C125.723 96.37 124.863 95.73 124.183 94.93C123.503 94.13 122.993 93.23 122.653 92.23C122.313 91.23 122.143 90.21 122.143 89.17V88.6C122.143 87.52 122.313 86.48 122.653 85.48C123.013 84.46 123.533 83.55 124.213 82.75C124.913 81.95 125.773 81.32 126.793 80.86C127.833 80.38 129.043 80.14 130.423 80.14C131.843 80.14 133.103 80.42 134.203 80.98C135.323 81.52 136.213 82.28 136.873 83.26C137.553 84.24 137.943 85.38 138.043 86.68H133.993C133.873 85.84 133.513 85.14 132.913 84.58C132.313 84.02 131.483 83.74 130.423 83.74C129.023 83.74 127.983 84.22 127.303 85.18C126.643 86.14 126.313 87.37 126.313 88.87C126.313 90.33 126.633 91.55 127.273 92.53C127.933 93.49 128.993 93.97 130.453 93.97C131.533 93.97 132.383 93.69 133.003 93.13C133.643 92.57 134.023 91.84 134.143 90.94H138.193C138.113 92.26 137.723 93.42 137.023 94.42C136.343 95.42 135.433 96.2 134.293 96.76C133.153 97.3 131.873 97.57 130.453 97.57ZM148.824 97.57C147.424 97.57 146.194 97.33 145.134 96.85C144.094 96.37 143.224 95.73 142.524 94.93C141.844 94.11 141.324 93.2 140.964 92.2C140.624 91.2 140.454 90.18 140.454 89.14V88.57C140.454 87.49 140.624 86.45 140.964 85.45C141.324 84.45 141.844 83.55 142.524 82.75C143.224 81.95 144.084 81.32 145.104 80.86C146.124 80.38 147.304 80.14 148.644 80.14C150.404 80.14 151.874 80.53 153.054 81.31C154.234 82.07 155.124 83.08 155.724 84.34C156.344 85.58 156.654 86.92 156.654 88.36V89.86H144.414C144.554 91.14 144.974 92.17 145.674 92.95C146.394 93.73 147.444 94.12 148.824 94.12C149.824 94.12 150.644 93.92 151.284 93.52C151.944 93.1 152.364 92.59 152.544 91.99H156.384C156.024 93.67 155.174 95.02 153.834 96.04C152.494 97.06 150.824 97.57 148.824 97.57ZM148.644 83.59C147.464 83.59 146.524 83.92 145.824 84.58C145.124 85.24 144.674 86.15 144.474 87.31H152.664C152.504 86.15 152.084 85.24 151.404 84.58C150.744 83.92 149.824 83.59 148.644 83.59ZM160.137 103V80.71H163.437V84.79C163.937 83.27 164.757 82.13 165.897 81.37C167.037 80.59 168.347 80.2 169.827 80.2C171.367 80.2 172.697 80.57 173.817 81.31C174.957 82.05 175.847 83.05 176.487 84.31C177.127 85.55 177.447 86.95 177.447 88.51V89.14C177.447 90.7 177.137 92.12 176.517 93.4C175.897 94.66 175.017 95.67 173.877 96.43C172.737 97.17 171.387 97.54 169.827 97.54C168.687 97.54 167.637 97.33 166.677 96.91C165.717 96.47 164.927 95.78 164.307 94.84V103H160.137ZM168.777 94.03C170.117 94.03 171.197 93.55 172.017 92.59C172.857 91.61 173.277 90.36 173.277 88.84C173.277 87.3 172.857 86.06 172.017 85.12C171.197 84.18 170.117 83.71 168.777 83.71C167.957 83.71 167.197 83.9 166.497 84.28C165.797 84.64 165.237 85.17 164.817 85.87C164.397 86.55 164.187 87.38 164.187 88.36V89.56C164.187 90.5 164.407 91.31 164.847 91.99C165.287 92.65 165.857 93.16 166.557 93.52C167.257 93.86 167.997 94.03 168.777 94.03ZM188.194 97.21C186.694 97.21 185.454 97.02 184.474 96.64C183.494 96.24 182.764 95.58 182.284 94.66C181.824 93.74 181.594 92.48 181.594 90.88V83.77H179.014V80.71H181.594L181.624 76.12H185.524L185.494 80.71H190.534V83.77H185.494V91.15C185.494 91.95 185.704 92.57 186.124 93.01C186.564 93.43 187.184 93.64 187.984 93.64H190.534V97.21H188.194ZM199.584 97.51C197.704 97.51 196.244 96.9 195.204 95.68C194.184 94.44 193.674 92.59 193.674 90.13V80.68H197.844V90.49C197.844 91.51 198.124 92.31 198.684 92.89C199.244 93.47 200.004 93.76 200.964 93.76C201.924 93.76 202.704 93.45 203.304 92.83C203.924 92.21 204.234 91.37 204.234 90.31V80.68H208.404V97H205.104V93.22C204.404 96.08 202.624 97.51 199.764 97.51H199.584ZM217.814 97.42C216.014 97.42 214.574 96.96 213.494 96.04C212.434 95.12 211.904 93.83 211.904 92.17C211.904 90.39 212.544 89.08 213.824 88.24C215.124 87.38 216.864 86.95 219.044 86.95H222.374V86.8C222.374 84.94 221.434 84.01 219.554 84.01C219.054 84.01 218.454 84.02 217.754 84.04C217.054 84.06 216.344 84.09 215.624 84.13C214.924 84.15 214.294 84.18 213.734 84.22V80.68C214.414 80.62 215.224 80.57 216.164 80.53C217.124 80.49 218.004 80.47 218.804 80.47C221.304 80.47 223.184 80.98 224.444 82C225.724 83 226.364 84.63 226.364 86.89V97H223.064V93.88C222.324 96.24 220.574 97.42 217.814 97.42ZM218.984 94.45C219.544 94.45 220.074 94.35 220.574 94.15C221.074 93.93 221.484 93.57 221.804 93.07C222.144 92.55 222.334 91.85 222.374 90.97V89.44H218.984C218.024 89.44 217.284 89.68 216.764 90.16C216.264 90.62 216.014 91.22 216.014 91.96C216.014 92.72 216.264 93.33 216.764 93.79C217.284 94.23 218.024 94.45 218.984 94.45ZM231.04 97V78.22H229V75.1H235.21V97H231.04ZM242.281 78.76C241.461 78.76 240.851 78.55 240.451 78.13C240.071 77.69 239.881 77.14 239.881 76.48C239.881 75.82 240.071 75.28 240.451 74.86C240.851 74.44 241.461 74.23 242.281 74.23C243.081 74.23 243.671 74.44 244.051 74.86C244.451 75.28 244.651 75.82 244.651 76.48C244.651 77.14 244.451 77.69 244.051 78.13C243.671 78.55 243.081 78.76 242.281 78.76ZM240.751 97V83.83H238.471V80.71H244.921V97H240.751ZM248.887 90.4V86.74H261.037V90.4H248.887ZM71.008 135.51C68.768 135.51 67.008 135.04 65.728 134.1C64.468 133.14 63.808 131.82 63.748 130.14H67.498C67.538 130.72 67.838 131.24 68.398 131.7C68.978 132.14 69.868 132.36 71.068 132.36C72.048 132.36 72.838 132.18 73.438 131.82C74.038 131.46 74.338 130.97 74.338 130.35C74.338 129.81 74.108 129.39 73.648 129.09C73.208 128.77 72.448 128.55 71.368 128.43L69.928 128.28C68.088 128.08 66.678 127.56 65.698 126.72C64.738 125.88 64.258 124.76 64.258 123.36C64.258 122.26 64.538 121.33 65.098 120.57C65.658 119.79 66.428 119.21 67.408 118.83C68.408 118.43 69.548 118.23 70.828 118.23C72.828 118.23 74.448 118.68 75.688 119.58C76.928 120.46 77.578 121.74 77.638 123.42H73.888C73.828 122.86 73.538 122.38 73.018 121.98C72.518 121.58 71.778 121.38 70.798 121.38C69.918 121.38 69.238 121.55 68.758 121.89C68.278 122.23 68.038 122.67 68.038 123.21C68.038 123.73 68.228 124.13 68.608 124.41C68.988 124.69 69.628 124.88 70.528 124.98L71.968 125.13C73.868 125.33 75.368 125.86 76.468 126.72C77.568 127.58 78.118 128.74 78.118 130.2C78.118 131.28 77.818 132.22 77.218 133.02C76.638 133.8 75.818 134.41 74.758 134.85C73.698 135.29 72.448 135.51 71.008 135.51ZM86.1829 135.42C84.3829 135.42 82.9429 134.96 81.8629 134.04C80.8029 133.12 80.2729 131.83 80.2729 130.17C80.2729 128.39 80.9129 127.08 82.1929 126.24C83.4929 125.38 85.2329 124.95 87.4129 124.95H90.7429V124.8C90.7429 122.94 89.8029 122.01 87.9229 122.01C87.4229 122.01 86.8229 122.02 86.1229 122.04C85.4229 122.06 84.7129 122.09 83.9929 122.13C83.2929 122.15 82.6629 122.18 82.1029 122.22V118.68C82.7829 118.62 83.5929 118.57 84.5329 118.53C85.4929 118.49 86.3729 118.47 87.1729 118.47C89.6729 118.47 91.5529 118.98 92.8129 120C94.0929 121 94.7329 122.63 94.7329 124.89V135H91.4329V131.88C90.6929 134.24 88.9429 135.42 86.1829 135.42ZM87.3529 132.45C87.9129 132.45 88.4429 132.35 88.9429 132.15C89.4429 131.93 89.8529 131.57 90.1729 131.07C90.5129 130.55 90.7029 129.85 90.7429 128.97V127.44H87.3529C86.3929 127.44 85.6529 127.68 85.1329 128.16C84.6329 128.62 84.3829 129.22 84.3829 129.96C84.3829 130.72 84.6329 131.33 85.1329 131.79C85.6529 132.23 86.3929 132.45 87.3529 132.45ZM106.28 135.21C104.78 135.21 103.54 135.02 102.56 134.64C101.58 134.24 100.85 133.58 100.37 132.66C99.9096 131.74 99.6796 130.48 99.6796 128.88V121.77H97.0996V118.71H99.6796L99.7096 114.12H103.61L103.58 118.71H108.62V121.77H103.58V129.15C103.58 129.95 103.79 130.57 104.21 131.01C104.65 131.43 105.27 131.64 106.07 131.64H108.62V135.21H106.28ZM114.43 116.76C113.61 116.76 113 116.55 112.6 116.13C112.22 115.69 112.03 115.14 112.03 114.48C112.03 113.82 112.22 113.28 112.6 112.86C113 112.44 113.61 112.23 114.43 112.23C115.23 112.23 115.82 112.44 116.2 112.86C116.6 113.28 116.8 113.82 116.8 114.48C116.8 115.14 116.6 115.69 116.2 116.13C115.82 116.55 115.23 116.76 114.43 116.76ZM112.9 135V121.83H110.62V118.71H117.07V135H112.9ZM129.705 135.57C127.785 135.57 126.165 135.18 124.845 134.4C123.525 133.6 122.515 132.56 121.815 131.28C121.135 130 120.795 128.64 120.795 127.2V126.57C120.795 125.07 121.145 123.68 121.845 122.4C122.565 121.12 123.585 120.09 124.905 119.31C126.245 118.53 127.845 118.14 129.705 118.14C131.545 118.14 133.125 118.53 134.445 119.31C135.785 120.09 136.805 121.12 137.505 122.4C138.225 123.68 138.585 125.07 138.585 126.57V127.2C138.585 128.64 138.235 130 137.535 131.28C136.855 132.56 135.855 133.6 134.535 134.4C133.215 135.18 131.605 135.57 129.705 135.57ZM129.705 132C131.225 132 132.385 131.52 133.185 130.56C134.005 129.58 134.415 128.35 134.415 126.87C134.415 125.39 133.995 124.16 133.155 123.18C132.315 122.2 131.165 121.71 129.705 121.71C128.225 121.71 127.065 122.2 126.225 123.18C125.385 124.16 124.965 125.39 124.965 126.87C124.965 128.35 125.365 129.58 126.165 130.56C126.985 131.52 128.165 132 129.705 132ZM142.237 135V118.71H145.537V122.73C146.237 119.71 148.097 118.2 151.117 118.2H151.297C153.237 118.2 154.707 118.83 155.707 120.09C156.707 121.35 157.207 123.21 157.207 125.67V135H153.037V125.31C153.037 124.31 152.747 123.5 152.167 122.88C151.587 122.26 150.807 121.95 149.827 121.95C148.807 121.95 147.977 122.27 147.337 122.91C146.717 123.55 146.407 124.39 146.407 125.43V135H142.237ZM172.784 135.42C170.984 135.42 169.544 134.96 168.464 134.04C167.404 133.12 166.874 131.83 166.874 130.17C166.874 128.39 167.514 127.08 168.794 126.24C170.094 125.38 171.834 124.95 174.014 124.95H177.344V124.8C177.344 122.94 176.404 122.01 174.524 122.01C174.024 122.01 173.424 122.02 172.724 122.04C172.024 122.06 171.314 122.09 170.594 122.13C169.894 122.15 169.264 122.18 168.704 122.22V118.68C169.384 118.62 170.194 118.57 171.134 118.53C172.094 118.49 172.974 118.47 173.774 118.47C176.274 118.47 178.154 118.98 179.414 120C180.694 121 181.334 122.63 181.334 124.89V135H178.034V131.88C177.294 134.24 175.544 135.42 172.784 135.42ZM173.954 132.45C174.514 132.45 175.044 132.35 175.544 132.15C176.044 131.93 176.454 131.57 176.774 131.07C177.114 130.55 177.304 129.85 177.344 128.97V127.44H173.954C172.994 127.44 172.254 127.68 171.734 128.16C171.234 128.62 170.984 129.22 170.984 129.96C170.984 130.72 171.234 131.33 171.734 131.79C172.254 132.23 172.994 132.45 173.954 132.45ZM185.801 135V118.71H189.101V122.73C189.801 119.71 191.661 118.2 194.681 118.2H194.861C196.801 118.2 198.271 118.83 199.271 120.09C200.271 121.35 200.771 123.21 200.771 125.67V135H196.601V125.31C196.601 124.31 196.311 123.5 195.731 122.88C195.151 122.26 194.371 121.95 193.391 121.95C192.371 121.95 191.541 122.27 190.901 122.91C190.281 123.55 189.971 124.39 189.971 125.43V135H185.801ZM212.004 135.54C210.484 135.54 209.134 135.18 207.954 134.46C206.774 133.72 205.844 132.72 205.164 131.46C204.504 130.2 204.174 128.78 204.174 127.2V126.57C204.174 125.01 204.494 123.6 205.134 122.34C205.774 121.08 206.664 120.08 207.804 119.34C208.964 118.58 210.324 118.2 211.884 118.2C213.044 118.2 214.084 118.44 215.004 118.92C215.944 119.38 216.714 120.08 217.314 121.02V113.1H221.484V135H218.184V131.58C217.624 132.9 216.794 133.89 215.694 134.55C214.614 135.21 213.384 135.54 212.004 135.54ZM212.934 132.03C213.754 132.03 214.504 131.85 215.184 131.49C215.864 131.11 216.404 130.57 216.804 129.87C217.224 129.17 217.434 128.33 217.434 127.35V126.15C217.434 125.21 217.214 124.41 216.774 123.75C216.354 123.09 215.804 122.59 215.124 122.25C214.444 121.89 213.714 121.71 212.934 121.71C211.574 121.71 210.464 122.19 209.604 123.15C208.764 124.09 208.344 125.34 208.344 126.9C208.344 128.46 208.774 129.71 209.634 130.65C210.494 131.57 211.594 132.03 212.934 132.03ZM67.408 154.76C66.588 154.76 65.978 154.55 65.578 154.13C65.198 153.69 65.008 153.14 65.008 152.48C65.008 151.82 65.198 151.28 65.578 150.86C65.978 150.44 66.588 150.23 67.408 150.23C68.208 150.23 68.798 150.44 69.178 150.86C69.578 151.28 69.778 151.82 69.778 152.48C69.778 153.14 69.578 153.69 69.178 154.13C68.798 154.55 68.208 154.76 67.408 154.76ZM65.878 173V159.83H63.598V156.71H70.048V173H65.878ZM74.8539 173V156.71H78.1539V160.73C78.8539 157.71 80.7139 156.2 83.7339 156.2H83.9139C85.8539 156.2 87.3239 156.83 88.3239 158.09C89.3239 159.35 89.8239 161.21 89.8239 163.67V173H85.6539V163.31C85.6539 162.31 85.3639 161.5 84.7839 160.88C84.2039 160.26 83.4239 159.95 82.4439 159.95C81.4239 159.95 80.5939 160.27 79.9539 160.91C79.3339 161.55 79.0239 162.39 79.0239 163.43V173H74.8539ZM101.537 173.57C100.117 173.57 98.887 173.33 97.847 172.85C96.807 172.37 95.947 171.73 95.267 170.93C94.587 170.13 94.077 169.23 93.737 168.23C93.397 167.23 93.227 166.21 93.227 165.17V164.6C93.227 163.52 93.397 162.48 93.737 161.48C94.097 160.46 94.617 159.55 95.297 158.75C95.997 157.95 96.857 157.32 97.877 156.86C98.917 156.38 100.127 156.14 101.507 156.14C102.927 156.14 104.187 156.42 105.287 156.98C106.407 157.52 107.297 158.28 107.957 159.26C108.637 160.24 109.027 161.38 109.127 162.68H105.077C104.957 161.84 104.597 161.14 103.997 160.58C103.397 160.02 102.567 159.74 101.507 159.74C100.107 159.74 99.067 160.22 98.387 161.18C97.727 162.14 97.397 163.37 97.397 164.87C97.397 166.33 97.717 167.55 98.357 168.53C99.017 169.49 100.077 169.97 101.537 169.97C102.617 169.97 103.467 169.69 104.087 169.13C104.727 168.57 105.107 167.84 105.227 166.94H109.277C109.197 168.26 108.807 169.42 108.107 170.42C107.427 171.42 106.517 172.2 105.377 172.76C104.237 173.3 102.957 173.57 101.537 173.57ZM119.908 173.57C118.508 173.57 117.278 173.33 116.218 172.85C115.178 172.37 114.308 171.73 113.608 170.93C112.928 170.11 112.408 169.2 112.048 168.2C111.708 167.2 111.538 166.18 111.538 165.14V164.57C111.538 163.49 111.708 162.45 112.048 161.45C112.408 160.45 112.928 159.55 113.608 158.75C114.308 157.95 115.168 157.32 116.188 156.86C117.208 156.38 118.388 156.14 119.728 156.14C121.488 156.14 122.958 156.53 124.138 157.31C125.318 158.07 126.208 159.08 126.808 160.34C127.428 161.58 127.738 162.92 127.738 164.36V165.86H115.498C115.638 167.14 116.058 168.17 116.758 168.95C117.478 169.73 118.528 170.12 119.908 170.12C120.908 170.12 121.728 169.92 122.368 169.52C123.028 169.1 123.448 168.59 123.628 167.99H127.468C127.108 169.67 126.258 171.02 124.918 172.04C123.578 173.06 121.908 173.57 119.908 173.57ZM119.728 159.59C118.548 159.59 117.608 159.92 116.908 160.58C116.208 161.24 115.758 162.15 115.558 163.31H123.748C123.588 162.15 123.168 161.24 122.488 160.58C121.828 159.92 120.908 159.59 119.728 159.59ZM131.221 179V156.71H134.521V160.79C135.021 159.27 135.841 158.13 136.981 157.37C138.121 156.59 139.431 156.2 140.911 156.2C142.451 156.2 143.781 156.57 144.901 157.31C146.041 158.05 146.931 159.05 147.571 160.31C148.211 161.55 148.531 162.95 148.531 164.51V165.14C148.531 166.7 148.221 168.12 147.601 169.4C146.981 170.66 146.101 171.67 144.961 172.43C143.821 173.17 142.471 173.54 140.911 173.54C139.771 173.54 138.721 173.33 137.761 172.91C136.801 172.47 136.011 171.78 135.391 170.84V179H131.221ZM139.861 170.03C141.201 170.03 142.281 169.55 143.101 168.59C143.941 167.61 144.361 166.36 144.361 164.84C144.361 163.3 143.941 162.06 143.101 161.12C142.281 160.18 141.201 159.71 139.861 159.71C139.041 159.71 138.281 159.9 137.581 160.28C136.881 160.64 136.321 161.17 135.901 161.87C135.481 162.55 135.271 163.38 135.271 164.36V165.56C135.271 166.5 135.491 167.31 135.931 167.99C136.371 168.65 136.941 169.16 137.641 169.52C138.341 169.86 139.081 170.03 139.861 170.03ZM159.278 173.21C157.778 173.21 156.538 173.02 155.558 172.64C154.578 172.24 153.848 171.58 153.368 170.66C152.908 169.74 152.678 168.48 152.678 166.88V159.77H150.098V156.71H152.678L152.708 152.12H156.608L156.578 156.71H161.618V159.77H156.578V167.15C156.578 167.95 156.788 168.57 157.208 169.01C157.648 169.43 158.268 169.64 159.068 169.64H161.618V173.21H159.278ZM167.428 154.76C166.608 154.76 165.998 154.55 165.598 154.13C165.218 153.69 165.028 153.14 165.028 152.48C165.028 151.82 165.218 151.28 165.598 150.86C165.998 150.44 166.608 150.23 167.428 150.23C168.228 150.23 168.818 150.44 169.198 150.86C169.598 151.28 169.798 151.82 169.798 152.48C169.798 153.14 169.598 153.69 169.198 154.13C168.818 154.55 168.228 154.76 167.428 154.76ZM165.898 173V159.83H163.618V156.71H170.068V173H165.898ZM182.703 173.57C180.783 173.57 179.163 173.18 177.843 172.4C176.523 171.6 175.513 170.56 174.813 169.28C174.133 168 173.793 166.64 173.793 165.2V164.57C173.793 163.07 174.143 161.68 174.843 160.4C175.563 159.12 176.583 158.09 177.903 157.31C179.243 156.53 180.843 156.14 182.703 156.14C184.543 156.14 186.123 156.53 187.443 157.31C188.783 158.09 189.803 159.12 190.503 160.4C191.223 161.68 191.583 163.07 191.583 164.57V165.2C191.583 166.64 191.233 168 190.533 169.28C189.853 170.56 188.853 171.6 187.533 172.4C186.213 173.18 184.603 173.57 182.703 173.57ZM182.703 170C184.223 170 185.383 169.52 186.183 168.56C187.003 167.58 187.413 166.35 187.413 164.87C187.413 163.39 186.993 162.16 186.153 161.18C185.313 160.2 184.163 159.71 182.703 159.71C181.223 159.71 180.063 160.2 179.223 161.18C178.383 162.16 177.963 163.39 177.963 164.87C177.963 166.35 178.363 167.58 179.163 168.56C179.983 169.52 181.163 170 182.703 170ZM195.235 173V156.71H198.535V160.73C199.235 157.71 201.095 156.2 204.115 156.2H204.295C206.235 156.2 207.705 156.83 208.705 158.09C209.705 159.35 210.205 161.21 210.205 163.67V173H206.035V163.31C206.035 162.31 205.745 161.5 205.165 160.88C204.585 160.26 203.805 159.95 202.825 159.95C201.805 159.95 200.975 160.27 200.335 160.91C199.715 161.55 199.405 162.39 199.405 163.43V173H195.235Z" fill="url(#paint1_linear_258:1684)"/>
<defs>
<linearGradient id="paint0_linear_258:1684" x1="36.364" y1="62.0724" x2="45.1987" y2="62.2049" gradientUnits="userSpaceOnUse">
<stop offset="0.267495" stop-color="#FFC6CE"/>
<stop offset="1" stop-color="#64D6EE"/>
</linearGradient>
<linearGradient id="paint1_linear_258:1684" x1="62.728" y1="65" x2="266.153" y2="69.1615" gradientUnits="userSpaceOnUse">
<stop offset="0.267495" stop-color="#FFC6CE"/>
<stop offset="1" stop-color="#64D6EE"/>
</linearGradient>
</defs>
</svg>
