<svg width="159" height="51" viewBox="0 0 159 51" fill="none" xmlns="http://www.w3.org/2000/svg">
<rect width="158.698" height="50" transform="translate(0.301758 0.5)" fill="#22262A"/>
<path d="M22.1489 31.5V18.252H26.9549C28.6229 18.252 29.9309 18.666 30.8789 19.494C31.8269 20.31 32.3009 21.432 32.3009 22.86V23.148C32.3009 24.564 31.8269 25.686 30.8789 26.514C29.9309 27.33 28.6229 27.738 26.9549 27.738H25.1009V31.5H22.1489ZM27.0989 20.808H25.1009V25.182H27.0989C27.7829 25.182 28.3229 24.984 28.7189 24.588C29.1149 24.192 29.3129 23.664 29.3129 23.004C29.3129 22.332 29.1149 21.798 28.7189 21.402C28.3229 21.006 27.7829 20.808 27.0989 20.808ZM34.1547 31.5V18.36H37.1067V23.598H42.6507V18.36H45.6027V31.5H42.6507V26.19H37.1067V31.5H34.1547ZM47.3092 31.5L51.6472 18.36H56.4172L60.9172 31.5H57.8572L56.7952 28.242H51.3052L50.2612 31.5H47.3092ZM52.0792 25.794H55.9852L54.3472 20.772H53.6812L52.0792 25.794ZM67.133 31.842C65.945 31.842 64.937 31.656 64.109 31.284C63.293 30.912 62.675 30.396 62.255 29.736C61.847 29.076 61.643 28.32 61.643 27.468H64.505C64.505 27.972 64.709 28.416 65.117 28.8C65.537 29.172 66.209 29.358 67.133 29.358C67.949 29.358 68.573 29.202 69.005 28.89C69.437 28.566 69.653 28.152 69.653 27.648C69.653 27.228 69.473 26.898 69.113 26.658C68.753 26.406 68.171 26.244 67.367 26.172L66.377 26.082C65.069 25.974 64.025 25.572 63.245 24.876C62.465 24.168 62.075 23.226 62.075 22.05C62.075 21.21 62.273 20.484 62.669 19.872C63.077 19.26 63.641 18.792 64.361 18.468C65.081 18.132 65.933 17.964 66.917 17.964C67.949 17.964 68.831 18.144 69.563 18.504C70.307 18.864 70.877 19.368 71.273 20.016C71.669 20.652 71.867 21.396 71.867 22.248H68.987C68.987 21.768 68.813 21.348 68.465 20.988C68.117 20.628 67.601 20.448 66.917 20.448C66.257 20.448 65.765 20.61 65.441 20.934C65.117 21.246 64.955 21.618 64.955 22.05C64.955 22.422 65.081 22.746 65.333 23.022C65.597 23.298 66.035 23.46 66.647 23.508L67.655 23.598C68.615 23.682 69.461 23.892 70.193 24.228C70.925 24.552 71.495 25.002 71.903 25.578C72.323 26.142 72.533 26.832 72.533 27.648C72.533 28.488 72.311 29.226 71.867 29.862C71.435 30.486 70.817 30.972 70.013 31.32C69.209 31.668 68.249 31.842 67.133 31.842ZM74.5668 31.5V18.36H82.7028V20.808H77.4468V23.598H82.4148V26.046H77.4468V29.052H82.8288V31.5H74.5668ZM88.6376 31.5V28.8C88.6376 27.96 88.8476 27.27 89.2676 26.73C89.6996 26.19 90.4196 25.704 91.4276 25.272L93.5516 24.354C94.0796 24.126 94.4756 23.844 94.7396 23.508C95.0036 23.172 95.1356 22.746 95.1356 22.23C95.1356 21.702 94.9676 21.27 94.6316 20.934C94.3076 20.598 93.8396 20.43 93.2276 20.43C92.6036 20.43 92.1296 20.604 91.8056 20.952C91.4816 21.3 91.3196 21.768 91.3196 22.356H88.4576C88.4576 21.528 88.6376 20.784 88.9976 20.124C89.3576 19.464 89.8916 18.942 90.5996 18.558C91.3076 18.162 92.1836 17.964 93.2276 17.964C94.2596 17.964 95.1296 18.15 95.8376 18.522C96.5456 18.894 97.0796 19.398 97.4396 20.034C97.8116 20.658 97.9976 21.354 97.9976 22.122V22.338C97.9976 23.346 97.7216 24.18 97.1696 24.84C96.6176 25.5 95.7656 26.076 94.6136 26.568L92.5076 27.486C92.1476 27.642 91.8896 27.81 91.7336 27.99C91.5896 28.158 91.5176 28.38 91.5176 28.656V28.962H98.0156V31.5H88.6376Z" fill="url(#paint0_linear_258:2137)"/>
<path d="M119.302 24.9779H139M139 24.9779C135.394 27.5451 133.056 30.3564 133.056 34M139 24.9779C134.585 21.9434 132.887 18.3774 133.056 16" stroke="url(#paint1_linear_258:2137)" stroke-width="1.35484" stroke-linecap="round"/>
<defs>
<linearGradient id="paint0_linear_258:2137" x1="20.3018" y1="18.7961" x2="97.6626" y2="22.7823" gradientUnits="userSpaceOnUse">
<stop offset="0.267495" stop-color="#FFC6CE"/>
<stop offset="1" stop-color="#64D6EE"/>
</linearGradient>
<linearGradient id="paint1_linear_258:2137" x1="119.302" y1="20.1447" x2="138.637" y2="20.4622" gradientUnits="userSpaceOnUse">
<stop offset="0.267495" stop-color="#FFC6CE"/>
<stop offset="1" stop-color="#64D6EE"/>
</linearGradient>
</defs>
</svg>
