<svg width="300" height="300" viewBox="0 0 300 300" fill="none" xmlns="http://www.w3.org/2000/svg">
<rect width="300" height="300" fill="#22262A"/>
<rect x="36.364" y="60" width="9" height="9" transform="rotate(45 36.364 60)" fill="url(#paint0_linear_258:1724)"/>
<line x1="36.864" y1="72.7279" x2="36.864" y2="270" stroke="white" stroke-dasharray="6 6"/>
<path d="M65.4279 59V37.1H72.4179L81.6279 55.46H82.0179V37.1H86.0379V59H79.0179L69.8079 40.64H69.3879V59H65.4279ZM91.4435 59V37.1H104.284V40.7H95.7035V46.28L103.864 46.25V49.85L95.7035 49.88V59H91.4435ZM112.814 59V40.85H106.484V37.1H123.404V40.85H117.074V59H112.814ZM65.4279 97V75.1H78.6879V78.7H69.5979V84.07H78.1479V87.67H69.5979V93.4H78.9279V97H65.4279ZM82.969 97V80.71H86.269V84.73C86.969 81.71 88.829 80.2 91.849 80.2H92.029C93.969 80.2 95.439 80.83 96.439 82.09C97.439 83.35 97.939 85.21 97.939 87.67V97H93.769V87.31C93.769 86.31 93.479 85.5 92.899 84.88C92.319 84.26 91.539 83.95 90.559 83.95C89.539 83.95 88.709 84.27 88.069 84.91C87.449 85.55 87.139 86.39 87.139 87.43V97H82.969ZM102.422 97V75.1H106.592V83.44C107.012 82.4 107.632 81.6 108.452 81.04C109.272 80.48 110.302 80.2 111.542 80.2H111.722C113.582 80.2 114.992 80.85 115.952 82.15C116.912 83.43 117.392 85.28 117.392 87.7V97H113.222V87.31C113.222 86.27 112.922 85.45 112.322 84.85C111.742 84.25 110.972 83.95 110.012 83.95C108.972 83.95 108.142 84.29 107.522 84.97C106.902 85.63 106.592 86.5 106.592 87.58V97H102.422ZM126.495 97.42C124.695 97.42 123.255 96.96 122.175 96.04C121.115 95.12 120.585 93.83 120.585 92.17C120.585 90.39 121.225 89.08 122.505 88.24C123.805 87.38 125.545 86.95 127.725 86.95H131.055V86.8C131.055 84.94 130.115 84.01 128.235 84.01C127.735 84.01 127.135 84.02 126.435 84.04C125.735 84.06 125.025 84.09 124.305 84.13C123.605 84.15 122.975 84.18 122.415 84.22V80.68C123.095 80.62 123.905 80.57 124.845 80.53C125.805 80.49 126.685 80.47 127.485 80.47C129.985 80.47 131.865 80.98 133.125 82C134.405 83 135.045 84.63 135.045 86.89V97H131.745V93.88C131.005 96.24 129.255 97.42 126.495 97.42ZM127.665 94.45C128.225 94.45 128.755 94.35 129.255 94.15C129.755 93.93 130.165 93.57 130.485 93.07C130.825 92.55 131.015 91.85 131.055 90.97V89.44H127.665C126.705 89.44 125.965 89.68 125.445 90.16C124.945 90.62 124.695 91.22 124.695 91.96C124.695 92.72 124.945 93.33 125.445 93.79C125.965 94.23 126.705 94.45 127.665 94.45ZM139.512 97V80.71H142.812V84.73C143.512 81.71 145.372 80.2 148.392 80.2H148.572C150.512 80.2 151.982 80.83 152.982 82.09C153.982 83.35 154.482 85.21 154.482 87.67V97H150.312V87.31C150.312 86.31 150.022 85.5 149.442 84.88C148.862 84.26 148.082 83.95 147.102 83.95C146.082 83.95 145.252 84.27 144.612 84.91C143.992 85.55 143.682 86.39 143.682 87.43V97H139.512ZM166.195 97.57C164.775 97.57 163.545 97.33 162.505 96.85C161.465 96.37 160.605 95.73 159.925 94.93C159.245 94.13 158.735 93.23 158.395 92.23C158.055 91.23 157.885 90.21 157.885 89.17V88.6C157.885 87.52 158.055 86.48 158.395 85.48C158.755 84.46 159.275 83.55 159.955 82.75C160.655 81.95 161.515 81.32 162.535 80.86C163.575 80.38 164.785 80.14 166.165 80.14C167.585 80.14 168.845 80.42 169.945 80.98C171.065 81.52 171.955 82.28 172.615 83.26C173.295 84.24 173.685 85.38 173.785 86.68H169.735C169.615 85.84 169.255 85.14 168.655 84.58C168.055 84.02 167.225 83.74 166.165 83.74C164.765 83.74 163.725 84.22 163.045 85.18C162.385 86.14 162.055 87.37 162.055 88.87C162.055 90.33 162.375 91.55 163.015 92.53C163.675 93.49 164.735 93.97 166.195 93.97C167.275 93.97 168.125 93.69 168.745 93.13C169.385 92.57 169.765 91.84 169.885 90.94H173.935C173.855 92.26 173.465 93.42 172.765 94.42C172.085 95.42 171.175 96.2 170.035 96.76C168.895 97.3 167.615 97.57 166.195 97.57ZM184.566 97.57C183.166 97.57 181.936 97.33 180.876 96.85C179.836 96.37 178.966 95.73 178.266 94.93C177.586 94.11 177.066 93.2 176.706 92.2C176.366 91.2 176.196 90.18 176.196 89.14V88.57C176.196 87.49 176.366 86.45 176.706 85.45C177.066 84.45 177.586 83.55 178.266 82.75C178.966 81.95 179.826 81.32 180.846 80.86C181.866 80.38 183.046 80.14 184.386 80.14C186.146 80.14 187.616 80.53 188.796 81.31C189.976 82.07 190.866 83.08 191.466 84.34C192.086 85.58 192.396 86.92 192.396 88.36V89.86H180.156C180.296 91.14 180.716 92.17 181.416 92.95C182.136 93.73 183.186 94.12 184.566 94.12C185.566 94.12 186.386 93.92 187.026 93.52C187.686 93.1 188.106 92.59 188.286 91.99H192.126C191.766 93.67 190.916 95.02 189.576 96.04C188.236 97.06 186.566 97.57 184.566 97.57ZM184.386 83.59C183.206 83.59 182.266 83.92 181.566 84.58C180.866 85.24 180.416 86.15 180.216 87.31H188.406C188.246 86.15 187.826 85.24 187.146 84.58C186.486 83.92 185.566 83.59 184.386 83.59ZM195.879 97V80.71H199.179V84.7C199.859 81.7 201.629 80.2 204.489 80.2H204.669C207.249 80.2 208.949 81.43 209.769 83.89C210.569 81.43 212.269 80.2 214.869 80.2H215.049C216.909 80.2 218.319 80.84 219.279 82.12C220.259 83.4 220.749 85.26 220.749 87.7V97H216.579V87.31C216.579 86.29 216.319 85.48 215.799 84.88C215.279 84.26 214.539 83.95 213.579 83.95C212.599 83.95 211.819 84.27 211.239 84.91C210.679 85.53 210.399 86.37 210.399 87.43V97H206.229V87.31C206.229 86.29 205.969 85.48 205.449 84.88C204.929 84.26 204.189 83.95 203.229 83.95C202.249 83.95 201.469 84.27 200.889 84.91C200.329 85.53 200.049 86.37 200.049 87.43V97H195.879ZM72.3879 135.57C70.9879 135.57 69.7579 135.33 68.6979 134.85C67.6579 134.37 66.7879 133.73 66.0879 132.93C65.4079 132.11 64.8879 131.2 64.5279 130.2C64.1879 129.2 64.0179 128.18 64.0179 127.14V126.57C64.0179 125.49 64.1879 124.45 64.5279 123.45C64.8879 122.45 65.4079 121.55 66.0879 120.75C66.7879 119.95 67.6479 119.32 68.6679 118.86C69.6879 118.38 70.8679 118.14 72.2079 118.14C73.9679 118.14 75.4379 118.53 76.6179 119.31C77.7979 120.07 78.6879 121.08 79.2879 122.34C79.9079 123.58 80.2179 124.92 80.2179 126.36V127.86H67.9779C68.1179 129.14 68.5379 130.17 69.2379 130.95C69.9579 131.73 71.0079 132.12 72.3879 132.12C73.3879 132.12 74.2079 131.92 74.8479 131.52C75.5079 131.1 75.9279 130.59 76.1079 129.99H79.9479C79.5879 131.67 78.7379 133.02 77.3979 134.04C76.0579 135.06 74.3879 135.57 72.3879 135.57ZM72.2079 121.59C71.0279 121.59 70.0879 121.92 69.3879 122.58C68.6879 123.24 68.2379 124.15 68.0379 125.31H76.2279C76.0679 124.15 75.6479 123.24 74.9679 122.58C74.3079 121.92 73.3879 121.59 72.2079 121.59ZM83.7014 135V118.71H87.0014V122.73C87.7014 119.71 89.5614 118.2 92.5814 118.2H92.7614C94.7014 118.2 96.1714 118.83 97.1714 120.09C98.1714 121.35 98.6714 123.21 98.6714 125.67V135H94.5014V125.31C94.5014 124.31 94.2114 123.5 93.6314 122.88C93.0514 122.26 92.2714 121.95 91.2914 121.95C90.2714 121.95 89.4414 122.27 88.8014 122.91C88.1814 123.55 87.8714 124.39 87.8714 125.43V135H83.7014ZM110.235 135.21C108.735 135.21 107.495 135.02 106.515 134.64C105.535 134.24 104.805 133.58 104.325 132.66C103.865 131.74 103.635 130.48 103.635 128.88V121.77H101.055V118.71H103.635L103.665 114.12H107.565L107.535 118.71H112.575V121.77H107.535V129.15C107.535 129.95 107.745 130.57 108.165 131.01C108.605 131.43 109.225 131.64 110.025 131.64H112.575V135.21H110.235ZM122.879 135V113.1H135.719V116.7H127.139V122.28L135.299 122.25V125.85L127.139 125.88V135H122.879ZM146.275 135.57C144.875 135.57 143.645 135.33 142.585 134.85C141.545 134.37 140.675 133.73 139.975 132.93C139.295 132.11 138.775 131.2 138.415 130.2C138.075 129.2 137.905 128.18 137.905 127.14V126.57C137.905 125.49 138.075 124.45 138.415 123.45C138.775 122.45 139.295 121.55 139.975 120.75C140.675 119.95 141.535 119.32 142.555 118.86C143.575 118.38 144.755 118.14 146.095 118.14C147.855 118.14 149.325 118.53 150.505 119.31C151.685 120.07 152.575 121.08 153.175 122.34C153.795 123.58 154.105 124.92 154.105 126.36V127.86H141.865C142.005 129.14 142.425 130.17 143.125 130.95C143.845 131.73 144.895 132.12 146.275 132.12C147.275 132.12 148.095 131.92 148.735 131.52C149.395 131.1 149.815 130.59 149.995 129.99H153.835C153.475 131.67 152.625 133.02 151.285 134.04C149.945 135.06 148.275 135.57 146.275 135.57ZM146.095 121.59C144.915 121.59 143.975 121.92 143.275 122.58C142.575 123.24 142.125 124.15 141.925 125.31H150.115C149.955 124.15 149.535 123.24 148.855 122.58C148.195 121.92 147.275 121.59 146.095 121.59ZM162.208 135.42C160.408 135.42 158.968 134.96 157.888 134.04C156.828 133.12 156.298 131.83 156.298 130.17C156.298 128.39 156.938 127.08 158.218 126.24C159.518 125.38 161.258 124.95 163.438 124.95H166.768V124.8C166.768 122.94 165.828 122.01 163.948 122.01C163.448 122.01 162.848 122.02 162.148 122.04C161.448 122.06 160.738 122.09 160.018 122.13C159.318 122.15 158.688 122.18 158.128 122.22V118.68C158.808 118.62 159.618 118.57 160.558 118.53C161.518 118.49 162.398 118.47 163.198 118.47C165.698 118.47 167.578 118.98 168.838 120C170.118 121 170.758 122.63 170.758 124.89V135H167.458V131.88C166.718 134.24 164.968 135.42 162.208 135.42ZM163.378 132.45C163.938 132.45 164.468 132.35 164.968 132.15C165.468 131.93 165.878 131.57 166.198 131.07C166.538 130.55 166.728 129.85 166.768 128.97V127.44H163.378C162.418 127.44 161.678 127.68 161.158 128.16C160.658 128.62 160.408 129.22 160.408 129.96C160.408 130.72 160.658 131.33 161.158 131.79C161.678 132.23 162.418 132.45 163.378 132.45ZM182.305 135.21C180.805 135.21 179.565 135.02 178.585 134.64C177.605 134.24 176.875 133.58 176.395 132.66C175.935 131.74 175.705 130.48 175.705 128.88V121.77H173.125V118.71H175.705L175.735 114.12H179.635L179.605 118.71H184.645V121.77H179.605V129.15C179.605 129.95 179.815 130.57 180.235 131.01C180.675 131.43 181.295 131.64 182.095 131.64H184.645V135.21H182.305ZM193.695 135.51C191.815 135.51 190.355 134.9 189.315 133.68C188.295 132.44 187.785 130.59 187.785 128.13V118.68H191.955V128.49C191.955 129.51 192.235 130.31 192.795 130.89C193.355 131.47 194.115 131.76 195.075 131.76C196.035 131.76 196.815 131.45 197.415 130.83C198.035 130.21 198.345 129.37 198.345 128.31V118.68H202.515V135H199.215V131.22C198.515 134.08 196.735 135.51 193.875 135.51H193.695ZM207.305 135V118.71H210.605V124.02C211.045 120.34 212.985 118.5 216.425 118.5H217.025V122.13H215.885C214.465 122.13 213.375 122.51 212.615 123.27C211.855 124.03 211.475 125.11 211.475 126.51V135H207.305ZM226.988 135.57C225.588 135.57 224.358 135.33 223.298 134.85C222.258 134.37 221.388 133.73 220.688 132.93C220.008 132.11 219.488 131.2 219.128 130.2C218.788 129.2 218.618 128.18 218.618 127.14V126.57C218.618 125.49 218.788 124.45 219.128 123.45C219.488 122.45 220.008 121.55 220.688 120.75C221.388 119.95 222.248 119.32 223.268 118.86C224.288 118.38 225.468 118.14 226.808 118.14C228.568 118.14 230.038 118.53 231.218 119.31C232.398 120.07 233.288 121.08 233.888 122.34C234.508 123.58 234.818 124.92 234.818 126.36V127.86H222.578C222.718 129.14 223.138 130.17 223.838 130.95C224.558 131.73 225.608 132.12 226.988 132.12C227.988 132.12 228.808 131.92 229.448 131.52C230.108 131.1 230.528 130.59 230.708 129.99H234.548C234.188 131.67 233.338 133.02 231.998 134.04C230.658 135.06 228.988 135.57 226.988 135.57ZM226.808 121.59C225.628 121.59 224.688 121.92 223.988 122.58C223.288 123.24 222.838 124.15 222.638 125.31H230.828C230.668 124.15 230.248 123.24 229.568 122.58C228.908 121.92 227.988 121.59 226.808 121.59Z" fill="url(#paint1_linear_258:1724)"/>
<defs>
<linearGradient id="paint0_linear_258:1724" x1="36.364" y1="62.0724" x2="45.1987" y2="62.2049" gradientUnits="userSpaceOnUse">
<stop offset="0.267495" stop-color="#FFC6CE"/>
<stop offset="1" stop-color="#64D6EE"/>
</linearGradient>
<linearGradient id="paint1_linear_258:1724" x1="62.7279" y1="56.25" x2="266.087" y2="61.7969" gradientUnits="userSpaceOnUse">
<stop offset="0.267495" stop-color="#FFC6CE"/>
<stop offset="1" stop-color="#64D6EE"/>
</linearGradient>
</defs>
</svg>
