<svg width="300" height="300" viewBox="0 0 300 300" fill="none" xmlns="http://www.w3.org/2000/svg">
<rect width="300" height="300" fill="#22262A"/>
<rect width="9" height="9" transform="matrix(0.707107 -0.707107 -0.707107 -0.707107 36.364 240)" fill="url(#paint0_linear_258:1708)"/>
<line y1="-0.5" x2="197.272" y2="-0.5" transform="matrix(-4.37114e-08 -1 -1 4.37114e-08 36.364 227.272)" stroke="white" stroke-dasharray="6 6"/>
<path d="M65.4279 147.12V124.95H73.3479C75.3279 124.95 77.0479 125.25 78.5079 125.85C79.9879 126.43 81.2179 127.23 82.1979 128.25C83.1979 129.25 83.9379 130.39 84.4179 131.67C84.9179 132.95 85.1679 134.28 85.1679 135.66V136.32C85.1679 137.64 84.9179 138.94 84.4179 140.22C83.9379 141.5 83.1979 142.66 82.1979 143.7C81.2179 144.74 79.9879 145.57 78.5079 146.19C77.0479 146.81 75.3279 147.12 73.3479 147.12H65.4279ZM73.6179 128.91H69.6879V143.16H73.6179C75.1179 143.16 76.4079 142.86 77.4879 142.26C78.5679 141.64 79.3979 140.79 79.9779 139.71C80.5579 138.63 80.8479 137.39 80.8479 135.99C80.8479 133.81 80.2079 132.09 78.9279 130.83C77.6479 129.55 75.8779 128.91 73.6179 128.91ZM90.9626 128.76C90.1426 128.76 89.5326 128.55 89.1326 128.13C88.7526 127.69 88.5626 127.14 88.5626 126.48C88.5626 125.82 88.7526 125.28 89.1326 124.86C89.5326 124.44 90.1426 124.23 90.9626 124.23C91.7626 124.23 92.3526 124.44 92.7326 124.86C93.1326 125.28 93.3326 125.82 93.3326 126.48C93.3326 127.14 93.1326 127.69 92.7326 128.13C92.3526 128.55 91.7626 128.76 90.9626 128.76ZM89.4326 147V133.83H87.1526V130.71H93.6026V147H89.4326ZM104.768 153.42C103.108 153.42 101.558 153.31 100.118 153.09V149.61C100.818 149.71 101.578 149.79 102.398 149.85C103.238 149.91 104.018 149.94 104.738 149.94C106.738 149.94 108.178 149.57 109.058 148.83C109.958 148.11 110.408 146.94 110.408 145.32V143.88C109.848 144.94 109.078 145.75 108.098 146.31C107.138 146.85 106.028 147.12 104.768 147.12C103.268 147.12 101.958 146.76 100.838 146.04C99.7385 145.3 98.8785 144.32 98.2585 143.1C97.6385 141.86 97.3285 140.47 97.3285 138.93V138.3C97.3285 136.76 97.6485 135.38 98.2885 134.16C98.9485 132.94 99.8485 131.98 100.988 131.28C102.148 130.56 103.488 130.2 105.008 130.2C106.428 130.2 107.648 130.53 108.668 131.19C109.708 131.85 110.498 132.8 111.038 134.04V130.71H114.338V145.08C114.338 148.06 113.568 150.19 112.028 151.47C110.488 152.77 108.068 153.42 104.768 153.42ZM105.968 143.55C106.768 143.55 107.498 143.37 108.158 143.01C108.818 142.65 109.348 142.13 109.748 141.45C110.148 140.77 110.348 139.95 110.348 138.99V137.94C110.348 137.02 110.138 136.24 109.718 135.6C109.318 134.96 108.778 134.48 108.098 134.16C107.438 133.82 106.728 133.65 105.968 133.65C104.648 133.65 103.568 134.11 102.728 135.03C101.908 135.93 101.498 137.13 101.498 138.63C101.498 140.15 101.908 141.35 102.728 142.23C103.568 143.11 104.648 143.55 105.968 143.55ZM121.197 128.76C120.377 128.76 119.767 128.55 119.367 128.13C118.987 127.69 118.797 127.14 118.797 126.48C118.797 125.82 118.987 125.28 119.367 124.86C119.767 124.44 120.377 124.23 121.197 124.23C121.997 124.23 122.587 124.44 122.967 124.86C123.367 125.28 123.567 125.82 123.567 126.48C123.567 127.14 123.367 127.69 122.967 128.13C122.587 128.55 121.997 128.76 121.197 128.76ZM119.667 147V133.83H117.387V130.71H123.837V147H119.667ZM135.723 147.21C134.223 147.21 132.983 147.02 132.003 146.64C131.023 146.24 130.293 145.58 129.813 144.66C129.353 143.74 129.123 142.48 129.123 140.88V133.77H126.543V130.71H129.123L129.153 126.12H133.053L133.023 130.71H138.063V133.77H133.023V141.15C133.023 141.95 133.233 142.57 133.653 143.01C134.093 143.43 134.713 143.64 135.513 143.64H138.063V147.21H135.723ZM146.124 147.42C144.324 147.42 142.884 146.96 141.804 146.04C140.744 145.12 140.214 143.83 140.214 142.17C140.214 140.39 140.854 139.08 142.134 138.24C143.434 137.38 145.174 136.95 147.354 136.95H150.684V136.8C150.684 134.94 149.744 134.01 147.864 134.01C147.364 134.01 146.764 134.02 146.064 134.04C145.364 134.06 144.654 134.09 143.934 134.13C143.234 134.15 142.604 134.18 142.044 134.22V130.68C142.724 130.62 143.534 130.57 144.474 130.53C145.434 130.49 146.314 130.47 147.114 130.47C149.614 130.47 151.494 130.98 152.754 132C154.034 133 154.674 134.63 154.674 136.89V147H151.374V143.88C150.634 146.24 148.884 147.42 146.124 147.42ZM147.294 144.45C147.854 144.45 148.384 144.35 148.884 144.15C149.384 143.93 149.794 143.57 150.114 143.07C150.454 142.55 150.644 141.85 150.684 140.97V139.44H147.294C146.334 139.44 145.594 139.68 145.074 140.16C144.574 140.62 144.324 141.22 144.324 141.96C144.324 142.72 144.574 143.33 145.074 143.79C145.594 144.23 146.334 144.45 147.294 144.45ZM159.351 147V128.22H157.311V125.1H163.521V147H159.351ZM181.836 147.21C180.336 147.21 179.096 147.02 178.116 146.64C177.136 146.24 176.406 145.58 175.926 144.66C175.466 143.74 175.236 142.48 175.236 140.88V133.77H172.656V130.71H175.236L175.266 126.12H179.166L179.136 130.71H184.176V133.77H179.136V141.15C179.136 141.95 179.346 142.57 179.766 143.01C180.206 143.43 180.826 143.64 181.626 143.64H184.176V147.21H181.836ZM195.418 147.57C193.498 147.57 191.878 147.18 190.558 146.4C189.238 145.6 188.228 144.56 187.528 143.28C186.848 142 186.508 140.64 186.508 139.2V138.57C186.508 137.07 186.858 135.68 187.558 134.4C188.278 133.12 189.298 132.09 190.618 131.31C191.958 130.53 193.558 130.14 195.418 130.14C197.258 130.14 198.838 130.53 200.158 131.31C201.498 132.09 202.518 133.12 203.218 134.4C203.938 135.68 204.298 137.07 204.298 138.57V139.2C204.298 140.64 203.948 142 203.248 143.28C202.568 144.56 201.568 145.6 200.248 146.4C198.928 147.18 197.318 147.57 195.418 147.57ZM195.418 144C196.938 144 198.098 143.52 198.898 142.56C199.718 141.58 200.128 140.35 200.128 138.87C200.128 137.39 199.708 136.16 198.868 135.18C198.028 134.2 196.878 133.71 195.418 133.71C193.938 133.71 192.778 134.2 191.938 135.18C191.098 136.16 190.678 137.39 190.678 138.87C190.678 140.35 191.078 141.58 191.878 142.56C192.698 143.52 193.878 144 195.418 144ZM65.0979 191V168.71H68.3979V172.79C68.8979 171.27 69.7179 170.13 70.8579 169.37C71.9979 168.59 73.3079 168.2 74.7879 168.2C76.3279 168.2 77.6579 168.57 78.7779 169.31C79.9179 170.05 80.8079 171.05 81.4479 172.31C82.0879 173.55 82.4079 174.95 82.4079 176.51V177.14C82.4079 178.7 82.0979 180.12 81.4779 181.4C80.8579 182.66 79.9779 183.67 78.8379 184.43C77.6979 185.17 76.3479 185.54 74.7879 185.54C73.6479 185.54 72.5979 185.33 71.6379 184.91C70.6779 184.47 69.8879 183.78 69.2679 182.84V191H65.0979ZM73.7379 182.03C75.0779 182.03 76.1579 181.55 76.9779 180.59C77.8179 179.61 78.2379 178.36 78.2379 176.84C78.2379 175.3 77.8179 174.06 76.9779 173.12C76.1579 172.18 75.0779 171.71 73.7379 171.71C72.9179 171.71 72.1579 171.9 71.4579 172.28C70.7579 172.64 70.1979 173.17 69.7779 173.87C69.3579 174.55 69.1479 175.38 69.1479 176.36V177.56C69.1479 178.5 69.3679 179.31 69.8079 179.99C70.2479 180.65 70.8179 181.16 71.5179 181.52C72.2179 181.86 72.9579 182.03 73.7379 182.03ZM86.0745 185V163.1H90.2445V171.44C90.6645 170.4 91.2845 169.6 92.1045 169.04C92.9245 168.48 93.9545 168.2 95.1945 168.2H95.3745C97.2345 168.2 98.6445 168.85 99.6045 170.15C100.564 171.43 101.044 173.28 101.044 175.7V185H96.8745V175.31C96.8745 174.27 96.5745 173.45 95.9745 172.85C95.3945 172.25 94.6245 171.95 93.6645 171.95C92.6245 171.95 91.7945 172.29 91.1745 172.97C90.5545 173.63 90.2445 174.5 90.2445 175.58V185H86.0745ZM108.59 184.64L103.31 168.71H107.51L111.47 181.34H112.13L115.4 168.71H119.39L114.56 186.44C114.06 188.26 113.27 189.54 112.19 190.28C111.13 191.04 109.6 191.42 107.6 191.42H104.93V187.85H107.99C108.83 187.85 109.48 187.68 109.94 187.34C110.42 187.02 110.78 186.42 111.02 185.54L111.26 184.64H108.59ZM128.02 185.51C125.78 185.51 124.02 185.04 122.74 184.1C121.48 183.14 120.82 181.82 120.76 180.14H124.51C124.55 180.72 124.85 181.24 125.41 181.7C125.99 182.14 126.88 182.36 128.08 182.36C129.06 182.36 129.85 182.18 130.45 181.82C131.05 181.46 131.35 180.97 131.35 180.35C131.35 179.81 131.12 179.39 130.66 179.09C130.22 178.77 129.46 178.55 128.38 178.43L126.94 178.28C125.1 178.08 123.69 177.56 122.71 176.72C121.75 175.88 121.27 174.76 121.27 173.36C121.27 172.26 121.55 171.33 122.11 170.57C122.67 169.79 123.44 169.21 124.42 168.83C125.42 168.43 126.56 168.23 127.84 168.23C129.84 168.23 131.46 168.68 132.7 169.58C133.94 170.46 134.59 171.74 134.65 173.42H130.9C130.84 172.86 130.55 172.38 130.03 171.98C129.53 171.58 128.79 171.38 127.81 171.38C126.93 171.38 126.25 171.55 125.77 171.89C125.29 172.23 125.05 172.67 125.05 173.21C125.05 173.73 125.24 174.13 125.62 174.41C126 174.69 126.64 174.88 127.54 174.98L128.98 175.13C130.88 175.33 132.38 175.86 133.48 176.72C134.58 177.58 135.13 178.74 135.13 180.2C135.13 181.28 134.83 182.22 134.23 183.02C133.65 183.8 132.83 184.41 131.77 184.85C130.71 185.29 129.46 185.51 128.02 185.51ZM140.884 166.76C140.064 166.76 139.454 166.55 139.054 166.13C138.674 165.69 138.484 165.14 138.484 164.48C138.484 163.82 138.674 163.28 139.054 162.86C139.454 162.44 140.064 162.23 140.884 162.23C141.684 162.23 142.274 162.44 142.654 162.86C143.054 163.28 143.254 163.82 143.254 164.48C143.254 165.14 143.054 165.69 142.654 166.13C142.274 166.55 141.684 166.76 140.884 166.76ZM139.354 185V171.83H137.074V168.71H143.524V185H139.354ZM155.56 185.57C154.14 185.57 152.91 185.33 151.87 184.85C150.83 184.37 149.97 183.73 149.29 182.93C148.61 182.13 148.1 181.23 147.76 180.23C147.42 179.23 147.25 178.21 147.25 177.17V176.6C147.25 175.52 147.42 174.48 147.76 173.48C148.12 172.46 148.64 171.55 149.32 170.75C150.02 169.95 150.88 169.32 151.9 168.86C152.94 168.38 154.15 168.14 155.53 168.14C156.95 168.14 158.21 168.42 159.31 168.98C160.43 169.52 161.32 170.28 161.98 171.26C162.66 172.24 163.05 173.38 163.15 174.68H159.1C158.98 173.84 158.62 173.14 158.02 172.58C157.42 172.02 156.59 171.74 155.53 171.74C154.13 171.74 153.09 172.22 152.41 173.18C151.75 174.14 151.42 175.37 151.42 176.87C151.42 178.33 151.74 179.55 152.38 180.53C153.04 181.49 154.1 181.97 155.56 181.97C156.64 181.97 157.49 181.69 158.11 181.13C158.75 180.57 159.13 179.84 159.25 178.94H163.3C163.22 180.26 162.83 181.42 162.13 182.42C161.45 183.42 160.54 184.2 159.4 184.76C158.26 185.3 156.98 185.57 155.56 185.57ZM171.261 185.42C169.461 185.42 168.021 184.96 166.941 184.04C165.881 183.12 165.351 181.83 165.351 180.17C165.351 178.39 165.991 177.08 167.271 176.24C168.571 175.38 170.311 174.95 172.491 174.95H175.821V174.8C175.821 172.94 174.881 172.01 173.001 172.01C172.501 172.01 171.901 172.02 171.201 172.04C170.501 172.06 169.791 172.09 169.071 172.13C168.371 172.15 167.741 172.18 167.181 172.22V168.68C167.861 168.62 168.671 168.57 169.611 168.53C170.571 168.49 171.451 168.47 172.251 168.47C174.751 168.47 176.631 168.98 177.891 170C179.171 171 179.811 172.63 179.811 174.89V185H176.511V181.88C175.771 184.24 174.021 185.42 171.261 185.42ZM172.431 182.45C172.991 182.45 173.521 182.35 174.021 182.15C174.521 181.93 174.931 181.57 175.251 181.07C175.591 180.55 175.781 179.85 175.821 178.97V177.44H172.431C171.471 177.44 170.731 177.68 170.211 178.16C169.711 178.62 169.461 179.22 169.461 179.96C169.461 180.72 169.711 181.33 170.211 181.79C170.731 182.23 171.471 182.45 172.431 182.45ZM184.488 185V166.22H182.448V163.1H188.658V185H184.488ZM69.7179 223.42C67.9179 223.42 66.4779 222.96 65.3979 222.04C64.3379 221.12 63.8079 219.83 63.8079 218.17C63.8079 216.39 64.4479 215.08 65.7279 214.24C67.0279 213.38 68.7679 212.95 70.9479 212.95H74.2779V212.8C74.2779 210.94 73.3379 210.01 71.4579 210.01C70.9579 210.01 70.3579 210.02 69.6579 210.04C68.9579 210.06 68.2479 210.09 67.5279 210.13C66.8279 210.15 66.1979 210.18 65.6379 210.22V206.68C66.3179 206.62 67.1279 206.57 68.0679 206.53C69.0279 206.49 69.9079 206.47 70.7079 206.47C73.2079 206.47 75.0879 206.98 76.3479 208C77.6279 209 78.2679 210.63 78.2679 212.89V223H74.9679V219.88C74.2279 222.24 72.4779 223.42 69.7179 223.42ZM70.8879 220.45C71.4479 220.45 71.9779 220.35 72.4779 220.15C72.9779 219.93 73.3879 219.57 73.7079 219.07C74.0479 218.55 74.2379 217.85 74.2779 216.97V215.44H70.8879C69.9279 215.44 69.1879 215.68 68.6679 216.16C68.1679 216.62 67.9179 217.22 67.9179 217.96C67.9179 218.72 68.1679 219.33 68.6679 219.79C69.1879 220.23 69.9279 220.45 70.8879 220.45ZM88.6446 223.51C86.4046 223.51 84.6446 223.04 83.3646 222.1C82.1046 221.14 81.4446 219.82 81.3846 218.14H85.1346C85.1746 218.72 85.4746 219.24 86.0346 219.7C86.6146 220.14 87.5046 220.36 88.7046 220.36C89.6846 220.36 90.4746 220.18 91.0746 219.82C91.6746 219.46 91.9746 218.97 91.9746 218.35C91.9746 217.81 91.7446 217.39 91.2846 217.09C90.8446 216.77 90.0846 216.55 89.0046 216.43L87.5646 216.28C85.7246 216.08 84.3146 215.56 83.3346 214.72C82.3746 213.88 81.8946 212.76 81.8946 211.36C81.8946 210.26 82.1746 209.33 82.7346 208.57C83.2946 207.79 84.0646 207.21 85.0446 206.83C86.0446 206.43 87.1846 206.23 88.4646 206.23C90.4646 206.23 92.0846 206.68 93.3246 207.58C94.5646 208.46 95.2146 209.74 95.2746 211.42H91.5246C91.4646 210.86 91.1746 210.38 90.6546 209.98C90.1546 209.58 89.4146 209.38 88.4346 209.38C87.5546 209.38 86.8746 209.55 86.3946 209.89C85.9146 210.23 85.6746 210.67 85.6746 211.21C85.6746 211.73 85.8646 212.13 86.2446 212.41C86.6246 212.69 87.2646 212.88 88.1646 212.98L89.6046 213.13C91.5046 213.33 93.0046 213.86 94.1046 214.72C95.2046 215.58 95.7546 216.74 95.7546 218.2C95.7546 219.28 95.4546 220.22 94.8546 221.02C94.2746 221.8 93.4546 222.41 92.3946 222.85C91.3346 223.29 90.0846 223.51 88.6446 223.51ZM105.109 223.51C102.869 223.51 101.109 223.04 99.8295 222.1C98.5695 221.14 97.9095 219.82 97.8495 218.14H101.599C101.639 218.72 101.939 219.24 102.499 219.7C103.079 220.14 103.969 220.36 105.169 220.36C106.149 220.36 106.939 220.18 107.539 219.82C108.139 219.46 108.439 218.97 108.439 218.35C108.439 217.81 108.209 217.39 107.749 217.09C107.309 216.77 106.549 216.55 105.469 216.43L104.029 216.28C102.189 216.08 100.779 215.56 99.7995 214.72C98.8395 213.88 98.3595 212.76 98.3595 211.36C98.3595 210.26 98.6395 209.33 99.1995 208.57C99.7595 207.79 100.529 207.21 101.509 206.83C102.509 206.43 103.649 206.23 104.929 206.23C106.929 206.23 108.549 206.68 109.789 207.58C111.029 208.46 111.679 209.74 111.739 211.42H107.989C107.929 210.86 107.639 210.38 107.119 209.98C106.619 209.58 105.879 209.38 104.899 209.38C104.019 209.38 103.339 209.55 102.859 209.89C102.379 210.23 102.139 210.67 102.139 211.21C102.139 211.73 102.329 212.13 102.709 212.41C103.089 212.69 103.729 212.88 104.629 212.98L106.069 213.13C107.969 213.33 109.469 213.86 110.569 214.72C111.669 215.58 112.219 216.74 112.219 218.2C112.219 219.28 111.919 220.22 111.319 221.02C110.739 221.8 109.919 222.41 108.859 222.85C107.799 223.29 106.549 223.51 105.109 223.51ZM122.954 223.57C121.554 223.57 120.324 223.33 119.264 222.85C118.224 222.37 117.354 221.73 116.654 220.93C115.974 220.11 115.454 219.2 115.094 218.2C114.754 217.2 114.584 216.18 114.584 215.14V214.57C114.584 213.49 114.754 212.45 115.094 211.45C115.454 210.45 115.974 209.55 116.654 208.75C117.354 207.95 118.214 207.32 119.234 206.86C120.254 206.38 121.434 206.14 122.774 206.14C124.534 206.14 126.004 206.53 127.184 207.31C128.364 208.07 129.254 209.08 129.854 210.34C130.474 211.58 130.784 212.92 130.784 214.36V215.86H118.544C118.684 217.14 119.104 218.17 119.804 218.95C120.524 219.73 121.574 220.12 122.954 220.12C123.954 220.12 124.774 219.92 125.414 219.52C126.074 219.1 126.494 218.59 126.674 217.99H130.514C130.154 219.67 129.304 221.02 127.964 222.04C126.624 223.06 124.954 223.57 122.954 223.57ZM122.774 209.59C121.594 209.59 120.654 209.92 119.954 210.58C119.254 211.24 118.804 212.15 118.604 213.31H126.794C126.634 212.15 126.214 211.24 125.534 210.58C124.874 209.92 123.954 209.59 122.774 209.59ZM141.348 223.21C139.848 223.21 138.608 223.02 137.628 222.64C136.648 222.24 135.918 221.58 135.438 220.66C134.978 219.74 134.748 218.48 134.748 216.88V209.77H132.168V206.71H134.748L134.778 202.12H138.678L138.648 206.71H143.688V209.77H138.648V217.15C138.648 217.95 138.858 218.57 139.278 219.01C139.718 219.43 140.338 219.64 141.138 219.64H143.688V223.21H141.348ZM65.0979 261V244.71H68.3979V250.02C68.8379 246.34 70.7779 244.5 74.2179 244.5H74.8179V248.13H73.6779C72.2579 248.13 71.1679 248.51 70.4079 249.27C69.6479 250.03 69.2679 251.11 69.2679 252.51V261H65.0979ZM84.7805 261.57C83.3805 261.57 82.1505 261.33 81.0905 260.85C80.0505 260.37 79.1805 259.73 78.4805 258.93C77.8005 258.11 77.2805 257.2 76.9205 256.2C76.5805 255.2 76.4105 254.18 76.4105 253.14V252.57C76.4105 251.49 76.5805 250.45 76.9205 249.45C77.2805 248.45 77.8005 247.55 78.4805 246.75C79.1805 245.95 80.0405 245.32 81.0605 244.86C82.0805 244.38 83.2605 244.14 84.6005 244.14C86.3605 244.14 87.8305 244.53 89.0105 245.31C90.1905 246.07 91.0805 247.08 91.6805 248.34C92.3005 249.58 92.6105 250.92 92.6105 252.36V253.86H80.3705C80.5105 255.14 80.9305 256.17 81.6305 256.95C82.3505 257.73 83.4005 258.12 84.7805 258.12C85.7805 258.12 86.6005 257.92 87.2405 257.52C87.9005 257.1 88.3205 256.59 88.5005 255.99H92.3405C91.9805 257.67 91.1305 259.02 89.7905 260.04C88.4505 261.06 86.7805 261.57 84.7805 261.57ZM84.6005 247.59C83.4205 247.59 82.4805 247.92 81.7805 248.58C81.0805 249.24 80.6305 250.15 80.4305 251.31H88.6205C88.4605 250.15 88.0405 249.24 87.3605 248.58C86.7005 247.92 85.7805 247.59 84.6005 247.59ZM102.844 261.54C101.324 261.54 99.974 261.18 98.794 260.46C97.614 259.72 96.684 258.72 96.004 257.46C95.344 256.2 95.014 254.78 95.014 253.2V252.57C95.014 251.01 95.334 249.6 95.974 248.34C96.614 247.08 97.504 246.08 98.644 245.34C99.804 244.58 101.164 244.2 102.724 244.2C103.884 244.2 104.924 244.44 105.844 244.92C106.784 245.38 107.554 246.08 108.154 247.02V239.1H112.324V261H109.024V257.58C108.464 258.9 107.634 259.89 106.534 260.55C105.454 261.21 104.224 261.54 102.844 261.54ZM103.774 258.03C104.594 258.03 105.344 257.85 106.024 257.49C106.704 257.11 107.244 256.57 107.644 255.87C108.064 255.17 108.274 254.33 108.274 253.35V252.15C108.274 251.21 108.054 250.41 107.614 249.75C107.194 249.09 106.644 248.59 105.964 248.25C105.284 247.89 104.554 247.71 103.774 247.71C102.414 247.71 101.304 248.19 100.444 249.15C99.604 250.09 99.184 251.34 99.184 252.9C99.184 254.46 99.614 255.71 100.474 256.65C101.334 257.57 102.434 258.03 103.774 258.03ZM124.361 261.57C122.961 261.57 121.731 261.33 120.671 260.85C119.631 260.37 118.761 259.73 118.061 258.93C117.381 258.11 116.861 257.2 116.501 256.2C116.161 255.2 115.991 254.18 115.991 253.14V252.57C115.991 251.49 116.161 250.45 116.501 249.45C116.861 248.45 117.381 247.55 118.061 246.75C118.761 245.95 119.621 245.32 120.641 244.86C121.661 244.38 122.841 244.14 124.181 244.14C125.941 244.14 127.411 244.53 128.591 245.31C129.771 246.07 130.661 247.08 131.261 248.34C131.881 249.58 132.191 250.92 132.191 252.36V253.86H119.951C120.091 255.14 120.511 256.17 121.211 256.95C121.931 257.73 122.981 258.12 124.361 258.12C125.361 258.12 126.181 257.92 126.821 257.52C127.481 257.1 127.901 256.59 128.081 255.99H131.921C131.561 257.67 130.711 259.02 129.371 260.04C128.031 261.06 126.361 261.57 124.361 261.57ZM124.181 247.59C123.001 247.59 122.061 247.92 121.361 248.58C120.661 249.24 120.211 250.15 120.011 251.31H128.201C128.041 250.15 127.621 249.24 126.941 248.58C126.281 247.92 125.361 247.59 124.181 247.59ZM135.674 261V244.71H138.974V248.7C139.654 245.7 141.424 244.2 144.284 244.2H144.464C147.044 244.2 148.744 245.43 149.564 247.89C150.364 245.43 152.064 244.2 154.664 244.2H154.844C156.704 244.2 158.114 244.84 159.074 246.12C160.054 247.4 160.544 249.26 160.544 251.7V261H156.374V251.31C156.374 250.29 156.114 249.48 155.594 248.88C155.074 248.26 154.334 247.95 153.374 247.95C152.394 247.95 151.614 248.27 151.034 248.91C150.474 249.53 150.194 250.37 150.194 251.43V261H146.024V251.31C146.024 250.29 145.764 249.48 145.244 248.88C144.724 248.26 143.984 247.95 143.024 247.95C142.044 247.95 141.264 248.27 140.684 248.91C140.124 249.53 139.844 250.37 139.844 251.43V261H135.674ZM165 267V244.71H168.3V248.79C168.8 247.27 169.62 246.13 170.76 245.37C171.9 244.59 173.21 244.2 174.69 244.2C176.23 244.2 177.56 244.57 178.68 245.31C179.82 246.05 180.71 247.05 181.35 248.31C181.99 249.55 182.31 250.95 182.31 252.51V253.14C182.31 254.7 182 256.12 181.38 257.4C180.76 258.66 179.88 259.67 178.74 260.43C177.6 261.17 176.25 261.54 174.69 261.54C173.55 261.54 172.5 261.33 171.54 260.91C170.58 260.47 169.79 259.78 169.17 258.84V267H165ZM173.64 258.03C174.98 258.03 176.06 257.55 176.88 256.59C177.72 255.61 178.14 254.36 178.14 252.84C178.14 251.3 177.72 250.06 176.88 249.12C176.06 248.18 174.98 247.71 173.64 247.71C172.82 247.71 172.06 247.9 171.36 248.28C170.66 248.64 170.1 249.17 169.68 249.87C169.26 250.55 169.05 251.38 169.05 252.36V253.56C169.05 254.5 169.27 255.31 169.71 255.99C170.15 256.65 170.72 257.16 171.42 257.52C172.12 257.86 172.86 258.03 173.64 258.03ZM193.057 261.21C191.557 261.21 190.317 261.02 189.337 260.64C188.357 260.24 187.627 259.58 187.147 258.66C186.687 257.74 186.457 256.48 186.457 254.88V247.77H183.877V244.71H186.457L186.487 240.12H190.387L190.357 244.71H195.397V247.77H190.357V255.15C190.357 255.95 190.567 256.57 190.987 257.01C191.427 257.43 192.047 257.64 192.847 257.64H195.397V261.21H193.057ZM201.207 242.76C200.387 242.76 199.777 242.55 199.377 242.13C198.997 241.69 198.807 241.14 198.807 240.48C198.807 239.82 198.997 239.28 199.377 238.86C199.777 238.44 200.387 238.23 201.207 238.23C202.007 238.23 202.597 238.44 202.977 238.86C203.377 239.28 203.577 239.82 203.577 240.48C203.577 241.14 203.377 241.69 202.977 242.13C202.597 242.55 202.007 242.76 201.207 242.76ZM199.677 261V247.83H197.397V244.71H203.847V261H199.677ZM216.483 261.57C214.563 261.57 212.943 261.18 211.623 260.4C210.303 259.6 209.293 258.56 208.593 257.28C207.913 256 207.573 254.64 207.573 253.2V252.57C207.573 251.07 207.923 249.68 208.623 248.4C209.343 247.12 210.363 246.09 211.683 245.31C213.023 244.53 214.623 244.14 216.483 244.14C218.323 244.14 219.903 244.53 221.223 245.31C222.563 246.09 223.583 247.12 224.283 248.4C225.003 249.68 225.363 251.07 225.363 252.57V253.2C225.363 254.64 225.013 256 224.313 257.28C223.633 258.56 222.633 259.6 221.313 260.4C219.993 261.18 218.383 261.57 216.483 261.57ZM216.483 258C218.003 258 219.163 257.52 219.963 256.56C220.783 255.58 221.193 254.35 221.193 252.87C221.193 251.39 220.773 250.16 219.933 249.18C219.093 248.2 217.943 247.71 216.483 247.71C215.003 247.71 213.843 248.2 213.003 249.18C212.163 250.16 211.743 251.39 211.743 252.87C211.743 254.35 212.143 255.58 212.943 256.56C213.763 257.52 214.943 258 216.483 258ZM229.014 261V244.71H232.314V248.73C233.014 245.71 234.874 244.2 237.894 244.2H238.074C240.014 244.2 241.484 244.83 242.484 246.09C243.484 247.35 243.984 249.21 243.984 251.67V261H239.814V251.31C239.814 250.31 239.524 249.5 238.944 248.88C238.364 248.26 237.584 247.95 236.604 247.95C235.584 247.95 234.754 248.27 234.114 248.91C233.494 249.55 233.184 250.39 233.184 251.43V261H229.014Z" fill="url(#paint1_linear_258:1708)"/>
<defs>
<linearGradient id="paint0_linear_258:1708" x1="-3.12385e-08" y1="2.07237" x2="8.83467" y2="2.20491" gradientUnits="userSpaceOnUse">
<stop offset="0.267495" stop-color="#FFC6CE"/>
<stop offset="1" stop-color="#64D6EE"/>
</linearGradient>
<linearGradient id="paint1_linear_258:1708" x1="62.7279" y1="153" x2="266.153" y2="157.161" gradientUnits="userSpaceOnUse">
<stop offset="0.267495" stop-color="#FFC6CE"/>
<stop offset="1" stop-color="#64D6EE"/>
</linearGradient>
</defs>
</svg>
