<svg width="400" height="400" viewBox="0 0 400 400" fill="none" xmlns="http://www.w3.org/2000/svg">
<mask id="mask0_313:346" style="mask-type:alpha" maskUnits="userSpaceOnUse" x="-100" y="-100" width="600" height="600">
<circle cx="200" cy="200" r="300" fill="#22262A"/>
</mask>
<g mask="url(#mask0_313:346)">
<circle cx="200" cy="200" r="300" fill="#22262A"/>
<path d="M307.108 309.8C307.574 309.8 307.808 310.5 307.808 311.9C307.808 313.3 307.574 314 307.108 314H244.808C239.674 314 230.108 304.783 216.108 286.35C202.108 267.683 185.191 241.667 165.358 208.3C163.491 208.533 160.808 208.65 157.308 208.65C148.208 208.65 141.791 208.533 138.058 208.3V285.65C138.058 292.883 138.641 298.133 139.808 301.4C140.974 304.667 143.191 306.883 146.458 308.05C149.958 309.217 155.441 309.8 162.908 309.8C163.374 309.8 163.608 310.5 163.608 311.9C163.608 313.3 163.374 314 162.908 314C155.208 314 149.141 313.883 144.708 313.65L118.108 313.3L92.5576 313.65C87.891 313.883 81.591 314 73.6576 314C72.9576 314 72.6076 313.3 72.6076 311.9C72.6076 310.5 72.9576 309.8 73.6576 309.8C81.1243 309.8 86.491 309.217 89.7576 308.05C93.2576 306.883 95.591 304.667 96.7576 301.4C98.1576 297.9 98.8576 292.65 98.8576 285.65V123.6C98.8576 116.6 98.2743 111.467 97.1076 108.2C95.941 104.933 93.6076 102.717 90.1076 101.55C86.6076 100.15 81.241 99.45 74.0076 99.45C73.541 99.45 73.3076 98.75 73.3076 97.35C73.3076 95.95 73.541 95.25 74.0076 95.25L92.5576 95.6C103.291 96.0667 111.808 96.3 118.108 96.3C126.041 96.3 134.324 95.95 142.958 95.25C145.991 95.0167 149.724 94.7833 154.158 94.55C158.824 94.3167 163.958 94.2 169.558 94.2C190.791 94.2 207.241 98.1667 218.908 106.1C230.574 113.8 236.408 124.65 236.408 138.65C236.408 151.483 232.908 163.15 225.908 173.65C218.908 183.917 209.574 192.2 197.908 198.5C216.574 226.5 232.208 248.433 244.808 264.3C257.408 280.167 268.608 291.717 278.408 298.95C288.208 306.183 297.774 309.8 307.108 309.8ZM138.058 198.5C143.658 199.433 150.424 199.9 158.358 199.9C171.891 199.9 181.574 196.167 187.408 188.7C193.474 181 196.508 168.75 196.508 151.95C196.508 132.817 193.708 119.633 188.108 112.4C182.508 105.167 174.458 101.55 163.958 101.55C154.624 101.55 147.974 103.3 144.008 106.8C140.041 110.3 138.058 116.133 138.058 124.3V198.5Z" fill="url(#paint0_linear_313:346)"/>
<path d="M216.108 286.35L214.508 287.55L214.515 287.56L216.108 286.35ZM165.358 208.3L167.077 207.278L166.408 206.153L165.11 206.315L165.358 208.3ZM138.058 208.3L138.182 206.304L136.058 206.171V208.3H138.058ZM139.808 301.4L137.924 302.073L139.808 301.4ZM146.458 308.05L145.785 309.933L145.805 309.941L145.825 309.947L146.458 308.05ZM144.708 313.65L144.813 311.653L144.773 311.651L144.734 311.65L144.708 313.65ZM118.108 313.3L118.134 311.3L118.107 311.3L118.08 311.3L118.108 313.3ZM92.5576 313.65L92.5302 311.65L92.494 311.651L92.4577 311.652L92.5576 313.65ZM89.7576 308.05L89.1252 306.153L89.105 306.159L89.0849 306.167L89.7576 308.05ZM96.7576 301.4L94.9007 300.657L94.8867 300.692L94.8741 300.727L96.7576 301.4ZM97.1076 108.2L95.2241 108.873H95.2241L97.1076 108.2ZM90.1076 101.55L89.3648 103.407L89.4194 103.429L89.4752 103.447L90.1076 101.55ZM74.0076 95.25L74.0453 93.2504L74.0265 93.25H74.0076V95.25ZM92.5576 95.6L92.6445 93.6019L92.6199 93.6008L92.5953 93.6003L92.5576 95.6ZM142.958 95.25L142.804 93.2559L142.796 93.2565L142.958 95.25ZM154.158 94.55L154.058 92.5525L154.053 92.5527L154.158 94.55ZM218.908 106.1L217.783 107.754L217.794 107.762L217.806 107.769L218.908 106.1ZM225.908 173.65L227.56 174.777L227.566 174.768L227.572 174.759L225.908 173.65ZM197.908 198.5L196.957 196.74L195.026 197.783L196.244 199.609L197.908 198.5ZM278.408 298.95L279.595 297.341L278.408 298.95ZM138.058 198.5H136.058V200.194L137.729 200.473L138.058 198.5ZM187.408 188.7L185.837 187.462L185.832 187.469L187.408 188.7ZM188.108 112.4L189.689 111.176L188.108 112.4ZM144.008 106.8L145.331 108.3L145.331 108.3L144.008 106.8ZM307.108 311.8C306.909 311.8 306.694 311.761 306.484 311.671C306.276 311.582 306.115 311.461 306 311.345C305.888 311.233 305.821 311.13 305.786 311.067C305.751 311.003 305.737 310.962 305.735 310.957C305.735 310.955 305.756 311.025 305.776 311.202C305.795 311.372 305.808 311.602 305.808 311.9H309.808C309.808 311.142 309.751 310.355 309.53 309.693C309.326 309.081 308.669 307.8 307.108 307.8V311.8ZM305.808 311.9C305.808 312.198 305.795 312.428 305.776 312.598C305.756 312.775 305.735 312.845 305.735 312.843C305.737 312.838 305.751 312.797 305.786 312.733C305.821 312.67 305.888 312.567 306 312.455C306.115 312.339 306.276 312.218 306.484 312.129C306.694 312.039 306.909 312 307.108 312V316C308.669 316 309.326 314.719 309.53 314.107C309.751 313.445 309.808 312.658 309.808 311.9H305.808ZM307.108 312H244.808V316H307.108V312ZM244.808 312C244.078 312 242.903 311.652 241.189 310.577C239.512 309.526 237.509 307.9 235.17 305.647C230.496 301.144 224.676 294.326 217.7 285.14L214.515 287.56C221.539 296.808 227.503 303.814 232.395 308.528C234.84 310.883 237.065 312.713 239.064 313.966C241.025 315.196 242.971 316 244.808 316V312ZM217.708 285.15C203.769 266.566 186.894 240.618 167.077 207.278L163.638 209.322C183.488 242.716 200.446 268.801 214.508 287.55L217.708 285.15ZM165.11 206.315C163.367 206.533 160.782 206.65 157.308 206.65V210.65C160.833 210.65 163.615 210.533 165.606 210.285L165.11 206.315ZM157.308 206.65C148.207 206.65 141.847 206.533 138.182 206.304L137.933 210.296C141.735 210.534 148.208 210.65 157.308 210.65V206.65ZM136.058 208.3V285.65H140.058V208.3H136.058ZM136.058 285.65C136.058 292.919 136.635 298.462 137.924 302.073L141.691 300.727C140.647 297.804 140.058 292.848 140.058 285.65H136.058ZM137.924 302.073C139.292 305.904 141.954 308.565 145.785 309.933L147.13 306.167C144.428 305.202 142.656 303.429 141.691 300.727L137.924 302.073ZM145.825 309.947C149.646 311.221 155.399 311.8 162.908 311.8V307.8C155.483 307.8 150.269 307.212 147.09 306.153L145.825 309.947ZM162.908 311.8C162.709 311.8 162.494 311.761 162.284 311.671C162.076 311.582 161.915 311.461 161.8 311.345C161.688 311.233 161.621 311.13 161.586 311.067C161.551 311.003 161.537 310.962 161.535 310.957C161.535 310.955 161.556 311.025 161.576 311.202C161.595 311.372 161.608 311.602 161.608 311.9H165.608C165.608 311.142 165.551 310.355 165.33 309.693C165.126 309.081 164.469 307.8 162.908 307.8V311.8ZM161.608 311.9C161.608 312.198 161.595 312.428 161.576 312.598C161.556 312.775 161.535 312.845 161.535 312.843C161.537 312.838 161.551 312.797 161.586 312.733C161.621 312.67 161.688 312.567 161.8 312.455C161.915 312.339 162.076 312.218 162.284 312.129C162.494 312.039 162.709 312 162.908 312V316C164.469 316 165.126 314.719 165.33 314.107C165.551 313.445 165.608 312.658 165.608 311.9H161.608ZM162.908 312C155.221 312 149.195 311.883 144.813 311.653L144.603 315.647C149.087 315.883 155.194 316 162.908 316V312ZM144.734 311.65L118.134 311.3L118.081 315.3L144.681 315.65L144.734 311.65ZM118.08 311.3L92.5302 311.65L92.585 315.65L118.135 315.3L118.08 311.3ZM92.4577 311.652C87.8393 311.883 81.5771 312 73.6576 312V316C81.6048 316 87.9426 315.883 92.6575 315.647L92.4577 311.652ZM73.6576 312C73.8326 312 74.0749 312.049 74.3076 312.205C74.5279 312.351 74.6278 312.518 74.659 312.581C74.6862 312.635 74.668 312.621 74.646 312.49C74.625 312.364 74.6076 312.172 74.6076 311.9H70.6076C70.6076 312.702 70.6973 313.602 71.0813 314.369C71.2874 314.782 71.6061 315.211 72.0888 315.533C72.5841 315.863 73.1326 316 73.6576 316V312ZM74.6076 311.9C74.6076 311.628 74.625 311.436 74.646 311.31C74.668 311.179 74.6862 311.165 74.659 311.219C74.6278 311.282 74.5279 311.449 74.3076 311.595C74.0749 311.751 73.8326 311.8 73.6576 311.8V307.8C73.1326 307.8 72.5841 307.937 72.0888 308.267C71.6061 308.589 71.2874 309.018 71.0813 309.431C70.6973 310.198 70.6076 311.098 70.6076 311.9H74.6076ZM73.6576 311.8C81.1513 311.8 86.8161 311.224 90.4303 309.933L89.0849 306.167C86.1658 307.209 81.0973 307.8 73.6576 307.8V311.8ZM90.3901 309.947C94.4302 308.601 97.253 305.959 98.6411 302.073L94.8741 300.727C93.9289 303.374 92.085 305.166 89.1252 306.153L90.3901 309.947ZM98.6146 302.143C100.159 298.283 100.858 292.724 100.858 285.65H96.8576C96.8576 292.576 96.1567 297.517 94.9007 300.657L98.6146 302.143ZM100.858 285.65V123.6H96.8576V285.65H100.858ZM100.858 123.6C100.858 116.555 100.279 111.133 98.9911 107.527L95.2241 108.873C96.2696 111.8 96.8576 116.645 96.8576 123.6H100.858ZM98.9911 107.527C97.603 103.641 94.7803 100.999 90.7401 99.6526L89.4752 103.447C92.435 104.434 94.2789 106.226 95.2241 108.873L98.9911 107.527ZM90.8504 99.693C86.9856 98.1471 81.3052 97.45 74.0076 97.45V101.45C81.1767 101.45 86.2297 102.153 89.3648 103.407L90.8504 99.693ZM74.0076 97.45C74.2062 97.45 74.421 97.4887 74.6314 97.5789C74.8395 97.6681 74.9999 97.7889 75.1156 97.9045C75.2277 98.0166 75.2941 98.1199 75.3294 98.1834C75.3647 98.247 75.3785 98.2882 75.38 98.2925C75.3807 98.2948 75.3588 98.225 75.3391 98.0479C75.3202 97.8778 75.3076 97.6483 75.3076 97.35H71.3076C71.3076 98.1084 71.3644 98.8948 71.5853 99.5574C71.789 100.169 72.4458 101.45 74.0076 101.45V97.45ZM75.3076 97.35C75.3076 97.0517 75.3202 96.8222 75.3391 96.6521C75.3588 96.475 75.3807 96.4052 75.38 96.4075C75.3785 96.4118 75.3647 96.453 75.3294 96.5166C75.2941 96.5801 75.2277 96.6833 75.1156 96.7955C74.9999 96.9111 74.8395 97.0319 74.6314 97.1211C74.421 97.2113 74.2062 97.25 74.0076 97.25V93.25C72.4458 93.25 71.789 94.5312 71.5853 95.1425C71.3644 95.8052 71.3076 96.5916 71.3076 97.35H75.3076ZM73.9699 97.2496L92.5199 97.5996L92.5953 93.6003L74.0453 93.2504L73.9699 97.2496ZM92.4707 97.5981C103.216 98.0653 111.766 98.3 118.108 98.3V94.3C111.85 94.3 103.366 94.068 92.6445 93.6019L92.4707 97.5981ZM118.108 98.3C126.1 98.3 134.437 97.9474 143.119 97.2435L142.796 93.2565C134.212 93.9526 125.982 94.3 118.108 94.3V98.3ZM143.111 97.2441C146.123 97.0124 149.839 96.7801 154.263 96.5472L154.053 92.5527C149.61 92.7866 145.859 93.0209 142.804 93.2559L143.111 97.2441ZM154.257 96.5475C158.885 96.3161 163.985 96.2 169.558 96.2V92.2C163.931 92.2 158.763 92.3172 154.058 92.5525L154.257 96.5475ZM169.558 96.2C190.58 96.2 206.577 100.133 217.783 107.754L220.032 104.446C207.905 96.1999 191.002 92.2 169.558 92.2V96.2ZM217.806 107.769C228.911 115.098 234.408 125.321 234.408 138.65H238.408C238.408 123.979 232.238 112.502 220.009 104.431L217.806 107.769ZM234.408 138.65C234.408 151.096 231.021 162.375 224.244 172.541L227.572 174.759C234.795 163.925 238.408 151.871 238.408 138.65H234.408ZM224.255 172.523C217.447 182.508 208.362 190.582 196.957 196.74L198.858 200.26C210.787 193.818 220.368 185.325 227.56 174.777L224.255 172.523ZM196.244 199.609C214.924 227.63 230.592 249.615 243.241 265.544L246.374 263.056C233.823 247.252 218.225 225.37 199.572 197.391L196.244 199.609ZM243.241 265.544C255.889 281.47 267.216 293.175 277.22 300.559L279.595 297.341C270 290.258 258.926 278.863 246.374 263.056L243.241 265.544ZM277.22 300.559C287.259 307.969 297.233 311.8 307.108 311.8V307.8C298.316 307.8 289.156 304.398 279.595 297.341L277.22 300.559ZM137.729 200.473C143.471 201.43 150.354 201.9 158.358 201.9V197.9C150.495 197.9 143.845 197.437 138.386 196.527L137.729 200.473ZM158.358 201.9C172.23 201.9 182.629 198.066 188.984 189.931L185.832 187.469C180.52 194.267 171.552 197.9 158.358 197.9V201.9ZM188.979 189.938C195.461 181.71 198.508 168.909 198.508 151.95H194.508C194.508 168.591 191.488 180.29 185.837 187.462L188.979 189.938ZM198.508 151.95C198.508 132.771 195.731 118.98 189.689 111.176L186.526 113.624C191.684 120.287 194.508 132.863 194.508 151.95H198.508ZM189.689 111.176C183.651 103.377 174.973 99.55 163.958 99.55V103.55C173.943 103.55 181.364 106.957 186.526 113.624L189.689 111.176ZM163.958 99.55C154.474 99.55 147.208 101.309 142.684 105.3L145.331 108.3C148.741 105.291 154.774 103.55 163.958 103.55V99.55ZM142.684 105.3C138.099 109.346 136.058 115.87 136.058 124.3H140.058C140.058 116.396 141.983 111.254 145.331 108.3L142.684 105.3ZM136.058 124.3V198.5H140.058V124.3H136.058Z" fill="#22262A"/>
<path d="M202 217L281 253.5L357.5 217L353 329.5L281 366L207.5 333.5L202 217Z" fill="#22262A"/>
<path d="M281 253.5L202 217L207.5 333.5L281 366M281 253.5L357.5 217L353 329.5L281 366M281 253.5V366" stroke="url(#paint1_linear_313:346)" stroke-width="2"/>
<path d="M195.5 217L193 251L277.5 294L365.5 248L363.5 214.5L277.5 174L195.5 217Z" fill="#22262A"/>
<path d="M363.5 214.5L276.5 258.5M363.5 214.5L365.5 248L277.5 294M363.5 214.5L277.5 174L195.5 217M276.5 258.5L195.5 217M276.5 258.5L277.5 294M195.5 217L193 251L277.5 294" stroke="url(#paint2_linear_313:346)" stroke-width="2"/>
<path d="M249.5 326.125V339.812V353.5L241.25 349.705L233 345.91L224.5 342V328.188V314.375V300.562V286.75V272.938V259.125V245.312V231.5L234.875 225.938L245.25 220.375L255.625 214.812L266 209.25L276.375 203.688L286.75 198.125L297.125 192.562L307.5 187L315.75 190.882L324 194.765L333 199L322.562 204.625L312.125 210.25L301.688 215.875L291.25 221.5L280.812 227.125L270.375 232.75L259.938 238.375L249.5 244V257.688V271.375V285.062V298.75V312.438V326.125Z" fill="url(#paint3_linear_313:346)"/>
<path d="M224.5 231.5V245.312M224.5 231.5L234.875 225.938M224.5 231.5L249.5 257.688M224.5 231.5C225.455 232.5 262.439 229 280.812 227.125M307.5 187L297.125 192.562M307.5 187L322.562 204.625M307.5 187L315.75 190.882M333 199L322.562 204.625M333 199L276.375 203.688M333 199L324 194.765M249.5 244V257.688M249.5 244L259.938 238.375M249.5 244L224.5 272.938M249.5 244L245.25 238.751M249.5 353.5V339.812M249.5 353.5L224.5 328.188M249.5 353.5L241.25 349.705M224.5 342V328.188M224.5 342L249.5 312.438M224.5 342L233 345.91M266 209.25L255.625 214.812M266 209.25L276.375 203.688M266 209.25L280.812 227.125M266 209.25L322.562 204.625M245.25 220.375L234.875 225.938M245.25 220.375L255.625 214.812M245.25 220.375L259.938 238.375M245.25 220.375C246.65 219.624 283.458 217.062 301.688 215.875M286.75 198.125L276.375 203.688M286.75 198.125L297.125 192.562M286.75 198.125L301.688 215.875M286.75 198.125L324 194.765M291.25 221.5L280.812 227.125M291.25 221.5L301.688 215.875M291.25 221.5L276.375 203.688M291.25 221.5L234.875 225.938M270.375 232.75L280.812 227.125M270.375 232.75L255.625 214.812M270.375 232.75L259.938 238.375M270.375 232.75L237 235.5L224.5 245.312M312.125 210.25L301.688 215.875M312.125 210.25L322.562 204.625M312.125 210.25L297.125 192.562M312.125 210.25C293.917 211.771 257.125 214.812 255.625 214.812M249.5 298.75V312.438M249.5 298.75V285.062M249.5 298.75L224.5 272.938M249.5 298.75L224.5 328.188M249.5 271.375V285.062M249.5 271.375V257.688M249.5 271.375L224.5 245.312M249.5 271.375L224.5 300.562M249.5 326.125V339.812M249.5 326.125V312.438M249.5 326.125L224.5 300.562M249.5 326.125L233 345.91M249.5 339.812L224.5 314.375M249.5 339.812L241.25 349.705M249.5 312.438L224.5 286.75M249.5 285.062L224.5 259.125M249.5 285.062C241.667 294.188 225.7 312.825 224.5 314.375M249.5 257.688L224.5 286.75M224.5 286.75V272.938M224.5 286.75V300.562M224.5 259.125V245.312M224.5 259.125V272.938M224.5 259.125L245.25 238.751M224.5 314.375V300.562M224.5 314.375V328.188M234.875 225.938L245.25 238.751M259.938 238.375L245.25 238.751M297.125 192.562L315.75 190.882M324 194.765L315.75 190.882M233 345.91L241.25 349.705" stroke="#22262A"/>
<path d="M332 327.397V341.168L318.5 348.084L305 355L304.688 341.188L304.375 327.375L304.062 313.562L303.75 299.75L303.438 285.938L303.125 272.125L302.812 258.312L302.5 244.5L292.438 239.125L282.375 233.75L272.312 228.375L262.25 223L252.188 217.625L242.125 212.25L232.062 206.875L222 201.5L235.75 194.5L249.5 187.5L259.812 192.938L270.125 198.375L280.438 203.812L290.75 209.25L301.062 214.688L311.375 220.125L321.688 225.562L332 231V244.771V258.542V272.313V286.084V299.855V313.626V327.397Z" fill="url(#paint4_linear_313:346)"/>
<path d="M222 201.5L232.062 206.875M222 201.5L235.75 194.5M222 201.5L270.125 198.375M302.5 244.5L302.812 258.312M302.5 244.5L292.438 239.125M302.5 244.5L311.375 220.125M302.5 244.5L332 258.542M305 355L304.688 341.188M305 355L332 313.626M305 355L318.5 348.084M332 341.168V327.397M332 341.168L318.5 348.084M332 341.168L304.375 327.375M332 231V244.771M332 231L321.688 225.562M332 231L303.125 272.125M332 231L282.375 233.75M249.5 187.5L259.812 192.938M249.5 187.5L242.125 212.25M249.5 187.5L235.75 194.5M262.25 223L272.312 228.375M262.25 223L252.188 217.625M262.25 223L270.125 198.375M262.25 223L311.375 220.125M242.125 212.25L252.188 217.625M242.125 212.25L232.062 206.875M242.125 212.25L290.75 209.25M282.375 233.75L292.438 239.125M282.375 233.75L272.312 228.375M282.375 233.75L290.75 209.25M290.75 209.25L280.438 203.812M290.75 209.25L301.062 214.688M270.125 198.375L259.812 192.938M270.125 198.375L280.438 203.812M311.375 220.125L301.062 214.688M311.375 220.125L321.688 225.562M303.75 299.75L304.062 313.562M303.75 299.75L303.438 285.938M303.75 299.75L332 258.542M303.75 299.75L332 313.626M304.375 327.375L304.062 313.562M304.375 327.375L304.688 341.188M304.375 327.375L332 286.084M303.125 272.125L302.812 258.312M303.125 272.125L303.438 285.938M303.125 272.125L332 286.084M332 286.084V299.855M332 286.084V272.313M332 258.542V244.771M332 258.542V272.313M332 313.626V327.397M332 313.626V299.855M332 327.397L318.5 348.084M332 327.397L304.062 313.562M332 299.855L304.688 341.188M332 299.855L303.438 285.938M304.062 313.562L332 272.313M304.688 341.188L318.5 348.084M302.812 258.312L332 272.313M302.812 258.312L316.036 239.125M332 244.771L303.438 285.938M332 244.771L316.036 239.125M292.438 239.125L301.062 214.688M292.438 239.125H316.036M272.312 228.375L280.438 203.812M272.312 228.375L321.688 225.562M252.188 217.625L259.812 192.938M252.188 217.625L301.062 214.688M232.062 206.875L235.75 194.5M232.062 206.875L280.438 203.812M259.812 192.938L235.75 194.5M321.688 225.562L317.5 237L316.036 239.125" stroke="#22262A"/>
<path fill-rule="evenodd" clip-rule="evenodd" d="M277.799 161.27C266.181 179.695 271.951 203.315 280.426 217.52C286.752 211.374 294.652 207.938 302.141 204.68C315.844 198.719 328.173 193.356 326.982 173.089C326.782 169.683 326.181 166.659 325.255 164C324.418 161.596 323.315 159.489 322 157.665C320.435 155.494 318.571 153.724 316.5 152.33C314.287 150.841 311.837 149.782 309.265 149.124C306.6 148.442 303.803 148.191 301 148.337C298.127 148.488 295.249 149.055 292.5 150.006C289.734 150.962 287.099 152.305 284.733 154C281.986 155.968 279.602 158.411 277.799 161.27ZM280.426 217.52C285.166 210.736 290.313 204.646 294.934 199.177C302.335 190.42 308.387 183.257 309.265 177.395C309.422 176.344 309.395 175.378 309.213 174.5C309.018 173.564 308.648 172.729 308.139 172C307.583 171.204 306.861 170.535 306.021 170C305.265 169.518 304.413 169.144 303.5 168.883C302.401 168.57 301.214 168.421 300 168.446C298.979 168.467 297.939 168.611 296.917 168.883C295.735 169.198 294.578 169.684 293.5 170.35C292.426 171.014 291.431 171.856 290.573 172.885C284.223 180.492 275.968 196.276 280.426 217.52Z" fill="url(#paint5_linear_313:346)"/>
<path d="M280.426 217.52C271.951 203.315 266.181 179.695 277.799 161.27C279.602 158.411 281.986 155.968 284.733 154C287.099 152.305 289.734 150.962 292.5 150.006C295.249 149.055 298.127 148.488 301 148.337C303.803 148.191 306.6 148.442 309.265 149.124C311.837 149.782 314.287 150.841 316.5 152.33C318.571 153.724 320.435 155.494 322 157.665C323.315 159.489 324.418 161.596 325.255 164C326.181 166.659 326.782 169.683 326.982 173.089C328.173 193.356 315.844 198.719 302.141 204.68C294.652 207.938 286.752 211.374 280.426 217.52ZM280.426 217.52C275.968 196.276 284.223 180.492 290.573 172.885C291.431 171.856 292.426 171.014 293.5 170.35C294.578 169.684 295.735 169.198 296.917 168.883C297.939 168.611 298.979 168.467 300 168.446C301.214 168.421 302.401 168.57 303.5 168.883C304.413 169.144 305.265 169.518 306.021 170C306.861 170.535 307.583 171.204 308.139 172C308.648 172.729 309.018 173.564 309.213 174.5C309.395 175.378 309.422 176.344 309.265 177.395C308.387 183.257 302.335 190.42 294.934 199.177C290.313 204.646 285.166 210.736 280.426 217.52Z" stroke="#22262A"/>
<path fill-rule="evenodd" clip-rule="evenodd" d="M264.352 173.998C278.917 183.628 282.492 202.788 280.984 215.961C274.335 213.557 267.43 213.652 260.884 213.741C248.907 213.906 238.13 214.053 232.316 198.853C223.325 175.344 249.788 164.367 264.352 173.998ZM280.984 215.961C275.284 212.568 269.515 209.816 264.335 207.344C256.04 203.386 249.255 200.149 246.681 196.156C242.498 189.668 251.703 183.232 258.85 186.696C265.998 190.16 277.235 198.969 280.984 215.961Z" fill="url(#paint6_linear_313:346)"/>
<path d="M280.984 215.961C282.492 202.788 278.917 183.628 264.352 173.998C249.788 164.367 223.325 175.344 232.316 198.853C238.13 214.053 248.907 213.906 260.884 213.741C267.43 213.652 274.335 213.557 280.984 215.961ZM280.984 215.961C277.235 198.969 265.998 190.16 258.85 186.696C251.703 183.232 242.498 189.668 246.681 196.156C249.255 200.149 256.04 203.386 264.335 207.344C269.515 209.816 275.284 212.568 280.984 215.961Z" stroke="#22262A"/>
</g>
<defs>
<linearGradient id="paint0_linear_313:346" x1="59" y1="88.6316" x2="299.535" y2="90.7167" gradientUnits="userSpaceOnUse">
<stop offset="0.267495" stop-color="#FFC6CE"/>
<stop offset="1" stop-color="#64D6EE"/>
</linearGradient>
<linearGradient id="paint1_linear_313:346" x1="202" y1="251.309" x2="354.64" y2="253.699" gradientUnits="userSpaceOnUse">
<stop offset="0.267495" stop-color="#FFC6CE"/>
<stop offset="1" stop-color="#64D6EE"/>
</linearGradient>
<linearGradient id="paint2_linear_313:346" x1="365.5" y1="201.632" x2="196.209" y2="205.282" gradientUnits="userSpaceOnUse">
<stop offset="0.267495" stop-color="#FFC6CE"/>
<stop offset="1" stop-color="#64D6EE"/>
</linearGradient>
<linearGradient id="paint3_linear_313:346" x1="224.5" y1="225.339" x2="331.021" y2="226.38" gradientUnits="userSpaceOnUse">
<stop offset="0.267495" stop-color="#FFC6CE"/>
<stop offset="1" stop-color="#64D6EE"/>
</linearGradient>
<linearGradient id="paint4_linear_313:346" x1="222" y1="226.069" x2="329.993" y2="227.133" gradientUnits="userSpaceOnUse">
<stop offset="0.267495" stop-color="#FFC6CE"/>
<stop offset="1" stop-color="#64D6EE"/>
</linearGradient>
<linearGradient id="paint5_linear_313:346" x1="285.244" y1="150.836" x2="327.953" y2="182.248" gradientUnits="userSpaceOnUse">
<stop offset="0.267495" stop-color="#FFC6CE"/>
<stop offset="1" stop-color="#64D6EE"/>
</linearGradient>
<linearGradient id="paint6_linear_313:346" x1="255.472" y1="168.829" x2="234.627" y2="205.865" gradientUnits="userSpaceOnUse">
<stop offset="0.267495" stop-color="#FFC6CE"/>
<stop offset="1" stop-color="#64D6EE"/>
</linearGradient>
</defs>
</svg>
