<svg width="400" height="400" viewBox="0 0 400 400" fill="none" xmlns="http://www.w3.org/2000/svg">
<mask id="mask0_313:159" style="mask-type:alpha" maskUnits="userSpaceOnUse" x="-100" y="-100" width="600" height="600">
<circle cx="200" cy="200" r="300" fill="#22262A"/>
</mask>
<g mask="url(#mask0_313:159)">
<circle cx="200" cy="200" r="300" fill="#22262A"/>
<path d="M233.042 258.35C233.042 257.883 233.509 257.65 234.442 257.65C235.142 257.65 235.726 257.883 236.192 258.35C236.892 258.583 237.242 258.817 237.242 259.05C234.909 277.25 233.742 293.817 233.742 308.75C233.742 310.617 233.392 312.017 232.692 312.95C231.992 313.65 230.592 314 228.492 314H73.7924C73.0924 314 72.7424 313.3 72.7424 311.9C72.7424 310.5 73.0924 309.8 73.7924 309.8C81.2591 309.8 86.6257 309.217 89.8924 308.05C93.3924 306.883 95.7257 304.667 96.8924 301.4C98.0591 297.9 98.6424 292.65 98.6424 285.65V123.6C98.6424 116.6 98.0591 111.467 96.8924 108.2C95.7257 104.933 93.3924 102.717 89.8924 101.55C86.3924 100.15 81.0257 99.45 73.7924 99.45C73.0924 99.45 72.7424 98.75 72.7424 97.35C72.7424 95.95 73.0924 95.25 73.7924 95.25H222.192C224.526 95.25 225.692 96.3 225.692 98.4L226.392 144.95C226.392 145.417 225.692 145.767 224.292 146C223.126 146.233 222.426 146 222.192 145.3C218.459 131.767 212.159 121.733 203.292 115.2C194.426 108.667 182.759 105.4 168.292 105.4H157.792C150.792 105.4 145.659 106.917 142.392 109.95C139.126 112.983 137.492 117.65 137.492 123.95V195.35H166.542C180.076 195.35 190.459 193.017 197.692 188.35C204.926 183.683 208.542 177.15 208.542 168.75C208.542 168.05 209.126 167.7 210.292 167.7C211.692 167.7 212.392 168.05 212.392 168.75L212.042 200.25L212.392 217.05C212.859 224.983 213.092 231.283 213.092 235.95C213.092 236.417 212.392 236.65 210.992 236.65C209.592 236.65 208.892 236.417 208.892 235.95C208.892 226.383 205.159 218.917 197.692 213.55C190.459 207.95 179.959 205.15 166.192 205.15H137.492V284.25C137.492 291.017 138.776 296.033 141.342 299.3C143.909 302.567 147.992 304.2 153.592 304.2H165.142C183.342 304.2 197.926 300.467 208.892 293C219.859 285.533 227.909 273.983 233.042 258.35Z" fill="url(#paint0_linear_313:159)"/>
<path d="M233.042 258.35L234.943 258.974L235.042 258.67V258.35H233.042ZM236.192 258.35L234.778 259.764L235.112 260.098L235.56 260.247L236.192 258.35ZM237.242 259.05L239.226 259.304L239.242 259.178V259.05H237.242ZM232.692 312.95L234.107 314.364L234.207 314.264L234.292 314.15L232.692 312.95ZM89.8924 308.05L89.2599 306.153L89.2397 306.159L89.2197 306.167L89.8924 308.05ZM96.8924 301.4L98.7759 302.073L98.783 302.053L98.7898 302.032L96.8924 301.4ZM96.8924 108.2L95.0089 108.873H95.0089L96.8924 108.2ZM89.8924 101.55L89.1496 103.407L89.2042 103.429L89.2599 103.447L89.8924 101.55ZM225.692 98.4H223.692V98.415L223.693 98.4301L225.692 98.4ZM226.392 144.95H228.392V144.935L228.392 144.92L226.392 144.95ZM224.292 146L223.964 144.027L223.932 144.033L223.9 144.039L224.292 146ZM222.192 145.3L220.264 145.832L220.278 145.883L220.295 145.932L222.192 145.3ZM203.292 115.2L202.106 116.81L203.292 115.2ZM142.392 109.95L143.753 111.416H143.753L142.392 109.95ZM137.492 195.35H135.492V197.35H137.492V195.35ZM197.692 188.35L196.608 186.669L197.692 188.35ZM212.392 168.75L214.392 168.772L214.392 168.761V168.75H212.392ZM212.042 200.25L210.043 200.228L210.042 200.26L210.043 200.292L212.042 200.25ZM212.392 217.05L210.393 217.092L210.394 217.13L210.396 217.167L212.392 217.05ZM197.692 213.55L196.468 215.131L196.496 215.153L196.525 215.174L197.692 213.55ZM137.492 205.15V203.15H135.492V205.15H137.492ZM141.342 299.3L142.915 298.064L141.342 299.3ZM208.892 293L207.767 291.347L208.892 293ZM235.042 258.35C235.042 258.583 234.978 258.877 234.794 259.153C234.618 259.417 234.407 259.554 234.287 259.614C234.174 259.67 234.115 259.674 234.159 259.667C234.197 259.66 234.287 259.65 234.442 259.65V255.65C233.874 255.65 233.149 255.711 232.498 256.036C232.144 256.213 231.758 256.495 231.466 256.934C231.165 257.386 231.042 257.883 231.042 258.35H235.042ZM234.442 259.65C234.648 259.65 234.711 259.697 234.778 259.764L237.607 256.936C236.74 256.07 235.637 255.65 234.442 255.65V259.65ZM235.56 260.247C235.848 260.343 235.914 260.393 235.87 260.364C235.845 260.347 235.715 260.259 235.577 260.075C235.427 259.875 235.242 259.523 235.242 259.05H239.242C239.242 257.872 238.385 257.233 238.089 257.036C237.696 256.773 237.237 256.59 236.825 256.453L235.56 260.247ZM235.259 258.796C232.917 277.062 231.742 293.715 231.742 308.75H235.742C235.742 293.918 236.901 277.438 239.226 259.304L235.259 258.796ZM231.742 308.75C231.742 310.424 231.418 311.315 231.092 311.75L234.292 314.15C235.366 312.718 235.742 310.809 235.742 308.75H231.742ZM231.278 311.536C231.28 311.534 231.247 311.568 231.142 311.621C231.035 311.674 230.872 311.737 230.632 311.797C230.145 311.919 229.446 312 228.492 312V316C229.639 316 230.69 315.906 231.602 315.678C232.503 315.453 233.409 315.062 234.107 314.364L231.278 311.536ZM228.492 312H73.7924V316H228.492V312ZM73.7924 312C73.9674 312 74.2097 312.049 74.4424 312.205C74.6626 312.351 74.7626 312.518 74.7937 312.581C74.821 312.635 74.8027 312.621 74.7808 312.49C74.7598 312.364 74.7424 312.172 74.7424 311.9H70.7424C70.7424 312.702 70.8321 313.602 71.216 314.369C71.4222 314.782 71.7409 315.211 72.2236 315.533C72.7188 315.863 73.2674 316 73.7924 316V312ZM74.7424 311.9C74.7424 311.628 74.7598 311.436 74.7808 311.31C74.8027 311.179 74.821 311.165 74.7937 311.219C74.7626 311.282 74.6626 311.449 74.4424 311.595C74.2097 311.751 73.9674 311.8 73.7924 311.8V307.8C73.2674 307.8 72.7188 307.937 72.2236 308.267C71.7409 308.589 71.4222 309.018 71.216 309.431C70.8321 310.198 70.7424 311.098 70.7424 311.9H74.7424ZM73.7924 311.8C81.286 311.8 86.9508 311.224 90.5651 309.933L89.2197 306.167C86.3006 307.209 81.2321 307.8 73.7924 307.8V311.8ZM90.5248 309.947C94.565 308.601 97.3878 305.959 98.7759 302.073L95.0089 300.727C94.0637 303.374 92.2198 305.166 89.2599 306.153L90.5248 309.947ZM98.7898 302.032C100.061 298.22 100.642 292.708 100.642 285.65H96.6424C96.6424 292.592 96.0575 297.58 94.995 300.768L98.7898 302.032ZM100.642 285.65V123.6H96.6424V285.65H100.642ZM100.642 123.6C100.642 116.555 100.064 111.133 98.7759 107.527L95.0089 108.873C96.0543 111.8 96.6424 116.645 96.6424 123.6H100.642ZM98.7759 107.527C97.3878 103.641 94.565 100.999 90.5248 99.6526L89.2599 103.447C92.2198 104.434 94.0637 106.226 95.0089 108.873L98.7759 107.527ZM90.6352 99.693C86.7703 98.1471 81.09 97.45 73.7924 97.45V101.45C80.9615 101.45 86.0144 102.153 89.1496 103.407L90.6352 99.693ZM73.7924 97.45C73.9674 97.45 74.2097 97.4995 74.4424 97.6546C74.6626 97.8015 74.7626 97.9683 74.7937 98.0306C74.821 98.085 74.8027 98.0715 74.7808 97.9399C74.7598 97.8138 74.7424 97.622 74.7424 97.35H70.7424C70.7424 98.1521 70.8321 99.0515 71.216 99.8194C71.4222 100.232 71.7409 100.661 72.2236 100.983C72.7189 101.313 73.2674 101.45 73.7924 101.45V97.45ZM74.7424 97.35C74.7424 97.078 74.7598 96.8862 74.7808 96.76C74.8027 96.6285 74.821 96.615 74.7937 96.6694C74.7626 96.7317 74.6626 96.8985 74.4424 97.0453C74.2097 97.2005 73.9674 97.25 73.7924 97.25V93.25C73.2674 93.25 72.7189 93.387 72.2236 93.7171C71.7409 94.039 71.4222 94.4683 71.216 94.8806C70.8321 95.6485 70.7424 96.5478 70.7424 97.35H74.7424ZM73.7924 97.25H222.192V93.25H73.7924V97.25ZM222.192 97.25C223.1 97.25 223.407 97.4587 223.479 97.5241C223.512 97.5534 223.692 97.7159 223.692 98.4H227.692C227.692 96.9841 227.289 95.5716 226.155 94.5509C225.061 93.5663 223.618 93.25 222.192 93.25V97.25ZM223.693 98.4301L224.393 144.98L228.392 144.92L227.692 98.3699L223.693 98.4301ZM224.392 144.95C224.392 144.517 224.57 144.178 224.743 143.977C224.889 143.806 225.009 143.756 224.973 143.774C224.948 143.786 224.859 143.825 224.676 143.876C224.498 143.925 224.264 143.977 223.964 144.027L224.621 147.973C225.386 147.845 226.144 147.66 226.762 147.351C227.302 147.081 228.392 146.364 228.392 144.95H224.392ZM223.9 144.039C223.704 144.078 223.576 144.087 223.505 144.087C223.432 144.087 223.45 144.078 223.525 144.103C223.609 144.131 223.741 144.196 223.869 144.323C223.997 144.451 224.062 144.583 224.09 144.668L220.295 145.932C220.611 146.88 221.313 147.582 222.26 147.897C223.084 148.172 223.948 148.109 224.685 147.961L223.9 144.039ZM224.12 144.768C220.301 130.923 213.796 120.455 204.479 113.59L202.106 116.81C210.522 123.012 216.617 132.61 220.264 145.832L224.12 144.768ZM204.479 113.59C195.175 106.734 183.053 103.4 168.292 103.4V107.4C182.465 107.4 193.677 110.599 202.106 116.81L204.479 113.59ZM168.292 103.4H157.792V107.4H168.292V103.4ZM157.792 103.4C150.564 103.4 144.83 104.957 141.031 108.484L143.753 111.416C146.488 108.876 151.021 107.4 157.792 107.4V103.4ZM141.031 108.484C137.212 112.031 135.492 117.329 135.492 123.95H139.492C139.492 117.971 141.039 113.936 143.753 111.416L141.031 108.484ZM135.492 123.95V195.35H139.492V123.95H135.492ZM137.492 197.35H166.542V193.35H137.492V197.35ZM166.542 197.35C180.258 197.35 191.084 194.993 198.777 190.031L196.608 186.669C189.834 191.04 179.893 193.35 166.542 193.35V197.35ZM198.777 190.031C206.564 185.007 210.542 177.849 210.542 168.75H206.542C206.542 176.451 203.288 182.36 196.608 186.669L198.777 190.031ZM210.542 168.75C210.542 168.858 210.518 169.05 210.4 169.262C210.281 169.476 210.123 169.609 210.009 169.677C209.908 169.738 209.859 169.739 209.919 169.727C209.976 169.715 210.095 169.7 210.292 169.7V165.7C209.574 165.7 208.703 165.796 207.951 166.248C207.036 166.797 206.542 167.722 206.542 168.75H210.542ZM210.292 169.7C210.564 169.7 210.756 169.717 210.882 169.738C211.014 169.76 211.027 169.779 210.973 169.751C210.911 169.72 210.744 169.62 210.597 169.4C210.442 169.167 210.392 168.925 210.392 168.75H214.392C214.392 168.225 214.255 167.676 213.925 167.181C213.603 166.699 213.174 166.38 212.762 166.174C211.994 165.79 211.095 165.7 210.292 165.7V169.7ZM210.393 168.728L210.043 200.228L214.042 200.272L214.392 168.772L210.393 168.728ZM210.043 200.292L210.393 217.092L214.392 217.008L214.042 200.208L210.043 200.292ZM210.396 217.167C210.862 225.085 211.092 231.34 211.092 235.95H215.092C215.092 231.226 214.857 224.882 214.389 216.933L210.396 217.167ZM211.092 235.95C211.092 235.751 211.131 235.537 211.221 235.326C211.31 235.118 211.431 234.958 211.547 234.842C211.659 234.73 211.762 234.664 211.826 234.628C211.889 234.593 211.931 234.579 211.935 234.578C211.937 234.577 211.867 234.599 211.69 234.618C211.52 234.637 211.291 234.65 210.992 234.65V238.65C211.751 238.65 212.537 238.593 213.2 238.372C213.811 238.169 215.092 237.512 215.092 235.95H211.092ZM210.992 234.65C210.694 234.65 210.465 234.637 210.294 234.618C210.117 234.599 210.048 234.577 210.05 234.578C210.054 234.579 210.095 234.593 210.159 234.628C210.223 234.664 210.326 234.73 210.438 234.842C210.553 234.958 210.674 235.118 210.763 235.326C210.854 235.537 210.892 235.751 210.892 235.95H206.892C206.892 237.512 208.174 238.169 208.785 238.372C209.448 238.593 210.234 238.65 210.992 238.65V234.65ZM210.892 235.95C210.892 225.77 206.874 217.686 198.86 211.926L196.525 215.174C203.445 220.147 206.892 226.996 206.892 235.95H210.892ZM198.917 211.969C191.195 205.991 180.189 203.15 166.192 203.15V207.15C179.729 207.15 189.723 209.909 196.468 215.131L198.917 211.969ZM166.192 203.15H137.492V207.15H166.192V203.15ZM135.492 205.15V284.25H139.492V205.15H135.492ZM135.492 284.25C135.492 291.204 136.8 296.756 139.77 300.536L142.915 298.064C140.752 295.311 139.492 290.829 139.492 284.25H135.492ZM139.77 300.536C142.837 304.44 147.607 306.2 153.592 306.2V302.2C148.377 302.2 144.981 300.693 142.915 298.064L139.77 300.536ZM153.592 306.2H165.142V302.2H153.592V306.2ZM165.142 306.2C183.599 306.2 198.617 302.416 210.018 294.653L207.767 291.347C197.235 298.518 183.086 302.2 165.142 302.2V306.2ZM210.018 294.653C221.43 286.884 229.705 274.924 234.943 258.974L231.142 257.726C226.113 273.043 218.288 284.183 207.767 291.347L210.018 294.653Z" fill="#22262A"/>
<path d="M187 249.5C187 242.873 207.147 237.5 232 237.5C256.853 237.5 277 242.873 277 249.5" stroke="url(#paint1_linear_313:159)" stroke-width="2"/>
<path d="M187 262.5C187 255.873 207.147 250.5 232 250.5C256.853 250.5 277 255.873 277 262.5" stroke="url(#paint2_linear_313:159)" stroke-width="2"/>
<path d="M187 275.5C187 268.873 207.147 263.5 232 263.5C256.853 263.5 277 268.873 277 275.5" stroke="url(#paint3_linear_313:159)" stroke-width="2"/>
<path d="M187 288.5C187 281.873 207.147 276.5 232 276.5C256.853 276.5 277 281.873 277 288.5" stroke="url(#paint4_linear_313:159)" stroke-width="2"/>
<path d="M187 301.5C187 294.873 207.147 289.5 232 289.5C256.853 289.5 277 294.873 277 301.5" stroke="url(#paint5_linear_313:159)" stroke-width="2"/>
<path d="M175.5 182.5L231.75 124L288 182.5H259.875V273.5H203.625V182.5H175.5Z" stroke="url(#paint6_linear_313:159)" stroke-width="2"/>
<path d="M270.5 148.5V168.5H256C266.875 166 268.688 163.5 270.5 148.5Z" fill="url(#paint7_linear_313:159)"/>
<path d="M270.5 188.5V168.5H256C266.875 171 268.688 173.5 270.5 188.5Z" fill="url(#paint8_linear_313:159)"/>
<path d="M270.5 148.5V168.5H285C274.125 166 272.312 163.5 270.5 148.5Z" fill="url(#paint9_linear_313:159)"/>
<path d="M270.5 188.5V168.5H285C274.125 171 272.312 173.5 270.5 188.5Z" fill="url(#paint10_linear_313:159)"/>
<path d="M175.5 201L231.75 142.5L288 201H259.875V292H203.625V201H175.5Z" fill="#22262A" stroke="url(#paint11_linear_313:159)" stroke-width="2"/>
<path d="M195 110V118H187C193 117 194 116 195 110Z" fill="url(#paint12_linear_313:159)"/>
<path d="M195 126V118H187C193 119 194 120 195 126Z" fill="url(#paint13_linear_313:159)"/>
<path d="M195 110V118H203C197 117 196 116 195 110Z" fill="url(#paint14_linear_313:159)"/>
<path d="M195 126V118H203C197 119 196 120 195 126Z" fill="url(#paint15_linear_313:159)"/>
<path d="M171.5 225.5V244.5H156C167.625 242.125 169.562 239.75 171.5 225.5Z" fill="url(#paint16_linear_313:159)"/>
<path d="M171.5 263.5V244.5H156C167.625 246.875 169.562 249.25 171.5 263.5Z" fill="url(#paint17_linear_313:159)"/>
<path d="M171.5 225.5V244.5H187C175.375 242.125 173.438 239.75 171.5 225.5Z" fill="url(#paint18_linear_313:159)"/>
<path d="M171.5 263.5V244.5H187C175.375 246.875 173.438 249.25 171.5 263.5Z" fill="url(#paint19_linear_313:159)"/>
<path d="M325.5 221.5V232H315C322.875 230.688 324.188 229.375 325.5 221.5Z" fill="url(#paint20_linear_313:159)"/>
<path d="M325.5 242.5V232H315C322.875 233.312 324.188 234.625 325.5 242.5Z" fill="url(#paint21_linear_313:159)"/>
<path d="M325.5 221.5V232H336C328.125 230.688 326.812 229.375 325.5 221.5Z" fill="url(#paint22_linear_313:159)"/>
<path d="M325.5 242.5V232H336C328.125 233.312 326.812 234.625 325.5 242.5Z" fill="url(#paint23_linear_313:159)"/>
<path d="M203.5 277.5V292H189C199.875 290.188 201.688 288.375 203.5 277.5Z" fill="url(#paint24_linear_313:159)"/>
<path d="M203.5 306.5V292H189C199.875 293.812 201.688 295.625 203.5 306.5Z" fill="url(#paint25_linear_313:159)"/>
<path d="M203.5 277.5V292H218C207.125 290.188 205.312 288.375 203.5 277.5Z" fill="url(#paint26_linear_313:159)"/>
<path d="M203.5 306.5V292H218C207.125 293.812 205.312 295.625 203.5 306.5Z" fill="url(#paint27_linear_313:159)"/>
<path d="M277 249.5C277 256.127 256.853 261.5 232 261.5C207.147 261.5 187 256.127 187 249.5" stroke="url(#paint28_linear_313:159)" stroke-width="2"/>
<path d="M277 262.5C277 269.127 256.853 274.5 232 274.5C207.147 274.5 187 269.127 187 262.5" stroke="url(#paint29_linear_313:159)" stroke-width="2"/>
<path d="M277 275.5C277 282.127 256.853 287.5 232 287.5C207.147 287.5 187 282.127 187 275.5" stroke="url(#paint30_linear_313:159)" stroke-width="2"/>
<path d="M277 288.5C277 295.127 256.853 300.5 232 300.5C207.147 300.5 187 295.127 187 288.5" stroke="url(#paint31_linear_313:159)" stroke-width="2"/>
<path d="M277 301.5C277 308.127 256.853 313.5 232 313.5C207.147 313.5 187 308.127 187 301.5" stroke="url(#paint32_linear_313:159)" stroke-width="2"/>
</g>
<defs>
<linearGradient id="paint0_linear_313:159" x1="59" y1="88.6316" x2="249.47" y2="89.939" gradientUnits="userSpaceOnUse">
<stop offset="0.267495" stop-color="#FFC6CE"/>
<stop offset="1" stop-color="#64D6EE"/>
</linearGradient>
<linearGradient id="paint1_linear_313:159" x1="277" y1="246.737" x2="189.738" y2="236.919" gradientUnits="userSpaceOnUse">
<stop offset="0.267495" stop-color="#FFC6CE"/>
<stop offset="1" stop-color="#64D6EE"/>
</linearGradient>
<linearGradient id="paint2_linear_313:159" x1="277" y1="259.737" x2="189.738" y2="249.919" gradientUnits="userSpaceOnUse">
<stop offset="0.267495" stop-color="#FFC6CE"/>
<stop offset="1" stop-color="#64D6EE"/>
</linearGradient>
<linearGradient id="paint3_linear_313:159" x1="277" y1="272.737" x2="189.738" y2="262.919" gradientUnits="userSpaceOnUse">
<stop offset="0.267495" stop-color="#FFC6CE"/>
<stop offset="1" stop-color="#64D6EE"/>
</linearGradient>
<linearGradient id="paint4_linear_313:159" x1="277" y1="285.737" x2="189.738" y2="275.919" gradientUnits="userSpaceOnUse">
<stop offset="0.267495" stop-color="#FFC6CE"/>
<stop offset="1" stop-color="#64D6EE"/>
</linearGradient>
<linearGradient id="paint5_linear_313:159" x1="277" y1="298.737" x2="189.738" y2="288.919" gradientUnits="userSpaceOnUse">
<stop offset="0.267495" stop-color="#FFC6CE"/>
<stop offset="1" stop-color="#64D6EE"/>
</linearGradient>
<linearGradient id="paint6_linear_313:159" x1="175.5" y1="158.424" x2="285.944" y2="159.671" gradientUnits="userSpaceOnUse">
<stop offset="0.267495" stop-color="#FFC6CE"/>
<stop offset="1" stop-color="#64D6EE"/>
</linearGradient>
<linearGradient id="paint7_linear_313:159" x1="256" y1="153.105" x2="270.235" y2="153.26" gradientUnits="userSpaceOnUse">
<stop offset="0.267495" stop-color="#FFC6CE"/>
<stop offset="1" stop-color="#64D6EE"/>
</linearGradient>
<linearGradient id="paint8_linear_313:159" x1="256" y1="183.895" x2="270.235" y2="183.74" gradientUnits="userSpaceOnUse">
<stop offset="0.267495" stop-color="#FFC6CE"/>
<stop offset="1" stop-color="#64D6EE"/>
</linearGradient>
<linearGradient id="paint9_linear_313:159" x1="285" y1="153.105" x2="270.765" y2="153.26" gradientUnits="userSpaceOnUse">
<stop offset="0.267495" stop-color="#FFC6CE"/>
<stop offset="1" stop-color="#64D6EE"/>
</linearGradient>
<linearGradient id="paint10_linear_313:159" x1="285" y1="183.895" x2="270.765" y2="183.74" gradientUnits="userSpaceOnUse">
<stop offset="0.267495" stop-color="#FFC6CE"/>
<stop offset="1" stop-color="#64D6EE"/>
</linearGradient>
<linearGradient id="paint11_linear_313:159" x1="175.5" y1="176.924" x2="285.944" y2="178.171" gradientUnits="userSpaceOnUse">
<stop offset="0.267495" stop-color="#FFC6CE"/>
<stop offset="1" stop-color="#64D6EE"/>
</linearGradient>
<linearGradient id="paint12_linear_313:159" x1="187" y1="111.842" x2="194.853" y2="111.96" gradientUnits="userSpaceOnUse">
<stop offset="0.267495" stop-color="#FFC6CE"/>
<stop offset="1" stop-color="#64D6EE"/>
</linearGradient>
<linearGradient id="paint13_linear_313:159" x1="187" y1="124.158" x2="194.853" y2="124.04" gradientUnits="userSpaceOnUse">
<stop offset="0.267495" stop-color="#FFC6CE"/>
<stop offset="1" stop-color="#64D6EE"/>
</linearGradient>
<linearGradient id="paint14_linear_313:159" x1="203" y1="111.842" x2="195.147" y2="111.96" gradientUnits="userSpaceOnUse">
<stop offset="0.267495" stop-color="#FFC6CE"/>
<stop offset="1" stop-color="#64D6EE"/>
</linearGradient>
<linearGradient id="paint15_linear_313:159" x1="203" y1="124.158" x2="195.147" y2="124.04" gradientUnits="userSpaceOnUse">
<stop offset="0.267495" stop-color="#FFC6CE"/>
<stop offset="1" stop-color="#64D6EE"/>
</linearGradient>
<linearGradient id="paint16_linear_313:159" x1="156" y1="229.875" x2="171.216" y2="230.061" gradientUnits="userSpaceOnUse">
<stop offset="0.267495" stop-color="#FFC6CE"/>
<stop offset="1" stop-color="#64D6EE"/>
</linearGradient>
<linearGradient id="paint17_linear_313:159" x1="156" y1="259.125" x2="171.216" y2="258.939" gradientUnits="userSpaceOnUse">
<stop offset="0.267495" stop-color="#FFC6CE"/>
<stop offset="1" stop-color="#64D6EE"/>
</linearGradient>
<linearGradient id="paint18_linear_313:159" x1="187" y1="229.875" x2="171.784" y2="230.061" gradientUnits="userSpaceOnUse">
<stop offset="0.267495" stop-color="#FFC6CE"/>
<stop offset="1" stop-color="#64D6EE"/>
</linearGradient>
<linearGradient id="paint19_linear_313:159" x1="187" y1="259.125" x2="171.784" y2="258.939" gradientUnits="userSpaceOnUse">
<stop offset="0.267495" stop-color="#FFC6CE"/>
<stop offset="1" stop-color="#64D6EE"/>
</linearGradient>
<linearGradient id="paint20_linear_313:159" x1="315" y1="223.918" x2="325.307" y2="224.072" gradientUnits="userSpaceOnUse">
<stop offset="0.267495" stop-color="#FFC6CE"/>
<stop offset="1" stop-color="#64D6EE"/>
</linearGradient>
<linearGradient id="paint21_linear_313:159" x1="315" y1="240.082" x2="325.307" y2="239.928" gradientUnits="userSpaceOnUse">
<stop offset="0.267495" stop-color="#FFC6CE"/>
<stop offset="1" stop-color="#64D6EE"/>
</linearGradient>
<linearGradient id="paint22_linear_313:159" x1="336" y1="223.918" x2="325.693" y2="224.072" gradientUnits="userSpaceOnUse">
<stop offset="0.267495" stop-color="#FFC6CE"/>
<stop offset="1" stop-color="#64D6EE"/>
</linearGradient>
<linearGradient id="paint23_linear_313:159" x1="336" y1="240.082" x2="325.693" y2="239.928" gradientUnits="userSpaceOnUse">
<stop offset="0.267495" stop-color="#FFC6CE"/>
<stop offset="1" stop-color="#64D6EE"/>
</linearGradient>
<linearGradient id="paint24_linear_313:159" x1="189" y1="280.839" x2="203.234" y2="281.052" gradientUnits="userSpaceOnUse">
<stop offset="0.267495" stop-color="#FFC6CE"/>
<stop offset="1" stop-color="#64D6EE"/>
</linearGradient>
<linearGradient id="paint25_linear_313:159" x1="189" y1="303.161" x2="203.234" y2="302.948" gradientUnits="userSpaceOnUse">
<stop offset="0.267495" stop-color="#FFC6CE"/>
<stop offset="1" stop-color="#64D6EE"/>
</linearGradient>
<linearGradient id="paint26_linear_313:159" x1="218" y1="280.839" x2="203.766" y2="281.052" gradientUnits="userSpaceOnUse">
<stop offset="0.267495" stop-color="#FFC6CE"/>
<stop offset="1" stop-color="#64D6EE"/>
</linearGradient>
<linearGradient id="paint27_linear_313:159" x1="218" y1="303.161" x2="203.766" y2="302.948" gradientUnits="userSpaceOnUse">
<stop offset="0.267495" stop-color="#FFC6CE"/>
<stop offset="1" stop-color="#64D6EE"/>
</linearGradient>
<linearGradient id="paint28_linear_313:159" x1="187" y1="252.263" x2="274.262" y2="262.081" gradientUnits="userSpaceOnUse">
<stop offset="0.267495" stop-color="#FFC6CE"/>
<stop offset="1" stop-color="#64D6EE"/>
</linearGradient>
<linearGradient id="paint29_linear_313:159" x1="187" y1="265.263" x2="274.262" y2="275.081" gradientUnits="userSpaceOnUse">
<stop offset="0.267495" stop-color="#FFC6CE"/>
<stop offset="1" stop-color="#64D6EE"/>
</linearGradient>
<linearGradient id="paint30_linear_313:159" x1="187" y1="278.263" x2="274.262" y2="288.081" gradientUnits="userSpaceOnUse">
<stop offset="0.267495" stop-color="#FFC6CE"/>
<stop offset="1" stop-color="#64D6EE"/>
</linearGradient>
<linearGradient id="paint31_linear_313:159" x1="187" y1="291.263" x2="274.262" y2="301.081" gradientUnits="userSpaceOnUse">
<stop offset="0.267495" stop-color="#FFC6CE"/>
<stop offset="1" stop-color="#64D6EE"/>
</linearGradient>
<linearGradient id="paint32_linear_313:159" x1="187" y1="304.263" x2="274.262" y2="314.081" gradientUnits="userSpaceOnUse">
<stop offset="0.267495" stop-color="#FFC6CE"/>
<stop offset="1" stop-color="#64D6EE"/>
</linearGradient>
</defs>
</svg>
