<svg width="50" height="50" viewBox="20 25 50 50" fill="none" xmlns="http://www.w3.org/2000/svg">
<g clip-path="url(#clip0_1040_4080)">
<path d="M31.0452 29.9338C26.7643 29.9338 23.6885 32.7218 21.8179 38.2977C21.7819 38.4057 21.674 38.4596 21.4941 38.4596C21.3142 38.4236 21.2243 38.3517 21.2243 38.2438C21.3682 36.8048 21.5301 34.9522 21.71 32.6858C21.8898 30.3835 21.9798 28.6567 21.9798 27.5056C21.9798 27.3257 22.0697 27.2358 22.2496 27.2358C22.4654 27.2358 22.5733 27.3257 22.5733 27.5056C22.5733 28.297 23.5986 28.6927 25.6491 28.6927C28.7429 28.8006 32.3582 28.8546 36.4952 28.8546C38.6177 28.8546 40.866 28.8186 43.2403 28.7467L46.9097 28.6927C48.2767 28.6927 49.2659 28.6028 49.8775 28.4229C50.525 28.243 50.9387 27.8833 51.1186 27.3437C51.1546 27.1998 51.2625 27.1278 51.4424 27.1278C51.6582 27.1278 51.7661 27.1998 51.7661 27.3437C51.6582 28.4229 51.5323 30.1496 51.3884 32.5239C51.2805 34.8982 51.2265 36.8048 51.2265 38.2438C51.2265 38.3517 51.1366 38.4057 50.9567 38.4057C50.7769 38.4057 50.6689 38.3517 50.633 38.2438C50.0933 35.4738 49.0861 33.4053 47.6112 32.0383C46.1362 30.6353 44.3195 29.9338 42.1611 29.9338C41.1179 29.9338 40.4164 30.1676 40.0566 30.6353C39.7329 31.067 39.571 31.9124 39.571 33.1715V58.0474C39.571 59.1626 39.6789 59.972 39.8948 60.4756C40.1106 60.9793 40.5243 61.321 41.1359 61.5009C41.7474 61.6807 42.7187 61.7707 44.0497 61.7707C44.1577 61.7707 44.2116 61.8786 44.2116 62.0944C44.2116 62.3103 44.1577 62.4182 44.0497 62.4182C42.7547 62.4182 41.7294 62.4002 40.974 62.3643L36.4952 62.3103L32.1244 62.3643C31.3689 62.4002 30.3257 62.4182 28.9947 62.4182C28.8867 62.4182 28.8328 62.3103 28.8328 62.0944C28.8328 61.8786 28.8867 61.7707 28.9947 61.7707C30.2897 61.7707 31.243 61.6807 31.8546 61.5009C32.5021 61.321 32.9338 60.9793 33.1497 60.4756C33.4015 59.936 33.5274 59.1266 33.5274 58.0474V33.0635C33.5274 31.8404 33.3655 31.013 33.0417 30.5813C32.718 30.1496 32.0524 29.9338 31.0452 29.9338Z" fill="url(#paint0_linear_1040_4080)"/>
<g filter="url(#filter0_d_1040_4080)">
<path d="M68.0641 42.9104C66.9145 44.6204 65.504 46.0781 63.8328 47.2835C63.8493 47.6068 63.8576 47.9722 63.8576 48.3797C63.8576 50.6439 63.5275 52.9108 62.8673 55.1804C62.2071 57.4501 61.1986 59.6226 59.8419 61.6978C58.4851 63.7731 56.869 65.6116 54.9935 67.2134C53.118 68.8151 50.8635 70.0923 48.2301 71.0448C45.5967 71.9973 42.7744 72.4736 39.7632 72.4736C35.0638 72.4736 30.736 71.2049 26.78 68.6676C27.4822 68.7457 28.1556 68.7848 28.8003 68.7848C32.7263 68.7848 36.2329 67.5755 39.32 65.157C37.4894 65.1234 35.8501 64.5599 34.4018 63.4665C32.9536 62.3731 31.957 60.9759 31.4119 59.2749C31.9507 59.3776 32.4824 59.4289 33.0071 59.4289C33.7624 59.4289 34.5055 59.3304 35.2366 59.1334C33.2831 58.7421 31.6625 57.7691 30.3748 56.2144C29.0871 54.6597 28.4433 52.8653 28.4433 50.8312V50.7264C29.6424 51.3903 30.9214 51.7434 32.2803 51.7858C31.1231 51.0143 30.2055 50.0083 29.5277 48.7676C28.8499 47.527 28.511 46.1845 28.511 44.7399C28.511 43.2165 28.8927 41.7978 29.6562 40.484C31.7807 43.091 34.3548 45.1746 37.3788 46.7348C40.4027 48.295 43.6469 49.1615 47.1112 49.3343C46.9634 48.7185 46.8894 48.0759 46.8892 47.4065C46.8892 45.0691 47.7163 43.0734 49.3706 41.4192C51.0249 39.7651 53.0207 38.938 55.3581 38.938C57.8052 38.938 59.8664 39.829 61.5418 41.6111C63.4559 41.232 65.2482 40.5462 66.9186 39.5538C66.2751 41.5791 65.035 43.1415 63.1984 44.241C64.8864 44.0404 66.5083 43.5969 68.064 42.9104H68.0641Z" fill="url(#paint1_linear_1040_4080)"/>
</g>
</g>
<defs>
<filter id="filter0_d_1040_4080" x="19.3544" y="34.7458" width="56.3958" height="46.7102" filterUnits="userSpaceOnUse" color-interpolation-filters="sRGB">
<feFlood flood-opacity="0" result="BackgroundImageFix"/>
<feColorMatrix in="SourceAlpha" type="matrix" values="0 0 0 0 0 0 0 0 0 0 0 0 0 0 0 0 0 0 127 0" result="hardAlpha"/>
<feOffset dy="2.3954"/>
<feGaussianBlur stdDeviation="1.1977"/>
<feComposite in2="hardAlpha" operator="out"/>
<feColorMatrix type="matrix" values="0 0 0 0 0 0 0 0 0 0 0 0 0 0 0 0 0 0 0.25 0"/>
<feBlend mode="normal" in2="BackgroundImageFix" result="effect1_dropShadow_1040_4080"/>
<feBlend mode="normal" in="SourceGraphic" in2="effect1_dropShadow_1040_4080" result="shape"/>
</filter>
<linearGradient id="paint0_linear_1040_4080" x1="7.35864" y1="15.5148" x2="64.3892" y2="15.9708" gradientUnits="userSpaceOnUse">
<stop offset="0.267495" stop-color="#FFC6CE"/>
<stop offset="1" stop-color="#64D6EE"/>
</linearGradient>
<linearGradient id="paint1_linear_1040_4080" x1="26.78" y1="46.66" x2="67.301" y2="47.4084" gradientUnits="userSpaceOnUse">
<stop offset="0.267495" stop-color="#FFC6CE"/>
<stop offset="1" stop-color="#64D6EE"/>
</linearGradient>
<clipPath id="clip0_1040_4080">
<rect width="89.8276" height="89.8276" fill="white" transform="translate(0.172363)"/>
</clipPath>
</defs>
</svg>
