<svg width="25" height="24" viewBox="0 0 25 24" fill="none" xmlns="http://www.w3.org/2000/svg">
<path d="M12.5341 7.92275C10.3837 7.92275 8.6288 9.67763 8.6288 11.828C8.6288 13.9784 10.3837 15.7333 12.5341 15.7333C14.6845 15.7333 16.4393 13.9784 16.4393 11.828C16.4393 9.67763 14.6845 7.92275 12.5341 7.92275ZM24.247 11.828C24.247 10.2108 24.2616 8.6083 24.1708 6.99404C24.08 5.11904 23.6522 3.45497 22.2811 2.08388C20.9071 0.709856 19.246 0.285051 17.371 0.194231C15.7538 0.10341 14.1513 0.118059 12.537 0.118059C10.9198 0.118059 9.31728 0.10341 7.70302 0.194231C5.82802 0.285051 4.16396 0.712786 2.79286 2.08388C1.41884 3.4579 0.994035 5.11904 0.903215 6.99404C0.812395 8.61123 0.827043 10.2138 0.827043 11.828C0.827043 13.4423 0.812395 15.0478 0.903215 16.662C0.994035 18.537 1.42177 20.2011 2.79286 21.5722C4.16689 22.9462 5.82802 23.371 7.70302 23.4618C9.32021 23.5526 10.9227 23.538 12.537 23.538C14.1542 23.538 15.7567 23.5526 17.371 23.4618C19.246 23.371 20.91 22.9433 22.2811 21.5722C23.6552 20.1981 24.08 18.537 24.1708 16.662C24.2645 15.0478 24.247 13.4452 24.247 11.828V11.828ZM12.5341 17.8368C9.20888 17.8368 6.52528 15.1532 6.52528 11.828C6.52528 8.50283 9.20888 5.81923 12.5341 5.81923C15.8593 5.81923 18.5429 8.50283 18.5429 11.828C18.5429 15.1532 15.8593 17.8368 12.5341 17.8368ZM18.789 6.97646C18.0126 6.97646 17.3856 6.34951 17.3856 5.57314C17.3856 4.79677 18.0126 4.16982 18.789 4.16982C19.5653 4.16982 20.1923 4.79677 20.1923 5.57314C20.1925 5.75749 20.1564 5.94008 20.0859 6.11044C20.0155 6.2808 19.9121 6.4356 19.7818 6.56595C19.6514 6.69631 19.4966 6.79967 19.3263 6.87011C19.1559 6.94055 18.9733 6.97669 18.789 6.97646V6.97646Z" fill="url(#paint0_linear_1251_5337)"/>
<defs>
<linearGradient id="paint0_linear_1251_5337" x1="0.826172" y1="5.51034" x2="23.818" y2="5.85527" gradientUnits="userSpaceOnUse">
<stop offset="0.267495" stop-color="#FFC6CE"/>
<stop offset="1" stop-color="#64D6EE"/>
</linearGradient>
</defs>
</svg>
