<svg width="31" height="24" viewBox="0 0 31 24" fill="none" xmlns="http://www.w3.org/2000/svg">
<path d="M25.9314 2.27827C23.9861 1.38553 21.9334 0.748357 19.8245 0.38265C19.8054 0.379432 19.7858 0.382211 19.7683 0.390605C19.7508 0.398999 19.7364 0.412596 19.727 0.429525C19.4626 0.898275 19.1701 1.5114 18.9657 1.9914C16.6925 1.64642 14.3802 1.64642 12.107 1.9914C11.879 1.45669 11.6211 0.935237 11.3345 0.429525C11.3249 0.412781 11.3104 0.399341 11.293 0.390974C11.2756 0.382607 11.2561 0.379705 11.237 0.38265C9.12762 0.7464 7.0745 1.3839 5.13012 2.27827C5.11348 2.28462 5.09957 2.29655 5.09075 2.31202C1.202 8.12265 0.135121 13.7908 0.658246 19.3876C0.660121 19.4139 0.676996 19.4401 0.697621 19.457C2.9621 21.1344 5.49498 22.4151 8.18825 23.2445C8.20726 23.2505 8.2277 23.2503 8.24658 23.2439C8.26546 23.2375 8.28181 23.2252 8.29325 23.2089C8.87075 22.4214 9.3845 21.5908 9.827 20.717C9.83622 20.699 9.83938 20.6785 9.836 20.6586C9.83262 20.6387 9.82289 20.6203 9.80825 20.6064C9.79856 20.5972 9.78706 20.5902 9.7745 20.5858C8.96667 20.2753 8.1843 19.9023 7.4345 19.4701C7.41355 19.4583 7.39798 19.4388 7.391 19.4158C7.38402 19.3927 7.38617 19.3679 7.397 19.3464C7.40338 19.3324 7.41302 19.3202 7.42512 19.3108C7.58262 19.1926 7.74012 19.0689 7.89012 18.9451C7.90337 18.9345 7.91927 18.9276 7.93612 18.9253C7.95296 18.923 7.97012 18.9253 7.98575 18.932C12.8964 21.1745 18.212 21.1745 23.0626 18.932C23.0788 18.925 23.0966 18.9225 23.1141 18.9248C23.1316 18.9271 23.1482 18.9342 23.162 18.9451C23.312 19.0689 23.4695 19.1926 23.627 19.3108C23.6398 19.3201 23.65 19.3324 23.6568 19.3467C23.6637 19.361 23.6668 19.3767 23.6661 19.3925C23.6654 19.4083 23.6607 19.4236 23.6526 19.4372C23.6444 19.4507 23.6331 19.4621 23.6195 19.4701C22.8714 19.9063 22.088 20.2788 21.2776 20.5839C21.2647 20.5886 21.253 20.596 21.2432 20.6058C21.2335 20.6155 21.2261 20.6272 21.2214 20.6401C21.217 20.6527 21.2153 20.6659 21.2163 20.6792C21.2172 20.6924 21.2209 20.7053 21.227 20.717C21.677 21.5889 22.1926 22.4214 22.7589 23.2089C22.7703 23.2252 22.7867 23.2375 22.8055 23.2439C22.8244 23.2503 22.8449 23.2505 22.8639 23.2445C25.5616 22.4177 28.0986 21.1368 30.3657 19.457C30.3771 19.4492 30.3865 19.4388 30.3934 19.4268C30.4002 19.4148 30.4042 19.4014 30.4051 19.3876C31.0314 12.917 29.357 7.29577 25.9689 2.3139C25.9655 2.30567 25.9604 2.29825 25.9539 2.29211C25.9474 2.28598 25.9398 2.28126 25.9314 2.27827V2.27827ZM10.5601 15.9789C9.08075 15.9789 7.86387 14.6214 7.86387 12.9564C7.86387 11.2895 9.05825 9.93202 10.5601 9.93202C12.0732 9.93202 13.2789 11.3008 13.2564 12.9564C13.2564 14.6214 12.062 15.9789 10.5601 15.9789ZM20.5276 15.9789C19.0501 15.9789 17.8314 14.6214 17.8314 12.9564C17.8314 11.2895 19.0257 9.93202 20.5276 9.93202C22.0407 9.93202 23.2482 11.3008 23.2239 12.9564C23.2239 14.6214 22.0407 15.9789 20.5276 15.9789Z" fill="url(#paint0_linear_1251_5333)"/>
<defs>
<linearGradient id="paint0_linear_1251_5333" x1="0.53418" y1="5.64689" x2="29.9786" y2="6.2264" gradientUnits="userSpaceOnUse">
<stop offset="0.267495" stop-color="#FFC6CE"/>
<stop offset="1" stop-color="#64D6EE"/>
</linearGradient>
</defs>
</svg>
