<svg width="340" height="233" viewBox="0 0 340 233" fill="none" xmlns="http://www.w3.org/2000/svg">
<path d="M1 31C1 14.4315 14.4315 1 31 1H302C318.569 1 332 14.4315 332 31V71H1V31Z" fill="#22262A"/>
<path d="M125.753 44V26.48H136.265V29.744H129.689V33.68H135.977V36.944H129.689V44H125.753ZM136.402 44L142.186 26.48H148.546L154.546 44H150.466L149.05 39.656H141.73L140.338 44H136.402ZM142.762 36.392H147.97L145.786 29.696H144.898L142.762 36.392ZM156.879 44V26.48H160.815V44H156.879ZM164.8 44V26.48H168.736V40.544H175.6V44H164.8ZM178.183 44V26.48H189.031V29.744H182.023V33.464H188.647V36.728H182.023V40.736H189.199V44H178.183ZM192.433 44.096V26.336H198.937C200.521 26.336 201.905 26.568 203.089 27.032C204.273 27.496 205.257 28.128 206.041 28.928C206.841 29.728 207.441 30.648 207.841 31.688C208.241 32.712 208.441 33.792 208.441 34.928V35.456C208.441 36.528 208.241 37.576 207.841 38.6C207.441 39.624 206.841 40.552 206.041 41.384C205.257 42.216 204.273 42.88 203.089 43.376C201.905 43.856 200.521 44.096 198.937 44.096H192.433ZM199.153 30.008H196.369V40.424H199.153C200.801 40.424 202.097 39.944 203.041 38.984C203.985 38.024 204.457 36.76 204.457 35.192C204.457 33.544 203.985 32.272 203.041 31.376C202.097 30.464 200.801 30.008 199.153 30.008Z" fill="url(#paint0_linear_1251_22696)"/>
<g filter="url(#filter0_b_1251_22696)">
<rect x="1" y="71" width="331" height="141" fill="#22262A" fill-opacity="0.01"/>
<path d="M40.24 115.026C40.2693 115.026 40.284 115.151 40.284 115.4C40.284 115.811 40.2547 116.016 40.196 116.016H38.524L37.38 119.404H38.766C38.81 119.404 38.832 119.529 38.832 119.778C38.832 119.91 38.8173 120.042 38.788 120.174C38.7733 120.306 38.7587 120.372 38.744 120.372H37.072L35.906 123.826C35.8913 123.885 35.7447 123.87 35.466 123.782C35.202 123.694 35.0773 123.621 35.092 123.562L36.148 120.372H33.75L32.584 123.826C32.5693 123.885 32.4227 123.87 32.144 123.782C31.88 123.694 31.7553 123.621 31.77 123.562L32.826 120.372H31.528C31.5133 120.372 31.4913 120.321 31.462 120.218C31.4473 120.115 31.44 120.005 31.44 119.888C31.44 119.771 31.4473 119.661 31.462 119.558C31.4913 119.455 31.5133 119.404 31.528 119.404H33.156L34.3 116.016H33.002C32.9727 116.016 32.9507 115.965 32.936 115.862C32.9213 115.759 32.914 115.642 32.914 115.51C32.914 115.393 32.9213 115.283 32.936 115.18C32.9653 115.077 32.9873 115.026 33.002 115.026H34.63L35.862 111.308C35.8767 111.249 36.016 111.271 36.28 111.374C36.5587 111.477 36.6907 111.557 36.676 111.616L35.532 115.026H37.952L39.184 111.308C39.1987 111.249 39.338 111.271 39.602 111.374C39.8807 111.477 40.0127 111.557 39.998 111.616L38.854 115.026H40.24ZM36.478 119.404L37.622 116.016H35.202L34.058 119.404H36.478ZM46.0129 107.48C45.9689 107.319 46.2036 107.165 46.7169 107.018C47.2449 106.857 47.6849 106.776 48.0369 106.776C48.1983 106.776 48.2716 106.805 48.2569 106.864L46.7829 110.362C46.7683 110.406 46.7243 110.428 46.6509 110.428C46.5923 110.428 46.5556 110.406 46.5409 110.362L46.0129 107.48ZM43.1969 110.384C43.0503 110.369 42.9769 110.127 42.9769 109.658C42.9769 109.306 43.0136 108.939 43.0869 108.558C43.1749 108.162 43.2483 107.993 43.3069 108.052L46.1449 110.538C46.1596 110.553 46.1669 110.575 46.1669 110.604C46.1669 110.648 46.1523 110.692 46.1229 110.736C46.1083 110.765 46.0863 110.773 46.0569 110.758L43.1969 110.384ZM47.1129 110.934C47.0836 110.934 47.0543 110.905 47.0249 110.846C47.0103 110.773 47.0249 110.729 47.0689 110.714L49.5769 109.328C49.6943 109.255 49.8703 109.379 50.1049 109.702C50.3543 110.01 50.5596 110.347 50.7209 110.714C50.8969 111.081 50.9409 111.264 50.8529 111.264L47.1129 110.934ZM45.0669 113.948C45.0523 114.007 44.9789 114.036 44.8469 114.036C44.6709 114.036 44.4069 113.97 44.0549 113.838C43.7176 113.706 43.4169 113.567 43.1529 113.42C42.9036 113.259 42.8083 113.156 42.8669 113.112L46.1009 111.198L46.1449 111.176C46.1743 111.176 46.2109 111.198 46.2549 111.242C46.2989 111.271 46.3136 111.301 46.2989 111.33L45.0669 113.948ZM46.7169 111.418V111.396C46.7169 111.367 46.7389 111.337 46.7829 111.308C46.8416 111.279 46.8783 111.271 46.8929 111.286L49.0049 113.244C49.1076 113.332 49.0416 113.545 48.8069 113.882C48.5723 114.205 48.3009 114.505 47.9929 114.784C47.6996 115.063 47.5456 115.158 47.5309 115.07L46.7169 111.418ZM52.6843 113.75C52.6696 113.765 52.6476 113.772 52.6183 113.772C52.5743 113.772 52.5303 113.757 52.4863 113.728C52.4423 113.699 52.4276 113.669 52.4423 113.64L55.9183 108.162C55.9623 108.089 56.0429 108.052 56.1603 108.052C56.2923 108.052 56.3583 108.089 56.3583 108.162L57.8983 113.64C57.8983 113.669 57.8616 113.699 57.7883 113.728C57.7296 113.757 57.6929 113.75 57.6783 113.706L55.6543 110.868L52.6843 113.75ZM66.2041 111.99C66.3068 112.049 66.3801 112.115 66.4241 112.188C66.4681 112.247 66.4828 112.32 66.4681 112.408L66.1601 114.476C66.1455 114.535 66.1015 114.557 66.0281 114.542C65.9695 114.527 65.9401 114.491 65.9401 114.432C65.9401 114.212 65.8668 113.919 65.7201 113.552C65.5881 113.185 65.3755 112.848 65.0821 112.54C64.8035 112.217 64.4661 112.012 64.0701 111.924L63.3881 115.862C63.4615 115.921 63.5275 115.972 63.5861 116.016C63.6595 116.045 63.7181 116.075 63.7621 116.104C64.4368 116.529 64.9501 116.933 65.3021 117.314C65.6541 117.695 65.8301 118.187 65.8301 118.788C65.8301 119.36 65.6688 119.903 65.3461 120.416C65.0381 120.915 64.6128 121.333 64.0701 121.67C63.5275 121.993 62.9261 122.183 62.2661 122.242L61.9141 124.266C61.8995 124.339 61.8261 124.376 61.6941 124.376C61.6061 124.376 61.5255 124.361 61.4521 124.332C61.3935 124.303 61.3715 124.259 61.3861 124.2L61.7381 122.264C61.2101 122.249 60.7188 122.161 60.2641 122C59.8095 121.824 59.4501 121.626 59.1861 121.406C59.0688 121.318 59.0321 121.171 59.0761 120.966L59.3621 118.568C59.3621 118.509 59.3915 118.48 59.4501 118.48C59.5235 118.48 59.5675 118.509 59.5821 118.568C59.7141 119.316 59.9708 120.005 60.3521 120.636C60.7481 121.267 61.2321 121.641 61.8041 121.758L62.5961 117.38L62.1781 117.116C61.5475 116.705 61.0635 116.317 60.7261 115.95C60.4035 115.569 60.2421 115.099 60.2421 114.542C60.2421 114.439 60.2568 114.285 60.2861 114.08C60.4181 113.317 60.7995 112.709 61.4301 112.254C62.0608 111.799 62.7941 111.535 63.6301 111.462L63.9601 109.592C63.9748 109.519 64.0481 109.482 64.1801 109.482C64.2681 109.482 64.3415 109.504 64.4001 109.548C64.4588 109.577 64.4808 109.621 64.4661 109.68L64.1581 111.44C64.5101 111.455 64.8695 111.521 65.2361 111.638C65.6175 111.741 65.9401 111.858 66.2041 111.99ZM61.8261 113.552C61.8115 113.625 61.8041 113.728 61.8041 113.86C61.8041 114.212 61.8995 114.52 62.0901 114.784C62.2808 115.048 62.5521 115.305 62.9041 115.554L63.5641 111.88C63.0948 111.909 62.7061 112.078 62.3981 112.386C62.1048 112.694 61.9141 113.083 61.8261 113.552ZM64.1141 119.976C64.1435 119.771 64.1581 119.631 64.1581 119.558C64.1581 119.177 64.0628 118.847 63.8721 118.568C63.6815 118.275 63.4101 117.996 63.0581 117.732L62.3541 121.802C62.7795 121.758 63.1535 121.589 63.4761 121.296C63.8135 120.988 64.0261 120.548 64.1141 119.976ZM83.2003 113.354C83.6697 113.354 83.9043 113.625 83.9043 114.168C83.9043 114.564 83.787 114.967 83.5523 115.378C83.3177 115.774 83.0023 116.104 82.6063 116.368C82.225 116.617 81.8217 116.742 81.3963 116.742C80.9857 116.742 80.4797 116.603 79.8783 116.324C79.585 118.245 78.8957 119.719 77.8103 120.746C76.7397 121.758 75.427 122.264 73.8723 122.264C72.831 122.264 71.8997 122.029 71.0783 121.56C70.2717 121.076 69.641 120.438 69.1863 119.646C68.7463 118.854 68.5263 117.996 68.5263 117.072C68.5263 116.676 68.5703 116.28 68.6583 115.884C68.8197 115.092 69.1423 114.388 69.6263 113.772C70.125 113.141 70.7263 112.65 71.4303 112.298C72.1343 111.946 72.8677 111.77 73.6303 111.77C74.349 111.77 74.965 111.924 75.4783 112.232C76.241 111.323 76.6223 110.567 76.6223 109.966C76.6223 109.687 76.571 109.482 76.4683 109.35C76.3803 109.218 76.2337 109.071 76.0283 108.91C75.8523 108.793 75.713 108.675 75.6103 108.558C75.5223 108.426 75.4783 108.243 75.4783 108.008C75.4783 107.715 75.5663 107.48 75.7423 107.304C75.9183 107.113 76.153 107.018 76.4463 107.018C76.8423 107.018 77.143 107.179 77.3483 107.502C77.5683 107.825 77.6783 108.25 77.6783 108.778C77.6783 109.658 77.3923 110.523 76.8203 111.374C76.2483 112.225 75.5517 113.009 74.7303 113.728C73.9237 114.432 72.8383 115.312 71.4743 116.368L70.3963 117.204C70.587 118.392 71.0783 119.345 71.8703 120.064C72.677 120.768 73.6083 121.12 74.6643 121.12C75.4563 121.12 76.1823 120.922 76.8423 120.526C77.517 120.13 78.0817 119.558 78.5363 118.81C78.991 118.062 79.2917 117.167 79.4383 116.126C79.2037 116.009 79.0277 115.913 78.9103 115.84C78.309 115.532 77.825 115.305 77.4583 115.158C77.1063 115.011 76.769 114.938 76.4463 114.938C76.2117 114.938 76.0357 114.982 75.9183 115.07C75.801 115.158 75.7423 115.268 75.7423 115.4C75.7423 115.532 75.823 115.73 75.9843 115.994C76.1457 116.214 76.2263 116.412 76.2263 116.588C76.2263 116.749 76.1677 116.896 76.0503 117.028C75.9477 117.16 75.7863 117.226 75.5663 117.226C75.361 117.226 75.185 117.16 75.0383 117.028C74.9063 116.896 74.8403 116.691 74.8403 116.412C74.8403 116.001 74.9797 115.598 75.2583 115.202C75.537 114.806 75.8963 114.483 76.3363 114.234C76.791 113.97 77.2457 113.838 77.7003 113.838C78.0817 113.838 78.4777 113.919 78.8883 114.08C79.299 114.241 79.7757 114.469 80.3183 114.762C80.8317 115.026 81.2497 115.224 81.5723 115.356C81.895 115.473 82.1883 115.532 82.4523 115.532C82.6577 115.532 82.819 115.495 82.9363 115.422C83.0537 115.349 83.1123 115.246 83.1123 115.114C83.1123 115.011 83.0683 114.916 82.9803 114.828C82.907 114.725 82.863 114.667 82.8483 114.652C82.731 114.52 82.643 114.403 82.5843 114.3C82.5257 114.197 82.4963 114.08 82.4963 113.948C82.4963 113.772 82.555 113.633 82.6723 113.53C82.8043 113.413 82.9803 113.354 83.2003 113.354ZM70.4183 115.18C70.3597 115.517 70.3303 115.869 70.3303 116.236C70.3303 116.456 70.3377 116.617 70.3523 116.72C70.7777 116.383 71.005 116.199 71.0343 116.17C72.413 115.085 73.403 114.263 74.0043 113.706C73.6817 112.841 73.1683 112.408 72.4643 112.408C71.951 112.408 71.5183 112.672 71.1663 113.2C70.8143 113.713 70.565 114.373 70.4183 115.18ZM86.1872 117.798C86.1725 117.871 86.1212 117.908 86.0332 117.908C85.9598 117.893 85.9305 117.849 85.9452 117.776C86.2678 113.845 86.4585 110.699 86.5172 108.338C86.5172 108.279 86.6565 108.221 86.9352 108.162C87.2285 108.103 87.5145 108.074 87.7932 108.074C88.1012 108.074 88.3872 108.103 88.6512 108.162C88.9298 108.221 89.0545 108.279 89.0252 108.338C88.1598 110.597 87.2138 113.75 86.1872 117.798ZM85.6152 122.198C85.2485 122.198 84.9625 122.095 84.7572 121.89C84.5518 121.685 84.4492 121.406 84.4492 121.054C84.4492 120.717 84.5518 120.453 84.7572 120.262C84.9625 120.057 85.2485 119.954 85.6152 119.954C85.9672 119.954 86.2385 120.057 86.4292 120.262C86.6198 120.453 86.7152 120.717 86.7152 121.054C86.7152 121.406 86.6198 121.685 86.4292 121.89C86.2385 122.095 85.9672 122.198 85.6152 122.198ZM90.9997 117.798C90.985 117.871 90.9337 117.908 90.8457 117.908C90.7723 117.893 90.743 117.849 90.7577 117.776C91.0803 113.845 91.271 110.699 91.3297 108.338C91.3297 108.279 91.469 108.221 91.7477 108.162C92.041 108.103 92.327 108.074 92.6057 108.074C92.9137 108.074 93.1997 108.103 93.4637 108.162C93.7423 108.221 93.867 108.279 93.8377 108.338C92.9723 110.597 92.0263 113.75 90.9997 117.798ZM90.4277 122.198C90.061 122.198 89.775 122.095 89.5697 121.89C89.3643 121.685 89.2617 121.406 89.2617 121.054C89.2617 120.717 89.3643 120.453 89.5697 120.262C89.775 120.057 90.061 119.954 90.4277 119.954C90.7797 119.954 91.051 120.057 91.2417 120.262C91.4323 120.453 91.5277 120.717 91.5277 121.054C91.5277 121.406 91.4323 121.685 91.2417 121.89C91.051 122.095 90.7797 122.198 90.4277 122.198ZM101.188 122C101.144 122 101.122 121.956 101.122 121.868C101.122 121.78 101.144 121.736 101.188 121.736C101.716 121.736 102.112 121.699 102.376 121.626C102.64 121.553 102.831 121.413 102.948 121.208C103.08 120.988 103.19 120.658 103.278 120.218L105.06 110.032C105.104 109.768 105.126 109.548 105.126 109.372C105.126 109.108 105.06 108.932 104.928 108.844C104.796 108.756 104.562 108.712 104.224 108.712H103.872C103.11 108.712 102.406 109.02 101.76 109.636C101.115 110.252 100.646 111.059 100.352 112.056C100.338 112.1 100.286 112.115 100.198 112.1C100.125 112.085 100.096 112.056 100.11 112.012C100.228 111.631 100.396 110.963 100.616 110.01C100.851 109.042 101.02 108.294 101.122 107.766C101.137 107.722 101.188 107.707 101.276 107.722C101.364 107.722 101.401 107.744 101.386 107.788C101.342 108.096 101.628 108.25 102.244 108.25C103.33 108.294 104.672 108.316 106.27 108.316C107.018 108.316 107.847 108.301 108.756 108.272L110.142 108.25C110.582 108.25 110.912 108.213 111.132 108.14C111.352 108.067 111.506 107.92 111.594 107.7C111.624 107.656 111.675 107.641 111.748 107.656C111.822 107.656 111.851 107.685 111.836 107.744C111.704 108.199 111.528 108.932 111.308 109.944C111.088 110.956 110.956 111.645 110.912 112.012C110.898 112.071 110.846 112.1 110.758 112.1C110.67 112.085 110.634 112.049 110.648 111.99C110.707 111.579 110.736 111.293 110.736 111.132C110.736 110.384 110.538 109.797 110.142 109.372C109.761 108.932 109.218 108.712 108.514 108.712H108.162C107.722 108.712 107.429 108.8 107.282 108.976C107.136 109.152 107.018 109.519 106.93 110.076L105.148 120.218C105.09 120.57 105.06 120.797 105.06 120.9C105.06 121.237 105.178 121.465 105.412 121.582C105.647 121.685 106.087 121.736 106.732 121.736C106.762 121.736 106.776 121.78 106.776 121.868C106.776 121.956 106.762 122 106.732 122C106.248 122 105.867 121.993 105.588 121.978L103.938 121.956L102.354 121.978C102.061 121.993 101.672 122 101.188 122ZM112.292 122.308C111.353 122.308 110.627 122 110.114 121.384C109.615 120.768 109.366 119.969 109.366 118.986C109.366 118.575 109.41 118.165 109.498 117.754C109.659 116.889 109.967 116.111 110.422 115.422C110.891 114.733 111.463 114.197 112.138 113.816C112.813 113.42 113.524 113.222 114.272 113.222C115.225 113.222 115.959 113.523 116.472 114.124C116.985 114.725 117.242 115.517 117.242 116.5C117.242 116.896 117.198 117.314 117.11 117.754C116.934 118.693 116.589 119.507 116.076 120.196C115.577 120.885 114.991 121.413 114.316 121.78C113.656 122.132 112.981 122.308 112.292 122.308ZM113.04 121.758C113.553 121.758 114.008 121.487 114.404 120.944C114.8 120.401 115.086 119.661 115.262 118.722C115.365 118.223 115.416 117.695 115.416 117.138C115.416 116.17 115.247 115.363 114.91 114.718C114.587 114.073 114.14 113.75 113.568 113.75C113.069 113.75 112.615 114.014 112.204 114.542C111.808 115.07 111.522 115.825 111.346 116.808C111.243 117.424 111.192 117.945 111.192 118.37C111.192 119.353 111.353 120.167 111.676 120.812C112.013 121.443 112.468 121.758 113.04 121.758ZM121.208 122.308C120.269 122.308 119.543 122 119.03 121.384C118.531 120.768 118.282 119.969 118.282 118.986C118.282 118.575 118.326 118.165 118.414 117.754C118.575 116.889 118.883 116.111 119.338 115.422C119.807 114.733 120.379 114.197 121.054 113.816C121.729 113.42 122.44 113.222 123.188 113.222C124.141 113.222 124.875 113.523 125.388 114.124C125.901 114.725 126.158 115.517 126.158 116.5C126.158 116.896 126.114 117.314 126.026 117.754C125.85 118.693 125.505 119.507 124.992 120.196C124.493 120.885 123.907 121.413 123.232 121.78C122.572 122.132 121.897 122.308 121.208 122.308ZM121.956 121.758C122.469 121.758 122.924 121.487 123.32 120.944C123.716 120.401 124.002 119.661 124.178 118.722C124.281 118.223 124.332 117.695 124.332 117.138C124.332 116.17 124.163 115.363 123.826 114.718C123.503 114.073 123.056 113.75 122.484 113.75C121.985 113.75 121.531 114.014 121.12 114.542C120.724 115.07 120.438 115.825 120.262 116.808C120.159 117.424 120.108 117.945 120.108 118.37C120.108 119.353 120.269 120.167 120.592 120.812C120.929 121.443 121.384 121.758 121.956 121.758ZM135.712 120.35C135.727 120.335 135.749 120.328 135.778 120.328C135.837 120.328 135.881 120.357 135.91 120.416C135.939 120.46 135.932 120.497 135.888 120.526C134.92 121.641 134.15 122.198 133.578 122.198C133.197 122.198 132.867 122.095 132.588 121.89C132.324 121.67 132.023 121.281 131.686 120.724L130.41 118.568C130.278 118.363 130.168 118.223 130.08 118.15C129.992 118.077 129.875 118.04 129.728 118.04L129.068 121.78C128.995 122.044 128.643 122.176 128.012 122.176C127.572 122.176 127.352 122.125 127.352 122.022L127.44 121.538C127.587 120.849 127.667 120.46 127.682 120.372L129.816 108.822C129.86 108.573 129.882 108.367 129.882 108.206C129.882 107.986 129.845 107.825 129.772 107.722C129.699 107.619 129.581 107.568 129.42 107.568C129.215 107.568 128.892 107.671 128.452 107.876H128.408C128.364 107.876 128.327 107.839 128.298 107.766C128.283 107.693 128.305 107.649 128.364 107.634L131.576 106.05H131.62C131.679 106.05 131.73 106.072 131.774 106.116C131.833 106.16 131.855 106.197 131.84 106.226L130.3 114.894C130.828 114.381 131.407 113.977 132.038 113.684C132.669 113.376 133.292 113.222 133.908 113.222C134.421 113.222 134.781 113.332 134.986 113.552C135.206 113.772 135.316 114.036 135.316 114.344C135.316 114.916 134.986 115.481 134.326 116.038C133.666 116.595 132.764 117.079 131.62 117.49L133.05 119.822C133.343 120.306 133.585 120.629 133.776 120.79C133.981 120.951 134.201 121.032 134.436 121.032C134.773 121.032 135.199 120.805 135.712 120.35ZM132.654 114.08C132.009 114.08 131.422 114.388 130.894 115.004C130.381 115.62 130.029 116.441 129.838 117.468L129.794 117.666C130.953 117.387 131.803 117.05 132.346 116.654C132.889 116.243 133.197 115.723 133.27 115.092C133.343 114.417 133.138 114.08 132.654 114.08ZM149.032 113.288C149.369 113.288 149.626 113.413 149.802 113.662C149.992 113.911 150.088 114.263 150.088 114.718C150.088 115.847 149.501 117.512 148.328 119.712C147.154 121.897 145.812 123.855 144.302 125.586C142.791 127.317 141.552 128.182 140.584 128.182C139.806 128.182 139.418 127.867 139.418 127.236C139.418 127.133 139.425 127.053 139.44 126.994C139.498 126.715 139.63 126.503 139.836 126.356C140.026 126.209 140.276 126.136 140.584 126.136C140.818 126.136 141.104 126.187 141.442 126.29C141.794 126.378 142.058 126.422 142.234 126.422C142.527 126.422 142.828 126.319 143.136 126.114C143.546 125.835 144.06 125.278 144.676 124.442V123.43C144.676 120.585 144.47 118.377 144.06 116.808C143.649 115.239 143.084 114.454 142.366 114.454C142.175 114.454 141.984 114.52 141.794 114.652C141.618 114.784 141.464 114.96 141.332 115.18C141.317 115.224 141.273 115.246 141.2 115.246C141.097 115.246 141.053 115.202 141.068 115.114C141.332 114.571 141.691 114.139 142.146 113.816C142.6 113.479 143.04 113.31 143.466 113.31C144.038 113.31 144.536 113.647 144.962 114.322C145.387 114.982 145.71 115.891 145.93 117.05C146.15 118.209 146.26 119.507 146.26 120.944C146.26 121.501 146.252 121.927 146.238 122.22C146.824 121.296 147.338 120.409 147.778 119.558C148.218 118.707 148.489 118.069 148.592 117.644C148.665 117.365 148.702 117.065 148.702 116.742C148.702 116.434 148.658 116.17 148.57 115.95C148.496 115.73 148.386 115.495 148.24 115.246C148.122 115.055 148.034 114.887 147.976 114.74C147.932 114.593 147.91 114.439 147.91 114.278C147.91 113.985 148.012 113.75 148.218 113.574C148.423 113.383 148.694 113.288 149.032 113.288ZM154.294 122.308C153.355 122.308 152.629 122 152.116 121.384C151.617 120.768 151.368 119.969 151.368 118.986C151.368 118.575 151.412 118.165 151.5 117.754C151.661 116.889 151.969 116.111 152.424 115.422C152.893 114.733 153.465 114.197 154.14 113.816C154.815 113.42 155.526 113.222 156.274 113.222C157.227 113.222 157.961 113.523 158.474 114.124C158.987 114.725 159.244 115.517 159.244 116.5C159.244 116.896 159.2 117.314 159.112 117.754C158.936 118.693 158.591 119.507 158.078 120.196C157.579 120.885 156.993 121.413 156.318 121.78C155.658 122.132 154.983 122.308 154.294 122.308ZM155.042 121.758C155.555 121.758 156.01 121.487 156.406 120.944C156.802 120.401 157.088 119.661 157.264 118.722C157.367 118.223 157.418 117.695 157.418 117.138C157.418 116.17 157.249 115.363 156.912 114.718C156.589 114.073 156.142 113.75 155.57 113.75C155.071 113.75 154.617 114.014 154.206 114.542C153.81 115.07 153.524 115.825 153.348 116.808C153.245 117.424 153.194 117.945 153.194 118.37C153.194 119.353 153.355 120.167 153.678 120.812C154.015 121.443 154.47 121.758 155.042 121.758ZM169.502 120.262C169.517 120.247 169.539 120.24 169.568 120.24C169.612 120.24 169.649 120.269 169.678 120.328C169.707 120.372 169.707 120.416 169.678 120.46C169.15 121.061 168.673 121.501 168.248 121.78C167.837 122.059 167.427 122.198 167.016 122.198C166.693 122.198 166.459 122.11 166.312 121.934C166.165 121.758 166.092 121.479 166.092 121.098C166.092 120.819 166.121 120.533 166.18 120.24L166.554 118.018C166.041 119.367 165.439 120.416 164.75 121.164C164.075 121.912 163.357 122.286 162.594 122.286C161.597 122.286 161.098 121.699 161.098 120.526C161.098 120.13 161.135 119.749 161.208 119.382L162 115.466C162.044 115.246 162.066 115.063 162.066 114.916C162.066 114.535 161.941 114.344 161.692 114.344C161.545 114.344 161.369 114.417 161.164 114.564C160.959 114.711 160.717 114.923 160.438 115.202C160.409 115.231 160.379 115.246 160.35 115.246C160.306 115.246 160.269 115.224 160.24 115.18C160.211 115.121 160.218 115.07 160.262 115.026C160.775 114.425 161.215 113.992 161.582 113.728C161.963 113.449 162.352 113.31 162.748 113.31C163.393 113.31 163.716 113.706 163.716 114.498C163.716 114.733 163.679 115.055 163.606 115.466L162.902 118.964C162.814 119.375 162.77 119.727 162.77 120.02C162.77 120.783 163.034 121.164 163.562 121.164C164.002 121.164 164.457 120.878 164.926 120.306C165.395 119.734 165.835 118.898 166.246 117.798C166.671 116.698 167.016 115.393 167.28 113.882L167.302 113.728C167.375 113.464 167.727 113.332 168.358 113.332C168.798 113.332 169.018 113.383 169.018 113.486L168.93 113.97C168.783 114.659 168.703 115.048 168.688 115.136L167.786 120.042C167.757 120.174 167.742 120.343 167.742 120.548C167.742 120.973 167.874 121.186 168.138 121.186C168.461 121.186 168.915 120.878 169.502 120.262ZM176.601 113.31C176.953 113.31 177.29 113.442 177.613 113.706C177.935 113.97 178.067 114.271 178.009 114.608C177.979 114.813 177.884 115.004 177.723 115.18C177.561 115.341 177.363 115.422 177.129 115.422C176.865 115.422 176.601 115.29 176.337 115.026C176.249 114.953 176.161 114.887 176.073 114.828C175.985 114.769 175.889 114.74 175.787 114.74C175.508 114.74 175.171 115.143 174.775 115.95C174.379 116.742 174.005 117.703 173.653 118.832C173.301 119.947 173.051 120.929 172.905 121.78C172.875 121.897 172.765 121.993 172.575 122.066C172.399 122.139 172.157 122.176 171.849 122.176C171.409 122.176 171.189 122.125 171.189 122.022L171.299 121.56C171.328 121.443 171.365 121.289 171.409 121.098C171.453 120.893 171.497 120.651 171.541 120.372L172.377 115.752C172.435 115.371 172.465 115.129 172.465 115.026C172.465 114.557 172.318 114.322 172.025 114.322C171.702 114.322 171.269 114.608 170.727 115.18C170.712 115.195 170.69 115.202 170.661 115.202C170.617 115.202 170.58 115.18 170.551 115.136C170.521 115.077 170.521 115.026 170.551 114.982C171.064 114.395 171.519 113.97 171.915 113.706C172.325 113.442 172.736 113.31 173.147 113.31C173.484 113.31 173.726 113.413 173.873 113.618C174.034 113.809 174.115 114.109 174.115 114.52C174.115 114.769 174.078 115.114 174.005 115.554L173.565 118.062C173.99 116.654 174.459 115.51 174.973 114.63C175.486 113.75 176.029 113.31 176.601 113.31ZM186.5 122.286C185.503 122.286 184.762 121.956 184.278 121.296C183.809 120.621 183.574 119.785 183.574 118.788C183.574 118.436 183.611 118.025 183.684 117.556C183.845 116.705 184.183 115.95 184.696 115.29C185.209 114.63 185.811 114.124 186.5 113.772C187.189 113.405 187.871 113.222 188.546 113.222C189.074 113.222 189.536 113.339 189.932 113.574C190.343 113.794 190.548 114.109 190.548 114.52C190.548 114.828 190.46 115.077 190.284 115.268C190.123 115.444 189.881 115.532 189.558 115.532C189.001 115.532 188.671 115.231 188.568 114.63C188.495 114.381 188.392 114.183 188.26 114.036C188.128 113.875 187.923 113.794 187.644 113.794C187.116 113.794 186.661 114.073 186.28 114.63C185.913 115.173 185.657 115.899 185.51 116.808C185.422 117.292 185.378 117.761 185.378 118.216C185.378 119.155 185.569 119.91 185.95 120.482C186.346 121.039 186.933 121.318 187.71 121.318C188.047 121.318 188.407 121.245 188.788 121.098C189.169 120.937 189.499 120.746 189.778 120.526H189.8C189.844 120.526 189.888 120.548 189.932 120.592C189.976 120.636 189.983 120.68 189.954 120.724C189.397 121.252 188.817 121.648 188.216 121.912C187.629 122.161 187.057 122.286 186.5 122.286ZM199.935 120.306C199.965 120.277 199.994 120.262 200.023 120.262C200.067 120.262 200.104 120.291 200.133 120.35C200.163 120.394 200.155 120.438 200.111 120.482C199.613 121.069 199.173 121.501 198.791 121.78C198.41 122.059 198.014 122.198 197.603 122.198C197.281 122.198 197.039 122.103 196.877 121.912C196.731 121.721 196.657 121.435 196.657 121.054C196.657 120.819 196.694 120.482 196.767 120.042L197.405 116.544C197.479 116.192 197.515 115.84 197.515 115.488C197.515 114.725 197.259 114.344 196.745 114.344C196.32 114.344 195.873 114.615 195.403 115.158C194.949 115.701 194.516 116.5 194.105 117.556C193.695 118.597 193.357 119.837 193.093 121.274L193.005 121.78C192.932 122.044 192.58 122.176 191.949 122.176C191.509 122.176 191.289 122.125 191.289 122.022L191.377 121.538C191.524 120.849 191.605 120.46 191.619 120.372L193.753 108.822C193.797 108.573 193.819 108.367 193.819 108.206C193.819 107.986 193.783 107.825 193.709 107.722C193.636 107.619 193.519 107.568 193.357 107.568C193.152 107.568 192.829 107.671 192.389 107.876H192.345C192.301 107.876 192.265 107.839 192.235 107.766C192.221 107.693 192.243 107.649 192.301 107.634L195.513 106.05H195.557C195.616 106.05 195.667 106.072 195.711 106.116C195.77 106.16 195.792 106.197 195.777 106.226L193.775 117.424C194.289 116.089 194.883 115.055 195.557 114.322C196.247 113.589 196.973 113.222 197.735 113.222C198.718 113.222 199.209 113.816 199.209 115.004C199.209 115.283 199.173 115.657 199.099 116.126L198.373 120.042C198.329 120.262 198.307 120.445 198.307 120.592C198.307 120.973 198.432 121.164 198.681 121.164C198.945 121.164 199.363 120.878 199.935 120.306ZM209.641 120.306C209.655 120.291 209.677 120.284 209.707 120.284C209.751 120.284 209.787 120.313 209.817 120.372C209.846 120.416 209.846 120.453 209.817 120.482C209.333 121.054 208.893 121.487 208.497 121.78C208.101 122.059 207.719 122.198 207.353 122.198C207.015 122.198 206.766 122.103 206.605 121.912C206.443 121.707 206.363 121.391 206.363 120.966C206.363 120.658 206.392 120.35 206.451 120.042L206.759 118.282C206.172 119.514 205.475 120.489 204.669 121.208C203.877 121.927 203.107 122.286 202.359 122.286C201.904 122.286 201.552 122.154 201.303 121.89C201.053 121.611 200.929 121.193 200.929 120.636C200.929 119.624 201.244 118.539 201.875 117.38C202.52 116.207 203.312 115.224 204.251 114.432C205.204 113.625 206.106 113.222 206.957 113.222C207.235 113.222 207.507 113.273 207.771 113.376C208.049 113.464 208.284 113.603 208.475 113.794C208.768 113.545 208.981 113.295 209.113 113.046C209.142 113.017 209.171 113.002 209.201 113.002C209.245 113.002 209.289 113.017 209.333 113.046C209.377 113.061 209.391 113.075 209.377 113.09L208.101 120.042C208.057 120.262 208.035 120.445 208.035 120.592C208.035 120.768 208.064 120.907 208.123 121.01C208.181 121.113 208.262 121.164 208.365 121.164C208.643 121.164 209.069 120.878 209.641 120.306ZM203.569 120.856C204.097 120.856 204.639 120.555 205.197 119.954C205.769 119.353 206.245 118.634 206.627 117.798C207.008 116.962 207.199 116.243 207.199 115.642C207.199 115.187 207.089 114.835 206.869 114.586C206.649 114.322 206.333 114.19 205.923 114.19C205.453 114.19 204.999 114.381 204.559 114.762C204.119 115.129 203.737 115.642 203.415 116.302C203.107 116.947 202.887 117.673 202.755 118.48C202.696 118.832 202.667 119.169 202.667 119.492C202.667 120.401 202.967 120.856 203.569 120.856ZM220.034 120.306C220.063 120.277 220.085 120.262 220.1 120.262C220.144 120.262 220.18 120.291 220.21 120.35C220.254 120.394 220.254 120.438 220.21 120.482C219.711 121.069 219.271 121.501 218.89 121.78C218.508 122.059 218.112 122.198 217.702 122.198C217.379 122.198 217.137 122.103 216.976 121.912C216.829 121.721 216.756 121.435 216.756 121.054C216.756 120.819 216.792 120.482 216.866 120.042L217.504 116.544C217.577 116.192 217.614 115.84 217.614 115.488C217.614 114.725 217.357 114.344 216.844 114.344C216.404 114.344 215.949 114.623 215.48 115.18C215.025 115.737 214.592 116.551 214.182 117.622C213.771 118.678 213.434 119.947 213.17 121.428L213.104 121.78C213.03 122.044 212.678 122.176 212.048 122.176C211.608 122.176 211.388 122.125 211.388 122.022L211.476 121.538C211.622 120.849 211.703 120.46 211.718 120.372L212.62 115.466C212.649 115.334 212.664 115.165 212.664 114.96C212.664 114.535 212.532 114.322 212.268 114.322C211.945 114.322 211.498 114.63 210.926 115.246C210.911 115.261 210.889 115.268 210.86 115.268C210.816 115.268 210.772 115.246 210.728 115.202C210.698 115.143 210.706 115.092 210.75 115.048C211.263 114.447 211.725 114.007 212.136 113.728C212.561 113.449 212.979 113.31 213.39 113.31C213.712 113.31 213.947 113.405 214.094 113.596C214.255 113.772 214.336 114.051 214.336 114.432C214.336 114.549 214.306 114.828 214.248 115.268L213.852 117.468C214.365 116.119 214.966 115.077 215.656 114.344C216.345 113.596 217.071 113.222 217.834 113.222C218.816 113.222 219.308 113.816 219.308 115.004C219.308 115.283 219.271 115.657 219.198 116.126L218.472 120.042C218.428 120.262 218.406 120.445 218.406 120.592C218.406 120.973 218.53 121.164 218.78 121.164C219.044 121.164 219.462 120.878 220.034 120.306ZM224.269 122.286C223.272 122.286 222.531 121.956 222.047 121.296C221.578 120.621 221.343 119.785 221.343 118.788C221.343 118.436 221.38 118.025 221.453 117.556C221.615 116.705 221.952 115.95 222.465 115.29C222.979 114.63 223.58 114.124 224.269 113.772C224.959 113.405 225.641 113.222 226.315 113.222C226.843 113.222 227.305 113.339 227.701 113.574C228.112 113.794 228.317 114.109 228.317 114.52C228.317 114.828 228.229 115.077 228.053 115.268C227.892 115.444 227.65 115.532 227.327 115.532C226.77 115.532 226.44 115.231 226.337 114.63C226.264 114.381 226.161 114.183 226.029 114.036C225.897 113.875 225.692 113.794 225.413 113.794C224.885 113.794 224.431 114.073 224.049 114.63C223.683 115.173 223.426 115.899 223.279 116.808C223.191 117.292 223.147 117.761 223.147 118.216C223.147 119.155 223.338 119.91 223.719 120.482C224.115 121.039 224.702 121.318 225.479 121.318C225.817 121.318 226.176 121.245 226.557 121.098C226.939 120.937 227.269 120.746 227.547 120.526H227.569C227.613 120.526 227.657 120.548 227.701 120.592C227.745 120.636 227.753 120.68 227.723 120.724C227.166 121.252 226.587 121.648 225.985 121.912C225.399 122.161 224.827 122.286 224.269 122.286ZM234.251 113.222C234.779 113.222 235.19 113.317 235.483 113.508C235.776 113.684 235.923 113.941 235.923 114.278C235.923 114.953 235.424 115.576 234.427 116.148C233.444 116.72 232.256 117.131 230.863 117.38C230.804 117.849 230.775 118.194 230.775 118.414C230.775 119.309 230.966 120.027 231.347 120.57C231.728 121.098 232.278 121.362 232.997 121.362C233.334 121.362 233.686 121.311 234.053 121.208C234.42 121.091 234.757 120.915 235.065 120.68H235.087C235.131 120.68 235.168 120.702 235.197 120.746C235.241 120.79 235.248 120.827 235.219 120.856C234.207 121.795 233.085 122.264 231.853 122.264C230.885 122.264 230.152 121.963 229.653 121.362C229.154 120.761 228.905 119.991 228.905 119.052C228.905 118.715 228.942 118.341 229.015 117.93C229.162 117.153 229.477 116.405 229.961 115.686C230.46 114.953 231.083 114.359 231.831 113.904C232.594 113.449 233.4 113.222 234.251 113.222ZM233.943 114.872C233.972 114.725 233.987 114.63 233.987 114.586C233.987 114.337 233.906 114.146 233.745 114.014C233.584 113.882 233.386 113.816 233.151 113.816C232.608 113.816 232.139 114.117 231.743 114.718C231.362 115.319 231.083 116.097 230.907 117.05C232.755 116.639 233.767 115.913 233.943 114.872ZM250.354 120.306C250.368 120.291 250.39 120.284 250.42 120.284C250.464 120.284 250.5 120.313 250.53 120.372C250.559 120.416 250.559 120.453 250.53 120.482C250.046 121.054 249.606 121.487 249.21 121.78C248.814 122.059 248.432 122.198 248.066 122.198C247.728 122.198 247.479 122.103 247.318 121.912C247.156 121.707 247.076 121.391 247.076 120.966C247.076 120.658 247.105 120.35 247.164 120.042L247.472 118.282C246.885 119.514 246.188 120.489 245.382 121.208C244.59 121.927 243.82 122.286 243.072 122.286C242.617 122.286 242.265 122.154 242.016 121.89C241.766 121.611 241.642 121.193 241.642 120.636C241.642 119.624 241.957 118.539 242.588 117.38C243.233 116.207 244.025 115.224 244.964 114.432C245.917 113.625 246.819 113.222 247.67 113.222C247.948 113.222 248.22 113.273 248.484 113.376C248.762 113.464 248.997 113.603 249.188 113.794C249.481 113.545 249.694 113.295 249.826 113.046C249.855 113.017 249.884 113.002 249.914 113.002C249.958 113.002 250.002 113.017 250.046 113.046C250.09 113.061 250.104 113.075 250.09 113.09L248.814 120.042C248.77 120.262 248.748 120.445 248.748 120.592C248.748 120.768 248.777 120.907 248.836 121.01C248.894 121.113 248.975 121.164 249.078 121.164C249.356 121.164 249.782 120.878 250.354 120.306ZM244.282 120.856C244.81 120.856 245.352 120.555 245.91 119.954C246.482 119.353 246.958 118.634 247.34 117.798C247.721 116.962 247.912 116.243 247.912 115.642C247.912 115.187 247.802 114.835 247.582 114.586C247.362 114.322 247.046 114.19 246.636 114.19C246.166 114.19 245.712 114.381 245.272 114.762C244.832 115.129 244.45 115.642 244.128 116.302C243.82 116.947 243.6 117.673 243.468 118.48C243.409 118.832 243.38 119.169 243.38 119.492C243.38 120.401 243.68 120.856 244.282 120.856ZM260.747 120.306C260.776 120.277 260.798 120.262 260.813 120.262C260.857 120.262 260.893 120.291 260.923 120.35C260.967 120.394 260.967 120.438 260.923 120.482C260.424 121.069 259.984 121.501 259.603 121.78C259.221 122.059 258.825 122.198 258.415 122.198C258.092 122.198 257.85 122.103 257.689 121.912C257.542 121.721 257.469 121.435 257.469 121.054C257.469 120.819 257.505 120.482 257.579 120.042L258.217 116.544C258.29 116.192 258.327 115.84 258.327 115.488C258.327 114.725 258.07 114.344 257.557 114.344C257.117 114.344 256.662 114.623 256.193 115.18C255.738 115.737 255.305 116.551 254.895 117.622C254.484 118.678 254.147 119.947 253.883 121.428L253.817 121.78C253.743 122.044 253.391 122.176 252.761 122.176C252.321 122.176 252.101 122.125 252.101 122.022L252.189 121.538C252.335 120.849 252.416 120.46 252.431 120.372L253.333 115.466C253.362 115.334 253.377 115.165 253.377 114.96C253.377 114.535 253.245 114.322 252.981 114.322C252.658 114.322 252.211 114.63 251.639 115.246C251.624 115.261 251.602 115.268 251.573 115.268C251.529 115.268 251.485 115.246 251.441 115.202C251.411 115.143 251.419 115.092 251.463 115.048C251.976 114.447 252.438 114.007 252.849 113.728C253.274 113.449 253.692 113.31 254.103 113.31C254.425 113.31 254.66 113.405 254.807 113.596C254.968 113.772 255.049 114.051 255.049 114.432C255.049 114.549 255.019 114.828 254.961 115.268L254.565 117.468C255.078 116.119 255.679 115.077 256.369 114.344C257.058 113.596 257.784 113.222 258.547 113.222C259.529 113.222 260.021 113.816 260.021 115.004C260.021 115.283 259.984 115.657 259.911 116.126L259.185 120.042C259.141 120.262 259.119 120.445 259.119 120.592C259.119 120.973 259.243 121.164 259.493 121.164C259.757 121.164 260.175 120.878 260.747 120.306ZM269.165 120.042C269.121 120.277 269.099 120.467 269.099 120.614C269.099 120.981 269.217 121.164 269.451 121.164C269.598 121.164 269.774 121.098 269.979 120.966C270.185 120.819 270.434 120.599 270.727 120.306C270.757 120.277 270.779 120.262 270.793 120.262C270.837 120.262 270.874 120.291 270.903 120.35C270.947 120.394 270.947 120.438 270.903 120.482C270.39 121.069 269.943 121.501 269.561 121.78C269.18 122.059 268.791 122.198 268.395 122.198C267.75 122.198 267.427 121.802 267.427 121.01C267.427 120.775 267.464 120.453 267.537 120.042L267.845 118.326C267.229 119.573 266.569 120.548 265.865 121.252C265.161 121.941 264.443 122.286 263.709 122.286C263.167 122.286 262.712 122.11 262.345 121.758C261.993 121.391 261.817 120.834 261.817 120.086C261.817 119.822 261.839 119.536 261.883 119.228C262.074 118.187 262.485 117.204 263.115 116.28C263.746 115.356 264.487 114.615 265.337 114.058C266.188 113.501 267.017 113.222 267.823 113.222C268.146 113.222 268.461 113.281 268.769 113.398L269.627 108.822C269.671 108.573 269.693 108.367 269.693 108.206C269.693 107.986 269.657 107.825 269.583 107.722C269.51 107.619 269.393 107.568 269.231 107.568C269.026 107.568 268.703 107.671 268.263 107.876H268.219C268.161 107.876 268.124 107.839 268.109 107.766C268.095 107.693 268.117 107.649 268.175 107.634L271.409 106.05H271.453C271.512 106.05 271.563 106.072 271.607 106.116C271.651 106.16 271.666 106.197 271.651 106.226L269.165 120.042ZM264.677 120.9C265.205 120.9 265.719 120.643 266.217 120.13C266.716 119.602 267.149 118.971 267.515 118.238C267.882 117.505 268.124 116.845 268.241 116.258L268.263 116.126C268.293 115.921 268.307 115.781 268.307 115.708C268.307 115.224 268.161 114.85 267.867 114.586C267.574 114.322 267.193 114.19 266.723 114.19C265.917 114.205 265.242 114.549 264.699 115.224C264.171 115.899 263.797 116.874 263.577 118.15C263.519 118.502 263.489 118.847 263.489 119.184C263.489 119.756 263.592 120.189 263.797 120.482C264.003 120.761 264.296 120.9 264.677 120.9ZM280.179 110.912C279.812 110.912 279.526 110.809 279.321 110.604C279.116 110.399 279.013 110.113 279.013 109.746C279.013 109.423 279.116 109.167 279.321 108.976C279.541 108.771 279.827 108.668 280.179 108.668C280.531 108.668 280.802 108.771 280.993 108.976C281.184 109.167 281.279 109.423 281.279 109.746C281.279 110.113 281.184 110.399 280.993 110.604C280.802 110.809 280.531 110.912 280.179 110.912ZM278.727 122.198C278.082 122.198 277.759 121.817 277.759 121.054C277.759 120.775 277.803 120.438 277.891 120.042L278.793 115.466C278.837 115.261 278.859 115.085 278.859 114.938C278.859 114.527 278.72 114.322 278.441 114.322C278.089 114.322 277.642 114.63 277.099 115.246C277.084 115.261 277.062 115.268 277.033 115.268C276.974 115.268 276.93 115.246 276.901 115.202C276.872 115.143 276.872 115.092 276.901 115.048C277.429 114.447 277.898 114.007 278.309 113.728C278.734 113.449 279.145 113.31 279.541 113.31C280.186 113.31 280.509 113.669 280.509 114.388C280.509 114.608 280.472 114.901 280.399 115.268L279.497 120.042C279.453 120.262 279.431 120.445 279.431 120.592C279.431 120.973 279.556 121.164 279.805 121.164C280.054 121.164 280.48 120.885 281.081 120.328C281.11 120.299 281.14 120.284 281.169 120.284C281.213 120.284 281.25 120.313 281.279 120.372C281.308 120.416 281.301 120.46 281.257 120.504C280.758 121.091 280.311 121.523 279.915 121.802C279.519 122.066 279.123 122.198 278.727 122.198ZM288.387 113.53C288.489 113.53 288.541 113.596 288.541 113.728C288.541 113.845 288.46 114.014 288.299 114.234C288.137 114.439 287.983 114.542 287.837 114.542C287.778 114.542 287.521 114.505 287.067 114.432C286.612 114.359 286.121 114.315 285.593 114.3L284.647 119.602C284.603 119.793 284.581 119.976 284.581 120.152C284.581 120.841 284.955 121.186 285.703 121.186C286.289 121.186 286.935 120.893 287.639 120.306H287.661C287.719 120.306 287.771 120.328 287.815 120.372C287.859 120.416 287.859 120.46 287.815 120.504C287.14 121.135 286.546 121.589 286.033 121.868C285.534 122.132 285.035 122.264 284.537 122.264C283.422 122.264 282.865 121.758 282.865 120.746C282.865 120.541 282.887 120.321 282.931 120.086L283.811 115.268C283.855 115.004 283.877 114.791 283.877 114.63C283.877 114.41 283.818 114.263 283.701 114.19C283.598 114.117 283.385 114.08 283.063 114.08C283.019 114.08 282.997 114.036 282.997 113.948C282.997 113.831 283.019 113.772 283.063 113.772C283.664 113.772 284.177 113.603 284.603 113.266C285.028 112.914 285.365 112.459 285.615 111.902C285.629 111.873 285.681 111.858 285.769 111.858C285.827 111.858 285.886 111.873 285.945 111.902C286.003 111.917 286.025 111.931 286.011 111.946L285.703 113.706C286.084 113.691 286.429 113.677 286.737 113.662C287.045 113.633 287.316 113.611 287.551 113.596C287.917 113.552 288.196 113.53 288.387 113.53ZM38.084 133.028C38.6853 133.028 39.1547 133.145 39.492 133.38C39.8293 133.615 39.976 133.901 39.932 134.238C39.888 134.502 39.7707 134.707 39.58 134.854C39.404 135.001 39.1913 135.074 38.942 135.074C38.6047 135.074 38.37 134.993 38.238 134.832C38.1207 134.671 38.0253 134.436 37.952 134.128C37.8933 133.893 37.8273 133.725 37.754 133.622C37.6953 133.505 37.578 133.446 37.402 133.446C36.9033 133.446 36.4707 133.93 36.104 134.898C35.752 135.851 35.4293 137.333 35.136 139.342L34.938 140.684C35.4513 140.669 36.3533 140.625 37.644 140.552L38.084 140.53C38.1427 140.53 38.1867 140.552 38.216 140.596C38.2453 140.64 38.26 140.684 38.26 140.728C38.26 140.831 38.2087 140.97 38.106 141.146C38.0033 141.307 37.8787 141.454 37.732 141.586C37.5853 141.703 37.446 141.747 37.314 141.718L36.83 141.63C36.082 141.454 35.422 141.351 34.85 141.322L33.64 149.462C33.4347 150.885 33.1853 151.999 32.892 152.806C32.6133 153.613 32.254 154.185 31.814 154.522C31.3887 154.874 30.846 155.05 30.186 155.05C29.5993 155.05 29.1447 154.94 28.822 154.72C28.4993 154.5 28.3673 154.229 28.426 153.906C28.4553 153.657 28.5653 153.459 28.756 153.312C28.932 153.165 29.1373 153.092 29.372 153.092C29.68 153.092 29.8927 153.173 30.01 153.334C30.1273 153.495 30.2153 153.723 30.274 154.016C30.318 154.221 30.3693 154.375 30.428 154.478C30.4867 154.581 30.5893 154.632 30.736 154.632C30.8973 154.632 31.0293 154.515 31.132 154.28C31.2347 154.06 31.3447 153.635 31.462 153.004C31.5793 152.388 31.7407 151.398 31.946 150.034L33.068 142.268C33.0973 141.945 33.112 141.755 33.112 141.696C33.112 141.417 33.0387 141.249 32.892 141.19C32.7453 141.117 32.43 141.08 31.946 141.08C31.902 141.08 31.88 141.036 31.88 140.948C31.88 140.831 31.902 140.772 31.946 140.772C32.4447 140.772 32.7967 140.706 33.002 140.574C33.222 140.427 33.3613 140.171 33.42 139.804C33.7133 138 34.0433 136.621 34.41 135.668C34.7913 134.7 35.268 134.018 35.84 133.622C36.412 133.226 37.16 133.028 38.084 133.028ZM45.4786 147.306C45.4932 147.291 45.5152 147.284 45.5446 147.284C45.5886 147.284 45.6252 147.313 45.6546 147.372C45.6839 147.416 45.6839 147.453 45.6546 147.482C45.1706 148.054 44.7306 148.487 44.3346 148.78C43.9386 149.059 43.5572 149.198 43.1906 149.198C42.8532 149.198 42.6039 149.103 42.4426 148.912C42.2812 148.707 42.2006 148.391 42.2006 147.966C42.2006 147.658 42.2299 147.35 42.2886 147.042L42.5966 145.282C42.0099 146.514 41.3132 147.489 40.5066 148.208C39.7146 148.927 38.9446 149.286 38.1966 149.286C37.7419 149.286 37.3899 149.154 37.1406 148.89C36.8912 148.611 36.7666 148.193 36.7666 147.636C36.7666 146.624 37.0819 145.539 37.7126 144.38C38.3579 143.207 39.1499 142.224 40.0886 141.432C41.0419 140.625 41.9439 140.222 42.7946 140.222C43.0732 140.222 43.3446 140.273 43.6086 140.376C43.8872 140.464 44.1219 140.603 44.3126 140.794C44.6059 140.545 44.8186 140.295 44.9506 140.046C44.9799 140.017 45.0092 140.002 45.0386 140.002C45.0826 140.002 45.1266 140.017 45.1706 140.046C45.2146 140.061 45.2292 140.075 45.2146 140.09L43.9386 147.042C43.8946 147.262 43.8726 147.445 43.8726 147.592C43.8726 147.768 43.9019 147.907 43.9606 148.01C44.0192 148.113 44.0999 148.164 44.2026 148.164C44.4812 148.164 44.9066 147.878 45.4786 147.306ZM39.4066 147.856C39.9346 147.856 40.4772 147.555 41.0346 146.954C41.6066 146.353 42.0832 145.634 42.4646 144.798C42.8459 143.962 43.0366 143.243 43.0366 142.642C43.0366 142.187 42.9266 141.835 42.7066 141.586C42.4866 141.322 42.1712 141.19 41.7606 141.19C41.2912 141.19 40.8366 141.381 40.3966 141.762C39.9566 142.129 39.5752 142.642 39.2526 143.302C38.9446 143.947 38.7246 144.673 38.5926 145.48C38.5339 145.832 38.5046 146.169 38.5046 146.492C38.5046 147.401 38.8052 147.856 39.4066 147.856ZM49.9095 137.912C49.5428 137.912 49.2568 137.809 49.0515 137.604C48.8462 137.399 48.7435 137.113 48.7435 136.746C48.7435 136.423 48.8462 136.167 49.0515 135.976C49.2715 135.771 49.5575 135.668 49.9095 135.668C50.2615 135.668 50.5328 135.771 50.7235 135.976C50.9142 136.167 51.0095 136.423 51.0095 136.746C51.0095 137.113 50.9142 137.399 50.7235 137.604C50.5328 137.809 50.2615 137.912 49.9095 137.912ZM48.4575 149.198C47.8122 149.198 47.4895 148.817 47.4895 148.054C47.4895 147.775 47.5335 147.438 47.6215 147.042L48.5235 142.466C48.5675 142.261 48.5895 142.085 48.5895 141.938C48.5895 141.527 48.4502 141.322 48.1715 141.322C47.8195 141.322 47.3722 141.63 46.8295 142.246C46.8148 142.261 46.7928 142.268 46.7635 142.268C46.7048 142.268 46.6608 142.246 46.6315 142.202C46.6022 142.143 46.6022 142.092 46.6315 142.048C47.1595 141.447 47.6288 141.007 48.0395 140.728C48.4648 140.449 48.8755 140.31 49.2715 140.31C49.9168 140.31 50.2395 140.669 50.2395 141.388C50.2395 141.608 50.2028 141.901 50.1295 142.268L49.2275 147.042C49.1835 147.262 49.1615 147.445 49.1615 147.592C49.1615 147.973 49.2862 148.164 49.5355 148.164C49.7848 148.164 50.2102 147.885 50.8115 147.328C50.8408 147.299 50.8702 147.284 50.8995 147.284C50.9435 147.284 50.9802 147.313 51.0095 147.372C51.0388 147.416 51.0315 147.46 50.9875 147.504C50.4888 148.091 50.0415 148.523 49.6455 148.802C49.2495 149.066 48.8535 149.198 48.4575 149.198ZM53.5851 149.198C53.2477 149.198 52.9984 149.103 52.8371 148.912C52.6904 148.721 52.6171 148.428 52.6171 148.032C52.6171 147.812 52.6537 147.482 52.7271 147.042L54.7951 135.822C54.8391 135.573 54.8611 135.36 54.8611 135.184C54.8611 134.773 54.7144 134.568 54.4211 134.568C54.2157 134.568 53.8931 134.671 53.4531 134.876H53.4091C53.3504 134.876 53.3137 134.839 53.2991 134.766C53.2844 134.693 53.3064 134.649 53.3651 134.634L56.5771 133.05H56.6211C56.6797 133.05 56.7311 133.072 56.7751 133.116C56.8337 133.16 56.8557 133.197 56.8411 133.226L54.3551 147.042C54.3111 147.262 54.2891 147.453 54.2891 147.614C54.2891 147.981 54.4064 148.164 54.6411 148.164C54.9051 148.164 55.3231 147.878 55.8951 147.306C55.9244 147.277 55.9537 147.262 55.9831 147.262C56.0271 147.262 56.0637 147.291 56.0931 147.35C56.1224 147.394 56.1151 147.438 56.0711 147.482C55.5724 148.069 55.1324 148.501 54.7511 148.78C54.3697 149.059 53.9811 149.198 53.5851 149.198ZM62.7842 140.222C63.3122 140.222 63.7228 140.317 64.0162 140.508C64.3095 140.684 64.4562 140.941 64.4562 141.278C64.4562 141.953 63.9575 142.576 62.9602 143.148C61.9775 143.72 60.7895 144.131 59.3962 144.38C59.3375 144.849 59.3082 145.194 59.3082 145.414C59.3082 146.309 59.4988 147.027 59.8802 147.57C60.2615 148.098 60.8115 148.362 61.5302 148.362C61.8675 148.362 62.2195 148.311 62.5862 148.208C62.9528 148.091 63.2902 147.915 63.5982 147.68H63.6202C63.6642 147.68 63.7008 147.702 63.7302 147.746C63.7742 147.79 63.7815 147.827 63.7522 147.856C62.7402 148.795 61.6182 149.264 60.3862 149.264C59.4182 149.264 58.6848 148.963 58.1862 148.362C57.6875 147.761 57.4382 146.991 57.4382 146.052C57.4382 145.715 57.4748 145.341 57.5482 144.93C57.6948 144.153 58.0102 143.405 58.4942 142.686C58.9928 141.953 59.6162 141.359 60.3642 140.904C61.1268 140.449 61.9335 140.222 62.7842 140.222ZM62.4762 141.872C62.5055 141.725 62.5202 141.63 62.5202 141.586C62.5202 141.337 62.4395 141.146 62.2782 141.014C62.1168 140.882 61.9188 140.816 61.6842 140.816C61.1415 140.816 60.6722 141.117 60.2762 141.718C59.8948 142.319 59.6162 143.097 59.4402 144.05C61.2882 143.639 62.3002 142.913 62.4762 141.872ZM72.3256 147.042C72.2816 147.277 72.2596 147.467 72.2596 147.614C72.2596 147.981 72.377 148.164 72.6116 148.164C72.7583 148.164 72.9343 148.098 73.1396 147.966C73.345 147.819 73.5943 147.599 73.8876 147.306C73.917 147.277 73.939 147.262 73.9536 147.262C73.9976 147.262 74.0343 147.291 74.0636 147.35C74.1076 147.394 74.1076 147.438 74.0636 147.482C73.5503 148.069 73.103 148.501 72.7216 148.78C72.3403 149.059 71.9516 149.198 71.5556 149.198C70.9103 149.198 70.5876 148.802 70.5876 148.01C70.5876 147.775 70.6243 147.453 70.6976 147.042L71.0056 145.326C70.3896 146.573 69.7296 147.548 69.0256 148.252C68.3216 148.941 67.603 149.286 66.8696 149.286C66.327 149.286 65.8723 149.11 65.5056 148.758C65.1536 148.391 64.9776 147.834 64.9776 147.086C64.9776 146.822 64.9996 146.536 65.0436 146.228C65.2343 145.187 65.645 144.204 66.2756 143.28C66.9063 142.356 67.647 141.615 68.4976 141.058C69.3483 140.501 70.177 140.222 70.9836 140.222C71.3063 140.222 71.6216 140.281 71.9296 140.398L72.7876 135.822C72.8316 135.573 72.8536 135.367 72.8536 135.206C72.8536 134.986 72.817 134.825 72.7436 134.722C72.6703 134.619 72.553 134.568 72.3916 134.568C72.1863 134.568 71.8636 134.671 71.4236 134.876H71.3796C71.321 134.876 71.2843 134.839 71.2696 134.766C71.255 134.693 71.277 134.649 71.3356 134.634L74.5696 133.05H74.6136C74.6723 133.05 74.7236 133.072 74.7676 133.116C74.8116 133.16 74.8263 133.197 74.8116 133.226L72.3256 147.042ZM67.8376 147.9C68.3656 147.9 68.879 147.643 69.3776 147.13C69.8763 146.602 70.309 145.971 70.6756 145.238C71.0423 144.505 71.2843 143.845 71.4016 143.258L71.4236 143.126C71.453 142.921 71.4676 142.781 71.4676 142.708C71.4676 142.224 71.321 141.85 71.0276 141.586C70.7343 141.322 70.353 141.19 69.8836 141.19C69.077 141.205 68.4023 141.549 67.8596 142.224C67.3316 142.899 66.9576 143.874 66.7376 145.15C66.679 145.502 66.6496 145.847 66.6496 146.184C66.6496 146.756 66.7523 147.189 66.9576 147.482C67.163 147.761 67.4563 147.9 67.8376 147.9ZM76.115 146.954C76.5403 146.954 76.8703 147.086 77.105 147.35C77.3396 147.614 77.457 147.988 77.457 148.472C77.457 148.721 77.4276 148.963 77.369 149.198C77.2516 149.77 76.9656 150.349 76.511 150.936C76.071 151.537 75.5283 152.065 74.883 152.52C74.8683 152.535 74.8463 152.542 74.817 152.542C74.773 152.542 74.7363 152.513 74.707 152.454C74.6776 152.395 74.685 152.351 74.729 152.322C75.741 151.471 76.3276 150.562 76.489 149.594C76.5183 149.418 76.533 149.308 76.533 149.264C76.533 149.205 76.5183 149.117 76.489 149C76.3423 149.117 76.159 149.176 75.939 149.176C75.6016 149.176 75.3376 149.073 75.147 148.868C74.9563 148.648 74.861 148.391 74.861 148.098C74.861 147.775 74.971 147.504 75.191 147.284C75.411 147.064 75.719 146.954 76.115 146.954ZM100.069 135.25C100.098 135.25 100.113 135.294 100.113 135.382C100.113 135.47 100.098 135.514 100.069 135.514C99.5263 135.514 99.0643 135.712 98.683 136.108C98.3163 136.489 98.067 137.032 97.935 137.736L95.911 149.176C95.911 149.22 95.8743 149.249 95.801 149.264C95.7423 149.293 95.6763 149.308 95.603 149.308C95.4857 149.308 95.405 149.279 95.361 149.22L88.981 137.362L87.353 146.514C87.309 146.749 87.287 146.976 87.287 147.196C87.287 148.223 87.7563 148.736 88.695 148.736C88.7243 148.736 88.739 148.78 88.739 148.868C88.739 148.956 88.7243 149 88.695 149C88.343 149 88.0717 148.993 87.881 148.978L86.693 148.956L85.615 148.978C85.395 148.993 85.087 149 84.691 149C84.647 149 84.625 148.956 84.625 148.868C84.625 148.78 84.647 148.736 84.691 148.736C85.2337 148.736 85.6883 148.545 86.055 148.164C86.4363 147.783 86.6857 147.233 86.803 146.514L88.585 136.636C88.321 136.225 88.0643 135.939 87.815 135.778C87.5657 135.602 87.2943 135.514 87.001 135.514C86.957 135.514 86.935 135.47 86.935 135.382C86.935 135.294 86.957 135.25 87.001 135.25L87.925 135.272C88.1303 135.287 88.409 135.294 88.761 135.294C89.069 135.294 89.333 135.287 89.553 135.272C89.773 135.257 89.927 135.25 90.015 135.25C90.103 135.25 90.169 135.279 90.213 135.338C90.257 135.382 90.3083 135.485 90.367 135.646C90.4403 135.837 90.5577 136.086 90.719 136.394L95.889 146.008L97.385 137.736C97.429 137.472 97.451 137.237 97.451 137.032C97.451 136.533 97.3337 136.159 97.099 135.91C96.8643 135.646 96.5197 135.514 96.065 135.514C96.021 135.514 95.999 135.47 95.999 135.382C95.999 135.294 96.021 135.25 96.065 135.25L96.835 135.272C97.3043 135.301 97.7077 135.316 98.045 135.316C98.2943 135.316 98.6683 135.301 99.167 135.272L100.069 135.25ZM110.284 135.25C110.401 135.25 110.445 135.316 110.416 135.448C110.181 136.959 110.034 137.919 109.976 138.33C109.961 138.374 109.91 138.396 109.822 138.396C109.734 138.381 109.697 138.352 109.712 138.308C109.682 137.501 109.448 136.863 109.008 136.394C108.568 135.91 107.981 135.668 107.248 135.668H106.39C105.95 135.668 105.627 135.705 105.422 135.778C105.216 135.837 105.062 135.961 104.96 136.152C104.872 136.328 104.791 136.629 104.718 137.054L103.882 141.828H106.17C106.815 141.828 107.299 141.703 107.622 141.454C107.959 141.19 108.186 140.765 108.304 140.178C108.304 140.134 108.348 140.112 108.436 140.112C108.465 140.112 108.494 140.127 108.524 140.156C108.568 140.171 108.582 140.193 108.568 140.222C108.509 140.662 108.421 141.131 108.304 141.63L108.216 142.114L107.886 144.292C107.871 144.351 107.82 144.38 107.732 144.38C107.644 144.38 107.607 144.343 107.622 144.27C107.651 144.035 107.666 143.867 107.666 143.764C107.666 142.855 107.116 142.4 106.016 142.4H103.772L102.936 147.13C102.892 147.365 102.87 147.57 102.87 147.746C102.87 148.142 103.009 148.406 103.288 148.538C103.566 148.67 104.094 148.736 104.872 148.736C104.901 148.736 104.916 148.78 104.916 148.868C104.916 148.956 104.901 149 104.872 149C104.52 149 104.219 148.993 103.97 148.978L101.66 148.956L100.318 148.978C100.083 148.993 99.7529 149 99.3275 149C99.2982 149 99.2835 148.956 99.2835 148.868C99.2835 148.78 99.2982 148.736 99.3275 148.736C99.7675 148.736 100.09 148.699 100.296 148.626C100.516 148.553 100.677 148.413 100.78 148.208C100.897 147.988 100.992 147.658 101.066 147.218L102.87 137.032C102.928 136.651 102.958 136.416 102.958 136.328C102.958 136.005 102.862 135.793 102.672 135.69C102.496 135.573 102.173 135.514 101.704 135.514C101.66 135.514 101.638 135.47 101.638 135.382C101.638 135.294 101.66 135.25 101.704 135.25H110.284ZM112.382 149C112.338 149 112.316 148.956 112.316 148.868C112.316 148.78 112.338 148.736 112.382 148.736C112.91 148.736 113.306 148.699 113.57 148.626C113.834 148.553 114.024 148.413 114.142 148.208C114.274 147.988 114.384 147.658 114.472 147.218L116.254 137.032C116.298 136.768 116.32 136.548 116.32 136.372C116.32 136.108 116.254 135.932 116.122 135.844C115.99 135.756 115.755 135.712 115.418 135.712H115.066C114.303 135.712 113.599 136.02 112.954 136.636C112.308 137.252 111.839 138.059 111.546 139.056C111.531 139.1 111.48 139.115 111.392 139.1C111.318 139.085 111.289 139.056 111.304 139.012C111.421 138.631 111.59 137.963 111.81 137.01C112.044 136.042 112.213 135.294 112.316 134.766C112.33 134.722 112.382 134.707 112.47 134.722C112.558 134.722 112.594 134.744 112.58 134.788C112.536 135.096 112.822 135.25 113.438 135.25C114.523 135.294 115.865 135.316 117.464 135.316C118.212 135.316 119.04 135.301 119.95 135.272L121.336 135.25C121.776 135.25 122.106 135.213 122.326 135.14C122.546 135.067 122.7 134.92 122.788 134.7C122.817 134.656 122.868 134.641 122.942 134.656C123.015 134.656 123.044 134.685 123.03 134.744C122.898 135.199 122.722 135.932 122.502 136.944C122.282 137.956 122.15 138.645 122.106 139.012C122.091 139.071 122.04 139.1 121.952 139.1C121.864 139.085 121.827 139.049 121.842 138.99C121.9 138.579 121.93 138.293 121.93 138.132C121.93 137.384 121.732 136.797 121.336 136.372C120.954 135.932 120.412 135.712 119.708 135.712H119.356C118.916 135.712 118.622 135.8 118.476 135.976C118.329 136.152 118.212 136.519 118.124 137.076L116.342 147.218C116.283 147.57 116.254 147.797 116.254 147.9C116.254 148.237 116.371 148.465 116.606 148.582C116.84 148.685 117.28 148.736 117.926 148.736C117.955 148.736 117.97 148.78 117.97 148.868C117.97 148.956 117.955 149 117.926 149C117.442 149 117.06 148.993 116.782 148.978L115.132 148.956L113.548 148.978C113.254 148.993 112.866 149 112.382 149ZM132.866 140.222C133.394 140.222 133.805 140.317 134.098 140.508C134.392 140.684 134.538 140.941 134.538 141.278C134.538 141.953 134.04 142.576 133.042 143.148C132.06 143.72 130.872 144.131 129.478 144.38C129.42 144.849 129.39 145.194 129.39 145.414C129.39 146.309 129.581 147.027 129.962 147.57C130.344 148.098 130.894 148.362 131.612 148.362C131.95 148.362 132.302 148.311 132.668 148.208C133.035 148.091 133.372 147.915 133.68 147.68H133.702C133.746 147.68 133.783 147.702 133.812 147.746C133.856 147.79 133.864 147.827 133.834 147.856C132.822 148.795 131.7 149.264 130.468 149.264C129.5 149.264 128.767 148.963 128.268 148.362C127.77 147.761 127.52 146.991 127.52 146.052C127.52 145.715 127.557 145.341 127.63 144.93C127.777 144.153 128.092 143.405 128.576 142.686C129.075 141.953 129.698 141.359 130.446 140.904C131.209 140.449 132.016 140.222 132.866 140.222ZM132.558 141.872C132.588 141.725 132.602 141.63 132.602 141.586C132.602 141.337 132.522 141.146 132.36 141.014C132.199 140.882 132.001 140.816 131.766 140.816C131.224 140.816 130.754 141.117 130.358 141.718C129.977 142.319 129.698 143.097 129.522 144.05C131.37 143.639 132.382 142.913 132.558 141.872ZM144.495 147.306C144.524 147.277 144.546 147.262 144.561 147.262C144.605 147.262 144.641 147.291 144.671 147.35C144.715 147.394 144.715 147.438 144.671 147.482C144.172 148.069 143.732 148.501 143.351 148.78C142.969 149.059 142.573 149.198 142.163 149.198C141.84 149.198 141.598 149.103 141.437 148.912C141.29 148.721 141.217 148.435 141.217 148.054C141.217 147.819 141.253 147.482 141.327 147.042L141.965 143.544C142.038 143.192 142.075 142.84 142.075 142.488C142.075 141.725 141.818 141.344 141.305 141.344C140.865 141.344 140.41 141.623 139.941 142.18C139.486 142.737 139.053 143.551 138.643 144.622C138.232 145.678 137.895 146.947 137.631 148.428L137.565 148.78C137.491 149.044 137.139 149.176 136.509 149.176C136.069 149.176 135.849 149.125 135.849 149.022L135.937 148.538C136.083 147.849 136.164 147.46 136.179 147.372L137.081 142.466C137.11 142.334 137.125 142.165 137.125 141.96C137.125 141.535 136.993 141.322 136.729 141.322C136.406 141.322 135.959 141.63 135.387 142.246C135.372 142.261 135.35 142.268 135.321 142.268C135.277 142.268 135.233 142.246 135.189 142.202C135.159 142.143 135.167 142.092 135.211 142.048C135.724 141.447 136.186 141.007 136.597 140.728C137.022 140.449 137.44 140.31 137.851 140.31C138.173 140.31 138.408 140.405 138.555 140.596C138.716 140.772 138.797 141.051 138.797 141.432C138.797 141.549 138.767 141.828 138.709 142.268L138.313 144.468C138.826 143.119 139.427 142.077 140.117 141.344C140.806 140.596 141.532 140.222 142.295 140.222C143.277 140.222 143.769 140.816 143.769 142.004C143.769 142.283 143.732 142.657 143.659 143.126L142.933 147.042C142.889 147.262 142.867 147.445 142.867 147.592C142.867 147.973 142.991 148.164 143.241 148.164C143.505 148.164 143.923 147.878 144.495 147.306ZM154.432 147.306C154.461 147.277 154.49 147.262 154.52 147.262C154.564 147.262 154.6 147.291 154.63 147.35C154.659 147.394 154.652 147.438 154.608 147.482C154.109 148.069 153.669 148.501 153.288 148.78C152.906 149.059 152.51 149.198 152.1 149.198C151.777 149.198 151.535 149.103 151.374 148.912C151.227 148.721 151.154 148.435 151.154 148.054C151.154 147.819 151.19 147.482 151.264 147.042L151.902 143.544C151.975 143.192 152.012 142.84 152.012 142.488C152.012 141.725 151.755 141.344 151.242 141.344C150.816 141.344 150.369 141.615 149.9 142.158C149.445 142.701 149.012 143.5 148.602 144.556C148.191 145.597 147.854 146.837 147.59 148.274L147.502 148.78C147.428 149.044 147.076 149.176 146.446 149.176C146.006 149.176 145.786 149.125 145.786 149.022L145.874 148.538C146.02 147.849 146.101 147.46 146.116 147.372L148.25 135.822C148.294 135.573 148.316 135.367 148.316 135.206C148.316 134.986 148.279 134.825 148.206 134.722C148.132 134.619 148.015 134.568 147.854 134.568C147.648 134.568 147.326 134.671 146.886 134.876H146.842C146.798 134.876 146.761 134.839 146.732 134.766C146.717 134.693 146.739 134.649 146.798 134.634L150.01 133.05H150.054C150.112 133.05 150.164 133.072 150.208 133.116C150.266 133.16 150.288 133.197 150.274 133.226L148.272 144.424C148.785 143.089 149.379 142.055 150.054 141.322C150.743 140.589 151.469 140.222 152.232 140.222C153.214 140.222 153.706 140.816 153.706 142.004C153.706 142.283 153.669 142.657 153.596 143.126L152.87 147.042C152.826 147.262 152.804 147.445 152.804 147.592C152.804 147.973 152.928 148.164 153.178 148.164C153.442 148.164 153.86 147.878 154.432 147.306ZM164.137 147.306C164.151 147.291 164.173 147.284 164.203 147.284C164.247 147.284 164.283 147.313 164.313 147.372C164.342 147.416 164.342 147.453 164.313 147.482C163.829 148.054 163.389 148.487 162.993 148.78C162.597 149.059 162.215 149.198 161.849 149.198C161.511 149.198 161.262 149.103 161.101 148.912C160.939 148.707 160.859 148.391 160.859 147.966C160.859 147.658 160.888 147.35 160.947 147.042L161.255 145.282C160.668 146.514 159.971 147.489 159.165 148.208C158.373 148.927 157.603 149.286 156.855 149.286C156.4 149.286 156.048 149.154 155.799 148.89C155.549 148.611 155.425 148.193 155.425 147.636C155.425 146.624 155.74 145.539 156.371 144.38C157.016 143.207 157.808 142.224 158.747 141.432C159.7 140.625 160.602 140.222 161.453 140.222C161.731 140.222 162.003 140.273 162.267 140.376C162.545 140.464 162.78 140.603 162.971 140.794C163.264 140.545 163.477 140.295 163.609 140.046C163.638 140.017 163.667 140.002 163.697 140.002C163.741 140.002 163.785 140.017 163.829 140.046C163.873 140.061 163.887 140.075 163.873 140.09L162.597 147.042C162.553 147.262 162.531 147.445 162.531 147.592C162.531 147.768 162.56 147.907 162.619 148.01C162.677 148.113 162.758 148.164 162.861 148.164C163.139 148.164 163.565 147.878 164.137 147.306ZM158.065 147.856C158.593 147.856 159.135 147.555 159.693 146.954C160.265 146.353 160.741 145.634 161.123 144.798C161.504 143.962 161.695 143.243 161.695 142.642C161.695 142.187 161.585 141.835 161.365 141.586C161.145 141.322 160.829 141.19 160.419 141.19C159.949 141.19 159.495 141.381 159.055 141.762C158.615 142.129 158.233 142.642 157.911 143.302C157.603 143.947 157.383 144.673 157.251 145.48C157.192 145.832 157.163 146.169 157.163 146.492C157.163 147.401 157.463 147.856 158.065 147.856ZM174.53 147.306C174.559 147.277 174.581 147.262 174.596 147.262C174.64 147.262 174.676 147.291 174.706 147.35C174.75 147.394 174.75 147.438 174.706 147.482C174.207 148.069 173.767 148.501 173.386 148.78C173.004 149.059 172.608 149.198 172.198 149.198C171.875 149.198 171.633 149.103 171.472 148.912C171.325 148.721 171.252 148.435 171.252 148.054C171.252 147.819 171.288 147.482 171.362 147.042L172 143.544C172.073 143.192 172.11 142.84 172.11 142.488C172.11 141.725 171.853 141.344 171.34 141.344C170.9 141.344 170.445 141.623 169.976 142.18C169.521 142.737 169.088 143.551 168.678 144.622C168.267 145.678 167.93 146.947 167.666 148.428L167.6 148.78C167.526 149.044 167.174 149.176 166.544 149.176C166.104 149.176 165.884 149.125 165.884 149.022L165.972 148.538C166.118 147.849 166.199 147.46 166.214 147.372L167.116 142.466C167.145 142.334 167.16 142.165 167.16 141.96C167.16 141.535 167.028 141.322 166.764 141.322C166.441 141.322 165.994 141.63 165.422 142.246C165.407 142.261 165.385 142.268 165.356 142.268C165.312 142.268 165.268 142.246 165.224 142.202C165.194 142.143 165.202 142.092 165.246 142.048C165.759 141.447 166.221 141.007 166.632 140.728C167.057 140.449 167.475 140.31 167.886 140.31C168.208 140.31 168.443 140.405 168.59 140.596C168.751 140.772 168.832 141.051 168.832 141.432C168.832 141.549 168.802 141.828 168.744 142.268L168.348 144.468C168.861 143.119 169.462 142.077 170.152 141.344C170.841 140.596 171.567 140.222 172.33 140.222C173.312 140.222 173.804 140.816 173.804 142.004C173.804 142.283 173.767 142.657 173.694 143.126L172.968 147.042C172.924 147.262 172.902 147.445 172.902 147.592C172.902 147.973 173.026 148.164 173.276 148.164C173.54 148.164 173.958 147.878 174.53 147.306ZM178.766 149.286C177.768 149.286 177.028 148.956 176.544 148.296C176.074 147.621 175.84 146.785 175.84 145.788C175.84 145.436 175.876 145.025 175.95 144.556C176.111 143.705 176.448 142.95 176.962 142.29C177.475 141.63 178.076 141.124 178.766 140.772C179.455 140.405 180.137 140.222 180.812 140.222C181.34 140.222 181.802 140.339 182.198 140.574C182.608 140.794 182.814 141.109 182.814 141.52C182.814 141.828 182.726 142.077 182.55 142.268C182.388 142.444 182.146 142.532 181.824 142.532C181.266 142.532 180.936 142.231 180.834 141.63C180.76 141.381 180.658 141.183 180.526 141.036C180.394 140.875 180.188 140.794 179.91 140.794C179.382 140.794 178.927 141.073 178.546 141.63C178.179 142.173 177.922 142.899 177.776 143.808C177.688 144.292 177.644 144.761 177.644 145.216C177.644 146.155 177.834 146.91 178.216 147.482C178.612 148.039 179.198 148.318 179.976 148.318C180.313 148.318 180.672 148.245 181.054 148.098C181.435 147.937 181.765 147.746 182.044 147.526H182.066C182.11 147.526 182.154 147.548 182.198 147.592C182.242 147.636 182.249 147.68 182.22 147.724C181.662 148.252 181.083 148.648 180.482 148.912C179.895 149.161 179.323 149.286 178.766 149.286ZM188.747 140.222C189.275 140.222 189.686 140.317 189.979 140.508C190.272 140.684 190.419 140.941 190.419 141.278C190.419 141.953 189.92 142.576 188.923 143.148C187.94 143.72 186.752 144.131 185.359 144.38C185.3 144.849 185.271 145.194 185.271 145.414C185.271 146.309 185.462 147.027 185.843 147.57C186.224 148.098 186.774 148.362 187.493 148.362C187.83 148.362 188.182 148.311 188.549 148.208C188.916 148.091 189.253 147.915 189.561 147.68H189.583C189.627 147.68 189.664 147.702 189.693 147.746C189.737 147.79 189.744 147.827 189.715 147.856C188.703 148.795 187.581 149.264 186.349 149.264C185.381 149.264 184.648 148.963 184.149 148.362C183.65 147.761 183.401 146.991 183.401 146.052C183.401 145.715 183.438 145.341 183.511 144.93C183.658 144.153 183.973 143.405 184.457 142.686C184.956 141.953 185.579 141.359 186.327 140.904C187.09 140.449 187.896 140.222 188.747 140.222ZM188.439 141.872C188.468 141.725 188.483 141.63 188.483 141.586C188.483 141.337 188.402 141.146 188.241 141.014C188.08 140.882 187.882 140.816 187.647 140.816C187.104 140.816 186.635 141.117 186.239 141.718C185.858 142.319 185.579 143.097 185.403 144.05C187.251 143.639 188.263 142.913 188.439 141.872ZM204.995 147.306C205.025 147.277 205.054 147.262 205.083 147.262C205.127 147.262 205.164 147.291 205.193 147.35C205.223 147.394 205.215 147.438 205.171 147.482C204.673 148.069 204.233 148.501 203.851 148.78C203.47 149.059 203.081 149.198 202.685 149.198C202.348 149.198 202.106 149.103 201.959 148.912C201.813 148.721 201.739 148.421 201.739 148.01C201.739 147.702 201.769 147.379 201.827 147.042L202.487 143.544C202.561 143.075 202.597 142.723 202.597 142.488C202.597 141.725 202.363 141.344 201.893 141.344C201.512 141.344 201.101 141.608 200.661 142.136C200.236 142.649 199.825 143.412 199.429 144.424C199.033 145.436 198.703 146.646 198.439 148.054L198.307 148.78C198.263 149.044 197.911 149.176 197.251 149.176C196.811 149.176 196.591 149.125 196.591 149.022C196.606 148.934 196.65 148.714 196.723 148.362C196.811 148.01 196.877 147.68 196.921 147.372L197.647 143.522C197.721 143.082 197.757 142.745 197.757 142.51C197.757 141.733 197.508 141.344 197.009 141.344C196.628 141.344 196.217 141.615 195.777 142.158C195.337 142.701 194.919 143.485 194.523 144.512C194.142 145.524 193.827 146.719 193.577 148.098L193.445 148.78C193.372 149.044 193.02 149.176 192.389 149.176C191.949 149.176 191.729 149.125 191.729 149.022L191.839 148.494L192.059 147.416L192.961 142.466C192.991 142.334 193.005 142.165 193.005 141.96C193.005 141.535 192.873 141.322 192.609 141.322C192.287 141.322 191.839 141.63 191.267 142.246C191.253 142.261 191.231 142.268 191.201 142.268C191.157 142.268 191.113 142.246 191.069 142.202C191.04 142.143 191.047 142.092 191.091 142.048C191.605 141.447 192.067 141.007 192.477 140.728C192.903 140.449 193.321 140.31 193.731 140.31C194.054 140.31 194.289 140.405 194.435 140.596C194.597 140.772 194.677 141.051 194.677 141.432C194.677 141.549 194.648 141.828 194.589 142.268L194.237 144.292C194.736 142.987 195.308 141.982 195.953 141.278C196.613 140.574 197.31 140.222 198.043 140.222C198.967 140.222 199.429 140.801 199.429 141.96C199.429 142.356 199.393 142.737 199.319 143.104L199.099 144.27C199.613 142.979 200.192 141.982 200.837 141.278C201.497 140.574 202.179 140.222 202.883 140.222C203.822 140.222 204.291 140.794 204.291 141.938C204.291 142.29 204.247 142.686 204.159 143.126L203.455 147.042C203.411 147.262 203.389 147.445 203.389 147.592C203.389 147.973 203.514 148.164 203.763 148.164C204.013 148.164 204.423 147.878 204.995 147.306ZM211.606 140.222C212.134 140.222 212.545 140.317 212.838 140.508C213.132 140.684 213.278 140.941 213.278 141.278C213.278 141.953 212.78 142.576 211.782 143.148C210.8 143.72 209.612 144.131 208.218 144.38C208.16 144.849 208.13 145.194 208.13 145.414C208.13 146.309 208.321 147.027 208.702 147.57C209.084 148.098 209.634 148.362 210.352 148.362C210.69 148.362 211.042 148.311 211.408 148.208C211.775 148.091 212.112 147.915 212.42 147.68H212.442C212.486 147.68 212.523 147.702 212.552 147.746C212.596 147.79 212.604 147.827 212.574 147.856C211.562 148.795 210.44 149.264 209.208 149.264C208.24 149.264 207.507 148.963 207.008 148.362C206.51 147.761 206.26 146.991 206.26 146.052C206.26 145.715 206.297 145.341 206.37 144.93C206.517 144.153 206.832 143.405 207.316 142.686C207.815 141.953 208.438 141.359 209.186 140.904C209.949 140.449 210.756 140.222 211.606 140.222ZM211.298 141.872C211.328 141.725 211.342 141.63 211.342 141.586C211.342 141.337 211.262 141.146 211.1 141.014C210.939 140.882 210.741 140.816 210.506 140.816C209.964 140.816 209.494 141.117 209.098 141.718C208.717 142.319 208.438 143.097 208.262 144.05C210.11 143.639 211.122 142.913 211.298 141.872ZM223.235 147.306C223.264 147.277 223.286 147.262 223.301 147.262C223.345 147.262 223.381 147.291 223.411 147.35C223.455 147.394 223.455 147.438 223.411 147.482C222.912 148.069 222.472 148.501 222.091 148.78C221.709 149.059 221.313 149.198 220.903 149.198C220.58 149.198 220.338 149.103 220.177 148.912C220.03 148.721 219.957 148.435 219.957 148.054C219.957 147.819 219.993 147.482 220.067 147.042L220.705 143.544C220.778 143.192 220.815 142.84 220.815 142.488C220.815 141.725 220.558 141.344 220.045 141.344C219.605 141.344 219.15 141.623 218.681 142.18C218.226 142.737 217.793 143.551 217.383 144.622C216.972 145.678 216.635 146.947 216.371 148.428L216.305 148.78C216.231 149.044 215.879 149.176 215.249 149.176C214.809 149.176 214.589 149.125 214.589 149.022L214.677 148.538C214.823 147.849 214.904 147.46 214.919 147.372L215.821 142.466C215.85 142.334 215.865 142.165 215.865 141.96C215.865 141.535 215.733 141.322 215.469 141.322C215.146 141.322 214.699 141.63 214.127 142.246C214.112 142.261 214.09 142.268 214.061 142.268C214.017 142.268 213.973 142.246 213.929 142.202C213.899 142.143 213.907 142.092 213.951 142.048C214.464 141.447 214.926 141.007 215.337 140.728C215.762 140.449 216.18 140.31 216.591 140.31C216.913 140.31 217.148 140.405 217.295 140.596C217.456 140.772 217.537 141.051 217.537 141.432C217.537 141.549 217.507 141.828 217.449 142.268L217.053 144.468C217.566 143.119 218.167 142.077 218.857 141.344C219.546 140.596 220.272 140.222 221.035 140.222C222.017 140.222 222.509 140.816 222.509 142.004C222.509 142.283 222.472 142.657 222.399 143.126L221.673 147.042C221.629 147.262 221.607 147.445 221.607 147.592C221.607 147.973 221.731 148.164 221.981 148.164C222.245 148.164 222.663 147.878 223.235 147.306ZM230.422 140.53C230.524 140.53 230.576 140.596 230.576 140.728C230.576 140.845 230.495 141.014 230.334 141.234C230.172 141.439 230.018 141.542 229.872 141.542C229.813 141.542 229.556 141.505 229.102 141.432C228.647 141.359 228.156 141.315 227.628 141.3L226.682 146.602C226.638 146.793 226.616 146.976 226.616 147.152C226.616 147.841 226.99 148.186 227.738 148.186C228.324 148.186 228.97 147.893 229.674 147.306H229.696C229.754 147.306 229.806 147.328 229.85 147.372C229.894 147.416 229.894 147.46 229.85 147.504C229.175 148.135 228.581 148.589 228.068 148.868C227.569 149.132 227.07 149.264 226.572 149.264C225.457 149.264 224.9 148.758 224.9 147.746C224.9 147.541 224.922 147.321 224.966 147.086L225.846 142.268C225.89 142.004 225.912 141.791 225.912 141.63C225.912 141.41 225.853 141.263 225.736 141.19C225.633 141.117 225.42 141.08 225.098 141.08C225.054 141.08 225.032 141.036 225.032 140.948C225.032 140.831 225.054 140.772 225.098 140.772C225.699 140.772 226.212 140.603 226.638 140.266C227.063 139.914 227.4 139.459 227.65 138.902C227.664 138.873 227.716 138.858 227.804 138.858C227.862 138.858 227.921 138.873 227.98 138.902C228.038 138.917 228.06 138.931 228.046 138.946L227.738 140.706C228.119 140.691 228.464 140.677 228.772 140.662C229.08 140.633 229.351 140.611 229.586 140.596C229.952 140.552 230.231 140.53 230.422 140.53ZM237.62 149.198C237.283 149.198 237.034 149.103 236.872 148.912C236.726 148.721 236.652 148.428 236.652 148.032C236.652 147.812 236.689 147.482 236.762 147.042L238.83 135.822C238.874 135.573 238.896 135.36 238.896 135.184C238.896 134.773 238.75 134.568 238.456 134.568C238.251 134.568 237.928 134.671 237.488 134.876H237.444C237.386 134.876 237.349 134.839 237.334 134.766C237.32 134.693 237.342 134.649 237.4 134.634L240.612 133.05H240.656C240.715 133.05 240.766 133.072 240.81 133.116C240.869 133.16 240.891 133.197 240.876 133.226L238.39 147.042C238.346 147.262 238.324 147.453 238.324 147.614C238.324 147.981 238.442 148.164 238.676 148.164C238.94 148.164 239.358 147.878 239.93 147.306C239.96 147.277 239.989 147.262 240.018 147.262C240.062 147.262 240.099 147.291 240.128 147.35C240.158 147.394 240.15 147.438 240.106 147.482C239.608 148.069 239.168 148.501 238.786 148.78C238.405 149.059 238.016 149.198 237.62 149.198ZM246.819 140.222C247.347 140.222 247.758 140.317 248.051 140.508C248.345 140.684 248.491 140.941 248.491 141.278C248.491 141.953 247.993 142.576 246.995 143.148C246.013 143.72 244.825 144.131 243.431 144.38C243.373 144.849 243.343 145.194 243.343 145.414C243.343 146.309 243.534 147.027 243.915 147.57C244.297 148.098 244.847 148.362 245.565 148.362C245.903 148.362 246.255 148.311 246.621 148.208C246.988 148.091 247.325 147.915 247.633 147.68H247.655C247.699 147.68 247.736 147.702 247.765 147.746C247.809 147.79 247.817 147.827 247.787 147.856C246.775 148.795 245.653 149.264 244.421 149.264C243.453 149.264 242.72 148.963 242.221 148.362C241.723 147.761 241.473 146.991 241.473 146.052C241.473 145.715 241.51 145.341 241.583 144.93C241.73 144.153 242.045 143.405 242.529 142.686C243.028 141.953 243.651 141.359 244.399 140.904C245.162 140.449 245.969 140.222 246.819 140.222ZM246.511 141.872C246.541 141.725 246.555 141.63 246.555 141.586C246.555 141.337 246.475 141.146 246.313 141.014C246.152 140.882 245.954 140.816 245.719 140.816C245.177 140.816 244.707 141.117 244.311 141.718C243.93 142.319 243.651 143.097 243.475 144.05C245.323 143.639 246.335 142.913 246.511 141.872ZM252.816 149.286C252.126 149.286 251.576 149.015 251.166 148.472C250.755 147.915 250.572 147.269 250.616 146.536C250.66 146.14 250.762 145.744 250.924 145.348C251.085 144.937 251.334 144.409 251.672 143.764C251.994 143.119 252.185 142.73 252.244 142.598C252.346 142.363 252.398 142.217 252.398 142.158C252.398 142.041 252.31 141.982 252.134 141.982H251.056C250.528 141.982 250.154 142.055 249.934 142.202C249.714 142.349 249.538 142.62 249.406 143.016C249.391 143.06 249.347 143.082 249.274 143.082C249.23 143.082 249.193 143.067 249.164 143.038C249.134 143.009 249.127 142.972 249.142 142.928C249.376 142.239 249.574 141.733 249.736 141.41C249.912 141.073 250.124 140.838 250.374 140.706C250.623 140.559 250.968 140.486 251.408 140.486H253.432C253.593 140.486 253.674 140.515 253.674 140.574C253.674 140.618 253.652 140.677 253.608 140.75C253.27 141.513 252.97 142.29 252.706 143.082C252.442 143.874 252.273 144.541 252.2 145.084C252.156 145.319 252.134 145.546 252.134 145.766C252.134 146.382 252.28 146.873 252.574 147.24C252.867 147.607 253.256 147.79 253.74 147.79C254.385 147.79 254.994 147.497 255.566 146.91C256.138 146.323 256.512 145.568 256.688 144.644C256.746 144.395 256.776 144.145 256.776 143.896C256.776 143.529 256.71 143.236 256.578 143.016C256.46 142.781 256.284 142.539 256.05 142.29C255.859 142.085 255.712 141.909 255.61 141.762C255.522 141.615 255.478 141.447 255.478 141.256C255.478 140.933 255.58 140.691 255.786 140.53C256.006 140.369 256.27 140.288 256.578 140.288C257.326 140.288 257.7 140.926 257.7 142.202C257.7 142.495 257.678 142.84 257.634 143.236C257.516 144.336 257.201 145.348 256.688 146.272C256.174 147.196 255.566 147.929 254.862 148.472C254.172 149.015 253.49 149.286 252.816 149.286ZM264.308 140.222C264.836 140.222 265.246 140.317 265.54 140.508C265.833 140.684 265.98 140.941 265.98 141.278C265.98 141.953 265.481 142.576 264.484 143.148C263.501 143.72 262.313 144.131 260.92 144.38C260.861 144.849 260.832 145.194 260.832 145.414C260.832 146.309 261.022 147.027 261.404 147.57C261.785 148.098 262.335 148.362 263.054 148.362C263.391 148.362 263.743 148.311 264.11 148.208C264.476 148.091 264.814 147.915 265.122 147.68H265.144C265.188 147.68 265.224 147.702 265.254 147.746C265.298 147.79 265.305 147.827 265.276 147.856C264.264 148.795 263.142 149.264 261.91 149.264C260.942 149.264 260.208 148.963 259.71 148.362C259.211 147.761 258.962 146.991 258.962 146.052C258.962 145.715 258.998 145.341 259.072 144.93C259.218 144.153 259.534 143.405 260.018 142.686C260.516 141.953 261.14 141.359 261.888 140.904C262.65 140.449 263.457 140.222 264.308 140.222ZM264 141.872C264.029 141.725 264.044 141.63 264.044 141.586C264.044 141.337 263.963 141.146 263.802 141.014C263.64 140.882 263.442 140.816 263.208 140.816C262.665 140.816 262.196 141.117 261.8 141.718C261.418 142.319 261.14 143.097 260.964 144.05C262.812 143.639 263.824 142.913 264 141.872ZM268.214 149.198C267.877 149.198 267.627 149.103 267.466 148.912C267.319 148.721 267.246 148.428 267.246 148.032C267.246 147.812 267.283 147.482 267.356 147.042L269.424 135.822C269.468 135.573 269.49 135.36 269.49 135.184C269.49 134.773 269.343 134.568 269.05 134.568C268.845 134.568 268.522 134.671 268.082 134.876H268.038C267.979 134.876 267.943 134.839 267.928 134.766C267.913 134.693 267.935 134.649 267.994 134.634L271.206 133.05H271.25C271.309 133.05 271.36 133.072 271.404 133.116C271.463 133.16 271.485 133.197 271.47 133.226L268.984 147.042C268.94 147.262 268.918 147.453 268.918 147.614C268.918 147.981 269.035 148.164 269.27 148.164C269.534 148.164 269.952 147.878 270.524 147.306C270.553 147.277 270.583 147.262 270.612 147.262C270.656 147.262 270.693 147.291 270.722 147.35C270.751 147.394 270.744 147.438 270.7 147.482C270.201 148.069 269.761 148.501 269.38 148.78C268.999 149.059 268.61 149.198 268.214 149.198ZM38.81 174.042C38.766 174.277 38.744 174.467 38.744 174.614C38.744 174.981 38.8613 175.164 39.096 175.164C39.2427 175.164 39.4187 175.098 39.624 174.966C39.8293 174.819 40.0787 174.599 40.372 174.306C40.4013 174.277 40.4233 174.262 40.438 174.262C40.482 174.262 40.5187 174.291 40.548 174.35C40.592 174.394 40.592 174.438 40.548 174.482C40.0347 175.069 39.5873 175.501 39.206 175.78C38.8247 176.059 38.436 176.198 38.04 176.198C37.3947 176.198 37.072 175.802 37.072 175.01C37.072 174.775 37.1087 174.453 37.182 174.042L37.49 172.326C36.874 173.573 36.214 174.548 35.51 175.252C34.806 175.941 34.0873 176.286 33.354 176.286C32.8113 176.286 32.3567 176.11 31.99 175.758C31.638 175.391 31.462 174.834 31.462 174.086C31.462 173.822 31.484 173.536 31.528 173.228C31.7187 172.187 32.1293 171.204 32.76 170.28C33.3907 169.356 34.1313 168.615 34.982 168.058C35.8327 167.501 36.6613 167.222 37.468 167.222C37.7907 167.222 38.106 167.281 38.414 167.398L39.272 162.822C39.316 162.573 39.338 162.367 39.338 162.206C39.338 161.986 39.3013 161.825 39.228 161.722C39.1547 161.619 39.0373 161.568 38.876 161.568C38.6707 161.568 38.348 161.671 37.908 161.876H37.864C37.8053 161.876 37.7687 161.839 37.754 161.766C37.7393 161.693 37.7613 161.649 37.82 161.634L41.054 160.05H41.098C41.1567 160.05 41.208 160.072 41.252 160.116C41.296 160.16 41.3107 160.197 41.296 160.226L38.81 174.042ZM34.322 174.9C34.85 174.9 35.3633 174.643 35.862 174.13C36.3607 173.602 36.7933 172.971 37.16 172.238C37.5267 171.505 37.7687 170.845 37.886 170.258L37.908 170.126C37.9373 169.921 37.952 169.781 37.952 169.708C37.952 169.224 37.8053 168.85 37.512 168.586C37.2187 168.322 36.8373 168.19 36.368 168.19C35.5613 168.205 34.8867 168.549 34.344 169.224C33.816 169.899 33.442 170.874 33.222 172.15C33.1633 172.502 33.134 172.847 33.134 173.184C33.134 173.756 33.2367 174.189 33.442 174.482C33.6473 174.761 33.9407 174.9 34.322 174.9ZM47.3293 167.31C47.6813 167.31 48.0187 167.442 48.3413 167.706C48.664 167.97 48.796 168.271 48.7373 168.608C48.708 168.813 48.6127 169.004 48.4513 169.18C48.29 169.341 48.092 169.422 47.8573 169.422C47.5933 169.422 47.3293 169.29 47.0653 169.026C46.9773 168.953 46.8893 168.887 46.8013 168.828C46.7133 168.769 46.618 168.74 46.5153 168.74C46.2367 168.74 45.8993 169.143 45.5033 169.95C45.1073 170.742 44.7333 171.703 44.3813 172.832C44.0293 173.947 43.78 174.929 43.6333 175.78C43.604 175.897 43.494 175.993 43.3033 176.066C43.1273 176.139 42.8853 176.176 42.5773 176.176C42.1373 176.176 41.9173 176.125 41.9173 176.022L42.0273 175.56C42.0567 175.443 42.0933 175.289 42.1373 175.098C42.1813 174.893 42.2253 174.651 42.2693 174.372L43.1053 169.752C43.164 169.371 43.1933 169.129 43.1933 169.026C43.1933 168.557 43.0467 168.322 42.7533 168.322C42.4307 168.322 41.998 168.608 41.4553 169.18C41.4407 169.195 41.4187 169.202 41.3893 169.202C41.3453 169.202 41.3087 169.18 41.2793 169.136C41.25 169.077 41.25 169.026 41.2793 168.982C41.7927 168.395 42.2473 167.97 42.6433 167.706C43.054 167.442 43.4647 167.31 43.8753 167.31C44.2127 167.31 44.4547 167.413 44.6013 167.618C44.7627 167.809 44.8433 168.109 44.8433 168.52C44.8433 168.769 44.8067 169.114 44.7333 169.554L44.2933 172.062C44.7187 170.654 45.188 169.51 45.7013 168.63C46.2147 167.75 46.7573 167.31 47.3293 167.31ZM51.6415 176.308C50.7028 176.308 49.9768 176 49.4635 175.384C48.9648 174.768 48.7155 173.969 48.7155 172.986C48.7155 172.575 48.7595 172.165 48.8475 171.754C49.0088 170.889 49.3168 170.111 49.7715 169.422C50.2408 168.733 50.8128 168.197 51.4875 167.816C52.1622 167.42 52.8735 167.222 53.6215 167.222C54.5748 167.222 55.3082 167.523 55.8215 168.124C56.3348 168.725 56.5915 169.517 56.5915 170.5C56.5915 170.896 56.5475 171.314 56.4595 171.754C56.2835 172.693 55.9388 173.507 55.4255 174.196C54.9268 174.885 54.3402 175.413 53.6655 175.78C53.0055 176.132 52.3308 176.308 51.6415 176.308ZM52.3895 175.758C52.9028 175.758 53.3575 175.487 53.7535 174.944C54.1495 174.401 54.4355 173.661 54.6115 172.722C54.7142 172.223 54.7655 171.695 54.7655 171.138C54.7655 170.17 54.5968 169.363 54.2595 168.718C53.9368 168.073 53.4895 167.75 52.9175 167.75C52.4188 167.75 51.9642 168.014 51.5535 168.542C51.1575 169.07 50.8715 169.825 50.6955 170.808C50.5928 171.424 50.5415 171.945 50.5415 172.37C50.5415 173.353 50.7028 174.167 51.0255 174.812C51.3628 175.443 51.8175 175.758 52.3895 175.758ZM63.3735 167.354C64.1068 167.354 64.6642 167.552 65.0455 167.948C65.4415 168.344 65.6395 168.916 65.6395 169.664C65.6395 169.913 65.6175 170.17 65.5735 170.434C65.4268 171.417 65.0822 172.341 64.5395 173.206C64.0115 174.057 63.3662 174.739 62.6035 175.252C61.8555 175.765 61.0855 176.022 60.2935 176.022C60.0002 176.022 59.6628 176.007 59.2815 175.978L58.5775 179.916C58.5335 180.18 58.5115 180.393 58.5115 180.554C58.5115 180.789 58.5628 180.957 58.6655 181.06C58.7828 181.163 58.9662 181.214 59.2155 181.214C59.2742 181.214 59.4355 181.199 59.6995 181.17C59.7582 181.155 59.7948 181.185 59.8095 181.258C59.8242 181.346 59.8022 181.397 59.7435 181.412L55.6955 182.05C55.6515 182.065 55.6222 182.028 55.6075 181.94C55.5782 181.852 55.5928 181.801 55.6515 181.786C55.9595 181.727 56.1868 181.647 56.3335 181.544C56.4802 181.456 56.5902 181.309 56.6635 181.104C56.7368 180.899 56.8175 180.554 56.9055 180.07L58.7755 169.554C58.2622 169.906 57.9028 170.155 57.6975 170.302C57.6828 170.317 57.6608 170.324 57.6315 170.324C57.5875 170.324 57.5508 170.295 57.5215 170.236C57.4922 170.177 57.4995 170.133 57.5435 170.104C57.8368 169.855 58.2768 169.51 58.8635 169.07L59.1495 167.508C59.1495 167.479 59.2962 167.369 59.5895 167.178C59.8828 166.973 60.1468 166.767 60.3815 166.562C60.6162 166.342 60.7628 166.1 60.8215 165.836C60.8362 165.777 60.8802 165.755 60.9535 165.77C61.0415 165.785 61.0782 165.821 61.0635 165.88L60.6895 168.014C61.6428 167.574 62.5375 167.354 63.3735 167.354ZM63.8355 171.16C63.8648 170.867 63.8795 170.647 63.8795 170.5C63.8795 169.063 63.2708 168.344 62.0535 168.344C61.5548 168.344 61.0635 168.439 60.5795 168.63L59.4355 175.054C59.9195 175.274 60.4548 175.384 61.0415 175.384C61.8188 175.384 62.4348 175.003 62.8895 174.24C63.3588 173.477 63.6742 172.451 63.8355 171.16ZM68.373 176.242C67.7717 176.242 67.251 176.11 66.811 175.846C66.3857 175.582 66.173 175.259 66.173 174.878C66.173 174.57 66.261 174.335 66.437 174.174C66.613 174.013 66.8257 173.932 67.075 173.932C67.2803 173.932 67.449 173.998 67.581 174.13C67.7277 174.262 67.867 174.445 67.999 174.68C68.1897 174.988 68.373 175.215 68.549 175.362C68.725 175.509 68.9743 175.582 69.297 175.582C69.605 175.582 69.8323 175.501 69.979 175.34C70.1403 175.164 70.2503 174.9 70.309 174.548C70.3237 174.489 70.331 174.401 70.331 174.284C70.331 173.844 70.199 173.47 69.935 173.162C69.6857 172.839 69.3117 172.487 68.813 172.106C68.2997 171.681 67.9183 171.314 67.669 171.006C67.4197 170.698 67.295 170.324 67.295 169.884C67.295 169.444 67.4343 169.026 67.713 168.63C68.0063 168.234 68.395 167.911 68.879 167.662C69.3777 167.413 69.913 167.288 70.485 167.288C71.1303 167.288 71.6437 167.405 72.025 167.64C72.4063 167.875 72.575 168.175 72.531 168.542C72.487 168.791 72.377 168.989 72.201 169.136C72.025 169.268 71.8343 169.334 71.629 169.334C71.365 169.334 71.167 169.275 71.035 169.158C70.903 169.041 70.771 168.857 70.639 168.608C70.507 168.359 70.3677 168.175 70.221 168.058C70.089 167.926 69.8837 167.86 69.605 167.86C69.341 167.86 69.1283 167.933 68.967 168.08C68.8057 168.212 68.7103 168.388 68.681 168.608C68.6663 168.667 68.659 168.755 68.659 168.872C68.659 169.253 68.7837 169.598 69.033 169.906C69.2823 170.214 69.649 170.566 70.133 170.962C70.661 171.417 71.057 171.813 71.321 172.15C71.585 172.473 71.717 172.861 71.717 173.316C71.717 173.727 71.5703 174.167 71.277 174.636C70.9837 175.091 70.5803 175.472 70.067 175.78C69.5683 176.088 69.0037 176.242 68.373 176.242ZM85.6413 167.222C86.2133 167.222 86.6606 167.435 86.9833 167.86C87.3206 168.285 87.4893 168.857 87.4893 169.576C87.4893 169.767 87.46 170.067 87.4013 170.478C87.1813 171.666 86.7266 172.7 86.0373 173.58C85.3626 174.46 84.5926 175.135 83.7273 175.604C82.8766 176.059 82.092 176.286 81.3733 176.286C80.64 176.286 80.0606 176.132 79.6353 175.824C79.21 175.516 78.9973 175.091 78.9973 174.548C78.9973 174.46 79.012 174.328 79.0413 174.152L81.1313 162.822C81.1753 162.573 81.1973 162.36 81.1973 162.184C81.1973 161.773 81.0506 161.568 80.7573 161.568C80.552 161.568 80.2293 161.671 79.7893 161.876H79.7453C79.6866 161.876 79.65 161.839 79.6353 161.766C79.6206 161.693 79.6426 161.649 79.7013 161.634L82.9133 160.05H82.9573C83.016 160.05 83.0673 160.072 83.1113 160.116C83.17 160.16 83.192 160.197 83.1773 160.226L81.2413 171.006C81.74 169.891 82.3853 168.982 83.1773 168.278C83.984 167.574 84.8053 167.222 85.6413 167.222ZM85.4653 171.16C85.5533 170.764 85.5973 170.405 85.5973 170.082C85.5973 169.613 85.5093 169.239 85.3333 168.96C85.1573 168.681 84.886 168.542 84.5193 168.542C83.6686 168.542 82.8913 169.033 82.1873 170.016C81.498 170.999 81.0066 172.289 80.7133 173.888C80.6986 173.961 80.6913 174.071 80.6913 174.218C80.6913 174.658 80.8306 175.017 81.1093 175.296C81.4026 175.56 81.7693 175.692 82.2093 175.692C82.664 175.692 83.1113 175.516 83.5513 175.164C83.9913 174.797 84.38 174.269 84.7173 173.58C85.0693 172.891 85.3186 172.084 85.4653 171.16ZM95.9222 167.288C96.2595 167.288 96.5162 167.413 96.6922 167.662C96.8828 167.911 96.9782 168.263 96.9782 168.718C96.9782 169.847 96.3915 171.512 95.2182 173.712C94.0448 175.897 92.7028 177.855 91.1922 179.586C89.6815 181.317 88.4422 182.182 87.4742 182.182C86.6968 182.182 86.3082 181.867 86.3082 181.236C86.3082 181.133 86.3155 181.053 86.3302 180.994C86.3888 180.715 86.5208 180.503 86.7262 180.356C86.9168 180.209 87.1662 180.136 87.4742 180.136C87.7088 180.136 87.9948 180.187 88.3322 180.29C88.6842 180.378 88.9482 180.422 89.1242 180.422C89.4175 180.422 89.7182 180.319 90.0262 180.114C90.4368 179.835 90.9502 179.278 91.5662 178.442V177.43C91.5662 174.585 91.3608 172.377 90.9502 170.808C90.5395 169.239 89.9748 168.454 89.2562 168.454C89.0655 168.454 88.8748 168.52 88.6842 168.652C88.5082 168.784 88.3542 168.96 88.2222 169.18C88.2075 169.224 88.1635 169.246 88.0902 169.246C87.9875 169.246 87.9435 169.202 87.9582 169.114C88.2222 168.571 88.5815 168.139 89.0362 167.816C89.4908 167.479 89.9308 167.31 90.3562 167.31C90.9282 167.31 91.4268 167.647 91.8522 168.322C92.2775 168.982 92.6002 169.891 92.8202 171.05C93.0402 172.209 93.1502 173.507 93.1502 174.944C93.1502 175.501 93.1428 175.927 93.1282 176.22C93.7148 175.296 94.2282 174.409 94.6682 173.558C95.1082 172.707 95.3795 172.069 95.4822 171.644C95.5555 171.365 95.5922 171.065 95.5922 170.742C95.5922 170.434 95.5482 170.17 95.4602 169.95C95.3868 169.73 95.2768 169.495 95.1302 169.246C95.0128 169.055 94.9248 168.887 94.8662 168.74C94.8222 168.593 94.8002 168.439 94.8002 168.278C94.8002 167.985 94.9028 167.75 95.1082 167.574C95.3135 167.383 95.5848 167.288 95.9222 167.288ZM106.341 176.308C105.402 176.308 104.676 176 104.163 175.384C103.664 174.768 103.415 173.969 103.415 172.986C103.415 172.575 103.459 172.165 103.547 171.754C103.708 170.889 104.016 170.111 104.471 169.422C104.94 168.733 105.512 168.197 106.187 167.816C106.861 167.42 107.573 167.222 108.321 167.222C109.274 167.222 110.007 167.523 110.521 168.124C111.034 168.725 111.291 169.517 111.291 170.5C111.291 170.896 111.247 171.314 111.159 171.754C110.983 172.693 110.638 173.507 110.125 174.196C109.626 174.885 109.039 175.413 108.365 175.78C107.705 176.132 107.03 176.308 106.341 176.308ZM107.089 175.758C107.602 175.758 108.057 175.487 108.453 174.944C108.849 174.401 109.135 173.661 109.311 172.722C109.413 172.223 109.465 171.695 109.465 171.138C109.465 170.17 109.296 169.363 108.959 168.718C108.636 168.073 108.189 167.75 107.617 167.75C107.118 167.75 106.663 168.014 106.253 168.542C105.857 169.07 105.571 169.825 105.395 170.808C105.292 171.424 105.241 171.945 105.241 172.37C105.241 173.353 105.402 174.167 105.725 174.812C106.062 175.443 106.517 175.758 107.089 175.758ZM121.571 174.306C121.6 174.277 121.622 174.262 121.637 174.262C121.681 174.262 121.717 174.291 121.747 174.35C121.791 174.394 121.791 174.438 121.747 174.482C121.248 175.069 120.808 175.501 120.427 175.78C120.045 176.059 119.649 176.198 119.239 176.198C118.916 176.198 118.674 176.103 118.513 175.912C118.366 175.721 118.293 175.435 118.293 175.054C118.293 174.819 118.329 174.482 118.403 174.042L119.041 170.544C119.114 170.192 119.151 169.84 119.151 169.488C119.151 168.725 118.894 168.344 118.381 168.344C117.941 168.344 117.486 168.623 117.017 169.18C116.562 169.737 116.129 170.551 115.719 171.622C115.308 172.678 114.971 173.947 114.707 175.428L114.641 175.78C114.567 176.044 114.215 176.176 113.585 176.176C113.145 176.176 112.925 176.125 112.925 176.022L113.013 175.538C113.159 174.849 113.24 174.46 113.255 174.372L114.157 169.466C114.186 169.334 114.201 169.165 114.201 168.96C114.201 168.535 114.069 168.322 113.805 168.322C113.482 168.322 113.035 168.63 112.463 169.246C112.448 169.261 112.426 169.268 112.397 169.268C112.353 169.268 112.309 169.246 112.265 169.202C112.235 169.143 112.243 169.092 112.287 169.048C112.8 168.447 113.262 168.007 113.673 167.728C114.098 167.449 114.516 167.31 114.927 167.31C115.249 167.31 115.484 167.405 115.631 167.596C115.792 167.772 115.873 168.051 115.873 168.432C115.873 168.549 115.843 168.828 115.785 169.268L115.389 171.468C115.902 170.119 116.503 169.077 117.193 168.344C117.882 167.596 118.608 167.222 119.371 167.222C120.353 167.222 120.845 167.816 120.845 169.004C120.845 169.283 120.808 169.657 120.735 170.126L120.009 174.042C119.965 174.262 119.943 174.445 119.943 174.592C119.943 174.973 120.067 175.164 120.317 175.164C120.581 175.164 120.999 174.878 121.571 174.306ZM128.183 167.222C128.711 167.222 129.121 167.317 129.415 167.508C129.708 167.684 129.855 167.941 129.855 168.278C129.855 168.953 129.356 169.576 128.359 170.148C127.376 170.72 126.188 171.131 124.795 171.38C124.736 171.849 124.707 172.194 124.707 172.414C124.707 173.309 124.897 174.027 125.279 174.57C125.66 175.098 126.21 175.362 126.929 175.362C127.266 175.362 127.618 175.311 127.985 175.208C128.351 175.091 128.689 174.915 128.997 174.68H129.019C129.063 174.68 129.099 174.702 129.129 174.746C129.173 174.79 129.18 174.827 129.151 174.856C128.139 175.795 127.017 176.264 125.785 176.264C124.817 176.264 124.083 175.963 123.585 175.362C123.086 174.761 122.837 173.991 122.837 173.052C122.837 172.715 122.873 172.341 122.947 171.93C123.093 171.153 123.409 170.405 123.893 169.686C124.391 168.953 125.015 168.359 125.763 167.904C126.525 167.449 127.332 167.222 128.183 167.222ZM127.875 168.872C127.904 168.725 127.919 168.63 127.919 168.586C127.919 168.337 127.838 168.146 127.677 168.014C127.515 167.882 127.317 167.816 127.083 167.816C126.54 167.816 126.071 168.117 125.675 168.718C125.293 169.319 125.015 170.097 124.839 171.05C126.687 170.639 127.699 169.913 127.875 168.872ZM131.693 176.198C131.326 176.198 131.04 176.095 130.835 175.89C130.63 175.685 130.527 175.406 130.527 175.054C130.527 174.717 130.63 174.453 130.835 174.262C131.04 174.057 131.326 173.954 131.693 173.954C132.045 173.954 132.316 174.057 132.507 174.262C132.698 174.453 132.793 174.717 132.793 175.054C132.793 175.406 132.698 175.685 132.507 175.89C132.316 176.095 132.045 176.198 131.693 176.198Z" fill="#22262A"/>
</g>
<rect x="1" y="1" width="331" height="211" rx="30" stroke="#22262A"/>
<path d="M291.54 231.4L296.989 211.88L288.324 209.558L291.54 231.4Z" fill="url(#paint1_linear_1251_22696)"/>
<path d="M321.649 115.772L313.493 113.587L295.891 191.917L300.683 193.201L321.649 115.772Z" fill="url(#paint2_linear_1251_22696)"/>
<path d="M310.267 195.769L337.961 120.143L329.805 117.958L305.475 194.485L310.267 195.769Z" fill="url(#paint3_linear_1251_22696)"/>
<path d="M291.54 231.4L314.321 216.524L305.655 214.202L291.54 231.4Z" fill="url(#paint4_linear_1251_22696)"/>
<path d="M329.805 117.958L321.649 115.772L300.683 193.201L305.475 194.485L329.805 117.958Z" fill="url(#paint5_linear_1251_22696)"/>
<path d="M305.336 111.401L291.1 190.633L295.891 191.917L313.493 113.587L305.336 111.401Z" fill="url(#paint6_linear_1251_22696)"/>
<path d="M279.658 207.236L291.54 231.4L288.324 209.558L279.658 207.236Z" fill="url(#paint7_linear_1251_22696)"/>
<path d="M296.989 211.88L291.54 231.4L305.655 214.202L296.989 211.88Z" fill="url(#paint8_linear_1251_22696)"/>
<path d="M291.54 231.4L314.321 216.524L305.655 214.202M291.54 231.4L279.658 207.236L288.324 209.558M291.54 231.4L296.989 211.88M291.54 231.4L305.655 214.202M291.54 231.4L288.324 209.558M321.649 115.772L329.805 117.958M321.649 115.772L313.493 113.587M321.649 115.772L300.683 193.201M329.805 117.958L337.961 120.143L310.267 195.769L305.475 194.485M329.805 117.958L305.475 194.485M313.493 113.587L305.336 111.401L291.1 190.633L295.891 191.917M313.493 113.587L295.891 191.917M300.683 193.201L305.475 194.485M300.683 193.201L295.891 191.917M296.989 211.88L305.655 214.202M296.989 211.88L288.324 209.558" stroke="#22262A" stroke-width="2"/>
<path d="M291.54 231.4L296.989 211.88L288.324 209.558L291.54 231.4Z" fill="#22262A"/>
<path d="M321.649 115.772L313.493 113.587L295.891 191.917L300.683 193.201L321.649 115.772Z" fill="#22262A"/>
<path d="M310.267 195.769L337.961 120.143L329.805 117.958L305.475 194.485L310.267 195.769Z" fill="#22262A"/>
<path d="M291.54 231.4L314.321 216.524L305.655 214.202L291.54 231.4Z" fill="#22262A"/>
<path d="M291.54 231.4L314.321 216.524L305.655 214.202M291.54 231.4L279.658 207.236L288.324 209.558M291.54 231.4L296.989 211.88M291.54 231.4L305.655 214.202M291.54 231.4L288.324 209.558M321.649 115.772L329.805 117.958M321.649 115.772L313.493 113.587M321.649 115.772L300.683 193.201M329.805 117.958L337.961 120.143L310.267 195.769L305.475 194.485M329.805 117.958L305.475 194.485M313.493 113.587L305.336 111.401L291.1 190.633L295.891 191.917M313.493 113.587L295.891 191.917M300.683 193.201L305.475 194.485M300.683 193.201L295.891 191.917M296.989 211.88L305.655 214.202M296.989 211.88L288.324 209.558" stroke="#22262A" stroke-width="2"/>
<defs>
<filter id="filter0_b_1251_22696" x="-49" y="21" width="431" height="241" filterUnits="userSpaceOnUse" color-interpolation-filters="sRGB">
<feFlood flood-opacity="0" result="BackgroundImageFix"/>
<feGaussianBlur in="BackgroundImage" stdDeviation="25"/>
<feComposite in2="SourceAlpha" operator="in" result="effect1_backgroundBlur_1251_22696"/>
<feBlend mode="normal" in="SourceGraphic" in2="effect1_backgroundBlur_1251_22696" result="shape"/>
</filter>
<linearGradient id="paint0_linear_1251_22696" x1="31" y1="27.9079" x2="292.283" y2="63.3164" gradientUnits="userSpaceOnUse">
<stop offset="0.267495" stop-color="#FFC6CE"/>
<stop offset="1" stop-color="#64D6EE"/>
</linearGradient>
<linearGradient id="paint1_linear_1251_22696" x1="298.216" y1="137.976" x2="332.208" y2="147.249" gradientUnits="userSpaceOnUse">
<stop offset="0.267495" stop-color="#FFC6CE"/>
<stop offset="1" stop-color="#64D6EE"/>
</linearGradient>
<linearGradient id="paint2_linear_1251_22696" x1="298.216" y1="137.976" x2="332.208" y2="147.249" gradientUnits="userSpaceOnUse">
<stop offset="0.267495" stop-color="#FFC6CE"/>
<stop offset="1" stop-color="#64D6EE"/>
</linearGradient>
<linearGradient id="paint3_linear_1251_22696" x1="298.216" y1="137.976" x2="332.208" y2="147.249" gradientUnits="userSpaceOnUse">
<stop offset="0.267495" stop-color="#FFC6CE"/>
<stop offset="1" stop-color="#64D6EE"/>
</linearGradient>
<linearGradient id="paint4_linear_1251_22696" x1="298.216" y1="137.976" x2="332.208" y2="147.249" gradientUnits="userSpaceOnUse">
<stop offset="0.267495" stop-color="#FFC6CE"/>
<stop offset="1" stop-color="#64D6EE"/>
</linearGradient>
<linearGradient id="paint5_linear_1251_22696" x1="298.216" y1="137.976" x2="332.208" y2="147.249" gradientUnits="userSpaceOnUse">
<stop offset="0.267495" stop-color="#FFC6CE"/>
<stop offset="1" stop-color="#64D6EE"/>
</linearGradient>
<linearGradient id="paint6_linear_1251_22696" x1="298.216" y1="137.976" x2="332.208" y2="147.249" gradientUnits="userSpaceOnUse">
<stop offset="0.267495" stop-color="#FFC6CE"/>
<stop offset="1" stop-color="#64D6EE"/>
</linearGradient>
<linearGradient id="paint7_linear_1251_22696" x1="298.216" y1="137.976" x2="332.208" y2="147.249" gradientUnits="userSpaceOnUse">
<stop offset="0.267495" stop-color="#FFC6CE"/>
<stop offset="1" stop-color="#64D6EE"/>
</linearGradient>
<linearGradient id="paint8_linear_1251_22696" x1="298.216" y1="137.976" x2="332.208" y2="147.249" gradientUnits="userSpaceOnUse">
<stop offset="0.267495" stop-color="#FFC6CE"/>
<stop offset="1" stop-color="#64D6EE"/>
</linearGradient>
</defs>
</svg>
