<svg width="50" height="50" viewBox="20 25 50 50" fill="none" xmlns="http://www.w3.org/2000/svg">
<g clip-path="url(#clip0_1040_4088)">
<path d="M41.7348 28.0991C43.4255 28.0991 45.1343 28.243 46.861 28.5308C48.6238 28.7826 50.0267 29.1244 51.07 29.5561C51.3937 29.664 51.5916 29.8079 51.6636 29.9878C51.7715 30.1317 51.8434 30.4015 51.8794 30.7972L52.5809 38.2977C52.5809 38.4057 52.491 38.4776 52.3111 38.5136C52.1312 38.5495 52.0053 38.4956 51.9334 38.3517C50.9261 35.4018 49.4871 33.1535 47.6165 31.6066C45.7459 30.0237 43.4975 29.2323 40.8714 29.2323C38.4252 29.2323 36.2308 29.8978 34.2882 31.2289C32.3816 32.5239 30.8707 34.3946 29.7555 36.8408C28.6762 39.287 28.1366 42.1469 28.1366 45.4206C28.1366 48.7302 28.6942 51.644 29.8094 54.1622C30.9606 56.6444 32.5255 58.569 34.504 59.936C36.5186 61.267 38.8209 61.9326 41.411 61.9326C43.8932 61.9326 45.9797 61.267 47.6705 59.936C49.3612 58.569 50.9621 56.3386 52.473 53.2449C52.5089 53.137 52.6169 53.101 52.7967 53.137C52.9766 53.1729 53.0665 53.2449 53.0665 53.3528L52.2571 60.0439C52.1852 60.4756 52.1132 60.7634 52.0413 60.9073C51.9693 61.0152 51.7715 61.1411 51.4477 61.285C48.1381 62.4722 44.7925 63.0657 41.411 63.0657C37.5618 63.0657 34.1083 62.3463 31.0505 60.9073C28.0287 59.4324 25.6544 57.3819 23.9277 54.7558C22.201 52.1297 21.3376 49.1439 21.3376 45.7983C21.3376 42.3808 22.2189 39.341 23.9817 36.6789C25.7804 33.9809 28.2266 31.8764 31.3203 30.3655C34.4501 28.8546 37.9215 28.0991 41.7348 28.0991Z" fill="url(#paint0_linear_1040_4088)"/>
<g clip-path="url(#clip1_1040_4088)" filter="url(#filter0_d_1040_4088)">
<path d="M69.5418 38.2945L33.1849 52.7322C32.0036 53.126 32.1349 54.8323 33.3161 55.226L42.5038 58.1136L46.1789 69.6638C46.4414 70.5826 47.6226 70.8451 48.2789 70.1888L53.6602 65.2012L63.8979 72.6826C64.6854 73.2076 65.7355 72.8138 65.998 71.8951L73.0856 41.4445C73.4793 39.2132 71.5106 37.5069 69.5418 38.2945ZM48.2789 60.3449L47.0976 67.17L44.4726 57.7198L70.0668 40.9195L48.2789 60.3449Z" fill="url(#paint1_linear_1040_4088)"/>
</g>
<g clip-path="url(#clip2_1040_4088)">
<path d="M53.04 54.1618C53.04 53.6862 53.229 53.23 53.5653 52.8937C53.9017 52.5574 54.3578 52.3684 54.8335 52.3684H65.5941C66.0697 52.3684 66.5259 52.5574 66.8622 52.8937C67.1986 53.23 67.3875 53.6862 67.3875 54.1618V61.3356C67.3875 61.8112 67.1986 62.2674 66.8622 62.6037C66.5259 62.9401 66.0697 63.129 65.5941 63.129H63.3523C63.2131 63.129 63.0758 63.1614 62.9513 63.2237C62.8267 63.2859 62.7184 63.3763 62.6349 63.4877L60.9311 65.7591C60.8476 65.8704 60.7393 65.9608 60.6148 66.0231C60.4903 66.0853 60.353 66.1178 60.2138 66.1178C60.0746 66.1178 59.9373 66.0853 59.8127 66.0231C59.6882 65.9608 59.5799 65.8704 59.4964 65.7591L57.7926 63.4877C57.7091 63.3763 57.6008 63.2859 57.4763 63.2237C57.3518 63.1614 57.2145 63.129 57.0753 63.129H54.8335C54.3578 63.129 53.9017 62.9401 53.5653 62.6037C53.229 62.2674 53.04 61.8112 53.04 61.3356V54.1618ZM57.5236 57.7487C57.5236 57.5109 57.4291 57.2828 57.261 57.1146C57.0928 56.9465 56.8647 56.852 56.6269 56.852C56.3891 56.852 56.161 56.9465 55.9928 57.1146C55.8247 57.2828 55.7302 57.5109 55.7302 57.7487C55.7302 57.9865 55.8247 58.2146 55.9928 58.3828C56.161 58.5509 56.3891 58.6454 56.6269 58.6454C56.8647 58.6454 57.0928 58.5509 57.261 58.3828C57.4291 58.2146 57.5236 57.9865 57.5236 57.7487ZM61.1105 57.7487C61.1105 57.5109 61.016 57.2828 60.8478 57.1146C60.6797 56.9465 60.4516 56.852 60.2138 56.852C59.9759 56.852 59.7479 56.9465 59.5797 57.1146C59.4115 57.2828 59.3171 57.5109 59.3171 57.7487C59.3171 57.9865 59.4115 58.2146 59.5797 58.3828C59.7479 58.5509 59.9759 58.6454 60.2138 58.6454C60.4516 58.6454 60.6797 58.5509 60.8478 58.3828C61.016 58.2146 61.1105 57.9865 61.1105 57.7487ZM63.8006 58.6454C64.0385 58.6454 64.2665 58.5509 64.4347 58.3828C64.6029 58.2146 64.6974 57.9865 64.6974 57.7487C64.6974 57.5109 64.6029 57.2828 64.4347 57.1146C64.2665 56.9465 64.0385 56.852 63.8006 56.852C63.5628 56.852 63.3347 56.9465 63.1666 57.1146C62.9984 57.2828 62.9039 57.5109 62.9039 57.7487C62.9039 57.9865 62.9984 58.2146 63.1666 58.3828C63.3347 58.5509 63.5628 58.6454 63.8006 58.6454Z" fill="#22262A"/>
</g>
</g>
<defs>
<filter id="filter0_d_1040_4088" x="29.5912" y="34.7458" width="46.7102" height="46.7102" filterUnits="userSpaceOnUse" color-interpolation-filters="sRGB">
<feFlood flood-opacity="0" result="BackgroundImageFix"/>
<feColorMatrix in="SourceAlpha" type="matrix" values="0 0 0 0 0 0 0 0 0 0 0 0 0 0 0 0 0 0 127 0" result="hardAlpha"/>
<feOffset dy="2.3954"/>
<feGaussianBlur stdDeviation="1.1977"/>
<feComposite in2="hardAlpha" operator="out"/>
<feColorMatrix type="matrix" values="0 0 0 0 0 0 0 0 0 0 0 0 0 0 0 0 0 0 0.25 0"/>
<feBlend mode="normal" in2="BackgroundImageFix" result="effect1_dropShadow_1040_4088"/>
<feBlend mode="normal" in="SourceGraphic" in2="effect1_dropShadow_1040_4088" result="shape"/>
</filter>
<linearGradient id="paint0_linear_1040_4088" x1="6.21728" y1="15.5148" x2="66.775" y2="16.0289" gradientUnits="userSpaceOnUse">
<stop offset="0.267495" stop-color="#FFC6CE"/>
<stop offset="1" stop-color="#64D6EE"/>
</linearGradient>
<linearGradient id="paint1_linear_1040_4088" x1="32.3618" y1="46.1168" x2="72.3839" y2="46.8199" gradientUnits="userSpaceOnUse">
<stop offset="0.267495" stop-color="#FFC6CE"/>
<stop offset="1" stop-color="#64D6EE"/>
</linearGradient>
<clipPath id="clip0_1040_4088">
<rect width="89.8276" height="89.8276" fill="white" transform="translate(0.827637)"/>
</clipPath>
<clipPath id="clip1_1040_4088">
<rect width="41.9195" height="41.9195" fill="white" transform="translate(31.9866 34.7458)"/>
</clipPath>
<clipPath id="clip2_1040_4088">
<rect width="14.3475" height="14.3475" fill="white" transform="translate(53.04 52.3684)"/>
</clipPath>
</defs>
</svg>
