<svg width="60" height="55" viewBox="15 25 60 55" fill="none" xmlns="http://www.w3.org/2000/svg">
<g clip-path="url(#clip0_1040_4084)">
<path d="M55.308 61.7707C55.4878 61.7707 55.5778 61.8786 55.5778 62.0944C55.5778 62.3103 55.4878 62.4182 55.308 62.4182C54.5885 62.4182 53.4733 62.3822 51.9624 62.3103C50.3796 62.2383 49.2464 62.2024 48.5629 62.2024C47.6635 62.2024 46.5663 62.2383 45.2713 62.3103C44.0482 62.3822 43.0769 62.4182 42.3574 62.4182C42.2135 62.4182 42.1415 62.3103 42.1415 62.0944C42.1415 61.8786 42.2135 61.7707 42.3574 61.7707C43.2927 61.7707 43.9582 61.6807 44.3539 61.5009C44.7856 61.285 45.0015 60.9253 45.0015 60.4217C45.0015 59.8101 44.6417 58.7849 43.9222 57.3459L40.2529 50.0612H26.9785L24.8741 54.7558C24.4064 55.799 24.1726 56.7703 24.1726 57.6697C24.1726 58.9647 24.6223 59.972 25.5216 60.6915C26.4569 61.4109 27.698 61.7707 29.2449 61.7707C29.4248 61.7707 29.5147 61.8786 29.5147 62.0944C29.5147 62.3103 29.4248 62.4182 29.2449 62.4182C28.5974 62.4182 27.6621 62.3822 26.4389 62.3103C25.0719 62.2383 23.8848 62.2024 22.8775 62.2024C21.9062 62.2024 20.7371 62.2383 19.3701 62.3103C18.147 62.3822 17.1577 62.4182 16.4022 62.4182C16.2583 62.4182 16.1864 62.3103 16.1864 62.0944C16.1864 61.8786 16.2583 61.7707 16.4022 61.7707C17.4095 61.7707 18.2549 61.5728 18.9384 61.1771C19.6219 60.7454 20.3054 60.008 20.9889 58.9647C21.6724 57.8855 22.4818 56.3027 23.4171 54.2162L35.1266 28.4769C35.1986 28.3689 35.3605 28.315 35.6123 28.315C35.9001 28.315 36.062 28.3689 36.0979 28.4769L49.5881 55.0256C50.8472 57.5797 51.8905 59.3424 52.7179 60.3137C53.5453 61.285 54.4086 61.7707 55.308 61.7707ZM27.68 48.5503H39.4435L33.238 36.2472L27.68 48.5503Z" fill="url(#paint0_linear_1040_4084)"/>
<g clip-path="url(#clip1_1040_4084)" filter="url(#filter0_d_1040_4084)">
<path d="M68.7141 38.2945L32.3572 52.7322C31.176 53.126 31.3072 54.8323 32.4885 55.226L41.6762 58.1136L45.3512 69.6638C45.6137 70.5826 46.795 70.8451 47.4513 70.1888L52.8326 65.2012L63.0703 72.6826C63.8578 73.2076 64.9078 72.8138 65.1703 71.8951L72.258 41.4445C72.6517 39.2132 70.6829 37.5069 68.7141 38.2945ZM47.4513 60.3449L46.27 67.17L43.6449 57.7198L69.2392 40.9195L47.4513 60.3449Z" fill="url(#paint1_linear_1040_4084)"/>
</g>
<path d="M62.6579 53.7057C62.6936 53.5934 62.6837 53.4715 62.6303 53.3664C62.5769 53.2614 62.4842 53.1816 62.3723 53.1443C62.2605 53.1071 62.1385 53.1154 62.0327 53.1674C61.9269 53.2194 61.8459 53.311 61.8072 53.4224L61.3588 54.7669C61.3231 54.8792 61.333 55.0011 61.3864 55.1061C61.4398 55.2112 61.5325 55.291 61.6444 55.3283C61.7562 55.3655 61.8782 55.3572 61.984 55.3052C62.0898 55.2532 62.1708 55.1616 62.2095 55.0502L62.6579 53.7057ZM65.3887 53.6956C65.4726 53.7796 65.5198 53.8936 65.5198 54.0124C65.5198 54.1312 65.4726 54.2452 65.3887 54.3293L63.8941 55.8238C63.8531 55.8678 63.8036 55.9032 63.7486 55.9277C63.6936 55.9522 63.6342 55.9654 63.574 55.9664C63.5138 55.9675 63.454 55.9564 63.3982 55.9339C63.3424 55.9113 63.2917 55.8777 63.2491 55.8352C63.2065 55.7926 63.1729 55.7419 63.1504 55.686C63.1278 55.6302 63.1168 55.5704 63.1178 55.5102C63.1189 55.45 63.1321 55.3906 63.1566 55.3357C63.1811 55.2807 63.2164 55.2312 63.2605 55.1901L64.755 53.6956C64.8391 53.6116 64.953 53.5645 65.0718 53.5645C65.1906 53.5645 65.3046 53.6116 65.3887 53.6956ZM60.0622 54.6043C59.9079 54.4391 59.7157 54.314 59.5023 54.2399C59.2888 54.1657 59.0604 54.1448 58.837 54.1788C58.6136 54.2129 58.4018 54.3009 58.2201 54.4352C58.0384 54.5695 57.8921 54.7462 57.7941 54.9498L54.2682 62.267C54.1689 62.473 54.1377 62.7053 54.1793 62.9301C54.2209 63.155 54.3331 63.3608 54.4995 63.5176L55.3598 64.3288C55.514 64.4742 55.7076 64.5708 55.9165 64.6065C56.1254 64.6423 56.3402 64.6156 56.5339 64.5297L57.381 64.1543C57.6423 64.7271 58.1191 65.1737 58.7077 65.3972C59.2963 65.6207 59.9493 65.603 60.525 65.348C61.1007 65.093 61.5525 64.6212 61.7825 64.0351C62.0125 63.449 62.002 62.7958 61.7534 62.2174L63.7979 61.3111C64.0005 61.2213 64.1788 61.0844 64.3177 60.9117C64.4567 60.739 64.5523 60.5356 64.5967 60.3184C64.641 60.1012 64.6328 59.8766 64.5727 59.6633C64.5125 59.4499 64.4023 59.2541 64.251 59.092L60.0622 54.6043ZM60.9332 62.5802C61.0784 62.9398 61.0781 63.3417 60.9325 63.7011C60.7868 64.0605 60.5072 64.3492 60.1527 64.5062C59.7981 64.6633 59.3964 64.6764 59.0324 64.5428C58.6684 64.4092 58.3706 64.1393 58.2018 63.7902L60.9332 62.5802ZM63.7268 57.3004C63.7268 57.1815 63.774 57.0674 63.8581 56.9833C63.9422 56.8993 64.0562 56.852 64.1751 56.852H65.3707C65.4897 56.852 65.6037 56.8993 65.6878 56.9833C65.7719 57.0674 65.8191 57.1815 65.8191 57.3004C65.8191 57.4193 65.7719 57.5333 65.6878 57.6174C65.6037 57.7015 65.4897 57.7487 65.3707 57.7487H64.1751C64.0562 57.7487 63.9422 57.7015 63.8581 57.6174C63.774 57.5333 63.7268 57.4193 63.7268 57.3004Z" fill="#22262A"/>
</g>
<defs>
<filter id="filter0_d_1040_4084" x="28.7635" y="34.7458" width="46.7102" height="46.7102" filterUnits="userSpaceOnUse" color-interpolation-filters="sRGB">
<feFlood flood-opacity="0" result="BackgroundImageFix"/>
<feColorMatrix in="SourceAlpha" type="matrix" values="0 0 0 0 0 0 0 0 0 0 0 0 0 0 0 0 0 0 127 0" result="hardAlpha"/>
<feOffset dy="2.3954"/>
<feGaussianBlur stdDeviation="1.1977"/>
<feComposite in2="hardAlpha" operator="out"/>
<feColorMatrix type="matrix" values="0 0 0 0 0 0 0 0 0 0 0 0 0 0 0 0 0 0 0.25 0"/>
<feBlend mode="normal" in2="BackgroundImageFix" result="effect1_dropShadow_1040_4084"/>
<feBlend mode="normal" in="SourceGraphic" in2="effect1_dropShadow_1040_4084" result="shape"/>
</filter>
<linearGradient id="paint0_linear_1040_4084" x1="3.59326" y1="15.5148" x2="67.0903" y2="16.08" gradientUnits="userSpaceOnUse">
<stop offset="0.267495" stop-color="#FFC6CE"/>
<stop offset="1" stop-color="#64D6EE"/>
</linearGradient>
<linearGradient id="paint1_linear_1040_4084" x1="31.5342" y1="46.1168" x2="71.5562" y2="46.8199" gradientUnits="userSpaceOnUse">
<stop offset="0.267495" stop-color="#FFC6CE"/>
<stop offset="1" stop-color="#64D6EE"/>
</linearGradient>
<clipPath id="clip0_1040_4084">
<rect width="89.8276" height="89.8276" fill="white"/>
</clipPath>
<clipPath id="clip1_1040_4084">
<rect width="41.9195" height="41.9195" fill="white" transform="translate(31.1589 34.7458)"/>
</clipPath>
</defs>
</svg>
