<svg width="364" height="212" viewBox="0 0 364 212" fill="none" xmlns="http://www.w3.org/2000/svg">
<g clip-path="url(#clip0_1251_22649)">
<path d="M32 30.5C32 13.9315 45.4315 0.5 62 0.5H333C349.569 0.5 363 13.9315 363 30.5V70.5H32V30.5Z" fill="#22262A"/>
<path d="M126.238 43.5V25.98H137.086V29.244H130.078V32.964H136.702V36.228H130.078V40.236H137.254V43.5H126.238ZM140.488 43.5V25.98H146.944L153.544 40.308H153.88V25.98H157.576V43.5H151.072L144.472 29.172H144.136V43.5H140.488ZM161.511 43.5V25.98H165.447V32.964H172.839V25.98H176.775V43.5H172.839V36.42H165.447V43.5H161.511ZM179.05 43.5L184.834 25.98H191.194L197.194 43.5H193.114L191.698 39.156H184.378L182.986 43.5H179.05ZM185.41 35.892H190.618L188.434 29.196H187.546L185.41 35.892ZM199.48 43.5V25.98H205.936L212.536 40.308H212.872V25.98H216.568V43.5H210.064L203.464 29.172H203.128V43.5H199.48ZM228.543 43.956C226.959 43.956 225.599 43.684 224.463 43.14C223.327 42.58 222.391 41.852 221.655 40.956C220.935 40.044 220.407 39.068 220.071 38.028C219.735 36.972 219.567 35.948 219.567 34.956V34.428C219.567 33.34 219.743 32.268 220.095 31.212C220.447 30.14 220.983 29.172 221.703 28.308C222.439 27.444 223.359 26.756 224.463 26.244C225.583 25.716 226.903 25.452 228.423 25.452C230.007 25.452 231.399 25.748 232.599 26.34C233.815 26.932 234.783 27.756 235.503 28.812C236.239 29.868 236.679 31.092 236.823 32.484H232.863C232.687 31.444 232.199 30.628 231.399 30.036C230.599 29.428 229.607 29.124 228.423 29.124C226.855 29.124 225.647 29.644 224.799 30.684C223.967 31.708 223.551 33.052 223.551 34.716C223.551 35.82 223.743 36.796 224.127 37.644C224.511 38.476 225.071 39.124 225.807 39.588C226.559 40.052 227.471 40.284 228.543 40.284C229.759 40.284 230.783 39.988 231.615 39.396C232.463 38.804 232.975 37.988 233.151 36.948H237.087C236.943 38.244 236.511 39.42 235.791 40.476C235.087 41.532 234.119 42.38 232.887 43.02C231.671 43.644 230.223 43.956 228.543 43.956ZM239.698 43.5V25.98H250.546V29.244H243.538V32.964H250.162V36.228H243.538V40.236H250.714V43.5H239.698ZM253.948 43.596V25.836H260.452C262.036 25.836 263.42 26.068 264.604 26.532C265.788 26.996 266.772 27.628 267.556 28.428C268.356 29.228 268.956 30.148 269.356 31.188C269.756 32.212 269.956 33.292 269.956 34.428V34.956C269.956 36.028 269.756 37.076 269.356 38.1C268.956 39.124 268.356 40.052 267.556 40.884C266.772 41.716 265.788 42.38 264.604 42.876C263.42 43.356 262.036 43.596 260.452 43.596H253.948ZM260.668 29.508H257.884V39.924H260.668C262.316 39.924 263.612 39.444 264.556 38.484C265.5 37.524 265.972 36.26 265.972 34.692C265.972 33.044 265.5 31.772 264.556 30.876C263.612 29.964 262.316 29.508 260.668 29.508Z" fill="url(#paint0_linear_1251_22649)"/>
<g filter="url(#filter0_b_1251_22649)">
<rect x="32" y="70.5" width="331" height="141" fill="#22262A" fill-opacity="0.01"/>
<path d="M69.92 113.778C70.932 113.91 71.724 114.255 72.296 114.812C72.868 115.369 73.154 116.059 73.154 116.88C73.154 117.115 73.132 117.357 73.088 117.606C72.9413 118.339 72.604 119.014 72.076 119.63C71.5627 120.231 70.91 120.708 70.118 121.06C69.3407 121.412 68.512 121.588 67.632 121.588C67.2213 121.588 66.774 121.566 66.29 121.522C66.0993 121.507 65.872 121.493 65.608 121.478C65.3587 121.463 65.08 121.456 64.772 121.456L63.32 121.478C63.0707 121.493 62.726 121.5 62.286 121.5C62.2567 121.5 62.242 121.456 62.242 121.368C62.242 121.28 62.2567 121.236 62.286 121.236C62.9167 121.236 63.3567 121.133 63.606 120.928C63.8553 120.723 64.0313 120.305 64.134 119.674L65.938 109.488C65.982 109.224 66.004 109.011 66.004 108.85C66.004 108.513 65.9087 108.293 65.718 108.19C65.542 108.073 65.2047 108.014 64.706 108.014C64.662 108.014 64.64 107.97 64.64 107.882C64.6547 107.794 64.6767 107.75 64.706 107.75L65.74 107.772C66.3267 107.801 66.7887 107.816 67.126 107.816C67.39 107.816 67.6247 107.809 67.83 107.794C68.0353 107.779 68.2113 107.765 68.358 107.75C68.7833 107.706 69.1867 107.684 69.568 107.684C70.7413 107.684 71.636 107.897 72.252 108.322C72.8827 108.733 73.198 109.312 73.198 110.06C73.198 110.251 73.176 110.449 73.132 110.654C72.9707 111.343 72.6187 111.959 72.076 112.502C71.5333 113.045 70.8147 113.47 69.92 113.778ZM67.06 113.756L67.874 113.778C68.7687 113.778 69.5093 113.485 70.096 112.898C70.6973 112.297 71.0933 111.534 71.284 110.61C71.3427 110.258 71.372 110.016 71.372 109.884C71.372 109.297 71.1887 108.85 70.822 108.542C70.4553 108.234 69.9127 108.08 69.194 108.08C68.7687 108.08 68.4533 108.19 68.248 108.41C68.0427 108.63 67.8887 109.041 67.786 109.642L67.06 113.756ZM71.042 117.914C71.1153 117.518 71.152 117.181 71.152 116.902C71.152 116.095 70.9027 115.465 70.404 115.01C69.92 114.555 69.1793 114.328 68.182 114.328C67.6833 114.328 67.2727 114.343 66.95 114.372L66.004 119.784C65.96 120.004 65.938 120.195 65.938 120.356C65.938 120.649 66.0333 120.855 66.224 120.972C66.4293 121.089 66.7887 121.148 67.302 121.148C69.37 121.148 70.6167 120.07 71.042 117.914ZM76.0987 121.698C75.7614 121.698 75.5121 121.603 75.3507 121.412C75.2041 121.221 75.1307 120.928 75.1307 120.532C75.1307 120.312 75.1674 119.982 75.2407 119.542L77.3087 108.322C77.3527 108.073 77.3747 107.86 77.3747 107.684C77.3747 107.273 77.2281 107.068 76.9347 107.068C76.7294 107.068 76.4067 107.171 75.9667 107.376H75.9227C75.8641 107.376 75.8274 107.339 75.8127 107.266C75.7981 107.193 75.8201 107.149 75.8787 107.134L79.0907 105.55H79.1347C79.1934 105.55 79.2447 105.572 79.2887 105.616C79.3474 105.66 79.3694 105.697 79.3547 105.726L76.8687 119.542C76.8247 119.762 76.8027 119.953 76.8027 120.114C76.8027 120.481 76.9201 120.664 77.1547 120.664C77.4187 120.664 77.8367 120.378 78.4087 119.806C78.4381 119.777 78.4674 119.762 78.4967 119.762C78.5407 119.762 78.5774 119.791 78.6067 119.85C78.6361 119.894 78.6287 119.938 78.5847 119.982C78.0861 120.569 77.6461 121.001 77.2647 121.28C76.8834 121.559 76.4947 121.698 76.0987 121.698ZM85.2978 112.722C85.8258 112.722 86.2365 112.817 86.5298 113.008C86.8232 113.184 86.9698 113.441 86.9698 113.778C86.9698 114.453 86.4712 115.076 85.4738 115.648C84.4912 116.22 83.3032 116.631 81.9098 116.88C81.8512 117.349 81.8218 117.694 81.8218 117.914C81.8218 118.809 82.0125 119.527 82.3938 120.07C82.7752 120.598 83.3252 120.862 84.0438 120.862C84.3812 120.862 84.7332 120.811 85.0998 120.708C85.4665 120.591 85.8038 120.415 86.1118 120.18H86.1338C86.1778 120.18 86.2145 120.202 86.2438 120.246C86.2878 120.29 86.2952 120.327 86.2658 120.356C85.2538 121.295 84.1318 121.764 82.8998 121.764C81.9318 121.764 81.1985 121.463 80.6998 120.862C80.2012 120.261 79.9518 119.491 79.9518 118.552C79.9518 118.215 79.9885 117.841 80.0618 117.43C80.2085 116.653 80.5238 115.905 81.0078 115.186C81.5065 114.453 82.1298 113.859 82.8778 113.404C83.6405 112.949 84.4472 112.722 85.2978 112.722ZM84.9898 114.372C85.0192 114.225 85.0338 114.13 85.0338 114.086C85.0338 113.837 84.9532 113.646 84.7918 113.514C84.6305 113.382 84.4325 113.316 84.1978 113.316C83.6552 113.316 83.1858 113.617 82.7898 114.218C82.4085 114.819 82.1298 115.597 81.9538 116.55C83.8018 116.139 84.8138 115.413 84.9898 114.372ZM89.4902 121.742C88.8889 121.742 88.3682 121.61 87.9282 121.346C87.5029 121.082 87.2902 120.759 87.2902 120.378C87.2902 120.07 87.3782 119.835 87.5542 119.674C87.7302 119.513 87.9429 119.432 88.1922 119.432C88.3975 119.432 88.5662 119.498 88.6982 119.63C88.8449 119.762 88.9842 119.945 89.1162 120.18C89.3069 120.488 89.4902 120.715 89.6662 120.862C89.8422 121.009 90.0915 121.082 90.4142 121.082C90.7222 121.082 90.9495 121.001 91.0962 120.84C91.2575 120.664 91.3675 120.4 91.4262 120.048C91.4409 119.989 91.4482 119.901 91.4482 119.784C91.4482 119.344 91.3162 118.97 91.0522 118.662C90.8029 118.339 90.4289 117.987 89.9302 117.606C89.4169 117.181 89.0355 116.814 88.7862 116.506C88.5369 116.198 88.4122 115.824 88.4122 115.384C88.4122 114.944 88.5515 114.526 88.8302 114.13C89.1235 113.734 89.5122 113.411 89.9962 113.162C90.4949 112.913 91.0302 112.788 91.6022 112.788C92.2475 112.788 92.7609 112.905 93.1422 113.14C93.5235 113.375 93.6922 113.675 93.6482 114.042C93.6042 114.291 93.4942 114.489 93.3182 114.636C93.1422 114.768 92.9515 114.834 92.7462 114.834C92.4822 114.834 92.2842 114.775 92.1522 114.658C92.0202 114.541 91.8882 114.357 91.7562 114.108C91.6242 113.859 91.4849 113.675 91.3382 113.558C91.2062 113.426 91.0009 113.36 90.7222 113.36C90.4582 113.36 90.2455 113.433 90.0842 113.58C89.9229 113.712 89.8275 113.888 89.7982 114.108C89.7835 114.167 89.7762 114.255 89.7762 114.372C89.7762 114.753 89.9009 115.098 90.1502 115.406C90.3995 115.714 90.7662 116.066 91.2502 116.462C91.7782 116.917 92.1742 117.313 92.4382 117.65C92.7022 117.973 92.8342 118.361 92.8342 118.816C92.8342 119.227 92.6875 119.667 92.3942 120.136C92.1009 120.591 91.6975 120.972 91.1842 121.28C90.6855 121.588 90.1209 121.742 89.4902 121.742ZM96.1933 121.742C95.592 121.742 95.0713 121.61 94.6313 121.346C94.206 121.082 93.9933 120.759 93.9933 120.378C93.9933 120.07 94.0813 119.835 94.2573 119.674C94.4333 119.513 94.646 119.432 94.8953 119.432C95.1007 119.432 95.2693 119.498 95.4013 119.63C95.548 119.762 95.6873 119.945 95.8193 120.18C96.01 120.488 96.1933 120.715 96.3693 120.862C96.5453 121.009 96.7947 121.082 97.1173 121.082C97.4253 121.082 97.6527 121.001 97.7993 120.84C97.9607 120.664 98.0707 120.4 98.1293 120.048C98.144 119.989 98.1513 119.901 98.1513 119.784C98.1513 119.344 98.0193 118.97 97.7553 118.662C97.506 118.339 97.132 117.987 96.6333 117.606C96.12 117.181 95.7387 116.814 95.4893 116.506C95.24 116.198 95.1153 115.824 95.1153 115.384C95.1153 114.944 95.2547 114.526 95.5333 114.13C95.8267 113.734 96.2153 113.411 96.6993 113.162C97.198 112.913 97.7333 112.788 98.3053 112.788C98.9507 112.788 99.464 112.905 99.8453 113.14C100.227 113.375 100.395 113.675 100.351 114.042C100.307 114.291 100.197 114.489 100.021 114.636C99.8453 114.768 99.6547 114.834 99.4493 114.834C99.1853 114.834 98.9873 114.775 98.8553 114.658C98.7233 114.541 98.5913 114.357 98.4593 114.108C98.3273 113.859 98.188 113.675 98.0413 113.558C97.9093 113.426 97.704 113.36 97.4253 113.36C97.1613 113.36 96.9487 113.433 96.7873 113.58C96.626 113.712 96.5307 113.888 96.5013 114.108C96.4867 114.167 96.4793 114.255 96.4793 114.372C96.4793 114.753 96.604 115.098 96.8533 115.406C97.1027 115.714 97.4693 116.066 97.9533 116.462C98.4813 116.917 98.8773 117.313 99.1413 117.65C99.4053 117.973 99.5373 118.361 99.5373 118.816C99.5373 119.227 99.3907 119.667 99.0973 120.136C98.804 120.591 98.4007 120.972 97.8873 121.28C97.3887 121.588 96.824 121.742 96.1933 121.742ZM106.567 112.722C107.095 112.722 107.506 112.817 107.799 113.008C108.093 113.184 108.239 113.441 108.239 113.778C108.239 114.453 107.741 115.076 106.743 115.648C105.761 116.22 104.573 116.631 103.179 116.88C103.121 117.349 103.091 117.694 103.091 117.914C103.091 118.809 103.282 119.527 103.663 120.07C104.045 120.598 104.595 120.862 105.313 120.862C105.651 120.862 106.003 120.811 106.369 120.708C106.736 120.591 107.073 120.415 107.381 120.18H107.403C107.447 120.18 107.484 120.202 107.513 120.246C107.557 120.29 107.565 120.327 107.535 120.356C106.523 121.295 105.401 121.764 104.169 121.764C103.201 121.764 102.468 121.463 101.969 120.862C101.471 120.261 101.221 119.491 101.221 118.552C101.221 118.215 101.258 117.841 101.331 117.43C101.478 116.653 101.793 115.905 102.277 115.186C102.776 114.453 103.399 113.859 104.147 113.404C104.91 112.949 105.717 112.722 106.567 112.722ZM106.259 114.372C106.289 114.225 106.303 114.13 106.303 114.086C106.303 113.837 106.223 113.646 106.061 113.514C105.9 113.382 105.702 113.316 105.467 113.316C104.925 113.316 104.455 113.617 104.059 114.218C103.678 114.819 103.399 115.597 103.223 116.55C105.071 116.139 106.083 115.413 106.259 114.372ZM116.109 119.542C116.065 119.777 116.043 119.967 116.043 120.114C116.043 120.481 116.16 120.664 116.395 120.664C116.541 120.664 116.717 120.598 116.923 120.466C117.128 120.319 117.377 120.099 117.671 119.806C117.7 119.777 117.722 119.762 117.737 119.762C117.781 119.762 117.817 119.791 117.847 119.85C117.891 119.894 117.891 119.938 117.847 119.982C117.333 120.569 116.886 121.001 116.505 121.28C116.123 121.559 115.735 121.698 115.339 121.698C114.693 121.698 114.371 121.302 114.371 120.51C114.371 120.275 114.407 119.953 114.481 119.542L114.789 117.826C114.173 119.073 113.513 120.048 112.809 120.752C112.105 121.441 111.386 121.786 110.653 121.786C110.11 121.786 109.655 121.61 109.289 121.258C108.937 120.891 108.761 120.334 108.761 119.586C108.761 119.322 108.783 119.036 108.827 118.728C109.017 117.687 109.428 116.704 110.059 115.78C110.689 114.856 111.43 114.115 112.281 113.558C113.131 113.001 113.96 112.722 114.767 112.722C115.089 112.722 115.405 112.781 115.713 112.898L116.571 108.322C116.615 108.073 116.637 107.867 116.637 107.706C116.637 107.486 116.6 107.325 116.527 107.222C116.453 107.119 116.336 107.068 116.175 107.068C115.969 107.068 115.647 107.171 115.207 107.376H115.163C115.104 107.376 115.067 107.339 115.053 107.266C115.038 107.193 115.06 107.149 115.119 107.134L118.353 105.55H118.397C118.455 105.55 118.507 105.572 118.551 105.616C118.595 105.66 118.609 105.697 118.595 105.726L116.109 119.542ZM111.621 120.4C112.149 120.4 112.662 120.143 113.161 119.63C113.659 119.102 114.092 118.471 114.459 117.738C114.825 117.005 115.067 116.345 115.185 115.758L115.207 115.626C115.236 115.421 115.251 115.281 115.251 115.208C115.251 114.724 115.104 114.35 114.811 114.086C114.517 113.822 114.136 113.69 113.667 113.69C112.86 113.705 112.185 114.049 111.643 114.724C111.115 115.399 110.741 116.374 110.521 117.65C110.462 118.002 110.433 118.347 110.433 118.684C110.433 119.256 110.535 119.689 110.741 119.982C110.946 120.261 111.239 120.4 111.621 120.4ZM120.646 117.298C120.631 117.371 120.58 117.408 120.492 117.408C120.419 117.393 120.389 117.349 120.404 117.276C120.727 113.345 120.917 110.199 120.976 107.838C120.976 107.779 121.115 107.721 121.394 107.662C121.687 107.603 121.973 107.574 122.252 107.574C122.56 107.574 122.846 107.603 123.11 107.662C123.389 107.721 123.513 107.779 123.484 107.838C122.619 110.097 121.673 113.25 120.646 117.298ZM120.074 121.698C119.707 121.698 119.421 121.595 119.216 121.39C119.011 121.185 118.908 120.906 118.908 120.554C118.908 120.217 119.011 119.953 119.216 119.762C119.421 119.557 119.707 119.454 120.074 119.454C120.426 119.454 120.697 119.557 120.888 119.762C121.079 119.953 121.174 120.217 121.174 120.554C121.174 120.906 121.079 121.185 120.888 121.39C120.697 121.595 120.426 121.698 120.074 121.698ZM141.395 107.75C141.454 107.75 141.483 107.794 141.483 107.882C141.483 107.97 141.454 108.014 141.395 108.014C140.456 108.014 139.474 108.777 138.447 110.302L135.477 114.658L134.575 119.718C134.516 120.099 134.487 120.334 134.487 120.422C134.487 120.745 134.59 120.965 134.795 121.082C135 121.185 135.382 121.236 135.939 121.236C135.983 121.236 136.005 121.28 136.005 121.368C136.005 121.456 135.983 121.5 135.939 121.5C135.499 121.5 135.154 121.493 134.905 121.478L133.387 121.456L131.847 121.478C131.598 121.493 131.253 121.5 130.813 121.5C130.754 121.5 130.725 121.456 130.725 121.368C130.725 121.28 130.754 121.236 130.813 121.236C131.297 121.236 131.656 121.199 131.891 121.126C132.126 121.053 132.302 120.913 132.419 120.708C132.551 120.488 132.654 120.158 132.727 119.718L133.541 114.878L131.297 109.576C131.062 109.019 130.82 108.623 130.571 108.388C130.322 108.139 130.036 108.014 129.713 108.014C129.654 108.014 129.625 107.97 129.625 107.882C129.625 107.794 129.654 107.75 129.713 107.75L130.637 107.772C131.077 107.801 131.407 107.816 131.627 107.816C131.994 107.816 132.5 107.801 133.145 107.772L134.157 107.75C134.201 107.75 134.223 107.787 134.223 107.86C134.223 107.963 134.194 108.014 134.135 108.014C133.754 108.014 133.475 108.051 133.299 108.124C133.138 108.197 133.057 108.315 133.057 108.476C133.057 108.579 133.094 108.718 133.167 108.894L135.301 114.064L138.029 109.95C138.322 109.495 138.469 109.114 138.469 108.806C138.469 108.557 138.381 108.366 138.205 108.234C138.029 108.087 137.787 108.014 137.479 108.014C137.42 108.014 137.391 107.97 137.391 107.882C137.391 107.794 137.42 107.75 137.479 107.75L138.491 107.772C139.078 107.801 139.554 107.816 139.921 107.816C140.141 107.816 140.398 107.801 140.691 107.772L141.395 107.75ZM141.079 121.808C140.14 121.808 139.414 121.5 138.901 120.884C138.402 120.268 138.153 119.469 138.153 118.486C138.153 118.075 138.197 117.665 138.285 117.254C138.446 116.389 138.754 115.611 139.209 114.922C139.678 114.233 140.25 113.697 140.925 113.316C141.6 112.92 142.311 112.722 143.059 112.722C144.012 112.722 144.746 113.023 145.259 113.624C145.772 114.225 146.029 115.017 146.029 116C146.029 116.396 145.985 116.814 145.897 117.254C145.721 118.193 145.376 119.007 144.863 119.696C144.364 120.385 143.778 120.913 143.103 121.28C142.443 121.632 141.768 121.808 141.079 121.808ZM141.827 121.258C142.34 121.258 142.795 120.987 143.191 120.444C143.587 119.901 143.873 119.161 144.049 118.222C144.152 117.723 144.203 117.195 144.203 116.638C144.203 115.67 144.034 114.863 143.697 114.218C143.374 113.573 142.927 113.25 142.355 113.25C141.856 113.25 141.402 113.514 140.991 114.042C140.595 114.57 140.309 115.325 140.133 116.308C140.03 116.924 139.979 117.445 139.979 117.87C139.979 118.853 140.14 119.667 140.463 120.312C140.8 120.943 141.255 121.258 141.827 121.258ZM156.287 119.762C156.302 119.747 156.324 119.74 156.353 119.74C156.397 119.74 156.434 119.769 156.463 119.828C156.492 119.872 156.492 119.916 156.463 119.96C155.935 120.561 155.458 121.001 155.033 121.28C154.622 121.559 154.212 121.698 153.801 121.698C153.478 121.698 153.244 121.61 153.097 121.434C152.95 121.258 152.877 120.979 152.877 120.598C152.877 120.319 152.906 120.033 152.965 119.74L153.339 117.518C152.826 118.867 152.224 119.916 151.535 120.664C150.86 121.412 150.142 121.786 149.379 121.786C148.382 121.786 147.883 121.199 147.883 120.026C147.883 119.63 147.92 119.249 147.993 118.882L148.785 114.966C148.829 114.746 148.851 114.563 148.851 114.416C148.851 114.035 148.726 113.844 148.477 113.844C148.33 113.844 148.154 113.917 147.949 114.064C147.744 114.211 147.502 114.423 147.223 114.702C147.194 114.731 147.164 114.746 147.135 114.746C147.091 114.746 147.054 114.724 147.025 114.68C146.996 114.621 147.003 114.57 147.047 114.526C147.56 113.925 148 113.492 148.367 113.228C148.748 112.949 149.137 112.81 149.533 112.81C150.178 112.81 150.501 113.206 150.501 113.998C150.501 114.233 150.464 114.555 150.391 114.966L149.687 118.464C149.599 118.875 149.555 119.227 149.555 119.52C149.555 120.283 149.819 120.664 150.347 120.664C150.787 120.664 151.242 120.378 151.711 119.806C152.18 119.234 152.62 118.398 153.031 117.298C153.456 116.198 153.801 114.893 154.065 113.382L154.087 113.228C154.16 112.964 154.512 112.832 155.143 112.832C155.583 112.832 155.803 112.883 155.803 112.986L155.715 113.47C155.568 114.159 155.488 114.548 155.473 114.636L154.571 119.542C154.542 119.674 154.527 119.843 154.527 120.048C154.527 120.473 154.659 120.686 154.923 120.686C155.246 120.686 155.7 120.378 156.287 119.762ZM163.386 112.81C163.738 112.81 164.075 112.942 164.398 113.206C164.721 113.47 164.853 113.771 164.794 114.108C164.765 114.313 164.669 114.504 164.508 114.68C164.347 114.841 164.149 114.922 163.914 114.922C163.65 114.922 163.386 114.79 163.122 114.526C163.034 114.453 162.946 114.387 162.858 114.328C162.77 114.269 162.675 114.24 162.572 114.24C162.293 114.24 161.956 114.643 161.56 115.45C161.164 116.242 160.79 117.203 160.438 118.332C160.086 119.447 159.837 120.429 159.69 121.28C159.661 121.397 159.551 121.493 159.36 121.566C159.184 121.639 158.942 121.676 158.634 121.676C158.194 121.676 157.974 121.625 157.974 121.522L158.084 121.06C158.113 120.943 158.15 120.789 158.194 120.598C158.238 120.393 158.282 120.151 158.326 119.872L159.162 115.252C159.221 114.871 159.25 114.629 159.25 114.526C159.25 114.057 159.103 113.822 158.81 113.822C158.487 113.822 158.055 114.108 157.512 114.68C157.497 114.695 157.475 114.702 157.446 114.702C157.402 114.702 157.365 114.68 157.336 114.636C157.307 114.577 157.307 114.526 157.336 114.482C157.849 113.895 158.304 113.47 158.7 113.206C159.111 112.942 159.521 112.81 159.932 112.81C160.269 112.81 160.511 112.913 160.658 113.118C160.819 113.309 160.9 113.609 160.9 114.02C160.9 114.269 160.863 114.614 160.79 115.054L160.35 117.562C160.775 116.154 161.245 115.01 161.758 114.13C162.271 113.25 162.814 112.81 163.386 112.81ZM185.231 107.75C185.26 107.75 185.275 107.794 185.275 107.882C185.275 107.97 185.26 108.014 185.231 108.014C184.688 108.014 184.226 108.212 183.845 108.608C183.478 108.989 183.229 109.532 183.097 110.236L181.073 121.676C181.073 121.72 181.036 121.749 180.963 121.764C180.904 121.793 180.838 121.808 180.765 121.808C180.648 121.808 180.567 121.779 180.523 121.72L174.143 109.862L172.515 119.014C172.471 119.249 172.449 119.476 172.449 119.696C172.449 120.723 172.918 121.236 173.857 121.236C173.886 121.236 173.901 121.28 173.901 121.368C173.901 121.456 173.886 121.5 173.857 121.5C173.505 121.5 173.234 121.493 173.043 121.478L171.855 121.456L170.777 121.478C170.557 121.493 170.249 121.5 169.853 121.5C169.809 121.5 169.787 121.456 169.787 121.368C169.787 121.28 169.809 121.236 169.853 121.236C170.396 121.236 170.85 121.045 171.217 120.664C171.598 120.283 171.848 119.733 171.965 119.014L173.747 109.136C173.483 108.725 173.226 108.439 172.977 108.278C172.728 108.102 172.456 108.014 172.163 108.014C172.119 108.014 172.097 107.97 172.097 107.882C172.097 107.794 172.119 107.75 172.163 107.75L173.087 107.772C173.292 107.787 173.571 107.794 173.923 107.794C174.231 107.794 174.495 107.787 174.715 107.772C174.935 107.757 175.089 107.75 175.177 107.75C175.265 107.75 175.331 107.779 175.375 107.838C175.419 107.882 175.47 107.985 175.529 108.146C175.602 108.337 175.72 108.586 175.881 108.894L181.051 118.508L182.547 110.236C182.591 109.972 182.613 109.737 182.613 109.532C182.613 109.033 182.496 108.659 182.261 108.41C182.026 108.146 181.682 108.014 181.227 108.014C181.183 108.014 181.161 107.97 181.161 107.882C181.161 107.794 181.183 107.75 181.227 107.75L181.997 107.772C182.466 107.801 182.87 107.816 183.207 107.816C183.456 107.816 183.83 107.801 184.329 107.772L185.231 107.75ZM195.446 107.75C195.563 107.75 195.607 107.816 195.578 107.948C195.343 109.459 195.196 110.419 195.138 110.83C195.123 110.874 195.072 110.896 194.984 110.896C194.896 110.881 194.859 110.852 194.874 110.808C194.844 110.001 194.61 109.363 194.17 108.894C193.73 108.41 193.143 108.168 192.41 108.168H191.552C191.112 108.168 190.789 108.205 190.584 108.278C190.378 108.337 190.224 108.461 190.122 108.652C190.034 108.828 189.953 109.129 189.88 109.554L189.044 114.328H191.332C191.977 114.328 192.461 114.203 192.784 113.954C193.121 113.69 193.348 113.265 193.466 112.678C193.466 112.634 193.51 112.612 193.598 112.612C193.627 112.612 193.656 112.627 193.686 112.656C193.73 112.671 193.744 112.693 193.73 112.722C193.671 113.162 193.583 113.631 193.466 114.13L193.378 114.614L193.048 116.792C193.033 116.851 192.982 116.88 192.894 116.88C192.806 116.88 192.769 116.843 192.784 116.77C192.813 116.535 192.828 116.367 192.828 116.264C192.828 115.355 192.278 114.9 191.178 114.9H188.934L188.098 119.63C188.054 119.865 188.032 120.07 188.032 120.246C188.032 120.642 188.171 120.906 188.45 121.038C188.728 121.17 189.256 121.236 190.034 121.236C190.063 121.236 190.078 121.28 190.078 121.368C190.078 121.456 190.063 121.5 190.034 121.5C189.682 121.5 189.381 121.493 189.132 121.478L186.822 121.456L185.48 121.478C185.245 121.493 184.915 121.5 184.49 121.5C184.46 121.5 184.446 121.456 184.446 121.368C184.446 121.28 184.46 121.236 184.49 121.236C184.93 121.236 185.252 121.199 185.458 121.126C185.678 121.053 185.839 120.913 185.942 120.708C186.059 120.488 186.154 120.158 186.228 119.718L188.032 109.532C188.09 109.151 188.12 108.916 188.12 108.828C188.12 108.505 188.024 108.293 187.834 108.19C187.658 108.073 187.335 108.014 186.866 108.014C186.822 108.014 186.8 107.97 186.8 107.882C186.8 107.794 186.822 107.75 186.866 107.75H195.446ZM197.544 121.5C197.5 121.5 197.478 121.456 197.478 121.368C197.478 121.28 197.5 121.236 197.544 121.236C198.072 121.236 198.468 121.199 198.732 121.126C198.996 121.053 199.187 120.913 199.304 120.708C199.436 120.488 199.546 120.158 199.634 119.718L201.416 109.532C201.46 109.268 201.482 109.048 201.482 108.872C201.482 108.608 201.416 108.432 201.284 108.344C201.152 108.256 200.917 108.212 200.58 108.212H200.228C199.465 108.212 198.761 108.52 198.116 109.136C197.471 109.752 197.001 110.559 196.708 111.556C196.693 111.6 196.642 111.615 196.554 111.6C196.481 111.585 196.451 111.556 196.466 111.512C196.583 111.131 196.752 110.463 196.972 109.51C197.207 108.542 197.375 107.794 197.478 107.266C197.493 107.222 197.544 107.207 197.632 107.222C197.72 107.222 197.757 107.244 197.742 107.288C197.698 107.596 197.984 107.75 198.6 107.75C199.685 107.794 201.027 107.816 202.626 107.816C203.374 107.816 204.203 107.801 205.112 107.772L206.498 107.75C206.938 107.75 207.268 107.713 207.488 107.64C207.708 107.567 207.862 107.42 207.95 107.2C207.979 107.156 208.031 107.141 208.104 107.156C208.177 107.156 208.207 107.185 208.192 107.244C208.06 107.699 207.884 108.432 207.664 109.444C207.444 110.456 207.312 111.145 207.268 111.512C207.253 111.571 207.202 111.6 207.114 111.6C207.026 111.585 206.989 111.549 207.004 111.49C207.063 111.079 207.092 110.793 207.092 110.632C207.092 109.884 206.894 109.297 206.498 108.872C206.117 108.432 205.574 108.212 204.87 108.212H204.518C204.078 108.212 203.785 108.3 203.638 108.476C203.491 108.652 203.374 109.019 203.286 109.576L201.504 119.718C201.445 120.07 201.416 120.297 201.416 120.4C201.416 120.737 201.533 120.965 201.768 121.082C202.003 121.185 202.443 121.236 203.088 121.236C203.117 121.236 203.132 121.28 203.132 121.368C203.132 121.456 203.117 121.5 203.088 121.5C202.604 121.5 202.223 121.493 201.944 121.478L200.294 121.456L198.71 121.478C198.417 121.493 198.028 121.5 197.544 121.5ZM221.482 119.806C221.512 119.777 221.541 119.762 221.57 119.762C221.614 119.762 221.651 119.791 221.68 119.85C221.71 119.894 221.702 119.938 221.658 119.982C221.16 120.569 220.72 121.001 220.338 121.28C219.957 121.559 219.561 121.698 219.15 121.698C218.828 121.698 218.586 121.603 218.424 121.412C218.278 121.221 218.204 120.935 218.204 120.554C218.204 120.319 218.241 119.982 218.314 119.542L218.952 116.044C219.026 115.692 219.062 115.34 219.062 114.988C219.062 114.225 218.806 113.844 218.292 113.844C217.867 113.844 217.42 114.115 216.95 114.658C216.496 115.201 216.063 116 215.652 117.056C215.242 118.097 214.904 119.337 214.64 120.774L214.552 121.28C214.479 121.544 214.127 121.676 213.496 121.676C213.056 121.676 212.836 121.625 212.836 121.522L212.924 121.038C213.071 120.349 213.152 119.96 213.166 119.872L215.3 108.322C215.344 108.073 215.366 107.867 215.366 107.706C215.366 107.486 215.33 107.325 215.256 107.222C215.183 107.119 215.066 107.068 214.904 107.068C214.699 107.068 214.376 107.171 213.936 107.376H213.892C213.848 107.376 213.812 107.339 213.782 107.266C213.768 107.193 213.79 107.149 213.848 107.134L217.06 105.55H217.104C217.163 105.55 217.214 105.572 217.258 105.616C217.317 105.66 217.339 105.697 217.324 105.726L215.322 116.924C215.836 115.589 216.43 114.555 217.104 113.822C217.794 113.089 218.52 112.722 219.282 112.722C220.265 112.722 220.756 113.316 220.756 114.504C220.756 114.783 220.72 115.157 220.646 115.626L219.92 119.542C219.876 119.762 219.854 119.945 219.854 120.092C219.854 120.473 219.979 120.664 220.228 120.664C220.492 120.664 220.91 120.378 221.482 119.806ZM231.188 119.806C231.202 119.791 231.224 119.784 231.254 119.784C231.298 119.784 231.334 119.813 231.364 119.872C231.393 119.916 231.393 119.953 231.364 119.982C230.88 120.554 230.44 120.987 230.044 121.28C229.648 121.559 229.266 121.698 228.9 121.698C228.562 121.698 228.313 121.603 228.152 121.412C227.99 121.207 227.91 120.891 227.91 120.466C227.91 120.158 227.939 119.85 227.998 119.542L228.306 117.782C227.719 119.014 227.022 119.989 226.216 120.708C225.424 121.427 224.654 121.786 223.906 121.786C223.451 121.786 223.099 121.654 222.85 121.39C222.6 121.111 222.476 120.693 222.476 120.136C222.476 119.124 222.791 118.039 223.422 116.88C224.067 115.707 224.859 114.724 225.798 113.932C226.751 113.125 227.653 112.722 228.504 112.722C228.782 112.722 229.054 112.773 229.318 112.876C229.596 112.964 229.831 113.103 230.022 113.294C230.315 113.045 230.528 112.795 230.66 112.546C230.689 112.517 230.718 112.502 230.748 112.502C230.792 112.502 230.836 112.517 230.88 112.546C230.924 112.561 230.938 112.575 230.924 112.59L229.648 119.542C229.604 119.762 229.582 119.945 229.582 120.092C229.582 120.268 229.611 120.407 229.67 120.51C229.728 120.613 229.809 120.664 229.912 120.664C230.19 120.664 230.616 120.378 231.188 119.806ZM225.116 120.356C225.644 120.356 226.186 120.055 226.744 119.454C227.316 118.853 227.792 118.134 228.174 117.298C228.555 116.462 228.746 115.743 228.746 115.142C228.746 114.687 228.636 114.335 228.416 114.086C228.196 113.822 227.88 113.69 227.47 113.69C227 113.69 226.546 113.881 226.106 114.262C225.666 114.629 225.284 115.142 224.962 115.802C224.654 116.447 224.434 117.173 224.302 117.98C224.243 118.332 224.214 118.669 224.214 118.992C224.214 119.901 224.514 120.356 225.116 120.356ZM234.145 121.742C233.543 121.742 233.023 121.61 232.583 121.346C232.157 121.082 231.945 120.759 231.945 120.378C231.945 120.07 232.033 119.835 232.209 119.674C232.385 119.513 232.597 119.432 232.847 119.432C233.052 119.432 233.221 119.498 233.353 119.63C233.499 119.762 233.639 119.945 233.771 120.18C233.961 120.488 234.145 120.715 234.321 120.862C234.497 121.009 234.746 121.082 235.069 121.082C235.377 121.082 235.604 121.001 235.751 120.84C235.912 120.664 236.022 120.4 236.081 120.048C236.095 119.989 236.103 119.901 236.103 119.784C236.103 119.344 235.971 118.97 235.707 118.662C235.457 118.339 235.083 117.987 234.585 117.606C234.071 117.181 233.69 116.814 233.441 116.506C233.191 116.198 233.067 115.824 233.067 115.384C233.067 114.944 233.206 114.526 233.485 114.13C233.778 113.734 234.167 113.411 234.651 113.162C235.149 112.913 235.685 112.788 236.257 112.788C236.902 112.788 237.415 112.905 237.797 113.14C238.178 113.375 238.347 113.675 238.303 114.042C238.259 114.291 238.149 114.489 237.973 114.636C237.797 114.768 237.606 114.834 237.401 114.834C237.137 114.834 236.939 114.775 236.807 114.658C236.675 114.541 236.543 114.357 236.411 114.108C236.279 113.859 236.139 113.675 235.993 113.558C235.861 113.426 235.655 113.36 235.377 113.36C235.113 113.36 234.9 113.433 234.739 113.58C234.577 113.712 234.482 113.888 234.453 114.108C234.438 114.167 234.431 114.255 234.431 114.372C234.431 114.753 234.555 115.098 234.805 115.406C235.054 115.714 235.421 116.066 235.905 116.462C236.433 116.917 236.829 117.313 237.093 117.65C237.357 117.973 237.489 118.361 237.489 118.816C237.489 119.227 237.342 119.667 237.049 120.136C236.755 120.591 236.352 120.972 235.839 121.28C235.34 121.588 234.775 121.742 234.145 121.742ZM251.413 112.722C251.985 112.722 252.432 112.935 252.755 113.36C253.092 113.785 253.261 114.357 253.261 115.076C253.261 115.267 253.231 115.567 253.173 115.978C252.953 117.166 252.498 118.2 251.809 119.08C251.134 119.96 250.364 120.635 249.499 121.104C248.648 121.559 247.863 121.786 247.145 121.786C246.411 121.786 245.832 121.632 245.407 121.324C244.981 121.016 244.769 120.591 244.769 120.048C244.769 119.96 244.783 119.828 244.813 119.652L246.903 108.322C246.947 108.073 246.969 107.86 246.969 107.684C246.969 107.273 246.822 107.068 246.529 107.068C246.323 107.068 246.001 107.171 245.561 107.376H245.517C245.458 107.376 245.421 107.339 245.407 107.266C245.392 107.193 245.414 107.149 245.473 107.134L248.685 105.55H248.729C248.787 105.55 248.839 105.572 248.883 105.616C248.941 105.66 248.963 105.697 248.949 105.726L247.013 116.506C247.511 115.391 248.157 114.482 248.949 113.778C249.755 113.074 250.577 112.722 251.413 112.722ZM251.237 116.66C251.325 116.264 251.369 115.905 251.369 115.582C251.369 115.113 251.281 114.739 251.105 114.46C250.929 114.181 250.657 114.042 250.291 114.042C249.44 114.042 248.663 114.533 247.959 115.516C247.269 116.499 246.778 117.789 246.485 119.388C246.47 119.461 246.463 119.571 246.463 119.718C246.463 120.158 246.602 120.517 246.881 120.796C247.174 121.06 247.541 121.192 247.981 121.192C248.435 121.192 248.883 121.016 249.323 120.664C249.763 120.297 250.151 119.769 250.489 119.08C250.841 118.391 251.09 117.584 251.237 116.66ZM259.472 112.722C260 112.722 260.41 112.817 260.704 113.008C260.997 113.184 261.144 113.441 261.144 113.778C261.144 114.453 260.645 115.076 259.648 115.648C258.665 116.22 257.477 116.631 256.084 116.88C256.025 117.349 255.996 117.694 255.996 117.914C255.996 118.809 256.186 119.527 256.568 120.07C256.949 120.598 257.499 120.862 258.218 120.862C258.555 120.862 258.907 120.811 259.274 120.708C259.64 120.591 259.978 120.415 260.286 120.18H260.308C260.352 120.18 260.388 120.202 260.418 120.246C260.462 120.29 260.469 120.327 260.44 120.356C259.428 121.295 258.306 121.764 257.074 121.764C256.106 121.764 255.372 121.463 254.874 120.862C254.375 120.261 254.126 119.491 254.126 118.552C254.126 118.215 254.162 117.841 254.236 117.43C254.382 116.653 254.698 115.905 255.182 115.186C255.68 114.453 256.304 113.859 257.052 113.404C257.814 112.949 258.621 112.722 259.472 112.722ZM259.164 114.372C259.193 114.225 259.208 114.13 259.208 114.086C259.208 113.837 259.127 113.646 258.966 113.514C258.804 113.382 258.606 113.316 258.372 113.316C257.829 113.316 257.36 113.617 256.964 114.218C256.582 114.819 256.304 115.597 256.128 116.55C257.976 116.139 258.988 115.413 259.164 114.372ZM267.206 112.722C267.734 112.722 268.145 112.817 268.438 113.008C268.731 113.184 268.878 113.441 268.878 113.778C268.878 114.453 268.379 115.076 267.382 115.648C266.399 116.22 265.211 116.631 263.818 116.88C263.759 117.349 263.73 117.694 263.73 117.914C263.73 118.809 263.921 119.527 264.302 120.07C264.683 120.598 265.233 120.862 265.952 120.862C266.289 120.862 266.641 120.811 267.008 120.708C267.375 120.591 267.712 120.415 268.02 120.18H268.042C268.086 120.18 268.123 120.202 268.152 120.246C268.196 120.29 268.203 120.327 268.174 120.356C267.162 121.295 266.04 121.764 264.808 121.764C263.84 121.764 263.107 121.463 262.608 120.862C262.109 120.261 261.86 119.491 261.86 118.552C261.86 118.215 261.897 117.841 261.97 117.43C262.117 116.653 262.432 115.905 262.916 115.186C263.415 114.453 264.038 113.859 264.786 113.404C265.549 112.949 266.355 112.722 267.206 112.722ZM266.898 114.372C266.927 114.225 266.942 114.13 266.942 114.086C266.942 113.837 266.861 113.646 266.7 113.514C266.539 113.382 266.341 113.316 266.106 113.316C265.563 113.316 265.094 113.617 264.698 114.218C264.317 114.819 264.038 115.597 263.862 116.55C265.71 116.139 266.722 115.413 266.898 114.372ZM278.834 119.806C278.864 119.777 278.886 119.762 278.9 119.762C278.944 119.762 278.981 119.791 279.01 119.85C279.054 119.894 279.054 119.938 279.01 119.982C278.512 120.569 278.072 121.001 277.69 121.28C277.309 121.559 276.913 121.698 276.502 121.698C276.18 121.698 275.938 121.603 275.776 121.412C275.63 121.221 275.556 120.935 275.556 120.554C275.556 120.319 275.593 119.982 275.666 119.542L276.304 116.044C276.378 115.692 276.414 115.34 276.414 114.988C276.414 114.225 276.158 113.844 275.644 113.844C275.204 113.844 274.75 114.123 274.28 114.68C273.826 115.237 273.393 116.051 272.982 117.122C272.572 118.178 272.234 119.447 271.97 120.928L271.904 121.28C271.831 121.544 271.479 121.676 270.848 121.676C270.408 121.676 270.188 121.625 270.188 121.522L270.276 121.038C270.423 120.349 270.504 119.96 270.518 119.872L271.42 114.966C271.45 114.834 271.464 114.665 271.464 114.46C271.464 114.035 271.332 113.822 271.068 113.822C270.746 113.822 270.298 114.13 269.726 114.746C269.712 114.761 269.69 114.768 269.66 114.768C269.616 114.768 269.572 114.746 269.528 114.702C269.499 114.643 269.506 114.592 269.55 114.548C270.064 113.947 270.526 113.507 270.936 113.228C271.362 112.949 271.78 112.81 272.19 112.81C272.513 112.81 272.748 112.905 272.894 113.096C273.056 113.272 273.136 113.551 273.136 113.932C273.136 114.049 273.107 114.328 273.048 114.768L272.652 116.968C273.166 115.619 273.767 114.577 274.456 113.844C275.146 113.096 275.872 112.722 276.634 112.722C277.617 112.722 278.108 113.316 278.108 114.504C278.108 114.783 278.072 115.157 277.998 115.626L277.272 119.542C277.228 119.762 277.206 119.945 277.206 120.092C277.206 120.473 277.331 120.664 277.58 120.664C277.844 120.664 278.262 120.378 278.834 119.806ZM64.332 148.742C63.7307 148.742 63.21 148.61 62.77 148.346C62.3447 148.082 62.132 147.759 62.132 147.378C62.132 147.07 62.22 146.835 62.396 146.674C62.572 146.513 62.7847 146.432 63.034 146.432C63.2393 146.432 63.408 146.498 63.54 146.63C63.6867 146.762 63.826 146.945 63.958 147.18C64.1487 147.488 64.332 147.715 64.508 147.862C64.684 148.009 64.9333 148.082 65.256 148.082C65.564 148.082 65.7913 148.001 65.938 147.84C66.0993 147.664 66.2093 147.4 66.268 147.048C66.2827 146.989 66.29 146.901 66.29 146.784C66.29 146.344 66.158 145.97 65.894 145.662C65.6447 145.339 65.2707 144.987 64.772 144.606C64.2587 144.181 63.8773 143.814 63.628 143.506C63.3787 143.198 63.254 142.824 63.254 142.384C63.254 141.944 63.3933 141.526 63.672 141.13C63.9653 140.734 64.354 140.411 64.838 140.162C65.3367 139.913 65.872 139.788 66.444 139.788C67.0893 139.788 67.6027 139.905 67.984 140.14C68.3653 140.375 68.534 140.675 68.49 141.042C68.446 141.291 68.336 141.489 68.16 141.636C67.984 141.768 67.7933 141.834 67.588 141.834C67.324 141.834 67.126 141.775 66.994 141.658C66.862 141.541 66.73 141.357 66.598 141.108C66.466 140.859 66.3267 140.675 66.18 140.558C66.048 140.426 65.8427 140.36 65.564 140.36C65.3 140.36 65.0873 140.433 64.926 140.58C64.7647 140.712 64.6693 140.888 64.64 141.108C64.6253 141.167 64.618 141.255 64.618 141.372C64.618 141.753 64.7427 142.098 64.992 142.406C65.2413 142.714 65.608 143.066 66.092 143.462C66.62 143.917 67.016 144.313 67.28 144.65C67.544 144.973 67.676 145.361 67.676 145.816C67.676 146.227 67.5293 146.667 67.236 147.136C66.9427 147.591 66.5393 147.972 66.026 148.28C65.5273 148.588 64.9627 148.742 64.332 148.742ZM78.578 146.762C78.5927 146.747 78.6147 146.74 78.644 146.74C78.688 146.74 78.7247 146.769 78.754 146.828C78.7834 146.872 78.7834 146.916 78.754 146.96C78.226 147.561 77.7494 148.001 77.324 148.28C76.9134 148.559 76.5027 148.698 76.092 148.698C75.7694 148.698 75.5347 148.61 75.388 148.434C75.2414 148.258 75.168 147.979 75.168 147.598C75.168 147.319 75.1974 147.033 75.256 146.74L75.63 144.518C75.1167 145.867 74.5154 146.916 73.826 147.664C73.1514 148.412 72.4327 148.786 71.67 148.786C70.6727 148.786 70.174 148.199 70.174 147.026C70.174 146.63 70.2107 146.249 70.284 145.882L71.076 141.966C71.12 141.746 71.142 141.563 71.142 141.416C71.142 141.035 71.0174 140.844 70.768 140.844C70.6214 140.844 70.4454 140.917 70.24 141.064C70.0347 141.211 69.7927 141.423 69.514 141.702C69.4847 141.731 69.4554 141.746 69.426 141.746C69.382 141.746 69.3454 141.724 69.316 141.68C69.2867 141.621 69.294 141.57 69.338 141.526C69.8514 140.925 70.2914 140.492 70.658 140.228C71.0394 139.949 71.428 139.81 71.824 139.81C72.4694 139.81 72.792 140.206 72.792 140.998C72.792 141.233 72.7554 141.555 72.682 141.966L71.978 145.464C71.89 145.875 71.846 146.227 71.846 146.52C71.846 147.283 72.11 147.664 72.638 147.664C73.078 147.664 73.5327 147.378 74.002 146.806C74.4714 146.234 74.9114 145.398 75.322 144.298C75.7474 143.198 76.092 141.893 76.356 140.382L76.378 140.228C76.4514 139.964 76.8034 139.832 77.434 139.832C77.874 139.832 78.094 139.883 78.094 139.986L78.006 140.47C77.8594 141.159 77.7787 141.548 77.764 141.636L76.862 146.542C76.8327 146.674 76.818 146.843 76.818 147.048C76.818 147.473 76.95 147.686 77.214 147.686C77.5367 147.686 77.9914 147.378 78.578 146.762ZM82.707 148.786C81.7097 148.786 80.969 148.456 80.485 147.796C80.0157 147.121 79.781 146.285 79.781 145.288C79.781 144.936 79.8177 144.525 79.891 144.056C80.0523 143.205 80.3897 142.45 80.903 141.79C81.4163 141.13 82.0177 140.624 82.707 140.272C83.3963 139.905 84.0783 139.722 84.753 139.722C85.281 139.722 85.743 139.839 86.139 140.074C86.5497 140.294 86.755 140.609 86.755 141.02C86.755 141.328 86.667 141.577 86.491 141.768C86.3297 141.944 86.0877 142.032 85.765 142.032C85.2077 142.032 84.8777 141.731 84.775 141.13C84.7017 140.881 84.599 140.683 84.467 140.536C84.335 140.375 84.1297 140.294 83.851 140.294C83.323 140.294 82.8683 140.573 82.487 141.13C82.1203 141.673 81.8637 142.399 81.717 143.308C81.629 143.792 81.585 144.261 81.585 144.716C81.585 145.655 81.7757 146.41 82.157 146.982C82.553 147.539 83.1397 147.818 83.917 147.818C84.2543 147.818 84.6137 147.745 84.995 147.598C85.3763 147.437 85.7063 147.246 85.985 147.026H86.007C86.051 147.026 86.095 147.048 86.139 147.092C86.183 147.136 86.1903 147.18 86.161 147.224C85.6037 147.752 85.0243 148.148 84.423 148.412C83.8363 148.661 83.2643 148.786 82.707 148.786ZM90.3125 148.786C89.3151 148.786 88.5745 148.456 88.0905 147.796C87.6211 147.121 87.3865 146.285 87.3865 145.288C87.3865 144.936 87.4231 144.525 87.4965 144.056C87.6578 143.205 87.9951 142.45 88.5085 141.79C89.0218 141.13 89.6231 140.624 90.3125 140.272C91.0018 139.905 91.6838 139.722 92.3585 139.722C92.8865 139.722 93.3485 139.839 93.7445 140.074C94.1551 140.294 94.3605 140.609 94.3605 141.02C94.3605 141.328 94.2725 141.577 94.0965 141.768C93.9351 141.944 93.6931 142.032 93.3705 142.032C92.8131 142.032 92.4831 141.731 92.3805 141.13C92.3071 140.881 92.2045 140.683 92.0725 140.536C91.9405 140.375 91.7351 140.294 91.4565 140.294C90.9285 140.294 90.4738 140.573 90.0925 141.13C89.7258 141.673 89.4691 142.399 89.3225 143.308C89.2345 143.792 89.1905 144.261 89.1905 144.716C89.1905 145.655 89.3811 146.41 89.7625 146.982C90.1585 147.539 90.7451 147.818 91.5225 147.818C91.8598 147.818 92.2191 147.745 92.6005 147.598C92.9818 147.437 93.3118 147.246 93.5905 147.026H93.6125C93.6565 147.026 93.7005 147.048 93.7445 147.092C93.7885 147.136 93.7958 147.18 93.7665 147.224C93.2091 147.752 92.6298 148.148 92.0285 148.412C91.4418 148.661 90.8698 148.786 90.3125 148.786ZM100.294 139.722C100.822 139.722 101.233 139.817 101.526 140.008C101.819 140.184 101.966 140.441 101.966 140.778C101.966 141.453 101.467 142.076 100.47 142.648C99.4873 143.22 98.2993 143.631 96.9059 143.88C96.8473 144.349 96.8179 144.694 96.8179 144.914C96.8179 145.809 97.0086 146.527 97.3899 147.07C97.7713 147.598 98.3213 147.862 99.0399 147.862C99.3773 147.862 99.7293 147.811 100.096 147.708C100.463 147.591 100.8 147.415 101.108 147.18H101.13C101.174 147.18 101.211 147.202 101.24 147.246C101.284 147.29 101.291 147.327 101.262 147.356C100.25 148.295 99.1279 148.764 97.8959 148.764C96.9279 148.764 96.1946 148.463 95.6959 147.862C95.1973 147.261 94.9479 146.491 94.9479 145.552C94.9479 145.215 94.9846 144.841 95.0579 144.43C95.2046 143.653 95.5199 142.905 96.0039 142.186C96.5026 141.453 97.1259 140.859 97.8739 140.404C98.6366 139.949 99.4433 139.722 100.294 139.722ZM99.9859 141.372C100.015 141.225 100.03 141.13 100.03 141.086C100.03 140.837 99.9493 140.646 99.7879 140.514C99.6266 140.382 99.4286 140.316 99.1939 140.316C98.6513 140.316 98.1819 140.617 97.7859 141.218C97.4046 141.819 97.1259 142.597 96.9499 143.55C98.7979 143.139 99.8099 142.413 99.9859 141.372ZM104.486 148.742C103.885 148.742 103.364 148.61 102.924 148.346C102.499 148.082 102.286 147.759 102.286 147.378C102.286 147.07 102.374 146.835 102.55 146.674C102.726 146.513 102.939 146.432 103.188 146.432C103.394 146.432 103.562 146.498 103.694 146.63C103.841 146.762 103.98 146.945 104.112 147.18C104.303 147.488 104.486 147.715 104.662 147.862C104.838 148.009 105.088 148.082 105.41 148.082C105.718 148.082 105.946 148.001 106.092 147.84C106.254 147.664 106.364 147.4 106.422 147.048C106.437 146.989 106.444 146.901 106.444 146.784C106.444 146.344 106.312 145.97 106.048 145.662C105.799 145.339 105.425 144.987 104.926 144.606C104.413 144.181 104.032 143.814 103.782 143.506C103.533 143.198 103.408 142.824 103.408 142.384C103.408 141.944 103.548 141.526 103.826 141.13C104.12 140.734 104.508 140.411 104.992 140.162C105.491 139.913 106.026 139.788 106.598 139.788C107.244 139.788 107.757 139.905 108.138 140.14C108.52 140.375 108.688 140.675 108.644 141.042C108.6 141.291 108.49 141.489 108.314 141.636C108.138 141.768 107.948 141.834 107.742 141.834C107.478 141.834 107.28 141.775 107.148 141.658C107.016 141.541 106.884 141.357 106.752 141.108C106.62 140.859 106.481 140.675 106.334 140.558C106.202 140.426 105.997 140.36 105.718 140.36C105.454 140.36 105.242 140.433 105.08 140.58C104.919 140.712 104.824 140.888 104.794 141.108C104.78 141.167 104.772 141.255 104.772 141.372C104.772 141.753 104.897 142.098 105.146 142.406C105.396 142.714 105.762 143.066 106.246 143.462C106.774 143.917 107.17 144.313 107.434 144.65C107.698 144.973 107.83 145.361 107.83 145.816C107.83 146.227 107.684 146.667 107.39 147.136C107.097 147.591 106.694 147.972 106.18 148.28C105.682 148.588 105.117 148.742 104.486 148.742ZM111.189 148.742C110.588 148.742 110.067 148.61 109.627 148.346C109.202 148.082 108.989 147.759 108.989 147.378C108.989 147.07 109.077 146.835 109.253 146.674C109.429 146.513 109.642 146.432 109.891 146.432C110.097 146.432 110.265 146.498 110.397 146.63C110.544 146.762 110.683 146.945 110.815 147.18C111.006 147.488 111.189 147.715 111.365 147.862C111.541 148.009 111.791 148.082 112.113 148.082C112.421 148.082 112.649 148.001 112.795 147.84C112.957 147.664 113.067 147.4 113.125 147.048C113.14 146.989 113.147 146.901 113.147 146.784C113.147 146.344 113.015 145.97 112.751 145.662C112.502 145.339 112.128 144.987 111.629 144.606C111.116 144.181 110.735 143.814 110.485 143.506C110.236 143.198 110.111 142.824 110.111 142.384C110.111 141.944 110.251 141.526 110.529 141.13C110.823 140.734 111.211 140.411 111.695 140.162C112.194 139.913 112.729 139.788 113.301 139.788C113.947 139.788 114.46 139.905 114.841 140.14C115.223 140.375 115.391 140.675 115.347 141.042C115.303 141.291 115.193 141.489 115.017 141.636C114.841 141.768 114.651 141.834 114.445 141.834C114.181 141.834 113.983 141.775 113.851 141.658C113.719 141.541 113.587 141.357 113.455 141.108C113.323 140.859 113.184 140.675 113.037 140.558C112.905 140.426 112.7 140.36 112.421 140.36C112.157 140.36 111.945 140.433 111.783 140.58C111.622 140.712 111.527 140.888 111.497 141.108C111.483 141.167 111.475 141.255 111.475 141.372C111.475 141.753 111.6 142.098 111.849 142.406C112.099 142.714 112.465 143.066 112.949 143.462C113.477 143.917 113.873 144.313 114.137 144.65C114.401 144.973 114.533 145.361 114.533 145.816C114.533 146.227 114.387 146.667 114.093 147.136C113.8 147.591 113.397 147.972 112.883 148.28C112.385 148.588 111.82 148.742 111.189 148.742ZM122.773 132.528C123.375 132.528 123.844 132.645 124.181 132.88C124.519 133.115 124.665 133.401 124.621 133.738C124.577 134.002 124.46 134.207 124.269 134.354C124.093 134.501 123.881 134.574 123.631 134.574C123.294 134.574 123.059 134.493 122.927 134.332C122.81 134.171 122.715 133.936 122.641 133.628C122.583 133.393 122.517 133.225 122.443 133.122C122.385 133.005 122.267 132.946 122.091 132.946C121.593 132.946 121.16 133.43 120.793 134.398C120.441 135.351 120.119 136.833 119.825 138.842L119.627 140.184L120.551 140.118C121.285 140.059 121.688 140.03 121.761 140.03C121.82 140.03 121.864 140.059 121.893 140.118C121.923 140.162 121.93 140.213 121.915 140.272C121.871 140.419 121.776 140.587 121.629 140.778C121.483 140.954 121.343 141.035 121.211 141.02C121.167 141.02 120.984 140.991 120.661 140.932C120.339 140.873 119.965 140.829 119.539 140.8L118.329 148.962C118.124 150.385 117.875 151.499 117.581 152.306C117.303 153.113 116.943 153.685 116.503 154.022C116.078 154.374 115.535 154.55 114.875 154.55C114.289 154.55 113.834 154.44 113.511 154.22C113.189 154 113.057 153.729 113.115 153.406C113.145 153.157 113.255 152.959 113.445 152.812C113.621 152.665 113.827 152.592 114.061 152.592C114.369 152.592 114.582 152.673 114.699 152.834C114.817 152.995 114.905 153.223 114.963 153.516C115.007 153.721 115.059 153.875 115.117 153.978C115.176 154.081 115.279 154.132 115.425 154.132C115.587 154.132 115.719 154.015 115.821 153.78C115.924 153.56 116.034 153.135 116.151 152.504C116.269 151.888 116.43 150.898 116.635 149.534L117.757 141.768C117.787 141.445 117.801 141.255 117.801 141.196C117.801 140.917 117.728 140.749 117.581 140.69C117.435 140.617 117.119 140.58 116.635 140.58C116.591 140.58 116.569 140.536 116.569 140.448C116.569 140.331 116.591 140.272 116.635 140.272C117.134 140.272 117.486 140.206 117.691 140.074C117.911 139.927 118.051 139.671 118.109 139.304C118.403 137.5 118.733 136.121 119.099 135.168C119.481 134.2 119.957 133.518 120.529 133.122C121.101 132.726 121.849 132.528 122.773 132.528ZM131.279 146.762C131.294 146.747 131.316 146.74 131.345 146.74C131.389 146.74 131.426 146.769 131.455 146.828C131.485 146.872 131.485 146.916 131.455 146.96C130.927 147.561 130.451 148.001 130.025 148.28C129.615 148.559 129.204 148.698 128.793 148.698C128.471 148.698 128.236 148.61 128.089 148.434C127.943 148.258 127.869 147.979 127.869 147.598C127.869 147.319 127.899 147.033 127.957 146.74L128.331 144.518C127.818 145.867 127.217 146.916 126.527 147.664C125.853 148.412 125.134 148.786 124.371 148.786C123.374 148.786 122.875 148.199 122.875 147.026C122.875 146.63 122.912 146.249 122.985 145.882L123.777 141.966C123.821 141.746 123.843 141.563 123.843 141.416C123.843 141.035 123.719 140.844 123.469 140.844C123.323 140.844 123.147 140.917 122.941 141.064C122.736 141.211 122.494 141.423 122.215 141.702C122.186 141.731 122.157 141.746 122.127 141.746C122.083 141.746 122.047 141.724 122.017 141.68C121.988 141.621 121.995 141.57 122.039 141.526C122.553 140.925 122.993 140.492 123.359 140.228C123.741 139.949 124.129 139.81 124.525 139.81C125.171 139.81 125.493 140.206 125.493 140.998C125.493 141.233 125.457 141.555 125.383 141.966L124.679 145.464C124.591 145.875 124.547 146.227 124.547 146.52C124.547 147.283 124.811 147.664 125.339 147.664C125.779 147.664 126.234 147.378 126.703 146.806C127.173 146.234 127.613 145.398 128.023 144.298C128.449 143.198 128.793 141.893 129.057 140.382L129.079 140.228C129.153 139.964 129.505 139.832 130.135 139.832C130.575 139.832 130.795 139.883 130.795 139.986L130.707 140.47C130.561 141.159 130.48 141.548 130.465 141.636L129.563 146.542C129.534 146.674 129.519 146.843 129.519 147.048C129.519 147.473 129.651 147.686 129.915 147.686C130.238 147.686 130.693 147.378 131.279 146.762ZM133.956 148.698C133.619 148.698 133.369 148.603 133.208 148.412C133.061 148.221 132.988 147.928 132.988 147.532C132.988 147.312 133.025 146.982 133.098 146.542L135.166 135.322C135.21 135.073 135.232 134.86 135.232 134.684C135.232 134.273 135.085 134.068 134.792 134.068C134.587 134.068 134.264 134.171 133.824 134.376H133.78C133.721 134.376 133.685 134.339 133.67 134.266C133.655 134.193 133.677 134.149 133.736 134.134L136.948 132.55H136.992C137.051 132.55 137.102 132.572 137.146 132.616C137.205 132.66 137.227 132.697 137.212 132.726L134.726 146.542C134.682 146.762 134.66 146.953 134.66 147.114C134.66 147.481 134.777 147.664 135.012 147.664C135.276 147.664 135.694 147.378 136.266 146.806C136.295 146.777 136.325 146.762 136.354 146.762C136.398 146.762 136.435 146.791 136.464 146.85C136.493 146.894 136.486 146.938 136.442 146.982C135.943 147.569 135.503 148.001 135.122 148.28C134.741 148.559 134.352 148.698 133.956 148.698ZM139.327 148.698C138.99 148.698 138.741 148.603 138.579 148.412C138.433 148.221 138.359 147.928 138.359 147.532C138.359 147.312 138.396 146.982 138.469 146.542L140.537 135.322C140.581 135.073 140.603 134.86 140.603 134.684C140.603 134.273 140.457 134.068 140.163 134.068C139.958 134.068 139.635 134.171 139.195 134.376H139.151C139.093 134.376 139.056 134.339 139.041 134.266C139.027 134.193 139.049 134.149 139.107 134.134L142.319 132.55H142.363C142.422 132.55 142.473 132.572 142.517 132.616C142.576 132.66 142.598 132.697 142.583 132.726L140.097 146.542C140.053 146.762 140.031 146.953 140.031 147.114C140.031 147.481 140.149 147.664 140.383 147.664C140.647 147.664 141.065 147.378 141.637 146.806C141.667 146.777 141.696 146.762 141.725 146.762C141.769 146.762 141.806 146.791 141.835 146.85C141.865 146.894 141.857 146.938 141.813 146.982C141.315 147.569 140.875 148.001 140.493 148.28C140.112 148.559 139.723 148.698 139.327 148.698ZM150.748 139.788C151.086 139.788 151.342 139.913 151.518 140.162C151.709 140.411 151.804 140.763 151.804 141.218C151.804 142.347 151.218 144.012 150.044 146.212C148.871 148.397 147.529 150.355 146.018 152.086C144.508 153.817 143.268 154.682 142.3 154.682C141.523 154.682 141.134 154.367 141.134 153.736C141.134 153.633 141.142 153.553 141.156 153.494C141.215 153.215 141.347 153.003 141.552 152.856C141.743 152.709 141.992 152.636 142.3 152.636C142.535 152.636 142.821 152.687 143.158 152.79C143.51 152.878 143.774 152.922 143.95 152.922C144.244 152.922 144.544 152.819 144.852 152.614C145.263 152.335 145.776 151.778 146.392 150.942V149.93C146.392 147.085 146.187 144.877 145.776 143.308C145.366 141.739 144.801 140.954 144.082 140.954C143.892 140.954 143.701 141.02 143.51 141.152C143.334 141.284 143.18 141.46 143.048 141.68C143.034 141.724 142.99 141.746 142.916 141.746C142.814 141.746 142.77 141.702 142.784 141.614C143.048 141.071 143.408 140.639 143.862 140.316C144.317 139.979 144.757 139.81 145.182 139.81C145.754 139.81 146.253 140.147 146.678 140.822C147.104 141.482 147.426 142.391 147.646 143.55C147.866 144.709 147.976 146.007 147.976 147.444C147.976 148.001 147.969 148.427 147.954 148.72C148.541 147.796 149.054 146.909 149.494 146.058C149.934 145.207 150.206 144.569 150.308 144.144C150.382 143.865 150.418 143.565 150.418 143.242C150.418 142.934 150.374 142.67 150.286 142.45C150.213 142.23 150.103 141.995 149.956 141.746C149.839 141.555 149.751 141.387 149.692 141.24C149.648 141.093 149.626 140.939 149.626 140.778C149.626 140.485 149.729 140.25 149.934 140.074C150.14 139.883 150.411 139.788 150.748 139.788ZM163.587 139.722C164.115 139.722 164.526 139.817 164.819 140.008C165.112 140.184 165.259 140.441 165.259 140.778C165.259 141.453 164.76 142.076 163.763 142.648C162.78 143.22 161.592 143.631 160.199 143.88C160.14 144.349 160.111 144.694 160.111 144.914C160.111 145.809 160.302 146.527 160.683 147.07C161.064 147.598 161.614 147.862 162.333 147.862C162.67 147.862 163.022 147.811 163.389 147.708C163.756 147.591 164.093 147.415 164.401 147.18H164.423C164.467 147.18 164.504 147.202 164.533 147.246C164.577 147.29 164.584 147.327 164.555 147.356C163.543 148.295 162.421 148.764 161.189 148.764C160.221 148.764 159.488 148.463 158.989 147.862C158.49 147.261 158.241 146.491 158.241 145.552C158.241 145.215 158.278 144.841 158.351 144.43C158.498 143.653 158.813 142.905 159.297 142.186C159.796 141.453 160.419 140.859 161.167 140.404C161.93 139.949 162.736 139.722 163.587 139.722ZM163.279 141.372C163.308 141.225 163.323 141.13 163.323 141.086C163.323 140.837 163.242 140.646 163.081 140.514C162.92 140.382 162.722 140.316 162.487 140.316C161.944 140.316 161.475 140.617 161.079 141.218C160.698 141.819 160.419 142.597 160.243 143.55C162.091 143.139 163.103 142.413 163.279 141.372ZM175.215 146.806C175.245 146.777 175.267 146.762 175.281 146.762C175.325 146.762 175.362 146.791 175.391 146.85C175.435 146.894 175.435 146.938 175.391 146.982C174.893 147.569 174.453 148.001 174.071 148.28C173.69 148.559 173.294 148.698 172.883 148.698C172.561 148.698 172.319 148.603 172.157 148.412C172.011 148.221 171.937 147.935 171.937 147.554C171.937 147.319 171.974 146.982 172.047 146.542L172.685 143.044C172.759 142.692 172.795 142.34 172.795 141.988C172.795 141.225 172.539 140.844 172.025 140.844C171.585 140.844 171.131 141.123 170.661 141.68C170.207 142.237 169.774 143.051 169.363 144.122C168.953 145.178 168.615 146.447 168.351 147.928L168.285 148.28C168.212 148.544 167.86 148.676 167.229 148.676C166.789 148.676 166.569 148.625 166.569 148.522L166.657 148.038C166.804 147.349 166.885 146.96 166.899 146.872L167.801 141.966C167.831 141.834 167.845 141.665 167.845 141.46C167.845 141.035 167.713 140.822 167.449 140.822C167.127 140.822 166.679 141.13 166.107 141.746C166.093 141.761 166.071 141.768 166.041 141.768C165.997 141.768 165.953 141.746 165.909 141.702C165.88 141.643 165.887 141.592 165.931 141.548C166.445 140.947 166.907 140.507 167.317 140.228C167.743 139.949 168.161 139.81 168.571 139.81C168.894 139.81 169.129 139.905 169.275 140.096C169.437 140.272 169.517 140.551 169.517 140.932C169.517 141.049 169.488 141.328 169.429 141.768L169.033 143.968C169.547 142.619 170.148 141.577 170.837 140.844C171.527 140.096 172.253 139.722 173.015 139.722C173.998 139.722 174.489 140.316 174.489 141.504C174.489 141.783 174.453 142.157 174.379 142.626L173.653 146.542C173.609 146.762 173.587 146.945 173.587 147.092C173.587 147.473 173.712 147.664 173.961 147.664C174.225 147.664 174.643 147.378 175.215 146.806ZM185.152 146.806C185.182 146.777 185.211 146.762 185.24 146.762C185.284 146.762 185.321 146.791 185.35 146.85C185.38 146.894 185.372 146.938 185.328 146.982C184.83 147.569 184.39 148.001 184.008 148.28C183.627 148.559 183.231 148.698 182.82 148.698C182.498 148.698 182.256 148.603 182.094 148.412C181.948 148.221 181.874 147.935 181.874 147.554C181.874 147.319 181.911 146.982 181.984 146.542L182.622 143.044C182.696 142.692 182.732 142.34 182.732 141.988C182.732 141.225 182.476 140.844 181.962 140.844C181.537 140.844 181.09 141.115 180.62 141.658C180.166 142.201 179.733 143 179.322 144.056C178.912 145.097 178.574 146.337 178.31 147.774L178.222 148.28C178.149 148.544 177.797 148.676 177.166 148.676C176.726 148.676 176.506 148.625 176.506 148.522L176.594 148.038C176.741 147.349 176.822 146.96 176.836 146.872L178.97 135.322C179.014 135.073 179.036 134.867 179.036 134.706C179.036 134.486 179 134.325 178.926 134.222C178.853 134.119 178.736 134.068 178.574 134.068C178.369 134.068 178.046 134.171 177.606 134.376H177.562C177.518 134.376 177.482 134.339 177.452 134.266C177.438 134.193 177.46 134.149 177.518 134.134L180.73 132.55H180.774C180.833 132.55 180.884 132.572 180.928 132.616C180.987 132.66 181.009 132.697 180.994 132.726L178.992 143.924C179.506 142.589 180.1 141.555 180.774 140.822C181.464 140.089 182.19 139.722 182.952 139.722C183.935 139.722 184.426 140.316 184.426 141.504C184.426 141.783 184.39 142.157 184.316 142.626L183.59 146.542C183.546 146.762 183.524 146.945 183.524 147.092C183.524 147.473 183.649 147.664 183.898 147.664C184.162 147.664 184.58 147.378 185.152 146.806ZM194.857 146.806C194.872 146.791 194.894 146.784 194.923 146.784C194.967 146.784 195.004 146.813 195.033 146.872C195.063 146.916 195.063 146.953 195.033 146.982C194.549 147.554 194.109 147.987 193.713 148.28C193.317 148.559 192.936 148.698 192.569 148.698C192.232 148.698 191.983 148.603 191.821 148.412C191.66 148.207 191.579 147.891 191.579 147.466C191.579 147.158 191.609 146.85 191.667 146.542L191.975 144.782C191.389 146.014 190.692 146.989 189.885 147.708C189.093 148.427 188.323 148.786 187.575 148.786C187.121 148.786 186.769 148.654 186.519 148.39C186.27 148.111 186.145 147.693 186.145 147.136C186.145 146.124 186.461 145.039 187.091 143.88C187.737 142.707 188.529 141.724 189.467 140.932C190.421 140.125 191.323 139.722 192.173 139.722C192.452 139.722 192.723 139.773 192.987 139.876C193.266 139.964 193.501 140.103 193.691 140.294C193.985 140.045 194.197 139.795 194.329 139.546C194.359 139.517 194.388 139.502 194.417 139.502C194.461 139.502 194.505 139.517 194.549 139.546C194.593 139.561 194.608 139.575 194.593 139.59L193.317 146.542C193.273 146.762 193.251 146.945 193.251 147.092C193.251 147.268 193.281 147.407 193.339 147.51C193.398 147.613 193.479 147.664 193.581 147.664C193.86 147.664 194.285 147.378 194.857 146.806ZM188.785 147.356C189.313 147.356 189.856 147.055 190.413 146.454C190.985 145.853 191.462 145.134 191.843 144.298C192.225 143.462 192.415 142.743 192.415 142.142C192.415 141.687 192.305 141.335 192.085 141.086C191.865 140.822 191.55 140.69 191.139 140.69C190.67 140.69 190.215 140.881 189.775 141.262C189.335 141.629 188.954 142.142 188.631 142.802C188.323 143.447 188.103 144.173 187.971 144.98C187.913 145.332 187.883 145.669 187.883 145.992C187.883 146.901 188.184 147.356 188.785 147.356ZM205.25 146.806C205.28 146.777 205.302 146.762 205.316 146.762C205.36 146.762 205.397 146.791 205.426 146.85C205.47 146.894 205.47 146.938 205.426 146.982C204.928 147.569 204.488 148.001 204.106 148.28C203.725 148.559 203.329 148.698 202.918 148.698C202.596 148.698 202.354 148.603 202.192 148.412C202.046 148.221 201.972 147.935 201.972 147.554C201.972 147.319 202.009 146.982 202.082 146.542L202.72 143.044C202.794 142.692 202.83 142.34 202.83 141.988C202.83 141.225 202.574 140.844 202.06 140.844C201.62 140.844 201.166 141.123 200.696 141.68C200.242 142.237 199.809 143.051 199.398 144.122C198.988 145.178 198.65 146.447 198.386 147.928L198.32 148.28C198.247 148.544 197.895 148.676 197.264 148.676C196.824 148.676 196.604 148.625 196.604 148.522L196.692 148.038C196.839 147.349 196.92 146.96 196.934 146.872L197.836 141.966C197.866 141.834 197.88 141.665 197.88 141.46C197.88 141.035 197.748 140.822 197.484 140.822C197.162 140.822 196.714 141.13 196.142 141.746C196.128 141.761 196.106 141.768 196.076 141.768C196.032 141.768 195.988 141.746 195.944 141.702C195.915 141.643 195.922 141.592 195.966 141.548C196.48 140.947 196.942 140.507 197.352 140.228C197.778 139.949 198.196 139.81 198.606 139.81C198.929 139.81 199.164 139.905 199.31 140.096C199.472 140.272 199.552 140.551 199.552 140.932C199.552 141.049 199.523 141.328 199.464 141.768L199.068 143.968C199.582 142.619 200.183 141.577 200.872 140.844C201.562 140.096 202.288 139.722 203.05 139.722C204.033 139.722 204.524 140.316 204.524 141.504C204.524 141.783 204.488 142.157 204.414 142.626L203.688 146.542C203.644 146.762 203.622 146.945 203.622 147.092C203.622 147.473 203.747 147.664 203.996 147.664C204.26 147.664 204.678 147.378 205.25 146.806ZM209.486 148.786C208.489 148.786 207.748 148.456 207.264 147.796C206.795 147.121 206.56 146.285 206.56 145.288C206.56 144.936 206.597 144.525 206.67 144.056C206.832 143.205 207.169 142.45 207.682 141.79C208.196 141.13 208.797 140.624 209.486 140.272C210.176 139.905 210.858 139.722 211.532 139.722C212.06 139.722 212.522 139.839 212.918 140.074C213.329 140.294 213.534 140.609 213.534 141.02C213.534 141.328 213.446 141.577 213.27 141.768C213.109 141.944 212.867 142.032 212.544 142.032C211.987 142.032 211.657 141.731 211.554 141.13C211.481 140.881 211.378 140.683 211.246 140.536C211.114 140.375 210.909 140.294 210.63 140.294C210.102 140.294 209.648 140.573 209.266 141.13C208.9 141.673 208.643 142.399 208.496 143.308C208.408 143.792 208.364 144.261 208.364 144.716C208.364 145.655 208.555 146.41 208.936 146.982C209.332 147.539 209.919 147.818 210.696 147.818C211.034 147.818 211.393 147.745 211.774 147.598C212.156 147.437 212.486 147.246 212.764 147.026H212.786C212.83 147.026 212.874 147.048 212.918 147.092C212.962 147.136 212.97 147.18 212.94 147.224C212.383 147.752 211.804 148.148 211.202 148.412C210.616 148.661 210.044 148.786 209.486 148.786ZM219.468 139.722C219.996 139.722 220.406 139.817 220.7 140.008C220.993 140.184 221.14 140.441 221.14 140.778C221.14 141.453 220.641 142.076 219.644 142.648C218.661 143.22 217.473 143.631 216.08 143.88C216.021 144.349 215.992 144.694 215.992 144.914C215.992 145.809 216.182 146.527 216.564 147.07C216.945 147.598 217.495 147.862 218.214 147.862C218.551 147.862 218.903 147.811 219.27 147.708C219.636 147.591 219.974 147.415 220.282 147.18H220.304C220.348 147.18 220.384 147.202 220.414 147.246C220.458 147.29 220.465 147.327 220.436 147.356C219.424 148.295 218.302 148.764 217.07 148.764C216.102 148.764 215.368 148.463 214.87 147.862C214.371 147.261 214.122 146.491 214.122 145.552C214.122 145.215 214.158 144.841 214.232 144.43C214.378 143.653 214.694 142.905 215.178 142.186C215.676 141.453 216.3 140.859 217.048 140.404C217.81 139.949 218.617 139.722 219.468 139.722ZM219.16 141.372C219.189 141.225 219.204 141.13 219.204 141.086C219.204 140.837 219.123 140.646 218.962 140.514C218.8 140.382 218.602 140.316 218.368 140.316C217.825 140.316 217.356 140.617 216.96 141.218C216.578 141.819 216.3 142.597 216.124 143.55C217.972 143.139 218.984 142.413 219.16 141.372ZM229.009 146.542C228.965 146.777 228.943 146.967 228.943 147.114C228.943 147.481 229.061 147.664 229.295 147.664C229.442 147.664 229.618 147.598 229.823 147.466C230.029 147.319 230.278 147.099 230.571 146.806C230.601 146.777 230.623 146.762 230.637 146.762C230.681 146.762 230.718 146.791 230.747 146.85C230.791 146.894 230.791 146.938 230.747 146.982C230.234 147.569 229.787 148.001 229.405 148.28C229.024 148.559 228.635 148.698 228.239 148.698C227.594 148.698 227.271 148.302 227.271 147.51C227.271 147.275 227.308 146.953 227.381 146.542L227.689 144.826C227.073 146.073 226.413 147.048 225.709 147.752C225.005 148.441 224.287 148.786 223.553 148.786C223.011 148.786 222.556 148.61 222.189 148.258C221.837 147.891 221.661 147.334 221.661 146.586C221.661 146.322 221.683 146.036 221.727 145.728C221.918 144.687 222.329 143.704 222.959 142.78C223.59 141.856 224.331 141.115 225.181 140.558C226.032 140.001 226.861 139.722 227.667 139.722C227.99 139.722 228.305 139.781 228.613 139.898L229.471 135.322C229.515 135.073 229.537 134.867 229.537 134.706C229.537 134.486 229.501 134.325 229.427 134.222C229.354 134.119 229.237 134.068 229.075 134.068C228.87 134.068 228.547 134.171 228.107 134.376H228.063C228.005 134.376 227.968 134.339 227.953 134.266C227.939 134.193 227.961 134.149 228.019 134.134L231.253 132.55H231.297C231.356 132.55 231.407 132.572 231.451 132.616C231.495 132.66 231.51 132.697 231.495 132.726L229.009 146.542ZM224.521 147.4C225.049 147.4 225.563 147.143 226.061 146.63C226.56 146.102 226.993 145.471 227.359 144.738C227.726 144.005 227.968 143.345 228.085 142.758L228.107 142.626C228.137 142.421 228.151 142.281 228.151 142.208C228.151 141.724 228.005 141.35 227.711 141.086C227.418 140.822 227.037 140.69 226.567 140.69C225.761 140.705 225.086 141.049 224.543 141.724C224.015 142.399 223.641 143.374 223.421 144.65C223.363 145.002 223.333 145.347 223.333 145.684C223.333 146.256 223.436 146.689 223.641 146.982C223.847 147.261 224.14 147.4 224.521 147.4ZM242.795 140.03C242.897 140.03 242.949 140.096 242.949 140.228C242.949 140.345 242.868 140.514 242.707 140.734C242.545 140.939 242.391 141.042 242.245 141.042C242.186 141.042 241.929 141.005 241.475 140.932C241.02 140.859 240.529 140.815 240.001 140.8L239.055 146.102C239.011 146.293 238.989 146.476 238.989 146.652C238.989 147.341 239.363 147.686 240.111 147.686C240.697 147.686 241.343 147.393 242.047 146.806H242.069C242.127 146.806 242.179 146.828 242.223 146.872C242.267 146.916 242.267 146.96 242.223 147.004C241.548 147.635 240.954 148.089 240.441 148.368C239.942 148.632 239.443 148.764 238.945 148.764C237.83 148.764 237.273 148.258 237.273 147.246C237.273 147.041 237.295 146.821 237.339 146.586L238.219 141.768C238.263 141.504 238.285 141.291 238.285 141.13C238.285 140.91 238.226 140.763 238.109 140.69C238.006 140.617 237.793 140.58 237.471 140.58C237.427 140.58 237.405 140.536 237.405 140.448C237.405 140.331 237.427 140.272 237.471 140.272C238.072 140.272 238.585 140.103 239.011 139.766C239.436 139.414 239.773 138.959 240.023 138.402C240.037 138.373 240.089 138.358 240.177 138.358C240.235 138.358 240.294 138.373 240.353 138.402C240.411 138.417 240.433 138.431 240.419 138.446L240.111 140.206C240.492 140.191 240.837 140.177 241.145 140.162C241.453 140.133 241.724 140.111 241.959 140.096C242.325 140.052 242.604 140.03 242.795 140.03ZM246.245 148.808C245.306 148.808 244.58 148.5 244.067 147.884C243.568 147.268 243.319 146.469 243.319 145.486C243.319 145.075 243.363 144.665 243.451 144.254C243.612 143.389 243.92 142.611 244.375 141.922C244.844 141.233 245.416 140.697 246.091 140.316C246.766 139.92 247.477 139.722 248.225 139.722C249.178 139.722 249.912 140.023 250.425 140.624C250.938 141.225 251.195 142.017 251.195 143C251.195 143.396 251.151 143.814 251.063 144.254C250.887 145.193 250.542 146.007 250.029 146.696C249.53 147.385 248.944 147.913 248.269 148.28C247.609 148.632 246.934 148.808 246.245 148.808ZM246.993 148.258C247.506 148.258 247.961 147.987 248.357 147.444C248.753 146.901 249.039 146.161 249.215 145.222C249.318 144.723 249.369 144.195 249.369 143.638C249.369 142.67 249.2 141.863 248.863 141.218C248.54 140.573 248.093 140.25 247.521 140.25C247.022 140.25 246.568 140.514 246.157 141.042C245.761 141.57 245.475 142.325 245.299 143.308C245.196 143.924 245.145 144.445 245.145 144.87C245.145 145.853 245.306 146.667 245.629 147.312C245.966 147.943 246.421 148.258 246.993 148.258ZM263.441 140.03C263.544 140.03 263.595 140.096 263.595 140.228C263.595 140.345 263.515 140.514 263.353 140.734C263.192 140.939 263.038 141.042 262.891 141.042C262.833 141.042 262.576 141.005 262.121 140.932C261.667 140.859 261.175 140.815 260.647 140.8L259.701 146.102C259.657 146.293 259.635 146.476 259.635 146.652C259.635 147.341 260.009 147.686 260.757 147.686C261.344 147.686 261.989 147.393 262.693 146.806H262.715C262.774 146.806 262.825 146.828 262.869 146.872C262.913 146.916 262.913 146.96 262.869 147.004C262.195 147.635 261.601 148.089 261.087 148.368C260.589 148.632 260.09 148.764 259.591 148.764C258.477 148.764 257.919 148.258 257.919 147.246C257.919 147.041 257.941 146.821 257.985 146.586L258.865 141.768C258.909 141.504 258.931 141.291 258.931 141.13C258.931 140.91 258.873 140.763 258.755 140.69C258.653 140.617 258.44 140.58 258.117 140.58C258.073 140.58 258.051 140.536 258.051 140.448C258.051 140.331 258.073 140.272 258.117 140.272C258.719 140.272 259.232 140.103 259.657 139.766C260.083 139.414 260.42 138.959 260.669 138.402C260.684 138.373 260.735 138.358 260.823 138.358C260.882 138.358 260.941 138.373 260.999 138.402C261.058 138.417 261.08 138.431 261.065 138.446L260.757 140.206C261.139 140.191 261.483 140.177 261.791 140.162C262.099 140.133 262.371 140.111 262.605 140.096C262.972 140.052 263.251 140.03 263.441 140.03ZM272.766 146.806C272.795 146.777 272.824 146.762 272.854 146.762C272.898 146.762 272.934 146.791 272.964 146.85C272.993 146.894 272.986 146.938 272.942 146.982C272.443 147.569 272.003 148.001 271.622 148.28C271.24 148.559 270.844 148.698 270.434 148.698C270.111 148.698 269.869 148.603 269.708 148.412C269.561 148.221 269.488 147.935 269.488 147.554C269.488 147.319 269.524 146.982 269.598 146.542L270.236 143.044C270.309 142.692 270.346 142.34 270.346 141.988C270.346 141.225 270.089 140.844 269.576 140.844C269.15 140.844 268.703 141.115 268.234 141.658C267.779 142.201 267.346 143 266.936 144.056C266.525 145.097 266.188 146.337 265.924 147.774L265.836 148.28C265.762 148.544 265.41 148.676 264.78 148.676C264.34 148.676 264.12 148.625 264.12 148.522L264.208 148.038C264.354 147.349 264.435 146.96 264.45 146.872L266.584 135.322C266.628 135.073 266.65 134.867 266.65 134.706C266.65 134.486 266.613 134.325 266.54 134.222C266.466 134.119 266.349 134.068 266.188 134.068C265.982 134.068 265.66 134.171 265.22 134.376H265.176C265.132 134.376 265.095 134.339 265.066 134.266C265.051 134.193 265.073 134.149 265.132 134.134L268.344 132.55H268.388C268.446 132.55 268.498 132.572 268.542 132.616C268.6 132.66 268.622 132.697 268.608 132.726L266.606 143.924C267.119 142.589 267.713 141.555 268.388 140.822C269.077 140.089 269.803 139.722 270.566 139.722C271.548 139.722 272.04 140.316 272.04 141.504C272.04 141.783 272.003 142.157 271.93 142.626L271.204 146.542C271.16 146.762 271.138 146.945 271.138 147.092C271.138 147.473 271.262 147.664 271.512 147.664C271.776 147.664 272.194 147.378 272.766 146.806ZM279.388 139.722C279.916 139.722 280.326 139.817 280.62 140.008C280.913 140.184 281.06 140.441 281.06 140.778C281.06 141.453 280.561 142.076 279.564 142.648C278.581 143.22 277.393 143.631 276 143.88C275.941 144.349 275.912 144.694 275.912 144.914C275.912 145.809 276.102 146.527 276.484 147.07C276.865 147.598 277.415 147.862 278.134 147.862C278.471 147.862 278.823 147.811 279.19 147.708C279.556 147.591 279.894 147.415 280.202 147.18H280.224C280.268 147.18 280.304 147.202 280.334 147.246C280.378 147.29 280.385 147.327 280.356 147.356C279.344 148.295 278.222 148.764 276.99 148.764C276.022 148.764 275.288 148.463 274.79 147.862C274.291 147.261 274.042 146.491 274.042 145.552C274.042 145.215 274.078 144.841 274.152 144.43C274.298 143.653 274.614 142.905 275.098 142.186C275.596 141.453 276.22 140.859 276.968 140.404C277.73 139.949 278.537 139.722 279.388 139.722ZM279.08 141.372C279.109 141.225 279.124 141.13 279.124 141.086C279.124 140.837 279.043 140.646 278.882 140.514C278.72 140.382 278.522 140.316 278.288 140.316C277.745 140.316 277.276 140.617 276.88 141.218C276.498 141.819 276.22 142.597 276.044 143.55C277.892 143.139 278.904 142.413 279.08 141.372ZM296.172 146.806C296.202 146.777 296.224 146.762 296.238 146.762C296.282 146.762 296.319 146.791 296.348 146.85C296.392 146.894 296.392 146.938 296.348 146.982C295.85 147.569 295.41 148.001 295.028 148.28C294.647 148.559 294.251 148.698 293.84 148.698C293.518 148.698 293.276 148.603 293.114 148.412C292.968 148.221 292.894 147.935 292.894 147.554C292.894 147.319 292.931 146.982 293.004 146.542L293.642 143.044C293.716 142.692 293.752 142.34 293.752 141.988C293.752 141.225 293.496 140.844 292.982 140.844C292.542 140.844 292.088 141.123 291.618 141.68C291.164 142.237 290.731 143.051 290.32 144.122C289.91 145.178 289.572 146.447 289.308 147.928L289.242 148.28C289.169 148.544 288.817 148.676 288.186 148.676C287.746 148.676 287.526 148.625 287.526 148.522L287.614 148.038C287.761 147.349 287.842 146.96 287.856 146.872L288.758 141.966C288.788 141.834 288.802 141.665 288.802 141.46C288.802 141.035 288.67 140.822 288.406 140.822C288.084 140.822 287.636 141.13 287.064 141.746C287.05 141.761 287.028 141.768 286.998 141.768C286.954 141.768 286.91 141.746 286.866 141.702C286.837 141.643 286.844 141.592 286.888 141.548C287.402 140.947 287.864 140.507 288.274 140.228C288.7 139.949 289.118 139.81 289.528 139.81C289.851 139.81 290.086 139.905 290.232 140.096C290.394 140.272 290.474 140.551 290.474 140.932C290.474 141.049 290.445 141.328 290.386 141.768L289.99 143.968C290.504 142.619 291.105 141.577 291.794 140.844C292.484 140.096 293.21 139.722 293.972 139.722C294.955 139.722 295.446 140.316 295.446 141.504C295.446 141.783 295.41 142.157 295.336 142.626L294.61 146.542C294.566 146.762 294.544 146.945 294.544 147.092C294.544 147.473 294.669 147.664 294.918 147.664C295.182 147.664 295.6 147.378 296.172 146.806ZM302.784 139.722C303.312 139.722 303.723 139.817 304.016 140.008C304.309 140.184 304.456 140.441 304.456 140.778C304.456 141.453 303.957 142.076 302.96 142.648C301.977 143.22 300.789 143.631 299.396 143.88C299.337 144.349 299.308 144.694 299.308 144.914C299.308 145.809 299.499 146.527 299.88 147.07C300.261 147.598 300.811 147.862 301.53 147.862C301.867 147.862 302.219 147.811 302.586 147.708C302.953 147.591 303.29 147.415 303.598 147.18H303.62C303.664 147.18 303.701 147.202 303.73 147.246C303.774 147.29 303.781 147.327 303.752 147.356C302.74 148.295 301.618 148.764 300.386 148.764C299.418 148.764 298.685 148.463 298.186 147.862C297.687 147.261 297.438 146.491 297.438 145.552C297.438 145.215 297.475 144.841 297.548 144.43C297.695 143.653 298.01 142.905 298.494 142.186C298.993 141.453 299.616 140.859 300.364 140.404C301.127 139.949 301.933 139.722 302.784 139.722ZM302.476 141.372C302.505 141.225 302.52 141.13 302.52 141.086C302.52 140.837 302.439 140.646 302.278 140.514C302.117 140.382 301.919 140.316 301.684 140.316C301.141 140.316 300.672 140.617 300.276 141.218C299.895 141.819 299.616 142.597 299.44 143.55C301.288 143.139 302.3 142.413 302.476 141.372ZM312.697 139.81C313.049 139.81 313.364 139.949 313.643 140.228C313.936 140.492 314.061 140.793 314.017 141.13C313.987 141.335 313.892 141.511 313.731 141.658C313.569 141.79 313.371 141.856 313.137 141.856C312.975 141.856 312.836 141.827 312.719 141.768C312.616 141.709 312.506 141.629 312.389 141.526C312.315 141.453 312.235 141.394 312.147 141.35C312.059 141.291 311.963 141.262 311.861 141.262C311.655 141.262 311.428 141.438 311.179 141.79L310.035 143.484L310.981 146.52C311.113 146.96 311.259 147.246 311.421 147.378C311.597 147.51 311.795 147.576 312.015 147.576C312.22 147.576 312.418 147.517 312.609 147.4C312.799 147.283 313.012 147.107 313.247 146.872C313.261 146.857 313.283 146.85 313.313 146.85C313.371 146.85 313.415 146.879 313.445 146.938C313.474 146.982 313.467 147.019 313.423 147.048C312.88 147.62 312.403 148.045 311.993 148.324C311.582 148.588 311.193 148.72 310.827 148.72C310.475 148.72 310.189 148.617 309.969 148.412C309.763 148.192 309.565 147.796 309.375 147.224L308.759 145.266L307.571 147.136C307.16 147.796 306.845 148.229 306.625 148.434C306.405 148.625 306.126 148.72 305.789 148.72C305.437 148.72 305.121 148.588 304.843 148.324C304.564 148.045 304.454 147.737 304.513 147.4C304.542 147.209 304.637 147.048 304.799 146.916C304.96 146.769 305.151 146.696 305.371 146.696C305.547 146.696 305.686 146.725 305.789 146.784C305.891 146.828 306.009 146.901 306.141 147.004C306.302 147.165 306.463 147.246 306.625 147.246C306.845 147.246 307.079 147.077 307.329 146.74L308.627 144.826L307.747 142.076C307.615 141.636 307.453 141.343 307.263 141.196C307.087 141.035 306.896 140.954 306.691 140.954C306.324 140.954 305.906 141.189 305.437 141.658C305.422 141.673 305.4 141.68 305.371 141.68C305.327 141.68 305.283 141.658 305.239 141.614C305.209 141.555 305.217 141.511 305.261 141.482C305.803 140.91 306.28 140.492 306.691 140.228C307.116 139.949 307.505 139.81 307.857 139.81C308.223 139.81 308.517 139.92 308.737 140.14C308.957 140.36 309.162 140.763 309.353 141.35L309.881 143.044L310.937 141.394C311.347 140.734 311.663 140.309 311.883 140.118C312.103 139.913 312.374 139.81 312.697 139.81ZM320.611 140.03C320.714 140.03 320.765 140.096 320.765 140.228C320.765 140.345 320.685 140.514 320.523 140.734C320.362 140.939 320.208 141.042 320.061 141.042C320.003 141.042 319.746 141.005 319.291 140.932C318.837 140.859 318.345 140.815 317.817 140.8L316.871 146.102C316.827 146.293 316.805 146.476 316.805 146.652C316.805 147.341 317.179 147.686 317.927 147.686C318.514 147.686 319.159 147.393 319.863 146.806H319.885C319.944 146.806 319.995 146.828 320.039 146.872C320.083 146.916 320.083 146.96 320.039 147.004C319.365 147.635 318.771 148.089 318.257 148.368C317.759 148.632 317.26 148.764 316.761 148.764C315.647 148.764 315.089 148.258 315.089 147.246C315.089 147.041 315.111 146.821 315.155 146.586L316.035 141.768C316.079 141.504 316.101 141.291 316.101 141.13C316.101 140.91 316.043 140.763 315.925 140.69C315.823 140.617 315.61 140.58 315.287 140.58C315.243 140.58 315.221 140.536 315.221 140.448C315.221 140.331 315.243 140.272 315.287 140.272C315.889 140.272 316.402 140.103 316.827 139.766C317.253 139.414 317.59 138.959 317.839 138.402C317.854 138.373 317.905 138.358 317.993 138.358C318.052 138.358 318.111 138.373 318.169 138.402C318.228 138.417 318.25 138.431 318.235 138.446L317.927 140.206C318.309 140.191 318.653 140.177 318.961 140.162C319.269 140.133 319.541 140.111 319.775 140.096C320.142 140.052 320.421 140.03 320.611 140.03ZM63.65 175.698C63.2833 175.698 62.9973 175.595 62.792 175.39C62.5867 175.185 62.484 174.906 62.484 174.554C62.484 174.217 62.5867 173.953 62.792 173.762C62.9973 173.557 63.2833 173.454 63.65 173.454C64.002 173.454 64.2733 173.557 64.464 173.762C64.6547 173.953 64.75 174.217 64.75 174.554C64.75 174.906 64.6547 175.185 64.464 175.39C64.2733 175.595 64.002 175.698 63.65 175.698ZM78.8487 175.698C78.5114 175.698 78.2621 175.603 78.1007 175.412C77.9541 175.221 77.8807 174.928 77.8807 174.532C77.8807 174.312 77.9174 173.982 77.9907 173.542L80.0587 162.322C80.1027 162.073 80.1247 161.86 80.1247 161.684C80.1247 161.273 79.9781 161.068 79.6847 161.068C79.4794 161.068 79.1567 161.171 78.7167 161.376H78.6727C78.6141 161.376 78.5774 161.339 78.5627 161.266C78.5481 161.193 78.5701 161.149 78.6287 161.134L81.8407 159.55H81.8847C81.9434 159.55 81.9947 159.572 82.0387 159.616C82.0974 159.66 82.1194 159.697 82.1047 159.726L79.6187 173.542C79.5747 173.762 79.5527 173.953 79.5527 174.114C79.5527 174.481 79.6701 174.664 79.9047 174.664C80.1687 174.664 80.5867 174.378 81.1587 173.806C81.1881 173.777 81.2174 173.762 81.2467 173.762C81.2907 173.762 81.3274 173.791 81.3567 173.85C81.3861 173.894 81.3787 173.938 81.3347 173.982C80.8361 174.569 80.3961 175.001 80.0147 175.28C79.6334 175.559 79.2447 175.698 78.8487 175.698ZM88.0478 166.722C88.5758 166.722 88.9865 166.817 89.2798 167.008C89.5732 167.184 89.7198 167.441 89.7198 167.778C89.7198 168.453 89.2212 169.076 88.2238 169.648C87.2412 170.22 86.0532 170.631 84.6598 170.88C84.6012 171.349 84.5718 171.694 84.5718 171.914C84.5718 172.809 84.7625 173.527 85.1438 174.07C85.5252 174.598 86.0752 174.862 86.7938 174.862C87.1312 174.862 87.4832 174.811 87.8498 174.708C88.2165 174.591 88.5538 174.415 88.8618 174.18H88.8838C88.9278 174.18 88.9645 174.202 88.9938 174.246C89.0378 174.29 89.0452 174.327 89.0158 174.356C88.0038 175.295 86.8818 175.764 85.6498 175.764C84.6818 175.764 83.9485 175.463 83.4498 174.862C82.9512 174.261 82.7018 173.491 82.7018 172.552C82.7018 172.215 82.7385 171.841 82.8118 171.43C82.9585 170.653 83.2738 169.905 83.7578 169.186C84.2565 168.453 84.8798 167.859 85.6278 167.404C86.3905 166.949 87.1972 166.722 88.0478 166.722ZM87.7398 168.372C87.7692 168.225 87.7838 168.13 87.7838 168.086C87.7838 167.837 87.7032 167.646 87.5418 167.514C87.3805 167.382 87.1825 167.316 86.9478 167.316C86.4052 167.316 85.9358 167.617 85.5398 168.218C85.1585 168.819 84.8798 169.597 84.7038 170.55C86.5518 170.139 87.5638 169.413 87.7398 168.372ZM94.0442 175.786C93.3549 175.786 92.8049 175.515 92.3942 174.972C91.9835 174.415 91.8002 173.769 91.8442 173.036C91.8882 172.64 91.9909 172.244 92.1522 171.848C92.3135 171.437 92.5629 170.909 92.9002 170.264C93.2229 169.619 93.4135 169.23 93.4722 169.098C93.5749 168.863 93.6262 168.717 93.6262 168.658C93.6262 168.541 93.5382 168.482 93.3622 168.482H92.2842C91.7562 168.482 91.3822 168.555 91.1622 168.702C90.9422 168.849 90.7662 169.12 90.6342 169.516C90.6195 169.56 90.5755 169.582 90.5022 169.582C90.4582 169.582 90.4215 169.567 90.3922 169.538C90.3629 169.509 90.3555 169.472 90.3702 169.428C90.6049 168.739 90.8029 168.233 90.9642 167.91C91.1402 167.573 91.3529 167.338 91.6022 167.206C91.8515 167.059 92.1962 166.986 92.6362 166.986H94.6602C94.8215 166.986 94.9022 167.015 94.9022 167.074C94.9022 167.118 94.8802 167.177 94.8362 167.25C94.4989 168.013 94.1982 168.79 93.9342 169.582C93.6702 170.374 93.5015 171.041 93.4282 171.584C93.3842 171.819 93.3622 172.046 93.3622 172.266C93.3622 172.882 93.5089 173.373 93.8022 173.74C94.0955 174.107 94.4842 174.29 94.9682 174.29C95.6135 174.29 96.2222 173.997 96.7942 173.41C97.3662 172.823 97.7402 172.068 97.9162 171.144C97.9749 170.895 98.0042 170.645 98.0042 170.396C98.0042 170.029 97.9382 169.736 97.8062 169.516C97.6889 169.281 97.5129 169.039 97.2782 168.79C97.0875 168.585 96.9409 168.409 96.8382 168.262C96.7502 168.115 96.7062 167.947 96.7062 167.756C96.7062 167.433 96.8089 167.191 97.0142 167.03C97.2342 166.869 97.4982 166.788 97.8062 166.788C98.5542 166.788 98.9282 167.426 98.9282 168.702C98.9282 168.995 98.9062 169.34 98.8622 169.736C98.7449 170.836 98.4295 171.848 97.9162 172.772C97.4029 173.696 96.7942 174.429 96.0902 174.972C95.4009 175.515 94.7189 175.786 94.0442 175.786ZM105.536 166.722C106.064 166.722 106.475 166.817 106.768 167.008C107.061 167.184 107.208 167.441 107.208 167.778C107.208 168.453 106.709 169.076 105.712 169.648C104.729 170.22 103.541 170.631 102.148 170.88C102.089 171.349 102.06 171.694 102.06 171.914C102.06 172.809 102.251 173.527 102.632 174.07C103.013 174.598 103.563 174.862 104.282 174.862C104.619 174.862 104.971 174.811 105.338 174.708C105.705 174.591 106.042 174.415 106.35 174.18H106.372C106.416 174.18 106.453 174.202 106.482 174.246C106.526 174.29 106.533 174.327 106.504 174.356C105.492 175.295 104.37 175.764 103.138 175.764C102.17 175.764 101.437 175.463 100.938 174.862C100.439 174.261 100.19 173.491 100.19 172.552C100.19 172.215 100.227 171.841 100.3 171.43C100.447 170.653 100.762 169.905 101.246 169.186C101.745 168.453 102.368 167.859 103.116 167.404C103.879 166.949 104.685 166.722 105.536 166.722ZM105.228 168.372C105.257 168.225 105.272 168.13 105.272 168.086C105.272 167.837 105.191 167.646 105.03 167.514C104.869 167.382 104.671 167.316 104.436 167.316C103.893 167.316 103.424 167.617 103.028 168.218C102.647 168.819 102.368 169.597 102.192 170.55C104.04 170.139 105.052 169.413 105.228 168.372ZM109.442 175.698C109.105 175.698 108.856 175.603 108.694 175.412C108.548 175.221 108.474 174.928 108.474 174.532C108.474 174.312 108.511 173.982 108.584 173.542L110.652 162.322C110.696 162.073 110.718 161.86 110.718 161.684C110.718 161.273 110.572 161.068 110.278 161.068C110.073 161.068 109.75 161.171 109.31 161.376H109.266C109.208 161.376 109.171 161.339 109.156 161.266C109.142 161.193 109.164 161.149 109.222 161.134L112.434 159.55H112.478C112.537 159.55 112.588 159.572 112.632 159.616C112.691 159.66 112.713 159.697 112.698 159.726L110.212 173.542C110.168 173.762 110.146 173.953 110.146 174.114C110.146 174.481 110.264 174.664 110.498 174.664C110.762 174.664 111.18 174.378 111.752 173.806C111.782 173.777 111.811 173.762 111.84 173.762C111.884 173.762 111.921 173.791 111.95 173.85C111.98 173.894 111.972 173.938 111.928 173.982C111.43 174.569 110.99 175.001 110.608 175.28C110.227 175.559 109.838 175.698 109.442 175.698ZM115.254 171.298C115.239 171.371 115.188 171.408 115.1 171.408C115.026 171.393 114.997 171.349 115.012 171.276C115.334 167.345 115.525 164.199 115.584 161.838C115.584 161.779 115.723 161.721 116.002 161.662C116.295 161.603 116.581 161.574 116.86 161.574C117.168 161.574 117.454 161.603 117.718 161.662C117.996 161.721 118.121 161.779 118.092 161.838C117.226 164.097 116.28 167.25 115.254 171.298ZM114.682 175.698C114.315 175.698 114.029 175.595 113.824 175.39C113.618 175.185 113.516 174.906 113.516 174.554C113.516 174.217 113.618 173.953 113.824 173.762C114.029 173.557 114.315 173.454 114.682 173.454C115.034 173.454 115.305 173.557 115.496 173.762C115.686 173.953 115.782 174.217 115.782 174.554C115.782 174.906 115.686 175.185 115.496 175.39C115.305 175.595 115.034 175.698 114.682 175.698Z" fill="#22262A"/>
</g>
</g>
<rect x="32" y="0.5" width="331" height="211" rx="30" stroke="#22262A"/>
<path d="M4.1542 182.786C5.28826 178.554 19.0739 178.57 34.9453 182.823C50.8168 187.076 62.7638 193.954 61.6297 198.187" stroke="#22262A" stroke-width="2"/>
<path d="M1.93012 191.088C3.06419 186.855 16.8499 186.872 32.7213 191.125C48.5927 195.377 60.5397 202.256 59.4056 206.488" stroke="#22262A" stroke-width="2"/>
<path d="M78.2358 119.61L74.8134 132.382L65.5535 129.901C72.9262 130.165 74.5115 128.879 78.2358 119.61Z" fill="#22262A"/>
<path d="M71.3906 145.154L74.813 132.382L65.553 129.901C72.0702 133.358 72.7999 135.265 71.3906 145.154Z" fill="#22262A"/>
<path d="M78.2357 119.609L74.8134 132.381L84.0733 134.863C77.5562 131.405 76.8265 129.499 78.2357 119.609Z" fill="#22262A"/>
<path d="M71.3907 145.154L74.8131 132.382L84.073 134.863C76.7003 134.599 75.115 135.885 71.3907 145.154Z" fill="#22262A"/>
<path d="M8.58299 136.881L54.5155 109.147L80.4274 156.131L62.4663 151.319L46.8947 209.433L10.9725 199.807L26.5441 141.693L8.58299 136.881Z" fill="url(#paint1_linear_1251_22649)" stroke="#22262A" stroke-width="2"/>
<path d="M61.6297 198.186C60.4956 202.419 46.71 202.402 30.8385 198.149C14.9671 193.897 3.02011 187.018 4.15417 182.786" stroke="#22262A" stroke-width="2"/>
<path d="M59.4051 206.488C58.2711 210.72 44.4854 210.704 28.614 206.451C12.7426 202.198 0.795562 195.32 1.92963 191.087" stroke="#22262A" stroke-width="2"/>
<defs>
<filter id="filter0_b_1251_22649" x="-18" y="20.5" width="431" height="241" filterUnits="userSpaceOnUse" color-interpolation-filters="sRGB">
<feFlood flood-opacity="0" result="BackgroundImageFix"/>
<feGaussianBlur in="BackgroundImage" stdDeviation="25"/>
<feComposite in2="SourceAlpha" operator="in" result="effect1_backgroundBlur_1251_22649"/>
<feBlend mode="normal" in="SourceGraphic" in2="effect1_backgroundBlur_1251_22649" result="shape"/>
</filter>
<linearGradient id="paint0_linear_1251_22649" x1="62" y1="27.4079" x2="323.283" y2="62.8164" gradientUnits="userSpaceOnUse">
<stop offset="0.267495" stop-color="#FFC6CE"/>
<stop offset="1" stop-color="#64D6EE"/>
</linearGradient>
<linearGradient id="paint1_linear_1251_22649" x1="12.7027" y1="121.505" x2="83.0209" y2="141.201" gradientUnits="userSpaceOnUse">
<stop offset="0.267495" stop-color="#FFC6CE"/>
<stop offset="1" stop-color="#64D6EE"/>
</linearGradient>
<clipPath id="clip0_1251_22649">
<rect x="32" y="0.5" width="331" height="211" rx="30" fill="white"/>
</clipPath>
</defs>
</svg>
