<svg width="538" height="438" viewBox="0 0 538 438" fill="none" xmlns="http://www.w3.org/2000/svg">
<path d="M234.779 141.867L365.088 222.739L506.761 175.389L474.638 371.191L340.835 419.511L219.284 346.821L234.779 141.867Z" fill="url(#paint0_linear_847_4020)"/>
<path d="M365.088 222.739L234.779 141.867L219.284 346.821L340.835 419.511M365.088 222.739L506.761 175.389L474.638 371.191L340.835 419.511M365.088 222.739L340.835 419.511" stroke="#22262A" stroke-width="2"/>
<path d="M223.41 140.466L211.707 199.396L350.235 292.823L514.071 231.336L517.795 172.31L376.104 82.9325L223.41 140.466Z" fill="url(#paint1_linear_847_4020)"/>
<path d="M517.795 172.31L356.139 230.514M517.795 172.31L514.071 231.336L350.235 292.823M517.795 172.31L376.104 82.9325L223.41 140.466M356.139 230.514L223.41 140.466M356.139 230.514L350.235 292.823M223.41 140.466L211.707 199.396L350.235 292.823" stroke="#22262A" stroke-width="2"/>
<path d="M294.335 342.976L291.384 366.916L288.434 390.857L274.822 382.441L261.21 374.024L247.186 365.353L250.163 341.194L253.141 317.035L256.119 292.875L259.096 268.716L262.074 244.557L265.052 220.398L268.029 196.239L271.007 172.079L290.353 164.587L309.699 157.094L329.045 149.601L348.391 142.109L367.737 134.616L387.082 127.123L406.428 119.631L425.774 112.138L439.367 120.707L452.96 129.276L467.789 138.624L448.32 146.213L428.852 153.801L409.383 161.39L389.914 168.978L370.446 176.567L350.977 184.155L331.508 191.744L312.039 199.332L309.089 223.273L306.138 247.213L303.187 271.154L300.237 295.095L297.286 319.035L294.335 342.976Z" fill="#22262A"/>
<path d="M271.007 172.079L268.029 196.239M271.007 172.079L290.353 164.587M271.007 172.079L309.089 223.273M271.007 172.079C272.461 174.034 337.905 175.886 370.446 176.567M425.774 112.138L406.428 119.631M425.774 112.138L448.32 146.213M425.774 112.138L439.367 120.707M467.789 138.624L448.32 146.213M467.789 138.624L367.737 134.616M467.789 138.624L452.96 129.276M312.039 199.332L309.089 223.273M312.039 199.332L331.508 191.744M312.039 199.332L262.074 244.557M312.039 199.332L305.737 189.235M288.434 390.857L291.384 366.916M288.434 390.857L250.163 341.194M288.434 390.857L274.822 382.441M247.186 365.353L250.163 341.194M247.186 365.353L297.286 319.035M247.186 365.353L261.21 374.024M348.391 142.109L329.045 149.601M348.391 142.109L367.737 134.616M348.391 142.109L370.446 176.567M348.391 142.109L448.32 146.213M309.699 157.094L290.353 164.587M309.699 157.094L329.045 149.601M309.699 157.094L331.508 191.744M309.699 157.094C312.309 156.083 377.243 159.537 409.383 161.39M387.082 127.123L367.737 134.616M387.082 127.123L406.428 119.631M387.082 127.123L409.383 161.39M387.082 127.123L452.96 129.276M389.914 168.978L370.446 176.567M389.914 168.978L409.383 161.39M389.914 168.978L367.737 134.616M389.914 168.978L290.353 164.587M350.977 184.155L370.446 176.567M350.977 184.155L329.045 149.601M350.977 184.155L331.508 191.744M350.977 184.155L292.008 181.77L268.029 196.239M428.852 153.801L409.383 161.39M428.852 153.801L448.32 146.213M428.852 153.801L406.428 119.631M428.852 153.801C396.676 152.536 331.668 149.925 329.045 149.601M300.237 295.095L297.286 319.035M300.237 295.095L303.187 271.154M300.237 295.095L262.074 244.557M300.237 295.095L250.163 341.194M306.138 247.214L303.187 271.154M306.138 247.214L309.089 223.273M306.138 247.214L268.029 196.239M306.138 247.214L256.119 292.875M294.335 342.976L291.384 366.916M294.335 342.976L297.286 319.035M294.335 342.976L256.119 292.875M294.335 342.976L261.21 374.024M291.384 366.916L253.141 317.035M291.384 366.916L274.822 382.441M297.286 319.035L259.096 268.716M303.187 271.154L265.052 220.398M303.187 271.154C287.519 285.426 255.574 314.582 253.141 317.035M309.089 223.273L259.096 268.716M259.096 268.716L262.074 244.557M259.096 268.716L256.119 292.875M265.052 220.398L268.029 196.239M265.052 220.398L262.074 244.557M265.052 220.398L305.737 189.235M253.141 317.035L256.119 292.875M253.141 317.035L250.163 341.194M290.353 164.587L305.737 189.235M331.508 191.744L305.737 189.235M406.428 119.631L439.367 120.707M452.96 129.276L439.367 120.707M261.21 374.024L274.822 382.441" stroke="url(#paint2_linear_847_4020)"/>
<path d="M438.36 362.985L435.392 387.072L410.288 396.258L385.185 405.445L387.616 381.218L390.047 356.992L392.478 332.765L394.909 308.539L397.34 284.312L399.771 260.086L402.202 235.859L404.633 211.632L388.192 200.062L371.75 188.491L355.309 176.921L338.867 165.35L322.426 153.779L305.985 142.209L289.543 130.638L273.102 119.068L298.661 109.788L324.22 100.509L341.085 112.243L357.95 123.977L374.815 135.71L391.681 147.444L408.546 159.178L425.411 170.912L442.276 182.645L459.141 194.379L456.173 218.466L453.204 242.552L450.235 266.639L447.267 290.725L444.298 314.812L441.329 338.899L438.36 362.985Z" fill="#22262A"/>
<path d="M273.102 119.068L289.543 130.638M273.102 119.068L298.661 109.788M273.102 119.068L357.95 123.977M404.633 211.632L402.202 235.859M404.633 211.632L388.192 200.062M404.633 211.632L425.411 170.912M404.633 211.632L453.204 242.552M385.185 405.445L387.616 381.218M385.185 405.445L441.329 338.899M385.185 405.445L410.288 396.258M435.392 387.072L438.36 362.985M435.392 387.072L410.288 396.258M435.392 387.072L390.047 356.992M459.141 194.379L456.173 218.466M459.141 194.379L442.276 182.645M459.141 194.379L399.771 260.086M459.141 194.379L371.75 188.491M324.22 100.509L341.085 112.243M324.22 100.509L305.985 142.209M324.22 100.509L298.661 109.788M338.867 165.35L355.309 176.921M338.867 165.35L322.426 153.779M338.867 165.35L357.95 123.977M338.867 165.35L425.411 170.912M305.985 142.209L322.426 153.779M305.985 142.209L289.543 130.638M305.985 142.209L391.681 147.444M371.75 188.491L388.192 200.062M371.75 188.491L355.309 176.921M371.75 188.491L391.681 147.444M391.681 147.444L374.815 135.71M391.681 147.444L408.546 159.178M357.95 123.977L341.085 112.243M357.95 123.977L374.815 135.71M425.411 170.912L408.546 159.178M425.411 170.912L442.276 182.645M394.909 308.539L392.478 332.765M394.909 308.539L397.34 284.312M394.909 308.539L453.204 242.552M394.909 308.539L441.329 338.899M390.047 356.992L392.478 332.765M390.047 356.992L387.616 381.218M390.047 356.992L447.267 290.725M399.771 260.086L402.202 235.859M399.771 260.086L397.34 284.312M399.771 260.086L447.267 290.725M447.267 290.725L444.298 314.812M447.267 290.725L450.235 266.639M453.204 242.552L456.173 218.466M453.204 242.552L450.235 266.639M441.329 338.899L438.36 362.985M441.329 338.899L444.298 314.812M438.36 362.985L410.288 396.258M438.36 362.985L392.478 332.765M444.298 314.812L387.616 381.218M444.298 314.812L397.34 284.312M392.478 332.765L450.235 266.639M387.616 381.218L410.288 396.258M402.202 235.859L450.235 266.639M402.202 235.859L429.467 205.149M456.173 218.466L397.34 284.312M456.173 218.466L429.467 205.149M388.192 200.062L408.546 159.178M388.192 200.062L429.467 205.149M355.309 176.921L374.815 135.71M355.309 176.921L442.276 182.645M322.426 153.779L341.085 112.243M322.426 153.779L408.546 159.178M289.543 130.638L298.661 109.788M289.543 130.638L374.815 135.71M341.085 112.243L298.661 109.788M442.276 182.645L432.486 201.748L429.467 205.149" stroke="url(#paint3_linear_847_4020)"/>
<path fill-rule="evenodd" clip-rule="evenodd" d="M379.372 60.7313C355.079 90.4538 360.079 133.011 371.84 159.683C384.23 150.297 398.788 145.99 412.59 141.906C437.841 134.435 460.563 127.712 462.848 92.0064C463.233 86.005 462.834 80.5876 461.788 75.7363C460.842 71.3507 459.366 67.4278 457.46 63.9543C455.191 59.8192 452.312 56.321 448.99 53.4373C445.44 50.3551 441.384 47.975 437.027 46.2698C432.512 44.5028 427.674 43.4604 422.74 43.1124C417.683 42.7557 412.526 43.1284 407.513 44.1978C402.469 45.274 397.57 47.0558 393.068 49.5099C387.838 52.3606 383.142 56.1185 379.372 60.7313ZM371.84 159.683C381.593 148.84 391.908 139.296 401.171 130.727C416.002 117.005 428.134 105.782 430.932 95.7176C431.434 93.9137 431.594 92.2176 431.464 90.6433C431.326 88.9641 430.859 87.4236 430.125 86.039C429.324 84.5275 428.206 83.2018 426.853 82.0844C425.634 81.0775 424.224 80.2398 422.684 79.5877C420.828 78.8023 418.784 78.2863 416.656 78.0684C414.866 77.885 413.016 77.9127 411.169 78.1686C409.035 78.4644 406.905 79.0652 404.877 79.9975C402.855 80.9269 400.934 82.1857 399.21 83.8001C386.465 95.737 368.623 121.564 371.84 159.683Z" fill="#22262A"/>
<path d="M371.84 159.683C360.079 133.011 355.079 90.4538 379.372 60.7313C383.142 56.1185 387.838 52.3606 393.068 49.5099C397.57 47.0558 402.469 45.274 407.513 44.1978C412.526 43.1284 417.683 42.7557 422.74 43.1124C427.674 43.4604 432.512 44.5028 437.027 46.2698C441.384 47.975 445.44 50.3551 448.99 53.4373C452.312 56.321 455.191 59.8192 457.46 63.9543C459.366 67.4278 460.842 71.3507 461.788 75.7363C462.834 80.5876 463.233 86.005 462.848 92.0065C460.563 127.712 437.841 134.435 412.59 141.906C398.788 145.99 384.23 150.297 371.84 159.683ZM371.84 159.683C368.623 121.564 386.465 95.737 399.21 83.8001C400.934 82.1857 402.855 80.9269 404.877 79.9975C406.905 79.0652 409.035 78.4644 411.169 78.1686C413.016 77.9127 414.866 77.885 416.656 78.0683C418.784 78.2863 420.828 78.8023 422.684 79.5877C424.224 80.2398 425.634 81.0775 426.853 82.0844C428.206 83.2018 429.324 84.5275 430.125 86.039C430.859 87.4236 431.326 88.9641 431.464 90.6433C431.594 92.2176 431.434 93.9137 430.932 95.7176C428.134 105.782 416.002 117.005 401.171 130.727C391.908 139.296 381.593 148.84 371.84 159.683Z" stroke="url(#paint4_linear_847_4020)"/>
<path fill-rule="evenodd" clip-rule="evenodd" d="M353.109 80.0936C376.508 100.077 378.629 134.361 373.153 157.077C362.042 151.439 349.944 150.116 338.474 148.861C317.49 146.567 298.609 144.502 291.717 116.662C281.058 73.6046 329.71 60.1097 353.109 80.0936ZM373.153 157.077C363.914 149.913 354.417 143.855 345.889 138.416C332.234 129.705 321.065 122.581 317.422 115.041C311.505 102.792 328.993 93.5187 340.748 101.118C352.503 108.718 370.258 126.549 373.153 157.077Z" fill="#22262A"/>
<path d="M373.153 157.077C378.629 134.361 376.508 100.077 353.109 80.0936C329.71 60.1097 281.058 73.6046 291.717 116.662C298.609 144.502 317.49 146.567 338.474 148.861C349.944 150.116 362.042 151.439 373.153 157.077ZM373.153 157.077C370.258 126.549 352.503 108.718 340.748 101.118C328.993 93.5187 311.505 102.792 317.422 115.041C321.065 122.581 332.234 129.705 345.889 138.416C354.417 143.855 363.914 149.913 373.153 157.077Z" stroke="url(#paint5_linear_847_4020)"/>
<path d="M36.0605 246.905L139.911 264.839L217.957 198.166L247.954 331.173L175.173 396.437L79.0093 381.457L36.0605 246.905Z" fill="url(#paint6_linear_847_4020)"/>
<path d="M139.911 264.839L36.0605 246.905L79.0093 381.457L175.173 396.437M139.911 264.839L217.957 198.166L247.954 331.173L175.173 396.437M139.911 264.839L175.173 396.437" stroke="#22262A" stroke-width="2"/>
<path d="M28.4572 248.942L36.1896 289.497L148.511 313.311L237.032 231.921L224.192 193.361L110.899 172.941L28.4572 248.942Z" fill="url(#paint7_linear_847_4020)"/>
<path d="M224.192 193.361L136.215 272.099M224.192 193.361L237.032 231.921L148.511 313.311M224.192 193.361L110.899 172.941L28.4572 248.942M136.215 272.099L28.4572 248.942M136.215 272.099L148.511 313.311M28.4572 248.942L36.1896 289.497L148.511 313.311" stroke="#22262A" stroke-width="2"/>
<path d="M125.827 359.666L130.117 375.677L134.408 391.688L123.568 389.834L112.728 387.981L101.559 386.071L97.23 369.914L92.9007 353.757L88.5714 337.6L84.2421 321.443L79.9128 305.285L75.5835 289.128L71.2542 272.971L66.9249 256.814L77.3176 247.055L87.7103 237.296L98.103 227.538L108.496 217.779L118.888 208.021L129.281 198.262L139.674 188.503L150.066 178.745L160.934 180.7L171.801 182.656L183.656 184.789L173.21 194.641L162.764 204.492L152.318 214.343L141.871 224.194L131.425 234.046L120.979 243.897L110.533 253.748L100.087 263.6L104.377 279.611L108.667 295.622L112.957 311.633L117.247 327.644L121.537 343.655L125.827 359.666Z" fill="#22262A"/>
<path d="M66.9249 256.814L71.2542 272.971M66.9249 256.814L77.3176 247.055M66.9249 256.814L104.377 279.611M66.9249 256.814C68.355 257.684 110.521 241.998 131.425 234.046M150.066 178.745L139.674 188.503M150.066 178.745L173.21 194.641M150.066 178.745L160.934 180.7M183.656 184.789L173.21 194.641M183.656 184.789L118.888 208.021M183.656 184.789L171.801 182.656M100.087 263.6L104.377 279.611M100.087 263.6L110.533 253.748M100.087 263.6L79.9128 305.285M100.087 263.6L93.4699 258.792M134.408 391.688L130.117 375.677M134.408 391.688L97.23 369.914M134.408 391.688L123.568 389.834M101.559 386.071L97.23 369.914M101.559 386.071L121.537 343.655M101.559 386.071L112.728 387.981M108.496 217.779L98.103 227.538M108.496 217.779L118.888 208.021M108.496 217.779L131.425 234.046M108.496 217.779L173.21 194.641M87.7103 237.296L77.3176 247.055M87.7103 237.296L98.103 227.538M87.7103 237.296L110.533 253.748M87.7103 237.296C89.1127 235.98 131.366 221.446 152.318 214.343M129.281 198.262L118.888 208.021M129.281 198.262L139.674 188.503M129.281 198.262L152.318 214.343M129.281 198.262L171.801 182.656M141.871 224.194L131.425 234.046M141.871 224.194L152.318 214.343M141.871 224.194L118.888 208.021M141.871 224.194L77.3176 247.055M120.979 243.897L131.425 234.046M120.979 243.897L98.103 227.538M120.979 243.897L110.533 253.748M120.979 243.897L82.8005 257.575L71.2542 272.971M162.764 204.492L152.318 214.343M162.764 204.492L173.21 194.641M162.764 204.492L139.674 188.503M162.764 204.492C141.941 211.978 99.8576 227.068 98.103 227.538M117.247 327.644L121.537 343.655M117.247 327.644L112.957 311.633M117.247 327.644L79.9128 305.285M117.247 327.644L97.23 369.914M108.667 295.622L112.957 311.633M108.667 295.622L104.377 279.611M108.667 295.622L71.2542 272.971M108.667 295.622L88.5714 337.6M125.827 359.666L130.117 375.677M125.827 359.666L121.537 343.655M125.827 359.666L88.5714 337.6M125.827 359.666L112.728 387.981M130.117 375.677L92.9007 353.757M130.117 375.677L123.568 389.834M121.537 343.655L84.2421 321.443M112.957 311.633L75.5835 289.128M112.957 311.633C106.654 324.762 93.8186 351.568 92.9007 353.757M104.377 279.611L84.2421 321.443M84.2421 321.443L79.9128 305.285M84.2421 321.443L88.5714 337.6M75.5835 289.128L71.2542 272.971M75.5835 289.128L79.9128 305.285M75.5835 289.128L93.4699 258.792M92.9007 353.757L88.5714 337.6M92.9007 353.757L97.23 369.914M77.3176 247.055L93.4699 258.792M110.533 253.748L93.4699 258.792M139.674 188.503L160.934 180.7M171.801 182.656L160.934 180.7M112.728 387.981L123.568 389.834" stroke="url(#paint8_linear_847_4020)"/>
<path d="M222.73 335.295L227.047 351.404L213.423 363.725L199.799 376.047L195.104 359.988L190.409 343.928L185.714 327.869L181.019 311.81L176.325 295.751L171.63 279.691L166.935 263.632L162.24 247.573L148.785 244.439L135.329 241.306L121.874 238.172L108.419 235.039L94.9633 231.905L81.508 228.772L68.0526 225.638L54.5973 222.505L68.4874 210.007L82.3774 197.509L96.1448 200.637L109.912 203.765L123.68 206.894L137.447 210.022L151.214 213.15L164.982 216.278L178.749 219.407L192.516 222.535L196.833 238.643L201.149 254.752L205.465 270.861L209.781 286.969L214.098 303.078L218.414 319.187L222.73 335.295Z" fill="#22262A"/>
<path d="M54.5973 222.505L68.0526 225.638M54.5973 222.505L68.4874 210.007M54.5973 222.505L109.912 203.765M162.24 247.573L166.935 263.632M162.24 247.573L148.785 244.439M162.24 247.573L164.982 216.278M162.24 247.573L201.149 254.752M199.799 376.047L195.104 359.988M199.799 376.047L218.414 319.187M199.799 376.047L213.423 363.725M227.047 351.404L222.73 335.295M227.047 351.404L213.423 363.725M227.047 351.404L190.409 343.928M192.516 222.535L196.833 238.643M192.516 222.535L178.749 219.407M192.516 222.535L171.63 279.691M192.516 222.535L135.329 241.306M82.3774 197.509L96.1448 200.637M82.3774 197.509L81.508 228.772M82.3774 197.509L68.4874 210.007M108.419 235.039L121.874 238.172M108.419 235.039L94.9633 231.905M108.419 235.039L109.912 203.765M108.419 235.039L164.982 216.278M81.508 228.772L94.9633 231.905M81.508 228.772L68.0526 225.638M81.508 228.772L137.447 210.022M135.329 241.306L148.785 244.439M135.329 241.306L121.874 238.172M135.329 241.306L137.447 210.022M137.447 210.022L123.68 206.894M137.447 210.022L151.214 213.15M109.912 203.765L96.1448 200.637M109.912 203.765L123.68 206.894M164.982 216.278L151.214 213.15M164.982 216.278L178.749 219.407M181.019 311.81L185.714 327.869M181.019 311.81L176.325 295.751M181.019 311.81L201.149 254.752M181.019 311.81L218.414 319.187M190.409 343.928L185.714 327.869M190.409 343.928L195.104 359.988M190.409 343.928L209.781 286.969M171.63 279.691L166.935 263.632M171.63 279.691L176.325 295.751M171.63 279.691L209.781 286.969M209.781 286.969L214.098 303.078M209.781 286.969L205.465 270.861M201.149 254.752L196.833 238.643M201.149 254.752L205.465 270.861M218.414 319.187L222.73 335.295M218.414 319.187L214.098 303.078M222.73 335.295L213.423 363.725M222.73 335.295L185.714 327.869M214.098 303.078L195.104 359.988M214.098 303.078L176.325 295.751M185.714 327.869L205.465 270.861M195.104 359.988L213.423 363.725M166.935 263.632L205.465 270.861M166.935 263.632L176.389 237.043M196.833 238.643L176.325 295.751M196.833 238.643L176.389 237.043M148.785 244.439L151.214 213.15M148.785 244.439L176.389 237.043M121.874 238.172L123.68 206.894M121.874 238.172L178.749 219.407M94.9633 231.905L96.1448 200.637M94.9633 231.905L151.214 213.15M68.0526 225.638L68.4874 210.007M68.0526 225.638L123.68 206.894M96.1448 200.637L68.4874 210.007M178.749 219.407L177.436 234.098L176.389 237.043" stroke="url(#paint9_linear_847_4020)"/>
<path fill-rule="evenodd" clip-rule="evenodd" d="M107.259 157.957C99.4441 183.151 113.597 208.972 127.962 222.932C133.436 213.76 141.6 207.264 149.339 201.105C163.499 189.839 176.241 179.701 168.495 156.367C167.193 152.445 165.543 149.096 163.626 146.276C161.894 143.726 159.943 141.607 157.833 139.886C155.322 137.836 152.586 136.35 149.727 135.369C146.671 134.32 143.474 133.849 140.26 133.886C136.928 133.924 133.577 134.507 130.345 135.557C127.032 136.633 123.842 138.199 120.925 140.172C117.989 142.158 115.328 144.555 113.092 147.279C110.495 150.443 108.472 154.047 107.259 157.957ZM127.962 222.932C131.381 213.511 135.492 204.773 139.184 196.928C145.096 184.364 149.931 174.088 149.121 166.956C148.975 165.677 148.64 164.556 148.152 163.586C147.631 162.552 146.936 161.691 146.112 160.998C145.212 160.242 144.158 159.686 143.008 159.323C141.972 158.995 140.858 158.825 139.709 158.807C138.325 158.784 136.89 158.983 135.478 159.392C134.29 159.737 133.119 160.231 132.009 160.87C130.725 161.608 129.523 162.54 128.471 163.657C127.423 164.77 126.523 166.067 125.841 167.539C120.799 178.428 116.089 199.478 127.962 222.932Z" fill="#22262A"/>
<path d="M127.962 222.932C113.597 208.972 99.4441 183.151 107.259 157.957C108.472 154.047 110.495 150.443 113.092 147.279C115.328 144.555 117.989 142.158 120.925 140.172C123.842 138.199 127.032 136.633 130.345 135.557C133.577 134.507 136.928 133.924 140.26 133.886C143.474 133.849 146.671 134.32 149.727 135.369C152.586 136.35 155.322 137.836 157.833 139.886C159.943 141.607 161.894 143.726 163.626 146.276C165.543 149.096 167.193 152.445 168.495 156.367C176.241 179.701 163.499 189.839 149.339 201.105C141.6 207.264 133.436 213.76 127.962 222.932ZM127.962 222.932C116.089 199.478 120.799 178.428 125.841 167.539C126.523 166.067 127.423 164.77 128.471 163.657C129.523 162.54 130.725 161.608 132.009 160.87C133.119 160.231 134.29 159.737 135.478 159.392C136.89 158.982 138.325 158.784 139.709 158.807C140.858 158.825 141.972 158.995 143.008 159.323C144.158 159.686 145.212 160.242 146.112 160.998C146.936 161.691 147.631 162.552 148.152 163.586C148.64 164.556 148.975 165.677 149.121 166.956C149.931 174.088 145.096 184.364 139.184 196.928C135.492 204.773 131.381 213.511 127.962 222.932Z" stroke="url(#paint10_linear_847_4020)"/>
<path fill-rule="evenodd" clip-rule="evenodd" d="M95.5189 177.059C115.575 183.759 125.761 205.051 128.127 220.933C119.596 220.205 111.548 222.48 103.919 224.637C89.9603 228.583 77.4003 232.134 65.8354 216.175C47.949 191.494 75.4631 170.359 95.5189 177.059ZM128.127 220.933C120.395 218.751 112.784 217.339 105.95 216.072C95.0067 214.043 86.0557 212.383 81.7923 208.518C74.8664 202.24 83.6163 191.826 93.0631 193.638C102.51 195.45 118.415 202.232 128.127 220.933Z" fill="#22262A"/>
<path d="M128.127 220.933C125.761 205.051 115.575 183.759 95.5189 177.059C75.4631 170.359 47.949 191.494 65.8354 216.175C77.4003 232.134 89.9603 228.583 103.919 224.637C111.548 222.48 119.596 220.205 128.127 220.933ZM128.127 220.933C118.415 202.232 102.51 195.45 93.0631 193.638C83.6163 191.826 74.8665 202.24 81.7923 208.518C86.0557 212.383 95.0067 214.043 105.95 216.072C112.784 217.339 120.395 218.751 128.127 220.933Z" stroke="url(#paint11_linear_847_4020)"/>
<defs>
<linearGradient id="paint0_linear_847_4020" x1="227.382" y1="201.876" x2="493.848" y2="238.962" gradientUnits="userSpaceOnUse">
<stop offset="0.267495" stop-color="#FFC6CE"/>
<stop offset="1" stop-color="#64D6EE"/>
</linearGradient>
<linearGradient id="paint1_linear_847_4020" x1="524.067" y1="150.233" x2="227.177" y2="120.124" gradientUnits="userSpaceOnUse">
<stop offset="0.267495" stop-color="#FFC6CE"/>
<stop offset="1" stop-color="#64D6EE"/>
</linearGradient>
<linearGradient id="paint2_linear_847_4020" x1="272.335" y1="161.303" x2="458.424" y2="186.088" gradientUnits="userSpaceOnUse">
<stop offset="0.267495" stop-color="#FFC6CE"/>
<stop offset="1" stop-color="#64D6EE"/>
</linearGradient>
<linearGradient id="paint3_linear_847_4020" x1="267.805" y1="162.041" x2="456.465" y2="187.183" gradientUnits="userSpaceOnUse">
<stop offset="0.267495" stop-color="#FFC6CE"/>
<stop offset="1" stop-color="#64D6EE"/>
</linearGradient>
<linearGradient id="paint4_linear_847_4020" x1="394.642" y1="44.0866" x2="462.573" y2="108.235" gradientUnits="userSpaceOnUse">
<stop offset="0.267495" stop-color="#FFC6CE"/>
<stop offset="1" stop-color="#64D6EE"/>
</linearGradient>
<linearGradient id="paint5_linear_847_4020" x1="338.691" y1="69.1399" x2="294.247" y2="129.424" gradientUnits="userSpaceOnUse">
<stop offset="0.267495" stop-color="#FFC6CE"/>
<stop offset="1" stop-color="#64D6EE"/>
</linearGradient>
<linearGradient id="paint6_linear_847_4020" x1="46.8142" y1="287.038" x2="226.115" y2="241.991" gradientUnits="userSpaceOnUse">
<stop offset="0.267495" stop-color="#FFC6CE"/>
<stop offset="1" stop-color="#64D6EE"/>
</linearGradient>
<linearGradient id="paint7_linear_847_4020" x1="222.498" y1="177.681" x2="25.6144" y2="235.013" gradientUnits="userSpaceOnUse">
<stop offset="0.267495" stop-color="#FFC6CE"/>
<stop offset="1" stop-color="#64D6EE"/>
</linearGradient>
<linearGradient id="paint8_linear_847_4020" x1="64.9937" y1="249.607" x2="189.923" y2="217.438" gradientUnits="userSpaceOnUse">
<stop offset="0.267495" stop-color="#FFC6CE"/>
<stop offset="1" stop-color="#64D6EE"/>
</linearGradient>
<linearGradient id="paint9_linear_847_4020" x1="62.2981" y1="251.245" x2="188.957" y2="218.641" gradientUnits="userSpaceOnUse">
<stop offset="0.267495" stop-color="#FFC6CE"/>
<stop offset="1" stop-color="#64D6EE"/>
</linearGradient>
<linearGradient id="paint10_linear_847_4020" x1="112.697" y1="143.418" x2="172.502" y2="166.775" gradientUnits="userSpaceOnUse">
<stop offset="0.267495" stop-color="#FFC6CE"/>
<stop offset="1" stop-color="#64D6EE"/>
</linearGradient>
<linearGradient id="paint11_linear_847_4020" x1="83.5115" y1="173.797" x2="70.736" y2="223.653" gradientUnits="userSpaceOnUse">
<stop offset="0.267495" stop-color="#FFC6CE"/>
<stop offset="1" stop-color="#64D6EE"/>
</linearGradient>
</defs>
</svg>
