<svg width="51" height="40" viewBox="0 0 51 40" fill="none" xmlns="http://www.w3.org/2000/svg">
<path d="M43.1048 4.08415C39.8626 2.59624 36.4415 1.53429 32.9267 0.924778C32.8948 0.919415 32.8621 0.924047 32.833 0.938037C32.8039 0.952027 32.7799 0.974687 32.7642 1.0029C32.3235 1.78415 31.836 2.80603 31.4954 3.60603C27.7067 3.03105 23.8529 3.03105 20.0642 3.60603C19.6842 2.71484 19.2543 1.84576 18.7767 1.0029C18.7606 0.974996 18.7365 0.952597 18.7075 0.938652C18.6785 0.924707 18.646 0.91987 18.6142 0.924778C15.0985 1.53103 11.6767 2.59353 8.43603 4.08415C8.4083 4.09474 8.3851 4.11462 8.3704 4.1404C1.88915 13.8248 0.111026 23.2716 0.982901 32.5998C0.986026 32.6435 1.01415 32.6873 1.04853 32.7154C4.82266 35.5111 9.04412 37.6456 13.5329 39.0279C13.5646 39.0379 13.5987 39.0375 13.6301 39.0269C13.6616 39.0162 13.6888 38.9957 13.7079 38.9685C14.6704 37.656 15.5267 36.2716 16.2642 34.8154C16.2795 34.7854 16.2848 34.7512 16.2792 34.718C16.2735 34.6848 16.2573 34.6543 16.2329 34.631C16.2168 34.6158 16.1976 34.6041 16.1767 34.5966C14.8303 34.0792 13.5263 33.4575 12.2767 32.7373C12.2417 32.7175 12.2158 32.685 12.2042 32.6466C12.1925 32.6083 12.1961 32.5669 12.2142 32.531C12.2248 32.5078 12.2409 32.4874 12.261 32.4716C12.5235 32.2748 12.786 32.0685 13.036 31.8623C13.0581 31.8445 13.0846 31.8331 13.1127 31.8292C13.1408 31.8254 13.1694 31.8292 13.1954 31.8404C21.3798 35.5779 30.2392 35.5779 38.3235 31.8404C38.3505 31.8287 38.3802 31.8246 38.4094 31.8284C38.4385 31.8323 38.4661 31.844 38.4892 31.8623C38.7392 32.0685 39.0017 32.2748 39.2642 32.4716C39.2854 32.4872 39.3025 32.5078 39.3139 32.5315C39.3253 32.5553 39.3306 32.5815 39.3293 32.6078C39.3281 32.6341 39.3203 32.6597 39.3068 32.6823C39.2932 32.7049 39.2743 32.7238 39.2517 32.7373C38.0048 33.4641 36.6992 34.0851 35.3485 34.5935C35.327 34.6013 35.3074 34.6138 35.2912 34.63C35.275 34.6462 35.2626 34.6657 35.2548 34.6873C35.2476 34.7081 35.2447 34.7303 35.2463 34.7523C35.2479 34.7743 35.254 34.7958 35.2642 34.8154C36.0142 36.2685 36.8735 37.656 37.8173 38.9685C37.8363 38.9957 37.8636 39.0162 37.8951 39.0269C37.9265 39.0375 37.9606 39.0379 37.9923 39.0279C42.4886 37.6499 46.7169 35.5151 50.4954 32.7154C50.5143 32.7023 50.5301 32.6851 50.5414 32.6651C50.5528 32.6451 50.5595 32.6227 50.561 32.5998C51.6048 21.8154 48.8142 12.4467 43.1673 4.14353C43.1616 4.12981 43.1531 4.11744 43.1423 4.10722C43.1316 4.09699 43.1188 4.08913 43.1048 4.08415ZM17.486 26.9185C15.0204 26.9185 12.9923 24.656 12.9923 21.881C12.9923 19.1029 14.9829 16.8404 17.486 16.8404C20.0079 16.8404 22.0173 19.1217 21.9798 21.881C21.9798 24.656 19.9892 26.9185 17.486 26.9185ZM34.0985 26.9185C31.636 26.9185 29.6048 24.656 29.6048 21.881C29.6048 19.1029 31.5954 16.8404 34.0985 16.8404C36.6204 16.8404 38.6329 19.1217 38.5923 21.881C38.5923 24.656 36.6204 26.9185 34.0985 26.9185Z" fill="url(#paint0_linear_258:2781)"/>
<defs>
<linearGradient id="paint0_linear_258:2781" x1="0.776123" y1="9.69852" x2="49.8502" y2="10.6644" gradientUnits="userSpaceOnUse">
<stop offset="0.267495" stop-color="#FFC6CE"/>
<stop offset="1" stop-color="#64D6EE"/>
</linearGradient>
</defs>
</svg>
