<svg width="45" height="50" viewBox="25 25 45 50" fill="none" xmlns="http://www.w3.org/2000/svg">
<g clip-path="url(#clip0_1040_4076)">
<path d="M39.3032 58.0474C39.3032 59.1626 39.3931 59.972 39.573 60.4756C39.7529 60.9793 40.0946 61.321 40.5983 61.5009C41.1379 61.6807 41.9833 61.7707 43.1344 61.7707C43.2424 61.7707 43.2963 61.8786 43.2963 62.0944C43.2963 62.3103 43.2424 62.4182 43.1344 62.4182C41.9473 62.4182 41.012 62.4002 40.3285 62.3643L36.2274 62.3103L32.2343 62.3643C31.5149 62.4002 30.5436 62.4182 29.3205 62.4182C29.2485 62.4182 29.2125 62.3103 29.2125 62.0944C29.2125 61.8786 29.2485 61.7707 29.3205 61.7707C30.4716 61.7707 31.317 61.6807 31.8566 61.5009C32.3962 61.321 32.756 60.9793 32.9358 60.4756C33.1517 59.936 33.2596 59.1266 33.2596 58.0474V33.0635C33.2596 31.9843 33.1517 31.1929 32.9358 30.6893C32.756 30.1856 32.3962 29.8439 31.8566 29.664C31.317 29.4482 30.4716 29.3402 29.3205 29.3402C29.2485 29.3402 29.2125 29.2323 29.2125 29.0165C29.2125 28.8006 29.2485 28.6927 29.3205 28.6927L32.2343 28.7467C33.8891 28.8186 35.2202 28.8546 36.2274 28.8546C37.3426 28.8546 38.7276 28.8186 40.3824 28.7467L43.1344 28.6927C43.2424 28.6927 43.2963 28.8006 43.2963 29.0165C43.2963 29.2323 43.2424 29.3402 43.1344 29.3402C42.0192 29.3402 41.1918 29.4482 40.6522 29.664C40.1126 29.8798 39.7529 30.2576 39.573 30.7972C39.3931 31.3008 39.3032 32.0922 39.3032 33.1715V58.0474Z" fill="url(#paint0_linear_1040_4076)"/>
<g filter="url(#filter0_d_1040_4076)">
<path d="M52.4634 50.2486C49.4586 50.2486 47.0065 52.7008 47.0065 55.7056C47.0065 58.7103 49.4586 61.1625 52.4634 61.1625C55.4682 61.1625 57.9203 58.7103 57.9203 55.7056C57.9203 52.7008 55.4682 50.2486 52.4634 50.2486ZM68.8301 55.7056C68.8301 53.4458 68.8505 51.2066 68.7236 48.9509C68.5967 46.331 67.999 44.0057 66.0832 42.0899C64.1632 40.1699 61.8421 39.5764 59.2221 39.4495C56.9624 39.3225 54.7231 39.343 52.4675 39.343C50.2078 39.343 47.9685 39.3225 45.7129 39.4495C43.0929 39.5764 40.7677 40.174 38.8519 42.0899C36.9319 44.0098 36.3383 46.331 36.2114 48.9509C36.0845 51.2107 36.105 53.4499 36.105 55.7056C36.105 57.9612 36.0845 60.2045 36.2114 62.4602C36.3383 65.0801 36.936 67.4054 38.8519 69.3212C40.7718 71.2412 43.0929 71.8348 45.7129 71.9617C47.9726 72.0886 50.2119 72.0681 52.4675 72.0681C54.7272 72.0681 56.9665 72.0886 59.2221 71.9617C61.8421 71.8348 64.1673 71.2371 66.0832 69.3212C68.0031 67.4013 68.5967 65.0801 68.7236 62.4602C68.8546 60.2045 68.8301 57.9653 68.8301 55.7056ZM52.4634 64.1017C47.8171 64.1017 44.0672 60.3519 44.0672 55.7056C44.0672 51.0592 47.8171 47.3094 52.4634 47.3094C57.1098 47.3094 60.8596 51.0592 60.8596 55.7056C60.8596 60.3519 57.1098 64.1017 52.4634 64.1017ZM61.2035 48.9264C60.1187 48.9264 59.2426 48.0503 59.2426 46.9655C59.2426 45.8807 60.1187 45.0046 61.2035 45.0046C62.2883 45.0046 63.1644 45.8807 63.1644 46.9655C63.1647 47.2231 63.1142 47.4782 63.0158 47.7163C62.9173 47.9543 62.7729 48.1706 62.5908 48.3528C62.4086 48.5349 62.1923 48.6793 61.9543 48.7778C61.7162 48.8762 61.4611 48.9267 61.2035 48.9264Z" fill="url(#paint1_linear_1040_4076)"/>
</g>
</g>
<defs>
<filter id="filter0_d_1040_4076" x="29.1085" y="34.7458" width="46.7102" height="46.7102" filterUnits="userSpaceOnUse" color-interpolation-filters="sRGB">
<feFlood flood-opacity="0" result="BackgroundImageFix"/>
<feColorMatrix in="SourceAlpha" type="matrix" values="0 0 0 0 0 0 0 0 0 0 0 0 0 0 0 0 0 0 127 0" result="hardAlpha"/>
<feOffset dy="2.3954"/>
<feGaussianBlur stdDeviation="1.1977"/>
<feComposite in2="hardAlpha" operator="out"/>
<feColorMatrix type="matrix" values="0 0 0 0 0 0 0 0 0 0 0 0 0 0 0 0 0 0 0.25 0"/>
<feBlend mode="normal" in2="BackgroundImageFix" result="effect1_dropShadow_1040_4076"/>
<feBlend mode="normal" in="SourceGraphic" in2="effect1_dropShadow_1040_4076" result="shape"/>
</filter>
<linearGradient id="paint0_linear_1040_4076" x1="20.7058" y1="15.5148" x2="51.2803" y2="15.6458" gradientUnits="userSpaceOnUse">
<stop offset="0.267495" stop-color="#FFC6CE"/>
<stop offset="1" stop-color="#64D6EE"/>
</linearGradient>
<linearGradient id="paint1_linear_1040_4076" x1="36.1038" y1="46.8777" x2="68.2307" y2="47.3597" gradientUnits="userSpaceOnUse">
<stop offset="0.267495" stop-color="#FFC6CE"/>
<stop offset="1" stop-color="#64D6EE"/>
</linearGradient>
<clipPath id="clip0_1040_4076">
<rect width="89.8276" height="89.8276" fill="white" transform="translate(0.344727)"/>
</clipPath>
</defs>
</svg>
