<svg width="160" height="160" viewBox="0 0 160 160" fill="none" xmlns="http://www.w3.org/2000/svg">
<g clip-path="url(#clip0_258:3201)">
<path d="M0 80C0 35.8172 35.8172 0 80 0C124.183 0 160 35.8172 160 80C160 124.183 124.183 160 80 160C35.8172 160 0 124.183 0 80Z" fill="url(#paint0_linear_258:3201)"/>
<path d="M133.256 111.129L135.524 112.722L139.12 121.538L136.938 122.359L133.741 114.571L133.322 114.541L130.953 117.914L134.783 120.604L133.428 122.534L129.598 119.844L128.688 121.14L127.038 119.981L127.948 118.685L125.724 117.123L127.079 115.193L129.304 116.756L133.256 111.129Z" fill="#22262A"/>
<path d="M120.927 121.732C121.584 121.099 122.317 120.692 123.126 120.511C123.944 120.339 124.762 120.384 125.581 120.644C126.391 120.914 127.125 121.389 127.783 122.072L128.045 122.344C128.695 123.017 129.144 123.76 129.393 124.57C129.641 125.381 129.673 126.184 129.489 126.978C129.305 127.789 128.876 128.52 128.202 129.17C127.701 129.653 127.152 129.983 126.555 130.159C125.958 130.351 125.333 130.37 124.683 130.214L127.982 133.634L126.181 135.371L117.059 125.914L118.484 124.539L119.908 126.016C119.6 125.213 119.546 124.44 119.746 123.696C119.938 122.962 120.331 122.307 120.927 121.732ZM121.988 123.635C121.634 123.977 121.385 124.367 121.241 124.805C121.106 125.253 121.098 125.711 121.216 126.18C121.327 126.657 121.586 127.107 121.994 127.53L122.494 128.049C122.886 128.455 123.314 128.708 123.779 128.81C124.235 128.92 124.681 128.907 125.116 128.771C125.56 128.643 125.95 128.416 126.287 128.091C126.874 127.525 127.153 126.855 127.125 126.083C127.096 125.327 126.757 124.612 126.107 123.938C125.457 123.265 124.751 122.904 123.988 122.856C123.233 122.817 122.567 123.077 121.988 123.635Z" fill="#22262A"/>
<path d="M109.831 130.659L115.348 140.111L117.665 138.759L118.772 140.655L114.263 143.287L107.639 131.938L109.831 130.659Z" fill="#22262A"/>
<path d="M105.313 133.214L106.244 135.556C106.549 136.326 106.608 137.025 106.419 137.656C106.231 138.286 105.753 138.986 104.987 139.755L103.278 141.499C102.854 141.926 102.577 142.365 102.446 142.817C102.305 143.274 102.341 143.77 102.553 144.305C102.788 144.896 103.153 145.293 103.647 145.497C104.134 145.717 104.702 145.698 105.348 145.441C105.995 145.184 106.424 144.801 106.635 144.291C106.838 143.797 106.816 143.237 106.568 142.613L108.86 141.702C109.157 142.45 109.269 143.186 109.196 143.913C109.116 144.654 108.829 145.33 108.335 145.94C107.83 146.553 107.098 147.051 106.139 147.432C105.191 147.808 104.331 147.95 103.558 147.857C102.774 147.768 102.105 147.498 101.551 147.047C100.997 146.595 100.583 146.024 100.308 145.333L100.222 145.115C99.8539 144.189 99.8047 143.318 100.074 142.501C100.348 141.695 100.894 140.877 101.714 140.048L103.423 138.304C103.758 137.977 103.966 137.688 104.047 137.436C104.116 137.189 104.091 136.915 103.972 136.614L103.792 136.162L97.5862 138.628L96.782 136.604L105.313 133.214Z" fill="#22262A"/>
<path d="M95.2668 136.944L97.8307 149.832L95.3768 150.32L94.4004 145.412C94.275 146.073 94.0038 146.617 93.5868 147.042C93.1699 147.468 92.5965 147.753 91.8668 147.898L91.7609 147.919C90.6663 148.137 89.7605 147.92 89.0434 147.267C88.3286 146.626 87.8296 145.594 87.5462 144.17L86.4575 138.697L88.9114 138.209L90.0458 143.911C90.1676 144.523 90.4401 144.97 90.8634 145.253C91.275 145.538 91.7632 145.625 92.3281 145.513C92.9402 145.391 93.3888 145.093 93.674 144.621C93.9616 144.16 94.0422 143.612 93.9157 142.976L92.8129 137.433L95.2668 136.944Z" fill="#22262A"/>
<path d="M75.6043 138.392C76.6103 138.456 77.4662 138.703 78.1722 139.133C78.8662 139.562 79.3845 140.107 79.7271 140.766C80.069 141.437 80.2146 142.168 80.164 142.958L77.703 142.801C77.7444 142.154 77.5678 141.626 77.1732 141.216C76.7666 140.805 76.1981 140.576 75.4675 140.529C74.7251 140.482 74.1316 140.642 73.6872 141.011C73.242 141.391 72.9983 141.91 72.9562 142.569C72.9148 143.216 73.0906 143.756 73.4837 144.19C73.876 144.636 74.4374 144.882 75.1679 144.929C75.5272 144.952 75.848 144.919 76.1303 144.828C76.4119 144.75 76.6531 144.645 76.8539 144.514L77.8928 146.601L73.3931 149.271L73.5352 149.586L79.1756 149.947L79.0366 152.121L70.4681 151.573L70.6359 148.95L74.5309 146.71C73.6366 146.593 72.8836 146.334 72.2718 145.934C71.6474 145.546 71.1859 145.053 70.8874 144.457C70.5769 143.86 70.445 143.196 70.4917 142.465L70.5067 142.232C70.555 141.477 70.791 140.795 71.2149 140.185C71.6379 139.587 72.221 139.119 72.964 138.782C73.7063 138.457 74.5864 138.326 75.6043 138.392Z" fill="#22262A"/>
<path d="M69.1482 138.05L68.5306 140.494C68.3277 141.296 67.9652 141.898 67.4432 142.298C66.9212 142.698 66.1244 142.986 65.0529 143.161L62.6464 143.573C62.0524 143.671 61.5702 143.865 61.1998 144.155C60.8178 144.442 60.5562 144.865 60.4151 145.423C60.2592 146.04 60.3218 146.575 60.603 147.03C60.8695 147.493 61.3402 147.811 62.015 147.981C62.6897 148.152 63.2618 148.092 63.7311 147.802C64.1859 147.521 64.4956 147.055 64.6603 146.403L67.0511 147.008C66.8541 147.787 66.5133 148.45 66.0287 148.996C65.5296 149.55 64.9014 149.93 64.1441 150.135C63.3753 150.336 62.4906 150.311 61.49 150.058C60.5011 149.808 59.7207 149.419 59.1487 148.89C58.5651 148.359 58.1811 147.748 57.9966 147.058C57.8121 146.368 57.8111 145.662 57.9934 144.941L58.0507 144.714C58.2948 143.748 58.7653 143.013 59.4622 142.509C60.1562 142.016 61.0782 141.673 62.2284 141.481L64.6349 141.068C65.0979 141 65.4358 140.887 65.6486 140.73C65.8499 140.571 65.9902 140.334 66.0696 140.02L66.1887 139.549L59.7143 137.912L60.2481 135.801L69.1482 138.05Z" fill="#22262A"/>
<path d="M58.9393 135.509L54.4493 144.191L52.6906 143.281L53.7904 141.155C52.6011 142.566 51.2443 142.878 49.7201 142.09L49.6242 142.04C48.2492 141.329 47.6822 140.205 47.9232 138.668C46.8188 139.758 45.5738 139.945 44.1881 139.229L44.0922 139.179C43.1009 138.666 42.5259 137.937 42.367 136.99C42.1976 136.038 42.4491 134.911 43.1216 133.611L45.6849 128.654L47.9073 129.804L45.2365 134.968C44.9554 135.512 44.8707 136.015 44.9824 136.478C45.0887 136.952 45.3976 137.321 45.9092 137.586C46.4315 137.856 46.9354 137.9 47.4209 137.719C47.8903 137.543 48.271 137.172 48.5632 136.607L51.2009 131.507L53.4233 132.657L50.7525 137.821C50.4713 138.364 50.3867 138.868 50.4984 139.331C50.6047 139.805 50.9136 140.174 51.4252 140.438C51.9475 140.708 52.4514 140.753 52.9369 140.572C53.4062 140.396 53.787 140.025 54.0792 139.46L56.7169 134.36L58.9393 135.509Z" fill="#22262A"/>
<path d="M39.4311 122.926L31.939 130.903L33.894 132.739L32.3906 134.34L28.5856 130.766L37.5811 121.188L39.4311 122.926Z" fill="#22262A"/>
<path d="M35.6979 119.302L33.7102 120.852C33.0571 121.361 32.4017 121.613 31.7439 121.608C31.0861 121.603 30.2807 121.341 29.3277 120.821L27.1748 119.669C26.6462 119.381 26.1467 119.238 25.6762 119.239C25.1984 119.232 24.7323 119.405 24.278 119.759C23.7764 120.15 23.4968 120.611 23.4395 121.142C23.3652 121.672 23.5421 122.211 23.9699 122.76C24.3977 123.309 24.8858 123.613 25.4342 123.673C25.9658 123.73 26.4966 123.552 27.0266 123.139L28.5425 125.084C27.9083 125.578 27.2324 125.892 26.5147 126.026C25.7802 126.157 25.0513 126.071 24.328 125.767C23.5973 125.454 22.9147 124.891 22.2804 124.077C21.6534 123.272 21.2764 122.486 21.1493 121.718C21.0149 120.94 21.0868 120.222 21.3651 119.564C21.6434 118.906 22.0759 118.348 22.6628 117.891L22.8473 117.747C23.633 117.135 24.4557 116.844 25.3156 116.873C26.166 116.91 27.1041 117.206 28.1297 117.761L30.2826 118.913C30.6901 119.143 31.026 119.262 31.2901 119.269C31.5469 119.266 31.8031 119.166 32.0587 118.967L32.442 118.668L28.3371 113.4L30.055 112.062L35.6979 119.302Z" fill="#22262A"/>
<path d="M28.0151 107.538C28.6495 108.722 28.8993 109.786 28.7646 110.73C28.6136 111.668 28.1023 112.391 27.2306 112.899L26.1686 110.915C26.4641 110.73 26.6542 110.424 26.7389 109.997C26.8074 109.566 26.6718 109.033 26.3319 108.398C26.0544 107.88 25.7355 107.513 25.3751 107.297C25.0148 107.082 24.6706 107.062 24.3427 107.237C24.057 107.39 23.9 107.631 23.8716 107.959C23.8269 108.283 23.9258 108.747 24.1682 109.352L24.4966 110.156C24.9119 111.186 25.0361 112.079 24.8694 112.836C24.6969 113.581 24.2404 114.152 23.4998 114.549C22.918 114.86 22.3468 114.976 21.7862 114.895C21.215 114.819 20.6901 114.576 20.2116 114.166C19.7168 113.75 19.2882 113.203 18.9257 112.526C18.3593 111.468 18.1385 110.484 18.2634 109.573C18.3778 108.668 18.8708 107.962 19.7424 107.454L20.8044 109.438C20.5252 109.628 20.3534 109.918 20.2891 110.306C20.2191 110.684 20.3229 111.132 20.6004 111.65C20.8496 112.116 21.1321 112.427 21.4479 112.585C21.7637 112.742 22.0644 112.745 22.35 112.592C22.6251 112.445 22.7829 112.231 22.8233 111.951C22.8638 111.67 22.7831 111.278 22.5811 110.774L22.2527 109.969C21.8204 108.908 21.6759 107.964 21.8193 107.139C21.9627 106.313 22.4206 105.694 23.1928 105.28C23.7641 104.975 24.3463 104.867 24.9394 104.958C25.5162 105.044 26.0711 105.305 26.604 105.741C27.137 106.177 27.6073 106.776 28.0151 107.538Z" fill="#22262A"/>
<path d="M26.1611 48.3304L23.8927 46.7372L20.2967 37.9207L22.4789 37.0998L25.6754 44.8879L26.0942 44.918L28.4633 41.5449L24.6335 38.8551L25.9888 36.9254L29.8186 39.6153L30.729 38.319L32.3787 39.4777L31.4683 40.774L33.6925 42.3361L32.3373 44.2658L30.1131 42.7036L26.1611 48.3304Z" fill="#22262A"/>
<path d="M38.4893 37.7271C37.8329 38.3603 37.1 38.7672 36.2905 38.9478C35.4727 39.1198 34.6545 39.0754 33.836 38.8145C33.0261 38.5453 32.2921 38.0696 31.6339 37.3873L31.3715 37.1153C30.7217 36.4416 30.2725 35.6994 30.024 34.8887C29.7755 34.078 29.7433 33.2754 29.9273 32.481C30.1117 31.6696 30.5407 30.939 31.2143 30.2892C31.7152 29.8059 32.2643 29.4764 32.8616 29.3004C33.4591 29.1075 34.0832 29.089 34.7339 29.245L31.4347 25.8249L33.2355 24.0878L42.3581 33.545L40.9331 34.9196L39.5084 33.4427C39.8165 34.246 39.8704 35.0193 39.6703 35.7625C39.4789 36.4974 39.0852 37.1523 38.4893 37.7271ZM37.4288 35.824C37.7829 35.4824 38.0318 35.0923 38.1754 34.6535C38.3108 34.2062 38.319 33.7481 38.2002 33.2792C38.09 32.8019 37.8307 32.3517 37.4225 31.9285L36.9226 31.4103C36.5311 31.0044 36.1028 30.7506 35.6379 30.6488C35.1816 30.5388 34.7358 30.552 34.3005 30.6884C33.8569 30.8162 33.4667 31.0426 33.1299 31.3675C32.5426 31.934 32.2632 32.6037 32.2917 33.3765C32.3205 34.1323 32.6599 34.8471 33.3097 35.5207C33.9595 36.1944 34.6659 36.555 35.4289 36.6027C36.1835 36.6418 36.8501 36.3822 37.4288 35.824Z" fill="#22262A"/>
<path d="M49.5854 28.8001L44.0684 19.3484L41.7521 20.7004L40.6451 18.8039L45.1533 16.1724L51.7773 27.5207L49.5854 28.8001Z" fill="#22262A"/>
<path d="M54.1033 26.2448L53.1729 23.9029C52.8671 23.1334 52.8086 22.4336 52.9973 21.8034C53.1859 21.1732 53.6633 20.4735 54.4294 19.7043L56.1382 17.9601C56.5625 17.5332 56.8399 17.0938 56.9702 16.6417C57.1116 16.1853 57.076 15.6894 56.8633 15.1541C56.6285 14.563 56.264 14.1655 55.7698 13.9616C55.2823 13.7421 54.7151 13.7608 54.0683 14.0178C53.4215 14.2748 52.9927 14.6582 52.7821 15.168C52.5781 15.6622 52.6002 16.2215 52.8484 16.8461L50.5566 17.7566C50.2598 17.0094 50.1478 16.2726 50.2208 15.5464C50.3005 14.8045 50.5873 14.1289 51.0812 13.5195C51.5863 12.9056 52.3183 12.4082 53.2774 12.0271C54.2253 11.6505 55.0858 11.5088 55.8588 11.602C56.643 11.6907 57.312 11.9608 57.8658 12.4122C58.4196 12.8636 58.8339 13.435 59.1086 14.1265L59.195 14.3439C59.5627 15.2695 59.6119 16.1409 59.3426 16.9581C59.0689 17.7641 58.5222 18.5818 57.7024 19.411L55.9937 21.1552C55.6587 21.482 55.4507 21.7712 55.3699 22.0228C55.3003 22.27 55.3253 22.5441 55.4449 22.8453L55.6243 23.2969L61.8305 20.8312L62.6346 22.8553L54.1033 26.2448Z" fill="#22262A"/>
<path d="M64.1499 22.5147L61.586 9.62725L64.0399 9.13905L65.0163 14.0469C65.1417 13.3857 65.4129 12.8423 65.8299 12.4168C66.2469 11.9913 66.8202 11.7059 67.5499 11.5607L67.6559 11.5397C68.7504 11.3219 69.6562 11.5393 70.3734 12.1919C71.0881 12.8328 71.5872 13.8653 71.8705 15.2894L72.9593 20.7621L70.5054 21.2503L69.3709 15.5481C69.2492 14.936 68.9767 14.4886 68.5533 14.2058C68.1418 13.9206 67.6535 13.8342 67.0886 13.9466C66.4766 14.0684 66.028 14.3656 65.7427 14.8384C65.4551 15.2993 65.3746 15.8476 65.501 16.4831L66.6038 22.0265L64.1499 22.5147Z" fill="#22262A"/>
<path d="M83.8123 21.0673C82.8063 21.003 81.9504 20.7558 81.2444 20.3258C80.5504 19.8966 80.0321 19.3524 79.6895 18.6932C79.3477 18.022 79.202 17.2912 79.2526 16.5008L81.7136 16.6583C81.6722 17.305 81.8488 17.8334 82.2434 18.2434C82.65 18.6542 83.2186 18.883 83.9491 18.9297C84.6916 18.9772 85.285 18.8168 85.7295 18.4484C86.1746 18.0681 86.4183 17.5486 86.4605 16.8899C86.5019 16.2433 86.326 15.7029 85.9329 15.2689C85.5406 14.823 84.9792 14.5766 84.2487 14.5299C83.8894 14.5069 83.5686 14.5405 83.2863 14.6306C83.0047 14.7088 82.7635 14.8136 82.5627 14.9451L81.5239 12.8584L86.0236 10.1884L85.8814 9.87264L80.241 9.51168L80.3801 7.33813L88.9485 7.88646L88.7807 10.5091L84.8857 12.7489C85.78 12.8663 86.5331 13.1249 87.1448 13.5248C87.7692 13.9134 88.2307 14.4059 88.5293 15.0022C88.8398 15.5993 88.9716 16.263 88.9249 16.9935L88.9099 17.2271C88.8617 17.9815 88.6256 18.6638 88.2018 19.274C87.7787 19.8722 87.1956 20.3399 86.4526 20.6772C85.7103 21.0024 84.8302 21.1325 83.8123 21.0673Z" fill="#22262A"/>
<path d="M90.2685 21.4088L90.886 18.9656C91.089 18.1628 91.4514 17.5613 91.9734 17.1611C92.4954 16.7608 93.2922 16.4733 94.3637 16.2985L96.7702 15.8857C97.3642 15.7883 97.8464 15.5946 98.2168 15.3045C98.5988 15.0173 98.8604 14.5946 99.0016 14.0361C99.1574 13.4195 99.0948 12.8838 98.8137 12.4291C98.5471 11.9656 98.0764 11.6486 97.4017 11.478C96.7269 11.3075 96.1548 11.3671 95.6855 11.6569C95.2307 11.938 94.921 12.4044 94.7563 13.0559L92.3655 12.4515C92.5626 11.672 92.9034 11.0094 93.3879 10.4635C93.887 9.90887 94.5152 9.52924 95.2725 9.32458C96.0414 9.12285 96.9261 9.14844 97.9266 9.40135C98.9155 9.65132 99.6959 10.0404 100.268 10.5687C100.852 11.0999 101.236 11.7107 101.42 12.4009C101.604 13.0912 101.606 13.797 101.423 14.5183L101.366 14.7452C101.122 15.7108 100.651 16.4459 99.9544 16.9505C99.2604 17.4435 98.3384 17.7859 97.1883 17.9779L94.7817 18.3908C94.3188 18.4594 93.9809 18.572 93.768 18.7286C93.5668 18.8882 93.4264 19.125 93.347 19.4391L93.2279 19.9103L99.7023 21.5469L99.1685 23.6585L90.2685 21.4088Z" fill="#22262A"/>
<path d="M100.477 23.9498L104.967 15.2681L106.726 16.1776L105.626 18.3041C106.816 16.8927 108.172 16.5811 109.697 17.3694L109.792 17.419C111.167 18.1301 111.734 19.2542 111.493 20.7913C112.598 19.7007 113.843 19.5138 115.228 20.2304L115.324 20.28C116.316 20.7927 116.891 21.5224 117.05 22.4691C117.219 23.4214 116.968 24.5478 116.295 25.8482L113.732 30.8045L111.509 29.6552L114.18 24.4909C114.461 23.9473 114.546 23.444 114.434 22.9809C114.328 22.5072 114.019 22.138 113.507 21.8734C112.985 21.6033 112.481 21.5588 111.996 21.74C111.526 21.9161 111.146 22.2866 110.853 22.8515L108.216 27.9518L105.993 26.8025L108.664 21.6382C108.945 21.0946 109.03 20.5913 108.918 20.1282C108.812 19.6544 108.503 19.2853 107.991 19.0207C107.469 18.7505 106.965 18.7061 106.48 18.8873C106.01 19.0634 105.63 19.4339 105.337 19.9988L102.7 25.0991L100.477 23.9498Z" fill="#22262A"/>
<path d="M119.986 36.5332L127.478 28.5558L125.523 26.7197L127.026 25.119L130.831 28.6925L121.836 38.2707L119.986 36.5332Z" fill="#22262A"/>
<path d="M123.719 40.1566L125.706 38.6076C126.359 38.0986 127.015 37.8464 127.673 37.8511C128.331 37.8557 129.136 38.118 130.089 38.6381L132.242 39.7901C132.77 40.0779 133.27 40.2211 133.74 40.2196C134.218 40.2276 134.684 40.0545 135.139 39.7004C135.64 39.3095 135.92 38.8483 135.977 38.3167C136.051 37.7872 135.875 37.248 135.447 36.699C135.019 36.1501 134.531 35.8458 133.982 35.7864C133.451 35.729 132.92 35.9068 132.39 36.3199L130.874 34.3748C131.508 33.8806 132.184 33.5669 132.902 33.4336C133.636 33.3023 134.365 33.3885 135.089 33.6919C135.819 34.0049 136.502 34.5683 137.136 35.3824C137.763 36.1869 138.14 36.9732 138.267 37.7414C138.402 38.5191 138.33 39.2369 138.052 39.895C137.773 40.5531 137.341 41.1107 136.754 41.5681L136.569 41.7119C135.784 42.3242 134.961 42.6154 134.101 42.5857C133.251 42.5487 132.313 42.2528 131.287 41.6981L129.134 40.5461C128.727 40.316 128.391 40.1974 128.126 40.1903C127.87 40.1926 127.613 40.2934 127.358 40.4925L126.975 40.7913L131.08 46.0586L129.362 47.3974L123.719 40.1566Z" fill="#22262A"/>
<path d="M131.401 51.9216C130.767 50.7367 130.517 49.6726 130.652 48.7293C130.803 47.791 131.314 47.068 132.186 46.5605L133.248 48.5441C132.953 48.7295 132.762 49.0355 132.678 49.462C132.609 49.8934 132.745 50.4265 133.085 51.0612C133.362 51.5796 133.681 51.9465 134.042 52.1619C134.402 52.3774 134.746 52.3973 135.074 52.2217C135.36 52.0688 135.517 51.8282 135.545 51.4999C135.59 51.1765 135.491 50.7122 135.248 50.1069L134.92 49.3028C134.505 48.2728 134.38 47.3797 134.547 46.6235C134.72 45.8778 135.176 45.3067 135.917 44.9102C136.499 44.5987 137.07 44.4835 137.63 44.5644C138.202 44.6398 138.727 44.8828 139.205 45.2936C139.7 45.7093 140.128 46.2556 140.491 46.9327C141.057 47.9906 141.278 48.975 141.153 49.8858C141.039 50.7909 140.546 51.4972 139.674 52.0047L138.612 50.0211C138.891 49.8308 139.063 49.5415 139.128 49.1531C139.198 48.7754 139.094 48.3273 138.816 47.8089C138.567 47.3434 138.285 47.0319 137.969 46.8743C137.653 46.7166 137.352 46.7143 137.067 46.8672C136.792 47.0145 136.634 47.2283 136.593 47.5086C136.553 47.7889 136.634 48.1812 136.836 48.6856L137.164 49.4898C137.596 50.5514 137.741 51.495 137.597 52.3204C137.454 53.1458 136.996 53.7652 136.224 54.1787C135.653 54.4845 135.07 54.5921 134.477 54.5012C133.9 54.4153 133.346 54.1543 132.813 53.7182C132.28 53.2822 131.809 52.6833 131.401 51.9216Z" fill="#22262A"/>
</g>
<path fill-rule="evenodd" clip-rule="evenodd" d="M106 80.8338L80 37V68.8033L106 80.8338Z" fill="#22262A"/>
<path d="M80 37L54 80.8338M80 37L106 80.8338M80 37V68.8033M54 80.8338L80 96.4377M54 80.8338L80 68.8033M80 96.4377L106 80.8338M80 96.4377V68.8033M106 80.8338L80 68.8033M80 101.44L106 85.8366L80 123M80 101.44L54 85.8366L80 123M80 101.44V123" stroke="#22262A"/>
<defs>
<linearGradient id="paint0_linear_258:3201" x1="-5.55351e-07" y1="36.8421" x2="157.061" y2="39.1983" gradientUnits="userSpaceOnUse">
<stop offset="0.267495" stop-color="#FFC6CE"/>
<stop offset="1" stop-color="#64D6EE"/>
</linearGradient>
<clipPath id="clip0_258:3201">
<path d="M0 80C0 35.8172 35.8172 0 80 0C124.183 0 160 35.8172 160 80C160 124.183 124.183 160 80 160C35.8172 160 0 124.183 0 80Z" fill="white"/>
</clipPath>
</defs>
</svg>
