<svg width="266" height="302" viewBox="0 0 266 302" fill="none" xmlns="http://www.w3.org/2000/svg">
<path d="M45.8112 206.15C45.8112 196.356 75.5842 188.417 112.311 188.417C149.038 188.417 178.811 196.356 178.811 206.15" stroke="#22262A" stroke-width="2"/>
<path d="M45.8112 225.361C45.8112 215.567 75.5842 207.628 112.311 207.628C149.038 207.628 178.811 215.567 178.811 225.361" stroke="#22262A" stroke-width="2"/>
<path d="M45.8112 244.572C45.8112 234.778 75.5842 226.839 112.311 226.839C149.038 226.839 178.811 234.778 178.811 244.572" stroke="#22262A" stroke-width="2"/>
<path d="M45.8112 263.783C45.8112 253.989 75.5842 246.05 112.311 246.05C149.038 246.05 178.811 253.989 178.811 263.783" stroke="#22262A" stroke-width="2"/>
<path d="M45.8112 282.995C45.8112 273.201 75.5842 265.261 112.311 265.261C149.038 265.261 178.811 273.201 178.811 282.995" stroke="#22262A" stroke-width="2"/>
<path d="M28.8167 107.139L111.942 20.689L195.067 107.139H153.504V241.617H70.3792V107.139H28.8167Z" stroke="#22262A" stroke-width="2"/>
<path d="M169.206 56.8945V86.4501H147.778C163.849 82.7556 166.527 79.0612 169.206 56.8945Z" fill="#22262A"/>
<path d="M169.206 116.006V86.4503H147.778C163.849 90.1447 166.527 93.8392 169.206 116.006Z" fill="#22262A"/>
<path d="M169.206 56.8945V86.4501H190.633C174.562 82.7556 171.884 79.0612 169.206 56.8945Z" fill="#22262A"/>
<path d="M169.206 116.006V86.4503H190.633C174.562 90.1447 171.884 93.8392 169.206 116.006Z" fill="#22262A"/>
<path d="M28.8167 134.478L111.942 48.0278L195.067 134.478H153.504V268.956H70.3792V134.478H28.8167Z" fill="url(#paint0_linear_847_3941)" stroke="#22262A" stroke-width="2"/>
<path d="M57.6333 0V11.8222H45.811C54.6777 10.3444 56.1555 8.86667 57.6333 0Z" fill="#22262A"/>
<path d="M57.6333 23.6445V11.8223H45.811C54.6777 13.3001 56.1555 14.7779 57.6333 23.6445Z" fill="#22262A"/>
<path d="M57.6333 0V11.8222H69.4556C60.5889 10.3444 59.1111 8.86667 57.6333 0Z" fill="#22262A"/>
<path d="M57.6333 23.6445V11.8223H69.4556C60.5889 13.3001 59.1111 14.7779 57.6333 23.6445Z" fill="#22262A"/>
<path d="M22.9056 170.683V198.761H0C17.1792 195.251 20.0424 191.741 22.9056 170.683Z" fill="#22262A"/>
<path d="M22.9056 226.839V198.761H0C17.1792 202.271 20.0424 205.781 22.9056 226.839Z" fill="#22262A"/>
<path d="M22.9055 170.683V198.761H45.811C28.6319 195.251 25.7687 191.741 22.9055 170.683Z" fill="#22262A"/>
<path d="M22.9055 226.839V198.761H45.811C28.6319 202.271 25.7687 205.781 22.9055 226.839Z" fill="#22262A"/>
<path d="M250.483 164.772V180.289H234.967C246.604 178.35 248.544 176.41 250.483 164.772Z" fill="#22262A"/>
<path d="M250.483 195.806V180.289H234.967C246.604 182.229 248.544 184.168 250.483 195.806Z" fill="#22262A"/>
<path d="M250.483 164.772V180.289H266C254.363 178.35 252.423 176.41 250.483 164.772Z" fill="#22262A"/>
<path d="M250.483 195.806V180.289H266C254.363 182.229 252.423 184.168 250.483 195.806Z" fill="#22262A"/>
<path d="M70.1944 247.528V268.956H48.7666C64.8374 266.277 67.5159 263.599 70.1944 247.528Z" fill="#22262A"/>
<path d="M70.1944 290.383V268.956H48.7666C64.8374 271.634 67.5159 274.312 70.1944 290.383Z" fill="#22262A"/>
<path d="M70.1943 247.528V268.956H91.6221C75.5512 266.277 72.8728 263.599 70.1943 247.528Z" fill="#22262A"/>
<path d="M70.1943 290.383V268.956H91.6221C75.5512 271.634 72.8728 274.312 70.1943 290.383Z" fill="#22262A"/>
<path d="M178.811 206.15C178.811 215.944 149.038 223.883 112.311 223.883C75.5841 223.883 45.811 215.944 45.811 206.15" stroke="#22262A" stroke-width="2"/>
<path d="M178.811 225.361C178.811 235.155 149.038 243.095 112.311 243.095C75.5841 243.095 45.811 235.155 45.811 225.361" stroke="#22262A" stroke-width="2"/>
<path d="M178.811 244.572C178.811 254.366 149.038 262.306 112.311 262.306C75.5841 262.306 45.811 254.366 45.811 244.572" stroke="#22262A" stroke-width="2"/>
<path d="M178.811 263.783C178.811 273.577 149.038 281.517 112.311 281.517C75.5841 281.517 45.811 273.577 45.811 263.783" stroke="#22262A" stroke-width="2"/>
<path d="M178.811 282.995C178.811 292.788 149.038 300.728 112.311 300.728C75.5841 300.728 45.811 292.788 45.811 282.995" stroke="#22262A" stroke-width="2"/>
<defs>
<linearGradient id="paint0_linear_847_3941" x1="28.8166" y1="98.8994" x2="192.029" y2="100.742" gradientUnits="userSpaceOnUse">
<stop offset="0.267495" stop-color="#FFC6CE"/>
<stop offset="1" stop-color="#64D6EE"/>
</linearGradient>
</defs>
</svg>
