<svg width="40" height="40" viewBox="0 0 40 40" fill="none" xmlns="http://www.w3.org/2000/svg">
<path d="M20.2236 13.4912C16.6396 13.4912 13.7148 16.416 13.7148 20C13.7148 23.584 16.6396 26.5088 20.2236 26.5088C23.8076 26.5088 26.7324 23.584 26.7324 20C26.7324 16.416 23.8076 13.4912 20.2236 13.4912ZM39.7451 20C39.7451 17.3047 39.7695 14.6338 39.6181 11.9433C39.4668 8.81835 38.7539 6.04491 36.4687 3.75975C34.1787 1.46971 31.4101 0.761706 28.2851 0.610339C25.5898 0.458972 22.9189 0.483386 20.2285 0.483386C17.5332 0.483386 14.8623 0.458972 12.1719 0.610339C9.04686 0.761706 6.27342 1.4746 3.98827 3.75975C1.69823 6.04979 0.990222 8.81835 0.838855 11.9433C0.687487 14.6387 0.711902 17.3096 0.711902 20C0.711902 22.6904 0.687487 25.3662 0.838855 28.0566C0.990222 31.1816 1.70311 33.9551 3.98827 36.2402C6.27831 38.5303 9.04686 39.2383 12.1719 39.3896C14.8672 39.541 17.5381 39.5166 20.2285 39.5166C22.9238 39.5166 25.5947 39.541 28.2851 39.3896C31.4101 39.2383 34.1836 38.5254 36.4687 36.2402C38.7588 33.9502 39.4668 31.1816 39.6181 28.0566C39.7744 25.3662 39.7451 22.6953 39.7451 20V20ZM20.2236 30.0146C14.6816 30.0146 10.209 25.542 10.209 20C10.209 14.458 14.6816 9.98534 20.2236 9.98534C25.7656 9.98534 30.2383 14.458 30.2383 20C30.2383 25.542 25.7656 30.0146 20.2236 30.0146ZM30.6484 11.9141C29.3545 11.9141 28.3096 10.8691 28.3096 9.57518C28.3096 8.28124 29.3545 7.23632 30.6484 7.23632C31.9424 7.23632 32.9873 8.28124 32.9873 9.57518C32.9877 9.88244 32.9274 10.1867 32.81 10.4707C32.6926 10.7546 32.5204 11.0126 32.3031 11.2299C32.0858 11.4471 31.8279 11.6194 31.5439 11.7368C31.26 11.8542 30.9557 11.9144 30.6484 11.9141V11.9141Z" fill="url(#paint0_linear_258:2775)"/>
<defs>
<linearGradient id="paint0_linear_258:2775" x1="0.710449" y1="9.47051" x2="39.0302" y2="10.0454" gradientUnits="userSpaceOnUse">
<stop offset="0.267495" stop-color="#FFC6CE"/>
<stop offset="1" stop-color="#64D6EE"/>
</linearGradient>
</defs>
</svg>
