<svg width="378" height="382" viewBox="0 0 378 382" fill="none" xmlns="http://www.w3.org/2000/svg">
<path d="M181.272 116.179L205.023 128.847L180.278 143.134L153.972 158.321L127.667 173.509L102.921 187.796L103.826 160.893L104.791 132.19L105.756 103.487L106.668 76.3876L130.592 89.148L155.932 102.664L181.272 116.179ZM99.06 302.608L99.9647 275.705L100.93 247.002L101.895 218.299L102.807 191.2L126.731 203.96L152.071 217.476L177.411 230.992L201.162 243.66L176.417 257.946L150.111 273.134L123.806 288.321L99.06 302.608ZM208.029 130.45L231.953 143.21L257.293 156.726L282.633 170.242L306.384 182.91L281.639 197.196L255.333 212.384L229.028 227.571L204.282 241.858L205.187 214.955L206.152 186.252L207.117 157.549L208.029 130.45Z" fill="#22262A" stroke="url(#paint0_linear_850_4582)" stroke-width="2"/>
<path d="M129.45 232.914C127.803 240.556 128.257 244.841 129.45 252.483C130.643 260.124 121.056 258.074 115.03 258.074C109.004 258.074 106.421 267.105 115.03 268.61C123.639 270.116 133.754 272.051 133.754 272.051C133.754 272.051 138.643 274.385 141.072 281.943C143.5 289.5 152.706 299.146 155.504 302.371C158.302 305.597 164.961 380 164.961 380L223.5 372.904C223.5 372.904 204.561 295.705 202.839 290.974C202.839 290.974 205.422 292.91 211.448 272.051C217.474 251.192 210.872 226.678 211.448 222.592C212.023 218.507 211.448 219.582 213.17 209.905C214.891 200.228 205.852 198.293 202.839 206.034C199.826 213.776 198.965 216.356 197.674 219.797C196.383 223.237 189.065 222.592 189.065 219.797V206.034C189.065 197.648 177.228 195.713 175.722 206.034L175.667 206.407C174.21 216.393 173.992 217.885 173.354 219.797C172.709 221.732 167.113 223.022 166.252 220.872C165.391 218.722 163.885 213.776 161.948 206.034C160.011 198.293 150.111 199.368 149.895 209.905C149.68 220.442 149.895 222.162 149.895 224.528C149.895 226.893 144.085 227.968 143.224 225.818C142.363 223.667 141.717 221.732 138.704 212.055C135.691 202.379 125.336 206.679 126.867 214.636C128.398 222.592 131.096 225.272 129.45 232.914Z" fill="url(#paint1_linear_850_4582)"/>
<path d="M175.722 206.034C177.228 195.713 189.065 197.648 189.065 206.034M175.722 206.034L175.667 206.407M175.722 206.034C175.703 206.16 175.685 206.284 175.667 206.407M189.065 206.034C189.065 214.421 189.065 217.001 189.065 219.797M189.065 206.034V219.797M189.065 219.797C189.065 222.592 196.383 223.237 197.674 219.797C198.965 216.356 199.826 213.776 202.839 206.034C205.852 198.293 214.891 200.228 213.17 209.905C211.448 219.582 212.023 218.507 211.448 222.592C210.872 226.678 217.474 251.192 211.448 272.051C205.422 292.91 202.839 290.974 202.839 290.974C204.561 295.705 223.5 372.904 223.5 372.904L164.961 380C164.961 380 158.302 305.597 155.504 302.371C152.706 299.146 143.5 289.5 141.072 281.943C138.643 274.385 133.754 272.051 133.754 272.051C133.754 272.051 123.639 270.116 115.03 268.61C106.421 267.105 109.004 258.074 115.03 258.074C121.056 258.074 130.643 260.124 129.45 252.483C128.257 244.841 127.803 240.556 129.45 232.914C131.096 225.272 128.398 222.592 126.867 214.636C125.336 206.679 135.691 202.379 138.704 212.055C141.717 221.732 142.363 223.667 143.224 225.818C144.085 227.968 149.895 226.893 149.895 224.528C149.895 222.162 149.68 220.442 149.895 209.905C150.111 199.368 160.011 198.293 161.948 206.034C163.885 213.776 165.391 218.722 166.252 220.872C167.113 223.022 172.709 221.732 173.354 219.797C173.992 217.885 174.21 216.393 175.667 206.407" stroke="#22262A" stroke-width="2"/>
<path d="M239.896 179.993C247.337 177.598 250.821 175.063 256.842 170.209C262.864 165.355 265.881 174.682 268.894 179.901C271.907 185.12 281.02 182.841 278.019 174.633C275.019 166.425 271.637 156.697 271.637 156.697C271.637 156.697 270.46 156.78 276.545 145.414C282.629 134.048 284.126 124.138 285.52 120.103C286.915 116.067 349.52 75.6967 349.52 75.6967L314.105 28.5483C314.105 28.5483 256.719 83.5494 253.483 87.4059C253.483 87.4059 253.867 84.2016 232.79 89.4122C211.713 94.6228 193.784 112.597 189.958 114.142C186.132 115.686 187.351 115.647 178.109 118.994C168.868 122.341 171.712 131.137 179.922 129.876C188.133 128.615 190.798 128.07 194.424 127.468C198.049 126.866 201.149 133.526 198.728 134.923L186.809 141.805C179.546 145.998 183.789 157.217 193.481 153.36L193.831 153.221C203.208 149.49 204.609 148.933 206.584 148.529C208.582 148.121 212.498 152.322 211.066 154.142C209.634 155.963 206.104 159.741 200.368 165.289C194.632 170.837 200.514 178.873 209.746 173.791C218.979 168.709 220.361 167.662 222.41 166.48C224.458 165.297 228.295 169.792 226.863 171.613C225.431 173.433 224.078 174.96 217.204 182.408C210.331 189.856 219.233 196.673 225.358 191.369C231.482 186.064 232.454 182.388 239.896 179.993Z" fill="url(#paint2_linear_850_4582)"/>
<path d="M193.481 153.36C183.789 157.217 179.546 145.998 186.809 141.805M193.481 153.36L193.831 153.221M193.481 153.36C193.599 153.313 193.716 153.267 193.831 153.221M186.809 141.805C194.072 137.611 196.307 136.321 198.728 134.923M186.809 141.805L198.728 134.923M198.728 134.923C201.149 133.526 198.049 126.866 194.424 127.468C190.798 128.07 188.133 128.615 179.922 129.876C171.712 131.137 168.868 122.341 178.109 118.994C187.351 115.647 186.132 115.686 189.958 114.142C193.784 112.597 211.713 94.6228 232.79 89.4122C253.867 84.2016 253.483 87.4059 253.483 87.4059C256.719 83.5494 314.105 28.5483 314.105 28.5483L349.52 75.6967C349.52 75.6967 286.915 116.067 285.52 120.103C284.126 124.138 282.629 134.048 276.545 145.414C270.46 156.78 271.637 156.697 271.637 156.697C271.637 156.697 275.019 166.425 278.019 174.633C281.02 182.841 271.907 185.12 268.894 179.901C265.881 174.682 262.864 165.355 256.842 170.209C250.821 175.063 247.337 177.598 239.896 179.993C232.454 182.388 231.482 186.064 225.358 191.369C219.233 196.673 210.331 189.856 217.204 182.408C224.078 174.96 225.431 173.433 226.863 171.613C228.295 169.792 224.458 165.297 222.41 166.48C220.361 167.662 218.979 168.709 209.746 173.791C200.514 178.873 194.632 170.837 200.368 165.289C206.104 159.741 209.634 155.963 211.066 154.142C212.498 152.322 208.582 148.121 206.584 148.529C204.609 148.933 203.208 149.49 193.831 153.221" stroke="#22262A" stroke-width="2"/>
<path d="M155.493 137.355C153.097 129.913 150.562 126.43 145.709 120.408C140.855 114.387 150.182 111.369 155.401 108.356C160.62 105.343 158.34 96.2305 150.132 99.2312C141.924 102.232 132.197 105.614 132.197 105.614C132.197 105.614 132.28 106.79 120.914 100.706C109.548 94.6213 99.6381 93.1249 95.6023 91.7304C91.5665 90.3359 51.1964 27.7302 51.1964 27.7302L4.04803 63.1454C4.04803 63.1454 59.0492 120.532 62.9056 123.768C62.9056 123.768 59.7013 123.383 64.9119 144.46C70.1225 165.538 88.0967 183.467 89.6413 187.293C91.1859 191.119 91.1465 189.9 94.4939 199.141C97.8412 208.382 106.637 205.539 105.376 197.328C104.114 189.117 103.57 186.452 102.968 182.827C102.366 179.202 109.025 176.102 110.423 178.523L117.304 190.441C121.498 197.704 132.716 193.462 128.86 183.769L128.721 183.42C124.99 174.043 124.433 172.642 124.029 170.667C123.621 168.668 127.821 164.753 129.642 166.185C131.463 167.617 135.241 171.147 140.789 176.882C146.337 182.618 154.373 176.737 149.291 167.504C144.209 158.271 143.162 156.889 141.98 154.841C140.797 152.792 145.292 148.956 147.112 150.387C148.933 151.819 150.46 153.173 157.908 160.046C165.355 166.92 172.173 158.018 166.869 151.893C161.564 145.768 157.888 144.796 155.493 137.355Z" fill="url(#paint3_linear_850_4582)"/>
<path d="M128.86 183.769C132.716 193.462 121.498 197.704 117.304 190.441M128.86 183.769L128.721 183.42M128.86 183.769C128.813 183.652 128.767 183.535 128.721 183.42M117.304 190.441C113.111 183.178 111.821 180.944 110.423 178.523M117.304 190.441L110.423 178.523M110.423 178.523C109.025 176.102 102.366 179.202 102.968 182.827C103.57 186.452 104.114 189.117 105.376 197.328C106.637 205.539 97.8412 208.382 94.4939 199.141C91.1466 189.9 91.1859 191.119 89.6413 187.293C88.0967 183.467 70.1225 165.538 64.9119 144.46C59.7013 123.383 62.9056 123.768 62.9056 123.768C59.0492 120.532 4.04803 63.1454 4.04803 63.1454L51.1964 27.7302C51.1964 27.7302 91.5665 90.3359 95.6023 91.7304C99.6381 93.1249 109.548 94.6213 120.914 100.706C132.279 106.79 132.197 105.614 132.197 105.614C132.197 105.614 141.924 102.232 150.132 99.2312C158.34 96.2305 160.62 105.343 155.401 108.356C150.182 111.369 140.855 114.387 145.709 120.408C150.562 126.43 153.097 129.913 155.493 137.355C157.888 144.796 161.564 145.768 166.869 151.893C172.173 158.018 165.355 166.92 157.908 160.046C150.46 153.173 148.933 151.819 147.112 150.387C145.292 148.956 140.797 152.792 141.98 154.841C143.162 156.889 144.209 158.271 149.291 167.504C154.373 176.737 146.337 182.618 140.789 176.882C135.241 171.147 131.463 167.617 129.642 166.185C127.821 164.753 123.621 168.668 124.029 170.667C124.433 172.642 124.99 174.043 128.721 183.42" stroke="#22262A" stroke-width="2"/>
<defs>
<linearGradient id="paint0_linear_850_4582" x1="22.9507" y1="174.386" x2="231.733" y2="58.9939" gradientUnits="userSpaceOnUse">
<stop offset="0.267495" stop-color="#FFC6CE"/>
<stop offset="1" stop-color="#64D6EE"/>
</linearGradient>
<linearGradient id="paint1_linear_850_4582" x1="109.5" y1="240.678" x2="221.421" y2="241.735" gradientUnits="userSpaceOnUse">
<stop offset="0.267495" stop-color="#FFC6CE"/>
<stop offset="1" stop-color="#64D6EE"/>
</linearGradient>
<linearGradient id="paint2_linear_850_4582" x1="256.594" y1="193.388" x2="201.549" y2="95.9331" gradientUnits="userSpaceOnUse">
<stop offset="0.267495" stop-color="#FFC6CE"/>
<stop offset="1" stop-color="#64D6EE"/>
</linearGradient>
<linearGradient id="paint3_linear_850_4582" x1="168.888" y1="120.657" x2="71.4328" y2="175.701" gradientUnits="userSpaceOnUse">
<stop offset="0.267495" stop-color="#FFC6CE"/>
<stop offset="1" stop-color="#64D6EE"/>
</linearGradient>
</defs>
</svg>
