<svg width="27" height="24" viewBox="0 0 27 24" fill="none" xmlns="http://www.w3.org/2000/svg">
<path d="M26.8945 11.526C26.8945 9.81961 25.5055 8.43181 23.8 8.43181C23.0611 8.43181 22.3699 8.70211 21.8122 9.17491C21.7942 9.18601 21.7756 9.19651 21.7579 9.20791C19.7458 7.92061 17.0776 7.09861 14.1262 6.98701L15.8878 1.97761L20.2846 3.02881C20.2882 4.41871 21.4189 5.54881 22.8106 5.54881C24.2032 5.54881 25.3372 4.41571 25.3372 3.02251C25.3372 1.62871 24.2032 0.495605 22.8106 0.495605C21.7519 0.495605 20.8474 1.15021 20.4724 2.07361L15.2632 0.828606L13.0999 6.97561C10.0222 7.03351 7.2331 7.86631 5.146 9.19681C4.5841 8.70931 3.883 8.43151 3.1306 8.43151C1.4245 8.43151 0.0375977 9.81961 0.0375977 11.5257C0.0375977 12.5811 0.582098 13.5561 1.4644 14.1237C1.40806 14.4329 1.37865 14.7464 1.3765 15.0606C1.3765 19.5264 6.7894 23.1597 13.4422 23.1597C20.0962 23.1597 25.5094 19.5264 25.5094 15.0606C25.5078 14.7554 25.4805 14.4508 25.4278 14.1501C26.3338 13.5867 26.8945 12.5976 26.8945 11.526V11.526ZM17.5453 15.5319C17.2956 15.5319 17.0484 15.4828 16.8178 15.3872C16.5872 15.2917 16.3776 15.1516 16.2011 14.975C16.0247 14.7984 15.8847 14.5888 15.7893 14.3581C15.6939 14.1274 15.6449 13.8802 15.6451 13.6305C15.6452 13.2545 15.7567 12.8869 15.9657 12.5743C16.1747 12.2617 16.4717 12.0181 16.8191 11.8742C17.1665 11.7304 17.5488 11.6929 17.9176 11.7663C18.2864 11.8398 18.6251 12.021 18.8909 12.287C19.1567 12.5529 19.3377 12.8918 19.4109 13.2606C19.4841 13.6294 19.4463 14.0117 19.3023 14.359C19.1583 14.7064 18.9145 15.0032 18.6017 15.212C18.289 15.4207 17.9213 15.5321 17.5453 15.5319ZM17.9236 18.7737C17.8666 18.8319 16.5037 20.22 13.4209 20.22C10.321 20.22 9.082 18.8133 9.0301 18.7527C8.94664 18.6547 8.90541 18.5276 8.91542 18.3992C8.92542 18.2709 8.98586 18.1517 9.0835 18.0678C9.18122 17.9849 9.30757 17.9437 9.43538 17.953C9.56319 17.9623 9.68223 18.0214 9.7669 18.1176C9.7945 18.1488 10.8289 19.2489 13.4209 19.2489C16.0561 19.2489 17.2126 18.1095 17.2249 18.0984C17.3153 18.0094 17.4368 17.9593 17.5636 17.9587C17.6905 17.9581 17.8125 18.0071 17.9037 18.0952C17.9949 18.1833 18.048 18.3036 18.0517 18.4304C18.0554 18.5572 18.0095 18.6804 17.9236 18.7737V18.7737ZM7.7086 13.6305C7.70423 13.378 7.7502 13.1272 7.84383 12.8927C7.93745 12.6583 8.07685 12.4448 8.25388 12.2647C8.43092 12.0847 8.64204 11.9417 8.87493 11.8442C9.10783 11.7466 9.35782 11.6964 9.61031 11.6965C9.86281 11.6967 10.1128 11.7471 10.3456 11.8449C10.5784 11.9426 10.7893 12.0858 10.9662 12.266C11.1431 12.4462 11.2823 12.6598 11.3757 12.8944C11.4691 13.129 11.5148 13.3799 11.5102 13.6323C11.5011 14.1306 11.2967 14.6054 10.9411 14.9544C10.5854 15.3035 10.1069 15.499 9.60851 15.4987C9.11016 15.4985 8.63182 15.3026 8.27648 14.9532C7.92114 14.6038 7.71721 14.1288 7.7086 13.6305V13.6305Z" fill="url(#paint0_linear_1251_5359)"/>
<defs>
<linearGradient id="paint0_linear_1251_5359" x1="0.0375976" y1="5.71431" x2="26.3987" y2="6.18294" gradientUnits="userSpaceOnUse">
<stop offset="0.267495" stop-color="#FFC6CE"/>
<stop offset="1" stop-color="#64D6EE"/>
</linearGradient>
</defs>
</svg>
