<svg width="50" height="50" viewBox="20 25 50 50" fill="none" xmlns="http://www.w3.org/2000/svg">
<g clip-path="url(#clip0_1040_4092)">
<path d="M56.2511 61.7707C56.323 61.7707 56.359 61.8786 56.359 62.0944C56.359 62.3103 56.323 62.4182 56.2511 62.4182H46.6461C45.8547 62.4182 44.3797 60.9972 42.2213 58.1553C40.0629 55.2774 37.4548 51.2663 34.397 46.122C34.1092 46.158 33.6955 46.176 33.1559 46.176C31.7529 46.176 30.7636 46.158 30.188 46.122V58.0474C30.188 59.1626 30.278 59.972 30.4578 60.4756C30.6377 60.9793 30.9795 61.321 31.4831 61.5009C32.0227 61.6807 32.8681 61.7707 34.0192 61.7707C34.0912 61.7707 34.1272 61.8786 34.1272 62.0944C34.1272 62.3103 34.0912 62.4182 34.0192 62.4182C32.8321 62.4182 31.8968 62.4002 31.2133 62.3643L27.1123 62.3103L23.1731 62.3643C22.4536 62.4002 21.4824 62.4182 20.2592 62.4182C20.1513 62.4182 20.0974 62.3103 20.0974 62.0944C20.0974 61.8786 20.1513 61.7707 20.2592 61.7707C21.4104 61.7707 22.2378 61.6807 22.7414 61.5009C23.281 61.321 23.6408 60.9793 23.8207 60.4756C24.0365 59.936 24.1444 59.1266 24.1444 58.0474V33.0635C24.1444 31.9843 24.0545 31.1929 23.8746 30.6893C23.6947 30.1856 23.335 29.8439 22.7954 29.664C22.2558 29.4482 21.4284 29.3402 20.3132 29.3402C20.2413 29.3402 20.2053 29.2323 20.2053 29.0165C20.2053 28.8006 20.2413 28.6927 20.3132 28.6927L23.1731 28.7467C24.8279 28.8186 26.141 28.8546 27.1123 28.8546C28.3354 28.8546 29.6124 28.8006 30.9435 28.6927C31.4111 28.6567 31.9867 28.6208 32.6702 28.5848C33.3897 28.5488 34.1811 28.5308 35.0445 28.5308C38.3181 28.5308 40.8543 29.1424 42.653 30.3655C44.4517 31.5526 45.351 33.2254 45.351 35.3838C45.351 37.3624 44.8114 39.1611 43.7322 40.7799C42.653 42.3628 41.214 43.6399 39.4153 44.6111C42.2932 48.928 44.7035 52.3096 46.6461 54.7558C48.5887 57.202 50.3154 58.9827 51.8263 60.0979C53.3372 61.2131 54.8121 61.7707 56.2511 61.7707ZM30.188 44.6111C31.0514 44.755 32.0946 44.827 33.3178 44.827C35.4042 44.827 36.8972 44.2514 37.7965 43.1002C38.7318 41.9131 39.1995 40.0245 39.1995 37.4344C39.1995 34.4845 38.7678 32.452 37.9044 31.3368C37.0411 30.2216 35.8 29.664 34.1811 29.664C32.7422 29.664 31.7169 29.9338 31.1054 30.4734C30.4938 31.013 30.188 31.9124 30.188 33.1715V44.6111Z" fill="url(#paint0_linear_1040_4092)"/>
<g filter="url(#filter0_d_1040_4092)">
<path d="M71.5379 55.2841C71.5379 52.8997 69.597 50.9605 67.2139 50.9605C66.1814 50.9605 65.2156 51.3382 64.4363 51.9988C64.4111 52.0143 64.3852 52.029 64.3604 52.0449C61.5489 50.2462 57.8206 49.0976 53.6965 48.9416L56.158 41.9419L62.3018 43.4108C62.3068 45.3529 63.8867 46.932 65.8314 46.932C67.7773 46.932 69.3618 45.3487 69.3618 43.402C69.3618 41.4544 67.7773 39.8711 65.8314 39.8711C64.352 39.8711 63.0882 40.7858 62.5642 42.0761L55.2853 40.3364L52.2624 48.9257C47.9619 49.0066 44.0647 50.1703 41.1483 52.0294C40.3632 51.3482 39.3835 50.9601 38.3322 50.9601C35.9482 50.9601 34.0103 52.8997 34.0103 55.2837C34.0103 56.7584 34.7711 58.1208 36.0039 58.9139C35.9252 59.3459 35.8841 59.7839 35.8811 60.223C35.8811 66.4632 43.4447 71.5401 52.7407 71.5401C62.0385 71.5401 69.6025 66.4632 69.6025 60.223C69.6002 59.7965 69.5621 59.3709 69.4884 58.9508C70.7544 58.1635 71.5379 56.7814 71.5379 55.2841ZM58.4741 60.8816C58.1252 60.8816 57.7798 60.8129 57.4575 60.6794C57.1353 60.5459 56.8425 60.3502 56.5959 60.1034C56.3493 59.8567 56.1537 59.5638 56.0204 59.2414C55.8871 58.919 55.8186 58.5736 55.8189 58.2247C55.819 57.6993 55.9749 57.1857 56.2669 56.7489C56.5589 56.312 56.9739 55.9716 57.4593 55.7707C57.9448 55.5697 58.479 55.5172 58.9943 55.6199C59.5096 55.7225 59.9829 55.9757 60.3543 56.3474C60.7257 56.719 60.9786 57.1925 61.0809 57.7078C61.1832 58.2232 61.1304 58.7573 60.9292 59.2427C60.7279 59.728 60.3872 60.1428 59.9502 60.4345C59.5132 60.7263 58.9995 60.8818 58.4741 60.8816ZM59.0027 65.4114C58.923 65.4927 57.0186 67.4324 52.711 67.4324C48.3794 67.4324 46.6482 65.4667 46.5756 65.3821C46.459 65.2451 46.4014 65.0675 46.4154 64.8882C46.4294 64.7088 46.5138 64.5423 46.6503 64.425C46.7868 64.3092 46.9634 64.2516 47.1419 64.2646C47.3205 64.2776 47.4869 64.3602 47.6052 64.4946C47.6437 64.5382 49.0891 66.0754 52.711 66.0754C56.3932 66.0754 58.0092 64.4833 58.0264 64.4678C58.1526 64.3435 58.3225 64.2734 58.4997 64.2725C58.6769 64.2717 58.8474 64.3402 58.9749 64.4633C59.1023 64.5865 59.1765 64.7546 59.1817 64.9317C59.1869 65.1088 59.1227 65.281 59.0027 65.4114ZM44.7291 58.2247C44.723 57.872 44.7872 57.5215 44.918 57.1938C45.0489 56.8662 45.2436 56.5678 45.491 56.3163C45.7384 56.0647 46.0334 55.8649 46.3588 55.7286C46.6842 55.5923 47.0336 55.5222 47.3864 55.5224C47.7392 55.5225 48.0885 55.593 48.4137 55.7296C48.739 55.8662 49.0339 56.0663 49.281 56.3181C49.5281 56.5699 49.7226 56.8684 49.8531 57.1962C49.9837 57.524 50.0476 57.8745 50.0411 58.2272C50.0284 58.9235 49.7428 59.5869 49.2459 60.0747C48.7489 60.5625 48.0802 60.8356 47.3839 60.8353C46.6875 60.8349 46.0191 60.5612 45.5226 60.0729C45.0261 59.5847 44.7411 58.921 44.7291 58.2247Z" fill="url(#paint1_linear_1040_4092)"/>
</g>
</g>
<defs>
<filter id="filter0_d_1040_4092" x="29.4188" y="34.7458" width="46.7102" height="46.7102" filterUnits="userSpaceOnUse" color-interpolation-filters="sRGB">
<feFlood flood-opacity="0" result="BackgroundImageFix"/>
<feColorMatrix in="SourceAlpha" type="matrix" values="0 0 0 0 0 0 0 0 0 0 0 0 0 0 0 0 0 0 127 0" result="hardAlpha"/>
<feOffset dy="2.3954"/>
<feGaussianBlur stdDeviation="1.1977"/>
<feComposite in2="hardAlpha" operator="out"/>
<feColorMatrix type="matrix" values="0 0 0 0 0 0 0 0 0 0 0 0 0 0 0 0 0 0 0.25 0"/>
<feBlend mode="normal" in2="BackgroundImageFix" result="effect1_dropShadow_1040_4092"/>
<feBlend mode="normal" in="SourceGraphic" in2="effect1_dropShadow_1040_4092" result="shape"/>
</filter>
<linearGradient id="paint0_linear_1040_4092" x1="5.44604" y1="15.5148" x2="67.1795" y2="16.0491" gradientUnits="userSpaceOnUse">
<stop offset="0.267495" stop-color="#FFC6CE"/>
<stop offset="1" stop-color="#64D6EE"/>
</linearGradient>
<linearGradient id="paint1_linear_1040_4092" x1="34.0103" y1="47.1633" x2="70.8451" y2="47.8181" gradientUnits="userSpaceOnUse">
<stop offset="0.267495" stop-color="#FFC6CE"/>
<stop offset="1" stop-color="#64D6EE"/>
</linearGradient>
<clipPath id="clip0_1040_4092">
<rect width="89.8276" height="89.8276" fill="white" transform="translate(0.655273)"/>
</clipPath>
</defs>
</svg>
