<svg width="31" height="31" viewBox="0 0 31 31" fill="none" xmlns="http://www.w3.org/2000/svg">
<g clip-path="url(#clip0_1251_5362)">
<path d="M17.9658 3.32764H18.5908L25.4658 10.2026V10.8276M17.9658 3.32764H7.96582C7.30278 3.32764 6.66689 3.59103 6.19805 4.05987C5.72921 4.52871 5.46582 5.1646 5.46582 5.82764V25.8276C5.46582 26.4907 5.72921 27.1266 6.19805 27.5954C6.66689 28.0643 7.30278 28.3276 7.96582 28.3276H22.9658C23.6288 28.3276 24.2647 28.0643 24.7336 27.5954C25.2024 27.1266 25.4658 26.4907 25.4658 25.8276V10.8276M17.9658 3.32764V10.8276H25.4658" stroke="url(#paint0_linear_1251_5362)" stroke-width="3.5" stroke-linecap="round" stroke-linejoin="round"/>
<path fill-rule="evenodd" clip-rule="evenodd" d="M6.19805 4.05987C6.66689 3.59103 7.30278 3.32764 7.96582 3.32764H17.9658V10.8276H25.4658V25.8276C25.4658 26.4907 25.2024 27.1266 24.7336 27.5954C24.2647 28.0643 23.6288 28.3276 22.9658 28.3276H7.96582C7.30278 28.3276 6.66689 28.0643 6.19805 27.5954C5.72921 27.1266 5.46582 26.4907 5.46582 25.8276V5.82764C5.46582 5.1646 5.72921 4.52871 6.19805 4.05987ZM8.01663 11.9204C8.13744 11.4887 8.59325 11.0141 8.98686 10.9101C9.40075 10.8007 12.5479 10.7999 12.9136 10.9092C13.6374 11.1255 14.0954 11.9836 13.886 12.7314C13.7567 13.1932 13.3143 13.6347 12.8682 13.747C12.4067 13.8632 9.38133 13.8598 8.98908 13.7425C8.2652 13.5263 7.80725 12.6682 8.01663 11.9204ZM8.01663 17.9395C8.13744 17.5079 8.59325 17.0333 8.98686 16.9292C9.42059 16.8146 21.5587 16.8137 21.9423 16.9284C22.6662 17.1446 23.1241 18.0027 22.9147 18.7505C22.7855 19.2124 22.3431 19.6538 21.8969 19.7661C21.4089 19.889 9.40139 19.8849 8.98908 19.7617C8.2652 19.5454 7.80725 18.6873 8.01663 17.9395ZM8.01663 23.9587C8.13744 23.527 8.59325 23.0524 8.98686 22.9484C9.42059 22.8337 21.5587 22.8329 21.9423 22.9475C22.6662 23.1638 23.1241 24.0219 22.9147 24.7697C22.7855 25.2315 22.3431 25.673 21.8969 25.7853C21.4089 25.9082 9.40139 25.904 8.98908 25.7808C8.2652 25.5646 7.80725 24.7065 8.01663 23.9587Z" fill="url(#paint1_linear_1251_5362)"/>
</g>
<defs>
<linearGradient id="paint0_linear_1251_5362" x1="5.46582" y1="9.08422" x2="25.1" y2="9.31986" gradientUnits="userSpaceOnUse">
<stop offset="0.267495" stop-color="#FFC6CE"/>
<stop offset="1" stop-color="#64D6EE"/>
</linearGradient>
<linearGradient id="paint1_linear_1251_5362" x1="5.46582" y1="9.08422" x2="25.1" y2="9.31986" gradientUnits="userSpaceOnUse">
<stop offset="0.267495" stop-color="#FFC6CE"/>
<stop offset="1" stop-color="#64D6EE"/>
</linearGradient>
<clipPath id="clip0_1251_5362">
<rect width="30" height="30" fill="white" transform="translate(0.46582 0.827637)"/>
</clipPath>
</defs>
</svg>
