<svg width="160" height="160" viewBox="0 0 160 160" fill="none" xmlns="http://www.w3.org/2000/svg">
<g clip-path="url(#clip0_258:3201)">
<path d="M0 80C0 35.8172 35.8172 0 80 0C124.183 0 160 35.8172 160 80C160 124.183 124.183 160 80 160C35.8172 160 0 124.183 0 80Z" fill="url(#paint0_linear_258:3201)"/>
</g>
<path fill-rule="evenodd" clip-rule="evenodd" d="M106 80.8338L80 37V68.8033L106 80.8338Z" fill="#22262A"/>
<path d="M80 37L54 80.8338M80 37L106 80.8338M80 37V68.8033M54 80.8338L80 96.4377M54 80.8338L80 68.8033M80 96.4377L106 80.8338M80 96.4377V68.8033M106 80.8338L80 68.8033M80 101.44L106 85.8366L80 123M80 101.44L54 85.8366L80 123M80 101.44V123" stroke="#22262A"/>
<defs>
<linearGradient id="paint0_linear_258:3201" x1="-5.55351e-07" y1="36.8421" x2="157.061" y2="39.1983" gradientUnits="userSpaceOnUse">
<stop offset="0.267495" stop-color="#FFC6CE"/>
<stop offset="1" stop-color="#64D6EE"/>
</linearGradient>
<clipPath id="clip0_258:3201">
<path d="M0 80C0 35.8172 35.8172 0 80 0C124.183 0 160 35.8172 160 80C160 124.183 124.183 160 80 160C35.8172 160 0 124.183 0 80Z" fill="white"/>
</clipPath>
</defs>
</svg>
