<svg width="30" height="25" viewBox="0 0 30 25" fill="none" xmlns="http://www.w3.org/2000/svg">
<path d="M29.6795 3.67051C28.8568 4.8943 27.8474 5.93752 26.6514 6.80017C26.6632 7.03153 26.6691 7.29303 26.6691 7.58466C26.6691 9.20503 26.4328 10.8274 25.9604 12.4516C25.4879 14.0759 24.7661 15.6307 23.7952 17.1159C22.8242 18.6011 21.6676 19.9168 20.3254 21.0631C18.9832 22.2094 17.3698 23.1234 15.4852 23.8051C13.6006 24.4868 11.5808 24.8276 9.4258 24.8276C6.0626 24.8276 2.96543 23.9197 0.134277 22.1038C0.636773 22.1597 1.11871 22.1877 1.58008 22.1877C4.38976 22.1877 6.89926 21.3223 9.10857 19.5914C7.79854 19.5674 6.62531 19.1642 5.58887 18.3816C4.55244 17.5991 3.8392 16.5992 3.44913 15.3819C3.83468 15.4554 4.21521 15.4921 4.59071 15.4921C5.13123 15.4921 5.66308 15.4216 6.18628 15.2806C4.78823 15.0006 3.62844 14.3043 2.70688 13.1916C1.78536 12.079 1.3246 10.7948 1.3246 9.33908V9.26406C2.18273 9.7392 3.09806 9.99193 4.07059 10.0223C3.2424 9.47014 2.58576 8.75015 2.10069 7.86229C1.61559 6.97444 1.37304 6.01362 1.37304 4.97985C1.37304 3.88956 1.64624 2.8743 2.19266 1.93406C3.71301 3.79977 5.55523 5.2909 7.71933 6.40746C9.88346 7.52404 12.2051 8.14415 14.6844 8.2678C14.5787 7.82711 14.5257 7.36723 14.5255 6.88816C14.5255 5.21542 15.1175 3.78715 16.3014 2.60335C17.4853 1.41954 18.9136 0.827637 20.5863 0.827637C22.3376 0.827637 23.8128 1.46532 25.0118 2.7407C26.3816 2.46936 27.6643 1.97856 28.8597 1.26832C28.3992 2.71776 27.5117 3.83591 26.1974 4.62275C27.4054 4.4792 28.5661 4.16179 29.6795 3.67051H29.6795Z" fill="url(#paint0_linear_1251_5341)"/>
<defs>
<linearGradient id="paint0_linear_1251_5341" x1="0.134277" y1="6.35395" x2="29.1334" y2="6.88951" gradientUnits="userSpaceOnUse">
<stop offset="0.267495" stop-color="#FFC6CE"/>
<stop offset="1" stop-color="#64D6EE"/>
</linearGradient>
</defs>
</svg>
