<svg width="344" height="252" viewBox="0 0 344 252" fill="none" xmlns="http://www.w3.org/2000/svg">
<path d="M1 70C1 53.4315 14.4315 40 31 40H302C318.569 40 332 53.4315 332 70V110H1V70Z" fill="#22262A"/>
<path d="M114.428 83.456C112.86 83.456 111.492 83.2 110.324 82.688C109.156 82.16 108.188 81.456 107.42 80.576C106.668 79.696 106.108 78.728 105.74 77.672C105.372 76.6 105.188 75.52 105.188 74.432V73.904C105.188 72.8 105.372 71.72 105.74 70.664C106.108 69.608 106.66 68.648 107.396 67.784C108.148 66.92 109.076 66.232 110.18 65.72C111.3 65.208 112.588 64.952 114.044 64.952C115.612 64.952 117.004 65.248 118.22 65.84C119.436 66.432 120.412 67.248 121.148 68.288C121.884 69.312 122.316 70.496 122.444 71.84H118.508C118.348 70.88 117.86 70.104 117.044 69.512C116.228 68.92 115.228 68.624 114.044 68.624C113.02 68.624 112.14 68.864 111.404 69.344C110.684 69.808 110.132 70.464 109.748 71.312C109.364 72.144 109.172 73.104 109.172 74.192C109.172 75.904 109.628 77.28 110.54 78.32C111.468 79.36 112.764 79.88 114.428 79.88C115.324 79.88 116.124 79.728 116.828 79.424C117.532 79.104 118.092 78.688 118.508 78.176V76.712H113.924V73.88H123.572V76.712H122.132V79.688C121.38 80.904 120.34 81.84 119.012 82.496C117.684 83.136 116.156 83.456 114.428 83.456ZM134.47 83.456C132.886 83.456 131.502 83.184 130.318 82.64C129.15 82.08 128.182 81.352 127.414 80.456C126.646 79.544 126.07 78.568 125.686 77.528C125.318 76.472 125.134 75.448 125.134 74.456V73.928C125.134 72.84 125.326 71.768 125.71 70.712C126.11 69.656 126.702 68.696 127.486 67.832C128.27 66.952 129.246 66.256 130.414 65.744C131.582 65.216 132.934 64.952 134.47 64.952C136.006 64.952 137.358 65.216 138.526 65.744C139.694 66.256 140.67 66.952 141.454 67.832C142.238 68.696 142.83 69.656 143.23 70.712C143.63 71.768 143.83 72.84 143.83 73.928V74.456C143.83 75.448 143.638 76.472 143.254 77.528C142.87 78.568 142.294 79.544 141.526 80.456C140.758 81.352 139.782 82.08 138.598 82.64C137.43 83.184 136.054 83.456 134.47 83.456ZM134.47 79.784C135.574 79.784 136.526 79.536 137.326 79.04C138.142 78.544 138.766 77.872 139.198 77.024C139.63 76.176 139.846 75.24 139.846 74.216C139.846 73.128 139.622 72.168 139.174 71.336C138.742 70.488 138.126 69.824 137.326 69.344C136.526 68.864 135.574 68.624 134.47 68.624C133.366 68.624 132.414 68.864 131.614 69.344C130.814 69.824 130.198 70.488 129.766 71.336C129.334 72.168 129.118 73.128 129.118 74.216C129.118 75.24 129.334 76.176 129.766 77.024C130.198 77.872 130.814 78.544 131.614 79.04C132.414 79.536 133.366 79.784 134.47 79.784ZM146.812 83.096V65.336H153.316C154.9 65.336 156.284 65.568 157.468 66.032C158.652 66.496 159.636 67.128 160.42 67.928C161.22 68.728 161.82 69.648 162.22 70.688C162.62 71.712 162.82 72.792 162.82 73.928V74.456C162.82 75.528 162.62 76.576 162.22 77.6C161.82 78.624 161.22 79.552 160.42 80.384C159.636 81.216 158.652 81.88 157.468 82.376C156.284 82.856 154.9 83.096 153.316 83.096H146.812ZM153.532 69.008H150.748V79.424H153.532C155.18 79.424 156.476 78.944 157.42 77.984C158.364 77.024 158.836 75.76 158.836 74.192C158.836 72.544 158.364 71.272 157.42 70.376C156.476 69.464 155.18 69.008 153.532 69.008ZM164.556 77.912V74.504H174.66V77.912H164.556ZM179.706 83V68.912H174.786V65.48H188.586V68.912H183.642V83H179.706ZM191.11 83V65.48H195.046V83H191.11ZM199.031 83V65.48H209.879V68.744H202.871V72.464H209.495V75.728H202.871V79.736H210.047V83H199.031ZM213.281 83V65.336H220.169C222.361 65.336 224.097 65.832 225.377 66.824C226.657 67.8 227.297 69.264 227.297 71.216V71.6C227.297 72.88 227.001 73.952 226.409 74.816C225.833 75.664 225.025 76.304 223.984 76.736L228.473 83H223.913L220.073 77.384H217.217V83H213.281ZM220.481 68.672H217.217V74.288H220.481C221.329 74.288 222.009 74.032 222.521 73.52C223.049 73.008 223.312 72.328 223.312 71.48C223.312 70.648 223.049 69.976 222.521 69.464C222.009 68.936 221.329 68.672 220.481 68.672Z" fill="url(#paint0_linear_1251_22637)"/>
<g filter="url(#filter0_b_1251_22637)">
<rect x="1" y="110" width="331" height="141" fill="#22262A" fill-opacity="0.01"/>
<path d="M31.286 161C31.2567 161 31.242 160.956 31.242 160.868C31.242 160.78 31.2567 160.736 31.286 160.736C31.7113 160.736 32.0267 160.699 32.232 160.626C32.452 160.553 32.6133 160.413 32.716 160.208C32.8187 160.003 32.914 159.673 33.002 159.218L34.806 149.032C34.8647 148.651 34.894 148.416 34.894 148.328C34.894 148.005 34.7987 147.793 34.608 147.69C34.432 147.573 34.102 147.514 33.618 147.514C33.5887 147.514 33.574 147.47 33.574 147.382C33.574 147.294 33.5887 147.25 33.618 147.25L34.608 147.272C35.1653 147.301 35.6127 147.316 35.95 147.316C36.302 147.316 36.7713 147.301 37.358 147.272L38.37 147.25C38.3993 147.25 38.414 147.294 38.414 147.382C38.414 147.47 38.3993 147.514 38.37 147.514C37.9447 147.514 37.622 147.558 37.402 147.646C37.1967 147.719 37.0427 147.866 36.94 148.086C36.8373 148.291 36.742 148.614 36.654 149.054L34.872 159.13C34.828 159.409 34.806 159.636 34.806 159.812C34.806 160.105 34.8793 160.303 35.026 160.406C35.1727 160.509 35.4367 160.56 35.818 160.56H36.94C37.9227 160.56 38.7807 160.296 39.514 159.768C40.2473 159.24 40.8927 158.441 41.45 157.37C41.45 157.355 41.4793 157.348 41.538 157.348C41.6553 157.348 41.7067 157.377 41.692 157.436C41.3547 158.653 41.1053 159.731 40.944 160.67C40.9147 160.787 40.8707 160.875 40.812 160.934C40.768 160.978 40.6947 161 40.592 161H31.286ZM51.129 159.306C51.1436 159.291 51.1656 159.284 51.195 159.284C51.239 159.284 51.2756 159.313 51.305 159.372C51.3343 159.416 51.3343 159.453 51.305 159.482C50.821 160.054 50.381 160.487 49.985 160.78C49.589 161.059 49.2076 161.198 48.841 161.198C48.5036 161.198 48.2543 161.103 48.093 160.912C47.9316 160.707 47.851 160.391 47.851 159.966C47.851 159.658 47.8803 159.35 47.939 159.042L48.247 157.282C47.6603 158.514 46.9636 159.489 46.157 160.208C45.365 160.927 44.595 161.286 43.847 161.286C43.3923 161.286 43.0403 161.154 42.791 160.89C42.5416 160.611 42.417 160.193 42.417 159.636C42.417 158.624 42.7323 157.539 43.363 156.38C44.0083 155.207 44.8003 154.224 45.739 153.432C46.6923 152.625 47.5943 152.222 48.445 152.222C48.7236 152.222 48.995 152.273 49.259 152.376C49.5376 152.464 49.7723 152.603 49.963 152.794C50.2563 152.545 50.469 152.295 50.601 152.046C50.6303 152.017 50.6596 152.002 50.689 152.002C50.733 152.002 50.777 152.017 50.821 152.046C50.865 152.061 50.8796 152.075 50.865 152.09L49.589 159.042C49.545 159.262 49.523 159.445 49.523 159.592C49.523 159.768 49.5523 159.907 49.611 160.01C49.6696 160.113 49.7503 160.164 49.853 160.164C50.1316 160.164 50.557 159.878 51.129 159.306ZM45.057 159.856C45.585 159.856 46.1276 159.555 46.685 158.954C47.257 158.353 47.7336 157.634 48.115 156.798C48.4963 155.962 48.687 155.243 48.687 154.642C48.687 154.187 48.577 153.835 48.357 153.586C48.137 153.322 47.8216 153.19 47.411 153.19C46.9416 153.19 46.487 153.381 46.047 153.762C45.607 154.129 45.2256 154.642 44.903 155.302C44.595 155.947 44.375 156.673 44.243 157.48C44.1843 157.832 44.155 158.169 44.155 158.492C44.155 159.401 44.4556 159.856 45.057 159.856ZM59.5639 159.042C59.5199 159.277 59.4979 159.467 59.4979 159.614C59.4979 159.981 59.6152 160.164 59.8499 160.164C59.9966 160.164 60.1726 160.098 60.3779 159.966C60.5832 159.819 60.8326 159.599 61.1259 159.306C61.1552 159.277 61.1772 159.262 61.1919 159.262C61.2359 159.262 61.2726 159.291 61.3019 159.35C61.3459 159.394 61.3459 159.438 61.3019 159.482C60.7886 160.069 60.3412 160.501 59.9599 160.78C59.5786 161.059 59.1899 161.198 58.7939 161.198C58.1486 161.198 57.8259 160.802 57.8259 160.01C57.8259 159.775 57.8626 159.453 57.9359 159.042L58.2439 157.326C57.6279 158.573 56.9679 159.548 56.2639 160.252C55.5599 160.941 54.8412 161.286 54.1079 161.286C53.5652 161.286 53.1106 161.11 52.7439 160.758C52.3919 160.391 52.2159 159.834 52.2159 159.086C52.2159 158.822 52.2379 158.536 52.2819 158.228C52.4726 157.187 52.8832 156.204 53.5139 155.28C54.1446 154.356 54.8852 153.615 55.7359 153.058C56.5866 152.501 57.4152 152.222 58.2219 152.222C58.5446 152.222 58.8599 152.281 59.1679 152.398L60.0259 147.822C60.0699 147.573 60.0919 147.367 60.0919 147.206C60.0919 146.986 60.0552 146.825 59.9819 146.722C59.9086 146.619 59.7912 146.568 59.6299 146.568C59.4246 146.568 59.1019 146.671 58.6619 146.876H58.6179C58.5592 146.876 58.5226 146.839 58.5079 146.766C58.4932 146.693 58.5152 146.649 58.5739 146.634L61.8079 145.05H61.8519C61.9106 145.05 61.9619 145.072 62.0059 145.116C62.0499 145.16 62.0646 145.197 62.0499 145.226L59.5639 159.042ZM55.0759 159.9C55.6039 159.9 56.1172 159.643 56.6159 159.13C57.1146 158.602 57.5472 157.971 57.9139 157.238C58.2806 156.505 58.5226 155.845 58.6399 155.258L58.6619 155.126C58.6912 154.921 58.7059 154.781 58.7059 154.708C58.7059 154.224 58.5592 153.85 58.2659 153.586C57.9726 153.322 57.5912 153.19 57.1219 153.19C56.3152 153.205 55.6406 153.549 55.0979 154.224C54.5699 154.899 54.1959 155.874 53.9759 157.15C53.9172 157.502 53.8879 157.847 53.8879 158.184C53.8879 158.756 53.9906 159.189 54.1959 159.482C54.4012 159.761 54.6946 159.9 55.0759 159.9ZM69.7112 152.288C70.0486 152.288 70.3052 152.413 70.4812 152.662C70.6719 152.911 70.7672 153.263 70.7672 153.718C70.7672 154.847 70.1806 156.512 69.0072 158.712C67.8339 160.897 66.4919 162.855 64.9812 164.586C63.4706 166.317 62.2312 167.182 61.2632 167.182C60.4859 167.182 60.0972 166.867 60.0972 166.236C60.0972 166.133 60.1046 166.053 60.1192 165.994C60.1779 165.715 60.3099 165.503 60.5152 165.356C60.7059 165.209 60.9552 165.136 61.2632 165.136C61.4979 165.136 61.7839 165.187 62.1212 165.29C62.4732 165.378 62.7372 165.422 62.9132 165.422C63.2066 165.422 63.5072 165.319 63.8152 165.114C64.2259 164.835 64.7392 164.278 65.3552 163.442V162.43C65.3552 159.585 65.1499 157.377 64.7392 155.808C64.3286 154.239 63.7639 153.454 63.0452 153.454C62.8546 153.454 62.6639 153.52 62.4732 153.652C62.2972 153.784 62.1432 153.96 62.0112 154.18C61.9966 154.224 61.9526 154.246 61.8792 154.246C61.7766 154.246 61.7326 154.202 61.7472 154.114C62.0112 153.571 62.3706 153.139 62.8252 152.816C63.2799 152.479 63.7199 152.31 64.1452 152.31C64.7172 152.31 65.2159 152.647 65.6412 153.322C66.0666 153.982 66.3892 154.891 66.6092 156.05C66.8292 157.209 66.9392 158.507 66.9392 159.944C66.9392 160.501 66.9319 160.927 66.9172 161.22C67.5039 160.296 68.0172 159.409 68.4572 158.558C68.8972 157.707 69.1686 157.069 69.2712 156.644C69.3446 156.365 69.3812 156.065 69.3812 155.742C69.3812 155.434 69.3372 155.17 69.2492 154.95C69.1759 154.73 69.0659 154.495 68.9192 154.246C68.8019 154.055 68.7139 153.887 68.6552 153.74C68.6112 153.593 68.5892 153.439 68.5892 153.278C68.5892 152.985 68.6919 152.75 68.8972 152.574C69.1026 152.383 69.3739 152.288 69.7112 152.288ZM76.9618 161C76.9324 161 76.9178 160.956 76.9178 160.868C76.9178 160.78 76.9324 160.736 76.9618 160.736C77.3871 160.736 77.7024 160.699 77.9078 160.626C78.1278 160.553 78.2891 160.413 78.3918 160.208C78.4944 160.003 78.5898 159.673 78.6778 159.218L80.4818 149.032C80.5404 148.651 80.5698 148.416 80.5698 148.328C80.5698 148.005 80.4744 147.793 80.2838 147.69C80.1078 147.573 79.7778 147.514 79.2938 147.514C79.2644 147.514 79.2498 147.47 79.2498 147.382C79.2498 147.294 79.2644 147.25 79.2938 147.25L80.2838 147.272C80.8411 147.301 81.2884 147.316 81.6258 147.316C81.9778 147.316 82.4471 147.301 83.0338 147.272L84.0458 147.25C84.0751 147.25 84.0898 147.294 84.0898 147.382C84.0898 147.47 84.0751 147.514 84.0458 147.514C83.6204 147.514 83.2978 147.558 83.0778 147.646C82.8724 147.719 82.7184 147.866 82.6158 148.086C82.5131 148.291 82.4178 148.614 82.3298 149.054L80.5478 159.13C80.5038 159.409 80.4818 159.636 80.4818 159.812C80.4818 160.105 80.5551 160.303 80.7018 160.406C80.8484 160.509 81.1124 160.56 81.4938 160.56H82.6158C83.5984 160.56 84.4564 160.296 85.1898 159.768C85.9231 159.24 86.5684 158.441 87.1258 157.37C87.1258 157.355 87.1551 157.348 87.2138 157.348C87.3311 157.348 87.3824 157.377 87.3678 157.436C87.0304 158.653 86.7811 159.731 86.6198 160.67C86.5904 160.787 86.5464 160.875 86.4878 160.934C86.4438 160.978 86.3704 161 86.2678 161H76.9618ZM97.4648 159.262C97.4794 159.247 97.5014 159.24 97.5308 159.24C97.5748 159.24 97.6114 159.269 97.6408 159.328C97.6701 159.372 97.6701 159.416 97.6408 159.46C97.1128 160.061 96.6361 160.501 96.2108 160.78C95.8001 161.059 95.3894 161.198 94.9788 161.198C94.6561 161.198 94.4214 161.11 94.2748 160.934C94.1281 160.758 94.0548 160.479 94.0548 160.098C94.0548 159.819 94.0841 159.533 94.1428 159.24L94.5168 157.018C94.0034 158.367 93.4021 159.416 92.7128 160.164C92.0381 160.912 91.3194 161.286 90.5568 161.286C89.5594 161.286 89.0608 160.699 89.0608 159.526C89.0608 159.13 89.0974 158.749 89.1707 158.382L89.9628 154.466C90.0068 154.246 90.0288 154.063 90.0288 153.916C90.0288 153.535 89.9041 153.344 89.6548 153.344C89.5081 153.344 89.3321 153.417 89.1268 153.564C88.9214 153.711 88.6794 153.923 88.4008 154.202C88.3714 154.231 88.3421 154.246 88.3128 154.246C88.2688 154.246 88.2321 154.224 88.2028 154.18C88.1734 154.121 88.1808 154.07 88.2248 154.026C88.7381 153.425 89.1781 152.992 89.5448 152.728C89.9261 152.449 90.3148 152.31 90.7108 152.31C91.3561 152.31 91.6788 152.706 91.6788 153.498C91.6788 153.733 91.6421 154.055 91.5688 154.466L90.8648 157.964C90.7768 158.375 90.7328 158.727 90.7328 159.02C90.7328 159.783 90.9968 160.164 91.5248 160.164C91.9648 160.164 92.4194 159.878 92.8888 159.306C93.3581 158.734 93.7981 157.898 94.2088 156.798C94.6341 155.698 94.9788 154.393 95.2428 152.882L95.2648 152.728C95.3381 152.464 95.6901 152.332 96.3208 152.332C96.7608 152.332 96.9808 152.383 96.9808 152.486L96.8928 152.97C96.7461 153.659 96.6654 154.048 96.6508 154.136L95.7488 159.042C95.7194 159.174 95.7048 159.343 95.7048 159.548C95.7048 159.973 95.8368 160.186 96.1008 160.186C96.4234 160.186 96.8781 159.878 97.4648 159.262ZM101.594 161.286C100.596 161.286 99.8557 160.956 99.3717 160.296C98.9024 159.621 98.6677 158.785 98.6677 157.788C98.6677 157.436 98.7044 157.025 98.7777 156.556C98.939 155.705 99.2764 154.95 99.7897 154.29C100.303 153.63 100.904 153.124 101.594 152.772C102.283 152.405 102.965 152.222 103.64 152.222C104.168 152.222 104.63 152.339 105.026 152.574C105.436 152.794 105.642 153.109 105.642 153.52C105.642 153.828 105.554 154.077 105.378 154.268C105.216 154.444 104.974 154.532 104.652 154.532C104.094 154.532 103.764 154.231 103.662 153.63C103.588 153.381 103.486 153.183 103.354 153.036C103.222 152.875 103.016 152.794 102.738 152.794C102.21 152.794 101.755 153.073 101.374 153.63C101.007 154.173 100.75 154.899 100.604 155.808C100.516 156.292 100.472 156.761 100.472 157.216C100.472 158.155 100.662 158.91 101.044 159.482C101.44 160.039 102.026 160.318 102.804 160.318C103.141 160.318 103.5 160.245 103.882 160.098C104.263 159.937 104.593 159.746 104.872 159.526H104.894C104.938 159.526 104.982 159.548 105.026 159.592C105.07 159.636 105.077 159.68 105.048 159.724C104.49 160.252 103.911 160.648 103.31 160.912C102.723 161.161 102.151 161.286 101.594 161.286ZM114.743 159.35C114.758 159.335 114.78 159.328 114.809 159.328C114.868 159.328 114.912 159.357 114.941 159.416C114.971 159.46 114.963 159.497 114.919 159.526C113.951 160.641 113.181 161.198 112.609 161.198C112.228 161.198 111.898 161.095 111.619 160.89C111.355 160.67 111.055 160.281 110.717 159.724L109.441 157.568C109.309 157.363 109.199 157.223 109.111 157.15C109.023 157.077 108.906 157.04 108.759 157.04L108.099 160.78C108.026 161.044 107.674 161.176 107.043 161.176C106.603 161.176 106.383 161.125 106.383 161.022L106.471 160.538C106.618 159.849 106.699 159.46 106.713 159.372L108.847 147.822C108.891 147.573 108.913 147.367 108.913 147.206C108.913 146.986 108.877 146.825 108.803 146.722C108.73 146.619 108.613 146.568 108.451 146.568C108.246 146.568 107.923 146.671 107.483 146.876H107.439C107.395 146.876 107.359 146.839 107.329 146.766C107.315 146.693 107.337 146.649 107.395 146.634L110.607 145.05H110.651C110.71 145.05 110.761 145.072 110.805 145.116C110.864 145.16 110.886 145.197 110.871 145.226L109.331 153.894C109.859 153.381 110.439 152.977 111.069 152.684C111.7 152.376 112.323 152.222 112.939 152.222C113.453 152.222 113.812 152.332 114.017 152.552C114.237 152.772 114.347 153.036 114.347 153.344C114.347 153.916 114.017 154.481 113.357 155.038C112.697 155.595 111.795 156.079 110.651 156.49L112.081 158.822C112.375 159.306 112.617 159.629 112.807 159.79C113.013 159.951 113.233 160.032 113.467 160.032C113.805 160.032 114.23 159.805 114.743 159.35ZM111.685 153.08C111.04 153.08 110.453 153.388 109.925 154.004C109.412 154.62 109.06 155.441 108.869 156.468L108.825 156.666C109.984 156.387 110.835 156.05 111.377 155.654C111.92 155.243 112.228 154.723 112.301 154.092C112.375 153.417 112.169 153.08 111.685 153.08ZM122.299 161.242C121.697 161.242 121.177 161.11 120.737 160.846C120.311 160.582 120.099 160.259 120.099 159.878C120.099 159.57 120.187 159.335 120.363 159.174C120.539 159.013 120.751 158.932 121.001 158.932C121.206 158.932 121.375 158.998 121.507 159.13C121.653 159.262 121.793 159.445 121.925 159.68C122.115 159.988 122.299 160.215 122.475 160.362C122.651 160.509 122.9 160.582 123.223 160.582C123.531 160.582 123.758 160.501 123.905 160.34C124.066 160.164 124.176 159.9 124.235 159.548C124.249 159.489 124.257 159.401 124.257 159.284C124.257 158.844 124.125 158.47 123.861 158.162C123.611 157.839 123.237 157.487 122.739 157.106C122.225 156.681 121.844 156.314 121.595 156.006C121.345 155.698 121.221 155.324 121.221 154.884C121.221 154.444 121.36 154.026 121.639 153.63C121.932 153.234 122.321 152.911 122.805 152.662C123.303 152.413 123.839 152.288 124.411 152.288C125.056 152.288 125.569 152.405 125.951 152.64C126.332 152.875 126.501 153.175 126.457 153.542C126.413 153.791 126.303 153.989 126.127 154.136C125.951 154.268 125.76 154.334 125.555 154.334C125.291 154.334 125.093 154.275 124.961 154.158C124.829 154.041 124.697 153.857 124.565 153.608C124.433 153.359 124.293 153.175 124.147 153.058C124.015 152.926 123.809 152.86 123.531 152.86C123.267 152.86 123.054 152.933 122.893 153.08C122.731 153.212 122.636 153.388 122.607 153.608C122.592 153.667 122.585 153.755 122.585 153.872C122.585 154.253 122.709 154.598 122.959 154.906C123.208 155.214 123.575 155.566 124.059 155.962C124.587 156.417 124.983 156.813 125.247 157.15C125.511 157.473 125.643 157.861 125.643 158.316C125.643 158.727 125.496 159.167 125.203 159.636C124.909 160.091 124.506 160.472 123.993 160.78C123.494 161.088 122.929 161.242 122.299 161.242ZM141.187 159.306C141.216 159.277 141.245 159.262 141.275 159.262C141.319 159.262 141.355 159.291 141.385 159.35C141.414 159.394 141.407 159.438 141.363 159.482C140.864 160.069 140.424 160.501 140.043 160.78C139.661 161.059 139.273 161.198 138.877 161.198C138.539 161.198 138.297 161.103 138.151 160.912C138.004 160.721 137.931 160.421 137.931 160.01C137.931 159.702 137.96 159.379 138.019 159.042L138.679 155.544C138.752 155.075 138.789 154.723 138.789 154.488C138.789 153.725 138.554 153.344 138.085 153.344C137.703 153.344 137.293 153.608 136.853 154.136C136.427 154.649 136.017 155.412 135.621 156.424C135.225 157.436 134.895 158.646 134.631 160.054L134.499 160.78C134.455 161.044 134.103 161.176 133.443 161.176C133.003 161.176 132.783 161.125 132.783 161.022C132.797 160.934 132.841 160.714 132.915 160.362C133.003 160.01 133.069 159.68 133.113 159.372L133.839 155.522C133.912 155.082 133.949 154.745 133.949 154.51C133.949 153.733 133.699 153.344 133.201 153.344C132.819 153.344 132.409 153.615 131.969 154.158C131.529 154.701 131.111 155.485 130.715 156.512C130.333 157.524 130.018 158.719 129.769 160.098L129.637 160.78C129.563 161.044 129.211 161.176 128.581 161.176C128.141 161.176 127.921 161.125 127.921 161.022L128.031 160.494L128.251 159.416L129.153 154.466C129.182 154.334 129.197 154.165 129.197 153.96C129.197 153.535 129.065 153.322 128.801 153.322C128.478 153.322 128.031 153.63 127.459 154.246C127.444 154.261 127.422 154.268 127.393 154.268C127.349 154.268 127.305 154.246 127.261 154.202C127.231 154.143 127.239 154.092 127.283 154.048C127.796 153.447 128.258 153.007 128.669 152.728C129.094 152.449 129.512 152.31 129.923 152.31C130.245 152.31 130.48 152.405 130.627 152.596C130.788 152.772 130.869 153.051 130.869 153.432C130.869 153.549 130.839 153.828 130.781 154.268L130.429 156.292C130.927 154.987 131.499 153.982 132.145 153.278C132.805 152.574 133.501 152.222 134.235 152.222C135.159 152.222 135.621 152.801 135.621 153.96C135.621 154.356 135.584 154.737 135.511 155.104L135.291 156.27C135.804 154.979 136.383 153.982 137.029 153.278C137.689 152.574 138.371 152.222 139.075 152.222C140.013 152.222 140.483 152.794 140.483 153.938C140.483 154.29 140.439 154.686 140.351 155.126L139.647 159.042C139.603 159.262 139.581 159.445 139.581 159.592C139.581 159.973 139.705 160.164 139.955 160.164C140.204 160.164 140.615 159.878 141.187 159.306ZM145.601 149.912C145.234 149.912 144.948 149.809 144.743 149.604C144.538 149.399 144.435 149.113 144.435 148.746C144.435 148.423 144.538 148.167 144.743 147.976C144.963 147.771 145.249 147.668 145.601 147.668C145.953 147.668 146.224 147.771 146.415 147.976C146.606 148.167 146.701 148.423 146.701 148.746C146.701 149.113 146.606 149.399 146.415 149.604C146.224 149.809 145.953 149.912 145.601 149.912ZM144.149 161.198C143.504 161.198 143.181 160.817 143.181 160.054C143.181 159.775 143.225 159.438 143.313 159.042L144.215 154.466C144.259 154.261 144.281 154.085 144.281 153.938C144.281 153.527 144.142 153.322 143.863 153.322C143.511 153.322 143.064 153.63 142.521 154.246C142.506 154.261 142.484 154.268 142.455 154.268C142.396 154.268 142.352 154.246 142.323 154.202C142.294 154.143 142.294 154.092 142.323 154.048C142.851 153.447 143.32 153.007 143.731 152.728C144.156 152.449 144.567 152.31 144.963 152.31C145.608 152.31 145.931 152.669 145.931 153.388C145.931 153.608 145.894 153.901 145.821 154.268L144.919 159.042C144.875 159.262 144.853 159.445 144.853 159.592C144.853 159.973 144.978 160.164 145.227 160.164C145.476 160.164 145.902 159.885 146.503 159.328C146.532 159.299 146.562 159.284 146.591 159.284C146.635 159.284 146.672 159.313 146.701 159.372C146.73 159.416 146.723 159.46 146.679 159.504C146.18 160.091 145.733 160.523 145.337 160.802C144.941 161.066 144.545 161.198 144.149 161.198ZM149.276 161.198C148.939 161.198 148.69 161.103 148.528 160.912C148.382 160.721 148.308 160.428 148.308 160.032C148.308 159.812 148.345 159.482 148.418 159.042L150.486 147.822C150.53 147.573 150.552 147.36 150.552 147.184C150.552 146.773 150.406 146.568 150.112 146.568C149.907 146.568 149.584 146.671 149.144 146.876H149.1C149.042 146.876 149.005 146.839 148.99 146.766C148.976 146.693 148.998 146.649 149.056 146.634L152.268 145.05H152.312C152.371 145.05 152.422 145.072 152.466 145.116C152.525 145.16 152.547 145.197 152.532 145.226L150.046 159.042C150.002 159.262 149.98 159.453 149.98 159.614C149.98 159.981 150.098 160.164 150.332 160.164C150.596 160.164 151.014 159.878 151.586 159.306C151.616 159.277 151.645 159.262 151.674 159.262C151.718 159.262 151.755 159.291 151.784 159.35C151.814 159.394 151.806 159.438 151.762 159.482C151.264 160.069 150.824 160.501 150.442 160.78C150.061 161.059 149.672 161.198 149.276 161.198ZM158.476 152.222C159.004 152.222 159.414 152.317 159.708 152.508C160.001 152.684 160.148 152.941 160.148 153.278C160.148 153.953 159.649 154.576 158.652 155.148C157.669 155.72 156.481 156.131 155.088 156.38C155.029 156.849 155 157.194 155 157.414C155 158.309 155.19 159.027 155.572 159.57C155.953 160.098 156.503 160.362 157.222 160.362C157.559 160.362 157.911 160.311 158.278 160.208C158.644 160.091 158.982 159.915 159.29 159.68H159.312C159.356 159.68 159.392 159.702 159.422 159.746C159.466 159.79 159.473 159.827 159.444 159.856C158.432 160.795 157.31 161.264 156.078 161.264C155.11 161.264 154.376 160.963 153.878 160.362C153.379 159.761 153.13 158.991 153.13 158.052C153.13 157.715 153.166 157.341 153.24 156.93C153.386 156.153 153.702 155.405 154.186 154.686C154.684 153.953 155.308 153.359 156.056 152.904C156.818 152.449 157.625 152.222 158.476 152.222ZM158.168 153.872C158.197 153.725 158.212 153.63 158.212 153.586C158.212 153.337 158.131 153.146 157.97 153.014C157.808 152.882 157.61 152.816 157.376 152.816C156.833 152.816 156.364 153.117 155.968 153.718C155.586 154.319 155.308 155.097 155.132 156.05C156.98 155.639 157.992 154.913 158.168 153.872ZM162.668 161.242C162.067 161.242 161.546 161.11 161.106 160.846C160.681 160.582 160.468 160.259 160.468 159.878C160.468 159.57 160.556 159.335 160.732 159.174C160.908 159.013 161.121 158.932 161.37 158.932C161.575 158.932 161.744 158.998 161.876 159.13C162.023 159.262 162.162 159.445 162.294 159.68C162.485 159.988 162.668 160.215 162.844 160.362C163.02 160.509 163.269 160.582 163.592 160.582C163.9 160.582 164.127 160.501 164.274 160.34C164.435 160.164 164.545 159.9 164.604 159.548C164.619 159.489 164.626 159.401 164.626 159.284C164.626 158.844 164.494 158.47 164.23 158.162C163.981 157.839 163.607 157.487 163.108 157.106C162.595 156.681 162.213 156.314 161.964 156.006C161.715 155.698 161.59 155.324 161.59 154.884C161.59 154.444 161.729 154.026 162.008 153.63C162.301 153.234 162.69 152.911 163.174 152.662C163.673 152.413 164.208 152.288 164.78 152.288C165.425 152.288 165.939 152.405 166.32 152.64C166.701 152.875 166.87 153.175 166.826 153.542C166.782 153.791 166.672 153.989 166.496 154.136C166.32 154.268 166.129 154.334 165.924 154.334C165.66 154.334 165.462 154.275 165.33 154.158C165.198 154.041 165.066 153.857 164.934 153.608C164.802 153.359 164.663 153.175 164.516 153.058C164.384 152.926 164.179 152.86 163.9 152.86C163.636 152.86 163.423 152.933 163.262 153.08C163.101 153.212 163.005 153.388 162.976 153.608C162.961 153.667 162.954 153.755 162.954 153.872C162.954 154.253 163.079 154.598 163.328 154.906C163.577 155.214 163.944 155.566 164.428 155.962C164.956 156.417 165.352 156.813 165.616 157.15C165.88 157.473 166.012 157.861 166.012 158.316C166.012 158.727 165.865 159.167 165.572 159.636C165.279 160.091 164.875 160.472 164.362 160.78C163.863 161.088 163.299 161.242 162.668 161.242ZM182.07 159.262C182.085 159.247 182.107 159.24 182.136 159.24C182.18 159.24 182.217 159.269 182.246 159.328C182.276 159.372 182.276 159.416 182.246 159.46C181.718 160.061 181.242 160.501 180.816 160.78C180.406 161.059 179.995 161.198 179.584 161.198C179.262 161.198 179.027 161.11 178.88 160.934C178.734 160.758 178.66 160.479 178.66 160.098C178.66 159.819 178.69 159.533 178.748 159.24L179.122 157.018C178.609 158.367 178.008 159.416 177.318 160.164C176.644 160.912 175.925 161.286 175.162 161.286C174.165 161.286 173.666 160.699 173.666 159.526C173.666 159.13 173.703 158.749 173.776 158.382L174.568 154.466C174.612 154.246 174.634 154.063 174.634 153.916C174.634 153.535 174.51 153.344 174.26 153.344C174.114 153.344 173.938 153.417 173.732 153.564C173.527 153.711 173.285 153.923 173.006 154.202C172.977 154.231 172.948 154.246 172.918 154.246C172.874 154.246 172.838 154.224 172.808 154.18C172.779 154.121 172.786 154.07 172.83 154.026C173.344 153.425 173.784 152.992 174.15 152.728C174.532 152.449 174.92 152.31 175.316 152.31C175.962 152.31 176.284 152.706 176.284 153.498C176.284 153.733 176.248 154.055 176.174 154.466L175.47 157.964C175.382 158.375 175.338 158.727 175.338 159.02C175.338 159.783 175.602 160.164 176.13 160.164C176.57 160.164 177.025 159.878 177.494 159.306C177.964 158.734 178.404 157.898 178.814 156.798C179.24 155.698 179.584 154.393 179.848 152.882L179.87 152.728C179.944 152.464 180.296 152.332 180.926 152.332C181.366 152.332 181.586 152.383 181.586 152.486L181.498 152.97C181.352 153.659 181.271 154.048 181.256 154.136L180.354 159.042C180.325 159.174 180.31 159.343 180.31 159.548C180.31 159.973 180.442 160.186 180.706 160.186C181.029 160.186 181.484 159.878 182.07 159.262ZM188.971 152.354C189.705 152.354 190.262 152.552 190.643 152.948C191.039 153.344 191.237 153.916 191.237 154.664C191.237 154.913 191.215 155.17 191.171 155.434C191.025 156.417 190.68 157.341 190.137 158.206C189.609 159.057 188.964 159.739 188.201 160.252C187.453 160.765 186.683 161.022 185.891 161.022C185.598 161.022 185.261 161.007 184.879 160.978L184.175 164.916C184.131 165.18 184.109 165.393 184.109 165.554C184.109 165.789 184.161 165.957 184.263 166.06C184.381 166.163 184.564 166.214 184.813 166.214C184.872 166.214 185.033 166.199 185.297 166.17C185.356 166.155 185.393 166.185 185.407 166.258C185.422 166.346 185.4 166.397 185.341 166.412L181.293 167.05C181.249 167.065 181.22 167.028 181.205 166.94C181.176 166.852 181.191 166.801 181.249 166.786C181.557 166.727 181.785 166.647 181.931 166.544C182.078 166.456 182.188 166.309 182.261 166.104C182.335 165.899 182.415 165.554 182.503 165.07L184.373 154.554C183.86 154.906 183.501 155.155 183.295 155.302C183.281 155.317 183.259 155.324 183.229 155.324C183.185 155.324 183.149 155.295 183.119 155.236C183.09 155.177 183.097 155.133 183.141 155.104C183.435 154.855 183.875 154.51 184.461 154.07L184.747 152.508C184.747 152.479 184.894 152.369 185.187 152.178C185.481 151.973 185.745 151.767 185.979 151.562C186.214 151.342 186.361 151.1 186.419 150.836C186.434 150.777 186.478 150.755 186.551 150.77C186.639 150.785 186.676 150.821 186.661 150.88L186.287 153.014C187.241 152.574 188.135 152.354 188.971 152.354ZM189.433 156.16C189.463 155.867 189.477 155.647 189.477 155.5C189.477 154.063 188.869 153.344 187.651 153.344C187.153 153.344 186.661 153.439 186.177 153.63L185.033 160.054C185.517 160.274 186.053 160.384 186.639 160.384C187.417 160.384 188.033 160.003 188.487 159.24C188.957 158.477 189.272 157.451 189.433 156.16ZM195.093 161.308C194.154 161.308 193.428 161 192.915 160.384C192.416 159.768 192.167 158.969 192.167 157.986C192.167 157.575 192.211 157.165 192.299 156.754C192.46 155.889 192.768 155.111 193.223 154.422C193.692 153.733 194.264 153.197 194.939 152.816C195.613 152.42 196.325 152.222 197.073 152.222C198.026 152.222 198.759 152.523 199.273 153.124C199.786 153.725 200.043 154.517 200.043 155.5C200.043 155.896 199.999 156.314 199.911 156.754C199.735 157.693 199.39 158.507 198.877 159.196C198.378 159.885 197.791 160.413 197.117 160.78C196.457 161.132 195.782 161.308 195.093 161.308ZM195.841 160.758C196.354 160.758 196.809 160.487 197.205 159.944C197.601 159.401 197.887 158.661 198.063 157.722C198.165 157.223 198.217 156.695 198.217 156.138C198.217 155.17 198.048 154.363 197.711 153.718C197.388 153.073 196.941 152.75 196.369 152.75C195.87 152.75 195.415 153.014 195.005 153.542C194.609 154.07 194.323 154.825 194.147 155.808C194.044 156.424 193.993 156.945 193.993 157.37C193.993 158.353 194.154 159.167 194.477 159.812C194.814 160.443 195.269 160.758 195.841 160.758ZM210.323 159.306C210.352 159.277 210.374 159.262 210.389 159.262C210.433 159.262 210.469 159.291 210.499 159.35C210.543 159.394 210.543 159.438 210.499 159.482C210 160.069 209.56 160.501 209.179 160.78C208.797 161.059 208.401 161.198 207.991 161.198C207.668 161.198 207.426 161.103 207.265 160.912C207.118 160.721 207.045 160.435 207.045 160.054C207.045 159.819 207.081 159.482 207.155 159.042L207.793 155.544C207.866 155.192 207.903 154.84 207.903 154.488C207.903 153.725 207.646 153.344 207.133 153.344C206.693 153.344 206.238 153.623 205.769 154.18C205.314 154.737 204.881 155.551 204.471 156.622C204.06 157.678 203.723 158.947 203.459 160.428L203.393 160.78C203.319 161.044 202.967 161.176 202.337 161.176C201.897 161.176 201.677 161.125 201.677 161.022L201.765 160.538C201.911 159.849 201.992 159.46 202.007 159.372L202.909 154.466C202.938 154.334 202.953 154.165 202.953 153.96C202.953 153.535 202.821 153.322 202.557 153.322C202.234 153.322 201.787 153.63 201.215 154.246C201.2 154.261 201.178 154.268 201.149 154.268C201.105 154.268 201.061 154.246 201.017 154.202C200.987 154.143 200.995 154.092 201.039 154.048C201.552 153.447 202.014 153.007 202.425 152.728C202.85 152.449 203.268 152.31 203.679 152.31C204.001 152.31 204.236 152.405 204.383 152.596C204.544 152.772 204.625 153.051 204.625 153.432C204.625 153.549 204.595 153.828 204.537 154.268L204.141 156.468C204.654 155.119 205.255 154.077 205.945 153.344C206.634 152.596 207.36 152.222 208.123 152.222C209.105 152.222 209.597 152.816 209.597 154.004C209.597 154.283 209.56 154.657 209.487 155.126L208.761 159.042C208.717 159.262 208.695 159.445 208.695 159.592C208.695 159.973 208.819 160.164 209.069 160.164C209.333 160.164 209.751 159.878 210.323 159.306ZM224.184 152.288C224.521 152.288 224.778 152.413 224.954 152.662C225.145 152.911 225.24 153.263 225.24 153.718C225.24 154.847 224.653 156.512 223.48 158.712C222.307 160.897 220.965 162.855 219.454 164.586C217.943 166.317 216.704 167.182 215.736 167.182C214.959 167.182 214.57 166.867 214.57 166.236C214.57 166.133 214.577 166.053 214.592 165.994C214.651 165.715 214.783 165.503 214.988 165.356C215.179 165.209 215.428 165.136 215.736 165.136C215.971 165.136 216.257 165.187 216.594 165.29C216.946 165.378 217.21 165.422 217.386 165.422C217.679 165.422 217.98 165.319 218.288 165.114C218.699 164.835 219.212 164.278 219.828 163.442V162.43C219.828 159.585 219.623 157.377 219.212 155.808C218.801 154.239 218.237 153.454 217.518 153.454C217.327 153.454 217.137 153.52 216.946 153.652C216.77 153.784 216.616 153.96 216.484 154.18C216.469 154.224 216.425 154.246 216.352 154.246C216.249 154.246 216.205 154.202 216.22 154.114C216.484 153.571 216.843 153.139 217.298 152.816C217.753 152.479 218.193 152.31 218.618 152.31C219.19 152.31 219.689 152.647 220.114 153.322C220.539 153.982 220.862 154.891 221.082 156.05C221.302 157.209 221.412 158.507 221.412 159.944C221.412 160.501 221.405 160.927 221.39 161.22C221.977 160.296 222.49 159.409 222.93 158.558C223.37 157.707 223.641 157.069 223.744 156.644C223.817 156.365 223.854 156.065 223.854 155.742C223.854 155.434 223.81 155.17 223.722 154.95C223.649 154.73 223.539 154.495 223.392 154.246C223.275 154.055 223.187 153.887 223.128 153.74C223.084 153.593 223.062 153.439 223.062 153.278C223.062 152.985 223.165 152.75 223.37 152.574C223.575 152.383 223.847 152.288 224.184 152.288ZM229.446 161.308C228.508 161.308 227.782 161 227.268 160.384C226.77 159.768 226.52 158.969 226.52 157.986C226.52 157.575 226.564 157.165 226.652 156.754C226.814 155.889 227.122 155.111 227.576 154.422C228.046 153.733 228.618 153.197 229.292 152.816C229.967 152.42 230.678 152.222 231.426 152.222C232.38 152.222 233.113 152.523 233.626 153.124C234.14 153.725 234.396 154.517 234.396 155.5C234.396 155.896 234.352 156.314 234.264 156.754C234.088 157.693 233.744 158.507 233.23 159.196C232.732 159.885 232.145 160.413 231.47 160.78C230.81 161.132 230.136 161.308 229.446 161.308ZM230.194 160.758C230.708 160.758 231.162 160.487 231.558 159.944C231.954 159.401 232.24 158.661 232.416 157.722C232.519 157.223 232.57 156.695 232.57 156.138C232.57 155.17 232.402 154.363 232.064 153.718C231.742 153.073 231.294 152.75 230.722 152.75C230.224 152.75 229.769 153.014 229.358 153.542C228.962 154.07 228.676 154.825 228.5 155.808C228.398 156.424 228.346 156.945 228.346 157.37C228.346 158.353 228.508 159.167 228.83 159.812C229.168 160.443 229.622 160.758 230.194 160.758ZM244.654 159.262C244.669 159.247 244.691 159.24 244.72 159.24C244.764 159.24 244.801 159.269 244.83 159.328C244.86 159.372 244.86 159.416 244.83 159.46C244.302 160.061 243.826 160.501 243.4 160.78C242.99 161.059 242.579 161.198 242.168 161.198C241.846 161.198 241.611 161.11 241.464 160.934C241.318 160.758 241.244 160.479 241.244 160.098C241.244 159.819 241.274 159.533 241.332 159.24L241.706 157.018C241.193 158.367 240.592 159.416 239.902 160.164C239.228 160.912 238.509 161.286 237.746 161.286C236.749 161.286 236.25 160.699 236.25 159.526C236.25 159.13 236.287 158.749 236.36 158.382L237.152 154.466C237.196 154.246 237.218 154.063 237.218 153.916C237.218 153.535 237.094 153.344 236.844 153.344C236.698 153.344 236.522 153.417 236.316 153.564C236.111 153.711 235.869 153.923 235.59 154.202C235.561 154.231 235.532 154.246 235.502 154.246C235.458 154.246 235.422 154.224 235.392 154.18C235.363 154.121 235.37 154.07 235.414 154.026C235.928 153.425 236.368 152.992 236.734 152.728C237.116 152.449 237.504 152.31 237.9 152.31C238.546 152.31 238.868 152.706 238.868 153.498C238.868 153.733 238.832 154.055 238.758 154.466L238.054 157.964C237.966 158.375 237.922 158.727 237.922 159.02C237.922 159.783 238.186 160.164 238.714 160.164C239.154 160.164 239.609 159.878 240.078 159.306C240.548 158.734 240.988 157.898 241.398 156.798C241.824 155.698 242.168 154.393 242.432 152.882L242.454 152.728C242.528 152.464 242.88 152.332 243.51 152.332C243.95 152.332 244.17 152.383 244.17 152.486L244.082 152.97C243.936 153.659 243.855 154.048 243.84 154.136L242.938 159.042C242.909 159.174 242.894 159.343 242.894 159.548C242.894 159.973 243.026 160.186 243.29 160.186C243.613 160.186 244.068 159.878 244.654 159.262ZM247.023 158.954C247.448 158.954 247.778 159.086 248.013 159.35C248.248 159.614 248.365 159.988 248.365 160.472C248.365 160.721 248.336 160.963 248.277 161.198C248.16 161.77 247.874 162.349 247.419 162.936C246.979 163.537 246.436 164.065 245.791 164.52C245.776 164.535 245.754 164.542 245.725 164.542C245.681 164.542 245.644 164.513 245.615 164.454C245.586 164.395 245.593 164.351 245.637 164.322C246.649 163.471 247.236 162.562 247.397 161.594C247.426 161.418 247.441 161.308 247.441 161.264C247.441 161.205 247.426 161.117 247.397 161C247.25 161.117 247.067 161.176 246.847 161.176C246.51 161.176 246.246 161.073 246.055 160.868C245.864 160.648 245.769 160.391 245.769 160.098C245.769 159.775 245.879 159.504 246.099 159.284C246.319 159.064 246.627 158.954 247.023 158.954ZM34.806 176.912C34.4393 176.912 34.1533 176.809 33.948 176.604C33.7427 176.399 33.64 176.113 33.64 175.746C33.64 175.423 33.7427 175.167 33.948 174.976C34.168 174.771 34.454 174.668 34.806 174.668C35.158 174.668 35.4293 174.771 35.62 174.976C35.8107 175.167 35.906 175.423 35.906 175.746C35.906 176.113 35.8107 176.399 35.62 176.604C35.4293 176.809 35.158 176.912 34.806 176.912ZM33.354 188.198C32.7087 188.198 32.386 187.817 32.386 187.054C32.386 186.775 32.43 186.438 32.518 186.042L33.42 181.466C33.464 181.261 33.486 181.085 33.486 180.938C33.486 180.527 33.3467 180.322 33.068 180.322C32.716 180.322 32.2687 180.63 31.726 181.246C31.7113 181.261 31.6893 181.268 31.66 181.268C31.6013 181.268 31.5573 181.246 31.528 181.202C31.4987 181.143 31.4987 181.092 31.528 181.048C32.056 180.447 32.5253 180.007 32.936 179.728C33.3613 179.449 33.772 179.31 34.168 179.31C34.8133 179.31 35.136 179.669 35.136 180.388C35.136 180.608 35.0993 180.901 35.026 181.268L34.124 186.042C34.08 186.262 34.058 186.445 34.058 186.592C34.058 186.973 34.1827 187.164 34.432 187.164C34.6813 187.164 35.1067 186.885 35.708 186.328C35.7373 186.299 35.7667 186.284 35.796 186.284C35.84 186.284 35.8767 186.313 35.906 186.372C35.9353 186.416 35.928 186.46 35.884 186.504C35.3853 187.091 34.938 187.523 34.542 187.802C34.146 188.066 33.75 188.198 33.354 188.198ZM46.2035 186.306C46.2329 186.277 46.2549 186.262 46.2695 186.262C46.3135 186.262 46.3502 186.291 46.3795 186.35C46.4235 186.394 46.4235 186.438 46.3795 186.482C45.8809 187.069 45.4409 187.501 45.0595 187.78C44.6782 188.059 44.2822 188.198 43.8715 188.198C43.5489 188.198 43.3069 188.103 43.1455 187.912C42.9989 187.721 42.9255 187.435 42.9255 187.054C42.9255 186.819 42.9622 186.482 43.0355 186.042L43.6735 182.544C43.7469 182.192 43.7835 181.84 43.7835 181.488C43.7835 180.725 43.5269 180.344 43.0135 180.344C42.5735 180.344 42.1189 180.623 41.6495 181.18C41.1949 181.737 40.7622 182.551 40.3515 183.622C39.9409 184.678 39.6035 185.947 39.3395 187.428L39.2735 187.78C39.2002 188.044 38.8482 188.176 38.2175 188.176C37.7775 188.176 37.5575 188.125 37.5575 188.022L37.6455 187.538C37.7922 186.849 37.8729 186.46 37.8875 186.372L38.7895 181.466C38.8189 181.334 38.8335 181.165 38.8335 180.96C38.8335 180.535 38.7015 180.322 38.4375 180.322C38.1149 180.322 37.6675 180.63 37.0955 181.246C37.0809 181.261 37.0589 181.268 37.0295 181.268C36.9855 181.268 36.9415 181.246 36.8975 181.202C36.8682 181.143 36.8755 181.092 36.9195 181.048C37.4329 180.447 37.8949 180.007 38.3055 179.728C38.7309 179.449 39.1489 179.31 39.5595 179.31C39.8822 179.31 40.1169 179.405 40.2635 179.596C40.4249 179.772 40.5055 180.051 40.5055 180.432C40.5055 180.549 40.4762 180.828 40.4175 181.268L40.0215 183.468C40.5349 182.119 41.1362 181.077 41.8255 180.344C42.5149 179.596 43.2409 179.222 44.0035 179.222C44.9862 179.222 45.4775 179.816 45.4775 181.004C45.4775 181.283 45.4409 181.657 45.3675 182.126L44.6415 186.042C44.5975 186.262 44.5755 186.445 44.5755 186.592C44.5755 186.973 44.7002 187.164 44.9495 187.164C45.2135 187.164 45.6315 186.878 46.2035 186.306ZM49.1445 188.242C48.5432 188.242 48.0225 188.11 47.5825 187.846C47.1572 187.582 46.9445 187.259 46.9445 186.878C46.9445 186.57 47.0325 186.335 47.2085 186.174C47.3845 186.013 47.5972 185.932 47.8465 185.932C48.0518 185.932 48.2205 185.998 48.3525 186.13C48.4992 186.262 48.6385 186.445 48.7705 186.68C48.9612 186.988 49.1445 187.215 49.3205 187.362C49.4965 187.509 49.7458 187.582 50.0685 187.582C50.3765 187.582 50.6038 187.501 50.7505 187.34C50.9118 187.164 51.0218 186.9 51.0805 186.548C51.0952 186.489 51.1025 186.401 51.1025 186.284C51.1025 185.844 50.9705 185.47 50.7065 185.162C50.4572 184.839 50.0832 184.487 49.5845 184.106C49.0712 183.681 48.6898 183.314 48.4405 183.006C48.1912 182.698 48.0665 182.324 48.0665 181.884C48.0665 181.444 48.2058 181.026 48.4845 180.63C48.7778 180.234 49.1665 179.911 49.6505 179.662C50.1492 179.413 50.6845 179.288 51.2565 179.288C51.9018 179.288 52.4152 179.405 52.7965 179.64C53.1778 179.875 53.3465 180.175 53.3025 180.542C53.2585 180.791 53.1485 180.989 52.9725 181.136C52.7965 181.268 52.6058 181.334 52.4005 181.334C52.1365 181.334 51.9385 181.275 51.8065 181.158C51.6745 181.041 51.5425 180.857 51.4105 180.608C51.2785 180.359 51.1392 180.175 50.9925 180.058C50.8605 179.926 50.6552 179.86 50.3765 179.86C50.1125 179.86 49.8998 179.933 49.7385 180.08C49.5772 180.212 49.4818 180.388 49.4525 180.608C49.4378 180.667 49.4305 180.755 49.4305 180.872C49.4305 181.253 49.5552 181.598 49.8045 181.906C50.0538 182.214 50.4205 182.566 50.9045 182.962C51.4325 183.417 51.8285 183.813 52.0925 184.15C52.3565 184.473 52.4885 184.861 52.4885 185.316C52.4885 185.727 52.3418 186.167 52.0485 186.636C51.7552 187.091 51.3518 187.472 50.8385 187.78C50.3398 188.088 49.7752 188.242 49.1445 188.242ZM61.2565 179.508C61.3592 179.508 61.4105 179.574 61.4105 179.706C61.4105 179.794 61.3592 179.926 61.2565 180.102C61.1539 180.278 61.0292 180.432 60.8825 180.564C60.7359 180.696 60.5965 180.755 60.4645 180.74C59.3645 180.476 58.3525 180.329 57.4285 180.3L56.4825 185.602C56.4385 185.793 56.4165 185.976 56.4165 186.152C56.4165 186.841 56.7905 187.186 57.5385 187.186C58.0812 187.186 58.6532 186.973 59.2545 186.548H59.2765C59.3205 186.548 59.3645 186.57 59.4085 186.614C59.4672 186.658 59.4819 186.695 59.4525 186.724C58.8512 187.267 58.3012 187.663 57.8025 187.912C57.3039 188.147 56.8272 188.264 56.3725 188.264C55.2579 188.264 54.7005 187.758 54.7005 186.746C54.7005 186.541 54.7225 186.321 54.7665 186.086L55.6465 181.268C55.7052 180.916 55.7345 180.696 55.7345 180.608C55.7345 180.388 55.6759 180.249 55.5585 180.19C55.4412 180.117 55.2212 180.08 54.8985 180.08C54.8545 180.08 54.8325 180.036 54.8325 179.948C54.8325 179.831 54.8545 179.772 54.8985 179.772C55.4999 179.772 56.0132 179.603 56.4385 179.266C56.8639 178.914 57.2012 178.459 57.4505 177.902C57.4652 177.873 57.5165 177.858 57.6045 177.858C57.6632 177.858 57.7219 177.873 57.7805 177.902C57.8392 177.917 57.8612 177.931 57.8465 177.946L57.5385 179.706C58.5799 179.691 59.8192 179.625 61.2565 179.508ZM69.1114 186.306C69.1261 186.291 69.1481 186.284 69.1774 186.284C69.2214 186.284 69.2581 186.313 69.2874 186.372C69.3167 186.416 69.3167 186.453 69.2874 186.482C68.8034 187.054 68.3634 187.487 67.9674 187.78C67.5714 188.059 67.1901 188.198 66.8234 188.198C66.4861 188.198 66.2367 188.103 66.0754 187.912C65.9141 187.707 65.8334 187.391 65.8334 186.966C65.8334 186.658 65.8627 186.35 65.9214 186.042L66.2294 184.282C65.6427 185.514 64.9461 186.489 64.1394 187.208C63.3474 187.927 62.5774 188.286 61.8294 188.286C61.3747 188.286 61.0227 188.154 60.7734 187.89C60.5241 187.611 60.3994 187.193 60.3994 186.636C60.3994 185.624 60.7147 184.539 61.3454 183.38C61.9907 182.207 62.7827 181.224 63.7214 180.432C64.6747 179.625 65.5767 179.222 66.4274 179.222C66.7061 179.222 66.9774 179.273 67.2414 179.376C67.5201 179.464 67.7547 179.603 67.9454 179.794C68.2387 179.545 68.4514 179.295 68.5834 179.046C68.6127 179.017 68.6421 179.002 68.6714 179.002C68.7154 179.002 68.7594 179.017 68.8034 179.046C68.8474 179.061 68.8621 179.075 68.8474 179.09L67.5714 186.042C67.5274 186.262 67.5054 186.445 67.5054 186.592C67.5054 186.768 67.5347 186.907 67.5934 187.01C67.6521 187.113 67.7327 187.164 67.8354 187.164C68.1141 187.164 68.5394 186.878 69.1114 186.306ZM63.0394 186.856C63.5674 186.856 64.1101 186.555 64.6674 185.954C65.2394 185.353 65.7161 184.634 66.0974 183.798C66.4787 182.962 66.6694 182.243 66.6694 181.642C66.6694 181.187 66.5594 180.835 66.3394 180.586C66.1194 180.322 65.8041 180.19 65.3934 180.19C64.9241 180.19 64.4694 180.381 64.0294 180.762C63.5894 181.129 63.2081 181.642 62.8854 182.302C62.5774 182.947 62.3574 183.673 62.2254 184.48C62.1667 184.832 62.1374 185.169 62.1374 185.492C62.1374 186.401 62.4381 186.856 63.0394 186.856ZM79.5043 186.306C79.5337 186.277 79.5557 186.262 79.5703 186.262C79.6143 186.262 79.651 186.291 79.6803 186.35C79.7243 186.394 79.7243 186.438 79.6803 186.482C79.1817 187.069 78.7417 187.501 78.3603 187.78C77.979 188.059 77.583 188.198 77.1723 188.198C76.8497 188.198 76.6077 188.103 76.4463 187.912C76.2997 187.721 76.2263 187.435 76.2263 187.054C76.2263 186.819 76.263 186.482 76.3363 186.042L76.9743 182.544C77.0477 182.192 77.0843 181.84 77.0843 181.488C77.0843 180.725 76.8277 180.344 76.3143 180.344C75.8743 180.344 75.4197 180.623 74.9503 181.18C74.4957 181.737 74.063 182.551 73.6523 183.622C73.2417 184.678 72.9043 185.947 72.6403 187.428L72.5743 187.78C72.501 188.044 72.149 188.176 71.5183 188.176C71.0783 188.176 70.8583 188.125 70.8583 188.022L70.9463 187.538C71.093 186.849 71.1737 186.46 71.1883 186.372L72.0903 181.466C72.1197 181.334 72.1343 181.165 72.1343 180.96C72.1343 180.535 72.0023 180.322 71.7383 180.322C71.4157 180.322 70.9683 180.63 70.3963 181.246C70.3817 181.261 70.3597 181.268 70.3303 181.268C70.2863 181.268 70.2423 181.246 70.1983 181.202C70.169 181.143 70.1763 181.092 70.2203 181.048C70.7337 180.447 71.1957 180.007 71.6063 179.728C72.0317 179.449 72.4497 179.31 72.8603 179.31C73.183 179.31 73.4177 179.405 73.5643 179.596C73.7257 179.772 73.8063 180.051 73.8063 180.432C73.8063 180.549 73.777 180.828 73.7183 181.268L73.3223 183.468C73.8357 182.119 74.437 181.077 75.1263 180.344C75.8157 179.596 76.5417 179.222 77.3043 179.222C78.287 179.222 78.7783 179.816 78.7783 181.004C78.7783 181.283 78.7417 181.657 78.6683 182.126L77.9423 186.042C77.8983 186.262 77.8763 186.445 77.8763 186.592C77.8763 186.973 78.001 187.164 78.2503 187.164C78.5143 187.164 78.9323 186.878 79.5043 186.306ZM86.6913 179.53C86.7939 179.53 86.8453 179.596 86.8453 179.728C86.8453 179.845 86.7646 180.014 86.6033 180.234C86.4419 180.439 86.2879 180.542 86.1413 180.542C86.0826 180.542 85.8259 180.505 85.3713 180.432C84.9166 180.359 84.4253 180.315 83.8973 180.3L82.9513 185.602C82.9073 185.793 82.8853 185.976 82.8853 186.152C82.8853 186.841 83.2593 187.186 84.0073 187.186C84.5939 187.186 85.2393 186.893 85.9433 186.306H85.9653C86.0239 186.306 86.0753 186.328 86.1193 186.372C86.1633 186.416 86.1633 186.46 86.1193 186.504C85.4446 187.135 84.8506 187.589 84.3373 187.868C83.8386 188.132 83.3399 188.264 82.8413 188.264C81.7266 188.264 81.1693 187.758 81.1693 186.746C81.1693 186.541 81.1913 186.321 81.2353 186.086L82.1153 181.268C82.1593 181.004 82.1813 180.791 82.1813 180.63C82.1813 180.41 82.1226 180.263 82.0053 180.19C81.9026 180.117 81.6899 180.08 81.3673 180.08C81.3233 180.08 81.3013 180.036 81.3013 179.948C81.3013 179.831 81.3233 179.772 81.3673 179.772C81.9686 179.772 82.4819 179.603 82.9073 179.266C83.3326 178.914 83.6699 178.459 83.9193 177.902C83.9339 177.873 83.9853 177.858 84.0733 177.858C84.1319 177.858 84.1906 177.873 84.2493 177.902C84.3079 177.917 84.3299 177.931 84.3153 177.946L84.0073 179.706C84.3886 179.691 84.7333 179.677 85.0413 179.662C85.3493 179.633 85.6206 179.611 85.8553 179.596C86.2219 179.552 86.5006 179.53 86.6913 179.53ZM88.7335 188.198C88.3962 188.198 88.1468 188.103 87.9855 187.912C87.8388 187.721 87.7655 187.428 87.7655 187.032C87.7655 186.812 87.8022 186.482 87.8755 186.042L89.9435 174.822C89.9875 174.573 90.0095 174.36 90.0095 174.184C90.0095 173.773 89.8628 173.568 89.5695 173.568C89.3642 173.568 89.0415 173.671 88.6015 173.876H88.5575C88.4988 173.876 88.4622 173.839 88.4475 173.766C88.4328 173.693 88.4548 173.649 88.5135 173.634L91.7255 172.05H91.7695C91.8282 172.05 91.8795 172.072 91.9235 172.116C91.9822 172.16 92.0042 172.197 91.9895 172.226L89.5035 186.042C89.4595 186.262 89.4375 186.453 89.4375 186.614C89.4375 186.981 89.5548 187.164 89.7895 187.164C90.0535 187.164 90.4715 186.878 91.0435 186.306C91.0728 186.277 91.1022 186.262 91.1315 186.262C91.1755 186.262 91.2122 186.291 91.2415 186.35C91.2708 186.394 91.2635 186.438 91.2195 186.482C90.7208 187.069 90.2808 187.501 89.8995 187.78C89.5182 188.059 89.1295 188.198 88.7335 188.198ZM100.155 179.288C100.492 179.288 100.749 179.413 100.925 179.662C101.115 179.911 101.211 180.263 101.211 180.718C101.211 181.847 100.624 183.512 99.4506 185.712C98.2773 187.897 96.9353 189.855 95.4246 191.586C93.9139 193.317 92.6746 194.182 91.7066 194.182C90.9293 194.182 90.5406 193.867 90.5406 193.236C90.5406 193.133 90.5479 193.053 90.5626 192.994C90.6213 192.715 90.7533 192.503 90.9586 192.356C91.1493 192.209 91.3986 192.136 91.7066 192.136C91.9413 192.136 92.2273 192.187 92.5646 192.29C92.9166 192.378 93.1806 192.422 93.3566 192.422C93.6499 192.422 93.9506 192.319 94.2586 192.114C94.6693 191.835 95.1826 191.278 95.7986 190.442V189.43C95.7986 186.585 95.5933 184.377 95.1826 182.808C94.7719 181.239 94.2073 180.454 93.4886 180.454C93.2979 180.454 93.1073 180.52 92.9166 180.652C92.7406 180.784 92.5866 180.96 92.4546 181.18C92.4399 181.224 92.3959 181.246 92.3226 181.246C92.2199 181.246 92.1759 181.202 92.1906 181.114C92.4546 180.571 92.8139 180.139 93.2686 179.816C93.7233 179.479 94.1633 179.31 94.5886 179.31C95.1606 179.31 95.6593 179.647 96.0846 180.322C96.5099 180.982 96.8326 181.891 97.0526 183.05C97.2726 184.209 97.3826 185.507 97.3826 186.944C97.3826 187.501 97.3753 187.927 97.3606 188.22C97.9473 187.296 98.4606 186.409 98.9006 185.558C99.3406 184.707 99.6119 184.069 99.7146 183.644C99.7879 183.365 99.8246 183.065 99.8246 182.742C99.8246 182.434 99.7806 182.17 99.6926 181.95C99.6193 181.73 99.5093 181.495 99.3626 181.246C99.2453 181.055 99.1573 180.887 99.0986 180.74C99.0546 180.593 99.0326 180.439 99.0326 180.278C99.0326 179.985 99.1353 179.75 99.3406 179.574C99.5459 179.383 99.8173 179.288 100.155 179.288ZM112.993 179.222C113.521 179.222 113.932 179.317 114.225 179.508C114.518 179.684 114.665 179.941 114.665 180.278C114.665 180.953 114.166 181.576 113.169 182.148C112.186 182.72 110.998 183.131 109.605 183.38C109.546 183.849 109.517 184.194 109.517 184.414C109.517 185.309 109.708 186.027 110.089 186.57C110.47 187.098 111.02 187.362 111.739 187.362C112.076 187.362 112.428 187.311 112.795 187.208C113.162 187.091 113.499 186.915 113.807 186.68H113.829C113.873 186.68 113.91 186.702 113.939 186.746C113.983 186.79 113.99 186.827 113.961 186.856C112.949 187.795 111.827 188.264 110.595 188.264C109.627 188.264 108.894 187.963 108.395 187.362C107.896 186.761 107.647 185.991 107.647 185.052C107.647 184.715 107.684 184.341 107.757 183.93C107.904 183.153 108.219 182.405 108.703 181.686C109.202 180.953 109.825 180.359 110.573 179.904C111.336 179.449 112.142 179.222 112.993 179.222ZM112.685 180.872C112.714 180.725 112.729 180.63 112.729 180.586C112.729 180.337 112.648 180.146 112.487 180.014C112.326 179.882 112.128 179.816 111.893 179.816C111.35 179.816 110.881 180.117 110.485 180.718C110.104 181.319 109.825 182.097 109.649 183.05C111.497 182.639 112.509 181.913 112.685 180.872ZM124.622 186.306C124.651 186.277 124.673 186.262 124.688 186.262C124.732 186.262 124.768 186.291 124.798 186.35C124.842 186.394 124.842 186.438 124.798 186.482C124.299 187.069 123.859 187.501 123.478 187.78C123.096 188.059 122.7 188.198 122.29 188.198C121.967 188.198 121.725 188.103 121.564 187.912C121.417 187.721 121.344 187.435 121.344 187.054C121.344 186.819 121.38 186.482 121.454 186.042L122.092 182.544C122.165 182.192 122.202 181.84 122.202 181.488C122.202 180.725 121.945 180.344 121.432 180.344C120.992 180.344 120.537 180.623 120.068 181.18C119.613 181.737 119.18 182.551 118.77 183.622C118.359 184.678 118.022 185.947 117.758 187.428L117.692 187.78C117.618 188.044 117.266 188.176 116.636 188.176C116.196 188.176 115.976 188.125 115.976 188.022L116.064 187.538C116.21 186.849 116.291 186.46 116.306 186.372L117.208 181.466C117.237 181.334 117.252 181.165 117.252 180.96C117.252 180.535 117.12 180.322 116.856 180.322C116.533 180.322 116.086 180.63 115.514 181.246C115.499 181.261 115.477 181.268 115.448 181.268C115.404 181.268 115.36 181.246 115.316 181.202C115.286 181.143 115.294 181.092 115.338 181.048C115.851 180.447 116.313 180.007 116.724 179.728C117.149 179.449 117.567 179.31 117.978 179.31C118.3 179.31 118.535 179.405 118.682 179.596C118.843 179.772 118.924 180.051 118.924 180.432C118.924 180.549 118.894 180.828 118.836 181.268L118.44 183.468C118.953 182.119 119.554 181.077 120.244 180.344C120.933 179.596 121.659 179.222 122.422 179.222C123.404 179.222 123.896 179.816 123.896 181.004C123.896 181.283 123.859 181.657 123.786 182.126L123.06 186.042C123.016 186.262 122.994 186.445 122.994 186.592C122.994 186.973 123.118 187.164 123.368 187.164C123.632 187.164 124.05 186.878 124.622 186.306ZM134.558 186.306C134.588 186.277 134.617 186.262 134.646 186.262C134.69 186.262 134.727 186.291 134.756 186.35C134.786 186.394 134.778 186.438 134.734 186.482C134.236 187.069 133.796 187.501 133.414 187.78C133.033 188.059 132.637 188.198 132.226 188.198C131.904 188.198 131.662 188.103 131.5 187.912C131.354 187.721 131.28 187.435 131.28 187.054C131.28 186.819 131.317 186.482 131.39 186.042L132.028 182.544C132.102 182.192 132.138 181.84 132.138 181.488C132.138 180.725 131.882 180.344 131.368 180.344C130.943 180.344 130.496 180.615 130.026 181.158C129.572 181.701 129.139 182.5 128.728 183.556C128.318 184.597 127.98 185.837 127.716 187.274L127.628 187.78C127.555 188.044 127.203 188.176 126.572 188.176C126.132 188.176 125.912 188.125 125.912 188.022L126 187.538C126.147 186.849 126.228 186.46 126.242 186.372L128.376 174.822C128.42 174.573 128.442 174.367 128.442 174.206C128.442 173.986 128.406 173.825 128.332 173.722C128.259 173.619 128.142 173.568 127.98 173.568C127.775 173.568 127.452 173.671 127.012 173.876H126.968C126.924 173.876 126.888 173.839 126.858 173.766C126.844 173.693 126.866 173.649 126.924 173.634L130.136 172.05H130.18C130.239 172.05 130.29 172.072 130.334 172.116C130.393 172.16 130.415 172.197 130.4 172.226L128.398 183.424C128.912 182.089 129.506 181.055 130.18 180.322C130.87 179.589 131.596 179.222 132.358 179.222C133.341 179.222 133.832 179.816 133.832 181.004C133.832 181.283 133.796 181.657 133.722 182.126L132.996 186.042C132.952 186.262 132.93 186.445 132.93 186.592C132.93 186.973 133.055 187.164 133.304 187.164C133.568 187.164 133.986 186.878 134.558 186.306ZM144.264 186.306C144.278 186.291 144.3 186.284 144.33 186.284C144.374 186.284 144.41 186.313 144.44 186.372C144.469 186.416 144.469 186.453 144.44 186.482C143.956 187.054 143.516 187.487 143.12 187.78C142.724 188.059 142.342 188.198 141.976 188.198C141.638 188.198 141.389 188.103 141.228 187.912C141.066 187.707 140.986 187.391 140.986 186.966C140.986 186.658 141.015 186.35 141.074 186.042L141.382 184.282C140.795 185.514 140.098 186.489 139.292 187.208C138.5 187.927 137.73 188.286 136.982 188.286C136.527 188.286 136.175 188.154 135.926 187.89C135.676 187.611 135.552 187.193 135.552 186.636C135.552 185.624 135.867 184.539 136.498 183.38C137.143 182.207 137.935 181.224 138.874 180.432C139.827 179.625 140.729 179.222 141.58 179.222C141.858 179.222 142.13 179.273 142.394 179.376C142.672 179.464 142.907 179.603 143.098 179.794C143.391 179.545 143.604 179.295 143.736 179.046C143.765 179.017 143.794 179.002 143.824 179.002C143.868 179.002 143.912 179.017 143.956 179.046C144 179.061 144.014 179.075 144 179.09L142.724 186.042C142.68 186.262 142.658 186.445 142.658 186.592C142.658 186.768 142.687 186.907 142.746 187.01C142.804 187.113 142.885 187.164 142.988 187.164C143.266 187.164 143.692 186.878 144.264 186.306ZM138.192 186.856C138.72 186.856 139.262 186.555 139.82 185.954C140.392 185.353 140.868 184.634 141.25 183.798C141.631 182.962 141.822 182.243 141.822 181.642C141.822 181.187 141.712 180.835 141.492 180.586C141.272 180.322 140.956 180.19 140.546 180.19C140.076 180.19 139.622 180.381 139.182 180.762C138.742 181.129 138.36 181.642 138.038 182.302C137.73 182.947 137.51 183.673 137.378 184.48C137.319 184.832 137.29 185.169 137.29 185.492C137.29 186.401 137.59 186.856 138.192 186.856ZM154.657 186.306C154.686 186.277 154.708 186.262 154.723 186.262C154.767 186.262 154.803 186.291 154.833 186.35C154.877 186.394 154.877 186.438 154.833 186.482C154.334 187.069 153.894 187.501 153.513 187.78C153.131 188.059 152.735 188.198 152.325 188.198C152.002 188.198 151.76 188.103 151.599 187.912C151.452 187.721 151.379 187.435 151.379 187.054C151.379 186.819 151.415 186.482 151.489 186.042L152.127 182.544C152.2 182.192 152.237 181.84 152.237 181.488C152.237 180.725 151.98 180.344 151.467 180.344C151.027 180.344 150.572 180.623 150.103 181.18C149.648 181.737 149.215 182.551 148.805 183.622C148.394 184.678 148.057 185.947 147.793 187.428L147.727 187.78C147.653 188.044 147.301 188.176 146.671 188.176C146.231 188.176 146.011 188.125 146.011 188.022L146.099 187.538C146.245 186.849 146.326 186.46 146.341 186.372L147.243 181.466C147.272 181.334 147.287 181.165 147.287 180.96C147.287 180.535 147.155 180.322 146.891 180.322C146.568 180.322 146.121 180.63 145.549 181.246C145.534 181.261 145.512 181.268 145.483 181.268C145.439 181.268 145.395 181.246 145.351 181.202C145.321 181.143 145.329 181.092 145.373 181.048C145.886 180.447 146.348 180.007 146.759 179.728C147.184 179.449 147.602 179.31 148.013 179.31C148.335 179.31 148.57 179.405 148.717 179.596C148.878 179.772 148.959 180.051 148.959 180.432C148.959 180.549 148.929 180.828 148.871 181.268L148.475 183.468C148.988 182.119 149.589 181.077 150.279 180.344C150.968 179.596 151.694 179.222 152.457 179.222C153.439 179.222 153.931 179.816 153.931 181.004C153.931 181.283 153.894 181.657 153.821 182.126L153.095 186.042C153.051 186.262 153.029 186.445 153.029 186.592C153.029 186.973 153.153 187.164 153.403 187.164C153.667 187.164 154.085 186.878 154.657 186.306ZM158.893 188.286C157.895 188.286 157.155 187.956 156.671 187.296C156.201 186.621 155.967 185.785 155.967 184.788C155.967 184.436 156.003 184.025 156.077 183.556C156.238 182.705 156.575 181.95 157.089 181.29C157.602 180.63 158.203 180.124 158.893 179.772C159.582 179.405 160.264 179.222 160.939 179.222C161.467 179.222 161.929 179.339 162.325 179.574C162.735 179.794 162.941 180.109 162.941 180.52C162.941 180.828 162.853 181.077 162.677 181.268C162.515 181.444 162.273 181.532 161.951 181.532C161.393 181.532 161.063 181.231 160.961 180.63C160.887 180.381 160.785 180.183 160.653 180.036C160.521 179.875 160.315 179.794 160.037 179.794C159.509 179.794 159.054 180.073 158.673 180.63C158.306 181.173 158.049 181.899 157.903 182.808C157.815 183.292 157.771 183.761 157.771 184.216C157.771 185.155 157.961 185.91 158.343 186.482C158.739 187.039 159.325 187.318 160.103 187.318C160.44 187.318 160.799 187.245 161.181 187.098C161.562 186.937 161.892 186.746 162.171 186.526H162.193C162.237 186.526 162.281 186.548 162.325 186.592C162.369 186.636 162.376 186.68 162.347 186.724C161.789 187.252 161.21 187.648 160.609 187.912C160.022 188.161 159.45 188.286 158.893 188.286ZM168.874 179.222C169.402 179.222 169.813 179.317 170.106 179.508C170.399 179.684 170.546 179.941 170.546 180.278C170.546 180.953 170.047 181.576 169.05 182.148C168.067 182.72 166.879 183.131 165.486 183.38C165.427 183.849 165.398 184.194 165.398 184.414C165.398 185.309 165.589 186.027 165.97 186.57C166.351 187.098 166.901 187.362 167.62 187.362C167.957 187.362 168.309 187.311 168.676 187.208C169.043 187.091 169.38 186.915 169.688 186.68H169.71C169.754 186.68 169.791 186.702 169.82 186.746C169.864 186.79 169.871 186.827 169.842 186.856C168.83 187.795 167.708 188.264 166.476 188.264C165.508 188.264 164.775 187.963 164.276 187.362C163.777 186.761 163.528 185.991 163.528 185.052C163.528 184.715 163.565 184.341 163.638 183.93C163.785 183.153 164.1 182.405 164.584 181.686C165.083 180.953 165.706 180.359 166.454 179.904C167.217 179.449 168.023 179.222 168.874 179.222ZM168.566 180.872C168.595 180.725 168.61 180.63 168.61 180.586C168.61 180.337 168.529 180.146 168.368 180.014C168.207 179.882 168.009 179.816 167.774 179.816C167.231 179.816 166.762 180.117 166.366 180.718C165.985 181.319 165.706 182.097 165.53 183.05C167.378 182.639 168.39 181.913 168.566 180.872ZM178.415 186.042C178.371 186.277 178.349 186.467 178.349 186.614C178.349 186.981 178.467 187.164 178.701 187.164C178.848 187.164 179.024 187.098 179.229 186.966C179.435 186.819 179.684 186.599 179.977 186.306C180.007 186.277 180.029 186.262 180.043 186.262C180.087 186.262 180.124 186.291 180.153 186.35C180.197 186.394 180.197 186.438 180.153 186.482C179.64 187.069 179.193 187.501 178.811 187.78C178.43 188.059 178.041 188.198 177.645 188.198C177 188.198 176.677 187.802 176.677 187.01C176.677 186.775 176.714 186.453 176.787 186.042L177.095 184.326C176.479 185.573 175.819 186.548 175.115 187.252C174.411 187.941 173.693 188.286 172.959 188.286C172.417 188.286 171.962 188.11 171.595 187.758C171.243 187.391 171.067 186.834 171.067 186.086C171.067 185.822 171.089 185.536 171.133 185.228C171.324 184.187 171.735 183.204 172.365 182.28C172.996 181.356 173.737 180.615 174.587 180.058C175.438 179.501 176.267 179.222 177.073 179.222C177.396 179.222 177.711 179.281 178.019 179.398L178.877 174.822C178.921 174.573 178.943 174.367 178.943 174.206C178.943 173.986 178.907 173.825 178.833 173.722C178.76 173.619 178.643 173.568 178.481 173.568C178.276 173.568 177.953 173.671 177.513 173.876H177.469C177.411 173.876 177.374 173.839 177.359 173.766C177.345 173.693 177.367 173.649 177.425 173.634L180.659 172.05H180.703C180.762 172.05 180.813 172.072 180.857 172.116C180.901 172.16 180.916 172.197 180.901 172.226L178.415 186.042ZM173.927 186.9C174.455 186.9 174.969 186.643 175.467 186.13C175.966 185.602 176.399 184.971 176.765 184.238C177.132 183.505 177.374 182.845 177.491 182.258L177.513 182.126C177.543 181.921 177.557 181.781 177.557 181.708C177.557 181.224 177.411 180.85 177.117 180.586C176.824 180.322 176.443 180.19 175.973 180.19C175.167 180.205 174.492 180.549 173.949 181.224C173.421 181.899 173.047 182.874 172.827 184.15C172.769 184.502 172.739 184.847 172.739 185.184C172.739 185.756 172.842 186.189 173.047 186.482C173.253 186.761 173.546 186.9 173.927 186.9ZM192.201 179.53C192.304 179.53 192.355 179.596 192.355 179.728C192.355 179.845 192.274 180.014 192.113 180.234C191.952 180.439 191.798 180.542 191.651 180.542C191.592 180.542 191.336 180.505 190.881 180.432C190.426 180.359 189.935 180.315 189.407 180.3L188.461 185.602C188.417 185.793 188.395 185.976 188.395 186.152C188.395 186.841 188.769 187.186 189.517 187.186C190.104 187.186 190.749 186.893 191.453 186.306H191.475C191.534 186.306 191.585 186.328 191.629 186.372C191.673 186.416 191.673 186.46 191.629 186.504C190.954 187.135 190.36 187.589 189.847 187.868C189.348 188.132 188.85 188.264 188.351 188.264C187.236 188.264 186.679 187.758 186.679 186.746C186.679 186.541 186.701 186.321 186.745 186.086L187.625 181.268C187.669 181.004 187.691 180.791 187.691 180.63C187.691 180.41 187.632 180.263 187.515 180.19C187.412 180.117 187.2 180.08 186.877 180.08C186.833 180.08 186.811 180.036 186.811 179.948C186.811 179.831 186.833 179.772 186.877 179.772C187.478 179.772 187.992 179.603 188.417 179.266C188.842 178.914 189.18 178.459 189.429 177.902C189.444 177.873 189.495 177.858 189.583 177.858C189.642 177.858 189.7 177.873 189.759 177.902C189.818 177.917 189.84 177.931 189.825 177.946L189.517 179.706C189.898 179.691 190.243 179.677 190.551 179.662C190.859 179.633 191.13 179.611 191.365 179.596C191.732 179.552 192.01 179.53 192.201 179.53ZM195.651 188.308C194.713 188.308 193.987 188 193.473 187.384C192.975 186.768 192.725 185.969 192.725 184.986C192.725 184.575 192.769 184.165 192.857 183.754C193.019 182.889 193.327 182.111 193.781 181.422C194.251 180.733 194.823 180.197 195.497 179.816C196.172 179.42 196.883 179.222 197.631 179.222C198.585 179.222 199.318 179.523 199.831 180.124C200.345 180.725 200.601 181.517 200.601 182.5C200.601 182.896 200.557 183.314 200.469 183.754C200.293 184.693 199.949 185.507 199.435 186.196C198.937 186.885 198.35 187.413 197.675 187.78C197.015 188.132 196.341 188.308 195.651 188.308ZM196.399 187.758C196.913 187.758 197.367 187.487 197.763 186.944C198.159 186.401 198.445 185.661 198.621 184.722C198.724 184.223 198.775 183.695 198.775 183.138C198.775 182.17 198.607 181.363 198.269 180.718C197.947 180.073 197.499 179.75 196.927 179.75C196.429 179.75 195.974 180.014 195.563 180.542C195.167 181.07 194.881 181.825 194.705 182.808C194.603 183.424 194.551 183.945 194.551 184.37C194.551 185.353 194.713 186.167 195.035 186.812C195.373 187.443 195.827 187.758 196.399 187.758ZM220.658 186.306C220.687 186.277 220.716 186.262 220.746 186.262C220.79 186.262 220.826 186.291 220.856 186.35C220.885 186.394 220.878 186.438 220.834 186.482C220.335 187.069 219.895 187.501 219.514 187.78C219.132 188.059 218.744 188.198 218.348 188.198C218.01 188.198 217.768 188.103 217.622 187.912C217.475 187.721 217.402 187.421 217.402 187.01C217.402 186.702 217.431 186.379 217.49 186.042L218.15 182.544C218.223 182.075 218.26 181.723 218.26 181.488C218.26 180.725 218.025 180.344 217.556 180.344C217.174 180.344 216.764 180.608 216.324 181.136C215.898 181.649 215.488 182.412 215.092 183.424C214.696 184.436 214.366 185.646 214.102 187.054L213.97 187.78C213.926 188.044 213.574 188.176 212.914 188.176C212.474 188.176 212.254 188.125 212.254 188.022C212.268 187.934 212.312 187.714 212.386 187.362C212.474 187.01 212.54 186.68 212.584 186.372L213.31 182.522C213.383 182.082 213.42 181.745 213.42 181.51C213.42 180.733 213.17 180.344 212.672 180.344C212.29 180.344 211.88 180.615 211.44 181.158C211 181.701 210.582 182.485 210.186 183.512C209.804 184.524 209.489 185.719 209.24 187.098L209.108 187.78C209.034 188.044 208.682 188.176 208.052 188.176C207.612 188.176 207.392 188.125 207.392 188.022L207.502 187.494L207.722 186.416L208.624 181.466C208.653 181.334 208.668 181.165 208.668 180.96C208.668 180.535 208.536 180.322 208.272 180.322C207.949 180.322 207.502 180.63 206.93 181.246C206.915 181.261 206.893 181.268 206.864 181.268C206.82 181.268 206.776 181.246 206.732 181.202C206.702 181.143 206.71 181.092 206.754 181.048C207.267 180.447 207.729 180.007 208.14 179.728C208.565 179.449 208.983 179.31 209.394 179.31C209.716 179.31 209.951 179.405 210.098 179.596C210.259 179.772 210.34 180.051 210.34 180.432C210.34 180.549 210.31 180.828 210.252 181.268L209.9 183.292C210.398 181.987 210.97 180.982 211.616 180.278C212.276 179.574 212.972 179.222 213.706 179.222C214.63 179.222 215.092 179.801 215.092 180.96C215.092 181.356 215.055 181.737 214.982 182.104L214.762 183.27C215.275 181.979 215.854 180.982 216.5 180.278C217.16 179.574 217.842 179.222 218.546 179.222C219.484 179.222 219.954 179.794 219.954 180.938C219.954 181.29 219.91 181.686 219.822 182.126L219.118 186.042C219.074 186.262 219.052 186.445 219.052 186.592C219.052 186.973 219.176 187.164 219.426 187.164C219.675 187.164 220.086 186.878 220.658 186.306ZM230.352 186.306C230.366 186.291 230.388 186.284 230.418 186.284C230.462 186.284 230.498 186.313 230.528 186.372C230.557 186.416 230.557 186.453 230.528 186.482C230.044 187.054 229.604 187.487 229.208 187.78C228.812 188.059 228.43 188.198 228.064 188.198C227.726 188.198 227.477 188.103 227.316 187.912C227.154 187.707 227.074 187.391 227.074 186.966C227.074 186.658 227.103 186.35 227.162 186.042L227.47 184.282C226.883 185.514 226.186 186.489 225.38 187.208C224.588 187.927 223.818 188.286 223.07 188.286C222.615 188.286 222.263 188.154 222.014 187.89C221.764 187.611 221.64 187.193 221.64 186.636C221.64 185.624 221.955 184.539 222.586 183.38C223.231 182.207 224.023 181.224 224.962 180.432C225.915 179.625 226.817 179.222 227.668 179.222C227.946 179.222 228.218 179.273 228.482 179.376C228.76 179.464 228.995 179.603 229.186 179.794C229.479 179.545 229.692 179.295 229.824 179.046C229.853 179.017 229.882 179.002 229.912 179.002C229.956 179.002 230 179.017 230.044 179.046C230.088 179.061 230.102 179.075 230.088 179.09L228.812 186.042C228.768 186.262 228.746 186.445 228.746 186.592C228.746 186.768 228.775 186.907 228.834 187.01C228.892 187.113 228.973 187.164 229.076 187.164C229.354 187.164 229.78 186.878 230.352 186.306ZM224.28 186.856C224.808 186.856 225.35 186.555 225.908 185.954C226.48 185.353 226.956 184.634 227.338 183.798C227.719 182.962 227.91 182.243 227.91 181.642C227.91 181.187 227.8 180.835 227.58 180.586C227.36 180.322 227.044 180.19 226.634 180.19C226.164 180.19 225.71 180.381 225.27 180.762C224.83 181.129 224.448 181.642 224.126 182.302C223.818 182.947 223.598 183.673 223.466 184.48C223.407 184.832 223.378 185.169 223.378 185.492C223.378 186.401 223.678 186.856 224.28 186.856ZM239.029 179.31C239.381 179.31 239.696 179.449 239.975 179.728C240.268 179.992 240.393 180.293 240.349 180.63C240.319 180.835 240.224 181.011 240.063 181.158C239.901 181.29 239.703 181.356 239.469 181.356C239.307 181.356 239.168 181.327 239.051 181.268C238.948 181.209 238.838 181.129 238.721 181.026C238.647 180.953 238.567 180.894 238.479 180.85C238.391 180.791 238.295 180.762 238.193 180.762C237.987 180.762 237.76 180.938 237.511 181.29L236.367 182.984L237.313 186.02C237.445 186.46 237.591 186.746 237.753 186.878C237.929 187.01 238.127 187.076 238.347 187.076C238.552 187.076 238.75 187.017 238.941 186.9C239.131 186.783 239.344 186.607 239.579 186.372C239.593 186.357 239.615 186.35 239.645 186.35C239.703 186.35 239.747 186.379 239.777 186.438C239.806 186.482 239.799 186.519 239.755 186.548C239.212 187.12 238.735 187.545 238.325 187.824C237.914 188.088 237.525 188.22 237.159 188.22C236.807 188.22 236.521 188.117 236.301 187.912C236.095 187.692 235.897 187.296 235.707 186.724L235.091 184.766L233.903 186.636C233.492 187.296 233.177 187.729 232.957 187.934C232.737 188.125 232.458 188.22 232.121 188.22C231.769 188.22 231.453 188.088 231.175 187.824C230.896 187.545 230.786 187.237 230.845 186.9C230.874 186.709 230.969 186.548 231.131 186.416C231.292 186.269 231.483 186.196 231.703 186.196C231.879 186.196 232.018 186.225 232.121 186.284C232.223 186.328 232.341 186.401 232.473 186.504C232.634 186.665 232.795 186.746 232.957 186.746C233.177 186.746 233.411 186.577 233.661 186.24L234.959 184.326L234.079 181.576C233.947 181.136 233.785 180.843 233.595 180.696C233.419 180.535 233.228 180.454 233.023 180.454C232.656 180.454 232.238 180.689 231.769 181.158C231.754 181.173 231.732 181.18 231.703 181.18C231.659 181.18 231.615 181.158 231.571 181.114C231.541 181.055 231.549 181.011 231.593 180.982C232.135 180.41 232.612 179.992 233.023 179.728C233.448 179.449 233.837 179.31 234.189 179.31C234.555 179.31 234.849 179.42 235.069 179.64C235.289 179.86 235.494 180.263 235.685 180.85L236.213 182.544L237.269 180.894C237.679 180.234 237.995 179.809 238.215 179.618C238.435 179.413 238.706 179.31 239.029 179.31ZM247.567 188.198C247.23 188.198 246.981 188.103 246.819 187.912C246.673 187.721 246.599 187.428 246.599 187.032C246.599 186.812 246.636 186.482 246.709 186.042L248.777 174.822C248.821 174.573 248.843 174.36 248.843 174.184C248.843 173.773 248.697 173.568 248.403 173.568C248.198 173.568 247.875 173.671 247.435 173.876H247.391C247.333 173.876 247.296 173.839 247.281 173.766C247.267 173.693 247.289 173.649 247.347 173.634L250.559 172.05H250.603C250.662 172.05 250.713 172.072 250.757 172.116C250.816 172.16 250.838 172.197 250.823 172.226L248.337 186.042C248.293 186.262 248.271 186.453 248.271 186.614C248.271 186.981 248.389 187.164 248.623 187.164C248.887 187.164 249.305 186.878 249.877 186.306C249.907 186.277 249.936 186.262 249.965 186.262C250.009 186.262 250.046 186.291 250.075 186.35C250.105 186.394 250.097 186.438 250.053 186.482C249.555 187.069 249.115 187.501 248.733 187.78C248.352 188.059 247.963 188.198 247.567 188.198ZM256.767 179.222C257.295 179.222 257.705 179.317 257.999 179.508C258.292 179.684 258.439 179.941 258.439 180.278C258.439 180.953 257.94 181.576 256.943 182.148C255.96 182.72 254.772 183.131 253.379 183.38C253.32 183.849 253.291 184.194 253.291 184.414C253.291 185.309 253.481 186.027 253.863 186.57C254.244 187.098 254.794 187.362 255.513 187.362C255.85 187.362 256.202 187.311 256.569 187.208C256.935 187.091 257.273 186.915 257.581 186.68H257.603C257.647 186.68 257.683 186.702 257.713 186.746C257.757 186.79 257.764 186.827 257.735 186.856C256.723 187.795 255.601 188.264 254.369 188.264C253.401 188.264 252.667 187.963 252.169 187.362C251.67 186.761 251.421 185.991 251.421 185.052C251.421 184.715 251.457 184.341 251.531 183.93C251.677 183.153 251.993 182.405 252.477 181.686C252.975 180.953 253.599 180.359 254.347 179.904C255.109 179.449 255.916 179.222 256.767 179.222ZM256.459 180.872C256.488 180.725 256.503 180.63 256.503 180.586C256.503 180.337 256.422 180.146 256.261 180.014C256.099 179.882 255.901 179.816 255.667 179.816C255.124 179.816 254.655 180.117 254.259 180.718C253.877 181.319 253.599 182.097 253.423 183.05C255.271 182.639 256.283 181.913 256.459 180.872ZM262.763 188.286C262.074 188.286 261.524 188.015 261.113 187.472C260.702 186.915 260.519 186.269 260.563 185.536C260.607 185.14 260.71 184.744 260.871 184.348C261.032 183.937 261.282 183.409 261.619 182.764C261.942 182.119 262.132 181.73 262.191 181.598C262.294 181.363 262.345 181.217 262.345 181.158C262.345 181.041 262.257 180.982 262.081 180.982H261.003C260.475 180.982 260.101 181.055 259.881 181.202C259.661 181.349 259.485 181.62 259.353 182.016C259.338 182.06 259.294 182.082 259.221 182.082C259.177 182.082 259.14 182.067 259.111 182.038C259.082 182.009 259.074 181.972 259.089 181.928C259.324 181.239 259.522 180.733 259.683 180.41C259.859 180.073 260.072 179.838 260.321 179.706C260.57 179.559 260.915 179.486 261.355 179.486H263.379C263.54 179.486 263.621 179.515 263.621 179.574C263.621 179.618 263.599 179.677 263.555 179.75C263.218 180.513 262.917 181.29 262.653 182.082C262.389 182.874 262.22 183.541 262.147 184.084C262.103 184.319 262.081 184.546 262.081 184.766C262.081 185.382 262.228 185.873 262.521 186.24C262.814 186.607 263.203 186.79 263.687 186.79C264.332 186.79 264.941 186.497 265.513 185.91C266.085 185.323 266.459 184.568 266.635 183.644C266.694 183.395 266.723 183.145 266.723 182.896C266.723 182.529 266.657 182.236 266.525 182.016C266.408 181.781 266.232 181.539 265.997 181.29C265.806 181.085 265.66 180.909 265.557 180.762C265.469 180.615 265.425 180.447 265.425 180.256C265.425 179.933 265.528 179.691 265.733 179.53C265.953 179.369 266.217 179.288 266.525 179.288C267.273 179.288 267.647 179.926 267.647 181.202C267.647 181.495 267.625 181.84 267.581 182.236C267.464 183.336 267.148 184.348 266.635 185.272C266.122 186.196 265.513 186.929 264.809 187.472C264.12 188.015 263.438 188.286 262.763 188.286ZM274.255 179.222C274.783 179.222 275.194 179.317 275.487 179.508C275.78 179.684 275.927 179.941 275.927 180.278C275.927 180.953 275.428 181.576 274.431 182.148C273.448 182.72 272.26 183.131 270.867 183.38C270.808 183.849 270.779 184.194 270.779 184.414C270.779 185.309 270.97 186.027 271.351 186.57C271.732 187.098 272.282 187.362 273.001 187.362C273.338 187.362 273.69 187.311 274.057 187.208C274.424 187.091 274.761 186.915 275.069 186.68H275.091C275.135 186.68 275.172 186.702 275.201 186.746C275.245 186.79 275.252 186.827 275.223 186.856C274.211 187.795 273.089 188.264 271.857 188.264C270.889 188.264 270.156 187.963 269.657 187.362C269.158 186.761 268.909 185.991 268.909 185.052C268.909 184.715 268.946 184.341 269.019 183.93C269.166 183.153 269.481 182.405 269.965 181.686C270.464 180.953 271.087 180.359 271.835 179.904C272.598 179.449 273.404 179.222 274.255 179.222ZM273.947 180.872C273.976 180.725 273.991 180.63 273.991 180.586C273.991 180.337 273.91 180.146 273.749 180.014C273.588 179.882 273.39 179.816 273.155 179.816C272.612 179.816 272.143 180.117 271.747 180.718C271.366 181.319 271.087 182.097 270.911 183.05C272.759 182.639 273.771 181.913 273.947 180.872ZM278.161 188.198C277.824 188.198 277.575 188.103 277.413 187.912C277.267 187.721 277.193 187.428 277.193 187.032C277.193 186.812 277.23 186.482 277.303 186.042L279.371 174.822C279.415 174.573 279.437 174.36 279.437 174.184C279.437 173.773 279.291 173.568 278.997 173.568C278.792 173.568 278.469 173.671 278.029 173.876H277.985C277.927 173.876 277.89 173.839 277.875 173.766C277.861 173.693 277.883 173.649 277.941 173.634L281.153 172.05H281.197C281.256 172.05 281.307 172.072 281.351 172.116C281.41 172.16 281.432 172.197 281.417 172.226L278.931 186.042C278.887 186.262 278.865 186.453 278.865 186.614C278.865 186.981 278.983 187.164 279.217 187.164C279.481 187.164 279.899 186.878 280.471 186.306C280.501 186.277 280.53 186.262 280.559 186.262C280.603 186.262 280.64 186.291 280.669 186.35C280.699 186.394 280.691 186.438 280.647 186.482C280.149 187.069 279.709 187.501 279.327 187.78C278.946 188.059 278.557 188.198 278.161 188.198ZM46.444 201.25C46.4733 201.25 46.488 201.294 46.488 201.382C46.488 201.47 46.4733 201.514 46.444 201.514C45.9013 201.514 45.4393 201.712 45.058 202.108C44.6913 202.489 44.442 203.032 44.31 203.736L42.286 215.176C42.286 215.22 42.2493 215.249 42.176 215.264C42.1173 215.293 42.0513 215.308 41.978 215.308C41.8607 215.308 41.78 215.279 41.736 215.22L35.356 203.362L33.728 212.514C33.684 212.749 33.662 212.976 33.662 213.196C33.662 214.223 34.1313 214.736 35.07 214.736C35.0993 214.736 35.114 214.78 35.114 214.868C35.114 214.956 35.0993 215 35.07 215C34.718 215 34.4467 214.993 34.256 214.978L33.068 214.956L31.99 214.978C31.77 214.993 31.462 215 31.066 215C31.022 215 31 214.956 31 214.868C31 214.78 31.022 214.736 31.066 214.736C31.6087 214.736 32.0633 214.545 32.43 214.164C32.8113 213.783 33.0607 213.233 33.178 212.514L34.96 202.636C34.696 202.225 34.4393 201.939 34.19 201.778C33.9407 201.602 33.6693 201.514 33.376 201.514C33.332 201.514 33.31 201.47 33.31 201.382C33.31 201.294 33.332 201.25 33.376 201.25L34.3 201.272C34.5053 201.287 34.784 201.294 35.136 201.294C35.444 201.294 35.708 201.287 35.928 201.272C36.148 201.257 36.302 201.25 36.39 201.25C36.478 201.25 36.544 201.279 36.588 201.338C36.632 201.382 36.6833 201.485 36.742 201.646C36.8153 201.837 36.9327 202.086 37.094 202.394L42.264 212.008L43.76 203.736C43.804 203.472 43.826 203.237 43.826 203.032C43.826 202.533 43.7087 202.159 43.474 201.91C43.2393 201.646 42.8947 201.514 42.44 201.514C42.396 201.514 42.374 201.47 42.374 201.382C42.374 201.294 42.396 201.25 42.44 201.25L43.21 201.272C43.6793 201.301 44.0827 201.316 44.42 201.316C44.6693 201.316 45.0433 201.301 45.542 201.272L46.444 201.25ZM56.6585 201.25C56.7759 201.25 56.8199 201.316 56.7905 201.448C56.5559 202.959 56.4092 203.919 56.3505 204.33C56.3359 204.374 56.2845 204.396 56.1965 204.396C56.1085 204.381 56.0719 204.352 56.0865 204.308C56.0572 203.501 55.8225 202.863 55.3825 202.394C54.9425 201.91 54.3559 201.668 53.6225 201.668H52.7645C52.3245 201.668 52.0019 201.705 51.7965 201.778C51.5912 201.837 51.4372 201.961 51.3345 202.152C51.2465 202.328 51.1659 202.629 51.0925 203.054L50.2565 207.828H52.5445C53.1899 207.828 53.6739 207.703 53.9965 207.454C54.3339 207.19 54.5612 206.765 54.6785 206.178C54.6785 206.134 54.7225 206.112 54.8105 206.112C54.8399 206.112 54.8692 206.127 54.8985 206.156C54.9425 206.171 54.9572 206.193 54.9425 206.222C54.8839 206.662 54.7959 207.131 54.6785 207.63L54.5905 208.114L54.2605 210.292C54.2459 210.351 54.1945 210.38 54.1065 210.38C54.0185 210.38 53.9819 210.343 53.9965 210.27C54.0259 210.035 54.0405 209.867 54.0405 209.764C54.0405 208.855 53.4905 208.4 52.3905 208.4H50.1465L49.3105 213.13C49.2665 213.365 49.2445 213.57 49.2445 213.746C49.2445 214.142 49.3839 214.406 49.6625 214.538C49.9412 214.67 50.4692 214.736 51.2465 214.736C51.2759 214.736 51.2905 214.78 51.2905 214.868C51.2905 214.956 51.2759 215 51.2465 215C50.8945 215 50.5939 214.993 50.3445 214.978L48.0345 214.956L46.6925 214.978C46.4579 214.993 46.1279 215 45.7025 215C45.6732 215 45.6585 214.956 45.6585 214.868C45.6585 214.78 45.6732 214.736 45.7025 214.736C46.1425 214.736 46.4652 214.699 46.6705 214.626C46.8905 214.553 47.0519 214.413 47.1545 214.208C47.2719 213.988 47.3672 213.658 47.4405 213.218L49.2445 203.032C49.3032 202.651 49.3325 202.416 49.3325 202.328C49.3325 202.005 49.2372 201.793 49.0465 201.69C48.8705 201.573 48.5479 201.514 48.0785 201.514C48.0345 201.514 48.0125 201.47 48.0125 201.382C48.0125 201.294 48.0345 201.25 48.0785 201.25H56.6585ZM58.7568 215C58.7128 215 58.6908 214.956 58.6908 214.868C58.6908 214.78 58.7128 214.736 58.7568 214.736C59.2848 214.736 59.6808 214.699 59.9448 214.626C60.2088 214.553 60.3994 214.413 60.5168 214.208C60.6488 213.988 60.7588 213.658 60.8468 213.218L62.6288 203.032C62.6728 202.768 62.6948 202.548 62.6948 202.372C62.6948 202.108 62.6288 201.932 62.4968 201.844C62.3648 201.756 62.1301 201.712 61.7928 201.712H61.4408C60.6781 201.712 59.9741 202.02 59.3288 202.636C58.6834 203.252 58.2141 204.059 57.9208 205.056C57.9061 205.1 57.8548 205.115 57.7668 205.1C57.6934 205.085 57.6641 205.056 57.6788 205.012C57.7961 204.631 57.9648 203.963 58.1848 203.01C58.4194 202.042 58.5881 201.294 58.6908 200.766C58.7054 200.722 58.7568 200.707 58.8448 200.722C58.9328 200.722 58.9694 200.744 58.9548 200.788C58.9108 201.096 59.1968 201.25 59.8128 201.25C60.8981 201.294 62.2401 201.316 63.8388 201.316C64.5868 201.316 65.4154 201.301 66.3248 201.272L67.7108 201.25C68.1508 201.25 68.4808 201.213 68.7008 201.14C68.9208 201.067 69.0748 200.92 69.1628 200.7C69.1921 200.656 69.2434 200.641 69.3168 200.656C69.3901 200.656 69.4194 200.685 69.4048 200.744C69.2728 201.199 69.0968 201.932 68.8768 202.944C68.6568 203.956 68.5248 204.645 68.4808 205.012C68.4661 205.071 68.4148 205.1 68.3268 205.1C68.2388 205.085 68.2021 205.049 68.2168 204.99C68.2754 204.579 68.3048 204.293 68.3048 204.132C68.3048 203.384 68.1068 202.797 67.7108 202.372C67.3294 201.932 66.7868 201.712 66.0828 201.712H65.7308C65.2908 201.712 64.9974 201.8 64.8508 201.976C64.7041 202.152 64.5868 202.519 64.4988 203.076L62.7168 213.218C62.6581 213.57 62.6288 213.797 62.6288 213.9C62.6288 214.237 62.7461 214.465 62.9808 214.582C63.2154 214.685 63.6554 214.736 64.3008 214.736C64.3301 214.736 64.3448 214.78 64.3448 214.868C64.3448 214.956 64.3301 215 64.3008 215C63.8168 215 63.4354 214.993 63.1568 214.978L61.5068 214.956L59.9228 214.978C59.6294 214.993 59.2408 215 58.7568 215ZM76.2189 210.336C76.2483 210.336 76.2703 210.387 76.2849 210.49C76.3143 210.593 76.3289 210.703 76.3289 210.82C76.3289 210.952 76.3143 211.069 76.2849 211.172C76.2703 211.275 76.2483 211.326 76.2189 211.326H73.0729V214.45C73.0729 214.479 73.0069 214.509 72.8749 214.538C72.7576 214.553 72.6329 214.56 72.5009 214.56C72.2223 214.56 72.0829 214.538 72.0829 214.494V211.326H68.9589C68.9296 211.326 68.9003 211.275 68.8709 211.172C68.8563 211.055 68.8489 210.93 68.8489 210.798C68.8489 210.681 68.8563 210.578 68.8709 210.49C68.8856 210.387 68.9076 210.336 68.9369 210.336H72.0829V207.212C72.0829 207.183 72.1343 207.161 72.2369 207.146C72.3396 207.117 72.4569 207.102 72.5889 207.102C72.7063 207.102 72.8163 207.117 72.9189 207.146C73.0216 207.161 73.0729 207.183 73.0729 207.212V210.336H76.2189ZM77.1526 215C77.0939 215 77.0646 214.956 77.0646 214.868C77.0646 214.78 77.0939 214.736 77.1526 214.736C77.6659 214.736 78.0546 214.699 78.3186 214.626C78.5826 214.553 78.7732 214.413 78.8906 214.208C79.0226 213.988 79.1326 213.658 79.2206 213.218L79.9686 209.016C80.0419 208.679 80.0786 208.429 80.0786 208.268C80.0786 208.004 79.9686 207.872 79.7486 207.872C79.5139 207.872 79.0006 208.048 78.2086 208.4L78.1646 208.422C78.1206 208.422 78.0839 208.385 78.0546 208.312C78.0399 208.224 78.0619 208.158 78.1206 208.114L81.9486 206.244C81.9779 206.215 82.0146 206.215 82.0586 206.244C82.1026 206.273 82.1172 206.31 82.1026 206.354L80.8486 213.218C80.8046 213.482 80.7826 213.702 80.7826 213.878C80.7826 214.23 80.8926 214.465 81.1126 214.582C81.3472 214.685 81.7872 214.736 82.4326 214.736C82.4912 214.736 82.5206 214.78 82.5206 214.868C82.5206 214.956 82.4912 215 82.4326 215C81.9779 215 81.6112 214.993 81.3326 214.978L79.8146 214.956L78.2746 214.978C77.9959 214.993 77.6219 215 77.1526 215ZM87.4709 215.286C86.4296 215.286 85.5862 214.956 84.9409 214.296C84.2956 213.636 83.9729 212.771 83.9729 211.7C83.9729 211.333 84.0022 210.996 84.0609 210.688C84.2076 209.823 84.5229 209.053 85.0069 208.378C85.5056 207.703 86.1142 207.175 86.8329 206.794C87.5516 206.413 88.3142 206.222 89.1209 206.222C90.1769 206.222 91.0202 206.537 91.6509 207.168C92.2816 207.799 92.5969 208.649 92.5969 209.72C92.5969 210.013 92.5602 210.358 92.4869 210.754C92.3256 211.634 91.9956 212.419 91.4969 213.108C91.0129 213.797 90.4189 214.333 89.7149 214.714C89.0109 215.095 88.2629 215.286 87.4709 215.286ZM87.8229 214.89C88.5122 214.89 89.0842 214.538 89.5389 213.834C90.0082 213.115 90.3309 212.177 90.5069 211.018C90.5802 210.578 90.6169 210.094 90.6169 209.566C90.6169 208.627 90.4556 207.901 90.1329 207.388C89.8102 206.875 89.3702 206.618 88.8129 206.618C88.1529 206.618 87.5662 206.977 87.0529 207.696C86.5396 208.4 86.1949 209.339 86.0189 210.512C85.9456 211.025 85.9089 211.465 85.9089 211.832C85.9089 212.741 86.0702 213.482 86.3929 214.054C86.7302 214.611 87.2069 214.89 87.8229 214.89ZM94.8258 215.198C94.4591 215.198 94.1731 215.095 93.9678 214.89C93.7624 214.685 93.6598 214.406 93.6598 214.054C93.6598 213.717 93.7624 213.453 93.9678 213.262C94.1731 213.057 94.4591 212.954 94.8258 212.954C95.1778 212.954 95.4491 213.057 95.6398 213.262C95.8304 213.453 95.9258 213.717 95.9258 214.054C95.9258 214.406 95.8304 214.685 95.6398 214.89C95.4491 215.095 95.1778 215.198 94.8258 215.198Z" fill="#22262A"/>
</g>
<rect x="1" y="40" width="331" height="211" rx="30" stroke="#22262A"/>
<path d="M338.052 75.2313C317.991 72.8525 263.658 43.2093 252.315 25.7314L245.466 37.5949C256.547 52.9082 307.135 84.4159 331.202 87.0948L338.052 75.2313Z" fill="url(#paint1_linear_1251_22637)"/>
<path d="M282.339 10.854C273.906 17.3048 268.696 19.993 256.3 18.8289L252.315 25.7314C263.658 43.2093 317.991 72.8525 338.052 75.2313L342.037 68.3288C335.755 59.1729 334.395 53.3566 335.924 41.7915C328.449 48.8107 323.315 50.8773 312.565 51.3132C309.433 40.2194 309.61 33.7556 311.622 22.0087C302.365 29.579 296.894 33.0957 285.772 35.8445C282.022 26.701 281.514 21.1656 282.339 10.854Z" fill="url(#paint2_linear_1251_22637)"/>
<path d="M243.116 41.6643C252.476 59.4523 309.817 93.1353 328.853 91.1642L331.202 87.0948C307.135 84.4159 256.547 52.9082 245.466 37.5949L243.116 41.6643Z" fill="url(#paint3_linear_1251_22637)"/>
<path d="M252.315 25.7314L256.3 18.8289C268.696 19.993 273.906 17.3048 282.339 10.854C281.514 21.1656 282.022 26.701 285.772 35.8445C296.894 33.0957 302.365 29.579 311.622 22.0087C309.61 33.7556 309.433 40.2194 312.565 51.3132C323.315 50.8773 328.449 48.8107 335.924 41.7915C334.395 53.3566 335.755 59.1729 342.037 68.3288L338.052 75.2313M252.315 25.7314C263.658 43.2093 317.991 72.8525 338.052 75.2313M252.315 25.7314L245.466 37.5949M338.052 75.2313L331.202 87.0948M331.202 87.0948L328.853 91.1642C309.817 93.1353 252.476 59.4523 243.116 41.6643L245.466 37.5949M331.202 87.0948C307.135 84.4159 256.547 52.9082 245.466 37.5949" stroke="#22262A" stroke-width="2"/>
<path d="M338.052 75.2308C317.991 72.852 263.658 43.2088 252.315 25.7309L245.466 37.5945C256.547 52.9078 307.135 84.4155 331.202 87.0944L338.052 75.2308Z" fill="#22262A"/>
<path d="M252.315 25.7309L256.3 18.8284C268.696 19.9925 273.906 17.3044 282.339 10.8536C281.514 21.1651 282.022 26.7005 285.772 35.844C296.894 33.0952 302.365 29.5786 311.622 22.0083C309.61 33.7551 309.433 40.2189 312.565 51.3128C323.315 50.8769 328.449 48.8102 335.924 41.791C334.394 53.3561 335.755 59.1724 342.037 68.3284L338.052 75.2308M252.315 25.7309C263.658 43.2088 317.991 72.852 338.052 75.2308M252.315 25.7309L245.466 37.5945M338.052 75.2308L331.202 87.0944M331.202 87.0944L328.853 91.1638C309.817 93.1348 252.476 59.4518 243.116 41.6638L245.466 37.5945M331.202 87.0944C307.135 84.4155 256.547 52.9078 245.466 37.5945" stroke="#22262A" stroke-width="2"/>
<path d="M317.985 10.8867L313.469 18.7089L305.296 18.2184L317.985 10.8867ZM313.556 18.7589L318.072 10.9367L318.067 25.5919L313.556 18.7589ZM313.5 18.8558L318.02 25.7024L309.831 25.2108L313.5 18.8558ZM313.413 18.8058L309.744 25.1608L305.224 18.3142L313.413 18.8058ZM305.176 19.5805L309.313 25.907L305.172 33.0799L305.176 19.5805ZM309.4 25.9565L317.162 26.2523L305.259 33.1299L309.4 25.9565Z" fill="#22262A" stroke="black" stroke-width="0.1"/>
<path d="M288.135 0.589882L284.689 6.55723L278.68 6.31333L288.135 0.589882ZM284.776 6.60723L288.221 0.639882L287.992 11.6895L284.776 6.60723ZM284.72 6.70502L287.945 11.8028L281.918 11.5581L284.72 6.70502ZM284.633 6.65502L281.831 11.5081L278.605 6.41038L284.633 6.65502ZM278.54 7.40271L281.486 12.1054L278.329 17.5732L278.54 7.40271ZM281.573 12.1549L287.278 12.2582L278.416 17.6232L281.573 12.1549Z" fill="#22262A" stroke="black" stroke-width="0.1"/>
<path d="M341.828 31.5899L338.383 37.5572L332.373 37.3133L341.828 31.5899ZM338.469 37.6072L341.915 31.6399L341.685 42.6895L338.469 37.6072ZM338.413 37.705L341.639 42.8028L335.611 42.5581L338.413 37.705ZM338.326 37.655L335.524 42.5081L332.299 37.4104L338.326 37.655ZM332.234 38.4027L335.18 43.1054L332.023 48.5733L332.234 38.4027ZM335.266 43.1549L340.972 43.2582L332.109 48.6233L335.266 43.1549Z" fill="#22262A" stroke="black" stroke-width="0.1"/>
<defs>
<filter id="filter0_b_1251_22637" x="-49" y="60" width="431" height="241" filterUnits="userSpaceOnUse" color-interpolation-filters="sRGB">
<feFlood flood-opacity="0" result="BackgroundImageFix"/>
<feGaussianBlur in="BackgroundImage" stdDeviation="25"/>
<feComposite in2="SourceAlpha" operator="in" result="effect1_backgroundBlur_1251_22637"/>
<feBlend mode="normal" in="SourceGraphic" in2="effect1_backgroundBlur_1251_22637" result="shape"/>
</filter>
<linearGradient id="paint0_linear_1251_22637" x1="31" y1="66.9079" x2="292.283" y2="102.316" gradientUnits="userSpaceOnUse">
<stop offset="0.267495" stop-color="#FFC6CE"/>
<stop offset="1" stop-color="#64D6EE"/>
</linearGradient>
<linearGradient id="paint1_linear_1251_22637" x1="261.903" y1="9.12536" x2="344.818" y2="59.7965" gradientUnits="userSpaceOnUse">
<stop offset="0.267495" stop-color="#FFC6CE"/>
<stop offset="1" stop-color="#64D6EE"/>
</linearGradient>
<linearGradient id="paint2_linear_1251_22637" x1="261.903" y1="9.12536" x2="344.818" y2="59.7965" gradientUnits="userSpaceOnUse">
<stop offset="0.267495" stop-color="#FFC6CE"/>
<stop offset="1" stop-color="#64D6EE"/>
</linearGradient>
<linearGradient id="paint3_linear_1251_22637" x1="261.903" y1="9.12536" x2="344.818" y2="59.7965" gradientUnits="userSpaceOnUse">
<stop offset="0.267495" stop-color="#FFC6CE"/>
<stop offset="1" stop-color="#64D6EE"/>
</linearGradient>
</defs>
</svg>
