<svg width="55" height="50" viewBox="20 25 55 50" fill="none" xmlns="http://www.w3.org/2000/svg">
<g clip-path="url(#clip0_1040_4071)">
<path d="M35.0162 62.6341C33.8651 62.6341 32.4981 62.5801 30.9152 62.4722C30.3396 62.4362 29.6202 62.4002 28.7568 62.3643C27.9294 62.3283 26.9941 62.3103 25.9508 62.3103L21.9577 62.3643C21.2382 62.4002 20.267 62.4182 19.0438 62.4182C18.9719 62.4182 18.9359 62.3103 18.9359 62.0944C18.9359 61.8786 18.9719 61.7707 19.0438 61.7707C20.195 61.7707 21.0404 61.6807 21.58 61.5009C22.1196 61.321 22.4793 60.9793 22.6592 60.4756C22.8751 59.936 22.983 59.1266 22.983 58.0474V33.0635C22.983 31.9843 22.8751 31.1929 22.6592 30.6893C22.4793 30.1856 22.1196 29.8439 21.58 29.664C21.0764 29.4482 20.267 29.3402 19.1518 29.3402C19.0438 29.3402 18.9899 29.2323 18.9899 29.0165C18.9899 28.8006 19.0438 28.6927 19.1518 28.6927L22.0117 28.7467C23.6665 28.8186 24.9795 28.8546 25.9508 28.8546C27.4258 28.8546 28.9367 28.8006 30.4835 28.6927C32.3542 28.6208 33.6133 28.5848 34.2608 28.5848C37.8942 28.5848 41.1138 29.3043 43.9198 30.7432C46.7617 32.1822 48.9561 34.1427 50.503 36.6249C52.0499 39.1071 52.8233 41.8951 52.8233 44.9889C52.8233 48.4783 52.0139 51.5721 50.3951 54.2701C48.8122 56.9322 46.6538 59.0007 43.9198 60.4756C41.2217 61.9146 38.2539 62.6341 35.0162 62.6341ZM34.4766 61.393C36.779 61.393 38.8115 60.8174 40.5742 59.6662C42.3369 58.4791 43.7039 56.7343 44.6752 54.432C45.6825 52.1297 46.1861 49.3777 46.1861 46.176C46.1861 43.1182 45.7185 40.3482 44.7831 37.866C43.8478 35.3479 42.5168 33.3693 40.79 31.9304C39.0633 30.4914 37.0668 29.7719 34.8004 29.7719C32.57 29.7719 31.0411 29.9878 30.2137 30.4195C29.3863 30.8511 28.9726 31.7685 28.9726 33.1715V57.4538C28.9726 58.8928 29.3504 59.918 30.1058 60.5296C30.8613 61.1052 32.3182 61.393 34.4766 61.393Z" fill="url(#paint0_linear_1040_4071)"/>
<g clip-path="url(#clip1_1040_4071)" filter="url(#filter0_d_1040_4071)">
<path d="M67.1642 42.362C64.446 41.1146 61.5778 40.2243 58.631 39.7132C58.6043 39.7087 58.5769 39.7126 58.5525 39.7244C58.5281 39.7361 58.5079 39.7551 58.4947 39.7787C58.1253 40.4337 57.7166 41.2905 57.431 41.9612C54.2546 41.4791 51.0236 41.4791 47.8472 41.9612C47.5286 41.214 47.1682 40.4854 46.7678 39.7787C46.7543 39.7553 46.7341 39.7366 46.7098 39.7249C46.6855 39.7132 46.6582 39.7091 46.6315 39.7132C43.684 40.2215 40.8152 41.1123 38.0983 42.362C38.075 42.3709 38.0556 42.3876 38.0432 42.4092C32.6094 50.5285 31.1187 58.4487 31.8496 66.2693C31.8523 66.306 31.8758 66.3426 31.9046 66.3662C35.0689 68.7101 38.6081 70.4996 42.3714 71.6586C42.398 71.6669 42.4266 71.6666 42.4529 71.6577C42.4793 71.6487 42.5022 71.6316 42.5182 71.6088C43.3251 70.5084 44.043 69.3477 44.6613 68.1268C44.6742 68.1017 44.6786 68.073 44.6739 68.0452C44.6692 68.0173 44.6555 67.9917 44.6351 67.9723C44.6216 67.9595 44.6055 67.9496 44.5879 67.9434C43.4591 67.5096 42.3659 66.9884 41.3182 66.3846C41.2889 66.368 41.2672 66.3408 41.2574 66.3086C41.2477 66.2764 41.2507 66.2417 41.2658 66.2116C41.2747 66.1921 41.2882 66.1751 41.3051 66.1619C41.5252 65.9968 41.7453 65.8239 41.9549 65.651C41.9734 65.6361 41.9956 65.6265 42.0191 65.6233C42.0427 65.62 42.0666 65.6233 42.0885 65.6326C48.9502 68.7661 56.3778 68.7661 63.1557 65.6326C63.1783 65.6228 63.2032 65.6193 63.2276 65.6226C63.2521 65.6258 63.2752 65.6356 63.2945 65.651C63.5041 65.8239 63.7242 65.9968 63.9443 66.1619C63.9621 66.1749 63.9764 66.1921 63.986 66.2121C63.9955 66.232 64 66.254 63.9989 66.276C63.9979 66.2981 63.9914 66.3195 63.98 66.3385C63.9687 66.3574 63.9528 66.3733 63.9338 66.3846C62.8885 66.9939 61.7939 67.5145 60.6615 67.9408C60.6434 67.9473 60.627 67.9578 60.6134 67.9714C60.5998 67.9849 60.5894 68.0013 60.5829 68.0194C60.5768 68.0369 60.5744 68.0555 60.5757 68.0739C60.5771 68.0924 60.5822 68.1104 60.5907 68.1268C61.2195 69.3451 61.94 70.5084 62.7312 71.6088C62.7472 71.6316 62.7701 71.6487 62.7964 71.6577C62.8228 71.6666 62.8514 71.6669 62.878 71.6586C66.6476 70.5032 70.1926 68.7134 73.3605 66.3662C73.3763 66.3552 73.3895 66.3408 73.399 66.324C73.4086 66.3072 73.4142 66.2885 73.4155 66.2693C74.2906 57.2278 71.9509 49.3731 67.2166 42.4118C67.2119 42.4003 67.2047 42.3899 67.1957 42.3814C67.1867 42.3728 67.176 42.3662 67.1642 42.362ZM45.6857 61.5062C43.6185 61.5062 41.9182 59.6093 41.9182 57.2828C41.9182 54.9536 43.5871 53.0568 45.6857 53.0568C47.8 53.0568 49.4847 54.9693 49.4532 57.2828C49.4532 59.6093 47.7843 61.5062 45.6857 61.5062ZM59.6135 61.5062C57.5489 61.5062 55.846 59.6093 55.846 57.2828C55.846 54.9536 57.5149 53.0568 59.6135 53.0568C61.7278 53.0568 63.4151 54.9693 63.381 57.2828C63.381 59.6093 61.7278 61.5062 59.6135 61.5062Z" fill="url(#paint1_linear_1040_4071)"/>
</g>
</g>
<defs>
<filter id="filter0_d_1040_4071" x="29.2809" y="34.7458" width="46.7102" height="46.7102" filterUnits="userSpaceOnUse" color-interpolation-filters="sRGB">
<feFlood flood-opacity="0" result="BackgroundImageFix"/>
<feColorMatrix in="SourceAlpha" type="matrix" values="0 0 0 0 0 0 0 0 0 0 0 0 0 0 0 0 0 0 127 0" result="hardAlpha"/>
<feOffset dy="2.3954"/>
<feGaussianBlur stdDeviation="1.1977"/>
<feComposite in2="hardAlpha" operator="out"/>
<feColorMatrix type="matrix" values="0 0 0 0 0 0 0 0 0 0 0 0 0 0 0 0 0 0 0.25 0"/>
<feBlend mode="normal" in2="BackgroundImageFix" result="effect1_dropShadow_1040_4071"/>
<feBlend mode="normal" in="SourceGraphic" in2="effect1_dropShadow_1040_4071" result="shape"/>
</filter>
<linearGradient id="paint0_linear_1040_4071" x1="4.70923" y1="15.5148" x2="67.0305" y2="16.0593" gradientUnits="userSpaceOnUse">
<stop offset="0.267495" stop-color="#FFC6CE"/>
<stop offset="1" stop-color="#64D6EE"/>
</linearGradient>
<linearGradient id="paint1_linear_1040_4071" x1="31.6763" y1="47.0691" x2="72.8195" y2="47.8788" gradientUnits="userSpaceOnUse">
<stop offset="0.267495" stop-color="#FFC6CE"/>
<stop offset="1" stop-color="#64D6EE"/>
</linearGradient>
<clipPath id="clip0_1040_4071">
<rect width="89.8276" height="89.8276" fill="white" transform="translate(0.517334)"/>
</clipPath>
<clipPath id="clip1_1040_4071">
<rect width="41.9195" height="41.9195" fill="white" transform="translate(31.6763 34.7458)"/>
</clipPath>
</defs>
</svg>
