<svg width="272" height="222" viewBox="0 0 272 222" fill="none" xmlns="http://www.w3.org/2000/svg">
<g filter="url(#filter0_d_258:2085)">
<path d="M100.568 115.632C100.536 115.648 100.496 115.616 100.448 115.536C100.4 115.456 100.4 115.4 100.448 115.368C101.168 114.936 101.736 114.288 102.152 113.424C102.568 112.56 102.904 111.432 103.16 110.04L105.296 97.944C105.344 97.624 105.368 97.368 105.368 97.176C105.368 96.824 105.272 96.592 105.08 96.48C104.904 96.352 104.576 96.288 104.096 96.288C104.048 96.288 104.024 96.24 104.024 96.144C104.024 96.048 104.048 96 104.096 96L105.176 96.024C105.816 96.056 106.336 96.072 106.736 96.072C107.2 96.072 107.752 96.056 108.392 96.024L109.448 96C109.496 96 109.52 96.048 109.52 96.144C109.52 96.24 109.496 96.288 109.448 96.288C109.016 96.288 108.688 96.336 108.464 96.432C108.24 96.528 108.072 96.688 107.96 96.912C107.864 97.136 107.768 97.496 107.672 97.992L105.656 109.392C105.432 110.64 105.112 111.648 104.696 112.416C104.296 113.2 103.768 113.832 103.112 114.312C102.472 114.792 101.624 115.232 100.568 115.632ZM118.182 109.152C118.198 109.136 118.222 109.128 118.254 109.128C118.302 109.128 118.342 109.16 118.374 109.224C118.406 109.272 118.406 109.312 118.374 109.344C117.35 110.592 116.454 111.216 115.686 111.216C115.27 111.216 114.966 111.104 114.774 110.88C114.582 110.64 114.486 110.272 114.486 109.776C114.486 109.504 114.51 109.2 114.558 108.864L114.846 107.232C114.238 108.512 113.51 109.512 112.662 110.232C111.83 110.952 111.014 111.312 110.214 111.312C109.718 111.312 109.326 111.16 109.038 110.856C108.75 110.552 108.606 110.096 108.606 109.488C108.606 108.416 108.958 107.248 109.662 105.984C110.382 104.704 111.262 103.624 112.302 102.744C113.358 101.864 114.35 101.424 115.278 101.424C115.566 101.424 115.862 101.48 116.166 101.592C116.486 101.688 116.758 101.84 116.982 102.048C117.286 101.824 117.534 101.552 117.726 101.232C117.758 101.2 117.79 101.184 117.822 101.184C117.87 101.184 117.918 101.2 117.966 101.232C118.014 101.264 118.03 101.288 118.014 101.304L116.622 108.864C116.574 109.072 116.55 109.256 116.55 109.416C116.55 109.8 116.662 109.992 116.886 109.992C117.19 109.992 117.622 109.712 118.182 109.152ZM111.75 109.56C112.23 109.56 112.718 109.312 113.214 108.816C113.726 108.304 114.166 107.688 114.534 106.968C114.918 106.232 115.166 105.552 115.278 104.928C115.326 104.656 115.35 104.416 115.35 104.208C115.35 103.696 115.23 103.304 114.99 103.032C114.766 102.744 114.446 102.6 114.03 102.6C113.294 102.6 112.638 103 112.062 103.8C111.502 104.584 111.11 105.608 110.886 106.872C110.806 107.384 110.766 107.768 110.766 108.024C110.766 108.552 110.854 108.944 111.03 109.2C111.206 109.44 111.446 109.56 111.75 109.56ZM129.59 109.152C129.622 109.12 129.646 109.104 129.662 109.104C129.71 109.104 129.75 109.136 129.782 109.2C129.814 109.248 129.814 109.296 129.782 109.344C129.238 109.984 128.75 110.456 128.318 110.76C127.902 111.064 127.47 111.216 127.022 111.216C126.254 111.216 125.87 110.768 125.87 109.872C125.87 109.632 125.91 109.296 125.99 108.864L126.686 105.048C126.766 104.6 126.806 104.24 126.806 103.968C126.806 103.184 126.55 102.792 126.038 102.792C125.59 102.792 125.126 103.088 124.646 103.68C124.166 104.256 123.71 105.104 123.278 106.224C122.862 107.344 122.51 108.688 122.222 110.256L122.15 110.712C122.07 111.032 121.622 111.192 120.806 111.192C120.278 111.192 120.014 111.128 120.014 111L120.11 110.496C120.27 109.744 120.358 109.32 120.374 109.224L121.358 103.872C121.39 103.728 121.406 103.552 121.406 103.344C121.406 102.912 121.27 102.696 120.998 102.696C120.662 102.696 120.198 103.016 119.606 103.656C119.59 103.672 119.566 103.68 119.534 103.68C119.486 103.68 119.446 103.656 119.414 103.608C119.382 103.544 119.382 103.488 119.414 103.44C119.99 102.768 120.502 102.28 120.95 101.976C121.414 101.672 121.878 101.52 122.342 101.52C123.094 101.52 123.47 101.944 123.47 102.792C123.47 103.032 123.446 103.296 123.398 103.584L123.014 105.768C123.574 104.376 124.214 103.304 124.934 102.552C125.67 101.8 126.446 101.424 127.262 101.424C128.366 101.424 128.918 102.088 128.918 103.416C128.918 103.72 128.878 104.112 128.798 104.592L128.006 108.864C127.958 109.104 127.934 109.296 127.934 109.44C127.934 109.808 128.062 109.992 128.318 109.992C128.478 109.992 128.654 109.92 128.846 109.776C129.054 109.632 129.302 109.424 129.59 109.152ZM140.981 109.08C140.997 109.064 141.021 109.056 141.053 109.056C141.101 109.056 141.141 109.088 141.173 109.152C141.205 109.2 141.205 109.248 141.173 109.296C140.597 109.968 140.077 110.456 139.613 110.76C139.165 111.064 138.709 111.216 138.245 111.216C137.493 111.216 137.117 110.792 137.117 109.944C137.117 109.704 137.141 109.44 137.189 109.152L137.573 106.968C137.013 108.36 136.365 109.432 135.629 110.184C134.909 110.936 134.141 111.312 133.325 111.312C132.221 111.312 131.669 110.656 131.669 109.344C131.669 108.928 131.709 108.528 131.789 108.144L132.629 103.872C132.677 103.632 132.701 103.44 132.701 103.296C132.701 102.928 132.573 102.744 132.317 102.744C132.157 102.744 131.981 102.816 131.789 102.96C131.613 103.088 131.373 103.296 131.069 103.584C131.037 103.616 131.005 103.632 130.973 103.632C130.925 103.632 130.885 103.608 130.853 103.56C130.821 103.496 130.829 103.44 130.877 103.392C131.421 102.752 131.893 102.28 132.293 101.976C132.709 101.672 133.141 101.52 133.589 101.52C134.373 101.52 134.765 101.976 134.765 102.888C134.765 103.112 134.725 103.44 134.645 103.872L133.901 107.688C133.821 108.04 133.781 108.4 133.781 108.768C133.781 109.552 134.037 109.944 134.549 109.944C134.997 109.944 135.461 109.656 135.941 109.08C136.421 108.488 136.869 107.632 137.285 106.512C137.717 105.392 138.077 104.048 138.365 102.48L138.437 102.024C138.517 101.704 138.965 101.544 139.781 101.544C140.053 101.544 140.253 101.568 140.381 101.616C140.509 101.648 140.573 101.688 140.573 101.736L140.477 102.24C140.317 102.992 140.229 103.416 140.213 103.512L139.229 108.864C139.197 109.008 139.181 109.184 139.181 109.392C139.181 109.824 139.317 110.04 139.589 110.04C139.925 110.04 140.389 109.72 140.981 109.08ZM151.651 109.152C151.667 109.136 151.691 109.128 151.723 109.128C151.771 109.128 151.811 109.16 151.843 109.224C151.875 109.272 151.875 109.312 151.843 109.344C150.819 110.592 149.923 111.216 149.155 111.216C148.739 111.216 148.435 111.104 148.243 110.88C148.051 110.64 147.955 110.272 147.955 109.776C147.955 109.504 147.979 109.2 148.027 108.864L148.315 107.232C147.707 108.512 146.979 109.512 146.131 110.232C145.299 110.952 144.483 111.312 143.683 111.312C143.187 111.312 142.795 111.16 142.507 110.856C142.219 110.552 142.075 110.096 142.075 109.488C142.075 108.416 142.427 107.248 143.131 105.984C143.851 104.704 144.731 103.624 145.771 102.744C146.827 101.864 147.819 101.424 148.747 101.424C149.035 101.424 149.331 101.48 149.635 101.592C149.955 101.688 150.227 101.84 150.451 102.048C150.755 101.824 151.003 101.552 151.195 101.232C151.227 101.2 151.259 101.184 151.291 101.184C151.339 101.184 151.387 101.2 151.435 101.232C151.483 101.264 151.499 101.288 151.483 101.304L150.091 108.864C150.043 109.072 150.019 109.256 150.019 109.416C150.019 109.8 150.131 109.992 150.355 109.992C150.659 109.992 151.091 109.712 151.651 109.152ZM145.219 109.56C145.699 109.56 146.187 109.312 146.683 108.816C147.195 108.304 147.635 107.688 148.003 106.968C148.387 106.232 148.635 105.552 148.747 104.928C148.795 104.656 148.819 104.416 148.819 104.208C148.819 103.696 148.699 103.304 148.459 103.032C148.235 102.744 147.915 102.6 147.499 102.6C146.763 102.6 146.107 103 145.531 103.8C144.971 104.584 144.579 105.608 144.355 106.872C144.275 107.384 144.235 107.768 144.235 108.024C144.235 108.552 144.323 108.944 144.499 109.2C144.675 109.44 144.915 109.56 145.219 109.56ZM159.483 101.52C159.899 101.52 160.291 101.672 160.659 101.976C161.043 102.28 161.203 102.624 161.139 103.008C161.107 103.248 160.995 103.472 160.803 103.68C160.611 103.888 160.371 103.992 160.083 103.992C159.795 103.992 159.483 103.856 159.147 103.584C159.035 103.504 158.923 103.432 158.811 103.368C158.699 103.304 158.587 103.272 158.475 103.272C158.203 103.272 157.867 103.696 157.467 104.544C157.067 105.392 156.683 106.408 156.315 107.592C155.963 108.76 155.707 109.792 155.547 110.688V110.712C155.515 110.856 155.387 110.968 155.163 111.048C154.939 111.144 154.619 111.192 154.203 111.192C153.675 111.192 153.411 111.128 153.411 111C153.427 110.888 153.475 110.648 153.555 110.28C153.651 109.912 153.731 109.56 153.795 109.224L154.779 103.872C154.811 103.616 154.827 103.448 154.827 103.368C154.827 102.92 154.683 102.696 154.395 102.696C154.075 102.696 153.619 103.016 153.027 103.656C153.011 103.672 152.987 103.68 152.955 103.68C152.891 103.68 152.843 103.656 152.811 103.608C152.779 103.544 152.787 103.488 152.835 103.44C153.411 102.768 153.923 102.28 154.371 101.976C154.835 101.672 155.299 101.52 155.763 101.52C156.163 101.52 156.451 101.632 156.627 101.856C156.803 102.064 156.891 102.376 156.891 102.792C156.891 103.032 156.867 103.296 156.819 103.584L156.339 106.224C157.283 103.088 158.331 101.52 159.483 101.52ZM169.742 101.496C170.142 101.496 170.454 101.64 170.678 101.928C170.902 102.216 171.014 102.632 171.014 103.176C171.014 104.36 170.366 106.144 169.07 108.528C167.774 110.912 166.294 113.04 164.63 114.912C162.966 116.8 161.606 117.744 160.55 117.744C159.606 117.744 159.134 117.368 159.134 116.616C159.134 116.168 159.262 115.816 159.518 115.56C159.758 115.32 160.102 115.2 160.55 115.2C160.79 115.2 161.118 115.296 161.534 115.488C161.582 115.504 161.702 115.552 161.894 115.632C162.086 115.712 162.278 115.752 162.47 115.752C162.742 115.752 163.014 115.656 163.286 115.464C163.702 115.192 164.222 114.648 164.846 113.832V112.704C164.846 109.584 164.622 107.168 164.174 105.456C163.742 103.728 163.158 102.864 162.422 102.864C162.23 102.864 162.03 102.936 161.822 103.08C161.63 103.224 161.47 103.4 161.342 103.608C161.326 103.656 161.278 103.68 161.198 103.68C161.086 103.68 161.038 103.632 161.054 103.536C161.326 102.96 161.742 102.48 162.302 102.096C162.862 101.712 163.374 101.52 163.838 101.52C164.446 101.52 164.974 101.88 165.422 102.6C165.886 103.304 166.23 104.28 166.454 105.528C166.694 106.76 166.814 108.144 166.814 109.68C166.814 110.288 166.806 110.752 166.79 111.072C167.414 110.08 167.95 109.16 168.398 108.312C168.862 107.448 169.142 106.816 169.238 106.416C169.334 106.032 169.382 105.704 169.382 105.432C169.382 105.096 169.334 104.824 169.238 104.616C169.142 104.408 169.006 104.168 168.83 103.896C168.67 103.656 168.55 103.464 168.47 103.32C168.39 103.16 168.35 102.96 168.35 102.72C168.35 102.352 168.478 102.056 168.734 101.832C168.99 101.608 169.326 101.496 169.742 101.496Z" fill="#22262A"/>
</g>
<defs>
<filter id="filter0_d_258:2085" x="0.375732" y="0" width="270.638" height="221.744" filterUnits="userSpaceOnUse" color-interpolation-filters="sRGB">
<feFlood flood-opacity="0" result="BackgroundImageFix"/>
<feColorMatrix in="SourceAlpha" type="matrix" values="0 0 0 0 0 0 0 0 0 0 0 0 0 0 0 0 0 0 127 0" result="hardAlpha"/>
<feOffset dy="4"/>
<feGaussianBlur stdDeviation="50"/>
<feComposite in2="hardAlpha" operator="out"/>
<feColorMatrix type="matrix" values="0 0 0 0 0 0 0 0 0 0 0 0 0 0 0 0 0 0 0.25 0"/>
<feBlend mode="normal" in2="BackgroundImageFix" result="effect1_dropShadow_258:2085"/>
<feBlend mode="normal" in="SourceGraphic" in2="effect1_dropShadow_258:2085" result="shape"/>
</filter>
</defs>
</svg>
