<svg width="160" height="160" viewBox="0 0 160 160" fill="none" xmlns="http://www.w3.org/2000/svg">
<path d="M28.4196 50.1682C28.4085 50.1865 28.3756 50.179 28.3209 50.1458C28.2662 50.1126 28.2444 50.0869 28.2554 50.0687C28.4103 49.8133 28.5009 49.6125 28.5272 49.4663C28.5591 49.311 28.5277 49.1672 28.4332 49.035C28.3443 48.8938 28.175 48.71 27.9255 48.4838L22.2719 43.5203C22.0569 43.34 21.9174 43.2305 21.8536 43.1918C21.6621 43.0756 21.5012 43.0529 21.371 43.1236C21.2316 43.1888 21.079 43.3582 20.913 43.6318C20.902 43.65 20.8691 43.6426 20.8144 43.6094C20.7596 43.5762 20.7378 43.5505 20.7489 43.5322L21.1359 42.9249C21.3755 42.5712 21.5616 42.2848 21.6943 42.066C21.8271 41.8471 22.0005 41.5406 22.2146 41.1465L22.5909 40.4952C22.602 40.4769 22.6349 40.4844 22.6896 40.5176C22.7443 40.5508 22.7661 40.5765 22.7551 40.5948C22.6002 40.8501 22.5114 41.0582 22.4887 41.2191C22.4624 41.3653 22.4982 41.5119 22.5963 41.6587C22.6853 41.8 22.8527 41.9764 23.0987 42.1879L28.6922 47.0963C28.8489 47.2287 28.9865 47.3309 29.1051 47.4028C29.2784 47.5079 29.4191 47.5434 29.5272 47.5091C29.6317 47.4602 29.7448 47.3355 29.8665 47.1348L30.0822 46.7791C30.4915 46.1042 30.6869 45.4118 30.6684 44.702C30.6407 43.9866 30.4002 43.2107 29.9468 42.3743C29.9433 42.3597 29.9498 42.3387 29.9664 42.3113C30.0106 42.2384 30.0482 42.2175 30.0792 42.2487C30.7891 42.9912 31.3899 43.574 31.8818 43.9971C31.9437 44.0596 31.9819 44.1201 31.9962 44.1787C32.007 44.2227 31.993 44.2766 31.9543 44.3404L28.4196 50.1682Z" fill="black"/>
<path d="M36.5675 36.8088C36.5661 36.7938 36.5722 36.778 36.5859 36.7617C36.6064 36.7371 36.6398 36.7302 36.6863 36.7411C36.7245 36.7452 36.745 36.7623 36.7477 36.7924C36.9501 37.8494 36.8874 38.5746 36.5597 38.968C36.3822 39.1811 36.1951 39.289 35.9985 39.2918C35.7936 39.2877 35.5642 39.1799 35.3101 38.9683C35.1708 38.8522 35.0253 38.7102 34.8736 38.5422L34.1606 37.6984C34.5568 38.556 34.7584 39.3556 34.7654 40.0972C34.7792 40.8305 34.6154 41.4021 34.2741 41.8119C34.0625 42.066 33.8174 42.2019 33.5387 42.2198C33.2601 42.2376 32.9651 42.1168 32.6537 41.8573C32.1046 41.3999 31.6565 40.7213 31.3094 39.8213C30.9609 38.9064 30.7832 37.9948 30.7761 37.0866C30.776 36.1702 30.9738 35.4743 31.3698 34.9989C31.4927 34.8514 31.6477 34.7237 31.8347 34.6158C32.0205 34.4928 32.2144 34.4183 32.4165 34.3923C32.4315 34.141 32.3979 33.8979 32.316 33.6631C32.3132 33.633 32.3187 33.6098 32.3323 33.5934C32.3528 33.5688 32.3815 33.5511 32.4184 33.5401C32.4552 33.5292 32.4744 33.5312 32.4757 33.5463L35.7543 37.485C35.8404 37.5983 35.9244 37.6891 36.0063 37.7574C36.203 37.9212 36.3492 37.9458 36.4448 37.8311C36.5745 37.6753 36.6154 37.3346 36.5675 36.8088ZM34.032 40.2776C34.2368 40.0317 34.318 39.6759 34.2756 39.2102C34.2318 38.7295 34.104 38.2413 33.8922 37.7456C33.679 37.2348 33.4365 36.8176 33.1647 36.494C33.0458 36.3534 32.9331 36.2387 32.8266 36.1499C32.5643 35.9315 32.3123 35.8257 32.0706 35.8326C31.8275 35.8244 31.6172 35.9269 31.4397 36.14C31.1257 36.517 31.0506 37.0237 31.2147 37.6601C31.3773 38.2815 31.7346 38.9192 32.2865 39.5732C32.5146 39.8327 32.6943 40.017 32.8254 40.1262C33.0959 40.3515 33.3342 40.4737 33.5404 40.4928C33.7385 40.505 33.9023 40.4333 34.032 40.2776Z" fill="black"/>
<path d="M38.3603 28.4503C38.415 28.3995 38.475 28.4092 38.5404 28.4795C38.5985 28.542 38.6388 28.6794 38.6612 28.8915C38.6915 29.0964 38.6676 29.2351 38.5895 29.3078C38.5661 29.3296 38.419 29.4299 38.1483 29.6087C37.8855 29.7803 37.6023 29.9926 37.2987 30.2457L39.3995 33.4921C39.5001 33.6316 39.5722 33.7248 39.6158 33.7717C39.7901 33.9592 39.9641 34.0523 40.1377 34.0511C40.3191 34.0426 40.5114 33.9439 40.7145 33.7551C41.0114 33.4791 41.2051 33.0295 41.2957 32.4064L41.3074 32.3955C41.3387 32.3664 41.3769 32.3527 41.4221 32.3544C41.4674 32.356 41.4891 32.3794 41.4875 32.4247C41.4477 33.1025 41.3599 33.6503 41.2239 34.068C41.0885 34.4706 40.8841 34.799 40.6107 35.0532C39.9779 35.6416 39.3964 35.6506 38.8662 35.0803C38.7573 34.9632 38.6492 34.8234 38.5419 34.661L36.6892 31.7519C36.5891 31.5973 36.4991 31.4771 36.4192 31.3911C36.3103 31.274 36.2064 31.2249 36.1076 31.2439C36.0088 31.263 35.8774 31.3488 35.7133 31.5013C35.6899 31.5231 35.6528 31.5067 35.6019 31.452C35.5365 31.3817 35.5156 31.3356 35.539 31.3138C36.164 30.7328 36.3404 29.9278 36.0684 28.899C36.0622 28.8611 36.0787 28.8239 36.1178 28.7876C36.1568 28.7513 36.1992 28.7264 36.245 28.713C36.2908 28.6996 36.317 28.7043 36.3237 28.7272L37.0413 29.8515C37.2528 29.6403 37.433 29.4581 37.582 29.3051C37.7237 29.1442 37.8456 29.009 37.9477 28.8995C38.129 28.6872 38.2666 28.5375 38.3603 28.4503Z" fill="black"/>
<path d="M43.5352 24.3814C43.8622 24.142 44.1571 24.012 44.4197 23.9915C44.6824 23.9711 44.8862 24.0598 45.0311 24.2577C45.3147 24.645 45.2942 25.2219 44.9697 25.9883C44.6475 26.7399 44.1386 27.4893 43.4431 28.2366C43.5559 28.4449 43.6785 28.6394 43.8108 28.8201C44.189 29.3364 44.6022 29.675 45.0505 29.8359C45.4925 29.9882 45.9244 29.9099 46.3461 29.6011C46.5268 29.4688 46.6984 29.2969 46.8608 29.0854C47.0255 28.859 47.1436 28.6139 47.2148 28.3502L47.2278 28.3407C47.2536 28.3218 47.2845 28.319 47.3207 28.3322C47.3654 28.3391 47.3854 28.3575 47.3808 28.3873C47.2916 28.9154 47.1253 29.3743 46.8819 29.7641C46.6384 30.1538 46.3446 30.4748 46.0004 30.7268C45.4066 31.1617 44.8267 31.3087 44.2608 31.1678C43.7035 31.0206 43.2232 30.6716 42.8199 30.1208C42.6813 29.9315 42.5484 29.7049 42.4213 29.441C42.167 28.9133 42.0318 28.3314 42.0156 27.6955C42.008 27.0532 42.1303 26.4348 42.3824 25.8403C42.6346 25.2459 43.0188 24.7596 43.5352 24.3814ZM43.9731 25.5481C43.9565 25.5074 43.923 25.4526 43.8725 25.3838C43.7654 25.2375 43.6448 25.1539 43.5106 25.1332C43.3787 25.0976 43.2482 25.127 43.1192 25.2215C42.8438 25.4232 42.7277 25.7792 42.7709 26.2896C42.8228 26.7937 43.005 27.3676 43.3177 28.0112C44.1183 27.0283 44.3368 26.2073 43.9731 25.5481Z" fill="black"/>
<path d="M55.2751 28.5608C55.2599 28.5792 55.2269 28.5705 55.176 28.5347C55.1252 28.4989 55.11 28.4647 55.1307 28.4323C55.453 27.9746 55.6244 27.4263 55.6448 26.7873C55.6652 26.1484 55.5656 25.3701 55.346 24.4524L53.3837 16.5022C53.3266 16.2942 53.2721 16.1317 53.2203 16.0146C53.1253 15.8001 53.0042 15.6845 52.8569 15.6681C52.7151 15.6376 52.4979 15.6871 52.2052 15.8166C52.176 15.8296 52.1484 15.8068 52.1225 15.7482C52.0966 15.6897 52.0983 15.654 52.1275 15.641L52.7924 15.3642C53.1911 15.211 53.5125 15.0804 53.7563 14.9725C54.0392 14.8472 54.3713 14.6885 54.7528 14.4963L55.3901 14.1967C55.4194 14.1837 55.4469 14.2065 55.4729 14.265C55.4988 14.3235 55.4971 14.3593 55.4678 14.3722C55.2045 14.4888 55.0175 14.6066 54.9068 14.7256C54.7962 14.8445 54.737 14.9874 54.7291 15.1542C54.7311 15.3166 54.7697 15.562 54.845 15.8903L56.6927 23.3838C56.8929 24.205 56.9699 24.9059 56.9236 25.4863C56.8913 26.0722 56.74 26.5999 56.4696 27.0696C56.209 27.5349 55.8108 28.032 55.2751 28.5608Z" fill="black"/>
<path d="M66.2052 20.0943C66.2124 20.081 66.2262 20.0714 66.2467 20.0653C66.2774 20.0562 66.309 20.0691 66.3416 20.1039C66.3711 20.1285 66.3787 20.1541 66.3643 20.1806C65.9462 21.1723 65.4916 21.7409 65.0007 21.8863C64.7348 21.9651 64.5193 21.9511 64.3541 21.8443C64.186 21.7273 64.0549 21.5102 63.961 21.1932C63.9094 21.0193 63.8672 20.8205 63.8342 20.5966L63.7092 19.4989C63.563 20.4322 63.2871 21.2093 62.8814 21.8301C62.486 22.4479 62.0326 22.8326 61.5212 22.9841C61.2042 23.0781 60.9249 23.0552 60.6832 22.9154C60.4415 22.7757 60.2631 22.5115 60.1479 22.1228C59.9449 21.4376 59.9487 20.6244 60.1592 19.6831C60.377 18.7285 60.7349 17.8715 61.233 17.112C61.7413 16.3495 62.2921 15.8804 62.8852 15.7046C63.0693 15.6501 63.2691 15.6298 63.4847 15.6438C63.7074 15.6446 63.91 15.6902 64.0926 15.7807C64.2445 15.58 64.3515 15.3591 64.4136 15.1182C64.428 15.0917 64.4454 15.0754 64.4659 15.0694C64.4966 15.0603 64.5303 15.0614 64.567 15.0728C64.6038 15.0841 64.6185 15.0964 64.6113 15.1097L65.1535 20.2057C65.1622 20.3477 65.1818 20.4699 65.2121 20.5721C65.2848 20.8176 65.3927 20.9191 65.5359 20.8767C65.7302 20.8191 65.9533 20.5583 66.2052 20.0943ZM62.1712 21.5733C62.478 21.4824 62.743 21.2315 62.9661 20.8205C63.1964 20.3962 63.3609 19.9192 63.4598 19.3892C63.5658 18.8461 63.5955 18.3644 63.5489 17.9444C63.5281 17.7614 63.498 17.6035 63.4586 17.4705C63.3616 17.1432 63.2107 16.9154 63.0057 16.787C62.808 16.6453 62.5762 16.6139 62.3103 16.6927C61.8398 16.8321 61.4963 17.212 61.2796 17.8325C61.0702 18.4397 61.0136 19.1685 61.1098 20.0188C61.1557 20.3613 61.2028 20.6143 61.2513 20.7779C61.3513 21.1154 61.4818 21.3493 61.6428 21.4796C61.8008 21.5997 61.9769 21.6309 62.1712 21.5733Z" fill="black"/>
<path d="M75.4042 18.7608C75.4224 18.7367 75.4367 18.7239 75.4473 18.7225C75.479 18.718 75.5084 18.7355 75.5354 18.7748C75.5609 18.8035 75.5653 18.8352 75.5486 18.8699C75.2484 19.3425 74.9696 19.6991 74.7123 19.9396C74.4656 20.1786 74.1944 20.3187 73.8986 20.36C73.3915 20.4307 73.0967 20.1702 73.0142 19.5786C72.9921 19.4201 72.9876 19.1946 73.0007 18.902L73.109 16.3183C73.1206 16.0151 73.1138 15.7737 73.0888 15.5941C73.0166 15.0765 72.8115 14.8412 72.4734 14.8883C72.1776 14.9296 71.8985 15.1677 71.6361 15.6028C71.3722 16.0273 71.1491 16.6292 70.967 17.4085C70.7954 18.1863 70.6867 19.1061 70.6409 20.1679L70.6353 20.4757C70.6119 20.6943 70.3308 20.8412 69.7921 20.9163C69.4434 20.9649 69.2632 20.9469 69.2514 20.8624L69.2684 20.5208C69.3049 20.0095 69.3239 19.7215 69.3257 19.6566L69.4827 16.0322C69.4906 15.9342 69.485 15.8165 69.4658 15.6792C69.4261 15.3939 69.3164 15.2638 69.1368 15.2889C68.9149 15.3198 68.638 15.5738 68.306 16.0509C68.297 16.0629 68.2818 16.0704 68.2607 16.0734C68.229 16.0778 68.2004 16.0656 68.1748 16.0369C68.1478 15.9975 68.1427 15.9606 68.1594 15.9259C68.4779 15.4292 68.771 15.0599 69.0388 14.8179C69.3172 14.5745 69.6096 14.4314 69.916 14.3887C70.4125 14.3195 70.6998 14.5648 70.7778 15.1247C70.7999 15.2832 70.8084 15.4597 70.8032 15.6543L70.7507 17.1317C70.9923 16.161 71.3162 15.3943 71.7224 14.8315C72.1391 14.2672 72.6169 13.9475 73.1557 13.8724C73.8847 13.7708 74.3103 14.1584 74.4325 15.0353C74.4605 15.236 74.4701 15.4985 74.4615 15.8228L74.3318 18.7164C74.3222 18.8793 74.324 19.0083 74.3373 19.1034C74.3711 19.3464 74.4726 19.4561 74.6416 19.4325C74.7473 19.4178 74.8569 19.354 74.9704 19.2413C75.0945 19.1271 75.2391 18.9669 75.4042 18.7608Z" fill="black"/>
<path d="M85.0365 18.8929C85.0474 18.8825 85.0635 18.8775 85.0848 18.878C85.1168 18.8788 85.143 18.9007 85.1633 18.9439C85.1839 18.9764 85.1831 19.0084 85.1611 19.0399C84.7667 19.4787 84.4124 19.7958 84.0984 19.9912C83.7951 20.1868 83.4888 20.2809 83.1796 20.2737C82.6784 20.2619 82.4344 19.9734 82.4477 19.4083C82.4514 19.2483 82.4716 19.0727 82.508 18.8815L82.7982 17.432C82.4031 18.3509 81.9545 19.0553 81.4522 19.5449C80.9605 20.0349 80.4428 20.2734 79.899 20.2607C79.1632 20.2434 78.8055 19.7976 78.8261 18.9231C78.8326 18.6459 78.8655 18.3799 78.9248 18.1252L79.5515 15.2912C79.5873 15.1319 79.6063 15.0044 79.6085 14.9084C79.6143 14.6631 79.5318 14.5385 79.3612 14.5345C79.2546 14.532 79.1362 14.5772 79.0059 14.6702C78.8866 14.7527 78.7234 14.8876 78.5163 15.0748C78.4945 15.0956 78.4729 15.1058 78.4516 15.1053C78.4196 15.1045 78.3933 15.0879 78.3727 15.0554C78.3524 15.0123 78.3586 14.9751 78.3913 14.9438C78.7639 14.5258 79.0859 14.2186 79.3572 14.0222C79.6393 13.8261 79.9296 13.7316 80.2281 13.7386C80.7507 13.7509 81.0048 14.0609 80.9905 14.6688C80.987 14.8181 80.9552 15.036 80.8951 15.3227L80.3396 17.8544C80.2807 18.0877 80.2484 18.327 80.2427 18.5723C80.2304 19.0948 80.3949 19.3601 80.7361 19.3681C81.0347 19.3751 81.3485 19.1904 81.6774 18.814C82.0066 18.427 82.3186 17.8635 82.6133 17.1235C82.9188 16.3838 83.1798 15.4937 83.3962 14.4532L83.4514 14.1504C83.5097 13.9384 83.8108 13.8387 84.3546 13.8515C84.5359 13.8558 84.6688 13.8749 84.7534 13.9089C84.8382 13.9322 84.8802 13.9599 84.8795 13.9919L84.8076 14.3263C84.6892 14.825 84.6239 15.1062 84.6118 15.1699L83.8722 18.7215C83.8486 18.817 83.8352 18.934 83.8319 19.0727C83.8252 19.3606 83.9124 19.5067 84.0937 19.5109C84.3177 19.5162 84.6319 19.3102 85.0365 18.8929Z" fill="black"/>
<path d="M93.1345 20.3733C93.1469 20.3646 93.1636 20.3621 93.1846 20.3658C93.2161 20.3713 93.2387 20.3969 93.2524 20.4426C93.2679 20.4778 93.2633 20.504 93.2386 20.5214C92.4231 21.2236 91.7631 21.5308 91.2588 21.4427C90.9856 21.395 90.7987 21.2867 90.6983 21.1175C90.5997 20.9379 90.5789 20.6852 90.6357 20.3595C90.6669 20.1809 90.7175 19.984 90.7875 19.7688L91.1637 18.73C90.6177 19.5009 90.025 20.0742 89.3856 20.4499C88.7566 20.8274 88.1795 20.9703 87.6541 20.8786C87.3283 20.8218 87.0883 20.677 86.934 20.4444C86.7797 20.2117 86.7374 19.8957 86.8071 19.4964C86.9299 18.7924 87.295 18.0657 87.9022 17.3162C88.5218 16.5581 89.2235 15.9497 90.0073 15.491C90.8017 15.0341 91.5036 14.8588 92.1131 14.9652C92.3022 14.9982 92.4902 15.0689 92.677 15.1773C92.8762 15.277 93.0374 15.408 93.1607 15.5703C93.386 15.458 93.58 15.3078 93.7428 15.1196C93.7675 15.1023 93.7903 15.0954 93.8113 15.0991C93.8429 15.1046 93.8726 15.1206 93.9004 15.1471C93.9283 15.1737 93.936 15.1913 93.9237 15.1999L92.143 20.0054C92.0877 20.1365 92.0508 20.2545 92.0325 20.3596C91.9885 20.6118 92.04 20.7507 92.1871 20.7764C92.3868 20.8113 92.7026 20.6769 93.1345 20.3733ZM88.8636 19.9041C89.1789 19.9591 89.5278 19.8521 89.9104 19.5832C90.3053 19.3057 90.6649 18.9515 90.9891 18.5209C91.3256 18.0815 91.5664 17.6633 91.7115 17.2664C91.7742 17.0932 91.8175 16.9384 91.8413 16.8018C91.9 16.4655 91.8661 16.1943 91.7397 15.9882C91.6256 15.7734 91.4319 15.6421 91.1587 15.5945C90.6753 15.5101 90.1987 15.6976 89.7287 16.157C89.2711 16.6077 88.8963 17.2353 88.6043 18.0397C88.4931 18.3668 88.4228 18.6144 88.3934 18.7825C88.3329 19.1293 88.3458 19.3968 88.432 19.5851C88.5201 19.7629 88.664 19.8692 88.8636 19.9041Z" fill="black"/>
<path d="M101.268 17.6297C101.533 17.7139 101.751 17.8898 101.923 18.1575C102.105 18.4283 102.137 18.6792 102.019 18.9101C101.95 19.0561 101.833 19.1757 101.669 19.2689C101.505 19.3622 101.332 19.3796 101.149 19.3213C100.966 19.263 100.795 19.1134 100.637 18.8726C100.582 18.7991 100.526 18.7307 100.467 18.6674C100.409 18.604 100.345 18.561 100.273 18.5384C100.101 18.4833 99.8013 18.6845 99.3755 19.1422C98.9498 19.5998 98.5001 20.1673 98.0266 20.8449C97.5665 21.5155 97.1949 22.1191 96.9118 22.6558L96.907 22.6711C96.8575 22.756 96.7535 22.8013 96.595 22.8067C96.4333 22.8223 96.2203 22.788 95.9561 22.7038C95.6207 22.5968 95.466 22.5027 95.4919 22.4214C95.5248 22.3535 95.6039 22.2108 95.7292 21.9933C95.8647 21.779 95.9868 21.5716 96.0955 21.3711L97.8043 18.171C97.8765 18.0149 97.9207 17.9114 97.9369 17.8606C98.0276 17.576 97.9815 17.4046 97.7985 17.3463C97.5953 17.2815 97.2409 17.3924 96.7352 17.679C96.7218 17.6859 96.705 17.6862 96.6846 17.6797C96.644 17.6667 96.6184 17.6417 96.6078 17.6048C96.6004 17.5577 96.6168 17.5237 96.657 17.5029C97.159 17.1927 97.583 16.9865 97.9291 16.8841C98.2854 16.785 98.6109 16.7824 98.9056 16.8764C99.1597 16.9574 99.3199 17.0868 99.3863 17.2647C99.456 17.4325 99.4487 17.6485 99.3645 17.9127C99.3159 18.0651 99.2472 18.228 99.1584 18.4012L98.3189 19.9808C99.5535 18.1801 100.537 17.3964 101.268 17.6297Z" fill="black"/>
<path d="M109.349 21.264C109.59 21.3791 109.736 21.5554 109.788 21.7931C109.84 22.0307 109.787 22.3131 109.631 22.6403C109.29 23.3524 108.387 24.239 106.922 25.3C105.457 26.361 103.955 27.2152 102.416 27.8624C100.872 28.5193 99.7825 28.6959 99.1473 28.3922C98.5796 28.1206 98.4039 27.7587 98.6202 27.3065C98.749 27.037 98.9273 26.8621 99.1549 26.7818C99.3682 26.7065 99.6096 26.7333 99.8791 26.8621C100.023 26.9312 100.193 27.0832 100.388 27.3184C100.412 27.3418 100.471 27.4052 100.563 27.5085C100.656 27.6119 100.76 27.6911 100.875 27.7464C101.039 27.8246 101.23 27.8451 101.449 27.8079C101.777 27.7639 102.246 27.5863 102.856 27.275L103.181 26.5966C104.078 24.7202 104.638 23.2027 104.861 22.0442C105.098 20.8807 104.996 20.1931 104.553 19.9814C104.438 19.9261 104.297 19.9119 104.13 19.9387C103.973 19.9701 103.826 20.0299 103.69 20.1182C103.666 20.1425 103.63 20.1431 103.582 20.1201C103.515 20.0879 103.5 20.0452 103.537 19.992C103.866 19.7239 104.255 19.5548 104.702 19.4849C105.149 19.4151 105.512 19.4469 105.791 19.5803C106.157 19.7552 106.371 20.1236 106.433 20.6855C106.51 21.2423 106.436 21.9283 106.212 22.7433C106.002 23.5533 105.676 24.4202 105.234 25.3439C105.059 25.7096 104.921 25.9864 104.819 26.1742C105.48 25.7571 106.067 25.358 106.58 24.9768C107.108 24.5906 107.458 24.2911 107.631 24.0781C107.799 23.8748 107.922 23.6913 108 23.5277C108.097 23.3256 108.146 23.1482 108.149 22.9955C108.151 22.8428 108.138 22.6594 108.11 22.4452C108.083 22.2548 108.066 22.1048 108.059 21.9952C108.057 21.8759 108.091 21.7442 108.16 21.5998C108.266 21.3785 108.428 21.2373 108.646 21.1762C108.865 21.1151 109.099 21.1444 109.349 21.264Z" fill="black"/>
<path d="M113.66 31.2603C114.988 31.1908 115.971 31.1249 116.609 31.0626C117.256 31.007 117.777 30.9196 118.174 30.8003C118.586 30.6793 118.926 30.5016 119.197 30.2672C119.32 30.1474 119.405 30.0584 119.452 30.0002C119.639 29.7673 119.738 29.5326 119.751 29.296C119.763 29.0595 119.66 28.8544 119.444 28.6808C119.186 28.4739 118.849 28.4084 118.432 28.4843C118.031 28.5586 117.513 28.7444 116.877 29.0415C116.862 29.0432 116.847 29.0373 116.83 29.024C116.805 29.0039 116.783 28.9797 116.765 28.9514C116.753 28.9147 116.762 28.8872 116.79 28.869L119.089 27.5133L119.159 27.5284C119.192 27.5552 119.21 27.5835 119.214 27.6135C119.225 27.6502 119.213 27.6818 119.178 27.7084C119.037 27.7998 118.952 27.8621 118.926 27.8954C118.866 27.9703 118.873 28.0377 118.948 28.0978C119.023 28.1579 119.163 28.2223 119.367 28.2909C119.809 28.4399 120.162 28.6212 120.428 28.8349C120.794 29.1286 121.004 29.4472 121.057 29.7904C121.116 30.1253 121.029 30.4384 120.795 30.7295C120.555 31.029 120.263 31.2393 119.92 31.3603C119.591 31.4797 119.245 31.5441 118.882 31.5535C118.526 31.5546 118.061 31.5372 117.488 31.5013C117.175 31.4825 116.851 31.4686 116.516 31.4598C116.196 31.4493 115.901 31.4588 115.631 31.4883C115.593 31.4849 115.587 31.4932 115.611 31.5133C116.493 32.221 117.167 32.6936 117.633 32.9309C118.099 33.1682 118.515 33.1872 118.88 32.9878C118.887 32.9795 118.902 32.9854 118.927 33.0054C118.952 33.0254 118.967 33.0504 118.97 33.0804C118.988 33.1088 118.986 33.1279 118.965 33.1379L117.189 34.277C117.169 34.3019 117.144 34.3161 117.114 34.3193C117.092 34.3293 117.065 34.3209 117.031 34.2942L113.587 31.53C113.546 31.4966 113.533 31.4525 113.55 31.3975C113.574 31.3342 113.61 31.2885 113.66 31.2603Z" fill="black"/>
<path d="M120.841 38.3432C120.305 37.7787 120.045 37.1572 120.063 36.4786C120.088 35.7927 120.382 35.1815 120.947 34.6451C121.132 34.4687 121.321 34.3189 121.513 34.1955C122.05 33.847 122.621 33.6352 123.227 33.5601C123.832 33.4849 124.415 33.5413 124.977 33.7291C125.545 33.9246 126.035 34.2389 126.446 34.6719C126.976 35.2286 127.232 35.8387 127.215 36.5022C127.206 37.1584 126.919 37.7547 126.354 38.2911C126.161 38.4748 125.968 38.6284 125.777 38.7517C125.225 39.0998 124.642 39.3151 124.029 39.3976C123.423 39.4878 122.839 39.439 122.278 39.2512C121.725 39.0711 121.246 38.7684 120.841 38.3432ZM121.261 38.3199C121.577 38.6524 122.027 38.7544 122.611 38.6259C123.203 38.4901 123.837 38.1818 124.513 37.701C124.859 37.4458 125.133 37.2226 125.334 37.0315C125.813 36.576 126.115 36.1423 126.238 35.7304C126.362 35.3186 126.299 34.9813 126.049 34.7184C125.748 34.4014 125.29 34.2916 124.677 34.3892C124.078 34.4871 123.426 34.7836 122.719 35.2787C122.481 35.4462 122.238 35.6475 121.991 35.8826C121.511 36.3382 121.198 36.7829 121.051 37.2168C120.904 37.6506 120.974 38.0183 121.261 38.3199Z" fill="black"/>
<path d="M124.581 41.9242C125.88 42.2062 126.846 42.4011 127.478 42.5088C128.116 42.6251 128.642 42.6779 129.056 42.6671C129.485 42.6586 129.861 42.5768 130.183 42.4217C130.334 42.3386 130.44 42.2751 130.5 42.2312C130.742 42.0557 130.899 41.8554 130.973 41.6303C131.047 41.4053 131.002 41.1806 130.839 40.9562C130.645 40.6887 130.337 40.5368 129.915 40.5006C129.508 40.4667 128.959 40.5096 128.268 40.6293C128.253 40.627 128.239 40.6172 128.227 40.5999C128.208 40.574 128.193 40.545 128.183 40.5128C128.182 40.4744 128.197 40.4501 128.229 40.4399L130.803 39.7363L130.867 39.7693C130.892 39.8038 130.902 39.836 130.897 39.8658C130.899 39.9042 130.879 39.9316 130.839 39.9481C130.678 39.999 130.58 40.037 130.546 40.0621C130.468 40.1185 130.457 40.1856 130.514 40.2632C130.57 40.3409 130.688 40.4397 130.868 40.5598C131.254 40.8195 131.548 41.0875 131.748 41.3636C132.024 41.7433 132.143 42.1056 132.103 42.4507C132.073 42.7895 131.906 43.0686 131.604 43.288C131.293 43.5138 130.957 43.6399 130.594 43.6664C130.245 43.6953 129.895 43.6665 129.542 43.5801C129.198 43.4874 128.754 43.3484 128.21 43.1631C127.913 43.0626 127.604 42.9641 127.284 42.8675C126.978 42.7733 126.691 42.7049 126.423 42.6625C126.387 42.6491 126.378 42.6554 126.397 42.6813C127.061 43.596 127.587 44.2291 127.975 44.5805C128.362 44.932 128.758 45.0596 129.163 44.9633C129.171 44.9571 129.185 44.9669 129.204 44.9928C129.223 45.0186 129.23 45.0465 129.225 45.0763C129.235 45.1084 129.228 45.1265 129.205 45.1304L127.192 45.7625C127.166 45.7813 127.138 45.7883 127.108 45.7836C127.085 45.7875 127.06 45.7722 127.035 45.7377L124.439 42.1653C124.408 42.1221 124.408 42.0762 124.438 42.0276C124.478 41.9728 124.525 41.9383 124.581 41.9242Z" fill="black"/>
<path d="M128.842 48.1642C130.095 48.6115 131.027 48.9293 131.64 49.1176C132.258 49.3153 132.773 49.4355 133.185 49.4782C133.611 49.5251 133.994 49.4925 134.334 49.3802C134.494 49.3172 134.607 49.2679 134.673 49.2322C134.935 49.0892 135.117 48.9109 135.219 48.6973C135.321 48.4837 135.306 48.2551 135.174 48.0116C135.015 47.7212 134.729 47.5309 134.316 47.4405C133.916 47.3544 133.366 47.3262 132.666 47.3557C132.651 47.3515 132.639 47.34 132.629 47.3213C132.613 47.2932 132.603 47.2625 132.597 47.2293C132.6 47.191 132.619 47.1689 132.652 47.1629L135.295 46.7972L135.354 46.8381C135.374 46.8756 135.38 46.9088 135.372 46.9377C135.368 46.976 135.345 47.0007 135.303 47.0118C135.137 47.0415 135.035 47.0666 134.998 47.087C134.913 47.133 134.894 47.1981 134.94 47.2824C134.986 47.3667 135.09 47.4799 135.253 47.6221C135.603 47.9296 135.859 48.2331 136.023 48.5328C136.247 48.9449 136.318 49.3195 136.234 49.6566C136.16 49.9886 135.959 50.2439 135.631 50.4226C135.294 50.6063 134.944 50.688 134.58 50.6674C134.231 50.6511 133.887 50.5774 133.549 50.4462C133.219 50.3099 132.797 50.1148 132.282 49.861C132 49.723 131.707 49.5854 131.401 49.4483C131.11 49.3154 130.834 49.2106 130.574 49.1339C130.54 49.116 130.53 49.1211 130.546 49.1492C131.087 50.142 131.527 50.8376 131.865 51.2361C132.204 51.6346 132.58 51.8122 132.994 51.7689C133.003 51.7638 133.016 51.7753 133.031 51.8034C133.046 51.8315 133.05 51.86 133.041 51.889C133.047 51.9222 133.038 51.9392 133.014 51.9401L130.937 52.3072C130.909 52.3225 130.88 52.3259 130.851 52.3174C130.827 52.3182 130.805 52.2999 130.785 52.2624L128.671 48.385C128.646 48.3382 128.651 48.2926 128.688 48.2484C128.734 48.199 128.785 48.171 128.842 48.1642Z" fill="black"/>
<path d="M49.5941 139.472C49.3628 139.362 49.0998 139.22 48.8052 139.044C48.6941 138.98 48.5541 138.902 48.3852 138.81C48.2163 138.718 48.021 138.619 47.7993 138.514L46.8383 138.076C46.6796 138.013 46.4604 137.915 46.1809 137.782C46.152 137.768 46.1513 137.733 46.1787 137.675C46.2061 137.617 46.2343 137.595 46.2632 137.609C46.5331 137.737 46.7421 137.806 46.8902 137.817C47.048 137.833 47.1926 137.79 47.3241 137.687C47.4555 137.584 47.621 137.397 47.8206 137.125L52.1806 130.994C52.338 130.762 52.4327 130.612 52.4647 130.545C52.5607 130.342 52.5668 130.18 52.4832 130.058C52.4041 129.926 52.22 129.791 51.9309 129.654C51.9116 129.645 51.9157 129.611 51.9431 129.553C51.9705 129.496 51.9939 129.471 52.0132 129.48L52.6858 129.817C53.0621 130.019 53.3756 130.18 53.6262 130.299C53.896 130.427 54.1824 130.545 54.4852 130.653C54.8798 130.816 55.1639 130.939 55.3374 131.022C56.1469 131.406 56.7845 131.891 57.2499 132.478C57.72 133.055 57.986 133.689 58.0481 134.379C58.1243 135.065 57.9956 135.759 57.6619 136.463C57.5111 136.781 57.3521 137.054 57.1851 137.281C56.5825 138.129 55.835 138.784 54.9429 139.246C54.0649 139.703 53.1515 139.949 52.2027 139.983C51.254 140.017 50.3844 139.847 49.5941 139.472ZM49.6734 139.155C50.5987 139.594 51.57 139.612 52.5875 139.209C53.6191 138.801 54.5569 138.006 55.4007 136.825C55.6464 136.481 55.8721 136.092 56.0778 135.658C56.5212 134.723 56.6823 133.861 56.5609 133.072C56.4441 132.273 55.9472 131.665 55.0701 131.249C54.7232 131.085 54.4432 131.04 54.23 131.116C54.0215 131.183 53.806 131.376 53.5836 131.695L49.3416 137.652C49.2396 137.792 49.1611 137.921 49.1063 138.036C48.992 138.277 48.9749 138.487 49.055 138.667C49.1396 138.837 49.3458 139 49.6734 139.155Z" fill="black"/>
<path d="M64.6871 138.128C64.9535 138.205 65.1765 138.375 65.356 138.638C65.5458 138.904 65.5847 139.153 65.4727 139.388C65.4078 139.535 65.2947 139.658 65.1332 139.756C64.9718 139.854 64.7988 139.876 64.6144 139.823C64.4299 139.769 64.2552 139.625 64.0903 139.388C64.0333 139.316 63.9749 139.249 63.915 139.188C63.8551 139.126 63.7893 139.085 63.7175 139.064C63.5433 139.014 63.2497 139.223 62.8367 139.693C62.4237 140.162 61.99 140.742 61.5354 141.432C61.094 142.115 60.7392 142.729 60.4711 143.273L60.4667 143.288C60.4195 143.375 60.3168 143.423 60.1586 143.433C59.9974 143.453 59.7835 143.424 59.5171 143.347C59.1789 143.25 59.0216 143.16 59.0453 143.078C59.0762 143.009 59.1513 142.864 59.2706 142.643C59.4001 142.425 59.5164 142.215 59.6195 142.011L61.2392 138.765C61.3071 138.607 61.3484 138.503 61.3632 138.451C61.446 138.164 61.3951 137.994 61.2107 137.941C61.0057 137.882 60.6545 138.002 60.157 138.303C60.1438 138.31 60.1269 138.311 60.1064 138.305C60.0654 138.293 60.0391 138.269 60.0275 138.232C60.0188 138.185 60.0343 138.151 60.0739 138.129C60.5671 137.805 60.9853 137.587 61.3284 137.475C61.6818 137.366 62.0071 137.355 62.3043 137.441C62.5605 137.515 62.7243 137.64 62.7956 137.816C62.8699 137.981 62.8686 138.197 62.7917 138.464C62.7473 138.618 62.6831 138.782 62.5991 138.958L61.8036 140.56C62.988 138.726 63.9492 137.915 64.6871 138.128Z" fill="black"/>
<path d="M69.3941 145.589C68.6977 145.485 68.1978 145.185 67.8941 144.687C67.6027 144.18 67.5101 143.568 67.6164 142.85C67.6634 142.534 67.732 142.253 67.8223 142.008C68.0322 141.392 68.3427 140.861 68.7539 140.415C69.1756 139.971 69.6494 139.647 70.1755 139.445C70.7015 139.242 71.2441 139.183 71.8033 139.266C72.5103 139.37 73.0163 139.666 73.3215 140.154C73.6388 140.632 73.7443 141.23 73.6379 141.948C73.5957 142.233 73.5194 142.529 73.4092 142.836C73.1688 143.512 72.8272 144.07 72.3844 144.512C71.9537 144.944 71.4716 145.25 70.9382 145.429C70.4153 145.611 69.9006 145.664 69.3941 145.589ZM69.9909 145.273C70.3286 145.323 70.6477 145.171 70.9482 144.816C71.2593 144.463 71.5229 143.958 71.7391 143.3C71.874 142.899 71.9727 142.488 72.0352 142.066C72.1369 141.38 72.1143 140.805 71.9674 140.341C71.831 139.879 71.5835 139.621 71.2247 139.568C70.9082 139.521 70.5959 139.664 70.288 139.995C69.9905 140.329 69.7246 140.85 69.49 141.559C69.3552 141.96 69.2565 142.371 69.1939 142.793C69.0922 143.479 69.1096 144.053 69.2459 144.515C69.3838 144.967 69.6322 145.22 69.9909 145.273Z" fill="black"/>
<path d="M81.6158 139.752C82.1705 139.753 82.5864 139.897 82.8635 140.185C83.1513 140.473 83.2951 140.89 83.2947 141.434C83.2946 141.615 83.2785 141.802 83.2463 141.994C83.1392 142.708 82.8881 143.38 82.493 144.009C82.1086 144.627 81.6336 145.123 81.068 145.496C80.5131 145.869 79.9477 146.055 79.3717 146.055C79.201 146.055 78.9877 146.044 78.7317 146.023L78.2178 148.886C78.175 149.142 78.1536 149.297 78.1535 149.35C78.1534 149.51 78.1907 149.622 78.2653 149.686C78.3399 149.761 78.4626 149.798 78.6332 149.798C78.6866 149.799 78.7986 149.788 78.9692 149.767C79.0119 149.767 79.0386 149.793 79.0492 149.847C79.0705 149.9 79.0598 149.932 79.0171 149.943L75.9768 150.437C75.9448 150.447 75.9235 150.421 75.9129 150.357C75.8916 150.293 75.9023 150.255 75.9449 150.245C76.1583 150.192 76.313 150.128 76.4091 150.053C76.5051 149.989 76.5798 149.882 76.6333 149.733C76.6867 149.584 76.7455 149.339 76.8097 148.997L78.1908 141.334C77.9667 141.462 77.6946 141.643 77.3744 141.878C77.3637 141.888 77.3477 141.894 77.3264 141.894C77.2837 141.894 77.2518 141.872 77.2304 141.83C77.2091 141.787 77.2198 141.75 77.2625 141.718C77.6894 141.377 78.0149 141.131 78.239 140.982L78.4477 139.862C78.4478 139.841 78.5385 139.777 78.7199 139.671C79.0186 139.489 79.2694 139.319 79.4722 139.159C79.675 138.999 79.8031 138.818 79.8566 138.615C79.8673 138.573 79.8993 138.557 79.9526 138.567C80.0166 138.578 80.0432 138.605 80.0325 138.647L79.7595 140.167C80.3997 139.89 81.0185 139.752 81.6158 139.752ZM81.806 142.521C81.8275 142.329 81.8382 142.185 81.8383 142.089C81.8386 141.63 81.7322 141.257 81.519 140.968C81.3165 140.68 80.9806 140.536 80.5113 140.536C80.2233 140.536 79.9459 140.573 79.6792 140.647L78.8441 145.351C79.196 145.5 79.5693 145.575 79.964 145.575C80.476 145.576 80.8815 145.304 81.1805 144.76C81.4796 144.206 81.688 143.459 81.806 142.521Z" fill="black"/>
<path d="M90.4509 138.764C91 138.685 91.4322 138.769 91.7474 139.015C92.0732 139.26 92.2745 139.651 92.3513 140.19C92.3769 140.369 92.3874 140.556 92.3828 140.751C92.3781 141.473 92.2248 142.174 91.9229 142.853C91.6301 143.52 91.2302 144.078 90.7233 144.527C90.2268 144.975 89.6935 145.239 89.1233 145.321C88.9543 145.345 88.7416 145.364 88.4852 145.379L88.3826 148.287C88.3765 148.547 88.3772 148.703 88.3848 148.755C88.4073 148.914 88.4601 149.019 88.5431 149.072C88.6275 149.136 88.7542 149.155 88.9232 149.131C88.976 149.124 89.0854 149.097 89.2513 149.052C89.2935 149.046 89.3237 149.069 89.3418 149.12C89.3705 149.17 89.3644 149.203 89.3237 149.22L86.3841 150.14C86.354 150.155 86.3291 150.131 86.3095 150.07C86.2793 150.009 86.2846 149.971 86.3254 149.954C86.529 149.871 86.6731 149.786 86.7576 149.699C86.8436 149.622 86.9025 149.506 86.9342 149.35C86.9659 149.195 86.9893 148.944 87.0045 148.597L87.2848 140.815C87.0811 140.974 86.8375 141.191 86.5538 141.469C86.5447 141.481 86.5297 141.489 86.5085 141.492C86.4663 141.498 86.4316 141.481 86.4045 141.442C86.3773 141.403 86.3826 141.364 86.4203 141.326C86.7945 140.928 87.082 140.639 87.2827 140.46L87.3305 139.322C87.3275 139.301 87.4082 139.225 87.5726 139.093C87.8427 138.872 88.0668 138.667 88.2448 138.48C88.4229 138.293 88.524 138.096 88.5482 137.888C88.5527 137.844 88.5822 137.823 88.6365 137.826C88.7013 137.828 88.7315 137.851 88.727 137.894L88.6722 139.438C89.2667 139.073 89.8596 138.848 90.4509 138.764ZM91.0318 141.477C91.0258 141.284 91.016 141.14 91.0025 141.045C90.9377 140.591 90.7794 140.236 90.5276 139.981C90.2863 139.725 89.9333 139.629 89.4687 139.696C89.1836 139.736 88.9143 139.812 88.6608 139.924L88.5012 144.698C88.8708 144.797 89.2509 144.818 89.6416 144.762C90.1485 144.69 90.5114 144.363 90.7302 143.783C90.9476 143.191 91.0481 142.423 91.0318 141.477Z" fill="black"/>
<path d="M96.3273 135.58C96.0593 135.651 95.8222 135.631 95.6162 135.52C95.4178 135.396 95.2816 135.195 95.2076 134.917C95.1419 134.67 95.1658 134.448 95.2794 134.252C95.4033 134.054 95.5992 133.919 95.8673 133.848C96.1353 133.777 96.362 133.799 96.5474 133.915C96.7432 134.029 96.8739 134.21 96.9396 134.457C97.0163 134.746 96.9978 134.988 96.8842 135.183C96.781 135.376 96.5953 135.509 96.3273 135.58ZM97.3778 143.711C96.883 143.842 96.5589 143.619 96.4055 143.042C96.3644 142.887 96.3327 142.664 96.3103 142.372L96.09 138.987C96.0826 138.834 96.0666 138.712 96.0419 138.619C96.0063 138.485 95.9545 138.394 95.8866 138.346C95.8158 138.287 95.7393 138.269 95.6568 138.291C95.4403 138.348 95.2012 138.632 94.9396 139.143C94.9321 139.156 94.918 139.166 94.8974 139.171C94.8561 139.182 94.8211 139.175 94.7923 139.149C94.7607 139.114 94.7511 139.078 94.7635 139.041C95.0196 138.51 95.2712 138.106 95.5181 137.831C95.765 137.556 96.0328 137.38 96.3215 137.303C96.8163 137.172 97.1349 137.374 97.2773 137.91C97.3239 138.085 97.3498 138.266 97.3551 138.452L97.6093 142.027C97.6133 142.125 97.6345 142.246 97.6728 142.391C97.7385 142.638 97.8487 142.741 98.0034 142.7C98.1065 142.673 98.2075 142.596 98.3066 142.471C98.416 142.342 98.5402 142.166 98.6792 141.941C98.6943 141.915 98.7122 141.899 98.7328 141.894C98.7638 141.886 98.795 141.899 98.8266 141.935C98.8554 141.961 98.8585 141.993 98.8358 142.032C98.5948 142.537 98.3611 142.925 98.1348 143.195C97.9188 143.462 97.6665 143.634 97.3778 143.711Z" fill="black"/>
<path d="M108.575 138.16C108.587 138.132 108.597 138.116 108.607 138.112C108.637 138.1 108.67 138.11 108.706 138.141C108.737 138.163 108.749 138.192 108.742 138.23C108.567 138.762 108.385 139.176 108.195 139.473C108.014 139.765 107.786 139.968 107.509 140.08C107.035 140.274 106.685 140.094 106.46 139.541C106.399 139.393 106.34 139.175 106.28 138.888L105.749 136.358C105.686 136.061 105.62 135.829 105.551 135.661C105.354 135.177 105.097 134.999 104.781 135.128C104.504 135.241 104.293 135.54 104.145 136.027C103.994 136.503 103.926 137.141 103.941 137.942C103.967 138.738 104.088 139.656 104.305 140.696L104.375 140.996C104.406 141.214 104.17 141.425 103.666 141.631C103.34 141.764 103.161 141.791 103.129 141.712L103.061 141.376C102.971 140.872 102.918 140.588 102.904 140.525L102.164 136.973C102.147 136.876 102.113 136.763 102.061 136.635C101.952 136.368 101.814 136.269 101.646 136.338C101.438 136.422 101.232 136.737 101.028 137.281C101.022 137.295 101.009 137.306 100.99 137.314C100.96 137.326 100.929 137.321 100.897 137.3C100.862 137.268 100.847 137.234 100.855 137.196C101.042 136.636 101.235 136.206 101.435 135.905C101.645 135.601 101.893 135.39 102.179 135.273C102.643 135.084 102.982 135.251 103.196 135.775C103.256 135.923 103.308 136.092 103.351 136.282L103.664 137.727C103.659 136.726 103.784 135.903 104.039 135.258C104.304 134.608 104.688 134.181 105.192 133.975C105.874 133.697 106.382 133.968 106.716 134.788C106.792 134.976 106.866 135.228 106.938 135.544L107.525 138.381C107.555 138.541 107.589 138.666 107.625 138.755C107.718 138.982 107.843 139.063 108.001 138.999C108.1 138.958 108.19 138.87 108.273 138.732C108.365 138.591 108.466 138.4 108.575 138.16Z" fill="black"/>
<path d="M114 129.109C114.046 129.082 114.112 129.142 114.198 129.289C114.29 129.445 114.362 129.619 114.413 129.812C114.474 129.999 114.477 130.09 114.424 130.084C114.011 130.054 113.606 130.144 113.209 130.353C113.577 130.495 113.878 130.764 114.11 131.159C114.218 131.343 114.297 131.52 114.347 131.688C114.58 132.38 114.573 133.052 114.326 133.705C114.073 134.349 113.667 134.835 113.106 135.165C112.986 135.235 112.896 135.282 112.835 135.305C112.845 135.448 112.869 135.552 112.907 135.616C113.014 135.862 113.206 136.009 113.482 136.057C113.761 136.091 114.175 136.089 114.722 136.052C115.184 136.016 115.558 136 115.845 136.005C116.147 136.013 116.438 136.077 116.719 136.196C116.999 136.316 117.226 136.523 117.399 136.817C117.648 137.24 117.724 137.696 117.628 138.186C117.532 138.675 117.301 139.145 116.935 139.595C116.569 140.046 116.114 140.43 115.572 140.749C114.901 141.144 114.294 141.321 113.751 141.282C113.213 141.251 112.828 141.039 112.596 140.643C112.379 140.275 112.337 139.836 112.47 139.325C112.608 138.823 112.881 138.235 113.29 137.562C112.829 137.536 112.526 137.399 112.38 137.151C112.266 136.958 112.231 136.719 112.274 136.434C112.317 136.149 112.415 135.8 112.569 135.388C112.193 135.485 111.839 135.452 111.507 135.288C111.171 135.115 110.897 134.849 110.686 134.49C110.626 134.389 110.55 134.217 110.457 133.975C110.227 133.331 110.231 132.685 110.469 132.038C110.702 131.381 111.112 130.88 111.701 130.534C112.096 130.302 112.475 130.209 112.837 130.256C113.189 129.74 113.577 129.357 114 129.109ZM113.22 132.518C113.13 132.323 113.053 132.171 112.988 132.06C112.761 131.674 112.516 131.373 112.252 131.156C111.989 130.94 111.752 130.894 111.54 131.018C111.338 131.137 111.241 131.404 111.25 131.82C111.259 132.235 111.376 132.686 111.601 133.173C111.712 133.405 111.795 133.566 111.849 133.658C112.086 134.063 112.341 134.359 112.612 134.546C112.877 134.724 113.102 134.759 113.286 134.651C113.488 134.532 113.586 134.277 113.578 133.885C113.574 133.479 113.455 133.023 113.22 132.518ZM116.649 138.13C116.449 137.79 116.158 137.59 115.776 137.53C115.395 137.47 114.89 137.463 114.262 137.511C114.011 137.547 113.773 137.563 113.548 137.559C113.259 138.31 113.275 138.957 113.594 139.5C113.826 139.895 114.174 140.129 114.638 140.203C115.102 140.277 115.564 140.179 116.024 139.908C116.447 139.66 116.697 139.37 116.775 139.04C116.859 138.718 116.817 138.415 116.649 138.13Z" fill="black"/>
<path opacity="0.05" d="M24.6678 52C20.4033 60.4261 18 69.9574 18 80.0511C18 101.778 29.1351 120.899 46 132M136.53 54.5046C140.044 62.2966 142 70.945 142 80.0511C142 100.611 132.029 118.837 116.668 130.142" stroke="black"/>
<defs>
<linearGradient id="paint0_linear_1564_8495" x1="-5.55351e-07" y1="36.8421" x2="157.061" y2="39.1983" gradientUnits="userSpaceOnUse">
<stop offset="0.267495" stop-color="#FFC6CE"/>
<stop offset="1" stop-color="#64D6EE"/>
</linearGradient>
</defs>
</svg>
