<svg width="160" height="160" viewBox="0 0 160 160" fill="none" xmlns="http://www.w3.org/2000/svg">
<path d="M63.7787 138.626C64.0265 138.69 64.3117 138.78 64.6341 138.897C64.7553 138.939 64.9076 138.99 65.0908 139.048C65.274 139.107 65.4843 139.167 65.7218 139.228L66.7482 139.477C66.9161 139.51 67.1497 139.564 67.4492 139.642C67.4802 139.65 67.4877 139.685 67.4716 139.747C67.4556 139.809 67.4321 139.836 67.4011 139.828C67.112 139.753 66.8936 139.724 66.746 139.741C66.588 139.755 66.4542 139.825 66.3445 139.951C66.2348 140.077 66.1076 140.292 65.9628 140.596L62.8365 147.439C62.7257 147.697 62.661 147.862 62.6423 147.934C62.5861 148.151 62.6107 148.312 62.7159 148.416C62.8184 148.531 63.0246 148.628 63.3344 148.708C63.355 148.714 63.3573 148.747 63.3413 148.809C63.3253 148.871 63.3069 148.899 63.2863 148.894L62.5623 148.69C62.1546 148.563 61.8165 148.464 61.548 148.395C61.2588 148.32 60.9554 148.258 60.6376 148.209C60.2191 148.122 59.917 148.055 59.7311 148.007C58.8637 147.783 58.1461 147.426 57.5784 146.938C57.008 146.459 56.6273 145.887 56.4362 145.221C56.2321 144.562 56.2276 143.855 56.4227 143.102C56.5109 142.761 56.6155 142.463 56.7366 142.208C57.1688 141.262 57.7793 140.478 58.5684 139.856C59.3444 139.241 60.1951 138.828 61.1205 138.616C62.0459 138.403 62.9319 138.407 63.7787 138.626ZM63.7605 138.952C62.7691 138.695 61.8118 138.861 60.8885 139.448C59.9522 140.043 59.1811 141 58.5752 142.32C58.3986 142.704 58.2503 143.128 58.13 143.593C57.8708 144.595 57.8751 145.472 58.1432 146.224C58.4085 146.987 59.011 147.49 59.9507 147.733C60.3225 147.83 60.6058 147.82 60.8008 147.705C60.9931 147.601 61.1684 147.371 61.3265 147.015L64.3697 140.365C64.4434 140.208 64.4963 140.068 64.5284 139.944C64.5952 139.686 64.5724 139.476 64.4599 139.315C64.3447 139.164 64.1116 139.043 63.7605 138.952Z" fill="black"/>
<path d="M49.0126 139.858C48.7593 139.745 48.5617 139.547 48.42 139.262C48.2686 138.972 48.2644 138.72 48.4075 138.503C48.492 138.365 48.621 138.259 48.7943 138.185C48.9676 138.11 49.142 138.112 49.3174 138.19C49.4928 138.268 49.646 138.435 49.7769 138.692C49.8234 138.771 49.8721 138.846 49.9229 138.915C49.9738 138.984 50.0333 139.034 50.1016 139.064C50.2672 139.138 50.5868 138.971 51.0603 138.563C51.5338 138.155 52.0432 137.64 52.5883 137.019C53.1193 136.403 53.555 135.844 53.8954 135.342L53.9019 135.327C53.9604 135.248 54.0688 135.214 54.2269 135.226C54.3893 135.229 54.5972 135.286 54.8506 135.399C55.1722 135.542 55.3156 135.653 55.2809 135.731C55.2408 135.794 55.1465 135.928 54.998 136.13C54.8398 136.328 54.6956 136.521 54.5656 136.708L52.5153 139.701C52.4264 139.848 52.3711 139.946 52.3494 139.995C52.2279 140.268 52.2549 140.443 52.4303 140.521C52.6252 140.608 52.9897 140.537 53.5238 140.308C53.5379 140.302 53.5546 140.304 53.5741 140.312C53.6131 140.33 53.6358 140.357 53.6423 140.395C53.6445 140.443 53.6244 140.475 53.5822 140.491C53.0492 140.744 52.605 140.903 52.2497 140.966C51.8847 141.026 51.5609 140.993 51.2783 140.867C51.0347 140.758 50.8897 140.612 50.8432 140.428C50.7924 140.253 50.8234 140.04 50.9362 139.786C51.0012 139.64 51.0874 139.486 51.1947 139.323L52.2028 137.846C50.7777 139.5 49.7143 140.171 49.0126 139.858Z" fill="black"/>
<path d="M46.5315 130.791C47.1283 131.165 47.466 131.64 47.5447 132.218C47.6088 132.799 47.4483 133.397 47.0635 134.012C46.8937 134.283 46.7183 134.513 46.5372 134.702C46.0982 135.182 45.601 135.544 45.0456 135.788C44.4813 136.026 43.9176 136.133 43.3545 136.107C42.7915 136.082 42.2703 135.919 41.7911 135.619C41.1854 135.24 40.8403 134.766 40.7559 134.197C40.6568 133.632 40.7997 133.042 41.1846 132.427C41.3374 132.183 41.5258 131.942 41.7499 131.705C42.241 131.182 42.7777 130.807 43.3602 130.58C43.9279 130.357 44.4922 130.269 45.053 130.318C45.6047 130.362 46.0976 130.519 46.5315 130.791ZM45.8582 130.841C45.5689 130.66 45.2155 130.672 44.7982 130.876C44.3718 131.075 43.9277 131.432 43.466 131.949C43.182 132.262 42.9268 132.599 42.7004 132.961C42.3325 133.548 42.123 134.084 42.0717 134.568C42.0115 135.046 42.135 135.382 42.4424 135.574C42.7137 135.744 43.0568 135.739 43.4719 135.558C43.878 135.372 44.3305 135.001 44.8295 134.445C45.1135 134.132 45.3688 133.794 45.5951 133.433C45.963 132.845 46.1771 132.312 46.2374 131.834C46.292 131.365 46.1656 131.034 45.8582 130.841Z" fill="black"/>
<path d="M33.5626 128.978C33.1403 128.619 32.917 128.239 32.8925 127.84C32.86 127.434 33.0201 127.024 33.3728 126.61C33.4904 126.472 33.6236 126.34 33.7724 126.215C34.317 125.74 34.9435 125.391 35.6521 125.167C36.3455 124.945 37.0285 124.875 37.701 124.958C38.3653 125.033 38.9167 125.258 39.3553 125.631C39.4852 125.742 39.6407 125.888 39.8218 126.07L42.0685 124.222C42.2669 124.055 42.3835 123.951 42.418 123.91C42.5218 123.788 42.566 123.679 42.5506 123.582C42.5422 123.476 42.473 123.368 42.3431 123.258C42.3025 123.223 42.2103 123.159 42.0665 123.064C42.034 123.037 42.031 122.999 42.0575 122.952C42.0758 122.897 42.1047 122.88 42.1441 122.899L44.7801 124.493C44.8114 124.505 44.8103 124.539 44.777 124.595C44.7517 124.658 44.7194 124.679 44.68 124.66C44.483 124.562 44.3237 124.51 44.2022 124.505C44.0877 124.491 43.9617 124.524 43.8242 124.603C43.6868 124.682 43.4831 124.831 43.213 125.049L37.1964 129.992C37.4499 130.04 37.7746 130.078 38.1704 130.107C38.1854 130.106 38.201 130.112 38.2173 130.126C38.2498 130.154 38.2603 130.191 38.2489 130.237C38.2375 130.283 38.2051 130.305 38.1519 130.302C37.6058 130.285 37.199 130.261 36.9316 130.229L36.0471 130.947C36.0333 130.963 35.9228 130.953 35.7155 130.917C35.3706 130.861 35.0691 130.829 34.8111 130.819C34.553 130.809 34.338 130.864 34.166 130.984C34.1302 131.01 34.0955 131.001 34.0618 130.958C34.02 130.909 34.017 130.871 34.0528 130.846L35.2454 129.865C34.5783 129.661 34.0174 129.365 33.5626 128.978ZM35.2111 126.746C35.0704 126.879 34.9689 126.981 34.9066 127.054C34.6092 127.404 34.4484 127.757 34.4241 128.115C34.3917 128.465 34.5541 128.793 34.9114 129.097C35.1307 129.284 35.366 129.435 35.6175 129.551L39.3008 126.509C39.1296 126.167 38.8938 125.869 38.5933 125.613C38.2035 125.281 37.7186 125.225 37.1385 125.445C36.5515 125.674 35.909 126.108 35.2111 126.746Z" fill="black"/>
<path d="M26.817 121.701C26.4512 121.284 26.2852 120.876 26.3189 120.478C26.3455 120.071 26.5633 119.689 26.9723 119.33C27.1086 119.21 27.2595 119.099 27.425 118.997C28.0326 118.606 28.7031 118.351 29.4365 118.233C30.1548 118.114 30.8407 118.143 31.4941 118.322C32.1405 118.493 32.6536 118.795 33.0334 119.228C33.146 119.356 33.2786 119.524 33.4314 119.73L35.9222 118.227C36.1428 118.09 36.2731 118.004 36.3132 117.969C36.4335 117.864 36.4931 117.762 36.492 117.663C36.4989 117.558 36.4461 117.441 36.3335 117.313C36.2984 117.273 36.2165 117.196 36.0879 117.081C36.0598 117.049 36.0623 117.012 36.0953 116.968C36.1214 116.917 36.1524 116.904 36.1886 116.929L38.566 118.888C38.5951 118.905 38.5891 118.938 38.548 118.989C38.514 119.047 38.4789 119.063 38.4427 119.038C38.262 118.913 38.1119 118.839 37.9924 118.816C37.881 118.786 37.7516 118.8 37.6042 118.859C37.4567 118.917 37.2336 119.035 36.9348 119.212L30.2655 123.231C30.5095 123.315 30.8251 123.399 31.2126 123.485C31.2276 123.486 31.2422 123.495 31.2562 123.511C31.2844 123.543 31.2894 123.581 31.2714 123.625C31.2534 123.669 31.2183 123.686 31.1661 123.675C30.6282 123.579 30.2292 123.496 29.9692 123.427L28.9901 124.009C28.974 124.023 28.8661 123.997 28.6664 123.931C28.3331 123.826 28.0395 123.75 27.7856 123.703C27.5317 123.656 27.3109 123.679 27.1234 123.773C27.0843 123.793 27.0512 123.78 27.024 123.732C26.9898 123.677 26.9923 123.64 27.0314 123.62L28.3535 122.822C27.723 122.524 27.2108 122.15 26.817 121.701ZM28.7714 119.731C28.613 119.842 28.4977 119.929 28.4255 119.992C28.0807 120.294 27.8703 120.621 27.7945 120.971C27.7116 121.313 27.8249 121.661 28.1343 122.014C28.3242 122.23 28.5352 122.414 28.7671 122.565L32.8523 120.089C32.7325 119.726 32.5424 119.396 32.2822 119.1C31.9446 118.715 31.4729 118.589 30.8669 118.723C30.253 118.865 29.5545 119.201 28.7714 119.731Z" fill="black"/>
<path d="M21.1291 116.581C21.2848 116.81 21.3443 117.04 21.3077 117.272C21.2563 117.5 21.1114 117.695 20.873 117.856C20.6612 118 20.4441 118.051 20.2219 118.008C19.9937 117.957 19.8017 117.816 19.6461 117.587C19.4904 117.357 19.4368 117.136 19.4854 116.922C19.528 116.7 19.6553 116.517 19.8671 116.373C20.1143 116.206 20.349 116.143 20.5712 116.186C20.7875 116.22 20.9734 116.351 21.1291 116.581ZM28.4576 112.905C28.745 113.329 28.6415 113.709 28.1471 114.044C28.0147 114.134 27.8144 114.237 27.5461 114.355L24.4236 115.68C24.2821 115.737 24.1716 115.793 24.0921 115.847C23.9773 115.925 23.9085 116.004 23.8854 116.084C23.8536 116.17 23.8616 116.248 23.9095 116.319C24.0352 116.504 24.3824 116.636 24.9511 116.714C24.9659 116.717 24.9793 116.727 24.9913 116.745C25.0152 116.78 25.0199 116.816 25.0054 116.852C24.9821 116.893 24.9512 116.914 24.9127 116.914C24.3264 116.848 23.8626 116.744 23.5212 116.602C23.1799 116.459 22.9254 116.265 22.7577 116.017C22.4703 115.594 22.5561 115.226 23.0152 114.915C23.1652 114.813 23.3273 114.729 23.5013 114.662L26.7917 113.243C26.8831 113.206 26.9906 113.146 27.1142 113.063C27.326 112.919 27.3871 112.781 27.2973 112.648C27.2374 112.56 27.1318 112.49 26.9805 112.438C26.8232 112.377 26.6156 112.318 26.3578 112.261C26.3282 112.255 26.3074 112.244 26.2954 112.226C26.2774 112.199 26.2801 112.165 26.3035 112.124C26.318 112.088 26.3474 112.075 26.3919 112.083C26.9486 112.144 27.3916 112.236 27.721 112.361C28.0444 112.477 28.2899 112.658 28.4576 112.905Z" fill="black"/>
<path d="M21.5363 103.061C21.5076 103.051 21.4909 103.042 21.4861 103.032C21.4717 103.004 21.4787 102.97 21.5072 102.932C21.5262 102.898 21.5548 102.884 21.5929 102.889C22.1372 103.02 22.5647 103.169 22.8753 103.335C23.1811 103.491 23.4013 103.703 23.5358 103.97C23.7664 104.427 23.615 104.79 23.0816 105.059C22.9388 105.131 22.7268 105.208 22.4456 105.29L19.9652 106.021C19.6745 106.108 19.4482 106.192 19.2863 106.274C18.8196 106.509 18.6631 106.779 18.8168 107.084C18.9513 107.351 19.2668 107.538 19.7633 107.646C20.2502 107.759 20.8919 107.776 21.6883 107.697C22.4798 107.608 23.3855 107.414 24.4053 107.115L24.6984 107.021C24.9129 106.972 25.1426 107.191 25.3876 107.677C25.5461 107.991 25.5872 108.167 25.5111 108.206L25.1822 108.3C24.6866 108.431 24.4078 108.505 24.3458 108.525L20.8646 109.546C20.7693 109.57 20.6598 109.613 20.5359 109.676C20.2788 109.805 20.191 109.951 20.2727 110.113C20.3736 110.313 20.7033 110.493 21.262 110.653C21.2764 110.658 21.2883 110.67 21.2979 110.689C21.3123 110.718 21.3101 110.749 21.2911 110.782C21.2626 110.82 21.2293 110.837 21.1911 110.833C20.6182 110.691 20.174 110.533 19.8585 110.358C19.5383 110.173 19.3085 109.942 19.1692 109.666C18.9435 109.218 19.083 108.867 19.5877 108.613C19.7306 108.541 19.895 108.476 20.0808 108.418L21.4961 107.991C20.4994 108.075 19.6692 108.016 19.0054 107.813C18.3368 107.601 17.88 107.252 17.6351 106.766C17.3036 106.109 17.5332 105.581 18.3237 105.183C18.5046 105.091 18.75 104.997 19.0597 104.901L21.8404 104.09C21.9976 104.046 22.1191 104.003 22.2049 103.96C22.4239 103.849 22.495 103.718 22.4182 103.566C22.3701 103.47 22.2744 103.387 22.1311 103.316C21.9829 103.236 21.7847 103.15 21.5363 103.061Z" fill="black"/>
<path d="M14.0333 96.3581C14.0167 96.3074 14.0894 96.2554 14.2516 96.2021C14.4238 96.1455 14.6095 96.1126 14.8085 96.1033C15.0043 96.0838 15.0936 96.0994 15.0765 96.1499C14.9602 96.5475 14.9618 96.9624 15.0814 97.3946C15.2987 97.065 15.6252 96.8285 16.0609 96.6853C16.2636 96.6187 16.4526 96.579 16.6281 96.5662C17.3537 96.4849 18.0091 96.6344 18.5945 97.0146C19.1697 97.3982 19.5589 97.899 19.762 98.5171C19.8053 98.6489 19.8319 98.7468 19.8418 98.8109C19.9834 98.8317 20.0896 98.8305 20.1606 98.8072C20.4239 98.7543 20.6084 98.5982 20.714 98.3389C20.8062 98.0728 20.8922 97.6684 20.972 97.1257C21.0347 96.6672 21.0986 96.2981 21.1639 96.0184C21.2359 95.7252 21.3602 95.4542 21.5366 95.2054C21.713 94.9565 21.9634 94.7787 22.2877 94.6722C22.7538 94.5189 23.2158 94.5411 23.6737 94.7386C24.1317 94.9362 24.5418 95.2617 24.9042 95.7152C25.2666 96.1687 25.5461 96.6944 25.7426 97.2923C25.9858 98.032 26.0304 98.663 25.8764 99.1852C25.7326 99.704 25.4428 100.035 25.0071 100.178C24.6018 100.312 24.1635 100.259 23.6922 100.021C23.2311 99.7796 22.715 99.3879 22.1438 98.8458C22.0205 99.2905 21.8221 99.5579 21.5485 99.6478C21.3357 99.7178 21.0946 99.7016 20.8251 99.5993C20.5557 99.4969 20.236 99.327 19.8659 99.0893C19.8812 99.4773 19.7735 99.8158 19.5429 100.105C19.3022 100.397 18.9843 100.609 18.5891 100.739C18.4776 100.775 18.2936 100.813 18.0371 100.853C17.3587 100.941 16.7285 100.8 16.1465 100.43C15.5544 100.063 15.1517 99.5554 14.9385 98.9069C14.7953 98.4711 14.7851 98.0815 14.908 97.738C14.4781 97.2842 14.1866 96.8242 14.0333 96.3581ZM17.1996 97.8436C16.9903 97.89 16.8248 97.9331 16.7032 97.9731C16.2776 98.113 15.9311 98.2887 15.6638 98.5001C15.3964 98.7115 15.301 98.9337 15.3777 99.1667C15.4509 99.3897 15.6915 99.5408 16.0993 99.6201C16.5071 99.6993 16.9727 99.681 17.496 99.5652C17.7459 99.5055 17.9215 99.459 18.0228 99.4257C18.4687 99.2791 18.8118 99.0933 19.0522 98.8683C19.2825 98.6467 19.3644 98.4345 19.2977 98.2318C19.2245 98.0089 18.9957 97.8595 18.6115 97.7837C18.2138 97.7011 17.7432 97.7211 17.1996 97.8436ZM23.4118 95.6837C23.0368 95.807 22.7795 96.0487 22.6397 96.4091C22.4999 96.7694 22.3865 97.2614 22.2996 97.8851C22.2817 98.138 22.2469 98.374 22.1954 98.593C22.8682 99.0343 23.5036 99.1567 24.1014 98.9602C24.5371 98.817 24.8402 98.5265 25.0107 98.0887C25.1812 97.6509 25.1832 97.1786 25.0166 96.672C24.8634 96.2058 24.6336 95.8996 24.3273 95.7533C24.0311 95.6036 23.7259 95.5805 23.4118 95.6837Z" fill="black"/>
<path d="M18.7537 83.3943C18.808 84.0962 18.6262 84.6506 18.2083 85.0573C17.7789 85.4543 17.2027 85.6807 16.4795 85.7366C16.1604 85.7612 15.8712 85.7569 15.6119 85.7234C14.9648 85.6558 14.3781 85.4711 13.852 85.1694C13.325 84.8571 12.9043 84.467 12.59 83.9992C12.2757 83.5313 12.0967 83.0156 12.0532 82.452C11.9981 81.7394 12.1742 81.1802 12.5815 80.7742C12.9773 80.3585 13.5367 80.1227 14.2599 80.0668C14.5471 80.0446 14.8526 80.0531 15.1766 80.0922C15.8892 80.1762 16.5098 80.385 17.0384 80.7186C17.5556 81.0424 17.9611 81.4443 18.255 81.9244C18.548 82.3939 18.7143 82.8839 18.7537 83.3943ZM18.313 82.8828C18.2867 82.5425 18.0673 82.2652 17.6549 82.051C17.2417 81.8262 16.6903 81.6816 16.0006 81.6172C15.5801 81.5749 15.1571 81.5701 14.7317 81.603C14.0404 81.6564 13.485 81.8063 13.0654 82.0527C12.645 82.2885 12.4488 82.5872 12.4767 82.9488C12.5014 83.2678 12.7097 83.5406 13.1017 83.7671C13.4928 83.9829 14.0602 84.1263 14.8039 84.1971C15.2244 84.2395 15.6473 84.2443 16.0727 84.2114C16.764 84.158 17.3198 84.0134 17.7403 83.7776C18.15 83.5426 18.341 83.2444 18.313 82.8828Z" fill="black"/>
<path d="M17.7596 69.6744C17.74 69.6514 17.7306 69.6347 17.7314 69.624C17.7339 69.5921 17.7572 69.5672 17.8014 69.5492C17.8349 69.5304 17.8668 69.5329 17.8971 69.5566C18.2945 69.9511 18.5832 70.2997 18.7631 70.6024C18.9438 70.8946 19.0226 71.1895 18.9996 71.4873C18.9601 71.9978 18.6426 72.23 18.047 72.184C17.8875 72.1716 17.6662 72.1278 17.3832 72.0524L14.8825 71.3937C14.5889 71.3175 14.3516 71.2725 14.1708 71.2585C13.6497 71.2182 13.376 71.3682 13.3497 71.7085C13.3267 72.0063 13.4996 72.3299 13.8684 72.6794C14.2266 73.028 14.7669 73.3747 15.4891 73.7194C16.2122 74.0534 17.0874 74.3565 18.1148 74.6285L18.4142 74.6998C18.6228 74.7694 18.7062 75.0754 18.6642 75.6177C18.6371 75.9687 18.581 76.1409 18.4959 76.1343L18.1659 76.0446C17.6742 75.8996 17.3969 75.8193 17.3339 75.8038L13.8271 74.8747C13.733 74.8461 13.6169 74.8264 13.4786 74.8157C13.1915 74.7935 13.0409 74.8728 13.0269 75.0536C13.0097 75.2769 13.1985 75.6018 13.5935 76.0282C13.6033 76.0396 13.6074 76.056 13.6058 76.0773C13.6033 76.1092 13.5853 76.1345 13.5518 76.1533C13.5076 76.1713 13.4703 76.1684 13.4401 76.1447C13.023 75.7273 12.725 75.3619 12.5459 75.0485C12.3677 74.7245 12.2905 74.4083 12.3143 74.0998C12.353 73.6 12.6541 73.3719 13.2178 73.4154C13.3773 73.4278 13.5515 73.4573 13.7405 73.504L15.1724 73.8714C14.276 73.4277 13.5963 72.9472 13.1335 72.43C12.6714 71.9022 12.4614 71.3671 12.5033 70.8247C12.56 70.0909 13.0298 69.7581 13.9125 69.8263C14.1145 69.8419 14.373 69.8887 14.688 69.9665L17.4868 70.7124C17.6438 70.7566 17.7702 70.7825 17.8659 70.7899C18.1106 70.8088 18.2394 70.7331 18.2526 70.563C18.2608 70.4566 18.222 70.336 18.1361 70.2009C18.0511 70.0553 17.9256 69.8798 17.7596 69.6744Z" fill="black"/>
<path d="M21.2231 61.1485C21.2098 61.189 21.1727 61.1993 21.112 61.1793C21.0512 61.1594 21.0274 61.1291 21.0407 61.0886C21.154 60.744 21.2136 60.4773 21.2196 60.2884C21.2255 60.0995 21.1709 59.9412 21.0557 59.8135C20.9336 59.6723 20.7306 59.5213 20.4466 59.3606L17.7031 57.8693C17.4935 57.7555 17.3634 57.6903 17.3127 57.6736C17.1303 57.6137 17.0125 57.6647 16.9592 57.8269C16.8959 58.0194 16.8992 58.4022 16.969 58.9754L16.9742 59.0108C16.9642 59.0412 16.9306 59.0582 16.8732 59.0618C16.8091 59.0519 16.7668 59.0268 16.7464 58.9864L16.2926 55.7046C16.279 55.6776 16.2873 55.6523 16.3176 55.6286C16.3478 55.6048 16.3765 55.603 16.4035 55.6232L20.8763 58.0534C21.0487 58.1438 21.1957 58.209 21.3173 58.2489C21.5605 58.3289 21.7476 58.3062 21.8787 58.1808C21.9996 58.0521 22.13 57.775 22.2699 57.3494C22.2832 57.3089 22.3202 57.2986 22.381 57.3186C22.4418 57.3386 22.4656 57.3688 22.4523 57.4093C22.3457 57.7336 22.2557 57.9903 22.1822 58.1795L21.8123 59.2537L21.4677 60.3531C21.4146 60.549 21.3331 60.8141 21.2231 61.1485Z" fill="black"/>
<path d="M19.8503 46.898C19.8401 46.8696 19.8373 46.8506 19.8418 46.8409C19.8555 46.812 19.8765 46.7924 19.9049 46.7822C19.9379 46.7624 19.9617 46.7619 19.9764 46.7806L21.1339 47.9641C21.2224 48.0766 21.2674 48.1687 21.269 48.2402C21.2752 48.3021 21.2509 48.3909 21.1963 48.5067L20.0526 51.1162C20.0025 51.2223 20.0313 51.3362 20.1391 51.4578L21.2355 52.4709C21.7739 51.3804 22.359 50.6658 22.9908 50.3271C23.6271 49.9788 24.2732 49.9595 24.9291 50.2691C25.0352 50.3192 25.2045 50.4228 25.4371 50.5798C26.1597 51.0979 26.6637 51.8667 26.9491 52.8861C27.2442 53.9101 27.3812 55.3313 27.3601 57.1498L27.3533 57.1642C27.335 57.2028 27.2973 57.2204 27.2399 57.2169C27.1922 57.2179 27.1678 57.1946 27.1668 57.1469C27.0794 55.8081 26.8528 54.7516 26.487 53.9773C26.1309 53.2076 25.6307 52.6057 24.9863 52.1717C24.7974 52.0471 24.6161 51.9438 24.4425 51.8619C23.8348 51.5749 23.2731 51.5279 22.7574 51.7209C22.232 51.9093 21.8099 52.341 21.4911 53.0162C21.4729 53.0548 21.4447 53.0769 21.4067 53.0826C21.359 53.0836 21.3156 53.0631 21.2765 53.0211L19.111 50.937C19.0526 50.8858 19.0231 50.8483 19.0226 50.8245C19.0124 50.7961 19.0207 50.741 19.0475 50.6593C19.4448 49.4432 19.7078 48.6237 19.8367 48.2009C19.9655 47.7781 20.0306 47.4903 20.0319 47.3376C20.0236 47.1804 19.9631 47.0338 19.8503 46.898Z" fill="black"/>
<path d="M32.6705 45.2389C32.6658 45.2623 32.6326 45.2702 32.5708 45.2627C32.5091 45.2551 32.4796 45.2322 32.4825 45.1938C32.5502 44.6382 32.4421 44.074 32.1581 43.5012C31.8741 42.9285 31.4184 42.2897 30.7912 41.5848L25.3043 35.5062C25.1556 35.3498 25.0308 35.2323 24.9298 35.1537C24.7447 35.0095 24.5834 34.9649 24.4458 35.02C24.3064 35.0602 24.1384 35.2065 23.9417 35.4589C23.9221 35.4842 23.887 35.4771 23.8365 35.4378C23.786 35.3985 23.7706 35.3662 23.7902 35.3409L24.2453 34.7827C24.5243 34.4592 24.7457 34.1923 24.9096 33.9819C25.0997 33.7379 25.3174 33.441 25.5627 33.0913L25.9827 32.526C26.0024 32.5008 26.0375 32.5078 26.088 32.5472C26.1384 32.5865 26.1539 32.6188 26.1342 32.644C25.9572 32.8712 25.8481 33.0634 25.8068 33.2206C25.7656 33.3777 25.7809 33.5316 25.8528 33.6823C25.9313 33.8245 26.0813 34.0225 26.3029 34.2762L31.4729 40.0066C32.0375 40.6356 32.4366 41.2169 32.6701 41.7503C32.9186 42.2818 33.0347 42.8184 33.0184 43.3601C33.0087 43.8933 32.8927 44.5196 32.6705 45.2389Z" fill="black"/>
<path d="M38.9104 32.0005C38.9106 31.9854 38.9182 31.9704 38.9334 31.9554C38.9562 31.9329 38.9902 31.9294 39.0353 31.9448C39.073 31.9526 39.0917 31.9716 39.0915 32.0018C39.1893 33.0736 39.0558 33.7892 38.6912 34.1486C38.4937 34.3432 38.2969 34.4323 38.1009 34.4158C37.8974 34.3917 37.6796 34.2619 37.4475 34.0264C37.3202 33.8972 37.1894 33.7417 37.0549 33.5597L36.428 32.65C36.7383 33.5423 36.8606 34.3578 36.7949 35.0965C36.7367 35.8277 36.5178 36.3805 36.1379 36.7549C35.9024 36.987 35.6451 37.0982 35.3661 37.0887C35.0871 37.0791 34.8054 36.93 34.5208 36.6413C34.0192 36.1323 33.6397 35.413 33.3825 34.4833C33.1254 33.5386 33.0378 32.614 33.1198 31.7095C33.2094 30.7975 33.4745 30.1243 33.9151 29.6901C34.0519 29.5553 34.2186 29.4434 34.4154 29.3543C34.6123 29.2501 34.8125 29.195 35.0162 29.1889C35.0558 28.9403 35.0462 28.6951 34.9876 28.4533C34.9879 28.4232 34.9956 28.4006 35.0108 28.3856C35.0335 28.3631 35.0638 28.3483 35.1016 28.341C35.1394 28.3337 35.1582 28.3377 35.1581 28.3527L38.035 32.5938C38.1095 32.715 38.1842 32.8136 38.2591 32.8896C38.4388 33.0719 38.5818 33.1106 38.6882 33.0058C38.8325 32.8636 38.9066 32.5284 38.9104 32.0005ZM36.0474 35.2042C36.2753 34.9796 36.3909 34.6334 36.3943 34.1658C36.3978 33.6831 36.3185 33.1847 36.1563 32.6706C35.9942 32.1415 35.7937 31.7025 35.5549 31.3538C35.4504 31.2022 35.3495 31.077 35.2521 30.9783C35.0125 30.7352 34.7721 30.6052 34.5309 30.5884C34.2897 30.5564 34.0704 30.6378 33.8729 30.8325C33.5234 31.1769 33.3991 31.6738 33.5 32.3232C33.601 32.9575 33.8941 33.6272 34.3792 34.3322C34.5808 34.6127 34.7415 34.8138 34.8613 34.9353C35.1084 35.186 35.3336 35.331 35.537 35.3702C35.7329 35.4018 35.903 35.3464 36.0474 35.2042Z" fill="black"/>
<path d="M47.3763 25.8288C47.3812 25.799 47.388 25.781 47.3967 25.7748C47.4227 25.7562 47.4568 25.758 47.499 25.7803C47.535 25.7939 47.5536 25.8199 47.5549 25.8583C47.5085 26.4164 47.4273 26.8616 47.3112 27.1941C47.2037 27.5203 47.0286 27.7704 46.7858 27.9444C46.3696 28.2425 45.9875 28.1488 45.6397 27.6632C45.5465 27.5331 45.4378 27.3355 45.3134 27.0703L44.2092 24.7319C44.0786 24.4581 43.9605 24.2474 43.8549 24.1C43.5506 23.6751 43.2597 23.562 42.9822 23.7608C42.7394 23.9347 42.6028 24.2753 42.5725 24.7825C42.5359 25.281 42.618 25.9176 42.8187 26.6923C43.028 27.4608 43.359 28.3259 43.8117 29.2875L43.9497 29.5626C44.0305 29.7671 43.8498 30.0277 43.4076 30.3445C43.1214 30.5495 42.9535 30.6173 42.9038 30.5479L42.7602 30.2375C42.555 29.7678 42.4381 29.5039 42.4095 29.4456L40.865 26.163C40.8265 26.0725 40.7668 25.9709 40.6861 25.8582C40.5183 25.6241 40.3608 25.5598 40.2134 25.6654C40.0313 25.7958 39.904 26.1494 39.8316 26.7261C39.8292 26.741 39.8193 26.7546 39.8019 26.767C39.7759 26.7857 39.7449 26.7882 39.7089 26.7746C39.6667 26.7523 39.645 26.722 39.6437 26.6835C39.695 26.0957 39.7831 25.6325 39.9078 25.2938C40.0413 24.9489 40.2338 24.6864 40.4852 24.5063C40.8928 24.2143 41.2612 24.2982 41.5904 24.7577C41.6836 24.8878 41.773 25.0402 41.8588 25.2149L42.4986 26.5477C42.2617 25.5759 42.1924 24.7464 42.2907 24.0593C42.3976 23.366 42.6722 22.861 43.1145 22.5442C43.7128 22.1156 44.2697 22.2612 44.7853 22.9809C44.9033 23.1457 45.0338 23.3737 45.1768 23.6649L46.406 26.2876C46.4732 26.4363 46.5347 26.5497 46.5906 26.6278C46.7335 26.8272 46.8743 26.8772 47.013 26.7779C47.0997 26.7157 47.1672 26.6084 47.2153 26.4558C47.2722 26.297 47.3258 26.088 47.3763 25.8288Z" fill="black"/>
<path d="M55.3483 23.0271C55.9439 21.8383 56.3722 20.9512 56.6334 20.3656C56.9044 19.7761 57.086 19.2794 57.1783 18.8756C57.2765 18.4579 57.2904 18.0737 57.2201 17.7229C57.177 17.5564 57.1417 17.4384 57.1141 17.369C57.004 17.0914 56.8491 16.889 56.6494 16.7616C56.4497 16.6343 56.2209 16.6218 55.9631 16.7241C55.6558 16.846 55.4322 17.1068 55.2925 17.5066C55.1587 17.8924 55.0641 18.4349 55.0086 19.134C55.0026 19.1478 54.9897 19.1587 54.9699 19.1665C54.9402 19.1783 54.9084 19.1852 54.8748 19.1871C54.8372 19.179 54.8174 19.1582 54.8155 19.1245L54.7725 16.4563L54.8202 16.4029C54.8598 16.3872 54.8935 16.3853 54.9212 16.3973C54.9588 16.4053 54.9805 16.4311 54.9863 16.4747C54.9958 16.6431 55.0084 16.7471 55.0241 16.7868C55.0595 16.876 55.1218 16.9029 55.211 16.8675C55.3003 16.8321 55.4253 16.7424 55.5862 16.5982C55.9337 16.2882 56.2661 16.0703 56.5833 15.9444C57.0196 15.7713 57.4 15.7466 57.7245 15.8703C58.045 15.9841 58.2741 16.2145 58.4118 16.5616C58.5534 16.9185 58.5921 17.2761 58.5277 17.6345C58.4693 17.9789 58.3544 18.3114 58.1832 18.6318C58.008 18.9423 57.7633 19.3378 57.449 19.8182C57.2779 20.0812 57.1058 20.356 56.9327 20.6427C56.7655 20.9156 56.6281 21.1767 56.5205 21.426C56.4986 21.4576 56.5025 21.4675 56.5323 21.4557C57.5832 21.0387 58.327 20.6862 58.7636 20.3983C59.2001 20.1103 59.422 19.7584 59.4291 19.3424C59.4251 19.3325 59.4381 19.3216 59.4678 19.3098C59.4975 19.298 59.5263 19.2981 59.554 19.3101C59.5876 19.3082 59.6035 19.3191 59.6014 19.3429L59.7144 21.4497C59.7262 21.4795 59.7261 21.5082 59.7141 21.5359C59.7121 21.5597 59.6912 21.5794 59.6516 21.5952L55.5468 23.2237C55.4973 23.2434 55.4527 23.2324 55.4132 23.1907C55.3698 23.1391 55.3482 23.0845 55.3483 23.0271Z" fill="black"/>
<path d="M65.7076 20.1294C64.9509 20.313 64.2827 20.2282 63.703 19.8749C63.1209 19.5113 62.738 18.9511 62.5544 18.1944C62.494 17.9456 62.4581 17.7073 62.4468 17.4796C62.4124 16.8403 62.5136 16.2395 62.7503 15.6772C62.987 15.1148 63.3267 14.6373 63.7692 14.2445C64.2221 13.8492 64.7388 13.5812 65.3193 13.4403C66.0656 13.2592 66.7222 13.3414 67.289 13.6868C67.8532 14.0219 68.2271 14.5678 68.4108 15.3245C68.4736 15.5836 68.5108 15.8271 68.5221 16.0548C68.5486 16.7069 68.4448 17.3194 68.2106 17.8921C67.9867 18.4623 67.6535 18.9438 67.211 19.3365C66.7788 19.7268 66.2777 19.9911 65.7076 20.1294ZM65.8964 19.7543C66.3422 19.6461 66.655 19.3068 66.8348 18.7363C67.0122 18.1554 67.0611 17.4521 66.9814 16.6262C66.9326 16.199 66.8755 15.8507 66.8101 15.5811C66.6542 14.9385 66.4286 14.4609 66.1332 14.1484C65.8379 13.8359 65.514 13.7224 65.1615 13.8079C64.7365 13.911 64.4133 14.2529 64.192 14.8334C63.9785 15.4011 63.9102 16.1147 63.987 16.9741C64.0135 17.2641 64.0669 17.5749 64.1474 17.9066C64.3034 18.5493 64.5328 19.0424 64.8357 19.386C65.1386 19.7296 65.4922 19.8524 65.8964 19.7543Z" fill="black"/>
<path d="M71.9624 18.5228C72.8646 17.5461 73.5224 16.8127 73.9358 16.3227C74.3599 15.8316 74.6722 15.4049 74.873 15.0425C75.0833 14.6686 75.2033 14.3033 75.2332 13.9468C75.238 13.7749 75.2368 13.6517 75.2296 13.5774C75.2008 13.2801 75.1082 13.0426 74.9517 12.8648C74.7952 12.6871 74.5789 12.6116 74.3029 12.6382C73.9738 12.6701 73.6866 12.8586 73.4413 13.2038C73.2057 13.5374 72.9642 14.0322 72.7169 14.6884C72.7073 14.7001 72.6919 14.7069 72.6706 14.709C72.6388 14.712 72.6064 14.7098 72.5735 14.7023C72.5396 14.6841 72.5264 14.6586 72.534 14.6257L73.2334 12.0505L73.294 12.0124C73.3364 12.0083 73.3693 12.0159 73.3926 12.0351C73.4265 12.0532 73.4402 12.084 73.4337 12.1275C73.396 12.2919 73.3792 12.3954 73.3833 12.4378C73.3926 12.5334 73.445 12.5765 73.5405 12.5673C73.6361 12.5581 73.7811 12.5065 73.9757 12.4127C74.3956 12.2113 74.7754 12.0942 75.1151 12.0614C75.5823 12.0162 75.9546 12.0981 76.232 12.307C76.5083 12.5054 76.6645 12.7903 76.7004 13.1619C76.7374 13.5441 76.6752 13.8984 76.5139 14.2248C76.3621 14.5395 76.1595 14.827 75.9061 15.0873C75.6516 15.337 75.3067 15.6489 74.8713 16.0232C74.634 16.2284 74.3923 16.4446 74.1464 16.672C73.9101 16.8878 73.7056 17.1005 73.533 17.31C73.5032 17.3344 73.5042 17.345 73.5361 17.3419C74.6615 17.2331 75.4739 17.1009 75.9732 16.9455C76.4726 16.79 76.7834 16.5135 76.9057 16.1159C76.9047 16.1053 76.9201 16.0984 76.9519 16.0953C76.9838 16.0922 77.0114 16.1003 77.0346 16.1195C77.0675 16.127 77.0797 16.1419 77.0711 16.1642L76.5947 18.2196C76.5978 18.2514 76.5898 18.279 76.5706 18.3023C76.562 18.3245 76.5365 18.3377 76.494 18.3418L72.0985 18.7669C72.0455 18.772 72.0057 18.7491 71.9794 18.698C71.952 18.6364 71.9463 18.578 71.9624 18.5228Z" fill="black"/>
<path d="M79.9868 18.0465C81.0089 17.1962 81.757 16.5551 82.2309 16.1233C82.7155 15.6919 83.081 15.3097 83.3274 14.9767C83.5848 14.6334 83.7516 14.287 83.8278 13.9374C83.8551 13.7676 83.87 13.6454 83.8726 13.5708C83.8829 13.2723 83.8222 13.0247 83.6903 12.828C83.5583 12.6313 83.3538 12.5281 83.0766 12.5185C82.7462 12.507 82.4368 12.6564 82.1485 12.9665C81.8713 13.2664 81.5671 13.7255 81.2361 14.3437C81.2251 14.354 81.2089 14.3587 81.1876 14.358C81.1556 14.3569 81.1238 14.3504 81.0922 14.3387C81.061 14.3162 81.0513 14.2892 81.063 14.2576L82.0931 11.7959L82.1582 11.7661C82.2008 11.7676 82.2325 11.7794 82.253 11.8015C82.2843 11.8239 82.2938 11.8562 82.2817 11.8985C82.2228 12.0566 82.1927 12.1569 82.1912 12.1996C82.1878 12.2955 82.2341 12.3451 82.3301 12.3485C82.426 12.3518 82.5766 12.3197 82.7817 12.2521C83.2243 12.1074 83.6162 12.0409 83.9573 12.0528C84.4264 12.0691 84.7848 12.199 85.0325 12.4424C85.2805 12.6751 85.3981 12.9781 85.3851 13.3512C85.3718 13.7349 85.2638 14.0781 85.0612 14.3805C84.8696 14.6727 84.6311 14.9313 84.3458 15.1562C84.0609 15.3704 83.6781 15.6346 83.1976 15.9488C82.9354 16.1211 82.6676 16.3039 82.394 16.4972C82.1315 16.6802 81.901 16.8643 81.7025 17.0495C81.6697 17.0697 81.6694 17.0804 81.7013 17.0815C82.8313 17.1208 83.654 17.096 84.1694 17.0072C84.6848 16.9183 85.0291 16.6848 85.2024 16.3066C85.2027 16.2959 85.2189 16.2912 85.2509 16.2923C85.2829 16.2934 85.3092 16.305 85.3297 16.327C85.3613 16.3388 85.3714 16.3552 85.36 16.3761L84.619 18.3516C84.6179 18.3836 84.6063 18.4098 84.5842 18.4304C84.5728 18.4514 84.5458 18.4611 84.5032 18.4596L80.0898 18.3063C80.0365 18.3044 80.0001 18.2765 79.9807 18.2224C79.9616 18.1577 79.9636 18.0991 79.9868 18.0465Z" fill="black"/>
<path d="M95.4899 20.4648C95.242 20.4006 94.9569 20.3103 94.6345 20.1938C94.5132 20.1514 94.361 20.101 94.1778 20.0426C93.9946 19.9841 93.7842 19.9242 93.5467 19.8627L92.5204 19.6136C92.3525 19.5812 92.1188 19.5262 91.8194 19.4487C91.7884 19.4407 91.7809 19.4057 91.7969 19.3438C91.813 19.2818 91.8365 19.2548 91.8675 19.2628C92.1566 19.3377 92.375 19.3666 92.5226 19.3498C92.6805 19.3355 92.8143 19.2655 92.924 19.1396C93.0337 19.0138 93.161 18.7988 93.3058 18.4947L96.432 11.6517C96.5428 11.3939 96.6076 11.2289 96.6263 11.1566C96.6824 10.9398 96.6579 10.7792 96.5527 10.6748C96.4501 10.5601 96.244 10.4627 95.9342 10.3825C95.9135 10.3772 95.9112 10.3435 95.9272 10.2816C95.9433 10.2196 95.9616 10.1913 95.9823 10.1966L96.7063 10.4005C97.114 10.5281 97.4521 10.6266 97.7206 10.6961C98.0097 10.7709 98.3132 10.833 98.631 10.8821C99.0494 10.9684 99.3515 11.0356 99.5374 11.0837C100.405 11.3082 101.122 11.6647 101.69 12.1532C102.261 12.6313 102.641 13.2036 102.832 13.8701C103.036 14.5289 103.041 15.2353 102.846 15.9891C102.758 16.3299 102.653 16.6278 102.532 16.8829C102.1 17.8288 101.489 18.6129 100.7 19.235C99.9241 19.8495 99.0734 20.2629 98.1481 20.4751C97.2227 20.6874 96.3366 20.6839 95.4899 20.4648ZM95.5081 20.139C96.4994 20.3955 97.4567 20.2301 98.38 19.6427C99.3163 19.0476 100.087 18.0903 100.693 16.7707C100.87 16.3867 101.018 15.9623 101.139 15.4976C101.398 14.496 101.393 13.6189 101.125 12.8664C100.86 12.1036 100.258 11.6006 99.3178 11.3574C98.9461 11.2612 98.6627 11.2705 98.4677 11.3853C98.2754 11.4898 98.1002 11.7199 97.942 12.0756L94.8989 18.7252C94.8251 18.8824 94.7722 19.023 94.7401 19.1469C94.6733 19.4051 94.6962 19.6148 94.8087 19.7761C94.9238 19.9272 95.157 20.0481 95.5081 20.139Z" fill="black"/>
<path d="M110.256 19.2325C110.509 19.3453 110.707 19.5441 110.849 19.829C111 20.1183 111.004 20.3712 110.861 20.5877C110.777 20.7252 110.648 20.8313 110.474 20.9059C110.301 20.9805 110.127 20.9788 109.951 20.9007C109.776 20.8226 109.623 20.6552 109.492 20.3985C109.445 20.3194 109.396 20.2452 109.346 20.1758C109.295 20.1065 109.235 20.0566 109.167 20.0263C109.001 19.9525 108.682 20.1197 108.208 20.5277C107.735 20.9357 107.225 21.4504 106.68 22.0718C106.149 22.6877 105.714 23.2469 105.373 23.7492L105.367 23.7638C105.308 23.8428 105.2 23.8764 105.042 23.8643C104.879 23.8621 104.671 23.8046 104.418 23.6918C104.096 23.5486 103.953 23.4381 103.988 23.3601C104.028 23.2963 104.122 23.1631 104.271 22.9607C104.429 22.7626 104.573 22.5699 104.703 22.3826L106.753 19.3897C106.842 19.2424 106.897 19.1445 106.919 19.0957C107.041 18.8229 107.014 18.6474 106.838 18.5693C106.643 18.4826 106.279 18.5538 105.745 18.7831C105.731 18.7886 105.714 18.7869 105.694 18.7782C105.655 18.7609 105.633 18.7333 105.626 18.6954C105.624 18.6477 105.644 18.6158 105.686 18.5995C106.219 18.3464 106.664 18.188 107.019 18.1243C107.384 18.0649 107.708 18.0982 107.99 18.224C108.234 18.3324 108.379 18.4787 108.425 18.6628C108.476 18.8372 108.445 19.0511 108.332 19.3045C108.267 19.4507 108.181 19.6049 108.074 19.7673L107.066 21.2451C108.491 19.591 109.554 18.9202 110.256 19.2325Z" fill="black"/>
<path d="M112.737 28.2997C112.14 27.9262 111.803 27.4505 111.724 26.8726C111.66 26.2914 111.82 25.6934 112.205 25.0786C112.375 24.8074 112.55 24.5774 112.731 24.3887C113.17 23.9085 113.668 23.5465 114.223 23.3027C114.787 23.0645 115.351 22.9581 115.914 22.9833C116.477 23.0086 116.998 23.1713 117.477 23.4712C118.083 23.8504 118.428 24.3244 118.513 24.8932C118.612 25.4586 118.469 26.0487 118.084 26.6635C117.931 26.9076 117.743 27.1483 117.519 27.3856C117.028 27.9088 116.491 28.2838 115.908 28.5106C115.341 28.7341 114.776 28.8213 114.216 28.7723C113.664 28.7289 113.171 28.5714 112.737 28.2997ZM113.41 28.2493C113.7 28.4304 114.053 28.4188 114.47 28.2145C114.897 28.0158 115.341 27.6582 115.803 27.1419C116.087 26.8289 116.342 26.4915 116.568 26.1299C116.936 25.5422 117.146 25.0064 117.197 24.5225C117.257 24.0443 117.134 23.709 116.826 23.5165C116.555 23.3468 116.212 23.3522 115.797 23.5328C115.391 23.719 114.938 24.0901 114.439 24.6461C114.155 24.959 113.9 25.2964 113.673 25.658C113.306 26.2457 113.091 26.7787 113.031 27.2569C112.977 27.7261 113.103 28.0569 113.41 28.2493Z" fill="black"/>
<path d="M125.706 30.1127C126.128 30.4723 126.352 30.8516 126.376 31.2507C126.409 31.6567 126.248 32.0668 125.896 32.4809C125.778 32.619 125.645 32.7507 125.496 32.8762C124.952 33.3511 124.325 33.7002 123.617 33.9235C122.923 34.1455 122.24 34.2154 121.568 34.1331C120.903 34.0577 120.352 33.8332 119.913 33.4598C119.783 33.3491 119.628 33.2027 119.447 33.0205L117.2 34.869C117.002 35.0362 116.885 35.1401 116.851 35.1807C116.747 35.3025 116.703 35.412 116.718 35.5091C116.726 35.6144 116.796 35.7224 116.925 35.833C116.966 35.8676 117.058 35.9321 117.202 36.0265C117.235 36.0542 117.238 36.0918 117.211 36.1393C117.193 36.1937 117.164 36.2112 117.124 36.1916L114.488 34.5982C114.457 34.5856 114.458 34.5515 114.492 34.4958C114.517 34.4333 114.549 34.4118 114.589 34.4313C114.786 34.529 114.945 34.5806 115.066 34.586C115.181 34.5995 115.307 34.5667 115.444 34.4876C115.582 34.4085 115.785 34.2597 116.056 34.0413L122.072 29.0986C121.819 29.0508 121.494 29.0125 121.098 28.9837C121.083 28.9849 121.068 28.9786 121.051 28.9648C121.019 28.9371 121.008 28.9001 121.02 28.8538C121.031 28.8075 121.063 28.786 121.117 28.7893C121.663 28.8061 122.07 28.8302 122.337 28.8618L123.221 28.1439C123.235 28.1277 123.346 28.1377 123.553 28.1741C123.898 28.2297 124.199 28.2623 124.457 28.2719C124.716 28.2815 124.931 28.2264 125.103 28.1067C125.138 28.0811 125.173 28.0897 125.207 28.1324C125.249 28.182 125.252 28.2196 125.216 28.2451L124.023 29.226C124.69 29.4298 125.251 29.7254 125.706 30.1127ZM124.057 32.3445C124.198 32.2122 124.3 32.1095 124.362 32.0364C124.659 31.6872 124.82 31.3338 124.844 30.9762C124.877 30.6255 124.714 30.2981 124.357 29.9938C124.138 29.807 123.903 29.6556 123.651 29.5396L119.968 32.5815C120.139 32.9234 120.375 33.2223 120.675 33.4782C121.065 33.8101 121.55 33.8658 122.13 33.6453C122.717 33.4167 123.36 32.9831 124.057 32.3445Z" fill="black"/>
<path d="M132.452 37.3901C132.817 37.8071 132.983 38.2148 132.95 38.6132C132.923 39.0196 132.705 39.4022 132.296 39.7609C132.16 39.8805 132.009 39.9915 131.844 40.094C131.236 40.4851 130.565 40.7397 129.832 40.858C129.114 40.9772 128.428 40.9474 127.774 40.7685C127.128 40.5977 126.615 40.2957 126.235 39.8627C126.123 39.7344 125.99 39.5669 125.837 39.3604L123.346 40.8639C123.126 41.0006 122.995 41.0866 122.955 41.1217C122.835 41.2272 122.775 41.3292 122.777 41.4275C122.77 41.5329 122.822 41.6497 122.935 41.778C122.97 41.8181 123.052 41.8953 123.181 42.0095C123.209 42.0416 123.206 42.0792 123.173 42.1224C123.147 42.1736 123.116 42.1867 123.08 42.1617L120.703 40.2032C120.673 40.1862 120.679 40.1525 120.721 40.1023C120.755 40.0441 120.79 40.0275 120.826 40.0525C121.007 40.1777 121.157 40.2518 121.276 40.2748C121.388 40.3047 121.517 40.2906 121.664 40.2322C121.812 40.1738 122.035 40.0562 122.334 39.8792L129.003 35.8603C128.759 35.7763 128.443 35.6914 128.056 35.6055C128.041 35.6045 128.026 35.596 128.012 35.58C127.984 35.5479 127.979 35.5098 127.997 35.4656C128.015 35.4214 128.05 35.4048 128.102 35.4158C128.64 35.5115 129.039 35.5943 129.299 35.6643L130.278 35.0822C130.295 35.0681 130.402 35.0941 130.602 35.1601C130.935 35.265 131.229 35.341 131.483 35.3878C131.737 35.4347 131.958 35.4114 132.145 35.3178C132.184 35.2977 132.217 35.3112 132.245 35.3584C132.279 35.4135 132.276 35.4511 132.237 35.4713L130.915 36.269C131.546 36.5673 132.058 36.941 132.452 37.3901ZM130.497 39.3596C130.656 39.249 130.771 39.1621 130.843 39.0988C131.188 38.7964 131.398 38.47 131.474 38.1197C131.557 37.7774 131.444 37.4299 131.134 37.077C130.944 36.8605 130.733 36.6766 130.501 36.5254L126.416 39.0015C126.536 39.3646 126.726 39.6945 126.986 39.9913C127.324 40.3762 127.796 40.5016 128.402 40.3674C129.016 40.2262 129.714 39.8903 130.497 39.3596Z" fill="black"/>
<path d="M138.139 42.5101C137.984 42.2806 137.924 42.0503 137.961 41.8193C138.012 41.5911 138.157 41.3961 138.396 41.2345C138.607 41.0908 138.824 41.0402 139.047 41.0828C139.275 41.1342 139.467 41.2747 139.622 41.5042C139.778 41.7338 139.832 41.9552 139.783 42.1686C139.741 42.3909 139.613 42.5738 139.401 42.7175C139.154 42.8852 138.92 42.9477 138.697 42.9051C138.481 42.8713 138.295 42.7397 138.139 42.5101ZM130.811 46.1854C130.524 45.7617 130.627 45.3821 131.121 45.0468C131.254 44.957 131.454 44.8534 131.722 44.7358L134.845 43.4107C134.987 43.3533 135.097 43.2977 135.176 43.2438C135.291 43.166 135.36 43.087 135.383 43.007C135.415 42.9209 135.407 42.8426 135.359 42.772C135.233 42.5866 134.886 42.4547 134.317 42.3764C134.303 42.3736 134.289 42.3634 134.277 42.3457C134.253 42.3104 134.249 42.2749 134.263 42.2393C134.286 42.1977 134.317 42.1767 134.356 42.1764C134.942 42.2428 135.406 42.347 135.747 42.4893C136.089 42.6315 136.343 42.8262 136.511 43.0734C136.798 43.4971 136.712 43.8647 136.253 44.176C136.103 44.2778 135.941 44.3619 135.767 44.4284L132.477 45.8481C132.385 45.8844 132.278 45.9444 132.154 46.0282C131.943 46.1719 131.881 46.31 131.971 46.4424C132.031 46.5307 132.137 46.6008 132.288 46.6529C132.445 46.7137 132.653 46.7727 132.911 46.8298C132.94 46.8355 132.961 46.8472 132.973 46.8649C132.991 46.8913 132.988 46.9254 132.965 46.967C132.951 47.0026 132.921 47.0162 132.877 47.0076C132.32 46.947 131.877 46.8544 131.548 46.7298C131.224 46.614 130.979 46.4326 130.811 46.1854Z" fill="black"/>
<path d="M137.732 56.0303C137.761 56.0397 137.778 56.0492 137.782 56.0587C137.797 56.0873 137.79 56.1207 137.761 56.159C137.742 56.1924 137.714 56.2068 137.676 56.2022C137.131 56.0705 136.704 55.9217 136.393 55.7558C136.087 55.5995 135.867 55.3879 135.733 55.1213C135.502 54.6641 135.654 54.3011 136.187 54.0321C136.33 53.96 136.542 53.883 136.823 53.8009L139.303 53.0696C139.594 52.9827 139.82 52.8985 139.982 52.8168C140.449 52.5815 140.605 52.3114 140.452 52.0066C140.317 51.74 140.002 51.5526 139.505 51.4446C139.018 51.3318 138.377 51.315 137.58 51.394C136.789 51.4827 135.883 51.6766 134.863 51.9759L134.57 52.0699C134.356 52.1184 134.126 51.8997 133.881 51.414C133.722 51.0997 133.681 50.9233 133.757 50.8849L134.086 50.7908C134.582 50.6603 134.861 50.5853 134.923 50.5661L138.404 49.5451C138.499 49.5209 138.609 49.4776 138.733 49.4152C138.99 49.2855 139.078 49.1397 138.996 48.9778C138.895 48.7778 138.565 48.5976 138.007 48.4374C137.992 48.4326 137.98 48.4208 137.971 48.4017C137.956 48.3731 137.958 48.3421 137.977 48.3087C138.006 48.2704 138.039 48.2536 138.077 48.2582C138.65 48.3994 139.095 48.5576 139.41 48.733C139.73 48.918 139.96 49.1485 140.099 49.4247C140.325 49.8724 140.186 50.2235 139.681 50.478C139.538 50.5501 139.374 50.6151 139.188 50.6729L137.772 51.1C138.769 51.0155 139.599 51.0746 140.263 51.2774C140.932 51.4898 141.389 51.8388 141.633 52.3245C141.965 52.9817 141.735 53.5096 140.945 53.9083C140.764 53.9995 140.519 54.0934 140.209 54.1899L137.428 55.0009C137.271 55.0444 137.149 55.0878 137.064 55.131C136.845 55.2415 136.774 55.3729 136.85 55.5253C136.898 55.6205 136.994 55.7037 137.137 55.7747C137.286 55.8553 137.484 55.9405 137.732 56.0303Z" fill="black"/>
<path d="M145.236 62.7326C145.253 62.7833 145.18 62.8353 145.018 62.8886C144.846 62.9452 144.66 62.9781 144.461 62.9874C144.265 63.0069 144.176 62.9913 144.193 62.9408C144.309 62.5432 144.308 62.1283 144.188 61.6961C143.971 62.0257 143.644 62.2622 143.209 62.4054C143.006 62.472 142.817 62.5117 142.641 62.5245C141.916 62.6058 141.26 62.4563 140.675 62.0761C140.1 61.6925 139.711 61.1917 139.507 60.5736C139.464 60.4418 139.438 60.3439 139.428 60.2798C139.286 60.259 139.18 60.2602 139.109 60.2835C138.846 60.3364 138.661 60.4925 138.556 60.7518C138.463 61.0179 138.377 61.4223 138.297 61.965C138.235 62.4235 138.171 62.7926 138.106 63.0723C138.034 63.3654 137.909 63.6365 137.733 63.8853C137.556 64.1342 137.306 64.312 136.982 64.4185C136.516 64.5718 136.054 64.5496 135.596 64.3521C135.138 64.1545 134.728 63.829 134.365 63.3755C134.003 62.922 133.723 62.3963 133.527 61.7984C133.284 61.0587 133.239 60.4277 133.393 59.9055C133.537 59.3867 133.827 59.0556 134.262 58.9124C134.668 58.7792 135.106 58.8316 135.577 59.0697C136.038 59.3111 136.555 59.7028 137.126 60.2449C137.249 59.8002 137.447 59.5328 137.721 59.4429C137.934 59.3729 138.175 59.3891 138.444 59.4914C138.714 59.5938 139.034 59.7637 139.404 60.0014C139.388 59.6134 139.496 59.2749 139.727 58.9857C139.967 58.6933 140.285 58.4821 140.68 58.3522C140.792 58.3156 140.976 58.2775 141.232 58.2381C141.911 58.1499 142.541 58.2908 143.123 58.6609C143.715 59.0276 144.118 59.5353 144.331 60.1838C144.474 60.6196 144.484 61.0092 144.362 61.3527C144.791 61.8065 145.083 62.2665 145.236 62.7326ZM142.07 61.2471C142.279 61.2007 142.445 61.1575 142.566 61.1176C142.992 60.9777 143.338 60.802 143.606 60.5906C143.873 60.3792 143.968 60.157 143.892 59.9239C143.819 59.701 143.578 59.5499 143.17 59.4706C142.762 59.3914 142.297 59.4097 141.774 59.5255C141.524 59.5852 141.348 59.6317 141.247 59.665C140.801 59.8116 140.458 59.9974 140.217 60.2224C139.987 60.444 139.905 60.6562 139.972 60.8589C140.045 61.0818 140.274 61.2312 140.658 61.307C141.056 61.3896 141.526 61.3696 142.07 61.2471ZM135.858 63.407C136.233 63.2837 136.49 63.0419 136.63 62.6816C136.77 62.3213 136.883 61.8293 136.97 61.2056C136.988 60.9527 137.023 60.7167 137.074 60.4977C136.401 60.0564 135.766 59.934 135.168 60.1305C134.732 60.2737 134.429 60.5642 134.259 61.002C134.088 61.4398 134.086 61.9121 134.253 62.4187C134.406 62.8849 134.636 63.1911 134.942 63.3374C135.238 63.4871 135.544 63.5102 135.858 63.407Z" fill="black"/>
<path d="M140.515 75.6964C140.461 74.9944 140.642 74.4401 141.06 74.0334C141.49 73.6364 142.066 73.41 142.789 73.3541C143.108 73.3295 143.397 73.3338 143.657 73.3673C144.304 73.4349 144.89 73.6196 145.417 73.9213C145.944 74.2336 146.364 74.6237 146.679 75.0915C146.993 75.5594 147.172 76.0751 147.215 76.6387C147.27 77.3513 147.094 77.9105 146.687 78.3165C146.291 78.7322 145.732 78.968 145.009 79.0239C144.721 79.0461 144.416 79.0376 144.092 78.9985C143.379 78.9145 142.759 78.7057 142.23 78.3721C141.713 78.0483 141.307 77.6464 141.014 77.1663C140.721 76.6968 140.554 76.2068 140.515 75.6964ZM140.956 76.2079C140.982 76.5482 141.201 76.8255 141.614 77.0397C142.027 77.2645 142.578 77.4091 143.268 77.4735C143.688 77.5158 144.111 77.5206 144.537 77.4877C145.228 77.4343 145.784 77.2844 146.203 77.0379C146.624 76.8022 146.82 76.5035 146.792 76.1419C146.767 75.8229 146.559 75.5501 146.167 75.3236C145.776 75.1078 145.208 74.9644 144.465 74.8936C144.044 74.8512 143.621 74.8464 143.196 74.8793C142.505 74.9327 141.949 75.0773 141.528 75.3131C141.119 75.5481 140.928 75.8463 140.956 76.2079Z" fill="black"/>
<path d="M141.509 89.4165C141.529 89.4394 141.538 89.4562 141.537 89.4668C141.535 89.4987 141.511 89.5236 141.467 89.5416C141.434 89.5604 141.402 89.558 141.371 89.5342C140.974 89.1398 140.685 88.7911 140.505 88.4884C140.325 88.1962 140.246 87.9013 140.269 87.6035C140.308 87.093 140.626 86.8608 141.222 86.9069C141.381 86.9192 141.602 86.963 141.885 87.0384L144.386 87.6971C144.68 87.7733 144.917 87.8184 145.098 87.8323C145.619 87.8726 145.893 87.7226 145.919 87.3823C145.942 87.0845 145.769 86.7609 145.4 86.4114C145.042 86.0628 144.502 85.7161 143.779 85.3714C143.056 85.0374 142.181 84.7343 141.154 84.4624L140.854 84.3911C140.646 84.3215 140.562 84.0155 140.604 83.4731C140.631 83.1221 140.688 82.9499 140.773 82.9565L141.103 83.0462C141.594 83.1912 141.872 83.2715 141.935 83.287L145.441 84.2161C145.536 84.2447 145.652 84.2644 145.79 84.2751C146.077 84.2973 146.228 84.218 146.242 84.0372C146.259 83.8139 146.07 83.489 145.675 83.0626C145.665 83.0512 145.661 83.0348 145.663 83.0136C145.665 82.9817 145.683 82.9563 145.717 82.9375C145.761 82.9195 145.798 82.9224 145.828 82.9461C146.246 83.3635 146.544 83.7289 146.723 84.0423C146.901 84.3663 146.978 84.6826 146.954 84.991C146.916 85.4908 146.614 85.719 146.051 85.6754C145.891 85.663 145.717 85.6335 145.528 85.5868L144.096 85.2194C144.993 85.6631 145.672 86.1436 146.135 86.6608C146.597 87.1887 146.807 87.7238 146.765 88.2661C146.709 89 146.239 89.3327 145.356 89.2645C145.154 89.2489 144.896 89.2022 144.581 89.1243L141.782 88.3784C141.625 88.3342 141.498 88.3084 141.403 88.301C141.158 88.282 141.029 88.3577 141.016 88.5278C141.008 88.6342 141.047 88.7549 141.132 88.8899C141.217 89.0355 141.343 89.2111 141.509 89.4165Z" fill="black"/>
<path d="M138.045 97.9422C138.059 97.9016 138.096 97.8914 138.157 97.9114C138.217 97.9313 138.241 97.9616 138.228 98.0021C138.115 98.3467 138.055 98.6134 138.049 98.8023C138.043 98.9912 138.098 99.1495 138.213 99.2772C138.335 99.4184 138.538 99.5694 138.822 99.7301L141.565 101.221C141.775 101.335 141.905 101.4 141.956 101.417C142.138 101.477 142.256 101.426 142.309 101.264C142.373 101.071 142.369 100.688 142.3 100.115L142.294 100.08C142.304 100.05 142.338 100.033 142.395 100.029C142.459 100.039 142.502 100.064 142.522 100.104L142.976 103.386C142.99 103.413 142.981 103.438 142.951 103.462C142.921 103.486 142.892 103.488 142.865 103.468L138.392 101.037C138.22 100.947 138.073 100.882 137.951 100.842C137.708 100.762 137.521 100.785 137.39 100.91C137.269 101.039 137.139 101.316 136.999 101.741C136.985 101.782 136.948 101.792 136.888 101.772C136.827 101.752 136.803 101.722 136.816 101.681C136.923 101.357 137.013 101.1 137.086 100.911L137.456 99.837L137.801 98.7376C137.854 98.5417 137.935 98.2766 138.045 97.9422Z" fill="black"/>
<path d="M139.418 112.193C139.428 112.221 139.431 112.24 139.427 112.25C139.413 112.279 139.392 112.298 139.364 112.309C139.331 112.328 139.307 112.329 139.292 112.31L138.135 111.127C138.046 111.014 138.001 110.922 138 110.851C137.993 110.789 138.018 110.7 138.072 110.584L139.216 107.975C139.266 107.869 139.237 107.755 139.129 107.633L138.033 106.62C137.495 107.71 136.91 108.425 136.278 108.764C135.641 109.112 134.995 109.131 134.339 108.822C134.233 108.772 134.064 108.668 133.831 108.511C133.109 107.993 132.605 107.224 132.319 106.205C132.024 105.181 131.887 103.759 131.908 101.941L131.915 101.927C131.934 101.888 131.971 101.87 132.029 101.874C132.076 101.873 132.101 101.896 132.102 101.944C132.189 103.283 132.416 104.339 132.782 105.114C133.138 105.883 133.638 106.485 134.282 106.919C134.471 107.044 134.652 107.147 134.826 107.229C135.434 107.516 135.995 107.563 136.511 107.37C137.037 107.182 137.459 106.75 137.777 106.075C137.796 106.036 137.824 106.014 137.862 106.008C137.91 106.007 137.953 106.028 137.992 106.07L140.158 108.154C140.216 108.205 140.245 108.243 140.246 108.266C140.256 108.295 140.248 108.35 140.221 108.432C139.824 109.648 139.561 110.467 139.432 110.89C139.303 111.313 139.238 111.6 139.237 111.753C139.245 111.91 139.305 112.057 139.418 112.193Z" fill="black"/>
<path d="M126.598 113.852C126.603 113.828 126.636 113.821 126.698 113.828C126.759 113.836 126.789 113.859 126.786 113.897C126.718 114.453 126.826 115.017 127.11 115.589C127.394 116.162 127.85 116.801 128.477 117.506L133.964 123.585C134.113 123.741 134.238 123.858 134.339 123.937C134.524 124.081 134.685 124.126 134.823 124.071C134.962 124.031 135.13 123.884 135.327 123.632C135.347 123.607 135.382 123.614 135.432 123.653C135.483 123.692 135.498 123.725 135.478 123.75L135.023 124.308C134.744 124.631 134.523 124.898 134.359 125.109C134.169 125.353 133.951 125.65 133.706 125.999L133.286 126.565C133.266 126.59 133.231 126.583 133.181 126.544C133.13 126.504 133.115 126.472 133.134 126.447C133.311 126.219 133.42 126.027 133.462 125.87C133.503 125.713 133.488 125.559 133.416 125.408C133.337 125.266 133.187 125.068 132.966 124.815L127.796 119.084C127.231 118.455 126.832 117.874 126.598 117.34C126.35 116.809 126.234 116.272 126.25 115.731C126.26 115.197 126.376 114.571 126.598 113.852Z" fill="black"/>
<path d="M120.358 127.09C120.358 127.105 120.35 127.12 120.335 127.135C120.312 127.158 120.278 127.161 120.233 127.146C120.196 127.138 120.177 127.119 120.177 127.089C120.079 126.017 120.213 125.302 120.577 124.942C120.775 124.748 120.972 124.659 121.168 124.675C121.371 124.699 121.589 124.829 121.821 125.064C121.948 125.194 122.079 125.349 122.214 125.531L122.841 126.441C122.53 125.549 122.408 124.733 122.474 123.994C122.532 123.263 122.751 122.71 123.131 122.336C123.366 122.104 123.623 121.993 123.902 122.002C124.181 122.012 124.463 122.161 124.748 122.45C125.249 122.959 125.629 123.678 125.886 124.607C126.143 125.552 126.231 126.477 126.149 127.381C126.059 128.293 125.794 128.966 125.353 129.401C125.217 129.536 125.05 129.647 124.853 129.737C124.656 129.841 124.456 129.896 124.252 129.902C124.213 130.15 124.222 130.396 124.281 130.637C124.281 130.668 124.273 130.69 124.258 130.705C124.235 130.728 124.205 130.743 124.167 130.75C124.129 130.757 124.11 130.753 124.11 130.738L121.234 126.497C121.159 126.376 121.084 126.277 121.009 126.201C120.83 126.019 120.687 125.98 120.58 126.085C120.436 126.227 120.362 126.562 120.358 127.09ZM123.221 123.887C122.993 124.111 122.878 124.457 122.874 124.925C122.871 125.408 122.95 125.906 123.112 126.42C123.274 126.949 123.475 127.388 123.714 127.737C123.818 127.889 123.919 128.014 124.016 128.113C124.256 128.356 124.496 128.486 124.738 128.502C124.979 128.534 125.198 128.453 125.396 128.258C125.745 127.914 125.869 127.417 125.769 126.768C125.668 126.133 125.374 125.464 124.889 124.759C124.688 124.478 124.527 124.277 124.407 124.155C124.16 123.905 123.935 123.76 123.732 123.721C123.536 123.689 123.366 123.744 123.221 123.887Z" fill="black"/>
<path d="M111.892 133.262C111.887 133.292 111.881 133.31 111.872 133.316C111.846 133.335 111.812 133.333 111.77 133.311C111.734 133.297 111.715 133.271 111.714 133.233C111.76 132.674 111.841 132.229 111.957 131.897C112.065 131.57 112.24 131.32 112.483 131.146C112.899 130.848 113.281 130.942 113.629 131.428C113.722 131.558 113.831 131.755 113.955 132.021L115.059 134.359C115.19 134.633 115.308 134.843 115.414 134.991C115.718 135.416 116.009 135.529 116.286 135.33C116.529 135.156 116.666 134.816 116.696 134.308C116.733 133.81 116.651 133.173 116.45 132.398C116.241 131.63 115.91 130.765 115.457 129.803L115.319 129.528C115.238 129.324 115.419 129.063 115.861 128.746C116.147 128.541 116.315 128.474 116.365 128.543L116.508 128.853C116.714 129.323 116.831 129.587 116.859 129.645L118.404 132.928C118.442 133.018 118.502 133.12 118.582 133.233C118.75 133.467 118.908 133.531 119.055 133.425C119.237 133.295 119.365 132.941 119.437 132.365C119.439 132.35 119.449 132.336 119.467 132.324C119.493 132.305 119.524 132.303 119.56 132.316C119.602 132.338 119.624 132.369 119.625 132.407C119.574 132.995 119.486 133.458 119.361 133.797C119.227 134.142 119.035 134.404 118.783 134.585C118.376 134.876 118.007 134.793 117.678 134.333C117.585 134.203 117.496 134.051 117.41 133.876L116.77 132.543C117.007 133.515 117.076 134.344 116.978 135.031C116.871 135.725 116.596 136.23 116.154 136.547C115.556 136.975 114.999 136.83 114.483 136.11C114.365 135.945 114.235 135.717 114.092 135.426L112.863 132.803C112.795 132.654 112.734 132.541 112.678 132.463C112.535 132.264 112.394 132.214 112.256 132.313C112.169 132.375 112.101 132.482 112.053 132.635C111.996 132.794 111.943 133.003 111.892 133.262Z" fill="black"/>
<path d="M103.92 136.064C103.325 137.252 102.896 138.14 102.635 138.725C102.364 139.315 102.183 139.811 102.09 140.215C101.992 140.633 101.978 141.017 102.048 141.368C102.092 141.534 102.127 141.652 102.154 141.722C102.265 141.999 102.419 142.202 102.619 142.329C102.819 142.456 103.048 142.469 103.305 142.367C103.613 142.245 103.836 141.984 103.976 141.584C104.11 141.198 104.205 140.656 104.26 139.957C104.266 139.943 104.279 139.932 104.299 139.924C104.328 139.912 104.36 139.906 104.394 139.904C104.431 139.912 104.451 139.933 104.453 139.966L104.496 142.634L104.448 142.688C104.409 142.703 104.375 142.705 104.347 142.693C104.31 142.685 104.288 142.66 104.282 142.616C104.273 142.448 104.26 142.344 104.244 142.304C104.209 142.215 104.147 142.188 104.058 142.223C103.968 142.259 103.843 142.348 103.682 142.492C103.335 142.802 103.003 143.02 102.685 143.146C102.249 143.319 101.869 143.344 101.544 143.22C101.224 143.107 100.994 142.876 100.857 142.529C100.715 142.172 100.677 141.815 100.741 141.456C100.799 141.112 100.914 140.779 101.085 140.459C101.261 140.148 101.505 139.753 101.82 139.273C101.991 139.01 102.163 138.735 102.336 138.448C102.503 138.175 102.64 137.914 102.748 137.665C102.77 137.633 102.766 137.623 102.736 137.635C101.685 138.052 100.942 138.404 100.505 138.692C100.068 138.98 99.8466 139.332 99.8395 139.748C99.8434 139.758 99.8305 139.769 99.8008 139.781C99.771 139.793 99.7423 139.793 99.7146 139.781C99.6809 139.783 99.6651 139.772 99.6671 139.748L99.5542 137.641C99.5424 137.611 99.5425 137.582 99.5544 137.555C99.5565 137.531 99.5773 137.511 99.617 137.496L103.722 135.867C103.771 135.847 103.816 135.858 103.855 135.9C103.899 135.952 103.92 136.006 103.92 136.064Z" fill="black"/>
<path d="M93.562 138.961C94.3187 138.778 94.9869 138.863 95.5665 139.216C96.1487 139.58 96.5316 140.14 96.7152 140.896C96.7755 141.145 96.8114 141.383 96.8228 141.611C96.8571 142.25 96.756 142.851 96.5192 143.414C96.2825 143.976 95.9428 144.454 95.5003 144.846C95.0474 145.242 94.5307 145.51 93.9502 145.65C93.2039 145.832 92.5473 145.749 91.9806 145.404C91.4163 145.069 91.0424 144.523 90.8588 143.766C90.7959 143.507 90.7588 143.264 90.7474 143.036C90.7209 142.384 90.8247 141.771 91.059 141.199C91.2828 140.629 91.616 140.147 92.0585 139.754C92.4907 139.364 92.9918 139.1 93.562 138.961ZM93.3731 139.337C92.9274 139.445 92.6146 139.784 92.4347 140.355C92.2573 140.935 92.2085 141.639 92.2881 142.465C92.3369 142.892 92.394 143.24 92.4594 143.51C92.6153 144.152 92.841 144.63 93.1363 144.942C93.4317 145.255 93.7556 145.368 94.108 145.283C94.533 145.18 94.8562 144.838 95.0775 144.257C95.291 143.69 95.3593 142.976 95.2825 142.117C95.2561 141.827 95.2026 141.516 95.1221 141.184C94.9662 140.542 94.7367 140.048 94.4338 139.705C94.131 139.361 93.7774 139.238 93.3731 139.337Z" fill="black"/>
<path d="M87.3061 140.568C86.404 141.545 85.7462 142.278 85.3327 142.768C84.9087 143.259 84.5963 143.686 84.3956 144.048C84.1853 144.422 84.0652 144.788 84.0354 145.144C84.0306 145.316 84.0318 145.439 84.039 145.513C84.0677 145.811 84.1603 146.048 84.3168 146.226C84.4733 146.404 84.6896 146.479 84.9657 146.453C85.2948 146.421 85.582 146.232 85.8272 145.887C86.0629 145.553 86.3044 145.059 86.5517 144.402C86.5613 144.391 86.5767 144.384 86.5979 144.382C86.6298 144.379 86.6621 144.381 86.695 144.389C86.7289 144.407 86.7421 144.432 86.7346 144.465L86.0352 147.04L85.9746 147.078C85.9321 147.082 85.8992 147.075 85.8759 147.056C85.842 147.038 85.8283 147.007 85.8348 146.963C85.8725 146.799 85.8893 146.695 85.8852 146.653C85.876 146.557 85.8236 146.514 85.728 146.524C85.6325 146.533 85.4874 146.584 85.2929 146.678C84.873 146.879 84.4932 146.997 84.1534 147.029C83.6863 147.075 83.314 146.993 83.0366 146.784C82.7602 146.585 82.6041 146.301 82.5681 145.929C82.5312 145.547 82.5934 145.192 82.7547 144.866C82.9064 144.551 83.109 144.264 83.3625 144.004C83.617 143.754 83.9619 143.442 84.3972 143.068C84.6346 142.862 84.8762 142.646 85.1221 142.419C85.3585 142.203 85.5629 141.99 85.7356 141.781C85.7654 141.756 85.7643 141.746 85.7325 141.749C84.6071 141.858 83.7947 141.99 83.2953 142.145C82.796 142.301 82.4852 142.577 82.3629 142.975C82.3639 142.986 82.3485 142.992 82.3166 142.995C82.2848 142.999 82.2572 142.991 82.2339 142.971C82.201 142.964 82.1889 142.949 82.1974 142.927L82.6738 140.871C82.6707 140.839 82.6788 140.812 82.698 140.789C82.7065 140.766 82.7321 140.753 82.7745 140.749L87.17 140.324C87.2231 140.319 87.2628 140.342 87.2892 140.393C87.3166 140.454 87.3222 140.513 87.3061 140.568Z" fill="black"/>
<path d="M79.2827 141.044C78.2606 141.895 77.5125 142.536 77.0386 142.967C76.554 143.399 76.1885 143.781 75.9421 144.114C75.6847 144.457 75.5179 144.804 75.4417 145.153C75.4145 145.323 75.3996 145.445 75.397 145.52C75.3866 145.818 75.4474 146.066 75.5793 146.263C75.7112 146.459 75.9157 146.563 76.1929 146.572C76.5234 146.584 76.8327 146.434 77.121 146.124C77.3983 145.824 77.7024 145.365 78.0334 144.747C78.0444 144.737 78.0606 144.732 78.0819 144.733C78.1139 144.734 78.1457 144.74 78.1773 144.752C78.2085 144.774 78.2183 144.801 78.2065 144.833L77.1764 147.295L77.1113 147.325C77.0687 147.323 77.0371 147.311 77.0165 147.289C76.9853 147.267 76.9757 147.234 76.9878 147.192C77.0467 147.034 77.0769 146.934 77.0784 146.891C77.0817 146.795 77.0354 146.746 76.9394 146.742C76.8435 146.739 76.693 146.771 76.4878 146.839C76.0452 146.983 75.6533 147.05 75.3122 147.038C74.8431 147.022 74.4848 146.892 74.2371 146.648C73.989 146.416 73.8715 146.113 73.8844 145.74C73.8978 145.356 74.0057 145.013 74.2084 144.71C74.4 144.418 74.6384 144.159 74.9237 143.935C75.2087 143.72 75.5914 143.456 76.072 143.142C76.3341 142.97 76.6019 142.787 76.8755 142.594C77.138 142.411 77.3685 142.226 77.5671 142.041C77.5998 142.021 77.6002 142.01 77.5682 142.009C76.4382 141.97 75.6155 141.995 75.1001 142.084C74.5847 142.172 74.2404 142.406 74.0672 142.784C74.0668 142.795 74.0506 142.8 74.0186 142.798C73.9867 142.797 73.9604 142.786 73.9398 142.764C73.9082 142.752 73.8981 142.736 73.9095 142.715L74.6505 140.739C74.6517 140.707 74.6632 140.681 74.6853 140.66C74.6967 140.639 74.7237 140.63 74.7664 140.631L79.1797 140.784C79.233 140.786 79.2694 140.814 79.2889 140.868C79.3079 140.933 79.3059 140.992 79.2827 141.044Z" fill="black"/>
<defs>
<linearGradient id="paint0_linear_1511_9964" x1="-5.55351e-07" y1="36.8421" x2="157.061" y2="39.1983" gradientUnits="userSpaceOnUse">
<stop offset="0.267495" stop-color="#FFC6CE"/>
<stop offset="1" stop-color="#64D6EE"/>
</linearGradient>
</defs>
</svg>
