<svg width="150" height="151" viewBox="0 0 150 151" fill="none" xmlns="http://www.w3.org/2000/svg">
<path d="M142.084 87.3922C142.076 87.4771 142.026 87.5046 141.932 87.4745L139.828 86.9418C139.796 86.9388 139.782 86.9161 139.786 86.8736C139.789 86.8417 139.798 86.8104 139.811 86.7795C139.834 86.7602 139.851 86.7511 139.862 86.7521C140.45 86.7638 140.937 86.6001 141.322 86.2608C141.706 85.9216 141.926 85.46 141.98 84.8758L142.007 84.589C142.036 84.281 142.03 84.0555 141.989 83.9125C141.96 83.7705 141.884 83.6617 141.763 83.5862C141.64 83.5212 141.433 83.4484 141.14 83.3677L137.943 82.4925L137.776 84.2928C137.731 84.7813 137.787 85.1615 137.944 85.4331C138.11 85.7164 138.407 85.926 138.833 86.062C138.885 86.0776 138.903 86.1167 138.887 86.1795C138.881 86.2432 138.852 86.2673 138.8 86.2517C138.506 86.1817 138.183 86.0874 137.83 85.9689C137.787 85.9649 137.646 85.9251 137.407 85.8493C137.219 85.7997 136.972 85.7394 136.668 85.6683C136.553 85.6362 136.423 85.6026 136.276 85.5676C136.129 85.5325 135.967 85.4907 135.789 85.4421C135.748 85.4275 135.73 85.3884 135.736 85.3247C135.753 85.2619 135.782 85.2378 135.823 85.2524C135.97 85.2874 136.075 85.3079 136.139 85.3138C136.489 85.3464 136.765 85.2595 136.966 85.0532C137.178 84.8479 137.303 84.5435 137.34 84.1399L137.505 82.3715L133.963 81.4C133.775 81.3504 133.617 81.3197 133.49 81.3079C133.277 81.2881 133.129 81.3332 133.043 81.4432C132.958 81.5531 132.901 81.7621 132.873 82.0701L132.834 82.4843C132.777 83.1003 132.917 83.724 133.255 84.3552C133.603 84.9875 134.094 85.5311 134.727 85.9862C134.758 85.9998 134.759 86.0374 134.732 86.0992C134.716 86.1619 134.698 86.1817 134.679 86.1585C134.142 85.9373 133.405 85.6867 132.467 85.4068C132.373 85.3767 132.312 85.3443 132.283 85.3094C132.254 85.2746 132.243 85.2147 132.251 85.1298L132.865 78.5182C132.868 78.4863 132.901 78.4733 132.965 78.4792C133.029 78.4852 133.059 78.5041 133.056 78.5359C133.028 78.8333 133.035 79.0535 133.075 79.1965C133.114 79.3501 133.205 79.4657 133.348 79.5432C133.49 79.6314 133.723 79.7226 134.046 79.8169L141.302 81.792C141.5 81.8532 141.679 81.8912 141.838 81.906C142.061 81.9267 142.216 81.8767 142.302 81.7562C142.387 81.6463 142.445 81.432 142.474 81.1133C142.476 81.0921 142.509 81.0844 142.573 81.0904C142.636 81.0963 142.667 81.1098 142.665 81.1311L142.084 87.3922Z" fill="#22262A"/>
<path d="M130.541 91.0535C130.659 90.6103 130.857 90.2603 131.136 90.0034C131.414 89.7465 131.692 89.6552 131.971 89.7294C132.208 89.7927 132.37 89.9078 132.458 90.0748C132.556 90.2446 132.579 90.4273 132.527 90.6232C132.48 90.7983 132.397 90.9251 132.276 91.0034C132.156 91.0817 131.975 91.1603 131.733 91.2393C131.481 91.3155 131.288 91.3965 131.155 91.4824C131.019 91.5785 130.923 91.7297 130.868 91.9358C130.821 92.111 130.833 92.2522 130.904 92.3594C130.983 92.4797 131.126 92.5841 131.334 92.6728C131.372 92.6941 131.433 92.7158 131.515 92.7378C131.814 92.8176 132.095 92.7987 132.358 92.6813C132.622 92.5639 132.947 92.3582 133.335 92.0642C133.743 91.7757 134.08 91.5676 134.346 91.4399C134.619 91.3252 134.911 91.3091 135.22 91.3916C135.282 91.4081 135.372 91.4432 135.49 91.4968C135.734 91.6171 135.947 91.812 136.129 92.0814C136.308 92.3611 136.431 92.6864 136.497 93.0575C136.561 93.4388 136.541 93.8253 136.436 94.2169C136.304 94.7116 136.12 95.0709 135.884 95.2949C135.644 95.5291 135.385 95.5923 135.104 95.4843C134.917 95.4011 134.786 95.2723 134.711 95.0977C134.633 94.9335 134.615 94.7741 134.656 94.6195C134.714 94.4031 134.803 94.2557 134.923 94.1774C135.054 94.1019 135.223 94.0476 135.43 94.0147C135.641 93.9715 135.805 93.9158 135.922 93.8478C136.04 93.7799 136.126 93.6428 136.181 93.4367C136.225 93.2718 136.208 93.1292 136.129 93.0089C136.061 92.8914 135.968 92.8059 135.85 92.7522C135.812 92.7309 135.751 92.7093 135.669 92.6873C135.401 92.6157 135.14 92.6401 134.888 92.7603C134.635 92.8804 134.316 93.0824 133.931 93.3661C133.507 93.6724 133.152 93.8867 132.865 94.0089C132.589 94.1339 132.296 94.1551 131.987 94.0726C131.935 94.0589 131.851 94.0252 131.732 93.9715C131.468 93.8457 131.22 93.6361 130.99 93.3427C130.769 93.052 130.609 92.7001 130.509 92.2872C130.418 91.8872 130.428 91.476 130.541 91.0535Z" fill="#22262A"/>
<path d="M132.735 103.3C132.707 103.369 132.648 103.385 132.559 103.348C132.481 103.315 132.387 103.207 132.278 103.024C132.165 102.85 132.129 102.714 132.17 102.615C132.182 102.586 132.274 102.433 132.446 102.158C132.614 101.893 132.783 101.582 132.954 101.225L129.693 99.1473C129.543 99.0623 129.439 99.0075 129.38 98.9831C129.143 98.8851 128.946 98.8728 128.789 98.9462C128.627 99.0294 128.494 99.1991 128.387 99.4553C128.232 99.8298 128.243 100.319 128.42 100.924L128.414 100.938C128.398 100.978 128.369 101.006 128.327 101.023C128.285 101.041 128.255 101.029 128.238 100.987C127.992 100.354 127.844 99.8191 127.794 99.3827C127.75 98.9603 127.799 98.5766 127.942 98.2316C128.272 97.4334 128.797 97.1833 129.517 97.4812C129.665 97.5424 129.821 97.6246 129.986 97.7276L132.881 99.6021C133.037 99.7011 133.168 99.773 133.277 99.8179C133.425 99.8791 133.54 99.8805 133.622 99.8221C133.703 99.7636 133.787 99.631 133.873 99.424C133.885 99.3944 133.926 99.3939 133.995 99.4225C134.084 99.4592 134.122 99.4924 134.109 99.522C133.783 100.31 133.957 101.116 134.633 101.938C134.654 101.97 134.655 102.011 134.634 102.06C134.614 102.109 134.586 102.149 134.55 102.181C134.514 102.212 134.488 102.219 134.472 102.201L133.352 101.477C133.247 101.757 133.159 101.997 133.087 102.199C133.026 102.404 132.971 102.578 132.924 102.72C132.847 102.988 132.784 103.181 132.735 103.3Z" fill="#22262A"/>
<path d="M121.621 125.273C121.608 125.289 121.576 125.277 121.527 125.236C121.478 125.195 121.46 125.166 121.474 125.15C121.692 124.888 121.795 124.647 121.783 124.429C121.779 124.217 121.633 123.95 121.346 123.628L116.336 118.018C116.209 117.871 116.092 117.752 115.986 117.664C115.797 117.507 115.633 117.446 115.492 117.481C115.353 117.532 115.181 117.68 114.976 117.926C114.955 117.951 114.921 117.943 114.871 117.902C114.822 117.861 114.808 117.828 114.828 117.803C115.02 117.574 115.177 117.393 115.302 117.26L115.99 116.459L116.643 115.65C116.751 115.504 116.904 115.312 117.102 115.074C117.122 115.049 117.157 115.058 117.206 115.099C117.255 115.14 117.27 115.172 117.249 115.197C117.058 115.426 116.935 115.616 116.881 115.764C116.826 115.913 116.836 116.06 116.909 116.205C116.976 116.358 117.12 116.561 117.34 116.813L122.465 122.56L118.478 113.597C118.459 113.553 118.466 113.511 118.501 113.47C118.542 113.42 118.589 113.405 118.644 113.422L126.225 117.446L122.018 112.422C121.881 112.253 121.727 112.096 121.555 111.953C121.251 111.7 120.97 111.563 120.711 111.541C120.444 111.528 120.219 111.632 120.035 111.853C120.014 111.878 119.979 111.869 119.93 111.828C119.881 111.787 119.867 111.755 119.887 111.73C120.044 111.542 120.171 111.397 120.268 111.298L120.833 110.644L121.302 110.056C121.383 109.943 121.512 109.779 121.689 109.566C121.71 109.542 121.745 109.55 121.794 109.591C121.843 109.632 121.857 109.665 121.837 109.689C121.605 109.968 121.527 110.32 121.604 110.744C121.68 111.169 121.902 111.603 122.268 112.047L126.952 117.698C127.389 117.757 127.775 117.585 128.109 117.184C128.13 117.159 128.165 117.167 128.214 117.208C128.263 117.249 128.277 117.282 128.257 117.307C128.154 117.429 128.068 117.524 127.999 117.591L127.577 118.073L126.985 118.808C126.918 118.905 126.837 119.011 126.741 119.126C126.666 119.216 126.567 119.252 126.444 119.233C126.315 119.222 126.095 119.136 125.785 118.975L119.816 115.815L123.034 122.952C123.09 123.068 123.113 123.191 123.102 123.32C123.091 123.45 123.045 123.564 122.963 123.662C122.867 123.777 122.784 123.868 122.715 123.935L122.272 124.441L121.885 124.931C121.832 125.011 121.744 125.125 121.621 125.273Z" fill="#22262A"/>
<path d="M115.188 127.385C115.402 127.208 115.625 127.127 115.859 127.142C116.091 127.171 116.299 127.297 116.482 127.519C116.645 127.716 116.716 127.928 116.695 128.153C116.665 128.385 116.544 128.589 116.33 128.766C116.116 128.943 115.901 129.017 115.684 128.989C115.458 128.968 115.264 128.858 115.101 128.661C114.911 128.431 114.826 128.203 114.848 127.978C114.861 127.759 114.974 127.562 115.188 127.385ZM110.835 120.438C111.229 120.112 111.617 120.179 111.998 120.639C112.1 120.762 112.222 120.952 112.364 121.208L113.979 124.191C114.05 124.326 114.116 124.431 114.177 124.505C114.265 124.612 114.35 124.673 114.432 124.688C114.521 124.712 114.598 124.696 114.664 124.642C114.836 124.499 114.935 124.141 114.959 123.568C114.96 123.553 114.969 123.538 114.986 123.525C115.019 123.498 115.053 123.49 115.09 123.501C115.134 123.52 115.158 123.549 115.162 123.587C115.151 124.177 115.091 124.649 114.982 125.002C114.873 125.355 114.703 125.627 114.473 125.817C114.078 126.143 113.704 126.093 113.351 125.665C113.235 125.526 113.136 125.372 113.054 125.205L111.328 122.064C111.284 121.977 111.214 121.875 111.119 121.76C110.955 121.563 110.812 121.515 110.689 121.617C110.607 121.685 110.547 121.797 110.509 121.953C110.464 122.115 110.425 122.327 110.392 122.589C110.389 122.619 110.38 122.641 110.363 122.655C110.339 122.675 110.305 122.676 110.261 122.656C110.224 122.645 110.208 122.617 110.212 122.572C110.22 122.012 110.27 121.562 110.363 121.223C110.447 120.89 110.605 120.628 110.835 120.438Z" fill="#22262A"/>
<path d="M102.133 128.039C102.077 127.885 102.024 127.768 101.975 127.686C101.848 127.476 101.716 127.412 101.579 127.495C101.487 127.55 101.412 127.652 101.352 127.801C101.283 127.955 101.214 128.159 101.144 128.413C101.136 128.443 101.124 128.463 101.105 128.474C101.078 128.491 101.044 128.486 101.004 128.461C100.969 128.444 100.957 128.414 100.968 128.37C101.057 127.817 101.168 127.382 101.3 127.065C101.432 126.748 101.626 126.513 101.881 126.358C102.319 126.093 102.696 126.22 103.011 126.74C103.121 126.922 103.216 127.121 103.296 127.334L103.69 128.386C103.616 127.421 103.67 126.603 103.85 125.932C104.021 125.268 104.33 124.8 104.777 124.529C105.123 124.319 105.482 124.252 105.852 124.327C106.218 124.417 106.539 124.69 106.815 125.146C106.926 125.329 107.018 125.522 107.092 125.727C107.36 126.437 107.468 127.201 107.415 128.019C107.361 128.837 107.175 129.58 106.856 130.247C106.542 130.923 106.139 131.411 105.647 131.709C105.437 131.836 105.235 131.915 105.041 131.945L106.182 134.939C106.265 135.138 106.342 135.297 106.414 135.416C106.574 135.68 106.741 135.76 106.914 135.655C107.024 135.589 107.177 135.409 107.373 135.116L107.387 135.107C107.432 135.08 107.474 135.086 107.51 135.126C107.553 135.175 107.558 135.215 107.527 135.247L106.036 137.572L106.009 137.588C105.972 137.61 105.932 137.616 105.888 137.605C105.835 137.6 105.808 137.585 105.806 137.562L102.133 128.039ZM104.673 125.902C104.381 126.078 104.181 126.387 104.073 126.826C103.956 127.271 103.916 127.751 103.953 128.264C103.986 128.793 104.065 129.263 104.189 129.674L104.345 130.085C104.518 130.454 104.763 130.673 105.08 130.743C105.397 130.813 105.71 130.754 106.02 130.566C106.915 130.025 107.02 128.901 106.336 127.195C106.239 126.954 106.122 126.72 105.984 126.491C105.575 125.816 105.138 125.62 104.673 125.902Z" fill="#22262A"/>
<path d="M98.616 130.83C98.6415 130.808 98.6907 130.857 98.7634 130.977C98.8362 131.097 98.8991 131.221 98.9522 131.349C99.0052 131.477 99.0219 131.545 99.0022 131.554L95.6092 133.773C95.5837 133.795 95.5346 133.746 95.4618 133.626C95.3931 133.516 95.3343 133.402 95.2853 133.284C95.2241 133.136 95.2082 133.056 95.2378 133.043L98.616 130.83Z" fill="#22262A"/>
<path d="M86.1273 131.841C86.3774 131.786 86.6726 131.738 87.0129 131.696C87.1403 131.679 87.2988 131.655 87.4887 131.625C87.6785 131.594 87.8933 131.553 88.133 131.5L89.1612 131.259C89.3257 131.212 89.559 131.156 89.8612 131.09C89.8924 131.083 89.9149 131.111 89.9286 131.173C89.9422 131.236 89.9334 131.271 89.9022 131.277C89.6104 131.341 89.4025 131.414 89.2784 131.496C89.1439 131.58 89.0561 131.703 89.0151 131.864C88.974 132.026 88.9575 132.276 88.9656 132.612L89.2658 140.13C89.2833 140.41 89.3 140.586 89.316 140.659C89.3638 140.878 89.4582 141.01 89.5992 141.056C89.7425 141.112 89.9704 141.106 90.2831 141.037C90.3039 141.033 90.3212 141.062 90.3348 141.124C90.3485 141.187 90.3449 141.22 90.3241 141.225L89.586 141.37C89.1646 141.44 88.8185 141.505 88.5475 141.564C88.2557 141.628 87.957 141.709 87.6512 141.809C87.2389 141.921 86.939 141.997 86.7514 142.038C85.8761 142.23 85.0749 142.236 84.3477 142.056C83.6229 141.887 83.0248 141.548 82.5533 141.04C82.0738 140.544 81.7508 139.916 81.5846 139.155C81.5094 138.811 81.4683 138.498 81.4611 138.216C81.4196 137.177 81.6104 136.202 82.0336 135.29C82.4486 134.392 83.021 133.639 83.7508 133.031C84.4807 132.424 85.2729 132.027 86.1273 131.841ZM86.2582 132.139C85.2578 132.358 84.4783 132.938 83.9197 133.879C83.353 134.833 83.0971 136.035 83.1523 137.486C83.1682 137.908 83.2273 138.354 83.3298 138.823C83.5508 139.834 83.9507 140.614 84.5296 141.165C85.1108 141.726 85.8755 141.902 86.8238 141.695C87.1989 141.613 87.4475 141.477 87.5697 141.286C87.6941 141.106 87.7466 140.822 87.7271 140.433L87.4401 133.126C87.4349 132.952 87.4187 132.803 87.3913 132.678C87.3344 132.417 87.2193 132.241 87.0461 132.147C86.8751 132.065 86.6125 132.062 86.2582 132.139Z" fill="#22262A"/>
<path d="M73.9128 139.364C73.5076 139.375 73.1911 139.315 72.9635 139.182C72.7358 139.049 72.6187 138.861 72.612 138.615C72.5991 138.135 72.944 137.673 73.6469 137.227C74.3394 136.792 75.1842 136.465 76.1813 136.246C76.207 136.011 76.2168 135.781 76.2107 135.557C76.1934 134.917 76.0462 134.404 75.769 134.016C75.492 133.64 75.0923 133.458 74.5698 133.473C74.3459 133.479 74.107 133.522 73.8531 133.604C73.5889 133.696 73.3524 133.831 73.1438 134.007L73.1278 134.008C73.0958 134.009 73.0687 133.993 73.0465 133.962C73.0136 133.931 73.0076 133.904 73.0283 133.882C73.4021 133.499 73.7999 133.216 74.2218 133.034C74.6437 132.852 75.068 132.755 75.4945 132.743C76.2302 132.723 76.7907 132.932 77.176 133.37C77.5506 133.808 77.7472 134.368 77.7656 135.051C77.772 135.285 77.7524 135.547 77.7068 135.837C77.6158 136.415 77.396 136.971 77.0476 137.503C76.6885 138.036 76.2362 138.475 75.6907 138.82C75.1452 139.166 74.5525 139.347 73.9128 139.364ZM74.2162 138.156C74.2067 138.199 74.2031 138.263 74.2054 138.348C74.2103 138.529 74.262 138.667 74.3606 138.76C74.4488 138.864 74.5728 138.914 74.7328 138.91C75.074 138.901 75.372 138.674 75.6267 138.23C75.8708 137.786 76.0473 137.21 76.1563 136.503C74.9387 136.856 74.292 137.407 74.2162 138.156Z" fill="#22262A"/>
<path d="M67.167 132.182C67.909 132.265 68.4282 132.565 68.7244 133.081C69.0195 133.608 69.126 134.237 69.0439 134.969C69.0141 135.234 68.9549 135.522 68.8662 135.834C68.6912 136.437 68.3914 136.956 67.9668 137.392C67.5317 137.826 67.0454 138.141 66.5081 138.339C65.9695 138.547 65.4511 138.623 64.9529 138.567C64.5607 138.523 64.2258 138.399 63.948 138.196C63.6596 137.992 63.5333 137.731 63.569 137.413C63.5964 137.169 63.6926 136.982 63.8576 136.85C64.0109 136.727 64.2147 136.681 64.4691 136.709C64.7235 136.738 64.9019 136.822 65.0042 136.962C65.1054 137.113 65.1652 137.297 65.1838 137.514C65.2142 137.721 65.2659 137.883 65.3388 137.998C65.4011 138.113 65.5223 138.18 65.7025 138.2C66.0205 138.236 66.3234 138.071 66.6113 137.706C66.8979 137.352 67.1305 136.858 67.3091 136.223C67.412 135.88 67.4813 135.55 67.517 135.232C67.5919 134.564 67.5142 134.013 67.2838 133.58C67.0522 133.156 66.6609 132.914 66.1096 132.852C65.8976 132.828 65.6485 132.849 65.3622 132.913C65.0747 132.988 64.839 133.08 64.6551 133.188L64.6392 133.186C64.6074 133.183 64.5774 133.163 64.5492 133.128C64.5209 133.092 64.5192 133.06 64.544 133.031C64.9672 132.702 65.4069 132.467 65.8629 132.325C66.3189 132.183 66.7536 132.135 67.167 132.182Z" fill="#22262A"/>
<path d="M56.2415 136.546C55.8487 136.446 55.5609 136.301 55.378 136.111C55.1952 135.922 55.1341 135.708 55.1946 135.47C55.3131 135.005 55.7713 134.654 56.5692 134.417C57.3541 134.188 58.2561 134.104 59.2751 134.165C59.364 133.946 59.4362 133.727 59.4915 133.51C59.6495 132.89 59.648 132.356 59.487 131.908C59.3234 131.47 58.9883 131.186 58.4818 131.057C58.2648 131.002 58.023 130.979 57.7565 130.988C57.477 131.005 57.2128 131.07 56.964 131.182L56.9485 131.178C56.9175 131.17 56.8956 131.148 56.8828 131.112C56.8597 131.073 56.8611 131.046 56.887 131.031C57.3513 130.764 57.8112 130.6 58.2668 130.54C58.7224 130.48 59.157 130.503 59.5704 130.608C60.2836 130.79 60.7658 131.144 61.017 131.67C61.2579 132.194 61.294 132.786 61.1255 133.448C61.0676 133.675 60.9772 133.922 60.8544 134.188C60.6088 134.72 60.2458 135.194 59.7654 135.611C59.2745 136.025 58.7196 136.324 58.1004 136.508C57.4813 136.691 56.8617 136.704 56.2415 136.546ZM56.8633 135.466C56.8424 135.505 56.8215 135.565 56.8004 135.648C56.7556 135.824 56.7679 135.97 56.8372 136.087C56.8936 136.211 56.9993 136.293 57.1544 136.333C57.4851 136.417 57.8337 136.28 58.2001 135.922C58.5561 135.562 58.8831 135.056 59.1809 134.405C57.9132 134.413 57.1407 134.766 56.8633 135.466Z" fill="#22262A"/>
<path d="M43.0573 125.217C43.0289 125.227 43.005 125.227 42.9858 125.218C42.9569 125.204 42.942 125.173 42.9411 125.126C42.9356 125.088 42.9542 125.061 42.9968 125.046C43.5078 124.817 43.9321 124.67 44.2696 124.607C44.6072 124.543 44.9108 124.576 45.1804 124.704C45.6425 124.925 45.7428 125.309 45.4812 125.858C45.3894 126.051 45.276 126.239 45.1411 126.423L43.6131 128.512C43.4273 128.778 43.2976 128.988 43.2242 129.142C43.0039 129.605 43.0333 129.902 43.3125 130.035C43.5436 130.145 43.8649 130.104 44.2763 129.91C44.6832 129.726 45.1561 129.378 45.6952 128.867C46.2343 128.356 46.7993 127.703 47.3903 126.91L47.8088 126.329C47.8694 126.252 47.9785 126.221 48.1363 126.237C48.2986 126.244 48.505 126.307 48.7553 126.426C49.073 126.578 49.2136 126.692 49.1768 126.769L48.9745 127.045C48.6625 127.451 48.4879 127.681 48.4507 127.734L46.7623 130.049C46.5857 130.296 46.4629 130.491 46.394 130.636C46.2793 130.876 46.2377 131.075 46.2693 131.232C46.2912 131.384 46.3744 131.495 46.5188 131.564C46.7596 131.679 47.0973 131.627 47.5322 131.409C47.9624 131.2 48.454 130.826 49.0068 130.286C49.5551 129.756 50.1199 129.091 50.7013 128.293L51.0151 127.858C51.1551 127.688 51.4706 127.721 51.9616 127.955C52.2794 128.106 52.4199 128.22 52.3832 128.297L52.1808 128.573C51.8688 128.98 51.6942 129.21 51.657 129.263L49.5295 132.201C49.4689 132.279 49.4088 132.38 49.3491 132.505C49.2252 132.765 49.2451 132.934 49.4088 133.012C49.611 133.109 49.982 133.049 50.5218 132.834C50.5361 132.829 50.5528 132.831 50.5721 132.84C50.6009 132.854 50.6181 132.88 50.6236 132.918C50.6245 132.966 50.6085 132.999 50.5754 133.019C50.036 133.258 49.5879 133.405 49.2311 133.459C48.8647 133.509 48.5418 133.468 48.2626 133.334C47.8101 133.119 47.7054 132.756 47.9487 132.245C48.0175 132.101 48.1077 131.949 48.2192 131.789L49.0142 130.68C48.3155 131.327 47.651 131.767 47.0208 131.998C46.386 132.239 45.8327 132.247 45.3609 132.022C45.0528 131.875 44.8651 131.662 44.7978 131.381C44.7259 131.111 44.7841 130.778 44.9723 130.383C45.0549 130.21 45.1891 129.99 45.375 129.725L45.7584 129.181C45.0642 129.819 44.4092 130.251 43.7932 130.477C43.163 130.708 42.6216 130.716 42.1691 130.501C41.5528 130.207 41.4306 129.67 41.8024 128.89C41.9263 128.63 42.0675 128.396 42.2258 128.188L43.9135 125.837C44.0112 125.707 44.0807 125.598 44.122 125.511C44.2276 125.29 44.2034 125.142 44.0493 125.069C43.953 125.023 43.8336 125.013 43.6909 125.04C43.5341 125.072 43.3229 125.13 43.0573 125.217Z" fill="#22262A"/>
<path d="M33.3398 123.927C33.0089 123.675 32.847 123.35 32.8541 122.954C32.8548 122.565 33.0167 122.159 33.3398 121.735C33.4561 121.582 33.5949 121.426 33.756 121.267C34.4068 120.677 35.1254 120.279 35.912 120.074C36.6986 119.868 37.4499 119.823 38.1658 119.94C38.8669 120.058 39.4295 120.278 39.8538 120.601C40.3036 120.944 40.588 121.301 40.7069 121.673C40.8108 122.047 40.74 122.396 40.4944 122.718C40.4492 122.778 40.3793 122.852 40.2848 122.941L34.2478 128.439C34.0931 128.59 33.9737 128.72 33.8897 128.83C33.7023 129.076 33.6892 129.261 33.8505 129.384C33.9523 129.461 34.1757 129.537 34.5208 129.612L34.5335 129.622C34.5675 129.648 34.5768 129.689 34.5615 129.744C34.5312 129.801 34.4958 129.821 34.4554 129.804L31.7456 129.269L31.7202 129.25C31.6862 129.224 31.6662 129.188 31.6602 129.144C31.6456 129.092 31.649 129.061 31.6704 129.051L37.4566 123.723C36.6749 124.134 35.9181 124.362 35.186 124.408C34.4389 124.455 33.8236 124.295 33.3398 123.927ZM35.3168 121.832C35.1386 121.978 34.9655 122.162 34.7975 122.382C34.6037 122.637 34.4985 122.872 34.482 123.087C34.4505 123.305 34.5282 123.484 34.7149 123.627C35.1816 123.982 35.8192 124.025 36.6276 123.756C37.4295 123.495 38.2503 122.98 39.0901 122.212C39.1309 122.176 39.1868 122.111 39.2579 122.018C39.4388 121.78 39.5186 121.526 39.4971 121.255C39.4606 120.986 39.3321 120.767 39.1114 120.599C38.8568 120.405 38.529 120.317 38.1278 120.333C37.7201 120.358 37.2743 120.494 36.7903 120.742C36.2999 120.999 35.8087 121.362 35.3168 121.832Z" fill="#22262A"/>
<path d="M26.9194 117.517C26.6381 117.226 26.4695 116.951 26.4139 116.693C26.3582 116.436 26.4187 116.222 26.5953 116.052C26.9408 115.719 27.5151 115.661 28.3184 115.879C29.1065 116.097 29.9177 116.501 30.7519 117.089C30.943 116.949 31.1192 116.802 31.2804 116.646C31.7411 116.202 32.021 115.747 32.1199 115.281C32.2113 114.822 32.0755 114.405 31.7127 114.029C31.5572 113.867 31.3637 113.721 31.1323 113.588C30.8858 113.455 30.627 113.372 30.3561 113.336L30.345 113.325C30.3228 113.302 30.3158 113.272 30.324 113.234C30.3248 113.189 30.3403 113.166 30.3705 113.167C30.9058 113.184 31.3829 113.287 31.802 113.476C32.221 113.665 32.5786 113.912 32.8747 114.22C33.3856 114.749 33.6094 115.304 33.5461 115.884C33.4753 116.456 33.1943 116.979 32.7028 117.453C32.5339 117.616 32.3273 117.778 32.083 117.939C31.5943 118.262 31.036 118.475 30.408 118.577C29.7726 118.671 29.1434 118.633 28.5204 118.463C27.8973 118.293 27.3637 117.978 26.9194 117.517ZM28.0164 116.926C27.9783 116.948 27.9286 116.989 27.8671 117.048C27.7366 117.174 27.6701 117.305 27.6676 117.44C27.6501 117.576 27.6968 117.701 27.8079 117.816C28.0448 118.062 28.4133 118.129 28.9132 118.018C29.4057 117.898 29.9498 117.64 30.5454 117.244C29.4635 116.583 28.6206 116.477 28.0164 116.926Z" fill="#22262A"/>
<path d="M21.3312 110.067C21.1681 109.843 21.0963 109.572 21.1159 109.254C21.1292 108.928 21.2519 108.707 21.484 108.591C21.626 108.514 21.7906 108.486 21.9781 108.508C22.1655 108.53 22.3157 108.619 22.4286 108.774C22.5416 108.929 22.5906 109.151 22.5757 109.439C22.5765 109.53 22.5816 109.619 22.5911 109.704C22.6005 109.79 22.6271 109.863 22.6711 109.923C22.7777 110.07 23.1381 110.085 23.7521 109.968C24.3662 109.851 25.0645 109.659 25.8471 109.394C26.6149 109.125 27.2716 108.859 27.8174 108.593L27.8304 108.584C27.9206 108.545 28.0311 108.57 28.1621 108.659C28.3017 108.742 28.4531 108.896 28.6162 109.12C28.8233 109.405 28.8923 109.572 28.8233 109.623C28.7567 109.658 28.6085 109.726 28.3787 109.827C28.1426 109.92 27.9215 110.015 27.7153 110.112L24.444 111.68C24.2934 111.764 24.1966 111.821 24.1535 111.852C23.9119 112.028 23.8476 112.193 23.9606 112.349C24.0861 112.521 24.4374 112.642 25.0146 112.71C25.0295 112.712 25.0432 112.722 25.0558 112.739C25.0809 112.774 25.0868 112.809 25.0734 112.845C25.0515 112.887 25.0182 112.905 24.9735 112.898C24.3853 112.851 23.9214 112.766 23.5818 112.644C23.236 112.513 22.9721 112.323 22.7901 112.072C22.6332 111.857 22.5807 111.658 22.6324 111.475C22.6755 111.298 22.8092 111.129 23.0335 110.965C23.1629 110.871 23.3146 110.781 23.4887 110.694L25.1002 109.917C23.0393 110.638 21.783 110.688 21.3312 110.067Z" fill="#22262A"/>
<path d="M7.91579 62.6221C7.92368 62.5371 7.97443 62.5097 8.06804 62.5398L10.1718 63.0725C10.2037 63.0755 10.2176 63.0982 10.2137 63.1407C10.2107 63.1726 10.2025 63.2039 10.1889 63.2348C10.1657 63.2541 10.1488 63.2632 10.1381 63.2622C9.55004 63.2505 9.06349 63.4142 8.6785 63.7534C8.2935 64.0926 8.0739 64.5543 8.01968 65.1385L7.99306 65.4252C7.96447 65.7333 7.97032 65.9588 8.01061 66.1018C8.04028 66.2438 8.11589 66.3526 8.23742 66.4281C8.35995 66.4931 8.56744 66.5659 8.8599 66.6466L12.0567 67.5218L12.2238 65.7215C12.2691 65.2329 12.2134 64.8528 12.0565 64.5812C11.8899 64.2979 11.5934 64.0883 11.1668 63.9522C11.1147 63.9367 11.0969 63.8975 11.1134 63.8348C11.1193 63.7711 11.1483 63.747 11.2004 63.7625C11.4939 63.8326 11.8172 63.9269 12.1705 64.0454C12.2129 64.0493 12.3539 64.0892 12.5932 64.165C12.7814 64.2146 13.0276 64.2749 13.3316 64.346C13.4465 64.3781 13.5773 64.4117 13.724 64.4467C13.8707 64.4817 14.0329 64.5236 14.2105 64.5722C14.252 64.5868 14.2698 64.6259 14.2639 64.6896C14.2473 64.7524 14.2183 64.7765 14.1768 64.7619C14.0301 64.7268 13.9249 64.7064 13.8612 64.7005C13.5107 64.6679 13.2348 64.7548 13.0335 64.9611C12.8216 65.1664 12.697 65.4708 12.6595 65.8744L12.4954 67.6428L16.0368 68.6143C16.225 68.6639 16.3828 68.6946 16.5103 68.7064C16.7227 68.7261 16.8715 68.681 16.9567 68.5711C17.0419 68.4612 17.0988 68.2522 17.1274 67.9442L17.1658 67.53C17.223 66.914 17.0827 66.2903 16.7449 65.6591C16.3965 65.0268 15.906 64.4832 15.2733 64.0281C15.2425 64.0145 15.2406 63.9768 15.2678 63.9151C15.2843 63.8523 15.3022 63.8326 15.3215 63.8558C15.858 64.077 16.5953 64.3275 17.5335 64.6074C17.6271 64.6376 17.6883 64.67 17.7173 64.7048C17.7462 64.7397 17.7567 64.7996 17.7488 64.8845L17.1351 71.4961C17.1322 71.528 17.0988 71.5409 17.0351 71.535C16.9714 71.5291 16.941 71.5102 16.944 71.4784C16.9716 71.181 16.9652 70.9608 16.9249 70.8178C16.8856 70.6642 16.7946 70.5486 16.6518 70.4711C16.51 70.3829 16.2774 70.2917 15.9541 70.1974L8.69758 68.2223C8.49972 68.1611 8.32113 68.1231 8.16182 68.1083C7.93878 68.0876 7.78417 68.1375 7.69799 68.2581C7.6128 68.368 7.55542 68.5823 7.52585 68.9009C7.52387 68.9222 7.49103 68.9298 7.4273 68.9239C7.36357 68.918 7.3327 68.9044 7.33467 68.8832L7.91579 62.6221Z" fill="#22262A"/>
<path d="M19.4593 58.9607C19.341 59.4038 19.1427 59.7539 18.8644 60.0108C18.586 60.2677 18.3077 60.359 18.0295 60.2847C17.7924 60.2214 17.63 60.1063 17.542 59.9393C17.4438 59.7696 17.4209 59.5868 17.4731 59.391C17.5199 59.2158 17.6034 59.0891 17.7237 59.0108C17.8439 58.9325 18.025 58.8538 18.2669 58.7749C18.5191 58.6987 18.7118 58.6176 18.8451 58.5318C18.9812 58.4356 19.0767 58.2845 19.1318 58.0784C19.1785 57.9032 19.1665 57.762 19.0958 57.6548C19.0175 57.5345 18.8743 57.43 18.6661 57.3413C18.6276 57.32 18.5672 57.2984 18.4847 57.2764C18.1858 57.1966 17.9048 57.2154 17.6416 57.3328C17.3784 57.4503 17.053 57.656 16.6654 57.95C16.2572 58.2384 15.9202 58.4466 15.6542 58.5743C15.3807 58.689 15.0894 58.7051 14.7802 58.6225C14.7184 58.606 14.6284 58.571 14.5102 58.5173C14.2663 58.397 14.0534 58.2022 13.8714 57.9328C13.6921 57.6531 13.5692 57.3277 13.5026 56.9567C13.4388 56.5753 13.4592 56.1888 13.5637 55.7972C13.6957 55.3025 13.88 54.9432 14.1164 54.7193C14.3556 54.485 14.6153 54.4219 14.8956 54.5298C15.0832 54.613 15.2144 54.7419 15.2892 54.9164C15.3668 55.0807 15.385 55.2401 15.3437 55.3947C15.286 55.6111 15.197 55.7584 15.0767 55.8367C14.9461 55.9123 14.7771 55.9665 14.5696 55.9995C14.3593 56.0427 14.1954 56.0983 14.0779 56.1663C13.9604 56.2343 13.8741 56.3714 13.8191 56.5775C13.7751 56.7424 13.7922 56.885 13.8705 57.0052C13.9385 57.1227 14.0316 57.2083 14.1498 57.2619C14.1883 57.2832 14.2487 57.3049 14.3312 57.3269C14.5991 57.3984 14.8595 57.3741 15.1124 57.2539C15.3653 57.1337 15.6842 56.9318 16.069 56.6481C16.493 56.3418 16.8483 56.1275 17.1349 56.0052C17.4111 55.8803 17.7038 55.859 18.013 55.9416C18.0645 55.9553 18.1494 55.989 18.2675 56.0426C18.532 56.1684 18.7797 56.378 19.0105 56.6715C19.231 56.9622 19.391 57.314 19.4905 57.727C19.5825 58.1269 19.5721 58.5381 19.4593 58.9607Z" fill="#22262A"/>
<path d="M17.2647 46.7149C17.2932 46.6459 17.3519 46.6298 17.4406 46.6665C17.5194 46.6992 17.6132 46.8073 17.7219 46.9908C17.8346 47.1645 17.8706 47.3007 17.8298 47.3992C17.8176 47.4288 17.7256 47.5812 17.5539 47.8564C17.3862 48.1218 17.217 48.4327 17.0463 48.7892L20.3073 50.8672C20.4568 50.9522 20.5612 51.007 20.6203 51.0315C20.8568 51.1294 21.0537 51.1417 21.2111 51.0684C21.3726 50.9852 21.5064 50.8154 21.6125 50.5592C21.7676 50.1847 21.7567 49.6953 21.5799 49.091L21.586 49.0762C21.6023 49.0368 21.6314 49.0084 21.6732 48.9911C21.715 48.9738 21.7446 48.986 21.7619 49.0278C22.0077 49.6607 22.1557 50.1954 22.2059 50.6318C22.2503 51.0543 22.201 51.438 22.0582 51.7829C21.7276 52.5811 21.2026 52.8313 20.4832 52.5333C20.3353 52.4721 20.1788 52.3899 20.0137 52.2869L17.1187 50.4124C16.9634 50.3135 16.8315 50.2415 16.7231 50.1966C16.5753 50.1354 16.4604 50.134 16.3785 50.1925C16.2966 50.2509 16.2127 50.3836 16.127 50.5905C16.1148 50.6201 16.0742 50.6206 16.0052 50.592C15.9165 50.5553 15.8783 50.5221 15.8905 50.4926C16.217 49.7042 16.0426 48.8988 15.3672 48.0764C15.3458 48.0445 15.3453 48.0039 15.3657 47.9546C15.3862 47.9053 15.4144 47.8651 15.4504 47.8338C15.4865 47.8025 15.5123 47.7959 15.5279 47.8139L16.6482 48.5377C16.7527 48.2577 16.8408 48.0171 16.9125 47.8159C16.9745 47.6107 17.0291 47.437 17.0764 47.295C17.1529 47.0265 17.2157 46.8331 17.2647 46.7149Z" fill="#22262A"/>
<path d="M28.3788 24.7416C28.3925 24.7252 28.4239 24.7375 28.473 24.7785C28.5222 24.8194 28.54 24.8481 28.5263 24.8645C28.3079 25.1268 28.2048 25.3672 28.2172 25.5857C28.2213 25.7974 28.3668 26.0643 28.6537 26.3866L33.6638 31.9965C33.7908 32.144 33.9076 32.2621 34.0141 32.3509C34.2026 32.5079 34.3672 32.5686 34.5079 32.5331C34.6472 32.4825 34.8192 32.3343 35.024 32.0884C35.0445 32.0638 35.0793 32.072 35.1285 32.113C35.1777 32.1539 35.192 32.1867 35.1716 32.2113C34.9804 32.4408 34.8227 32.6218 34.6985 32.7543L34.0103 33.5554L33.357 34.3648C33.2491 34.5109 33.0962 34.7028 32.8982 34.9405C32.8778 34.9651 32.8429 34.9569 32.7938 34.916C32.7446 34.875 32.7302 34.8422 32.7507 34.8176C32.9419 34.5882 33.0647 34.399 33.1193 34.2501C33.1739 34.1012 33.1643 33.9544 33.0906 33.8097C33.0236 33.6567 32.8802 33.4539 32.6602 33.2013L27.5354 27.4541L31.5219 36.4179C31.5411 36.4616 31.5336 36.5039 31.4994 36.5449C31.4585 36.5941 31.4107 36.6098 31.356 36.592L23.7753 32.5683L27.9822 37.5925C28.1188 37.7618 28.2732 37.9182 28.4453 38.0615C28.7486 38.3141 29.0299 38.4513 29.2894 38.4731C29.5557 38.4867 29.7811 38.3829 29.9654 38.1616C29.9859 38.137 30.0207 38.1452 30.0699 38.1861C30.119 38.2271 30.1334 38.2599 30.1129 38.2844C29.9559 38.473 29.8289 38.6171 29.732 38.7168L29.1667 39.3704L28.6977 39.9585C28.6172 40.0718 28.4881 40.2351 28.3106 40.4482C28.2902 40.4728 28.2553 40.4646 28.2062 40.4236C28.157 40.3826 28.1426 40.3499 28.1631 40.3253C28.3952 40.0466 28.473 39.6949 28.3964 39.2702C28.3198 38.8455 28.0985 38.4112 27.7324 37.9675L23.048 32.3165C22.611 32.2578 22.2252 32.4293 21.8907 32.8309C21.8702 32.8555 21.8354 32.8473 21.7862 32.8063C21.737 32.7654 21.7227 32.7326 21.7432 32.708C21.8456 32.5851 21.9316 32.4901 22.0012 32.4232L22.4231 31.9417L23.015 31.2061C23.0819 31.1091 23.1631 31.0033 23.2587 30.8885C23.3338 30.7984 23.4328 30.7628 23.5557 30.7819C23.6855 30.7928 23.9054 30.8788 24.2154 31.0399L30.1837 34.1995L26.9658 27.063C26.9098 26.9469 26.8872 26.824 26.8981 26.6943C26.909 26.5645 26.9554 26.4505 27.0373 26.3521C27.1329 26.2374 27.2155 26.1465 27.2852 26.0796L27.7275 25.5735L28.1146 25.0838C28.1679 25.0032 28.2559 24.8891 28.3788 24.7416Z" fill="#22262A"/>
<path d="M34.8121 22.629C34.5983 22.8057 34.3747 22.8868 34.1412 22.8723C33.9092 22.8427 33.7014 22.7169 33.5179 22.495C33.3547 22.2977 33.2839 22.0864 33.3052 21.8611C33.3348 21.6291 33.4565 21.4247 33.6702 21.2479C33.8839 21.0712 34.0993 20.9969 34.3164 21.0251C34.5416 21.0465 34.7358 21.1558 34.8989 21.3531C35.0893 21.5833 35.1737 21.811 35.1524 22.0362C35.1392 22.2547 35.0258 22.4523 34.8121 22.629ZM39.1651 29.5763C38.7705 29.9025 38.3829 29.8355 38.0023 29.3751C37.9003 29.2518 37.7782 29.0622 37.6358 28.8062L36.0207 25.8234C35.9502 25.6879 35.8844 25.5832 35.8232 25.5092C35.7348 25.4023 35.6497 25.3412 35.5678 25.3259C35.4791 25.3023 35.4019 25.3177 35.3362 25.3721C35.1635 25.5148 35.0652 25.8729 35.0411 26.4465C35.0397 26.4615 35.0307 26.4758 35.0143 26.4894C34.9814 26.5166 34.9466 26.5246 34.9097 26.5136C34.8661 26.4943 34.8423 26.4655 34.8384 26.4272C34.8488 25.8373 34.9087 25.3657 35.018 25.0123C35.1272 24.659 35.2969 24.3872 35.5271 24.1969C35.9217 23.8707 36.2957 23.9213 36.6492 24.3488C36.7647 24.4885 36.8638 24.6419 36.9465 24.8088L38.6716 27.9498C38.7163 28.0374 38.7862 28.1387 38.8814 28.2538C39.0445 28.4511 39.1877 28.4988 39.311 28.3968C39.3933 28.3289 39.4531 28.2171 39.4906 28.0616C39.5363 27.8992 39.5753 27.687 39.6078 27.4249C39.6106 27.3949 39.6202 27.3731 39.6367 27.3595C39.6613 27.3391 39.6955 27.3385 39.7391 27.3578C39.776 27.3689 39.7922 27.3969 39.788 27.442C39.7803 28.0019 39.7301 28.4517 39.6373 28.7914C39.5527 29.1244 39.3953 29.386 39.1651 29.5763Z" fill="#22262A"/>
<path d="M47.8674 21.9755C47.923 22.1289 47.9756 22.2467 48.0253 22.3288C48.1524 22.5386 48.2844 22.6021 48.4213 22.5192C48.5125 22.4639 48.588 22.3621 48.6477 22.2137C48.7166 22.0597 48.7862 21.8554 48.8565 21.6009C48.8636 21.5716 48.8764 21.5514 48.8946 21.5403C48.922 21.5238 48.9558 21.5282 48.9962 21.5536C49.031 21.57 49.043 21.6001 49.0323 21.644C48.9431 22.1969 48.8324 22.6318 48.7002 22.9488C48.568 23.2659 48.3742 23.5017 48.1187 23.6565C47.6808 23.9217 47.3043 23.7944 46.9893 23.2743C46.8788 23.0919 46.7838 22.8938 46.7042 22.6801L46.3101 21.628C46.3837 22.5936 46.3304 23.4115 46.1503 24.0818C45.9793 24.7466 45.6703 25.2144 45.2233 25.4852C44.8766 25.6952 44.5183 25.7625 44.1485 25.6873C43.7822 25.5973 43.4609 25.3243 43.1846 24.8681C43.0741 24.6856 42.9818 24.4921 42.9078 24.2875C42.6395 23.5771 42.5321 22.8129 42.5853 21.9949C42.6386 21.177 42.8248 20.4344 43.144 19.7672C43.4576 19.0908 43.8608 18.6035 44.3534 18.305C44.5633 18.1779 44.7651 18.0993 44.9589 18.0693L43.8185 15.0748C43.7353 14.8758 43.6578 14.717 43.586 14.5984C43.4257 14.3338 43.2589 14.254 43.0856 14.359C42.9761 14.4253 42.8232 14.6052 42.6269 14.8988L42.6132 14.907C42.5676 14.9347 42.5264 14.9284 42.4896 14.8884C42.4473 14.8391 42.4417 14.7989 42.4726 14.7677L43.9638 12.4427L43.9912 12.4262C44.0277 12.4041 44.0679 12.3984 44.1119 12.4092C44.1649 12.4145 44.1924 12.429 44.1944 12.4527L47.8674 21.9755ZM45.3272 24.1127C45.6192 23.9359 45.8191 23.6277 45.927 23.1882C46.0441 22.7432 46.0841 22.2638 46.0472 21.7499C46.0139 21.2213 45.9351 20.7515 45.8108 20.3405L45.6554 19.9295C45.4819 19.5607 45.2368 19.3413 44.92 19.2713C44.6032 19.2013 44.2897 19.2602 43.9796 19.4481C43.0855 19.9897 42.9804 21.1133 43.6644 22.8191C43.7606 23.0601 43.8777 23.2947 44.0159 23.5228C44.4248 24.1979 44.862 24.3946 45.3272 24.1127Z" fill="#22262A"/>
<path d="M51.384 19.184C51.3585 19.2061 51.3093 19.1572 51.2366 19.0372C51.1638 18.9173 51.1009 18.7932 51.0478 18.6651C50.9948 18.537 50.9781 18.4689 50.9978 18.4607L54.3908 16.2414C54.4163 16.2193 54.4654 16.2682 54.5382 16.3882C54.6069 16.4983 54.6657 16.6125 54.7147 16.7307C54.7759 16.8785 54.7918 16.9586 54.7622 16.9708L51.384 19.184Z" fill="#22262A"/>
<path d="M63.8727 18.1738C63.6226 18.2284 63.3274 18.2766 62.9871 18.3182C62.8597 18.3351 62.7012 18.3589 62.5113 18.3894C62.3215 18.42 62.1067 18.4615 61.867 18.5139L60.8388 18.755C60.6743 18.8019 60.441 18.8583 60.1388 18.9244C60.1076 18.9312 60.0851 18.9034 60.0714 18.8409C60.0578 18.7783 60.0666 18.7437 60.0978 18.7368C60.3896 18.6731 60.5975 18.6003 60.7216 18.5186C60.8561 18.4346 60.9439 18.3117 60.9849 18.1499C61.026 17.988 61.0425 17.7388 61.0344 17.4021L60.7342 9.88476C60.7167 9.60471 60.7 9.42821 60.684 9.35527C60.6362 9.13643 60.5418 9.00421 60.4008 8.9586C60.2575 8.90257 60.0296 8.90872 59.7169 8.97705C59.6961 8.98161 59.6788 8.95262 59.6652 8.8901C59.6515 8.82758 59.6551 8.79404 59.6759 8.78948L60.414 8.64453C60.8354 8.57426 61.1815 8.50951 61.4525 8.45029C61.7443 8.38652 62.043 8.30483 62.3488 8.20524C62.7611 8.09328 63.061 8.01681 63.2486 7.97581C64.1239 7.78448 64.9251 7.77858 65.6523 7.95812C66.3771 8.12725 66.9752 8.466 67.4467 8.97439C67.9262 9.47008 68.2492 10.0983 68.4154 10.859C68.4906 11.2029 68.5317 11.516 68.5389 11.7983C68.5804 12.8374 68.3896 13.8126 67.9664 14.724C67.5514 15.6227 66.979 16.3756 66.2492 16.9828C65.5193 17.59 64.7271 17.987 63.8727 18.1738ZM63.7418 17.8748C64.7422 17.6562 65.5217 17.0763 66.0803 16.1353C66.647 15.1816 66.9029 13.9793 66.8477 12.5283C66.8318 12.1059 66.7727 11.6603 66.6702 11.1913C66.4492 10.1805 66.0493 9.39993 65.4704 8.84952C64.8892 8.28868 64.1245 8.1119 63.1762 8.31918C62.8011 8.40118 62.5525 8.53741 62.4303 8.72789C62.3059 8.90795 62.2534 9.19238 62.2729 9.58119L62.5599 16.8884C62.5651 17.062 62.5813 17.2113 62.6087 17.3364C62.6656 17.5969 62.7807 17.7737 62.9539 17.8669C63.1249 17.9496 63.3875 17.9523 63.7418 17.8748Z" fill="#22262A"/>
<path d="M76.0872 10.6498C76.4924 10.6389 76.8089 10.6997 77.0365 10.8322C77.2642 10.9648 77.3813 11.1537 77.388 11.399C77.4009 11.8788 77.056 12.3416 76.3531 12.7874C75.6606 13.2223 74.8158 13.5492 73.8187 13.7682C73.793 14.0037 73.7832 14.2334 73.7893 14.4573C73.8066 15.0971 73.9538 15.6106 74.231 15.9979C74.508 16.3746 74.9077 16.5558 75.4302 16.5417C75.6541 16.5357 75.893 16.4919 76.1469 16.4103C76.4111 16.3178 76.6476 16.1834 76.8562 16.007L76.8722 16.0066C76.9042 16.0057 76.9313 16.021 76.9535 16.0524C76.9864 16.0835 76.9924 16.11 76.9717 16.1319C76.5979 16.5155 76.2001 16.7984 75.7782 16.9805C75.3563 17.1626 74.932 17.2594 74.5055 17.271C73.7698 17.2909 73.2093 17.0819 72.824 16.6442C72.4494 16.2061 72.2528 15.6459 72.2344 14.9635C72.228 14.7289 72.2476 14.4669 72.2932 14.1776C72.3842 13.5989 72.604 13.0435 72.9524 12.5112C73.3115 11.9786 73.7638 11.5396 74.3093 11.1941C74.8548 10.8485 75.4475 10.6671 76.0872 10.6498ZM75.7838 11.8585C75.7933 11.8155 75.7969 11.7514 75.7946 11.6661C75.7897 11.4848 75.738 11.3475 75.6394 11.2541C75.5512 11.1498 75.4272 11.0998 75.2672 11.1041C74.926 11.1134 74.628 11.3402 74.3733 11.7845C74.1292 12.2286 73.9527 12.8043 73.8437 13.5115C75.0613 13.1585 75.708 12.6075 75.7838 11.8585Z" fill="#22262A"/>
<path d="M82.833 17.8323C82.091 17.749 81.5718 17.4493 81.2756 16.933C80.9805 16.4061 80.874 15.777 80.9561 15.0456C80.9859 14.7806 81.0451 14.492 81.1338 14.18C81.3088 13.5771 81.6086 13.0579 82.0332 12.6226C82.4683 12.1884 82.9546 11.8727 83.4919 11.6754C84.0305 11.4675 84.5489 11.3915 85.0471 11.4475C85.4393 11.4915 85.7742 11.615 86.052 11.8179C86.3404 12.022 86.4667 12.283 86.431 12.601C86.4036 12.8449 86.3074 13.0326 86.1424 13.1644C85.9891 13.2867 85.7853 13.3336 85.5309 13.305C85.2765 13.2765 85.0981 13.192 84.9958 13.0518C84.8946 12.9009 84.8348 12.717 84.8162 12.5003C84.7858 12.2929 84.7341 12.1315 84.6612 12.016C84.5989 11.9016 84.4777 11.8344 84.2975 11.8141C83.9795 11.7784 83.6766 11.943 83.3887 12.3078C83.1021 12.6621 82.8695 13.1565 82.6909 13.7913C82.588 14.1339 82.5187 14.4643 82.483 14.7823C82.4081 15.4501 82.4858 16.0008 82.7162 16.4346C82.9478 16.8577 83.3391 17.1002 83.8904 17.1621C84.1024 17.1859 84.3515 17.1656 84.6378 17.1011C84.9253 17.026 85.161 16.9344 85.3449 16.8263L85.3608 16.828C85.3926 16.8316 85.4226 16.8511 85.4508 16.8865C85.4791 16.9218 85.4808 16.9542 85.456 16.9836C85.0328 17.3118 84.5931 17.5469 84.1371 17.6889C83.6811 17.8309 83.2464 17.8787 82.833 17.8323Z" fill="#22262A"/>
<path d="M93.7585 13.4684C94.1513 13.5685 94.4391 13.7133 94.622 13.903C94.8048 14.0927 94.8659 14.3064 94.8054 14.5441C94.6869 15.0093 94.2287 15.3604 93.4308 15.5974C92.6459 15.8267 91.7439 15.9106 90.7249 15.8492C90.636 16.0687 90.5638 16.287 90.5085 16.504C90.3505 17.1242 90.352 17.6585 90.513 18.1067C90.6766 18.5447 91.0117 18.8282 91.5182 18.9572C91.7352 19.0125 91.977 19.0356 92.2435 19.0264C92.523 19.0096 92.7872 18.9448 93.036 18.8321L93.0515 18.836C93.0825 18.8439 93.1044 18.866 93.1172 18.9023C93.1403 18.9412 93.1389 18.9683 93.113 18.9837C92.6487 19.2507 92.1888 19.4142 91.7332 19.4743C91.2776 19.5343 90.843 19.5117 90.4296 19.4064C89.7164 19.2247 89.2342 18.8707 88.983 18.3444C88.7421 17.8207 88.706 17.2281 88.8745 16.5666C88.9324 16.3392 89.0228 16.0925 89.1456 15.8266C89.3912 15.2947 89.7542 14.8203 90.2346 14.4034C90.7255 13.9891 91.2804 13.6902 91.8996 13.5067C92.5187 13.3232 93.1383 13.3104 93.7585 13.4684ZM93.1367 14.5483C93.1576 14.5096 93.1785 14.4489 93.1996 14.3662C93.2444 14.1905 93.2321 14.0443 93.1628 13.9275C93.1064 13.8031 93.0007 13.7211 92.8456 13.6816C92.5149 13.5974 92.1663 13.7342 91.7999 14.0922C91.4439 14.4528 91.1169 14.9584 90.8191 15.609C92.0868 15.6017 92.8593 15.2482 93.1367 14.5483Z" fill="#22262A"/>
<path d="M106.943 24.7978C106.971 24.7877 106.995 24.7873 107.014 24.7964C107.043 24.8102 107.058 24.8409 107.059 24.8886C107.064 24.9267 107.046 24.9533 107.003 24.9684C106.492 25.1975 106.068 25.3438 105.73 25.4074C105.393 25.471 105.089 25.4386 104.82 25.31C104.357 25.0897 104.257 24.7051 104.519 24.1563C104.611 23.9637 104.724 23.7755 104.859 23.5917L106.387 21.5018C106.573 21.2359 106.702 21.026 106.776 20.8719C106.996 20.4097 106.967 20.1121 106.687 19.979C106.456 19.8688 106.135 19.9106 105.724 20.1044C105.317 20.2886 104.844 20.6363 104.305 21.1474C103.766 21.6585 103.201 22.3108 102.61 23.1044L102.191 23.6848C102.131 23.7623 102.021 23.793 101.864 23.7769C101.701 23.7704 101.495 23.7074 101.245 23.5881C100.927 23.4366 100.786 23.3224 100.823 23.2454L101.026 22.9696C101.338 22.563 101.512 22.333 101.549 22.2799L103.238 19.9651C103.414 19.7185 103.537 19.5229 103.606 19.3785C103.721 19.1378 103.762 18.939 103.731 18.7822C103.709 18.6299 103.626 18.5193 103.481 18.4505C103.24 18.3357 102.903 18.3874 102.468 18.6055C102.038 18.814 101.546 19.1882 100.993 19.7282C100.445 20.2586 99.8801 20.9229 99.2987 21.721L98.9849 22.1563C98.8449 22.326 98.5294 22.2937 98.0384 22.0596C97.7206 21.9082 97.5801 21.7939 97.6168 21.7169L97.8192 21.4411C98.1312 21.0345 98.3058 20.8046 98.343 20.7514L100.471 17.8129C100.531 17.7354 100.591 17.6341 100.651 17.5089C100.775 17.249 100.755 17.08 100.591 17.0019C100.389 16.9055 100.018 16.965 99.4782 17.1803C99.4639 17.1854 99.4472 17.1833 99.4279 17.1741C99.3991 17.1603 99.3819 17.1344 99.3764 17.0963C99.3755 17.0487 99.3915 17.015 99.4246 16.9952C99.964 16.7561 100.412 16.6093 100.769 16.5549C101.135 16.505 101.458 16.5467 101.737 16.6798C102.19 16.8955 102.295 17.2586 102.051 17.7689C101.982 17.9133 101.892 18.0653 101.781 18.2248L100.986 19.3347C101.685 18.687 102.349 18.2475 102.979 18.0162C103.614 17.7753 104.167 17.7672 104.639 17.9922C104.947 18.139 105.135 18.3526 105.202 18.6328C105.274 18.9034 105.216 19.2361 105.028 19.6309C104.945 19.8042 104.811 20.0238 104.625 20.2897L104.242 20.8337C104.936 20.1956 105.591 19.7634 106.207 19.5371C106.837 19.3058 107.378 19.298 107.831 19.5138C108.447 19.8075 108.569 20.3444 108.198 21.1243C108.074 21.3842 107.933 21.6183 107.774 21.8264L106.087 24.1769C105.989 24.3076 105.919 24.4162 105.878 24.5029C105.772 24.7244 105.797 24.8718 105.951 24.9453C106.047 24.9912 106.166 25.0008 106.309 24.9743C106.466 24.9427 106.677 24.8839 106.943 24.7978Z" fill="#22262A"/>
<path d="M116.66 26.0873C116.991 26.3393 117.153 26.6637 117.146 27.0604C117.145 27.4487 116.983 27.855 116.66 28.2793C116.544 28.4321 116.405 28.5879 116.244 28.7467C115.593 29.3372 114.875 29.7352 114.088 29.9406C113.301 30.1461 112.55 30.1907 111.834 30.0746C111.133 29.9564 110.57 29.7358 110.146 29.4127C109.696 29.0702 109.412 28.7129 109.293 28.3408C109.189 27.9667 109.26 27.6184 109.506 27.2959C109.551 27.2365 109.621 27.1624 109.715 27.0735L115.752 21.5749C115.907 21.4246 116.026 21.2943 116.11 21.1839C116.298 20.9378 116.311 20.7534 116.15 20.6306C116.048 20.5531 115.824 20.4768 115.479 20.4017L115.466 20.392C115.433 20.3662 115.423 20.3256 115.439 20.2702C115.469 20.2128 115.504 20.1928 115.545 20.2102L118.254 20.7452L118.28 20.7645C118.314 20.7904 118.334 20.8257 118.34 20.8706C118.354 20.9219 118.351 20.9528 118.33 20.9633L112.543 26.2909C113.325 25.8806 114.082 25.6525 114.814 25.6066C115.561 25.5587 116.176 25.7189 116.66 26.0873ZM114.683 28.1817C114.861 28.0358 115.034 27.8525 115.202 27.6319C115.396 27.3773 115.502 27.1423 115.518 26.927C115.549 26.7096 115.472 26.5298 115.285 26.3877C114.818 26.0322 114.181 25.9892 113.372 26.2585C112.571 26.5193 111.75 27.0339 110.91 27.8022C110.869 27.8382 110.813 27.9028 110.742 27.9962C110.561 28.2338 110.481 28.4882 110.503 28.7593C110.539 29.0283 110.668 29.2469 110.889 29.4149C111.143 29.6087 111.471 29.6975 111.872 29.6813C112.28 29.6565 112.726 29.52 113.21 29.2718C113.7 29.0151 114.191 28.6517 114.683 28.1817Z" fill="#22262A"/>
<path d="M123.081 32.4969C123.362 32.7887 123.53 33.0633 123.586 33.3208C123.642 33.5783 123.581 33.7922 123.405 33.9625C123.059 34.2957 122.485 34.3532 121.682 34.1349C120.894 33.9169 120.082 33.5136 119.248 32.9252C119.057 33.065 118.881 33.2127 118.72 33.3682C118.259 33.8124 117.979 34.2675 117.88 34.7334C117.789 35.1919 117.924 35.6093 118.287 35.9855C118.443 36.1468 118.636 36.2936 118.868 36.4261C119.114 36.5588 119.373 36.6427 119.644 36.6778L119.655 36.6893C119.677 36.7124 119.684 36.7427 119.676 36.7802C119.675 36.8255 119.66 36.8478 119.63 36.8473C119.094 36.83 118.617 36.727 118.198 36.5384C117.779 36.3497 117.421 36.1018 117.125 35.7947C116.614 35.2649 116.391 34.7101 116.454 34.1304C116.525 33.5584 116.806 33.0354 117.297 32.5616C117.466 32.3987 117.673 32.2365 117.917 32.0749C118.406 31.7519 118.964 31.5395 119.592 31.4378C120.227 31.3437 120.857 31.3815 121.48 31.5513C122.103 31.721 122.636 32.0362 123.081 32.4969ZM121.984 33.088C122.022 33.0661 122.071 33.0255 122.133 32.9663C122.263 32.8404 122.33 32.7096 122.332 32.5738C122.35 32.4384 122.303 32.313 122.192 32.1979C121.955 31.9522 121.587 31.8851 121.087 31.9967C120.594 32.116 120.05 32.374 119.455 32.7705C120.536 33.4314 121.379 33.5372 121.984 33.088Z" fill="#22262A"/>
<path d="M128.669 39.9473C128.832 40.1716 128.904 40.4425 128.884 40.7602C128.871 41.0864 128.748 41.3076 128.516 41.4237C128.374 41.5005 128.209 41.528 128.022 41.506C127.834 41.4841 127.684 41.3955 127.571 41.2402C127.458 41.085 127.409 40.8634 127.424 40.5756C127.423 40.4839 127.418 40.3952 127.409 40.3098C127.4 40.2243 127.373 40.1514 127.329 40.091C127.222 39.9443 126.862 39.9295 126.248 40.0464C125.634 40.1633 124.935 40.3547 124.153 40.6206C123.385 40.8889 122.728 41.1556 122.183 41.4207L122.17 41.4301C122.079 41.4694 121.969 41.4443 121.838 41.3549C121.698 41.2718 121.547 41.1181 121.384 40.8938C121.177 40.6092 121.108 40.4417 121.177 40.3915C121.243 40.3562 121.392 40.288 121.621 40.1868C121.857 40.0942 122.079 39.9993 122.285 39.9021L125.556 38.3337C125.707 38.2505 125.803 38.1933 125.847 38.1619C126.088 37.9862 126.152 37.8207 126.039 37.6655C125.914 37.493 125.563 37.3726 124.985 37.3044C124.97 37.3021 124.957 37.2923 124.944 37.275C124.919 37.2405 124.913 37.2052 124.927 37.1692C124.949 37.1268 124.982 37.1092 125.027 37.1162C125.615 37.1632 126.079 37.2479 126.418 37.3702C126.764 37.5011 127.028 37.6917 127.21 37.9418C127.367 38.1575 127.419 38.3566 127.368 38.5394C127.324 38.7158 127.191 38.8856 126.967 39.0488C126.837 39.1429 126.685 39.2335 126.511 39.3205L124.9 40.0971C126.961 39.3762 128.217 39.3263 128.669 39.9473Z" fill="#22262A"/>
</svg>
