<svg width="290" height="219" viewBox="0 0 290 219" fill="none" xmlns="http://www.w3.org/2000/svg">
<g filter="url(#filter0_d_258:1885)">
<path d="M117.73 99C117.762 99 117.778 99.048 117.778 99.144C117.778 99.24 117.762 99.288 117.73 99.288C117.122 99.288 116.594 99.512 116.146 99.96C115.714 100.408 115.426 101.016 115.282 101.784L113.074 114.168C113.074 114.216 113.026 114.256 112.93 114.288C112.85 114.336 112.762 114.36 112.666 114.36C112.522 114.36 112.426 114.312 112.378 114.216L105.466 101.592L103.738 111.216C103.706 111.376 103.69 111.6 103.69 111.888C103.69 112.464 103.834 112.912 104.122 113.232C104.41 113.552 104.81 113.712 105.322 113.712C105.354 113.712 105.37 113.76 105.37 113.856C105.37 113.952 105.354 114 105.322 114C104.906 114 104.586 113.992 104.362 113.976L102.994 113.952L101.698 113.976C101.458 113.992 101.106 114 100.642 114C100.594 114 100.57 113.952 100.57 113.856C100.57 113.76 100.594 113.712 100.642 113.712C101.25 113.712 101.77 113.488 102.202 113.04C102.65 112.592 102.938 111.984 103.066 111.216L104.962 100.704C104.658 100.176 104.362 99.808 104.074 99.6C103.786 99.392 103.474 99.288 103.138 99.288C103.09 99.288 103.066 99.24 103.066 99.144C103.066 99.048 103.09 99 103.138 99L104.266 99.024C104.506 99.04 104.826 99.048 105.226 99.048C105.61 99.048 105.938 99.04 106.21 99.024C106.498 99.008 106.69 99 106.786 99C106.882 99 106.954 99.032 107.002 99.096C107.05 99.144 107.106 99.256 107.17 99.432C107.202 99.496 107.25 99.608 107.314 99.768C107.394 99.912 107.482 100.072 107.578 100.248L113.074 110.256L114.61 101.784C114.658 101.512 114.682 101.272 114.682 101.064C114.682 100.504 114.538 100.072 114.25 99.768C113.962 99.448 113.562 99.288 113.05 99.288C113.002 99.288 112.978 99.24 112.978 99.144C112.978 99.048 113.002 99 113.05 99L113.914 99.024C114.49 99.056 114.978 99.072 115.378 99.072C115.666 99.072 116.098 99.056 116.674 99.024L117.73 99ZM120.209 114.336C119.153 114.336 118.345 114 117.785 113.328C117.241 112.64 116.969 111.752 116.969 110.664C116.969 110.184 117.009 109.752 117.089 109.368C117.265 108.408 117.609 107.552 118.121 106.8C118.649 106.048 119.281 105.464 120.017 105.048C120.753 104.632 121.545 104.424 122.393 104.424C123.465 104.424 124.281 104.752 124.841 105.408C125.417 106.048 125.705 106.912 125.705 108C125.705 108.432 125.657 108.888 125.561 109.368C125.353 110.424 124.969 111.328 124.409 112.08C123.865 112.816 123.217 113.376 122.465 113.76C121.729 114.144 120.977 114.336 120.209 114.336ZM121.025 113.736C121.537 113.736 121.977 113.44 122.345 112.848C122.729 112.256 123.009 111.448 123.185 110.424C123.297 109.8 123.353 109.168 123.353 108.528C123.353 107.488 123.193 106.64 122.873 105.984C122.569 105.328 122.145 105 121.601 105C121.121 105 120.689 105.28 120.305 105.84C119.937 106.4 119.657 107.232 119.465 108.336C119.353 108.96 119.297 109.592 119.297 110.232C119.297 111.272 119.449 112.12 119.753 112.776C120.057 113.416 120.481 113.736 121.025 113.736ZM130.468 114.312C129.764 114.312 129.172 114.048 128.692 113.52C128.212 112.976 127.972 112.336 127.972 111.6C127.972 111.168 128.06 110.728 128.236 110.28C128.428 109.816 128.716 109.224 129.1 108.504C129.436 107.848 129.652 107.424 129.748 107.232C129.876 106.976 129.94 106.808 129.94 106.728C129.94 106.616 129.852 106.56 129.676 106.56H128.524C127.964 106.56 127.556 106.64 127.3 106.8C127.044 106.96 126.852 107.224 126.724 107.592C126.692 107.656 126.644 107.688 126.58 107.688C126.532 107.688 126.492 107.672 126.46 107.64C126.428 107.608 126.42 107.568 126.436 107.52C126.692 106.768 126.916 106.2 127.108 105.816C127.316 105.432 127.556 105.152 127.828 104.976C128.116 104.8 128.492 104.712 128.956 104.712H131.188C131.364 104.712 131.452 104.744 131.452 104.808C131.452 104.856 131.428 104.92 131.38 105C131.044 105.784 130.732 106.592 130.444 107.424C130.172 108.24 129.996 108.92 129.916 109.464C129.884 109.64 129.868 109.88 129.868 110.184C129.868 110.888 130.028 111.448 130.348 111.864C130.684 112.264 131.124 112.464 131.668 112.464C132.116 112.464 132.556 112.328 132.988 112.056C133.42 111.784 133.788 111.408 134.092 110.928C134.412 110.432 134.612 109.864 134.692 109.224C134.708 109.112 134.716 108.952 134.716 108.744C134.716 108.36 134.652 108.04 134.524 107.784C134.396 107.512 134.188 107.216 133.9 106.896C133.692 106.672 133.532 106.472 133.42 106.296C133.324 106.104 133.276 105.896 133.276 105.672C133.276 105.288 133.396 105 133.636 104.808C133.892 104.6 134.212 104.496 134.596 104.496C135.028 104.496 135.348 104.64 135.556 104.928C135.78 105.216 135.892 105.728 135.892 106.464C135.892 106.896 135.876 107.248 135.844 107.52C135.732 108.704 135.396 109.824 134.836 110.88C134.276 111.92 133.596 112.752 132.796 113.376C132.012 114 131.236 114.312 130.468 114.312ZM143.17 104.424C143.778 104.424 144.25 104.528 144.586 104.736C144.922 104.944 145.09 105.232 145.09 105.6C145.09 106.32 144.554 107 143.482 107.64C142.426 108.264 141.146 108.72 139.642 109.008C139.594 109.36 139.57 109.704 139.57 110.04C139.57 111 139.77 111.776 140.17 112.368C140.57 112.944 141.162 113.232 141.946 113.232C142.282 113.232 142.642 113.176 143.026 113.064C143.426 112.936 143.786 112.744 144.106 112.488H144.13C144.178 112.488 144.218 112.512 144.25 112.56C144.298 112.608 144.306 112.648 144.274 112.68C143.698 113.24 143.09 113.648 142.45 113.904C141.81 114.16 141.17 114.288 140.53 114.288C139.426 114.288 138.594 113.952 138.034 113.28C137.49 112.608 137.218 111.76 137.218 110.736C137.218 110.384 137.258 109.992 137.338 109.56C137.498 108.696 137.85 107.872 138.394 107.088C138.954 106.304 139.65 105.664 140.482 105.168C141.314 104.672 142.21 104.424 143.17 104.424ZM142.666 106.224C142.682 106.16 142.69 106.064 142.69 105.936C142.69 105.664 142.618 105.456 142.474 105.312C142.346 105.152 142.162 105.072 141.922 105.072C141.41 105.072 140.954 105.4 140.554 106.056C140.17 106.712 139.882 107.568 139.69 108.624C141.53 108.144 142.522 107.344 142.666 106.224ZM161.012 112.152C161.044 112.12 161.076 112.104 161.108 112.104C161.156 112.104 161.196 112.136 161.228 112.2C161.26 112.248 161.252 112.296 161.204 112.344C160.66 112.984 160.18 113.456 159.764 113.76C159.348 114.064 158.916 114.216 158.468 114.216C157.7 114.216 157.316 113.76 157.316 112.848C157.316 112.528 157.348 112.2 157.412 111.864L158.132 108.048C158.212 107.568 158.252 107.2 158.252 106.944C158.252 106.176 158.02 105.792 157.556 105.792C157.172 105.792 156.764 106.056 156.332 106.584C155.9 107.096 155.484 107.872 155.084 108.912C154.684 109.952 154.34 111.2 154.052 112.656L153.86 113.712C153.828 113.856 153.7 113.968 153.476 114.048C153.252 114.144 152.932 114.192 152.516 114.192C151.988 114.192 151.724 114.128 151.724 114L151.82 113.496C151.98 112.744 152.068 112.32 152.084 112.224L152.876 108C152.956 107.552 152.996 107.208 152.996 106.968C152.996 106.568 152.924 106.272 152.78 106.08C152.652 105.888 152.468 105.792 152.228 105.792C151.828 105.792 151.404 106.08 150.956 106.656C150.508 107.216 150.084 108.04 149.684 109.128C149.284 110.2 148.948 111.464 148.676 112.92L148.532 113.712C148.452 114.032 148.004 114.192 147.188 114.192C146.66 114.192 146.396 114.128 146.396 114L146.492 113.496C146.652 112.744 146.74 112.32 146.756 112.224L147.74 106.872C147.772 106.728 147.788 106.552 147.788 106.344C147.788 105.912 147.652 105.696 147.38 105.696C147.044 105.696 146.58 106.016 145.988 106.656C145.972 106.672 145.948 106.68 145.916 106.68C145.868 106.68 145.828 106.656 145.796 106.608C145.764 106.544 145.764 106.488 145.796 106.44C146.372 105.768 146.884 105.28 147.332 104.976C147.796 104.672 148.26 104.52 148.724 104.52C149.476 104.52 149.852 104.944 149.852 105.792C149.852 106.032 149.828 106.296 149.78 106.584L149.42 108.6C149.948 107.272 150.564 106.248 151.268 105.528C151.972 104.792 152.716 104.424 153.5 104.424C154.012 104.424 154.404 104.592 154.676 104.928C154.948 105.248 155.084 105.736 155.084 106.392C155.084 106.68 155.044 107.064 154.964 107.544L154.796 108.528C155.324 107.216 155.932 106.208 156.62 105.504C157.324 104.784 158.052 104.424 158.804 104.424C159.828 104.424 160.34 105.072 160.34 106.368C160.34 106.8 160.3 107.208 160.22 107.592L159.452 111.864C159.404 112.104 159.38 112.296 159.38 112.44C159.38 112.808 159.508 112.992 159.764 112.992C159.924 112.992 160.092 112.928 160.268 112.8C160.46 112.656 160.708 112.44 161.012 112.152ZM170.146 104.424C170.77 104.424 171.258 104.664 171.61 105.144C171.962 105.608 172.138 106.24 172.138 107.04C172.138 107.328 172.114 107.64 172.066 107.976C171.826 109.272 171.33 110.4 170.578 111.36C169.826 112.32 168.97 113.056 168.01 113.568C167.066 114.064 166.194 114.312 165.394 114.312C164.546 114.312 163.882 114.144 163.402 113.808C162.938 113.456 162.706 112.976 162.706 112.368C162.706 112.256 162.722 112.104 162.754 111.912L164.962 99.864C165.01 99.544 165.034 99.28 165.034 99.072C165.034 98.608 164.882 98.376 164.578 98.376C164.386 98.376 164.05 98.488 163.57 98.712H163.546C163.482 98.712 163.434 98.672 163.402 98.592C163.386 98.496 163.41 98.44 163.474 98.424L167.194 96.6H167.242C167.306 96.6 167.362 96.624 167.41 96.672C167.474 96.72 167.498 96.76 167.482 96.792L165.418 108.408C165.978 107.208 166.674 106.248 167.506 105.528C168.354 104.792 169.234 104.424 170.146 104.424ZM169.69 108.72C169.77 108.384 169.81 108.008 169.81 107.592C169.81 107.112 169.722 106.736 169.546 106.464C169.386 106.176 169.13 106.032 168.778 106.032C167.898 106.032 167.098 106.56 166.378 107.616C165.658 108.656 165.146 110.016 164.842 111.696C164.826 111.776 164.818 111.904 164.818 112.08C164.818 112.528 164.954 112.904 165.226 113.208C165.514 113.496 165.866 113.64 166.282 113.64C166.762 113.64 167.234 113.448 167.698 113.064C168.162 112.664 168.57 112.096 168.922 111.36C169.274 110.608 169.53 109.728 169.69 108.72ZM179.006 104.424C179.614 104.424 180.086 104.528 180.422 104.736C180.758 104.944 180.926 105.232 180.926 105.6C180.926 106.32 180.39 107 179.318 107.64C178.262 108.264 176.982 108.72 175.478 109.008C175.43 109.36 175.406 109.704 175.406 110.04C175.406 111 175.606 111.776 176.006 112.368C176.406 112.944 176.998 113.232 177.782 113.232C178.118 113.232 178.478 113.176 178.862 113.064C179.262 112.936 179.622 112.744 179.942 112.488H179.966C180.014 112.488 180.054 112.512 180.086 112.56C180.134 112.608 180.142 112.648 180.11 112.68C179.534 113.24 178.926 113.648 178.286 113.904C177.646 114.16 177.006 114.288 176.366 114.288C175.262 114.288 174.43 113.952 173.87 113.28C173.326 112.608 173.054 111.76 173.054 110.736C173.054 110.384 173.094 109.992 173.174 109.56C173.334 108.696 173.686 107.872 174.23 107.088C174.79 106.304 175.486 105.664 176.318 105.168C177.15 104.672 178.046 104.424 179.006 104.424ZM178.502 106.224C178.518 106.16 178.526 106.064 178.526 105.936C178.526 105.664 178.454 105.456 178.31 105.312C178.182 105.152 177.998 105.072 177.758 105.072C177.246 105.072 176.79 105.4 176.39 106.056C176.006 106.712 175.718 107.568 175.526 108.624C177.366 108.144 178.358 107.344 178.502 106.224ZM188.232 104.52C188.648 104.52 189.04 104.672 189.408 104.976C189.792 105.28 189.952 105.624 189.888 106.008C189.856 106.248 189.744 106.472 189.552 106.68C189.36 106.888 189.12 106.992 188.832 106.992C188.544 106.992 188.232 106.856 187.896 106.584C187.784 106.504 187.672 106.432 187.56 106.368C187.448 106.304 187.336 106.272 187.224 106.272C186.952 106.272 186.616 106.696 186.216 107.544C185.816 108.392 185.432 109.408 185.064 110.592C184.712 111.76 184.456 112.792 184.296 113.688V113.712C184.264 113.856 184.136 113.968 183.912 114.048C183.688 114.144 183.368 114.192 182.952 114.192C182.424 114.192 182.16 114.128 182.16 114C182.176 113.888 182.224 113.648 182.304 113.28C182.4 112.912 182.48 112.56 182.544 112.224L183.528 106.872C183.56 106.616 183.576 106.448 183.576 106.368C183.576 105.92 183.432 105.696 183.144 105.696C182.824 105.696 182.368 106.016 181.776 106.656C181.76 106.672 181.736 106.68 181.704 106.68C181.64 106.68 181.592 106.656 181.56 106.608C181.528 106.544 181.536 106.488 181.584 106.44C182.16 105.768 182.672 105.28 183.12 104.976C183.584 104.672 184.048 104.52 184.512 104.52C184.912 104.52 185.2 104.632 185.376 104.856C185.552 105.064 185.64 105.376 185.64 105.792C185.64 106.032 185.616 106.296 185.568 106.584L185.088 109.224C186.032 106.088 187.08 104.52 188.232 104.52Z" fill="#22262A"/>
</g>
<defs>
<filter id="filter0_d_258:1885" x="0.57019" y="0.599976" width="289.414" height="217.76" filterUnits="userSpaceOnUse" color-interpolation-filters="sRGB">
<feFlood flood-opacity="0" result="BackgroundImageFix"/>
<feColorMatrix in="SourceAlpha" type="matrix" values="0 0 0 0 0 0 0 0 0 0 0 0 0 0 0 0 0 0 127 0" result="hardAlpha"/>
<feOffset dy="4"/>
<feGaussianBlur stdDeviation="50"/>
<feComposite in2="hardAlpha" operator="out"/>
<feColorMatrix type="matrix" values="0 0 0 0 0 0 0 0 0 0 0 0 0 0 0 0 0 0 0.25 0"/>
<feBlend mode="normal" in2="BackgroundImageFix" result="effect1_dropShadow_258:1885"/>
<feBlend mode="normal" in="SourceGraphic" in2="effect1_dropShadow_258:1885" result="shape"/>
</filter>
</defs>
</svg>
