<svg width="269" height="219" viewBox="0 0 269 219" fill="none" xmlns="http://www.w3.org/2000/svg">
<g filter="url(#filter0_d_258:1785)">
<path d="M105.826 114.288C104.69 114.288 103.706 114.032 102.874 113.52C102.058 112.992 101.434 112.272 101.002 111.36C100.57 110.448 100.354 109.416 100.354 108.264C100.354 107.784 100.41 107.192 100.522 106.488C100.778 105.016 101.306 103.696 102.106 102.528C102.922 101.344 103.93 100.416 105.13 99.744C106.33 99.072 107.602 98.736 108.946 98.736C110.098 98.736 111.09 98.992 111.922 99.504C112.77 100.016 113.418 100.728 113.866 101.64C114.314 102.536 114.538 103.568 114.538 104.736C114.538 105.344 114.482 105.928 114.37 106.488C114.098 108.056 113.53 109.432 112.666 110.616C111.802 111.8 110.762 112.712 109.546 113.352C108.346 113.976 107.106 114.288 105.826 114.288ZM106.858 113.664C107.994 113.664 108.994 113.136 109.858 112.08C110.738 111.008 111.33 109.568 111.634 107.76C111.762 107.056 111.826 106.28 111.826 105.432C111.826 103.656 111.49 102.192 110.818 101.04C110.146 99.888 109.21 99.312 108.01 99.312C106.858 99.312 105.85 99.848 104.986 100.92C104.122 101.976 103.538 103.408 103.234 105.216C103.106 106.064 103.042 106.832 103.042 107.52C103.042 109.28 103.37 110.744 104.026 111.912C104.698 113.08 105.642 113.664 106.858 113.664ZM118.508 114.312C117.388 114.312 116.564 113.952 116.036 113.232C115.508 112.496 115.244 111.576 115.244 110.472C115.244 110.072 115.284 109.632 115.364 109.152C115.524 108.224 115.884 107.4 116.444 106.68C117.02 105.96 117.692 105.408 118.46 105.024C119.228 104.624 119.988 104.424 120.74 104.424C121.332 104.424 121.852 104.552 122.3 104.808C122.764 105.064 122.996 105.432 122.996 105.912C122.996 106.28 122.884 106.576 122.66 106.8C122.452 107.008 122.156 107.112 121.772 107.112C121.388 107.112 121.108 107.016 120.932 106.824C120.756 106.616 120.636 106.352 120.572 106.032C120.492 105.728 120.388 105.496 120.26 105.336C120.148 105.176 119.956 105.096 119.684 105.096C119.204 105.096 118.78 105.392 118.412 105.984C118.044 106.56 117.78 107.336 117.62 108.312C117.524 108.84 117.476 109.344 117.476 109.824C117.476 110.832 117.684 111.64 118.1 112.248C118.516 112.84 119.14 113.136 119.972 113.136C120.292 113.136 120.66 113.064 121.076 112.92C121.492 112.76 121.828 112.584 122.084 112.392H122.108C122.156 112.392 122.204 112.416 122.252 112.464C122.3 112.512 122.308 112.56 122.276 112.608C121.7 113.168 121.084 113.592 120.428 113.88C119.772 114.168 119.132 114.312 118.508 114.312ZM130.285 104.736C130.397 104.736 130.453 104.808 130.453 104.952C130.453 105.08 130.357 105.272 130.165 105.528C129.989 105.784 129.821 105.912 129.661 105.912C129.613 105.912 129.349 105.872 128.869 105.792C128.405 105.712 127.877 105.656 127.285 105.624L126.277 111.336C126.245 111.592 126.229 111.768 126.229 111.864C126.229 112.248 126.325 112.528 126.517 112.704C126.725 112.88 127.037 112.968 127.453 112.968C128.061 112.968 128.733 112.672 129.469 112.08H129.493C129.557 112.08 129.613 112.104 129.661 112.152C129.709 112.2 129.709 112.248 129.661 112.296C128.925 113 128.269 113.512 127.693 113.832C127.133 114.136 126.573 114.288 126.013 114.288C124.717 114.288 124.069 113.704 124.069 112.536C124.069 112.296 124.093 112.032 124.141 111.744L125.077 106.656C125.125 106.384 125.149 106.16 125.149 105.984C125.149 105.744 125.085 105.584 124.957 105.504C124.829 105.424 124.597 105.384 124.261 105.384C124.213 105.384 124.189 105.328 124.189 105.216C124.189 105.072 124.213 105 124.261 105C125.541 105 126.557 104.296 127.309 102.888C127.341 102.84 127.397 102.816 127.477 102.816C127.557 102.816 127.629 102.832 127.693 102.864C127.757 102.896 127.781 102.928 127.765 102.96L127.405 104.928C127.853 104.912 128.237 104.896 128.557 104.88C128.877 104.848 129.149 104.824 129.373 104.808C129.789 104.76 130.093 104.736 130.285 104.736ZM133.999 114.336C132.943 114.336 132.135 114 131.575 113.328C131.031 112.64 130.759 111.752 130.759 110.664C130.759 110.184 130.799 109.752 130.879 109.368C131.055 108.408 131.399 107.552 131.911 106.8C132.439 106.048 133.071 105.464 133.807 105.048C134.543 104.632 135.335 104.424 136.183 104.424C137.255 104.424 138.071 104.752 138.631 105.408C139.207 106.048 139.495 106.912 139.495 108C139.495 108.432 139.447 108.888 139.351 109.368C139.143 110.424 138.759 111.328 138.199 112.08C137.655 112.816 137.007 113.376 136.255 113.76C135.519 114.144 134.767 114.336 133.999 114.336ZM134.815 113.736C135.327 113.736 135.767 113.44 136.135 112.848C136.519 112.256 136.799 111.448 136.975 110.424C137.087 109.8 137.143 109.168 137.143 108.528C137.143 107.488 136.983 106.64 136.663 105.984C136.359 105.328 135.935 105 135.391 105C134.911 105 134.479 105.28 134.095 105.84C133.727 106.4 133.447 107.232 133.255 108.336C133.143 108.96 133.087 109.592 133.087 110.232C133.087 111.272 133.239 112.12 133.543 112.776C133.847 113.416 134.271 113.736 134.815 113.736ZM148.452 104.424C149.076 104.424 149.564 104.664 149.916 105.144C150.268 105.608 150.444 106.24 150.444 107.04C150.444 107.328 150.42 107.64 150.372 107.976C150.132 109.272 149.636 110.4 148.884 111.36C148.132 112.32 147.276 113.056 146.316 113.568C145.372 114.064 144.5 114.312 143.7 114.312C142.852 114.312 142.188 114.144 141.708 113.808C141.244 113.456 141.012 112.976 141.012 112.368C141.012 112.256 141.028 112.104 141.06 111.912L143.268 99.864C143.316 99.544 143.34 99.28 143.34 99.072C143.34 98.608 143.188 98.376 142.884 98.376C142.692 98.376 142.356 98.488 141.876 98.712H141.852C141.788 98.712 141.74 98.672 141.708 98.592C141.692 98.496 141.716 98.44 141.78 98.424L145.5 96.6H145.548C145.612 96.6 145.668 96.624 145.716 96.672C145.78 96.72 145.804 96.76 145.788 96.792L143.724 108.408C144.284 107.208 144.98 106.248 145.812 105.528C146.66 104.792 147.54 104.424 148.452 104.424ZM147.996 108.72C148.076 108.384 148.116 108.008 148.116 107.592C148.116 107.112 148.028 106.736 147.852 106.464C147.692 106.176 147.436 106.032 147.084 106.032C146.204 106.032 145.404 106.56 144.684 107.616C143.964 108.656 143.452 110.016 143.148 111.696C143.132 111.776 143.124 111.904 143.124 112.08C143.124 112.528 143.26 112.904 143.532 113.208C143.82 113.496 144.172 113.64 144.588 113.64C145.068 113.64 145.54 113.448 146.004 113.064C146.468 112.664 146.876 112.096 147.228 111.36C147.58 110.608 147.836 109.728 147.996 108.72ZM157.312 104.424C157.92 104.424 158.392 104.528 158.728 104.736C159.064 104.944 159.232 105.232 159.232 105.6C159.232 106.32 158.696 107 157.624 107.64C156.568 108.264 155.288 108.72 153.784 109.008C153.736 109.36 153.712 109.704 153.712 110.04C153.712 111 153.912 111.776 154.312 112.368C154.712 112.944 155.304 113.232 156.088 113.232C156.424 113.232 156.784 113.176 157.168 113.064C157.568 112.936 157.928 112.744 158.248 112.488H158.272C158.32 112.488 158.36 112.512 158.392 112.56C158.44 112.608 158.448 112.648 158.416 112.68C157.84 113.24 157.232 113.648 156.592 113.904C155.952 114.16 155.312 114.288 154.672 114.288C153.568 114.288 152.736 113.952 152.176 113.28C151.632 112.608 151.36 111.76 151.36 110.736C151.36 110.384 151.4 109.992 151.48 109.56C151.64 108.696 151.992 107.872 152.536 107.088C153.096 106.304 153.792 105.664 154.624 105.168C155.456 104.672 156.352 104.424 157.312 104.424ZM156.808 106.224C156.824 106.16 156.832 106.064 156.832 105.936C156.832 105.664 156.76 105.456 156.616 105.312C156.488 105.152 156.304 105.072 156.064 105.072C155.552 105.072 155.096 105.4 154.696 106.056C154.312 106.712 154.024 107.568 153.832 108.624C155.672 108.144 156.664 107.344 156.808 106.224ZM166.538 104.52C166.954 104.52 167.346 104.672 167.714 104.976C168.098 105.28 168.258 105.624 168.194 106.008C168.162 106.248 168.05 106.472 167.858 106.68C167.666 106.888 167.426 106.992 167.138 106.992C166.85 106.992 166.538 106.856 166.202 106.584C166.09 106.504 165.978 106.432 165.866 106.368C165.754 106.304 165.642 106.272 165.53 106.272C165.258 106.272 164.922 106.696 164.522 107.544C164.122 108.392 163.738 109.408 163.37 110.592C163.018 111.76 162.762 112.792 162.602 113.688V113.712C162.57 113.856 162.442 113.968 162.218 114.048C161.994 114.144 161.674 114.192 161.258 114.192C160.73 114.192 160.466 114.128 160.466 114C160.482 113.888 160.53 113.648 160.61 113.28C160.706 112.912 160.786 112.56 160.85 112.224L161.834 106.872C161.866 106.616 161.882 106.448 161.882 106.368C161.882 105.92 161.738 105.696 161.45 105.696C161.13 105.696 160.674 106.016 160.082 106.656C160.066 106.672 160.042 106.68 160.01 106.68C159.946 106.68 159.898 106.656 159.866 106.608C159.834 106.544 159.842 106.488 159.89 106.44C160.466 105.768 160.978 105.28 161.426 104.976C161.89 104.672 162.354 104.52 162.818 104.52C163.218 104.52 163.506 104.632 163.682 104.856C163.858 105.064 163.946 105.376 163.946 105.792C163.946 106.032 163.922 106.296 163.874 106.584L163.394 109.224C164.338 106.088 165.386 104.52 166.538 104.52Z" fill="#22262A"/>
</g>
<defs>
<filter id="filter0_d_258:1785" x="0.354248" y="0.599976" width="267.936" height="217.736" filterUnits="userSpaceOnUse" color-interpolation-filters="sRGB">
<feFlood flood-opacity="0" result="BackgroundImageFix"/>
<feColorMatrix in="SourceAlpha" type="matrix" values="0 0 0 0 0 0 0 0 0 0 0 0 0 0 0 0 0 0 127 0" result="hardAlpha"/>
<feOffset dy="4"/>
<feGaussianBlur stdDeviation="50"/>
<feComposite in2="hardAlpha" operator="out"/>
<feColorMatrix type="matrix" values="0 0 0 0 0 0 0 0 0 0 0 0 0 0 0 0 0 0 0.25 0"/>
<feBlend mode="normal" in2="BackgroundImageFix" result="effect1_dropShadow_258:1785"/>
<feBlend mode="normal" in="SourceGraphic" in2="effect1_dropShadow_258:1785" result="shape"/>
</filter>
</defs>
</svg>
