<svg width="177" height="27" viewBox="0 0 177 27" fill="none" xmlns="http://www.w3.org/2000/svg">
<path d="M27.32 25.52C27.3733 25.52 27.4 25.6 27.4 25.76C27.4 25.92 27.3733 26 27.32 26H20.2C19.6133 26 18.52 24.9467 16.92 22.84C15.32 20.7067 13.3867 17.7333 11.12 13.92C10.9067 13.9467 10.6 13.96 10.2 13.96C9.16 13.96 8.42667 13.9467 8 13.92V22.76C8 23.5867 8.06667 24.1867 8.2 24.56C8.33333 24.9333 8.58667 25.1867 8.96 25.32C9.36 25.4533 9.98667 25.52 10.84 25.52C10.8933 25.52 10.92 25.6 10.92 25.76C10.92 25.92 10.8933 26 10.84 26C9.96 26 9.26667 25.9867 8.76 25.96L5.72 25.92L2.8 25.96C2.26667 25.9867 1.54667 26 0.64 26C0.56 26 0.52 25.92 0.52 25.76C0.52 25.6 0.56 25.52 0.64 25.52C1.49333 25.52 2.10667 25.4533 2.48 25.32C2.88 25.1867 3.14667 24.9333 3.28 24.56C3.44 24.16 3.52 23.56 3.52 22.76V4.24C3.52 3.44 3.45333 2.85333 3.32 2.48C3.18667 2.10667 2.92 1.85333 2.52 1.72C2.12 1.56 1.50667 1.48 0.68 1.48C0.626667 1.48 0.6 1.4 0.6 1.24C0.6 1.08 0.626667 1 0.68 1L2.8 1.04C4.02667 1.09333 5 1.12 5.72 1.12C6.62667 1.12 7.57333 1.08 8.56 1C8.90667 0.973332 9.33333 0.946665 9.84 0.919999C10.3733 0.893332 10.96 0.879999 11.6 0.879999C14.0267 0.879999 15.9067 1.33333 17.24 2.24C18.5733 3.12 19.24 4.36 19.24 5.96C19.24 7.42667 18.84 8.76 18.04 9.96C17.24 11.1333 16.1733 12.08 14.84 12.8C16.9733 16 18.76 18.5067 20.2 20.32C21.64 22.1333 22.92 23.4533 24.04 24.28C25.16 25.1067 26.2533 25.52 27.32 25.52ZM8 12.8C8.64 12.9067 9.41333 12.96 10.32 12.96C11.8667 12.96 12.9733 12.5333 13.64 11.68C14.3333 10.8 14.68 9.4 14.68 7.48C14.68 5.29333 14.36 3.78667 13.72 2.96C13.08 2.13333 12.16 1.72 10.96 1.72C9.89333 1.72 9.13333 1.92 8.68 2.32C8.22667 2.72 8 3.38667 8 4.32V12.8ZM46.7697 19.64C46.7697 19.5867 46.823 19.56 46.9297 19.56C47.0097 19.56 47.0764 19.5867 47.1297 19.64C47.2097 19.6667 47.2497 19.6933 47.2497 19.72C46.983 21.8 46.8497 23.6933 46.8497 25.4C46.8497 25.6133 46.8097 25.7733 46.7297 25.88C46.6497 25.96 46.4897 26 46.2497 26H28.5697C28.4897 26 28.4497 25.92 28.4497 25.76C28.4497 25.6 28.4897 25.52 28.5697 25.52C29.423 25.52 30.0364 25.4533 30.4097 25.32C30.8097 25.1867 31.0764 24.9333 31.2097 24.56C31.343 24.16 31.4097 23.56 31.4097 22.76V4.24C31.4097 3.44 31.343 2.85333 31.2097 2.48C31.0764 2.10667 30.8097 1.85333 30.4097 1.72C30.0097 1.56 29.3964 1.48 28.5697 1.48C28.4897 1.48 28.4497 1.4 28.4497 1.24C28.4497 1.08 28.4897 1 28.5697 1H45.5297C45.7964 1 45.9297 1.12 45.9297 1.36L46.0097 6.68C46.0097 6.73333 45.9297 6.77333 45.7697 6.8C45.6364 6.82667 45.5564 6.8 45.5297 6.72C45.103 5.17333 44.383 4.02667 43.3697 3.28C42.3564 2.53333 41.023 2.16 39.3697 2.16H38.1697C37.3697 2.16 36.783 2.33333 36.4097 2.68C36.0364 3.02667 35.8497 3.56 35.8497 4.28V12.44H39.1697C40.7164 12.44 41.903 12.1733 42.7297 11.64C43.5564 11.1067 43.9697 10.36 43.9697 9.4C43.9697 9.32 44.0364 9.28 44.1697 9.28C44.3297 9.28 44.4097 9.32 44.4097 9.4L44.3697 13L44.4097 14.92C44.463 15.8267 44.4897 16.5467 44.4897 17.08C44.4897 17.1333 44.4097 17.16 44.2497 17.16C44.0897 17.16 44.0097 17.1333 44.0097 17.08C44.0097 15.9867 43.583 15.1333 42.7297 14.52C41.903 13.88 40.703 13.56 39.1297 13.56H35.8497V22.6C35.8497 23.3733 35.9964 23.9467 36.2897 24.32C36.583 24.6933 37.0497 24.88 37.6897 24.88H39.0097C41.0897 24.88 42.7564 24.4533 44.0097 23.6C45.263 22.7467 46.183 21.4267 46.7697 19.64ZM62.04 26.16C61.1867 26.16 60.1733 26.12 59 26.04C58.5733 26.0133 58.04 25.9867 57.4 25.96C56.7867 25.9333 56.0933 25.92 55.32 25.92L52.36 25.96C51.8267 25.9867 51.1067 26 50.2 26C50.1467 26 50.12 25.92 50.12 25.76C50.12 25.6 50.1467 25.52 50.2 25.52C51.0533 25.52 51.68 25.4533 52.08 25.32C52.48 25.1867 52.7467 24.9333 52.88 24.56C53.04 24.16 53.12 23.56 53.12 22.76V4.24C53.12 3.44 53.04 2.85333 52.88 2.48C52.7467 2.10667 52.48 1.85333 52.08 1.72C51.7067 1.56 51.1067 1.48 50.28 1.48C50.2 1.48 50.16 1.4 50.16 1.24C50.16 1.08 50.2 1 50.28 1L52.4 1.04C53.6267 1.09333 54.6 1.12 55.32 1.12C56.4133 1.12 57.5333 1.08 58.68 1C60.0667 0.946666 61 0.919999 61.48 0.919999C64.1733 0.919999 66.56 1.45333 68.64 2.52C70.7467 3.58667 72.3733 5.04 73.52 6.88C74.6667 8.72 75.24 10.7867 75.24 13.08C75.24 15.6667 74.64 17.96 73.44 19.96C72.2667 21.9333 70.6667 23.4667 68.64 24.56C66.64 25.6267 64.44 26.16 62.04 26.16ZM61.64 25.24C63.3467 25.24 64.8533 24.8133 66.16 23.96C67.4667 23.08 68.48 21.7867 69.2 20.08C69.9467 18.3733 70.32 16.3333 70.32 13.96C70.32 11.6933 69.9733 9.64 69.28 7.8C68.5867 5.93333 67.6 4.46667 66.32 3.4C65.04 2.33333 63.56 1.8 61.88 1.8C60.2267 1.8 59.0933 1.96 58.48 2.28C57.8667 2.6 57.56 3.28 57.56 4.32V22.32C57.56 23.3867 57.84 24.1467 58.4 24.6C58.96 25.0267 60.04 25.24 61.64 25.24ZM97.0431 19.64C97.0431 19.5867 97.0965 19.56 97.2031 19.56C97.2831 19.56 97.3498 19.5867 97.4031 19.64C97.4831 19.6667 97.5231 19.6933 97.5231 19.72C97.2565 21.8 97.1231 23.6933 97.1231 25.4C97.1231 25.6133 97.0831 25.7733 97.0031 25.88C96.9231 25.96 96.7631 26 96.5231 26H78.8431C78.7631 26 78.7231 25.92 78.7231 25.76C78.7231 25.6 78.7631 25.52 78.8431 25.52C79.6965 25.52 80.3098 25.4533 80.6831 25.32C81.0831 25.1867 81.3498 24.9333 81.4831 24.56C81.6165 24.16 81.6831 23.56 81.6831 22.76V4.24C81.6831 3.44 81.6165 2.85333 81.4831 2.48C81.3498 2.10667 81.0831 1.85333 80.6831 1.72C80.2831 1.56 79.6698 1.48 78.8431 1.48C78.7631 1.48 78.7231 1.4 78.7231 1.24C78.7231 1.08 78.7631 1 78.8431 1H95.8031C96.0698 1 96.2031 1.12 96.2031 1.36L96.2831 6.68C96.2831 6.73333 96.2031 6.77333 96.0431 6.8C95.9098 6.82667 95.8298 6.8 95.8031 6.72C95.3765 5.17333 94.6565 4.02667 93.6431 3.28C92.6298 2.53333 91.2965 2.16 89.6431 2.16H88.4431C87.6431 2.16 87.0565 2.33333 86.6831 2.68C86.3098 3.02667 86.1231 3.56 86.1231 4.28V12.44H89.4431C90.9898 12.44 92.1765 12.1733 93.0031 11.64C93.8298 11.1067 94.2431 10.36 94.2431 9.4C94.2431 9.32 94.3098 9.28 94.4431 9.28C94.6031 9.28 94.6831 9.32 94.6831 9.4L94.6431 13L94.6831 14.92C94.7365 15.8267 94.7631 16.5467 94.7631 17.08C94.7631 17.1333 94.6831 17.16 94.5231 17.16C94.3631 17.16 94.2831 17.1333 94.2831 17.08C94.2831 15.9867 93.8565 15.1333 93.0031 14.52C92.1765 13.88 90.9765 13.56 89.4031 13.56H86.1231V22.6C86.1231 23.3733 86.2698 23.9467 86.5631 24.32C86.8565 24.6933 87.3231 24.88 87.9631 24.88H89.2831C91.3631 24.88 93.0298 24.4533 94.2831 23.6C95.5365 22.7467 96.4565 21.4267 97.0431 19.64ZM119.113 19.64C119.113 19.5867 119.167 19.56 119.273 19.56C119.353 19.56 119.42 19.5867 119.473 19.64C119.553 19.6667 119.593 19.6933 119.593 19.72C119.327 21.8 119.193 23.6933 119.193 25.4C119.193 25.6133 119.153 25.7733 119.073 25.88C118.993 25.96 118.833 26 118.593 26H100.913C100.833 26 100.793 25.92 100.793 25.76C100.793 25.6 100.833 25.52 100.913 25.52C101.767 25.52 102.38 25.4533 102.753 25.32C103.153 25.1867 103.42 24.9333 103.553 24.56C103.687 24.16 103.753 23.56 103.753 22.76V4.24C103.753 3.44 103.687 2.85333 103.553 2.48C103.42 2.10667 103.153 1.85333 102.753 1.72C102.353 1.56 101.74 1.48 100.913 1.48C100.833 1.48 100.793 1.4 100.793 1.24C100.793 1.08 100.833 1 100.913 1H117.873C118.14 1 118.273 1.12 118.273 1.36L118.353 6.68C118.353 6.73333 118.273 6.77333 118.113 6.8C117.98 6.82667 117.9 6.8 117.873 6.72C117.447 5.17333 116.727 4.02667 115.713 3.28C114.7 2.53333 113.367 2.16 111.713 2.16H110.513C109.713 2.16 109.127 2.33333 108.753 2.68C108.38 3.02667 108.193 3.56 108.193 4.28V12.44H111.513C113.06 12.44 114.247 12.1733 115.073 11.64C115.9 11.1067 116.313 10.36 116.313 9.4C116.313 9.32 116.38 9.28 116.513 9.28C116.673 9.28 116.753 9.32 116.753 9.4L116.713 13L116.753 14.92C116.807 15.8267 116.833 16.5467 116.833 17.08C116.833 17.1333 116.753 17.16 116.593 17.16C116.433 17.16 116.353 17.1333 116.353 17.08C116.353 15.9867 115.927 15.1333 115.073 14.52C114.247 13.88 113.047 13.56 111.473 13.56H108.193V22.6C108.193 23.3733 108.34 23.9467 108.633 24.32C108.927 24.6933 109.393 24.88 110.033 24.88H111.353C113.433 24.88 115.1 24.4533 116.353 23.6C117.607 22.7467 118.527 21.4267 119.113 19.64ZM141.184 19.64C141.184 19.5867 141.237 19.56 141.344 19.56C141.424 19.56 141.49 19.5867 141.544 19.64C141.624 19.6667 141.664 19.6933 141.664 19.72C141.397 21.8 141.264 23.6933 141.264 25.4C141.264 25.6133 141.224 25.7733 141.144 25.88C141.064 25.96 140.904 26 140.664 26H122.984C122.904 26 122.864 25.92 122.864 25.76C122.864 25.6 122.904 25.52 122.984 25.52C123.837 25.52 124.45 25.4533 124.824 25.32C125.224 25.1867 125.49 24.9333 125.624 24.56C125.757 24.16 125.824 23.56 125.824 22.76V4.24C125.824 3.44 125.757 2.85333 125.624 2.48C125.49 2.10667 125.224 1.85333 124.824 1.72C124.424 1.56 123.81 1.48 122.984 1.48C122.904 1.48 122.864 1.4 122.864 1.24C122.864 1.08 122.904 1 122.984 1H139.944C140.21 1 140.344 1.12 140.344 1.36L140.424 6.68C140.424 6.73333 140.344 6.77333 140.184 6.8C140.05 6.82667 139.97 6.8 139.944 6.72C139.517 5.17333 138.797 4.02667 137.784 3.28C136.77 2.53333 135.437 2.16 133.784 2.16H132.584C131.784 2.16 131.197 2.33333 130.824 2.68C130.45 3.02667 130.264 3.56 130.264 4.28V12.44H133.584C135.13 12.44 136.317 12.1733 137.144 11.64C137.97 11.1067 138.384 10.36 138.384 9.4C138.384 9.32 138.45 9.28 138.584 9.28C138.744 9.28 138.824 9.32 138.824 9.4L138.784 13L138.824 14.92C138.877 15.8267 138.904 16.5467 138.904 17.08C138.904 17.1333 138.824 17.16 138.664 17.16C138.504 17.16 138.424 17.1333 138.424 17.08C138.424 15.9867 137.997 15.1333 137.144 14.52C136.317 13.88 135.117 13.56 133.544 13.56H130.264V22.6C130.264 23.3733 130.41 23.9467 130.704 24.32C130.997 24.6933 131.464 24.88 132.104 24.88H133.424C135.504 24.88 137.17 24.4533 138.424 23.6C139.677 22.7467 140.597 21.4267 141.184 19.64ZM176.734 25.52C176.787 25.52 176.814 25.6 176.814 25.76C176.814 25.92 176.787 26 176.734 26C175.827 26 175.107 25.9867 174.574 25.96L171.614 25.92L168.614 25.96C168.107 25.9867 167.414 26 166.534 26C166.454 26 166.414 25.92 166.414 25.76C166.414 25.6 166.454 25.52 166.534 25.52C167.654 25.52 168.414 25.3867 168.814 25.12C169.214 24.8533 169.414 24.2933 169.414 23.44L169.374 22.76L168.534 6.4L160.294 25.72C160.241 25.8267 160.134 25.88 159.974 25.88C159.814 25.88 159.707 25.8267 159.654 25.72L149.534 6.48L149.214 20.92C149.187 22.36 149.467 23.4933 150.054 24.32C150.667 25.12 151.521 25.52 152.614 25.52C152.694 25.52 152.734 25.6 152.734 25.76C152.734 25.92 152.694 26 152.614 26C151.894 26 151.334 25.9867 150.934 25.96L148.734 25.92L146.214 25.96C145.787 25.9867 145.214 26 144.494 26C144.414 26 144.374 25.92 144.374 25.76C144.374 25.6 144.414 25.52 144.494 25.52C145.587 25.52 146.454 25.1067 147.094 24.28C147.734 23.4533 148.067 22.3333 148.094 20.92L148.454 4.36L148.414 4.32C147.881 3.33333 147.321 2.61333 146.734 2.16C146.174 1.70667 145.521 1.48 144.774 1.48C144.694 1.48 144.654 1.4 144.654 1.24C144.654 1.08 144.694 1 144.774 1L146.654 1.04C147.027 1.06667 147.507 1.08 148.094 1.08L150.214 1.04C150.454 1.01333 150.761 1 151.134 1C151.481 1 151.747 1.12 151.934 1.36C152.121 1.6 152.467 2.17333 152.974 3.08L161.694 19.44L169.294 2C169.454 1.62667 169.614 1.37333 169.774 1.24C169.961 1.08 170.201 1 170.494 1C170.734 1 171.001 1.01333 171.294 1.04C171.614 1.06667 171.974 1.08 172.374 1.08L174.734 1.04C175.107 1.01333 175.641 1 176.334 1C176.414 1 176.454 1.08 176.454 1.24C176.454 1.4 176.414 1.48 176.334 1.48C175.081 1.48 174.174 1.73333 173.614 2.24C173.054 2.74666 172.801 3.53333 172.854 4.6L173.814 22.76C173.867 23.5867 173.961 24.1867 174.094 24.56C174.254 24.9333 174.521 25.1867 174.894 25.32C175.294 25.4533 175.907 25.52 176.734 25.52Z" fill="url(#paint0_linear_239:703)"/>
<path d="M16.92 22.84L15.32 24.04L15.3273 24.0497L16.92 22.84ZM11.12 13.92L12.8392 12.8981L12.1705 11.7731L10.8719 11.9354L11.12 13.92ZM8 13.92L8.12475 11.9239L6 11.7911V13.92H8ZM8.2 24.56L6.31652 25.2327H6.31652L8.2 24.56ZM8.96 25.32L8.28733 27.2035L8.30736 27.2106L8.32754 27.2174L8.96 25.32ZM8.76 25.96L8.86512 23.9628L8.82574 23.9607L8.78631 23.9602L8.76 25.96ZM5.72 25.92L5.74631 23.9202L5.71946 23.9198L5.69261 23.9202L5.72 25.92ZM2.8 25.96L2.77261 23.9602L2.73634 23.9607L2.70012 23.9625L2.8 25.96ZM2.48 25.32L1.84754 23.4226L1.82736 23.4294L1.80733 23.4365L2.48 25.32ZM3.28 24.56L1.42305 23.8172L1.40912 23.852L1.39652 23.8873L3.28 24.56ZM3.32 2.48L1.43652 3.15267L1.43652 3.15267L3.32 2.48ZM2.52 1.72L1.77722 3.57695L1.83179 3.59878L1.88755 3.61736L2.52 1.72ZM0.68 1L0.717729 -0.999644L0.698866 -1H0.68V1ZM2.8 1.04L2.88687 -0.958113L2.86231 -0.959181L2.83773 -0.959644L2.8 1.04ZM8.56 1L8.4066 -0.994125L8.39837 -0.993458L8.56 1ZM9.84 0.919998L9.74013 -1.07751L9.73489 -1.07724L9.84 0.919998ZM17.24 2.24L16.1154 3.89385L16.1268 3.90161L16.1383 3.90922L17.24 2.24ZM18.04 9.96L19.6925 11.0867L19.6983 11.0781L19.7041 11.0694L18.04 9.96ZM14.84 12.8L13.8897 11.0402L11.9584 12.0831L13.1759 13.9094L14.84 12.8ZM24.04 24.28L25.2277 22.6709L24.04 24.28ZM8 12.8H6V14.4943L7.6712 14.7728L8 12.8ZM13.64 11.68L12.069 10.4422L12.064 10.4487L13.64 11.68ZM13.72 2.96L15.3014 1.73565V1.73565L13.72 2.96ZM8.68 2.32L10.0032 3.81968L10.0032 3.81967L8.68 2.32ZM27.32 27.52C26.7682 27.52 26.2806 27.289 25.9408 26.9492C25.6501 26.6585 25.5299 26.3544 25.4826 26.2125C25.4302 26.0552 25.4134 25.9313 25.4072 25.8759C25.4003 25.8134 25.4 25.7717 25.4 25.76H29.4C29.4 25.6216 29.3949 25.3002 29.2774 24.9475C29.1769 24.6462 28.6752 23.52 27.32 23.52V27.52ZM25.4 25.76C25.4 25.7483 25.4003 25.7066 25.4072 25.6441C25.4134 25.5887 25.4302 25.4648 25.4826 25.3075C25.5299 25.1656 25.6501 24.8615 25.9408 24.5708C26.2806 24.231 26.7682 24 27.32 24V28C28.6752 28 29.1769 26.8738 29.2774 26.5725C29.3949 26.2198 29.4 25.8984 29.4 25.76H25.4ZM27.32 24H20.2V28H27.32V24ZM20.2 24C20.6071 24 20.8141 24.1624 20.7274 24.108C20.6786 24.0774 20.548 23.982 20.3276 23.7697C19.89 23.3481 19.2889 22.6523 18.5127 21.6303L15.3273 24.0497C16.1511 25.1344 16.8966 26.0185 17.5524 26.6503C17.8786 26.9646 18.2315 27.2643 18.6026 27.497C18.9359 27.706 19.4996 28 20.2 28V24ZM18.52 21.64C16.9816 19.5889 15.0899 16.6845 12.8392 12.8981L9.40079 14.9419C11.6835 18.7822 13.6584 21.8245 15.32 24.04L18.52 21.64ZM10.8719 11.9354C10.7831 11.9466 10.5746 11.96 10.2 11.96V15.96C10.6254 15.96 11.0303 15.9468 11.3681 15.9046L10.8719 11.9354ZM10.2 11.96C9.1596 11.96 8.48243 11.9462 8.12475 11.9239L7.87525 15.9161C8.3709 15.9471 9.1604 15.96 10.2 15.96V11.96ZM6 13.92V22.76H10V13.92H6ZM6 22.76C6 23.6224 6.06045 24.5157 6.31652 25.2327L10.0835 23.8873C10.0886 23.9015 10.0619 23.8262 10.0378 23.6091C10.0149 23.4036 10 23.1244 10 22.76H6ZM6.31652 25.2327C6.65153 26.1707 7.34929 26.8685 8.28733 27.2035L9.63267 23.4365C9.69487 23.4587 9.80007 23.5116 9.90421 23.6158C10.0084 23.7199 10.0613 23.8251 10.0835 23.8873L6.31652 25.2327ZM8.32754 27.2174C9.0483 27.4576 9.94499 27.52 10.84 27.52V23.52C10.4611 23.52 10.165 23.505 9.94157 23.4812C9.83103 23.4695 9.74666 23.4564 9.68492 23.4444C9.6545 23.4385 9.63169 23.4332 9.61567 23.4291C9.59956 23.425 9.59224 23.4226 9.59246 23.4226L8.32754 27.2174ZM10.84 27.52C10.2882 27.52 9.80061 27.289 9.46079 26.9492C9.17009 26.6585 9.04994 26.3544 9.00263 26.2125C8.95022 26.0552 8.93339 25.9313 8.92723 25.8759C8.92029 25.8134 8.92 25.7717 8.92 25.76H12.92C12.92 25.6216 12.9149 25.3002 12.7974 24.9475C12.6969 24.6462 12.1952 23.52 10.84 23.52V27.52ZM8.92 25.76C8.92 25.7483 8.92029 25.7066 8.92723 25.6441C8.93339 25.5887 8.95022 25.4648 9.00263 25.3075C9.04994 25.1656 9.17009 24.8615 9.46079 24.5708C9.80061 24.231 10.2882 24 10.84 24V28C12.1952 28 12.6969 26.8738 12.7974 26.5725C12.9149 26.2198 12.92 25.8984 12.92 25.76H8.92ZM10.84 24C9.97369 24 9.32049 23.9867 8.86512 23.9628L8.65488 27.9572C9.21285 27.9866 9.94631 28 10.84 28V24ZM8.78631 23.9602L5.74631 23.9202L5.69369 27.9198L8.73369 27.9598L8.78631 23.9602ZM5.69261 23.9202L2.77261 23.9602L2.82739 27.9598L5.7474 27.9198L5.69261 23.9202ZM2.70012 23.9625C2.21505 23.9867 1.53283 24 0.64 24V28C1.5605 28 2.31829 27.9866 2.89988 27.9575L2.70012 23.9625ZM0.64 24C0.96997 24 1.34791 24.0882 1.6969 24.3209C2.03337 24.5452 2.23022 24.8283 2.33885 25.0456C2.52782 25.4235 2.52 25.7379 2.52 25.76H-1.48C-1.48 25.9422 -1.46782 26.3765 -1.23885 26.8344C-1.11022 27.0917 -0.888371 27.4048 -0.521901 27.6491C-0.14291 27.9018 0.270031 28 0.64 28V24ZM2.52 25.76C2.52 25.7822 2.52782 26.0965 2.33885 26.4744C2.23022 26.6917 2.03337 26.9748 1.6969 27.1991C1.34791 27.4318 0.96997 27.52 0.64 27.52V23.52C0.270031 23.52 -0.14291 23.6182 -0.521901 23.8709C-0.888371 24.1152 -1.11022 24.4283 -1.23885 24.6856C-1.46782 25.1435 -1.48 25.5779 -1.48 25.76H2.52ZM0.64 27.52C1.5203 27.52 2.43179 27.4609 3.15267 27.2035L1.80733 23.4365C1.82602 23.4298 1.75071 23.4571 1.52388 23.4817C1.31026 23.5049 1.0196 23.52 0.64 23.52V27.52ZM3.11246 27.2174C4.05263 26.904 4.80872 26.226 5.16348 25.2327L1.39652 23.8873C1.42689 23.8023 1.49119 23.6857 1.6025 23.58C1.71075 23.4772 1.81007 23.4351 1.84754 23.4226L3.11246 27.2174ZM5.13695 25.3028C5.4409 24.5429 5.52 23.6344 5.52 22.76H1.52C1.52 23.0979 1.50284 23.356 1.47754 23.5457C1.45134 23.7422 1.4224 23.8188 1.42305 23.8172L5.13695 25.3028ZM5.52 22.76V4.24H1.52V22.76H5.52ZM5.52 4.24C5.52 3.39521 5.45807 2.52016 5.20348 1.80733L1.43652 3.15267C1.43311 3.14314 1.45923 3.21846 1.48279 3.42582C1.50522 3.62324 1.52 3.89094 1.52 4.24H5.52ZM5.20349 1.80733C4.84872 0.813993 4.09263 0.136024 3.15246 -0.177369L1.88755 3.61736C1.85007 3.60487 1.75075 3.56283 1.6425 3.46C1.53119 3.35425 1.46689 3.23771 1.43652 3.15267L5.20349 1.80733ZM3.26278 -0.136956C2.49795 -0.442886 1.57093 -0.520001 0.68 -0.520001V3.48C1.03363 3.48 1.30343 3.49739 1.50132 3.5232C1.70744 3.55008 1.7839 3.57962 1.77722 3.57695L3.26278 -0.136956ZM0.68 -0.520001C1.23177 -0.520001 1.71939 -0.289039 2.05921 0.0507832C2.34991 0.341482 2.47006 0.645638 2.51737 0.787541C2.56978 0.944771 2.58661 1.06871 2.59277 1.12414C2.59971 1.1866 2.6 1.22834 2.6 1.24H-1.4C-1.4 1.37837 -1.39492 1.69978 -1.27737 2.05246C-1.17693 2.35375 -0.675175 3.48 0.68 3.48V-0.520001ZM2.6 1.24C2.6 1.25166 2.59971 1.2934 2.59277 1.35586C2.58661 1.41129 2.56978 1.53523 2.51737 1.69246C2.47006 1.83436 2.34991 2.13852 2.05921 2.42922C1.71939 2.76904 1.23177 3 0.68 3V-1C-0.675175 -1 -1.17693 0.126244 -1.27737 0.427543C-1.39492 0.780216 -1.4 1.10163 -1.4 1.24H2.6ZM0.642272 2.99964L2.76227 3.03964L2.83773 -0.959644L0.717729 -0.999644L0.642272 2.99964ZM2.71313 3.03811C3.95167 3.09196 4.95789 3.12 5.72 3.12V-0.880001C5.04211 -0.880001 4.10166 -0.905296 2.88687 -0.958113L2.71313 3.03811ZM5.72 3.12C6.68525 3.12 7.68603 3.07743 8.72163 2.99346L8.39837 -0.993458C7.46064 -0.917427 6.56809 -0.880001 5.72 -0.880001V3.12ZM8.7134 2.99411C9.03854 2.9691 9.44798 2.9434 9.94512 2.91723L9.73489 -1.07724C9.21869 -1.05007 8.77479 -1.02243 8.4066 -0.994108L8.7134 2.99411ZM9.93988 2.9175C10.4342 2.89279 10.987 2.88 11.6 2.88V-1.12C10.933 -1.12 10.3125 -1.10612 9.74013 -1.07751L9.93988 2.9175ZM11.6 2.88C13.8158 2.88 15.2422 3.30011 16.1154 3.89385L18.3646 0.586144C16.5711 -0.633445 14.2376 -1.12 11.6 -1.12V2.88ZM16.1383 3.90922C16.9098 4.41837 17.24 5.03074 17.24 5.96H21.24C21.24 3.68926 20.2369 1.82162 18.3417 0.570779L16.1383 3.90922ZM17.24 5.96C17.24 7.03893 16.953 7.98501 16.3759 8.8506L19.7041 11.0694C20.727 9.53499 21.24 7.8144 21.24 5.96H17.24ZM16.3875 8.83333C15.7796 9.72493 14.9611 10.4616 13.8897 11.0402L15.7903 14.5598C17.3856 13.6984 18.7004 12.5417 19.6925 11.0867L16.3875 8.83333ZM13.1759 13.9094C15.3228 17.1297 17.1443 19.6881 18.6338 21.5638L21.7662 19.0762C20.3757 17.3252 18.6239 14.8703 16.5041 11.6906L13.1759 13.9094ZM18.6338 21.5638C20.1212 23.4368 21.528 24.9117 22.8523 25.8891L25.2277 22.6709C24.312 21.995 23.1588 20.8299 21.7662 19.0762L18.6338 21.5638ZM22.8523 25.8891C24.2115 26.8924 25.7118 27.52 27.32 27.52V23.52C26.7949 23.52 26.1085 23.321 25.2277 22.6709L22.8523 25.8891ZM7.6712 14.7728C8.45307 14.9031 9.34292 14.96 10.32 14.96V10.96C9.48375 10.96 8.82693 10.9102 8.3288 10.8272L7.6712 14.7728ZM10.32 14.96C12.2056 14.96 14.0276 14.4325 15.216 12.9113L12.064 10.4487C11.9191 10.6341 11.5277 10.96 10.32 10.96V14.96ZM15.211 12.9177C16.32 11.5102 16.68 9.55917 16.68 7.48H12.68C12.68 9.24083 12.3467 10.0898 12.069 10.4423L15.211 12.9177ZM16.68 7.48C16.68 5.24724 16.3832 3.13285 15.3014 1.73565L12.1386 4.18434C12.3369 4.44048 12.68 5.33943 12.68 7.48H16.68ZM15.3014 1.73565C14.2234 0.343214 12.6751 -0.280003 10.96 -0.280003V3.72C11.6449 3.72 11.9366 3.92345 12.1386 4.18435L15.3014 1.73565ZM10.96 -0.280003C9.74333 -0.280003 8.36712 -0.0711737 7.35675 0.820327L10.0032 3.81967C9.93671 3.87838 9.93332 3.84774 10.099 3.80415C10.2657 3.76027 10.5417 3.72 10.96 3.72V-0.280003ZM7.35676 0.820323C6.28496 1.76603 6 3.12371 6 4.32H10C10 4.0054 10.0394 3.83475 10.0635 3.76381C10.0833 3.70571 10.0783 3.75343 10.0032 3.81968L7.35676 0.820323ZM6 4.32V12.8H10V4.32H6ZM46.7697 19.64L48.6699 20.2639L48.7697 19.96V19.64H46.7697ZM47.1297 19.64L45.7155 21.0542L46.0493 21.3881L46.4972 21.5374L47.1297 19.64ZM47.2497 19.72L49.2335 19.9743L49.2497 19.8477V19.72H47.2497ZM46.7297 25.88L48.1439 27.2942L48.2444 27.1937L48.3297 27.08L46.7297 25.88ZM30.4097 25.32L29.7772 23.4226L29.757 23.4294L29.737 23.4365L30.4097 25.32ZM31.2097 24.56L33.0932 25.2327L33.1003 25.2126L33.1071 25.1925L31.2097 24.56ZM31.2097 2.48L29.3262 3.15267L29.3262 3.15267L31.2097 2.48ZM30.4097 1.72L29.6669 3.57695L29.7215 3.59878L29.7772 3.61736L30.4097 1.72ZM45.9297 1.36H43.9297V1.37503L43.9299 1.39007L45.9297 1.36ZM46.0097 6.68H48.0097V6.66496L48.0095 6.64993L46.0097 6.68ZM45.7697 6.8L45.4409 4.82721L45.4091 4.83251L45.3775 4.83884L45.7697 6.8ZM45.5297 6.72L43.6017 7.25186L43.6157 7.30256L43.6323 7.35245L45.5297 6.72ZM43.3697 3.28L42.1833 4.89011L43.3697 3.28ZM36.4097 2.68L37.7706 4.14559L37.7706 4.14559L36.4097 2.68ZM35.8497 12.44H33.8497V14.44H35.8497V12.44ZM42.7297 11.64L41.6454 9.9594V9.95941L42.7297 11.64ZM44.4097 9.4L46.4096 9.42222L46.4097 9.41111V9.4H44.4097ZM44.3697 13L42.3698 12.9778L42.3695 13.0097L42.3701 13.0417L44.3697 13ZM44.4097 14.92L42.4101 14.9617L42.4109 14.9996L42.4131 15.0374L44.4097 14.92ZM42.7297 14.52L41.5053 16.1014L41.5335 16.1232L41.5624 16.144L42.7297 14.52ZM35.8497 13.56V11.56H33.8497V13.56H35.8497ZM36.2897 24.32L37.8623 23.0844V23.0844L36.2897 24.32ZM44.0097 23.6L42.8841 21.9468L44.0097 23.6ZM48.7697 19.64C48.7697 19.9766 48.6798 20.3604 48.4438 20.7144C48.2161 21.0559 47.928 21.2569 47.7041 21.3689C47.3129 21.5645 46.9785 21.56 46.9297 21.56V17.56C46.7742 17.56 46.3598 17.5688 45.9153 17.7911C45.6647 17.9164 45.3566 18.1341 45.1156 18.4956C44.8663 18.8696 44.7697 19.2767 44.7697 19.64H48.7697ZM46.9297 21.56C46.7443 21.56 46.5253 21.5283 46.2969 21.437C46.0661 21.3447 45.8705 21.2092 45.7155 21.0542L48.5439 18.2258C48.091 17.7729 47.5044 17.56 46.9297 17.56V21.56ZM46.4972 21.5374C46.4749 21.5299 46.309 21.4766 46.1103 21.3441C46.0077 21.2757 45.819 21.1358 45.6422 20.9C45.4534 20.6483 45.2497 20.2443 45.2497 19.72H49.2497C49.2497 18.6449 48.4699 18.1098 48.3291 18.0159C48.0904 17.8568 47.8645 17.7767 47.7621 17.7426L46.4972 21.5374ZM45.2659 19.4657C44.9908 21.6118 44.8497 23.5917 44.8497 25.4H48.8497C48.8497 23.795 48.9753 21.9882 49.2335 19.9743L45.2659 19.4657ZM44.8497 25.4C44.8497 25.3882 44.8501 25.312 44.8794 25.1949C44.9092 25.0758 44.9767 24.884 45.1297 24.68L48.3297 27.08C48.7838 26.4745 48.8497 25.8056 48.8497 25.4H44.8497ZM45.3155 24.4658C45.6232 24.158 45.9441 24.0598 46.0646 24.0297C46.1972 23.9966 46.2732 24 46.2497 24V28C46.4662 28 46.7422 27.9834 47.0348 27.9103C47.3153 27.8402 47.7562 27.682 48.1439 27.2942L45.3155 24.4658ZM46.2497 24H28.5697V28H46.2497V24ZM28.5697 24C28.8997 24 29.2776 24.0882 29.6266 24.3209C29.9631 24.5452 30.1599 24.8283 30.2685 25.0456C30.4575 25.4235 30.4497 25.7379 30.4497 25.76H26.4497C26.4497 25.9422 26.4619 26.3765 26.6908 26.8344C26.8195 27.0917 27.0413 27.4048 27.4078 27.6491C27.7868 27.9018 28.1997 28 28.5697 28V24ZM30.4497 25.76C30.4497 25.7822 30.4575 26.0965 30.2685 26.4744C30.1599 26.6917 29.9631 26.9748 29.6266 27.1991C29.2776 27.4318 28.8997 27.52 28.5697 27.52V23.52C28.1997 23.52 27.7868 23.6182 27.4078 23.8709C27.0413 24.1152 26.8195 24.4283 26.6908 24.6856C26.4619 25.1435 26.4497 25.5779 26.4497 25.76H30.4497ZM28.5697 27.52C29.45 27.52 30.3615 27.4609 31.0824 27.2035L29.737 23.4365C29.7557 23.4298 29.6804 23.4571 29.4536 23.4817C29.2399 23.5049 28.9493 23.52 28.5697 23.52V27.52ZM31.0421 27.2174C31.9823 26.904 32.7384 26.226 33.0932 25.2327L29.3262 23.8873C29.3566 23.8023 29.4209 23.6857 29.5322 23.58C29.6404 23.4772 29.7398 23.4351 29.7772 23.4226L31.0421 27.2174ZM33.1071 25.1925C33.3446 24.4798 33.4097 23.6184 33.4097 22.76H29.4097C29.4097 23.5016 29.3414 23.8402 29.3123 23.9275L33.1071 25.1925ZM33.4097 22.76V4.24H29.4097V22.76H33.4097ZM33.4097 4.24C33.4097 3.39521 33.3478 2.52016 33.0932 1.80733L29.3262 3.15267C29.3228 3.14314 29.3489 3.21846 29.3725 3.42582C29.3949 3.62324 29.4097 3.89094 29.4097 4.24H33.4097ZM33.0932 1.80733C32.7384 0.813993 31.9823 0.136024 31.0421 -0.177369L29.7772 3.61736C29.7398 3.60487 29.6404 3.56283 29.5322 3.46C29.4209 3.35425 29.3566 3.23771 29.3262 3.15267L33.0932 1.80733ZM31.1525 -0.136956C30.3876 -0.442886 29.4606 -0.520001 28.5697 -0.520001V3.48C28.9233 3.48 29.1931 3.49739 29.391 3.5232C29.5971 3.55008 29.6736 3.57962 29.6669 3.57695L31.1525 -0.136956ZM28.5697 -0.520001C28.8997 -0.520001 29.2776 -0.431763 29.6266 -0.199103C29.9631 0.0252104 30.1599 0.30831 30.2685 0.52557C30.4575 0.903494 30.4497 1.21785 30.4497 1.24H26.4497C26.4497 1.42215 26.4619 1.8565 26.6908 2.31443C26.8195 2.57169 27.0413 2.88479 27.4078 3.1291C27.7868 3.38176 28.1997 3.48 28.5697 3.48V-0.520001ZM30.4497 1.24C30.4497 1.26215 30.4575 1.5765 30.2685 1.95443C30.1599 2.17169 29.9631 2.45479 29.6266 2.6791C29.2776 2.91176 28.8997 3 28.5697 3V-1C28.1997 -1 27.7868 -0.901761 27.4078 -0.649102C27.0413 -0.404789 26.8195 -0.0916891 26.6908 0.165571C26.4619 0.623495 26.4497 1.05785 26.4497 1.24H30.4497ZM28.5697 3H45.5297V-1H28.5697V3ZM45.5297 3C45.4037 3 44.9358 2.97621 44.4918 2.57659C44.0077 2.14091 43.9297 1.60591 43.9297 1.36H47.9297C47.9297 0.874091 47.785 0.159085 47.1676 -0.396592C46.5903 -0.916212 45.9223 -1 45.5297 -1V3ZM43.9299 1.39007L44.0099 6.71007L48.0095 6.64993L47.9295 1.32993L43.9299 1.39007ZM44.0097 6.68C44.0097 5.52584 44.9051 5.0362 45.0553 4.96114C45.1851 4.89621 45.2898 4.86424 45.3394 4.85046C45.3941 4.83527 45.4308 4.82889 45.4409 4.82721L46.0985 8.77279C46.2429 8.74872 46.5362 8.69283 46.8441 8.53885C47.0742 8.4238 48.0097 7.88749 48.0097 6.68H44.0097ZM45.3775 4.83884C45.4643 4.82147 45.8084 4.75804 46.2421 4.90263C46.4816 4.98244 46.7429 5.12479 46.9739 5.35579C47.2049 5.58678 47.3473 5.84814 47.4271 6.08755L43.6323 7.35245C43.8447 7.98966 44.34 8.48496 44.9772 8.69736C45.491 8.86863 45.9418 8.80519 46.1619 8.76116L45.3775 4.83884ZM47.4577 6.18814C46.945 4.32955 46.0197 2.74834 44.5561 1.66989L42.1833 4.89011C42.7463 5.30499 43.2611 6.01712 43.6017 7.25186L47.4577 6.18814ZM44.5561 1.66989C43.1053 0.600895 41.3166 0.16 39.3697 0.16V4.16C40.7294 4.16 41.6074 4.46577 42.1833 4.89011L44.5561 1.66989ZM39.3697 0.16H38.1697V4.16H39.3697V0.16ZM38.1697 0.16C37.1411 0.16 35.9541 0.373768 35.0488 1.21441L37.7706 4.14559C37.69 4.22043 37.6404 4.22458 37.6964 4.20803C37.7592 4.18947 37.9061 4.16 38.1697 4.16V0.16ZM35.0488 1.21441C34.1227 2.0743 33.8497 3.23902 33.8497 4.28H37.8497C37.8497 4.08622 37.8756 4.00587 37.8774 4.0007C37.8775 4.00033 37.871 4.01895 37.852 4.04875C37.8326 4.07933 37.8053 4.11337 37.7706 4.14559L35.0488 1.21441ZM33.8497 4.28V12.44H37.8497V4.28H33.8497ZM35.8497 14.44H39.1697V10.44H35.8497V14.44ZM39.1697 14.44C40.899 14.44 42.5283 14.15 43.8139 13.3206L41.6454 9.95941C41.2777 10.1966 40.5337 10.44 39.1697 10.44V14.44ZM43.8139 13.3206C45.1944 12.43 45.9697 11.0595 45.9697 9.4H41.9697C41.9697 9.66051 41.9183 9.78334 41.6454 9.9594L43.8139 13.3206ZM45.9697 9.4C45.9697 9.66325 45.9127 9.9908 45.7305 10.3188C45.5468 10.6494 45.2922 10.8789 45.0487 11.025C44.6213 11.2814 44.2377 11.28 44.1697 11.28V7.28C43.9683 7.28 43.4848 7.29856 42.9907 7.59501C42.3338 7.98912 41.9697 8.68244 41.9697 9.4H45.9697ZM44.1697 11.28C44.1475 11.28 43.8332 11.2878 43.4553 11.0989C43.238 10.9902 42.9549 10.7934 42.7306 10.4569C42.4979 10.1079 42.4097 9.72997 42.4097 9.4H46.4097C46.4097 9.03003 46.3114 8.61709 46.0588 8.2381C45.8145 7.87163 45.5014 7.64977 45.2441 7.52114C44.7862 7.29218 44.3518 7.28 44.1697 7.28V11.28ZM42.4098 9.37778L42.3698 12.9778L46.3696 13.0222L46.4096 9.42222L42.4098 9.37778ZM42.3701 13.0417L42.4101 14.9617L46.4093 14.8783L46.3693 12.9583L42.3701 13.0417ZM42.4131 15.0374C42.4655 15.928 42.4897 16.6036 42.4897 17.08H46.4897C46.4897 16.4898 46.4605 15.7253 46.4062 14.8026L42.4131 15.0374ZM42.4897 17.08C42.4897 16.5282 42.7207 16.0406 43.0605 15.7008C43.3512 15.4101 43.6553 15.2899 43.7972 15.2426C43.9545 15.1902 44.0784 15.1734 44.1338 15.1672C44.1963 15.1603 44.238 15.16 44.2497 15.16V19.16C44.3881 19.16 44.7095 19.1549 45.0621 19.0374C45.3634 18.9369 46.4897 18.4352 46.4897 17.08H42.4897ZM44.2497 15.16C44.2613 15.16 44.3031 15.1603 44.3656 15.1672C44.421 15.1734 44.5449 15.1902 44.7021 15.2426C44.844 15.2899 45.1482 15.4101 45.4389 15.7008C45.7787 16.0406 46.0097 16.5282 46.0097 17.08H42.0097C42.0097 18.4352 43.1359 18.9369 43.4372 19.0374C43.7899 19.1549 44.1113 19.16 44.2497 19.16V15.16ZM46.0097 17.08C46.0097 15.3736 45.2975 13.9026 43.897 12.896L41.5624 16.144C41.8685 16.364 42.0097 16.5998 42.0097 17.08H46.0097ZM43.954 12.9386C42.6391 11.9206 40.933 11.56 39.1297 11.56V15.56C40.473 15.56 41.1669 15.8394 41.5053 16.1014L43.954 12.9386ZM39.1297 11.56H35.8497V15.56H39.1297V11.56ZM33.8497 13.56V22.6H37.8497V13.56H33.8497ZM33.8497 22.6C33.8497 23.561 34.0203 24.6688 34.7171 25.5556L37.8623 23.0844C37.9242 23.1631 37.9182 23.196 37.8973 23.1143C37.8758 23.0303 37.8497 22.8675 37.8497 22.6H33.8497ZM34.7171 25.5556C35.5114 26.5667 36.6647 26.88 37.6897 26.88V22.88C37.5575 22.88 37.5447 22.8599 37.6025 22.883C37.6334 22.8954 37.6782 22.9178 37.7286 22.9549C37.7795 22.9924 37.825 23.0369 37.8623 23.0844L34.7171 25.5556ZM37.6897 26.88H39.0097V22.88H37.6897V26.88ZM39.0097 26.88C41.346 26.88 43.4475 26.4023 45.1353 25.2532L42.8841 21.9468C42.0652 22.5043 40.8334 22.88 39.0097 22.88V26.88ZM45.1353 25.2532C46.8336 24.0969 47.9793 22.3669 48.6699 20.2639L44.8695 19.0161C44.3867 20.4864 43.6925 21.3964 42.8841 21.9468L45.1353 25.2532ZM59 26.04L59.1361 24.0446L59.1248 24.0439L59 26.04ZM57.4 25.96L57.3131 27.9581L57.3167 27.9583L57.4 25.96ZM55.32 25.92V23.92H55.3065L55.293 23.9202L55.32 25.92ZM52.36 25.96L52.333 23.9602L52.2965 23.9607L52.2601 23.9625L52.36 25.96ZM52.08 25.32L52.7125 27.2174L52.08 25.32ZM52.88 24.56L51.023 23.8172L51.0091 23.852L50.9965 23.8873L52.88 24.56ZM52.88 2.48L50.9965 3.15267L51.0173 3.21095L51.0417 3.26784L52.88 2.48ZM52.08 1.72L51.2922 3.55829L51.3686 3.59106L51.4475 3.61736L52.08 1.72ZM50.28 1L50.3177 -0.999644L50.2989 -1H50.28V1ZM52.4 1.04L52.4869 -0.958113L52.4623 -0.959181L52.4377 -0.959644L52.4 1.04ZM58.68 1L58.6031 -0.998523L58.5719 -0.997323L58.5408 -0.995151L58.68 1ZM68.64 2.52L67.7274 4.29966L67.7365 4.30431L68.64 2.52ZM73.52 6.88L71.8226 7.93778L73.52 6.88ZM73.44 19.96L71.725 18.931L71.7209 18.9378L73.44 19.96ZM68.64 24.56L69.5812 26.3247L69.5896 26.3202L68.64 24.56ZM66.16 23.96L67.2536 25.6345L67.2654 25.6268L67.2772 25.6189L66.16 23.96ZM69.2 20.08L67.3677 19.2784L67.3624 19.2904L67.3573 19.3026L69.2 20.08ZM69.28 7.8L67.4051 8.49638L67.4085 8.50522L69.28 7.8ZM66.32 3.4L65.0396 4.93644V4.93644L66.32 3.4ZM58.48 2.28L57.5549 0.506827L57.5549 0.506829L58.48 2.28ZM58.4 24.6L57.1416 26.1545L57.1645 26.173L57.1879 26.1909L58.4 24.6ZM62.04 24.16C61.2454 24.16 60.2797 24.1226 59.136 24.0446L58.864 28.0354C60.067 28.1174 61.128 28.16 62.04 28.16V24.16ZM59.1248 24.0439C58.6793 24.0161 58.131 23.9887 57.4833 23.9617L57.3167 27.9583C57.949 27.9846 58.4674 28.0106 58.8752 28.0361L59.1248 24.0439ZM57.4869 23.9619C56.8383 23.9337 56.1153 23.92 55.32 23.92V27.92C56.0714 27.92 56.735 27.933 57.3131 27.9581L57.4869 23.9619ZM55.293 23.9202L52.333 23.9602L52.387 27.9598L55.347 27.9198L55.293 23.9202ZM52.2601 23.9625C51.775 23.9867 51.0928 24 50.2 24V28C51.1205 28 51.8783 27.9866 52.4599 27.9575L52.2601 23.9625ZM50.2 24C50.7518 24 51.2394 24.231 51.5792 24.5708C51.8699 24.8615 51.9901 25.1656 52.0374 25.3075C52.0898 25.4648 52.1066 25.5887 52.1128 25.6441C52.1197 25.7066 52.12 25.7483 52.12 25.76H48.12C48.12 25.8984 48.1251 26.2198 48.2426 26.5725C48.3431 26.8738 48.8448 28 50.2 28V24ZM52.12 25.76C52.12 25.7717 52.1197 25.8134 52.1128 25.8759C52.1066 25.9313 52.0898 26.0552 52.0374 26.2125C51.9901 26.3544 51.8699 26.6585 51.5792 26.9492C51.2394 27.289 50.7518 27.52 50.2 27.52V23.52C48.8448 23.52 48.3431 24.6462 48.2426 24.9475C48.1251 25.3002 48.12 25.6216 48.12 25.76H52.12ZM50.2 27.52C51.095 27.52 51.9917 27.4576 52.7125 27.2174L51.4475 23.4226C51.4478 23.4226 51.4404 23.425 51.4243 23.4291C51.4083 23.4332 51.3855 23.4385 51.3551 23.4444C51.2933 23.4564 51.209 23.4695 51.0984 23.4812C50.875 23.505 50.5789 23.52 50.2 23.52V27.52ZM52.7125 27.2174C53.6526 26.904 54.4087 26.226 54.7635 25.2327L50.9965 23.8873C51.0269 23.8023 51.0912 23.6857 51.2025 23.58C51.3107 23.4772 51.4101 23.4351 51.4475 23.4226L52.7125 27.2174ZM54.737 25.3028C55.0409 24.5429 55.12 23.6344 55.12 22.76H51.12C51.12 23.0979 51.1028 23.356 51.0775 23.5457C51.0513 23.7422 51.0224 23.8188 51.023 23.8172L54.737 25.3028ZM55.12 22.76V4.24H51.12V22.76H55.12ZM55.12 4.24C55.12 3.38086 55.045 2.45448 54.7183 1.69216L51.0417 3.26784C51.0266 3.23261 51.0526 3.28156 51.0783 3.47023C51.1027 3.64917 51.12 3.90127 51.12 4.24H55.12ZM54.7635 1.80733C54.4087 0.813993 53.6526 0.136024 52.7125 -0.177369L51.4475 3.61736C51.4101 3.60487 51.3107 3.56283 51.2025 3.46C51.0912 3.35425 51.0269 3.23771 50.9965 3.15267L54.7635 1.80733ZM52.8678 -0.118293C52.1006 -0.447121 51.155 -0.520001 50.28 -0.520001V3.48C50.6345 3.48 50.8984 3.49748 51.0857 3.52245C51.2845 3.54896 51.3328 3.5757 51.2922 3.55829L52.8678 -0.118293ZM50.28 -0.520001C50.61 -0.520001 50.9879 -0.431763 51.3369 -0.199103C51.6734 0.0252094 51.8702 0.308309 51.9789 0.525569C52.1678 0.903494 52.16 1.21785 52.16 1.24H48.16C48.16 1.42215 48.1722 1.8565 48.4011 2.31443C48.5298 2.57169 48.7516 2.88479 49.1181 3.1291C49.4971 3.38176 49.91 3.48 50.28 3.48V-0.520001ZM52.16 1.24C52.16 1.26215 52.1678 1.5765 51.9789 1.95443C51.8702 2.17169 51.6734 2.45479 51.3369 2.6791C50.9879 2.91176 50.61 3 50.28 3V-1C49.91 -1 49.4971 -0.901762 49.1181 -0.649102C48.7516 -0.404789 48.5298 -0.0916901 48.4011 0.16557C48.1722 0.623494 48.16 1.05785 48.16 1.24H52.16ZM50.2423 2.99964L52.3623 3.03964L52.4377 -0.959644L50.3177 -0.999644L50.2423 2.99964ZM52.3131 3.03811C53.5517 3.09196 54.5579 3.12 55.32 3.12V-0.880001C54.6421 -0.880001 53.7017 -0.905296 52.4869 -0.958113L52.3131 3.03811ZM55.32 3.12C56.4621 3.12 57.6286 3.07822 58.8192 2.99515L58.5408 -0.995151C57.4381 -0.91822 56.3646 -0.880001 55.32 -0.880001V3.12ZM58.7569 2.99852C60.1489 2.94498 61.0445 2.92 61.48 2.92V-1.08C60.9555 -1.08 59.9845 -1.05165 58.6031 -0.998523L58.7569 2.99852ZM61.48 2.92C63.9044 2.92 65.97 3.39841 67.7274 4.29963L69.5526 0.740365C67.15 -0.491749 64.4422 -1.08 61.48 -1.08V2.92ZM67.7365 4.30431C69.5472 5.22112 70.8863 6.43536 71.8226 7.93778L75.2174 5.82221C73.8603 3.64464 71.9461 1.95222 69.5434 0.735684L67.7365 4.30431ZM71.8226 7.93778C72.7599 9.44177 73.24 11.138 73.24 13.08H77.24C77.24 10.4353 76.5734 7.99823 75.2174 5.82221L71.8226 7.93778ZM73.24 13.08C73.24 15.3448 72.7187 17.2749 71.725 18.931L75.155 20.989C76.5613 18.6451 77.24 15.9885 77.24 13.08H73.24ZM71.7209 18.9378C70.7332 20.5991 69.3996 21.8778 67.6904 22.7998L69.5896 26.3202C71.9338 25.0556 73.8002 23.2676 75.1591 20.9821L71.7209 18.9378ZM67.6988 22.7953C66.0056 23.6984 64.1316 24.16 62.04 24.16V28.16C64.7484 28.16 67.2744 27.555 69.5812 26.3247L67.6988 22.7953ZM61.64 27.24C63.6972 27.24 65.5914 26.72 67.2536 25.6345L65.0664 22.2855C64.1152 22.9066 62.9961 23.24 61.64 23.24V27.24ZM67.2772 25.6189C68.9595 24.4859 70.1987 22.858 71.0427 20.8574L67.3573 19.3026C66.7613 20.7154 65.9738 21.6741 65.0428 22.3011L67.2772 25.6189ZM71.0323 20.8816C71.9154 18.8631 72.32 16.5365 72.32 13.96H68.32C68.32 16.1302 67.9779 17.8836 67.3677 19.2784L71.0323 20.8816ZM72.32 13.96C72.32 11.4887 71.9417 9.19182 71.1515 7.09478L67.4085 8.50522C68.0049 10.0882 68.32 11.8979 68.32 13.96H72.32ZM71.1549 7.10363C70.3638 4.97379 69.1963 3.19353 67.6004 1.86356L65.0396 4.93644C66.0037 5.7398 66.8096 6.89287 67.4052 8.49637L71.1549 7.10363ZM67.6004 1.86356C65.9577 0.494658 64.0236 -0.200001 61.88 -0.200001V3.8C63.0964 3.8 64.1223 4.17201 65.0396 4.93644L67.6004 1.86356ZM61.88 -0.200001C60.997 -0.200001 60.2004 -0.157778 59.5104 -0.0603638C58.8458 0.0334587 58.1525 0.195036 57.5549 0.506827L59.4051 4.05317C59.4009 4.05537 59.4466 4.03173 59.5675 3.9985C59.6854 3.96609 59.8498 3.93138 60.0696 3.90036C60.5129 3.83778 61.1096 3.8 61.88 3.8V-0.200001ZM57.5549 0.506829C55.9799 1.32854 55.56 2.94993 55.56 4.32H59.56C59.56 4.15621 59.5722 4.03828 59.5864 3.95855C59.6006 3.8791 59.6147 3.84874 59.6132 3.85221C59.6105 3.85817 59.5926 3.8946 59.5494 3.94161C59.5048 3.99 59.4531 4.02814 59.4051 4.05317L57.5549 0.506829ZM55.56 4.32V22.32H59.56V4.32H55.56ZM55.56 22.32C55.56 23.692 55.9216 25.1669 57.1416 26.1545L59.6584 23.0455C59.6921 23.0728 59.6779 23.0834 59.6467 22.9986C59.6095 22.8977 59.56 22.688 59.56 22.32H55.56ZM57.1879 26.1909C57.8096 26.6645 58.5547 26.9062 59.2424 27.0421C59.9532 27.1825 60.7628 27.24 61.64 27.24V23.24C60.9172 23.24 60.3868 23.1908 60.0176 23.1179C59.6253 23.0404 59.5504 22.9622 59.6121 23.0091L57.1879 26.1909ZM97.0431 19.64L98.9433 20.2639L99.0431 19.96V19.64H97.0431ZM97.4031 19.64L95.9889 21.0542L96.3228 21.3881L96.7707 21.5374L97.4031 19.64ZM97.5231 19.72L99.5069 19.9743L99.5231 19.8477V19.72H97.5231ZM97.0031 25.88L98.4173 27.2942L98.5178 27.1937L98.6031 27.08L97.0031 25.88ZM80.6831 25.32L80.0507 23.4226L80.0305 23.4294L80.0105 23.4365L80.6831 25.32ZM81.4831 24.56L83.3666 25.2327L83.3738 25.2126L83.3805 25.1925L81.4831 24.56ZM81.4831 2.48L79.5996 3.15267V3.15267L81.4831 2.48ZM80.6831 1.72L79.9403 3.57695L79.9949 3.59878L80.0507 3.61736L80.6831 1.72ZM96.2031 1.36H94.2031V1.37503L94.2034 1.39007L96.2031 1.36ZM96.2831 6.68H98.2831V6.66496L98.2829 6.64993L96.2831 6.68ZM96.0431 6.8L95.7143 4.82721L95.6825 4.83251L95.6509 4.83884L96.0431 6.8ZM95.8031 6.72L93.8751 7.25186L93.8891 7.30256L93.9058 7.35245L95.8031 6.72ZM93.6431 3.28L92.4567 4.89011L93.6431 3.28ZM86.6831 2.68L88.044 4.14559L88.044 4.14559L86.6831 2.68ZM86.1231 12.44H84.1231V14.44H86.1231V12.44ZM93.0031 11.64L91.9189 9.9594L91.9189 9.95941L93.0031 11.64ZM94.6831 9.4L96.683 9.42222L96.6831 9.41111V9.4H94.6831ZM94.6431 13L92.6432 12.9778L92.6429 13.0097L92.6436 13.0417L94.6431 13ZM94.6831 14.92L92.6836 14.9617L92.6843 14.9996L92.6866 15.0374L94.6831 14.92ZM93.0031 14.52L91.7788 16.1014L91.8069 16.1232L91.8359 16.144L93.0031 14.52ZM86.1231 13.56V11.56H84.1231V13.56H86.1231ZM86.5631 24.32L88.1358 23.0844V23.0844L86.5631 24.32ZM94.2831 23.6L93.1575 21.9468L94.2831 23.6ZM99.0431 19.64C99.0431 19.9766 98.9532 20.3604 98.7172 20.7144C98.4896 21.0559 98.2015 21.2569 97.9776 21.3689C97.5863 21.5645 97.2519 21.56 97.2031 21.56V17.56C97.0476 17.56 96.6333 17.5688 96.1887 17.7911C95.9381 17.9164 95.63 18.1341 95.389 18.4956C95.1397 18.8696 95.0431 19.2767 95.0431 19.64H99.0431ZM97.2031 21.56C97.0177 21.56 96.7988 21.5283 96.5703 21.437C96.3396 21.3447 96.1439 21.2092 95.9889 21.0542L98.8174 18.2258C98.3644 17.7729 97.7778 17.56 97.2031 17.56V21.56ZM96.7707 21.5374C96.7484 21.5299 96.5824 21.4766 96.3837 21.3441C96.2812 21.2757 96.0924 21.1358 95.9156 20.9C95.7269 20.6483 95.5231 20.2443 95.5231 19.72H99.5231C99.5231 18.6449 98.7433 18.1098 98.6025 18.0159C98.3638 17.8568 98.1379 17.7767 98.0356 17.7426L96.7707 21.5374ZM95.5394 19.4657C95.2642 21.6118 95.1231 23.5917 95.1231 25.4H99.1231C99.1231 23.795 99.2487 21.9882 99.5069 19.9743L95.5394 19.4657ZM95.1231 25.4C95.1231 25.3882 95.1236 25.312 95.1528 25.1949C95.1826 25.0758 95.2501 24.884 95.4031 24.68L98.6031 27.08C99.0572 26.4745 99.1231 25.8056 99.1231 25.4H95.1231ZM95.5889 24.4658C95.8967 24.158 96.2176 24.0598 96.3381 24.0297C96.4707 23.9966 96.5466 24 96.5231 24V28C96.7397 28 97.0156 27.9834 97.3082 27.9103C97.5887 27.8402 98.0296 27.682 98.4173 27.2942L95.5889 24.4658ZM96.5231 24H78.8431V28H96.5231V24ZM78.8431 24C79.1731 24 79.551 24.0882 79.9 24.3209C80.2365 24.5452 80.4333 24.8283 80.542 25.0456C80.7309 25.4235 80.7231 25.7379 80.7231 25.76H76.7231C76.7231 25.9422 76.7353 26.3765 76.9643 26.8344C77.0929 27.0917 77.3148 27.4048 77.6812 27.6491C78.0602 27.9018 78.4732 28 78.8431 28V24ZM80.7231 25.76C80.7231 25.7822 80.7309 26.0965 80.542 26.4744C80.4333 26.6917 80.2365 26.9748 79.9 27.1991C79.551 27.4318 79.1731 27.52 78.8431 27.52V23.52C78.4732 23.52 78.0602 23.6182 77.6812 23.8709C77.3148 24.1152 77.0929 24.4283 76.9643 24.6856C76.7353 25.1435 76.7231 25.5779 76.7231 25.76H80.7231ZM78.8431 27.52C79.7234 27.52 80.6349 27.4609 81.3558 27.2035L80.0105 23.4365C80.0292 23.4298 79.9538 23.4571 79.727 23.4817C79.5134 23.5049 79.2227 23.52 78.8431 23.52V27.52ZM81.3156 27.2174C82.2558 26.904 83.0118 26.226 83.3666 25.2327L79.5996 23.8873C79.63 23.8023 79.6943 23.6857 79.8056 23.58C79.9139 23.4772 80.0132 23.4351 80.0507 23.4226L81.3156 27.2174ZM83.3805 25.1925C83.618 24.4798 83.6831 23.6184 83.6831 22.76H79.6831C79.6831 23.5016 79.6149 23.8402 79.5858 23.9275L83.3805 25.1925ZM83.6831 22.76V4.24H79.6831V22.76H83.6831ZM83.6831 4.24C83.6831 3.39521 83.6212 2.52016 83.3666 1.80733L79.5996 3.15267C79.5962 3.14314 79.6224 3.21846 79.6459 3.42582C79.6684 3.62324 79.6831 3.89094 79.6831 4.24H83.6831ZM83.3666 1.80733C83.0118 0.813993 82.2558 0.136024 81.3156 -0.177369L80.0507 3.61736C80.0132 3.60487 79.9139 3.56283 79.8056 3.46C79.6943 3.35425 79.63 3.23771 79.5996 3.15267L83.3666 1.80733ZM81.4259 -0.136956C80.6611 -0.442886 79.7341 -0.520001 78.8431 -0.520001V3.48C79.1968 3.48 79.4666 3.49739 79.6644 3.5232C79.8706 3.55008 79.947 3.57962 79.9403 3.57695L81.4259 -0.136956ZM78.8431 -0.520001C79.1731 -0.520001 79.551 -0.431763 79.9 -0.199103C80.2365 0.0252104 80.4333 0.30831 80.542 0.52557C80.7309 0.903494 80.7231 1.21785 80.7231 1.24H76.7231C76.7231 1.42215 76.7353 1.8565 76.9643 2.31443C77.0929 2.57169 77.3148 2.88479 77.6812 3.1291C78.0602 3.38176 78.4732 3.48 78.8431 3.48V-0.520001ZM80.7231 1.24C80.7231 1.26215 80.7309 1.5765 80.542 1.95443C80.4333 2.17169 80.2365 2.45479 79.9 2.6791C79.551 2.91176 79.1731 3 78.8431 3V-1C78.4732 -1 78.0602 -0.901761 77.6812 -0.649102C77.3148 -0.404789 77.0929 -0.0916891 76.9643 0.165571C76.7353 0.623495 76.7231 1.05785 76.7231 1.24H80.7231ZM78.8431 3H95.8031V-1H78.8431V3ZM95.8031 3C95.6772 3 95.2092 2.97621 94.7652 2.57659C94.2811 2.14091 94.2031 1.60591 94.2031 1.36H98.2031C98.2031 0.874091 98.0585 0.159085 97.4411 -0.396592C96.8637 -0.916212 96.1958 -1 95.8031 -1V3ZM94.2034 1.39007L94.2834 6.71007L98.2829 6.64993L98.2029 1.32993L94.2034 1.39007ZM94.2831 6.68C94.2831 5.52584 95.1786 5.0362 95.3287 4.96114C95.4586 4.89621 95.5632 4.86424 95.6128 4.85046C95.6675 4.83527 95.7043 4.82889 95.7143 4.82721L96.3719 8.77279C96.5163 8.74872 96.8096 8.69283 97.1175 8.53885C97.3477 8.4238 98.2831 7.88749 98.2831 6.68H94.2831ZM95.6509 4.83884C95.7377 4.82147 96.0818 4.75804 96.5156 4.90263C96.755 4.98244 97.0163 5.12479 97.2473 5.35579C97.4783 5.58678 97.6207 5.84814 97.7005 6.08755L93.9058 7.35245C94.1182 7.98966 94.6135 8.48496 95.2507 8.69736C95.7645 8.86863 96.2152 8.80519 96.4354 8.76116L95.6509 4.83884ZM97.7311 6.18814C97.2184 4.32955 96.2931 2.74834 94.8295 1.66989L92.4567 4.89011C93.0198 5.30499 93.5345 6.01712 93.8751 7.25186L97.7311 6.18814ZM94.8295 1.66989C93.3787 0.600895 91.5901 0.16 89.6431 0.16V4.16C91.0029 4.16 91.8808 4.46577 92.4567 4.89011L94.8295 1.66989ZM89.6431 0.16H88.4431V4.16H89.6431V0.16ZM88.4431 0.16C87.4145 0.16 86.2275 0.373768 85.3222 1.21441L88.044 4.14559C87.9634 4.22043 87.9138 4.22458 87.9698 4.20803C88.0327 4.18947 88.1796 4.16 88.4431 4.16V0.16ZM85.3222 1.21441C84.3962 2.0743 84.1231 3.23902 84.1231 4.28H88.1231C88.1231 4.08622 88.149 4.00587 88.1508 4.0007C88.151 4.00033 88.1444 4.01895 88.1255 4.04875C88.106 4.07933 88.0787 4.11337 88.044 4.14559L85.3222 1.21441ZM84.1231 4.28V12.44H88.1231V4.28H84.1231ZM86.1231 14.44H89.4431V10.44H86.1231V14.44ZM89.4431 14.44C91.1724 14.44 92.8018 14.15 94.0874 13.3206L91.9189 9.95941C91.5512 10.1966 90.8072 10.44 89.4431 10.44V14.44ZM94.0874 13.3206C95.4678 12.43 96.2431 11.0595 96.2431 9.4H92.2431C92.2431 9.66051 92.1918 9.78334 91.9189 9.9594L94.0874 13.3206ZM96.2431 9.4C96.2431 9.66325 96.1862 9.9908 96.0039 10.3188C95.8202 10.6494 95.5656 10.8789 95.3221 11.025C94.8947 11.2814 94.5112 11.28 94.4431 11.28V7.28C94.2417 7.28 93.7582 7.29856 93.2641 7.59501C92.6073 7.98912 92.2431 8.68244 92.2431 9.4H96.2431ZM94.4431 11.28C94.421 11.28 94.1066 11.2878 93.7287 11.0989C93.5114 10.9902 93.2283 10.7934 93.004 10.4569C92.7714 10.1079 92.6831 9.72997 92.6831 9.4H96.6831C96.6831 9.03003 96.5849 8.61709 96.3322 8.2381C96.0879 7.87163 95.7748 7.64977 95.5176 7.52114C95.0596 7.29218 94.6253 7.28 94.4431 7.28V11.28ZM92.6833 9.37778L92.6432 12.9778L96.643 13.0222L96.683 9.42222L92.6833 9.37778ZM92.6436 13.0417L92.6836 14.9617L96.6827 14.8783L96.6427 12.9583L92.6436 13.0417ZM92.6866 15.0374C92.739 15.928 92.7631 16.6036 92.7631 17.08H96.7631C96.7631 16.4898 96.734 15.7253 96.6797 14.8026L92.6866 15.0374ZM92.7631 17.08C92.7631 16.5282 92.9941 16.0406 93.3339 15.7008C93.6246 15.4101 93.9288 15.2899 94.0707 15.2426C94.2279 15.1902 94.3518 15.1734 94.4073 15.1672C94.4697 15.1603 94.5115 15.16 94.5231 15.16V19.16C94.6615 19.16 94.9829 19.1549 95.3356 19.0374C95.6369 18.9369 96.7631 18.4352 96.7631 17.08H92.7631ZM94.5231 15.16C94.5348 15.16 94.5765 15.1603 94.639 15.1672C94.6944 15.1734 94.8184 15.1902 94.9756 15.2426C95.1175 15.2899 95.4216 15.4101 95.7123 15.7008C96.0522 16.0406 96.2831 16.5282 96.2831 17.08H92.2831C92.2831 18.4352 93.4094 18.9369 93.7107 19.0374C94.0633 19.1549 94.3848 19.16 94.5231 19.16V15.16ZM96.2831 17.08C96.2831 15.3736 95.571 13.9026 94.1704 12.896L91.8359 16.144C92.1419 16.364 92.2831 16.5998 92.2831 17.08H96.2831ZM94.2275 12.9386C92.9126 11.9206 91.2064 11.56 89.4031 11.56V15.56C90.7465 15.56 91.4403 15.8394 91.7788 16.1014L94.2275 12.9386ZM89.4031 11.56H86.1231V15.56H89.4031V11.56ZM84.1231 13.56V22.6H88.1231V13.56H84.1231ZM84.1231 22.6C84.1231 23.561 84.2937 24.6688 84.9905 25.5556L88.1358 23.0844C88.1977 23.1631 88.1916 23.196 88.1707 23.1143C88.1492 23.0303 88.1231 22.8675 88.1231 22.6H84.1231ZM84.9905 25.5556C85.7849 26.5667 86.9382 26.88 87.9631 26.88V22.88C87.8309 22.88 87.8181 22.8599 87.8759 22.883C87.9068 22.8954 87.9517 22.9178 88.002 22.9549C88.0529 22.9924 88.0985 23.0369 88.1358 23.0844L84.9905 25.5556ZM87.9631 26.88H89.2831V22.88H87.9631V26.88ZM89.2831 26.88C91.6195 26.88 93.7209 26.4023 95.4087 25.2532L93.1575 21.9468C92.3386 22.5043 91.1068 22.88 89.2831 22.88V26.88ZM95.4087 25.2532C97.107 24.0969 98.2528 22.3669 98.9433 20.2639L95.1429 19.0161C94.6601 20.4864 93.9659 21.3964 93.1575 21.9468L95.4087 25.2532ZM119.113 19.64L121.014 20.2639L121.113 19.96V19.64H119.113ZM119.473 19.64L118.059 21.0542L118.393 21.3881L118.841 21.5374L119.473 19.64ZM119.593 19.72L121.577 19.9743L121.593 19.8477V19.72H119.593ZM119.073 25.88L120.488 27.2942L120.588 27.1937L120.673 27.08L119.073 25.88ZM102.753 25.32L102.121 23.4226L102.101 23.4294L102.081 23.4365L102.753 25.32ZM103.553 24.56L105.437 25.2327L105.444 25.2126L105.451 25.1925L103.553 24.56ZM103.553 2.48L101.67 3.15267V3.15267L103.553 2.48ZM102.753 1.72L102.011 3.57695L102.065 3.59878L102.121 3.61736L102.753 1.72ZM118.273 1.36H116.273V1.37503L116.274 1.39007L118.273 1.36ZM118.353 6.68H120.353V6.66496L120.353 6.64993L118.353 6.68ZM118.113 6.8L117.785 4.82721L117.753 4.83251L117.721 4.83884L118.113 6.8ZM117.873 6.72L115.945 7.25186L115.959 7.30256L115.976 7.35245L117.873 6.72ZM115.713 3.28L114.527 4.89011L115.713 3.28ZM108.753 2.68L110.114 4.14559L110.114 4.14559L108.753 2.68ZM108.193 12.44H106.193V14.44H108.193V12.44ZM115.073 11.64L113.989 9.9594L113.989 9.95941L115.073 11.64ZM116.753 9.4L118.753 9.42222L118.753 9.41111V9.4H116.753ZM116.713 13L114.714 12.9778L114.713 13.0097L114.714 13.0417L116.713 13ZM116.753 14.92L114.754 14.9617L114.755 14.9996L114.757 15.0374L116.753 14.92ZM115.073 14.52L113.849 16.1014L113.877 16.1232L113.906 16.144L115.073 14.52ZM108.193 13.56V11.56H106.193V13.56H108.193ZM108.633 24.32L110.206 23.0844V23.0844L108.633 24.32ZM116.353 23.6L115.228 21.9468L116.353 23.6ZM121.113 19.64C121.113 19.9766 121.024 20.3604 120.788 20.7144C120.56 21.0559 120.272 21.2569 120.048 21.3689C119.657 21.5645 119.322 21.56 119.273 21.56V17.56C119.118 17.56 118.704 17.5688 118.259 17.7911C118.008 17.9164 117.7 18.1341 117.459 18.4956C117.21 18.8696 117.113 19.2767 117.113 19.64H121.113ZM119.273 21.56C119.088 21.56 118.869 21.5283 118.641 21.437C118.41 21.3447 118.214 21.2092 118.059 21.0542L120.888 18.2258C120.435 17.7729 119.848 17.56 119.273 17.56V21.56ZM118.841 21.5374C118.819 21.5299 118.653 21.4766 118.454 21.3441C118.351 21.2757 118.163 21.1358 117.986 20.9C117.797 20.6483 117.593 20.2443 117.593 19.72H121.593C121.593 18.6449 120.814 18.1098 120.673 18.0159C120.434 17.8568 120.208 17.7767 120.106 17.7426L118.841 21.5374ZM117.61 19.4657C117.335 21.6118 117.193 23.5917 117.193 25.4H121.193C121.193 23.795 121.319 21.9882 121.577 19.9743L117.61 19.4657ZM117.193 25.4C117.193 25.3882 117.194 25.312 117.223 25.1949C117.253 25.0758 117.32 24.884 117.473 24.68L120.673 27.08C121.128 26.4745 121.193 25.8056 121.193 25.4H117.193ZM117.659 24.4658C117.967 24.158 118.288 24.0598 118.408 24.0297C118.541 23.9966 118.617 24 118.593 24V28C118.81 28 119.086 27.9834 119.379 27.9103C119.659 27.8402 120.1 27.682 120.488 27.2942L117.659 24.4658ZM118.593 24H100.913V28H118.593V24ZM100.913 24C101.243 24 101.621 24.0882 101.97 24.3209C102.307 24.5452 102.504 24.8283 102.612 25.0456C102.801 25.4235 102.793 25.7379 102.793 25.76H98.7934C98.7934 25.9422 98.8056 26.3765 99.0346 26.8344C99.1632 27.0917 99.3851 27.4048 99.7515 27.6491C100.131 27.9018 100.543 28 100.913 28V24ZM102.793 25.76C102.793 25.7822 102.801 26.0965 102.612 26.4744C102.504 26.6917 102.307 26.9748 101.97 27.1991C101.621 27.4318 101.243 27.52 100.913 27.52V23.52C100.543 23.52 100.131 23.6182 99.7515 23.8709C99.3851 24.1152 99.1632 24.4283 99.0346 24.6856C98.8056 25.1435 98.7934 25.5779 98.7934 25.76H102.793ZM100.913 27.52C101.794 27.52 102.705 27.4609 103.426 27.2035L102.081 23.4365C102.099 23.4298 102.024 23.4571 101.797 23.4817C101.584 23.5049 101.293 23.52 100.913 23.52V27.52ZM103.386 27.2174C104.326 26.904 105.082 26.226 105.437 25.2327L101.67 23.8873C101.7 23.8023 101.765 23.6857 101.876 23.58C101.984 23.4772 102.084 23.4351 102.121 23.4226L103.386 27.2174ZM105.451 25.1925C105.688 24.4798 105.753 23.6184 105.753 22.76H101.753C101.753 23.5016 101.685 23.8402 101.656 23.9275L105.451 25.1925ZM105.753 22.76V4.24H101.753V22.76H105.753ZM105.753 4.24C105.753 3.39521 105.692 2.52016 105.437 1.80733L101.67 3.15267C101.667 3.14314 101.693 3.21846 101.716 3.42582C101.739 3.62324 101.753 3.89094 101.753 4.24H105.753ZM105.437 1.80733C105.082 0.813993 104.326 0.136024 103.386 -0.177369L102.121 3.61736C102.084 3.60487 101.984 3.56283 101.876 3.46C101.765 3.35425 101.7 3.23771 101.67 3.15267L105.437 1.80733ZM103.496 -0.136956C102.731 -0.442886 101.804 -0.520001 100.913 -0.520001V3.48C101.267 3.48 101.537 3.49739 101.735 3.5232C101.941 3.55008 102.017 3.57962 102.011 3.57695L103.496 -0.136956ZM100.913 -0.520001C101.243 -0.520001 101.621 -0.431763 101.97 -0.199103C102.307 0.0252104 102.504 0.30831 102.612 0.52557C102.801 0.903494 102.793 1.21785 102.793 1.24H98.7934C98.7934 1.42215 98.8056 1.8565 99.0346 2.31443C99.1632 2.57169 99.3851 2.88479 99.7515 3.1291C100.131 3.38176 100.543 3.48 100.913 3.48V-0.520001ZM102.793 1.24C102.793 1.26215 102.801 1.5765 102.612 1.95443C102.504 2.17169 102.307 2.45479 101.97 2.6791C101.621 2.91176 101.243 3 100.913 3V-1C100.543 -1 100.131 -0.901761 99.7515 -0.649102C99.3851 -0.404789 99.1632 -0.0916891 99.0346 0.165571C98.8056 0.623495 98.7934 1.05785 98.7934 1.24H102.793ZM100.913 3H117.873V-1H100.913V3ZM117.873 3C117.747 3 117.28 2.97621 116.836 2.57659C116.351 2.14091 116.273 1.60591 116.273 1.36H120.273C120.273 0.874091 120.129 0.159085 119.511 -0.396592C118.934 -0.916212 118.266 -1 117.873 -1V3ZM116.274 1.39007L116.354 6.71007L120.353 6.64993L120.273 1.32993L116.274 1.39007ZM116.353 6.68C116.353 5.52584 117.249 5.0362 117.399 4.96114C117.529 4.89621 117.634 4.86424 117.683 4.85046C117.738 4.83527 117.775 4.82889 117.785 4.82721L118.442 8.77279C118.587 8.74872 118.88 8.69283 119.188 8.53885C119.418 8.4238 120.353 7.88749 120.353 6.68H116.353ZM117.721 4.83884C117.808 4.82147 118.152 4.75804 118.586 4.90263C118.825 4.98244 119.087 5.12479 119.318 5.35579C119.549 5.58678 119.691 5.84814 119.771 6.08755L115.976 7.35245C116.188 7.98966 116.684 8.48496 117.321 8.69736C117.835 8.86863 118.286 8.80519 118.506 8.76116L117.721 4.83884ZM119.801 6.18814C119.289 4.32955 118.363 2.74834 116.9 1.66989L114.527 4.89011C115.09 5.30499 115.605 6.01712 115.945 7.25186L119.801 6.18814ZM116.9 1.66989C115.449 0.600895 113.66 0.16 111.713 0.16V4.16C113.073 4.16 113.951 4.46577 114.527 4.89011L116.9 1.66989ZM111.713 0.16H110.513V4.16H111.713V0.16ZM110.513 0.16C109.485 0.16 108.298 0.373768 107.393 1.21441L110.114 4.14559C110.034 4.22043 109.984 4.22458 110.04 4.20803C110.103 4.18947 110.25 4.16 110.513 4.16V0.16ZM107.393 1.21441C106.466 2.0743 106.193 3.23902 106.193 4.28H110.193C110.193 4.08622 110.219 4.00587 110.221 4.0007C110.221 4.00033 110.215 4.01895 110.196 4.04875C110.176 4.07933 110.149 4.11337 110.114 4.14559L107.393 1.21441ZM106.193 4.28V12.44H110.193V4.28H106.193ZM108.193 14.44H111.513V10.44H108.193V14.44ZM111.513 14.44C113.243 14.44 114.872 14.15 116.158 13.3206L113.989 9.95941C113.621 10.1966 112.877 10.44 111.513 10.44V14.44ZM116.158 13.3206C117.538 12.43 118.313 11.0595 118.313 9.4H114.313C114.313 9.66051 114.262 9.78334 113.989 9.9594L116.158 13.3206ZM118.313 9.4C118.313 9.66325 118.256 9.9908 118.074 10.3188C117.891 10.6494 117.636 10.8789 117.392 11.025C116.965 11.2814 116.581 11.28 116.513 11.28V7.28C116.312 7.28 115.829 7.29856 115.334 7.59501C114.678 7.98912 114.313 8.68244 114.313 9.4H118.313ZM116.513 11.28C116.491 11.28 116.177 11.2878 115.799 11.0989C115.582 10.9902 115.299 10.7934 115.074 10.4569C114.842 10.1079 114.753 9.72997 114.753 9.4H118.753C118.753 9.03003 118.655 8.61709 118.403 8.2381C118.158 7.87163 117.845 7.64977 117.588 7.52114C117.13 7.29218 116.696 7.28 116.513 7.28V11.28ZM114.754 9.37778L114.714 12.9778L118.713 13.0222L118.753 9.42222L114.754 9.37778ZM114.714 13.0417L114.754 14.9617L118.753 14.8783L118.713 12.9583L114.714 13.0417ZM114.757 15.0374C114.809 15.928 114.833 16.6036 114.833 17.08H118.833C118.833 16.4898 118.804 15.7253 118.75 14.8026L114.757 15.0374ZM114.833 17.08C114.833 16.5282 115.064 16.0406 115.404 15.7008C115.695 15.4101 115.999 15.2899 116.141 15.2426C116.298 15.1902 116.422 15.1734 116.478 15.1672C116.54 15.1603 116.582 15.16 116.593 15.16V19.16C116.732 19.16 117.053 19.1549 117.406 19.0374C117.707 18.9369 118.833 18.4352 118.833 17.08H114.833ZM116.593 15.16C116.605 15.16 116.647 15.1603 116.709 15.1672C116.765 15.1734 116.889 15.1902 117.046 15.2426C117.188 15.2899 117.492 15.4101 117.783 15.7008C118.122 16.0406 118.353 16.5282 118.353 17.08H114.353C114.353 18.4352 115.48 18.9369 115.781 19.0374C116.134 19.1549 116.455 19.16 116.593 19.16V15.16ZM118.353 17.08C118.353 15.3736 117.641 13.9026 116.241 12.896L113.906 16.144C114.212 16.364 114.353 16.5998 114.353 17.08H118.353ZM116.298 12.9386C114.983 11.9206 113.277 11.56 111.473 11.56V15.56C112.817 15.56 113.511 15.8394 113.849 16.1014L116.298 12.9386ZM111.473 11.56H108.193V15.56H111.473V11.56ZM106.193 13.56V22.6H110.193V13.56H106.193ZM106.193 22.6C106.193 23.561 106.364 24.6688 107.061 25.5556L110.206 23.0844C110.268 23.1631 110.262 23.196 110.241 23.1143C110.22 23.0303 110.193 22.8675 110.193 22.6H106.193ZM107.061 25.5556C107.855 26.5667 109.008 26.88 110.033 26.88V22.88C109.901 22.88 109.888 22.8599 109.946 22.883C109.977 22.8954 110.022 22.9178 110.072 22.9549C110.123 22.9924 110.169 23.0369 110.206 23.0844L107.061 25.5556ZM110.033 26.88H111.353V22.88H110.033V26.88ZM111.353 26.88C113.69 26.88 115.791 26.4023 117.479 25.2532L115.228 21.9468C114.409 22.5043 113.177 22.88 111.353 22.88V26.88ZM117.479 25.2532C119.177 24.0969 120.323 22.3669 121.014 20.2639L117.213 19.0161C116.73 20.4864 116.036 21.3964 115.228 21.9468L117.479 25.2532ZM141.184 19.64L143.084 20.2639L143.184 19.96V19.64H141.184ZM141.544 19.64L140.13 21.0542L140.463 21.3881L140.911 21.5374L141.544 19.64ZM141.664 19.72L143.648 19.9743L143.664 19.8477V19.72H141.664ZM141.144 25.88L142.558 27.2942L142.658 27.1937L142.744 27.08L141.144 25.88ZM124.824 25.32L124.191 23.4226L124.171 23.4294L124.151 23.4365L124.824 25.32ZM125.624 24.56L127.507 25.2327L127.514 25.2126L127.521 25.1925L125.624 24.56ZM125.624 2.48L123.74 3.15267V3.15267L125.624 2.48ZM124.824 1.72L124.081 3.57695L124.136 3.59878L124.191 3.61736L124.824 1.72ZM140.344 1.36H138.344V1.37503L138.344 1.39007L140.344 1.36ZM140.424 6.68H142.424V6.66496L142.424 6.64993L140.424 6.68ZM140.184 6.8L139.855 4.82721L139.823 4.83251L139.792 4.83884L140.184 6.8ZM139.944 6.72L138.016 7.25186L138.03 7.30256L138.046 7.35245L139.944 6.72ZM137.784 3.28L136.597 4.89011L137.784 3.28ZM130.824 2.68L132.185 4.14559V4.14559L130.824 2.68ZM130.264 12.44H128.264V14.44H130.264V12.44ZM137.144 11.64L136.059 9.9594V9.95941L137.144 11.64ZM138.824 9.4L140.824 9.42222L140.824 9.41111V9.4H138.824ZM138.784 13L136.784 12.9778L136.784 13.0097L136.784 13.0417L138.784 13ZM138.824 14.92L136.824 14.9617L136.825 14.9996L136.827 15.0374L138.824 14.92ZM137.144 14.52L135.919 16.1014L135.948 16.1232L135.976 16.144L137.144 14.52ZM130.264 13.56V11.56H128.264V13.56H130.264ZM130.704 24.32L132.276 23.0844V23.0844L130.704 24.32ZM138.424 23.6L137.298 21.9468L138.424 23.6ZM143.184 19.64C143.184 19.9766 143.094 20.3604 142.858 20.7144C142.63 21.0559 142.342 21.2569 142.118 21.3689C141.727 21.5645 141.393 21.56 141.344 21.56V17.56C141.188 17.56 140.774 17.5688 140.329 17.7911C140.079 17.9164 139.771 18.1341 139.53 18.4956C139.28 18.8696 139.184 19.2767 139.184 19.64H143.184ZM141.344 21.56C141.158 21.56 140.939 21.5283 140.711 21.437C140.48 21.3447 140.285 21.2092 140.13 21.0542L142.958 18.2258C142.505 17.7729 141.918 17.56 141.344 17.56V21.56ZM140.911 21.5374C140.889 21.5299 140.723 21.4766 140.524 21.3441C140.422 21.2757 140.233 21.1358 140.056 20.9C139.867 20.6483 139.664 20.2443 139.664 19.72H143.664C143.664 18.6449 142.884 18.1098 142.743 18.0159C142.504 17.8568 142.279 17.7767 142.176 17.7426L140.911 21.5374ZM139.68 19.4657C139.405 21.6118 139.264 23.5917 139.264 25.4H143.264C143.264 23.795 143.389 21.9882 143.648 19.9743L139.68 19.4657ZM139.264 25.4C139.264 25.3882 139.264 25.312 139.293 25.1949C139.323 25.0758 139.391 24.884 139.544 24.68L142.744 27.08C143.198 26.4745 143.264 25.8056 143.264 25.4H139.264ZM139.73 24.4658C140.037 24.158 140.358 24.0598 140.479 24.0297C140.611 23.9966 140.687 24 140.664 24V28C140.88 28 141.156 27.9834 141.449 27.9103C141.729 27.8402 142.17 27.682 142.558 27.2942L139.73 24.4658ZM140.664 24H122.984V28H140.664V24ZM122.984 24C123.314 24 123.692 24.0882 124.041 24.3209C124.377 24.5452 124.574 24.8283 124.683 25.0456C124.872 25.4235 124.864 25.7379 124.864 25.76H120.864C120.864 25.9422 120.876 26.3765 121.105 26.8344C121.234 27.0917 121.455 27.4048 121.822 27.6491C122.201 27.9018 122.614 28 122.984 28V24ZM124.864 25.76C124.864 25.7822 124.872 26.0965 124.683 26.4744C124.574 26.6917 124.377 26.9748 124.041 27.1991C123.692 27.4318 123.314 27.52 122.984 27.52V23.52C122.614 23.52 122.201 23.6182 121.822 23.8709C121.455 24.1152 121.234 24.4283 121.105 24.6856C120.876 25.1435 120.864 25.5779 120.864 25.76H124.864ZM122.984 27.52C123.864 27.52 124.776 27.4609 125.496 27.2035L124.151 23.4365C124.17 23.4298 124.094 23.4571 123.868 23.4817C123.654 23.5049 123.363 23.52 122.984 23.52V27.52ZM125.456 27.2174C126.396 26.904 127.152 26.226 127.507 25.2327L123.74 23.8873C123.771 23.8023 123.835 23.6857 123.946 23.58C124.054 23.4772 124.154 23.4351 124.191 23.4226L125.456 27.2174ZM127.521 25.1925C127.759 24.4798 127.824 23.6184 127.824 22.76H123.824C123.824 23.5016 123.755 23.8402 123.726 23.9275L127.521 25.1925ZM127.824 22.76V4.24H123.824V22.76H127.824ZM127.824 4.24C127.824 3.39521 127.762 2.52016 127.507 1.80733L123.74 3.15267C123.737 3.14314 123.763 3.21846 123.787 3.42582C123.809 3.62324 123.824 3.89094 123.824 4.24H127.824ZM127.507 1.80733C127.152 0.813993 126.396 0.136024 125.456 -0.177369L124.191 3.61736C124.154 3.60487 124.054 3.56283 123.946 3.46C123.835 3.35425 123.771 3.23771 123.74 3.15267L127.507 1.80733ZM125.567 -0.136956C124.802 -0.442886 123.875 -0.520001 122.984 -0.520001V3.48C123.337 3.48 123.607 3.49739 123.805 3.5232C124.011 3.55008 124.088 3.57962 124.081 3.57695L125.567 -0.136956ZM122.984 -0.520001C123.314 -0.520001 123.692 -0.431763 124.041 -0.199103C124.377 0.0252104 124.574 0.30831 124.683 0.52557C124.872 0.903494 124.864 1.21785 124.864 1.24H120.864C120.864 1.42215 120.876 1.8565 121.105 2.31443C121.234 2.57169 121.455 2.88479 121.822 3.1291C122.201 3.38176 122.614 3.48 122.984 3.48V-0.520001ZM124.864 1.24C124.864 1.26215 124.872 1.5765 124.683 1.95443C124.574 2.17169 124.377 2.45479 124.041 2.6791C123.692 2.91176 123.314 3 122.984 3V-1C122.614 -1 122.201 -0.901761 121.822 -0.649102C121.455 -0.404789 121.234 -0.0916891 121.105 0.165571C120.876 0.623495 120.864 1.05785 120.864 1.24H124.864ZM122.984 3H139.944V-1H122.984V3ZM139.944 3C139.818 3 139.35 2.97621 138.906 2.57659C138.422 2.14091 138.344 1.60591 138.344 1.36H142.344C142.344 0.874091 142.199 0.159085 141.582 -0.396592C141.004 -0.916212 140.336 -1 139.944 -1V3ZM138.344 1.39007L138.424 6.71007L142.424 6.64993L142.344 1.32993L138.344 1.39007ZM138.424 6.68C138.424 5.52584 139.319 5.0362 139.469 4.96114C139.599 4.89621 139.704 4.86424 139.753 4.85046C139.808 4.83527 139.845 4.82889 139.855 4.82721L140.513 8.77279C140.657 8.74872 140.95 8.69283 141.258 8.53885C141.488 8.4238 142.424 7.88749 142.424 6.68H138.424ZM139.792 4.83884C139.878 4.82147 140.222 4.75804 140.656 4.90263C140.896 4.98244 141.157 5.12479 141.388 5.35579C141.619 5.58678 141.761 5.84814 141.841 6.08755L138.046 7.35245C138.259 7.98966 138.754 8.48496 139.391 8.69736C139.905 8.86863 140.356 8.80519 140.576 8.76116L139.792 4.83884ZM141.872 6.18814C141.359 4.32955 140.434 2.74834 138.97 1.66989L136.597 4.89011C137.16 5.30499 137.675 6.01712 138.016 7.25186L141.872 6.18814ZM138.97 1.66989C137.519 0.600895 135.731 0.16 133.784 0.16V4.16C135.143 4.16 136.021 4.46577 136.597 4.89011L138.97 1.66989ZM133.784 0.16H132.584V4.16H133.784V0.16ZM132.584 0.16C131.555 0.16 130.368 0.373768 129.463 1.21441L132.185 4.14559C132.104 4.22043 132.054 4.22458 132.11 4.20803C132.173 4.18947 132.32 4.16 132.584 4.16V0.16ZM129.463 1.21441C128.537 2.0743 128.264 3.23902 128.264 4.28H132.264C132.264 4.08622 132.29 4.00587 132.291 4.0007C132.292 4.00033 132.285 4.01895 132.266 4.04875C132.247 4.07933 132.219 4.11337 132.185 4.14559L129.463 1.21441ZM128.264 4.28V12.44H132.264V4.28H128.264ZM130.264 14.44H133.584V10.44H130.264V14.44ZM133.584 14.44C135.313 14.44 136.942 14.15 138.228 13.3206L136.059 9.95941C135.692 10.1966 134.948 10.44 133.584 10.44V14.44ZM138.228 13.3206C139.608 12.43 140.384 11.0595 140.384 9.4H136.384C136.384 9.66051 136.332 9.78334 136.059 9.9594L138.228 13.3206ZM140.384 9.4C140.384 9.66325 140.327 9.9908 140.145 10.3188C139.961 10.6494 139.706 10.8789 139.463 11.025C139.035 11.2814 138.652 11.28 138.584 11.28V7.28C138.382 7.28 137.899 7.29856 137.405 7.59501C136.748 7.98912 136.384 8.68244 136.384 9.4H140.384ZM138.584 11.28C138.562 11.28 138.247 11.2878 137.869 11.0989C137.652 10.9902 137.369 10.7934 137.145 10.4569C136.912 10.1079 136.824 9.72997 136.824 9.4H140.824C140.824 9.03003 140.726 8.61709 140.473 8.2381C140.229 7.87163 139.915 7.64977 139.658 7.52114C139.2 7.29218 138.766 7.28 138.584 7.28V11.28ZM136.824 9.37778L136.784 12.9778L140.784 13.0222L140.824 9.42222L136.824 9.37778ZM136.784 13.0417L136.824 14.9617L140.823 14.8783L140.783 12.9583L136.784 13.0417ZM136.827 15.0374C136.88 15.928 136.904 16.6036 136.904 17.08H140.904C140.904 16.4898 140.875 15.7253 140.82 14.8026L136.827 15.0374ZM136.904 17.08C136.904 16.5282 137.135 16.0406 137.475 15.7008C137.765 15.4101 138.069 15.2899 138.211 15.2426C138.369 15.1902 138.492 15.1734 138.548 15.1672C138.61 15.1603 138.652 15.16 138.664 15.16V19.16C138.802 19.16 139.124 19.1549 139.476 19.0374C139.777 18.9369 140.904 18.4352 140.904 17.08H136.904ZM138.664 15.16C138.675 15.16 138.717 15.1603 138.78 15.1672C138.835 15.1734 138.959 15.1902 139.116 15.2426C139.258 15.2899 139.562 15.4101 139.853 15.7008C140.193 16.0406 140.424 16.5282 140.424 17.08H136.424C136.424 18.4352 137.55 18.9369 137.851 19.0374C138.204 19.1549 138.525 19.16 138.664 19.16V15.16ZM140.424 17.08C140.424 15.3736 139.712 13.9026 138.311 12.896L135.976 16.144C136.283 16.364 136.424 16.5998 136.424 17.08H140.424ZM138.368 12.9386C137.053 11.9206 135.347 11.56 133.544 11.56V15.56C134.887 15.56 135.581 15.8394 135.919 16.1014L138.368 12.9386ZM133.544 11.56H130.264V15.56H133.544V11.56ZM128.264 13.56V22.6H132.264V13.56H128.264ZM128.264 22.6C128.264 23.561 128.434 24.6688 129.131 25.5556L132.276 23.0844C132.338 23.1631 132.332 23.196 132.311 23.1143C132.29 23.0303 132.264 22.8675 132.264 22.6H128.264ZM129.131 25.5556C129.925 26.5667 131.079 26.88 132.104 26.88V22.88C131.972 22.88 131.959 22.8599 132.017 22.883C132.047 22.8954 132.092 22.9178 132.143 22.9549C132.194 22.9924 132.239 23.0369 132.276 23.0844L129.131 25.5556ZM132.104 26.88H133.424V22.88H132.104V26.88ZM133.424 26.88C135.76 26.88 137.862 26.4023 139.549 25.2532L137.298 21.9468C136.479 22.5043 135.247 22.88 133.424 22.88V26.88ZM139.549 25.2532C141.248 24.0969 142.393 22.3669 143.084 20.2639L139.284 19.0161C138.801 20.4864 138.107 21.3964 137.298 21.9468L139.549 25.2532ZM174.574 25.96L174.674 23.9625L174.638 23.9607L174.601 23.9602L174.574 25.96ZM171.614 25.92L171.641 23.9202L171.614 23.9198L171.587 23.9202L171.614 25.92ZM168.614 25.96L168.587 23.9602L168.548 23.9607L168.509 23.9628L168.614 25.96ZM168.814 25.12L169.923 26.7841V26.7841L168.814 25.12ZM169.414 23.44H171.414V23.3812L171.411 23.3226L169.414 23.44ZM169.374 22.76L167.377 22.8626L167.377 22.87L167.378 22.8774L169.374 22.76ZM168.534 6.4L170.531 6.29745L166.694 5.61538L168.534 6.4ZM160.294 25.72L162.083 26.6144L162.11 26.5603L162.134 26.5046L160.294 25.72ZM159.654 25.72L161.443 24.8256L161.434 24.8072L161.424 24.789L159.654 25.72ZM149.534 6.48L151.304 5.54896L147.706 -1.29214L147.535 6.43569L149.534 6.48ZM149.214 20.92L147.215 20.8757L147.214 20.883L149.214 20.92ZM150.054 24.32L148.423 25.4775L148.444 25.5076L148.467 25.5369L150.054 24.32ZM150.934 25.96L151.067 23.9644L151.019 23.9612L150.97 23.9603L150.934 25.96ZM148.734 25.92L148.77 23.9203L148.736 23.9197L148.702 23.9203L148.734 25.92ZM146.214 25.96L146.182 23.9603L146.136 23.961L146.089 23.9639L146.214 25.96ZM147.094 24.28L148.676 25.5043L147.094 24.28ZM148.094 20.92L146.095 20.8765L146.094 20.8823L148.094 20.92ZM148.454 4.36L150.454 4.40347L150.472 3.54969L149.868 2.94582L148.454 4.36ZM148.414 4.32L146.655 5.27103L146.793 5.52779L147 5.73418L148.414 4.32ZM146.734 2.16L145.476 3.71449L145.493 3.72873L145.511 3.74257L146.734 2.16ZM144.774 1L144.817 -0.999547L144.795 -1H144.774V1ZM146.654 1.04L146.797 -0.954918L146.747 -0.958484L146.697 -0.959548L146.654 1.04ZM148.094 1.08V3.08H148.113L148.132 3.07964L148.094 1.08ZM150.214 1.04L150.252 3.03964L150.344 3.03791L150.435 3.02777L150.214 1.04ZM151.934 1.36L153.513 0.132117L153.513 0.132112L151.934 1.36ZM152.974 3.08L154.739 2.13927L154.73 2.12172L154.72 2.10436L152.974 3.08ZM161.694 19.44L159.929 20.3807L161.875 24.0313L163.528 20.239L161.694 19.44ZM169.294 2L171.128 2.799L171.132 2.78784L169.294 2ZM169.774 1.24L171.054 2.77644L171.065 2.76755L171.076 2.75851L169.774 1.24ZM171.294 1.04L171.113 3.03179L171.12 3.03247L171.128 3.03309L171.294 1.04ZM172.374 1.08V3.08H172.391L172.408 3.07971L172.374 1.08ZM174.734 1.04L174.768 3.03971L174.822 3.03879L174.877 3.03492L174.734 1.04ZM173.614 2.24L174.956 3.72307V3.72307L173.614 2.24ZM172.854 4.6L170.857 4.69988L170.857 4.70558L172.854 4.6ZM173.814 22.76L171.817 22.8656L171.817 22.8772L171.818 22.8888L173.814 22.76ZM174.094 24.56L172.211 25.2327L172.231 25.291L172.256 25.3478L174.094 24.56ZM174.894 25.32L174.221 27.2035L174.241 27.2106L174.262 27.2174L174.894 25.32ZM176.734 27.52C176.182 27.52 175.695 27.289 175.355 26.9492C175.064 26.6585 174.944 26.3543 174.897 26.2124C174.844 26.0552 174.827 25.9313 174.821 25.8759C174.814 25.8134 174.814 25.7717 174.814 25.76H178.814C178.814 25.6216 178.809 25.3002 178.691 24.9476C178.591 24.6463 178.089 23.52 176.734 23.52V27.52ZM174.814 25.76C174.814 25.7483 174.814 25.7066 174.821 25.6441C174.827 25.5887 174.844 25.4648 174.897 25.3076C174.944 25.1656 175.064 24.8615 175.355 24.5708C175.695 24.231 176.182 24 176.734 24V28C178.089 28 178.591 26.8737 178.691 26.5724C178.809 26.2198 178.814 25.8984 178.814 25.76H174.814ZM176.734 24C175.841 24 175.159 23.9867 174.674 23.9625L174.474 27.9575C175.056 27.9866 175.814 28 176.734 28V24ZM174.601 23.9602L171.641 23.9202L171.587 27.9198L174.547 27.9598L174.601 23.9602ZM171.587 23.9202L168.587 23.9602L168.641 27.9598L171.641 27.9198L171.587 23.9202ZM168.509 23.9628C168.054 23.9867 167.4 24 166.534 24V28C167.428 28 168.161 27.9866 168.719 27.9572L168.509 23.9628ZM166.534 24C166.864 24 167.242 24.0882 167.591 24.3209C167.927 24.5452 168.124 24.8283 168.233 25.0456C168.422 25.4235 168.414 25.7379 168.414 25.76H164.414C164.414 25.9421 164.426 26.3765 164.655 26.8344C164.784 27.0917 165.006 27.4048 165.372 27.6491C165.751 27.9018 166.164 28 166.534 28V24ZM168.414 25.76C168.414 25.7821 168.422 26.0965 168.233 26.4744C168.124 26.6917 167.927 26.9748 167.591 27.1991C167.242 27.4318 166.864 27.52 166.534 27.52V23.52C166.164 23.52 165.751 23.6182 165.372 23.8709C165.006 24.1152 164.784 24.4283 164.655 24.6856C164.426 25.1435 164.414 25.5779 164.414 25.76H168.414ZM166.534 27.52C167.163 27.52 167.757 27.4833 168.29 27.3899C168.797 27.301 169.395 27.1363 169.923 26.7841L167.705 23.4559C167.833 23.3703 167.851 23.4057 167.598 23.4501C167.371 23.49 167.025 23.52 166.534 23.52V27.52ZM169.923 26.7841C171.2 25.9329 171.414 24.4528 171.414 23.44H167.414C167.414 23.5771 167.406 23.6768 167.396 23.7448C167.387 23.8133 167.377 23.8368 167.381 23.8273C167.384 23.8169 167.405 23.7636 167.458 23.6902C167.514 23.6136 167.595 23.5289 167.705 23.4559L169.923 26.7841ZM171.411 23.3226L171.371 22.6426L167.378 22.8774L167.418 23.5574L171.411 23.3226ZM171.371 22.6574L170.531 6.29745L166.537 6.50255L167.377 22.8626L171.371 22.6574ZM166.694 5.61538L158.454 24.9354L162.134 26.5046L170.374 7.18462L166.694 5.61538ZM158.505 24.8256C158.672 24.4919 158.946 24.218 159.28 24.0511C159.582 23.8999 159.845 23.88 159.974 23.88V27.88C160.59 27.88 161.574 27.6321 162.083 26.6144L158.505 24.8256ZM159.974 23.88C160.103 23.88 160.366 23.8999 160.668 24.0511C161.002 24.218 161.276 24.4918 161.443 24.8256L157.865 26.6144C158.374 27.6321 159.359 27.88 159.974 27.88V23.88ZM161.424 24.789L151.304 5.54896L147.764 7.41104L157.884 26.651L161.424 24.789ZM147.535 6.43569L147.215 20.8757L151.214 20.9643L151.534 6.52431L147.535 6.43569ZM147.214 20.883C147.183 22.5761 147.504 24.1829 148.423 25.4775L151.685 23.1625C151.43 22.8038 151.192 22.1439 151.214 20.957L147.214 20.883ZM148.467 25.5369C149.494 26.8768 150.959 27.52 152.614 27.52V23.52C152.082 23.52 151.841 23.3632 151.641 23.1031L148.467 25.5369ZM152.614 27.52C152.284 27.52 151.906 27.4318 151.557 27.1991C151.221 26.9748 151.024 26.6917 150.915 26.4744C150.726 26.0965 150.734 25.7822 150.734 25.76H154.734C154.734 25.5779 154.722 25.1435 154.493 24.6856C154.364 24.4283 154.142 24.1152 153.776 23.8709C153.397 23.6182 152.984 23.52 152.614 23.52V27.52ZM150.734 25.76C150.734 25.7379 150.726 25.4235 150.915 25.0456C151.024 24.8283 151.221 24.5452 151.557 24.3209C151.906 24.0882 152.284 24 152.614 24V28C152.984 28 153.397 27.9018 153.776 27.6491C154.142 27.4048 154.364 27.0917 154.493 26.8344C154.722 26.3765 154.734 25.9422 154.734 25.76H150.734ZM152.614 24C151.91 24 151.401 23.9867 151.067 23.9644L150.801 27.9556C151.267 27.9866 151.879 28 152.614 28V24ZM150.97 23.9603L148.77 23.9203L148.698 27.9197L150.898 27.9597L150.97 23.9603ZM148.702 23.9203L146.182 23.9603L146.246 27.9597L148.766 27.9197L148.702 23.9203ZM146.089 23.9639C145.723 23.9868 145.196 24 144.494 24V28C145.232 28 145.852 27.9865 146.339 27.9561L146.089 23.9639ZM144.494 24C144.824 24 145.202 24.0882 145.551 24.3209C145.887 24.5452 146.084 24.8283 146.193 25.0456C146.382 25.4235 146.374 25.7379 146.374 25.76H142.374C142.374 25.9422 142.386 26.3765 142.615 26.8344C142.744 27.0917 142.966 27.4048 143.332 27.6491C143.711 27.9018 144.124 28 144.494 28V24ZM146.374 25.76C146.374 25.7822 146.382 26.0965 146.193 26.4744C146.084 26.6917 145.887 26.9748 145.551 27.1991C145.202 27.4318 144.824 27.52 144.494 27.52V23.52C144.124 23.52 143.711 23.6182 143.332 23.8709C142.966 24.1152 142.744 24.4283 142.615 24.6856C142.386 25.1435 142.374 25.5779 142.374 25.76H146.374ZM144.494 27.52C146.173 27.52 147.637 26.8458 148.676 25.5043L145.513 23.0557C145.271 23.3676 145.002 23.52 144.494 23.52V27.52ZM148.676 25.5043C149.658 24.2356 150.062 22.6517 150.094 20.9577L146.094 20.8823C146.073 22.0149 145.81 22.6711 145.513 23.0557L148.676 25.5043ZM150.094 20.9635L150.454 4.40347L146.455 4.31653L146.095 20.8765L150.094 20.9635ZM149.868 2.94582L149.828 2.90582L147 5.73418L147.04 5.77418L149.868 2.94582ZM150.173 3.36896C149.569 2.25072 148.848 1.26613 147.957 0.577428L145.511 3.74257C145.793 3.96054 146.192 4.41594 146.655 5.27103L150.173 3.36896ZM147.992 0.605511C147.063 -0.147206 145.961 -0.520001 144.774 -0.520001V3.48C145.081 3.48 145.285 3.56054 145.476 3.71449L147.992 0.605511ZM144.774 -0.520001C145.104 -0.520001 145.482 -0.431763 145.831 -0.199103C146.167 0.0252094 146.364 0.308309 146.473 0.525569C146.662 0.903494 146.654 1.21785 146.654 1.24H142.654C142.654 1.42215 142.666 1.8565 142.895 2.31443C143.024 2.57169 143.246 2.88479 143.612 3.1291C143.991 3.38176 144.404 3.48 144.774 3.48V-0.520001ZM146.654 1.24C146.654 1.26215 146.662 1.5765 146.473 1.95443C146.364 2.17169 146.167 2.45479 145.831 2.6791C145.482 2.91176 145.104 3 144.774 3V-1C144.404 -1 143.991 -0.901762 143.612 -0.649102C143.246 -0.404789 143.024 -0.0916901 142.895 0.16557C142.666 0.623494 142.654 1.05785 142.654 1.24H146.654ZM144.732 2.99955L146.612 3.03955L146.697 -0.959548L144.817 -0.999547L144.732 2.99955ZM146.512 3.03492C146.951 3.0663 147.483 3.08 148.094 3.08V-0.920001C147.532 -0.920001 147.104 -0.932972 146.797 -0.954918L146.512 3.03492ZM148.132 3.07964L150.252 3.03964L150.176 -0.959644L148.056 -0.919645L148.132 3.07964ZM150.435 3.02777C150.573 3.01238 150.799 3 151.134 3V-1C150.722 -1 150.335 -0.98571 149.993 -0.947768L150.435 3.02777ZM151.134 3C151.076 3 150.941 2.98948 150.773 2.91384C150.597 2.83457 150.454 2.71478 150.355 2.58788L153.513 0.132112C152.891 -0.667625 152 -1 151.134 -1V3ZM150.355 2.58788C150.353 2.58541 150.359 2.59285 150.374 2.61368C150.388 2.63383 150.407 2.6619 150.432 2.69921C150.481 2.77453 150.544 2.87521 150.623 3.00484C150.78 3.26445 150.981 3.61271 151.228 4.05564L154.72 2.10436C154.233 1.23281 153.811 0.515465 153.513 0.132117L150.355 2.58788ZM151.209 4.02073L159.929 20.3807L163.459 18.4993L154.739 2.13927L151.209 4.02073ZM163.528 20.239L171.128 2.79899L167.461 1.20101L159.861 18.641L163.528 20.239ZM171.132 2.78784C171.157 2.72958 171.178 2.68495 171.195 2.65206C171.212 2.61884 171.223 2.60199 171.225 2.59799C171.228 2.59347 171.219 2.60905 171.195 2.63763C171.172 2.66566 171.126 2.71681 171.054 2.77644L168.494 -0.296442C167.955 0.152482 167.643 0.77431 167.456 1.21216L171.132 2.78784ZM171.076 2.75851C170.967 2.8518 170.845 2.91797 170.727 2.95737C170.613 2.9952 170.529 3 170.494 3V-1C169.82 -1 169.089 -0.806808 168.472 -0.278513L171.076 2.75851ZM170.494 3C170.662 3 170.867 3.00942 171.113 3.03179L171.475 -0.951787C171.135 -0.982751 170.806 -1 170.494 -1V3ZM171.128 3.03309C171.515 3.06531 171.931 3.08 172.374 3.08V-0.920001C172.017 -0.920001 171.713 -0.931983 171.46 -0.953093L171.128 3.03309ZM172.408 3.07971L174.768 3.03971L174.7 -0.959713L172.34 -0.919714L172.408 3.07971ZM174.877 3.03492C175.178 3.01336 175.656 3 176.334 3V-1C175.626 -1 175.036 -0.986695 174.592 -0.954918L174.877 3.03492ZM176.334 3C176.004 3 175.626 2.91176 175.277 2.67911C174.941 2.45479 174.744 2.1717 174.635 1.95443C174.446 1.57651 174.454 1.26215 174.454 1.24H178.454C178.454 1.05785 178.442 0.623491 178.213 0.165565C178.084 -0.0916958 177.862 -0.404795 177.496 -0.649106C177.117 -0.901763 176.704 -1 176.334 -1V3ZM174.454 1.24C174.454 1.21785 174.446 0.903491 174.635 0.525564C174.744 0.308303 174.941 0.0252047 175.277 -0.199107C175.626 -0.431765 176.004 -0.520001 176.334 -0.520001V3.48C176.704 3.48 177.117 3.38176 177.496 3.1291C177.862 2.88479 178.084 2.57169 178.213 2.31443C178.442 1.85651 178.454 1.42215 178.454 1.24H174.454ZM176.334 -0.520001C174.89 -0.520001 173.377 -0.242236 172.272 0.756927L174.956 3.72307C174.972 3.7089 175.271 3.48 176.334 3.48V-0.520001ZM172.272 0.756926C171.105 1.81292 170.786 3.29331 170.857 4.69988L174.852 4.50012C174.834 4.14106 174.873 3.93009 174.908 3.82306C174.924 3.77225 174.939 3.74668 174.945 3.7372C174.95 3.72859 174.953 3.72558 174.956 3.72307L172.272 0.756926ZM170.857 4.70558L171.817 22.8656L175.811 22.6544L174.851 4.49442L170.857 4.70558ZM171.818 22.8888C171.873 23.745 171.978 24.581 172.211 25.2327L175.978 23.8873C175.944 23.7924 175.861 23.4284 175.81 22.6312L171.818 22.8888ZM172.256 25.3478C172.629 26.2184 173.31 26.8778 174.221 27.2035L175.567 23.4365C175.622 23.4562 175.707 23.5 175.792 23.58C175.875 23.6591 175.917 23.7353 175.932 23.7722L172.256 25.3478ZM174.262 27.2174C174.978 27.4563 175.858 27.52 176.734 27.52V23.52C175.957 23.52 175.61 23.4504 175.527 23.4226L174.262 27.2174Z" fill="#22262A"/>
<defs>
<linearGradient id="paint0_linear_239:703" x1="-1" y1="0.0526308" x2="310.081" y2="31.1648" gradientUnits="userSpaceOnUse">
<stop offset="0.267495" stop-color="#FFC6CE"/>
<stop offset="1" stop-color="#64D6EE"/>
</linearGradient>
</defs>
</svg>
