<svg width="221" height="225" viewBox="0 0 221 225" fill="none" xmlns="http://www.w3.org/2000/svg">
<path d="M184.602 114.029L212.362 117.145L211.161 127.845C210.803 131.037 209.852 133.431 208.309 135.026C206.791 136.623 204.798 137.283 202.328 137.006L201.767 136.943C200.57 136.809 199.573 136.47 198.775 135.925C197.975 135.406 197.343 134.729 196.882 133.894C196.207 134.955 195.348 135.743 194.305 136.257C193.26 136.796 192.001 136.983 190.53 136.818L190.006 136.759C187.512 136.479 185.677 135.39 184.501 133.49C183.323 131.615 182.915 129.056 183.279 125.814L184.602 114.029ZM205.815 127.548L206.294 123.283L200.42 122.623L199.941 126.888C199.826 127.911 199.993 128.675 200.441 129.18C200.912 129.712 201.609 130.031 202.532 130.134C203.479 130.241 204.229 130.085 204.781 129.667C205.355 129.277 205.7 128.57 205.815 127.548ZM194.665 127.319L195.257 122.044L189.159 121.359L188.567 126.634C188.34 128.655 189.249 129.78 191.294 130.009C193.314 130.236 194.438 129.339 194.665 127.319Z" fill="white"/>
<path d="M184.602 114.029L212.362 117.145L211.161 127.845C210.803 131.037 209.852 133.431 208.309 135.026C206.791 136.623 204.798 137.283 202.328 137.006L201.767 136.943C200.57 136.809 199.573 136.47 198.775 135.925C197.975 135.406 197.343 134.729 196.882 133.894C196.207 134.955 195.348 135.743 194.305 136.257C193.26 136.796 192.001 136.983 190.53 136.818L190.006 136.759C187.512 136.479 185.677 135.39 184.501 133.49C183.323 131.615 182.915 129.056 183.279 125.814L184.602 114.029ZM205.815 127.548L206.294 123.283L200.42 122.623L199.941 126.888C199.826 127.911 199.993 128.675 200.441 129.18C200.912 129.712 201.609 130.031 202.532 130.134C203.479 130.241 204.229 130.085 204.781 129.667C205.355 129.277 205.7 128.57 205.815 127.548ZM194.665 127.319L195.257 122.044L189.159 121.359L188.567 126.634C188.34 128.655 189.249 129.78 191.294 130.009C193.314 130.236 194.438 129.339 194.665 127.319Z" fill="url(#paint0_linear_68:83)"/>
<path d="M184.602 114.029L184.711 113.057L183.739 112.948L183.63 113.92L184.602 114.029ZM212.362 117.145L213.334 117.254L213.443 116.282L212.471 116.173L212.362 117.145ZM208.309 135.026L207.606 134.346L207.6 134.352L208.309 135.026ZM198.775 135.925L199.326 135.117L199.317 135.111L199.307 135.105L198.775 135.925ZM196.882 133.894L197.737 133.421L196.94 131.98L196.056 133.369L196.882 133.894ZM194.305 136.257L193.873 135.38L193.865 135.384L193.857 135.388L194.305 136.257ZM184.501 133.49L185.333 132.975L185.329 132.969L184.501 133.49ZM206.294 123.283L207.266 123.392L207.375 122.42L206.403 122.311L206.294 123.283ZM200.42 122.623L200.529 121.651L199.557 121.542L199.448 122.514L200.42 122.623ZM200.441 129.18L201.175 128.532L201.173 128.53L200.441 129.18ZM204.781 129.667L204.232 128.858L204.211 128.872L204.191 128.887L204.781 129.667ZM195.257 122.044L196.229 122.153L196.338 121.181L195.366 121.072L195.257 122.044ZM189.159 121.359L189.268 120.387L188.296 120.278L188.187 121.25L189.159 121.359ZM184.493 115.001L212.253 118.117L212.471 116.173L184.711 113.057L184.493 115.001ZM211.39 117.036L210.189 127.736L212.133 127.954L213.334 117.254L211.39 117.036ZM210.189 127.736C209.844 130.806 208.944 132.962 207.606 134.346L209.012 135.706C210.759 133.9 211.761 131.268 212.133 127.954L210.189 127.736ZM207.6 134.352C206.322 135.697 204.647 136.282 202.438 136.034L202.219 137.978C204.949 138.285 207.26 137.55 209.018 135.699L207.6 134.352ZM202.438 136.034L201.876 135.971L201.658 137.915L202.219 137.978L202.438 136.034ZM201.876 135.971C200.799 135.85 199.963 135.552 199.326 135.117L198.224 136.733C199.182 137.387 200.341 137.767 201.658 137.915L201.876 135.971ZM199.307 135.105C198.642 134.673 198.122 134.115 197.737 133.421L196.026 134.368C196.565 135.343 197.308 136.139 198.243 136.746L199.307 135.105ZM196.056 133.369C195.47 134.292 194.742 134.951 193.873 135.38L194.738 137.134C195.955 136.534 196.944 135.619 197.707 134.419L196.056 133.369ZM193.857 135.388C193.023 135.818 191.968 135.995 190.639 135.846L190.421 137.79C192.035 137.971 193.497 137.775 194.754 137.126L193.857 135.388ZM190.639 135.846L190.115 135.787L189.897 137.731L190.421 137.79L190.639 135.846ZM190.115 135.787C187.877 135.536 186.33 134.586 185.333 132.975L183.669 134.004C185.024 136.193 187.146 137.423 189.897 137.731L190.115 135.787ZM185.329 132.969C184.313 131.352 183.901 129.045 184.251 125.923L182.307 125.705C181.93 129.067 182.332 131.877 183.673 134.01L185.329 132.969ZM184.251 125.923L185.574 114.138L183.63 113.92L182.307 125.705L184.251 125.923ZM206.787 127.657L207.266 123.392L205.321 123.174L204.843 127.439L206.787 127.657ZM206.403 122.311L200.529 121.651L200.311 123.595L206.184 124.255L206.403 122.311ZM199.448 122.514L198.969 126.779L200.913 126.998L201.392 122.733L199.448 122.514ZM198.969 126.779C198.839 127.933 198.999 129.029 199.71 129.829L201.173 128.53C200.987 128.321 200.813 127.889 200.913 126.998L198.969 126.779ZM199.708 129.827C200.384 130.592 201.334 130.984 202.422 131.106L202.641 129.162C201.883 129.077 201.44 128.833 201.175 128.532L199.708 129.827ZM202.422 131.106C203.524 131.23 204.555 131.065 205.372 130.447L204.191 128.887C203.904 129.104 203.435 129.251 202.641 129.162L202.422 131.106ZM205.331 130.476C206.237 129.86 206.656 128.824 206.787 127.657L204.843 127.439C204.744 128.317 204.474 128.693 204.232 128.858L205.331 130.476ZM195.637 127.428L196.229 122.153L194.285 121.935L193.693 127.21L195.637 127.428ZM195.366 121.072L189.268 120.387L189.05 122.331L195.148 123.016L195.366 121.072ZM188.187 121.25L187.595 126.525L189.539 126.744L190.131 121.468L188.187 121.25ZM187.595 126.525C187.464 127.688 187.642 128.772 188.318 129.608C188.992 130.442 190.016 130.85 191.185 130.981L191.403 129.037C190.528 128.939 190.074 128.669 189.839 128.379C189.606 128.09 189.442 127.601 189.539 126.744L187.595 126.525ZM191.185 130.981C192.345 131.111 193.426 130.939 194.262 130.271C195.098 129.604 195.507 128.588 195.637 127.428L193.693 127.21C193.596 128.07 193.329 128.513 193.042 128.742C192.754 128.972 192.264 129.134 191.403 129.037L191.185 130.981Z" fill="#23262D"/>
<path d="M182.682 130.7L208.768 140.043L204.921 150.782C203.711 154.161 202.003 156.548 199.796 157.944C197.614 159.348 195.069 159.53 192.163 158.489L191.596 158.286C189.729 157.618 188.306 156.641 187.327 155.357C186.347 154.073 185.801 152.545 185.69 150.772L174.38 153.879L177.096 146.294L186.914 143.893L188.26 140.136L180.321 137.292L182.682 130.7ZM199.252 149.192L200.877 144.655L193.328 141.951L191.703 146.488C191.288 147.645 191.289 148.685 191.705 149.608C192.137 150.562 192.931 151.246 194.089 151.661C195.247 152.076 196.295 152.051 197.234 151.588C198.165 151.148 198.838 150.349 199.252 149.192Z" fill="white"/>
<path d="M182.682 130.7L208.768 140.043L204.921 150.782C203.711 154.161 202.003 156.548 199.796 157.944C197.614 159.348 195.069 159.53 192.163 158.489L191.596 158.286C189.729 157.618 188.306 156.641 187.327 155.357C186.347 154.073 185.801 152.545 185.69 150.772L174.38 153.879L177.096 146.294L186.914 143.893L188.26 140.136L180.321 137.292L182.682 130.7ZM199.252 149.192L200.877 144.655L193.328 141.951L191.703 146.488C191.288 147.645 191.289 148.685 191.705 149.608C192.137 150.562 192.931 151.246 194.089 151.661C195.247 152.076 196.295 152.051 197.234 151.588C198.165 151.148 198.838 150.349 199.252 149.192Z" fill="url(#paint1_linear_68:83)"/>
<path d="M182.682 130.7L183.012 129.779L182.091 129.449L181.761 130.37L182.682 130.7ZM208.768 140.043L209.688 140.373L210.018 139.452L209.097 139.122L208.768 140.043ZM199.796 157.944L199.273 157.118L199.267 157.122L199.796 157.944ZM187.327 155.357L186.549 155.951L186.549 155.951L187.327 155.357ZM185.69 150.772L186.666 150.711L186.59 149.51L185.431 149.829L185.69 150.772ZM174.38 153.879L173.459 153.549L172.824 155.321L174.639 154.822L174.38 153.879ZM177.096 146.294L176.864 145.344L176.353 145.469L176.175 145.965L177.096 146.294ZM186.914 143.893L187.147 144.843L187.658 144.718L187.835 144.222L186.914 143.893ZM188.26 140.136L189.181 140.465L189.51 139.545L188.59 139.215L188.26 140.136ZM180.321 137.292L179.4 136.962L179.07 137.883L179.991 138.213L180.321 137.292ZM200.877 144.655L201.798 144.985L202.128 144.064L201.207 143.734L200.877 144.655ZM193.328 141.951L193.658 141.03L192.737 140.7L192.407 141.621L193.328 141.951ZM191.705 149.608L190.814 150.01L190.814 150.01L191.705 149.608ZM197.234 151.588L196.816 150.704L196.809 150.707L196.802 150.711L197.234 151.588ZM182.352 131.621L208.438 140.964L209.097 139.122L183.012 129.779L182.352 131.621ZM207.847 139.713L204 150.452L205.842 151.112L209.688 140.373L207.847 139.713ZM204 150.452C202.836 153.702 201.237 155.875 199.273 157.118L200.319 158.771C202.768 157.221 204.585 154.62 205.842 151.112L204 150.452ZM199.267 157.122C197.39 158.329 195.174 158.529 192.493 157.568L191.833 159.41C194.965 160.532 197.838 160.368 200.326 158.767L199.267 157.122ZM192.493 157.568L191.926 157.365L191.266 159.207L191.833 159.41L192.493 157.568ZM191.926 157.365C190.196 156.746 188.946 155.867 188.104 154.764L186.549 155.951C187.667 157.416 189.263 158.489 191.266 159.207L191.926 157.365ZM188.104 154.764C187.253 153.649 186.767 152.31 186.666 150.711L184.714 150.833C184.836 152.779 185.44 154.498 186.549 155.951L188.104 154.764ZM185.431 149.829L174.121 152.936L174.639 154.822L185.949 151.715L185.431 149.829ZM175.3 154.209L178.017 146.624L176.175 145.965L173.459 153.549L175.3 154.209ZM177.329 147.245L187.147 144.843L186.682 142.942L176.864 145.344L177.329 147.245ZM187.835 144.222L189.181 140.465L187.339 139.806L185.993 143.563L187.835 144.222ZM188.59 139.215L180.651 136.371L179.991 138.213L187.93 141.057L188.59 139.215ZM181.242 137.622L183.603 131.03L181.761 130.37L179.4 136.962L181.242 137.622ZM200.173 149.521L201.798 144.985L199.956 144.325L198.332 148.862L200.173 149.521ZM201.207 143.734L193.658 141.03L192.998 142.872L200.547 145.576L201.207 143.734ZM192.407 141.621L190.782 146.158L192.624 146.817L194.249 142.281L192.407 141.621ZM190.782 146.158C190.302 147.5 190.272 148.809 190.814 150.01L192.597 149.205C192.307 148.562 192.275 147.791 192.624 146.817L190.782 146.158ZM190.814 150.01C191.374 151.248 192.399 152.095 193.759 152.582L194.419 150.74C193.464 150.398 192.9 149.875 192.597 149.205L190.814 150.01ZM193.759 152.582C195.119 153.069 196.449 153.066 197.667 152.465L196.802 150.711C196.142 151.036 195.374 151.082 194.419 150.74L193.759 152.582ZM197.652 152.472C198.862 151.901 199.689 150.872 200.173 149.521L198.332 148.862C197.986 149.826 197.468 150.396 196.816 150.704L197.652 152.472Z" fill="#23262D"/>
<path d="M177.779 145.243L195.744 167.829L189.515 177.16L161.599 169.477L165.613 163.466L172.012 165.339L178.095 156.227L173.891 151.067L177.779 145.243ZM181.893 160.845L177.775 167.013L187.577 169.891L188.351 168.733L181.893 160.845Z" fill="white"/>
<path d="M177.779 145.243L195.744 167.829L189.515 177.16L161.599 169.477L165.613 163.466L172.012 165.339L178.095 156.227L173.891 151.067L177.779 145.243ZM181.893 160.845L177.775 167.013L187.577 169.891L188.351 168.733L181.893 160.845Z" fill="url(#paint2_linear_68:83)"/>
<path d="M177.779 145.243L178.544 144.634L177.709 143.585L176.965 144.7L177.779 145.243ZM195.744 167.829L196.557 168.372L196.954 167.779L196.509 167.22L195.744 167.829ZM189.515 177.16L189.255 178.103L189.936 178.29L190.328 177.703L189.515 177.16ZM161.599 169.477L160.786 168.934L160.034 170.061L161.34 170.42L161.599 169.477ZM165.613 163.466L165.888 162.527L165.198 162.325L164.799 162.923L165.613 163.466ZM172.012 165.339L171.737 166.278L172.427 166.479L172.826 165.882L172.012 165.339ZM178.095 156.227L178.909 156.771L179.31 156.17L178.853 155.61L178.095 156.227ZM173.891 151.067L173.077 150.523L172.676 151.124L173.132 151.684L173.891 151.067ZM181.893 160.845L182.649 160.225L181.813 159.203L181.079 160.302L181.893 160.845ZM177.775 167.013L176.961 166.47L176.222 167.577L177.499 167.952L177.775 167.013ZM187.577 169.891L187.302 170.83L187.992 171.032L188.391 170.434L187.577 169.891ZM188.351 168.733L189.164 169.276L189.566 168.673L189.108 168.113L188.351 168.733ZM177.013 145.852L194.978 168.438L196.509 167.22L178.544 144.634L177.013 145.852ZM194.93 167.286L188.701 176.617L190.328 177.703L196.557 168.372L194.93 167.286ZM189.774 176.217L161.859 168.534L161.34 170.42L189.255 178.103L189.774 176.217ZM162.413 170.02L166.426 164.009L164.799 162.923L160.786 168.934L162.413 170.02ZM165.338 164.404L171.737 166.278L172.287 164.4L165.888 162.527L165.338 164.404ZM172.826 165.882L178.909 156.771L177.282 155.684L171.199 164.796L172.826 165.882ZM178.853 155.61L174.649 150.449L173.132 151.684L177.337 156.845L178.853 155.61ZM174.704 151.61L178.592 145.786L176.965 144.7L173.077 150.523L174.704 151.61ZM181.079 160.302L176.961 166.47L178.588 167.556L182.706 161.388L181.079 160.302ZM177.499 167.952L187.302 170.83L187.853 168.953L178.05 166.075L177.499 167.952ZM188.391 170.434L189.164 169.276L187.537 168.19L186.764 169.348L188.391 170.434ZM189.108 168.113L182.649 160.225L181.136 161.465L187.594 169.352L189.108 168.113Z" fill="#23262D"/>
<path d="M165.002 162.925L184.364 182.428L179.395 187.361L160.033 167.858L165.002 162.925Z" fill="white"/>
<path d="M165.002 162.925L184.364 182.428L179.395 187.361L160.033 167.858L165.002 162.925Z" fill="url(#paint3_linear_68:83)"/>
<path d="M165.002 162.925L165.696 162.235L165.007 161.541L164.313 162.23L165.002 162.925ZM184.364 182.428L185.054 183.122L185.748 182.433L185.059 181.739L184.364 182.428ZM179.395 187.361L178.701 188.051L179.39 188.745L180.084 188.056L179.395 187.361ZM160.033 167.858L159.344 167.164L158.65 167.853L159.339 168.547L160.033 167.858ZM164.308 163.614L183.67 183.117L185.059 181.739L165.696 162.235L164.308 163.614ZM183.675 181.734L178.706 186.667L180.084 188.056L185.054 183.122L183.675 181.734ZM180.089 186.672L160.727 167.169L159.339 168.547L178.701 188.051L180.089 186.672ZM160.722 168.552L165.691 163.619L164.313 162.23L159.344 167.164L160.722 168.552Z" fill="#23262D"/>
<path d="M157.787 170.318L172.794 193.341L163.175 199.612L143.546 186.252L143.073 186.56L155.038 204.916L149.55 208.493L134.543 185.469L144.225 179.158L163.854 192.518L164.327 192.21L152.362 173.854L157.787 170.318Z" fill="white"/>
<path d="M157.787 170.318L172.794 193.341L163.175 199.612L143.546 186.252L143.073 186.56L155.038 204.916L149.55 208.493L134.543 185.469L144.225 179.158L163.854 192.518L164.327 192.21L152.362 173.854L157.787 170.318Z" fill="url(#paint4_linear_68:83)"/>
<path d="M157.787 170.318L158.606 169.784L158.072 168.965L157.253 169.499L157.787 170.318ZM172.794 193.341L173.328 194.161L174.148 193.627L173.613 192.807L172.794 193.341ZM163.175 199.612L162.624 200.42L163.163 200.787L163.709 200.431L163.175 199.612ZM143.546 186.252L144.097 185.443L143.558 185.076L143.012 185.432L143.546 186.252ZM143.073 186.56L142.539 185.741L141.72 186.275L142.254 187.094L143.073 186.56ZM155.038 204.916L155.572 205.735L156.391 205.201L155.857 204.381L155.038 204.916ZM149.55 208.493L148.731 209.027L149.265 209.846L150.084 209.312L149.55 208.493ZM134.543 185.469L134.009 184.65L133.189 185.184L133.723 186.004L134.543 185.469ZM144.225 179.158L144.775 178.35L144.237 177.983L143.691 178.339L144.225 179.158ZM163.854 192.518L163.303 193.327L163.842 193.693L164.388 193.337L163.854 192.518ZM164.327 192.21L164.861 193.029L165.68 192.495L165.146 191.676L164.327 192.21ZM152.362 173.854L151.828 173.035L151.009 173.569L151.543 174.388L152.362 173.854ZM156.967 170.852L171.975 193.876L173.613 192.807L158.606 169.784L156.967 170.852ZM172.26 192.522L162.641 198.792L163.709 200.431L173.328 194.161L172.26 192.522ZM163.725 198.803L144.097 185.443L142.996 187.06L162.624 200.42L163.725 198.803ZM143.012 185.432L142.539 185.741L143.607 187.379L144.08 187.071L143.012 185.432ZM142.254 187.094L154.218 205.45L155.857 204.381L143.892 186.026L142.254 187.094ZM154.504 204.096L149.016 207.673L150.084 209.312L155.572 205.735L154.504 204.096ZM150.37 207.958L135.362 184.935L133.723 186.004L148.731 209.027L150.37 207.958ZM135.077 186.289L144.759 179.978L143.691 178.339L134.009 184.65L135.077 186.289ZM143.675 179.967L163.303 193.327L164.404 191.709L144.775 178.35L143.675 179.967ZM164.388 193.337L164.861 193.029L163.793 191.39L163.32 191.699L164.388 193.337ZM165.146 191.676L153.181 173.32L151.543 174.388L163.507 192.744L165.146 191.676ZM152.896 174.674L158.321 171.138L157.253 169.499L151.828 173.035L152.896 174.674Z" fill="#23262D"/>
<path d="M128.777 183.993C131.135 183.208 133.294 182.939 135.254 183.186C137.222 183.457 138.976 184.076 140.515 185.045C142.062 186.038 143.36 187.233 144.407 188.63C145.454 190.028 146.223 191.464 146.715 192.941L146.976 193.727C147.523 195.37 147.796 197.064 147.796 198.81C147.779 200.588 147.437 202.302 146.77 203.953C146.079 205.612 145.026 207.099 143.613 208.416C142.2 209.733 140.374 210.764 138.136 211.509C135.754 212.302 133.496 212.551 131.361 212.257C129.211 211.994 127.306 211.239 125.648 209.993C123.997 208.77 122.724 207.13 121.828 205.074L128.472 202.862C129.154 204.117 130.178 204.966 131.543 205.411C132.915 205.88 134.423 205.841 136.067 205.294C138.138 204.604 139.532 203.387 140.247 201.641C140.938 199.903 140.895 197.867 140.118 195.534C139.341 193.2 138.132 191.552 136.489 190.591C134.846 189.63 132.966 189.503 130.846 190.208C129.179 190.763 127.909 191.636 127.035 192.826C126.138 194.024 125.796 195.341 126.01 196.778L119.366 198.99C118.93 196.966 118.991 194.962 119.547 192.978C120.103 190.994 121.148 189.204 122.68 187.61C124.221 186.039 126.253 184.833 128.777 183.993Z" fill="white"/>
<path d="M128.777 183.993C131.135 183.208 133.294 182.939 135.254 183.186C137.222 183.457 138.976 184.076 140.515 185.045C142.062 186.038 143.36 187.233 144.407 188.63C145.454 190.028 146.223 191.464 146.715 192.941L146.976 193.727C147.523 195.37 147.796 197.064 147.796 198.81C147.779 200.588 147.437 202.302 146.77 203.953C146.079 205.612 145.026 207.099 143.613 208.416C142.2 209.733 140.374 210.764 138.136 211.509C135.754 212.302 133.496 212.551 131.361 212.257C129.211 211.994 127.306 211.239 125.648 209.993C123.997 208.77 122.724 207.13 121.828 205.074L128.472 202.862C129.154 204.117 130.178 204.966 131.543 205.411C132.915 205.88 134.423 205.841 136.067 205.294C138.138 204.604 139.532 203.387 140.247 201.641C140.938 199.903 140.895 197.867 140.118 195.534C139.341 193.2 138.132 191.552 136.489 190.591C134.846 189.63 132.966 189.503 130.846 190.208C129.179 190.763 127.909 191.636 127.035 192.826C126.138 194.024 125.796 195.341 126.01 196.778L119.366 198.99C118.93 196.966 118.991 194.962 119.547 192.978C120.103 190.994 121.148 189.204 122.68 187.61C124.221 186.039 126.253 184.833 128.777 183.993Z" fill="url(#paint5_linear_68:83)"/>
<path d="M135.254 183.186L135.387 182.217L135.376 182.216L135.254 183.186ZM140.515 185.045L141.043 184.222L141.036 184.217L140.515 185.045ZM144.407 188.63L143.624 189.217L143.624 189.217L144.407 188.63ZM147.796 198.81L148.774 198.82L148.774 198.811L147.796 198.81ZM146.77 203.953L147.673 204.329L147.677 204.32L146.77 203.953ZM143.613 208.416L144.28 209.132L143.613 208.416ZM131.361 212.257L131.495 211.288L131.487 211.287L131.48 211.286L131.361 212.257ZM125.648 209.993L126.236 209.211L126.23 209.207L125.648 209.993ZM121.828 205.074L121.519 204.146L120.504 204.484L120.931 205.465L121.828 205.074ZM128.472 202.862L129.331 202.395L128.94 201.676L128.163 201.934L128.472 202.862ZM131.543 205.411L131.859 204.486L131.846 204.481L131.543 205.411ZM140.247 201.641L141.152 202.012L141.156 202.002L140.247 201.641ZM136.489 190.591L135.995 191.436L136.489 190.591ZM127.035 192.826L127.818 193.412L127.824 193.405L127.035 192.826ZM126.01 196.778L126.319 197.706L127.098 197.447L126.978 196.634L126.01 196.778ZM119.366 198.99L118.41 199.196L118.64 200.262L119.675 199.918L119.366 198.99ZM119.547 192.978L120.489 193.242L119.547 192.978ZM122.68 187.61L121.982 186.925L121.975 186.932L122.68 187.61ZM129.086 184.921C131.34 184.171 133.349 183.932 135.132 184.156L135.376 182.216C133.238 181.946 130.93 182.246 128.468 183.065L129.086 184.921ZM135.121 184.155C136.964 184.408 138.583 184.985 139.994 185.873L141.036 184.217C139.369 183.168 137.48 182.505 135.387 182.217L135.121 184.155ZM139.987 185.869C141.441 186.802 142.651 187.918 143.624 189.217L145.189 188.044C144.069 186.548 142.684 185.274 141.043 184.222L139.987 185.869ZM143.624 189.217C144.616 190.54 145.332 191.884 145.786 193.25L147.643 192.632C147.114 191.044 146.292 189.515 145.189 188.044L143.624 189.217ZM145.786 193.25L146.048 194.036L147.904 193.418L147.643 192.632L145.786 193.25ZM146.048 194.036C146.562 195.578 146.818 197.168 146.817 198.81L148.774 198.811C148.774 196.96 148.485 195.161 147.904 193.418L146.048 194.036ZM146.818 198.801C146.802 200.456 146.484 202.049 145.863 203.586L147.677 204.32C148.39 202.556 148.756 200.72 148.774 198.82L146.818 198.801ZM145.867 203.577C145.233 205.097 144.265 206.471 142.946 207.701L144.28 209.132C145.787 207.727 146.924 206.126 147.673 204.329L145.867 203.577ZM142.946 207.701C141.656 208.903 139.961 209.871 137.827 210.581L138.445 212.437C140.787 211.658 142.744 210.563 144.28 209.132L142.946 207.701ZM137.827 210.581C135.564 211.334 133.458 211.559 131.495 211.288L131.228 213.226C133.534 213.544 135.944 213.27 138.445 212.437L137.827 210.581ZM131.48 211.286C129.492 211.043 127.751 210.35 126.236 209.211L125.06 210.774C126.862 212.129 128.93 212.945 131.243 213.228L131.48 211.286ZM126.23 209.207C124.73 208.095 123.559 206.597 122.725 204.683L120.931 205.465C121.889 207.663 123.265 209.444 125.065 210.778L126.23 209.207ZM122.137 206.002L128.781 203.791L128.163 201.934L121.519 204.146L122.137 206.002ZM127.613 203.33C128.415 204.805 129.638 205.819 131.239 206.341L131.846 204.481C130.717 204.113 129.893 203.428 129.331 202.395L127.613 203.33ZM131.226 206.337C132.839 206.888 134.57 206.823 136.375 206.222L135.758 204.366C134.277 204.859 132.992 204.873 131.859 204.486L131.226 206.337ZM136.375 206.222C138.67 205.458 140.311 204.064 141.152 202.012L139.342 201.27C138.752 202.709 137.606 203.751 135.758 204.366L136.375 206.222ZM141.156 202.002C141.956 199.991 141.873 197.707 141.046 195.225L139.19 195.842C139.917 198.027 139.92 199.815 139.338 201.279L141.156 202.002ZM141.046 195.225C140.217 192.733 138.884 190.86 136.983 189.747L135.995 191.436C137.379 192.245 138.466 193.666 139.19 195.842L141.046 195.225ZM136.983 189.747C135.054 188.619 132.873 188.503 130.537 189.28L131.155 191.136C133.058 190.503 134.639 190.642 135.995 191.436L136.983 189.747ZM130.537 189.28C128.715 189.887 127.262 190.865 126.247 192.247L127.824 193.405C128.556 192.407 129.643 191.64 131.155 191.136L130.537 189.28ZM126.253 192.24C125.204 193.64 124.789 195.218 125.043 196.922L126.978 196.634C126.804 195.464 127.072 194.408 127.818 193.412L126.253 192.24ZM125.701 195.85L119.057 198.062L119.675 199.918L126.319 197.706L125.701 195.85ZM120.322 198.784C119.92 196.915 119.976 195.072 120.489 193.242L118.605 192.714C118.006 194.852 117.941 197.017 118.41 199.196L120.322 198.784ZM120.489 193.242C120.999 191.424 121.956 189.775 123.386 188.287L121.975 186.932C120.339 188.634 119.208 190.563 118.605 192.714L120.489 193.242ZM123.379 188.295C124.79 186.855 126.679 185.722 129.086 184.921L128.468 183.065C125.827 183.944 123.651 185.222 121.982 186.925L123.379 188.295Z" fill="#23262D"/>
<path d="M123.465 186.235L125.267 213.658L118.279 214.117L117.586 203.561L107.143 204.247L107.836 214.803L100.849 215.262L99.0473 187.839L106.035 187.38L106.743 198.161L117.186 197.475L116.478 186.694L123.465 186.235Z" fill="white"/>
<path d="M123.465 186.235L125.267 213.658L118.279 214.117L117.586 203.561L107.143 204.247L107.836 214.803L100.849 215.262L99.0473 187.839L106.035 187.38L106.743 198.161L117.186 197.475L116.478 186.694L123.465 186.235Z" fill="url(#paint6_linear_68:83)"/>
<path d="M123.465 186.235L124.441 186.171L124.377 185.195L123.401 185.259L123.465 186.235ZM125.267 213.658L125.331 214.634L126.307 214.57L126.243 213.594L125.267 213.658ZM118.279 214.117L117.303 214.181L117.367 215.157L118.343 215.093L118.279 214.117ZM117.586 203.561L118.562 203.497L118.498 202.521L117.522 202.585L117.586 203.561ZM107.143 204.247L107.078 203.271L106.102 203.335L106.166 204.311L107.143 204.247ZM107.836 214.803L107.9 215.779L108.876 215.715L108.812 214.739L107.836 214.803ZM100.849 215.262L99.8725 215.326L99.9366 216.302L100.913 216.238L100.849 215.262ZM99.0473 187.839L98.9832 186.863L98.0072 186.927L98.0713 187.903L99.0473 187.839ZM106.035 187.38L107.011 187.316L106.947 186.34L105.971 186.404L106.035 187.38ZM106.743 198.161L105.767 198.225L105.831 199.201L106.807 199.137L106.743 198.161ZM117.186 197.475L117.25 198.451L118.226 198.387L118.162 197.411L117.186 197.475ZM116.478 186.694L116.414 185.718L115.438 185.782L115.502 186.758L116.478 186.694ZM122.489 186.299L124.291 213.722L126.243 213.594L124.441 186.171L122.489 186.299ZM125.202 212.682L118.215 213.141L118.343 215.093L125.331 214.634L125.202 212.682ZM119.255 214.053L118.562 203.497L116.61 203.625L117.303 214.181L119.255 214.053ZM117.522 202.585L107.078 203.271L107.207 205.223L117.65 204.537L117.522 202.585ZM106.166 204.311L106.86 214.867L108.812 214.739L108.119 204.183L106.166 204.311ZM107.772 213.827L100.784 214.286L100.913 216.238L107.9 215.779L107.772 213.827ZM101.825 215.198L100.023 187.775L98.0713 187.903L99.8725 215.326L101.825 215.198ZM99.1114 188.815L106.099 188.356L105.971 186.404L98.9832 186.863L99.1114 188.815ZM105.059 187.444L105.767 198.225L107.719 198.097L107.011 187.316L105.059 187.444ZM106.807 199.137L117.25 198.451L117.122 196.499L106.679 197.185L106.807 199.137ZM118.162 197.411L117.454 186.63L115.502 186.758L116.21 197.539L118.162 197.411ZM116.542 187.67L123.53 187.211L123.401 185.259L116.414 185.718L116.542 187.67Z" fill="#23262D"/>
<path d="M102.976 186.672L99.1771 213.89L92.2419 212.922L96.0409 185.704L102.976 186.672Z" fill="white"/>
<path d="M102.976 186.672L99.1771 213.89L92.2419 212.922L96.0409 185.704L102.976 186.672Z" fill="url(#paint7_linear_68:83)"/>
<path d="M102.976 186.672L103.945 186.807L104.08 185.838L103.111 185.703L102.976 186.672ZM99.1771 213.89L99.0418 214.859L100.011 214.994L100.146 214.026L99.1771 213.89ZM92.2419 212.922L91.2732 212.787L91.138 213.756L92.1067 213.891L92.2419 212.922ZM96.0409 185.704L96.1761 184.735L95.2074 184.6L95.0722 185.569L96.0409 185.704ZM102.007 186.537L98.2083 213.755L100.146 214.026L103.945 186.807L102.007 186.537ZM99.3123 212.922L92.3771 211.954L92.1067 213.891L99.0418 214.859L99.3123 212.922ZM93.2106 213.058L97.0096 185.839L95.0722 185.569L91.2732 212.787L93.2106 213.058ZM95.9057 186.673L102.841 187.641L103.111 185.703L96.1761 184.735L95.9057 186.673Z" fill="#23262D"/>
<path d="M92.4688 185.02L84.0839 211.192L77.4154 209.056L83.9395 188.692L74.0443 185.522L75.905 179.713L92.4688 185.02Z" fill="white"/>
<path d="M92.4688 185.02L84.0839 211.192L77.4154 209.056L83.9395 188.692L74.0443 185.522L75.905 179.713L92.4688 185.02Z" fill="url(#paint8_linear_68:83)"/>
<path d="M92.4688 185.02L93.4003 185.318L93.6987 184.387L92.7672 184.089L92.4688 185.02ZM84.0839 211.192L83.7855 212.124L84.7169 212.422L85.0154 211.491L84.0839 211.192ZM77.4154 209.056L76.4839 208.757L76.1855 209.689L77.1169 209.987L77.4154 209.056ZM83.9395 188.692L84.871 188.99L85.1694 188.059L84.2379 187.76L83.9395 188.692ZM74.0443 185.522L73.1128 185.223L72.8144 186.155L73.7459 186.453L74.0443 185.522ZM75.905 179.713L76.2035 178.782L75.272 178.484L74.9736 179.415L75.905 179.713ZM91.5373 184.722L83.1524 210.894L85.0154 211.491L93.4003 185.318L91.5373 184.722ZM84.3823 210.261L77.7138 208.124L77.1169 209.987L83.7855 212.124L84.3823 210.261ZM78.3469 209.354L84.871 188.99L83.008 188.393L76.4839 208.757L78.3469 209.354ZM84.2379 187.76L74.3427 184.59L73.7459 186.453L83.6411 189.623L84.2379 187.76ZM74.9758 185.82L76.8365 180.012L74.9736 179.415L73.1128 185.223L74.9758 185.82ZM75.6066 180.645L92.1703 185.952L92.7672 184.089L76.2035 178.782L75.6066 180.645Z" fill="#23262D"/>
<path d="M79.2037 180.496L65.034 204.482L56.023 199.159C53.8837 197.895 52.1932 196.488 50.9515 194.939C49.6883 193.376 48.8355 191.736 48.3934 190.017C47.9384 188.32 47.8557 186.609 48.1452 184.886C48.4347 183.162 49.0454 181.511 49.9773 179.934L50.3986 179.221C51.2539 177.773 52.3665 176.506 53.7365 175.421C55.0937 174.357 56.6445 173.582 58.3887 173.097C60.1202 172.633 61.9942 172.545 64.0106 172.833C65.9927 173.129 68.0533 173.909 70.1927 175.173L79.2037 180.496ZM59.0955 193.366L62.3368 195.281L69.8429 182.574L66.6016 180.66C64.5487 179.447 62.6113 179.075 60.7895 179.544C58.946 180 57.4434 181.211 56.2818 183.177C55.0563 185.252 54.7142 187.163 55.2556 188.911C55.7626 190.668 57.0426 192.153 59.0955 193.366Z" fill="white"/>
<path d="M79.2037 180.496L65.034 204.482L56.023 199.159C53.8837 197.895 52.1932 196.488 50.9515 194.939C49.6883 193.376 48.8355 191.736 48.3934 190.017C47.9384 188.32 47.8557 186.609 48.1452 184.886C48.4347 183.162 49.0454 181.511 49.9773 179.934L50.3986 179.221C51.2539 177.773 52.3665 176.506 53.7365 175.421C55.0937 174.357 56.6445 173.582 58.3887 173.097C60.1202 172.633 61.9942 172.545 64.0106 172.833C65.9927 173.129 68.0533 173.909 70.1927 175.173L79.2037 180.496ZM59.0955 193.366L62.3368 195.281L69.8429 182.574L66.6016 180.66C64.5487 179.447 62.6113 179.075 60.7895 179.544C58.946 180 57.4434 181.211 56.2818 183.177C55.0563 185.252 54.7142 187.163 55.2556 188.911C55.7626 190.668 57.0426 192.153 59.0955 193.366Z" fill="url(#paint9_linear_68:83)"/>
<path d="M79.2037 180.496L80.0459 180.993L80.5434 180.151L79.7012 179.654L79.2037 180.496ZM65.034 204.482L64.5365 205.324L65.3787 205.822L65.8762 204.98L65.034 204.482ZM50.9515 194.939L51.7149 194.327L51.7122 194.324L50.9515 194.939ZM48.3934 190.017L49.3407 189.773L49.3381 189.764L48.3934 190.017ZM48.1452 184.886L49.1098 185.048L48.1452 184.886ZM53.7365 175.421L53.1331 174.651L53.1291 174.654L53.7365 175.421ZM58.3887 173.097L58.1356 172.152L58.1265 172.155L58.3887 173.097ZM64.0106 172.833L64.1553 171.865L64.1487 171.864L64.0106 172.833ZM62.3368 195.281L61.8393 196.123L62.6815 196.62L63.179 195.778L62.3368 195.281ZM69.8429 182.574L70.6851 183.072L71.1826 182.23L70.3404 181.732L69.8429 182.574ZM60.7895 179.544L61.0243 180.493L61.0332 180.491L60.7895 179.544ZM55.2556 188.911L56.1954 188.64L56.1928 188.631L56.19 188.622L55.2556 188.911ZM78.3616 179.998L64.1919 203.985L65.8762 204.98L80.0459 180.993L78.3616 179.998ZM65.5315 203.64L56.5205 198.317L55.5255 200.001L64.5365 205.324L65.5315 203.64ZM56.5205 198.317C54.4584 197.099 52.8666 195.765 51.7149 194.327L50.1882 195.55C51.5198 197.212 53.3089 198.692 55.5255 200.001L56.5205 198.317ZM51.7122 194.324C50.5253 192.856 49.7436 191.339 49.3406 189.773L47.4461 190.261C47.9275 192.132 48.8512 193.897 50.1909 195.554L51.7122 194.324ZM49.3381 189.764C48.9193 188.201 48.8437 186.632 49.1098 185.048L47.1806 184.724C46.8677 186.586 46.9575 188.438 47.4486 190.27L49.3381 189.764ZM49.1098 185.048C49.3785 183.448 49.9457 181.911 50.8195 180.431L49.1352 179.436C48.1452 181.112 47.491 182.876 47.1806 184.724L49.1098 185.048ZM50.8195 180.431L51.2407 179.718L49.5564 178.723L49.1352 179.436L50.8195 180.431ZM51.2407 179.718C52.0326 178.378 53.0643 177.201 54.3439 176.187L53.1291 174.654C51.6688 175.811 50.4752 177.168 49.5564 178.723L51.2407 179.718ZM54.3399 176.191C55.5908 175.21 57.0244 174.492 58.651 174.039L58.1265 172.155C56.2646 172.673 54.5966 173.504 53.1331 174.651L54.3399 176.191ZM58.6418 174.042C60.2296 173.616 61.969 173.529 63.8725 173.801L64.1487 171.864C62.0194 171.561 60.0109 171.65 58.1357 172.152L58.6418 174.042ZM63.866 173.8C65.6975 174.074 67.6391 174.8 69.6952 176.015L70.6902 174.331C68.4675 173.018 66.2879 172.184 64.1553 171.865L63.866 173.8ZM69.6952 176.015L78.7062 181.338L79.7012 179.654L70.6902 174.331L69.6952 176.015ZM58.598 194.208L61.8393 196.123L62.8343 194.438L59.593 192.524L58.598 194.208ZM63.179 195.778L70.6851 183.072L69.0008 182.077L61.4947 194.783L63.179 195.778ZM70.3404 181.732L67.0991 179.817L66.1041 181.502L69.3454 183.417L70.3404 181.732ZM67.0991 179.817C64.8856 178.51 62.6816 178.047 60.5457 178.596L61.0332 180.491C62.541 180.103 64.2117 180.384 66.1041 181.502L67.0991 179.817ZM60.5546 178.594C58.4057 179.126 56.7058 180.536 55.4396 182.68L57.1239 183.675C58.1811 181.885 59.4863 180.873 61.0243 180.493L60.5546 178.594ZM55.4396 182.68C54.1206 184.912 53.6745 187.112 54.3213 189.201L56.19 188.622C55.7539 187.214 55.9919 185.591 57.1239 183.675L55.4396 182.68ZM54.3158 189.182C54.9111 191.245 56.3976 192.908 58.598 194.208L59.593 192.524C57.6876 191.398 56.6142 190.091 56.1954 188.64L54.3158 189.182Z" fill="#23262D"/>
<path d="M63.2967 170.909L43.7931 190.271L35.7034 182.122L44.8075 160.193L44.4097 159.792L28.8603 175.229L24.2452 170.58L43.7487 151.218L51.8915 159.42L42.7873 181.349L43.1852 181.75L58.7346 166.313L63.2967 170.909Z" fill="white"/>
<path d="M63.2967 170.909L43.7931 190.271L35.7034 182.122L44.8075 160.193L44.4097 159.792L28.8603 175.229L24.2452 170.58L43.7487 151.218L51.8915 159.42L42.7873 181.349L43.1852 181.75L58.7346 166.313L63.2967 170.909Z" fill="url(#paint10_linear_68:83)"/>
<path d="M63.2967 170.909L63.9858 171.603L64.6799 170.914L63.9908 170.22L63.2967 170.909ZM43.7931 190.271L43.099 190.96L43.7881 191.654L44.4823 190.965L43.7931 190.271ZM35.7034 182.122L34.8 181.747L34.5502 182.349L35.0093 182.811L35.7034 182.122ZM44.8075 160.193L45.7109 160.568L45.9607 159.966L45.5017 159.504L44.8075 160.193ZM44.4097 159.792L45.1038 159.103L44.4147 158.409L43.7205 159.098L44.4097 159.792ZM28.8603 175.229L28.1661 175.918L28.8553 176.612L29.5494 175.923L28.8603 175.229ZM24.2452 170.58L23.556 169.886L22.8619 170.575L23.551 171.27L24.2452 170.58ZM43.7487 151.218L44.4428 150.529L43.7537 149.835L43.0596 150.524L43.7487 151.218ZM51.8915 159.42L52.7948 159.795L53.0447 159.194L52.5856 158.731L51.8915 159.42ZM42.7873 181.349L41.884 180.974L41.6341 181.576L42.0932 182.038L42.7873 181.349ZM43.1852 181.75L42.4911 182.439L43.1802 183.133L43.8743 182.444L43.1852 181.75ZM58.7346 166.313L59.4287 165.624L58.7396 164.93L58.0455 165.619L58.7346 166.313ZM62.6075 170.214L43.104 189.577L44.4823 190.965L63.9858 171.603L62.6075 170.214ZM44.4873 189.582L36.3976 181.433L35.0093 182.811L43.099 190.96L44.4873 189.582ZM36.6068 182.497L45.7109 160.568L43.9042 159.818L34.8 181.747L36.6068 182.497ZM45.5017 159.504L45.1038 159.103L43.7155 160.482L44.1134 160.882L45.5017 159.504ZM43.7205 159.098L28.1712 174.535L29.5494 175.923L45.0988 160.487L43.7205 159.098ZM29.5544 174.54L24.9393 169.891L23.551 171.27L28.1661 175.918L29.5544 174.54ZM24.9343 171.275L44.4378 151.912L43.0596 150.524L23.556 169.886L24.9343 171.275ZM43.0545 151.907L51.1973 160.109L52.5856 158.731L44.4428 150.529L43.0545 151.907ZM50.9881 159.045L41.884 180.974L43.6907 181.724L52.7948 159.795L50.9881 159.045ZM42.0932 182.038L42.4911 182.439L43.8793 181.061L43.4815 180.66L42.0932 182.038ZM43.8743 182.444L59.4237 167.007L58.0455 165.619L42.4961 181.056L43.8743 182.444ZM58.0404 167.002L62.6025 171.598L63.9908 170.22L59.4287 165.624L58.0404 167.002Z" fill="#23262D"/>
<path d="M49.7997 156.413L26.3458 170.738L17.5547 156.344L22.4382 153.361L27.5795 161.779L32.1739 158.973L27.2485 150.909L32.132 147.926L37.0574 155.99L46.1498 150.437L49.7997 156.413Z" fill="white"/>
<path d="M49.7997 156.413L26.3458 170.738L17.5547 156.344L22.4382 153.361L27.5795 161.779L32.1739 158.973L27.2485 150.909L32.132 147.926L37.0574 155.99L46.1498 150.437L49.7997 156.413Z" fill="url(#paint11_linear_68:83)"/>
<path d="M49.7997 156.413L50.3095 157.247L51.1443 156.738L50.6344 155.903L49.7997 156.413ZM26.3458 170.738L25.5111 171.247L26.0209 172.082L26.8556 171.572L26.3458 170.738ZM17.5547 156.344L17.0448 155.509L16.2101 156.019L16.7199 156.854L17.5547 156.344ZM22.4382 153.361L23.273 152.851L22.7631 152.017L21.9284 152.526L22.4382 153.361ZM27.5795 161.779L26.7447 162.289L27.2546 163.123L28.0893 162.614L27.5795 161.779ZM32.1739 158.973L32.6837 159.808L33.5184 159.298L33.0086 158.463L32.1739 158.973ZM27.2485 150.909L26.7386 150.074L25.9039 150.584L26.4137 151.418L27.2485 150.909ZM32.132 147.926L32.9668 147.416L32.4569 146.581L31.6222 147.091L32.132 147.926ZM37.0574 155.99L36.2227 156.5L36.7325 157.335L37.5672 156.825L37.0574 155.99ZM46.1498 150.437L46.9846 149.927L46.4747 149.092L45.64 149.602L46.1498 150.437ZM49.2899 155.578L25.836 169.903L26.8556 171.572L50.3095 157.247L49.2899 155.578ZM27.1805 170.228L18.3894 155.834L16.7199 156.854L25.5111 171.247L27.1805 170.228ZM18.0645 157.179L22.9481 154.196L21.9284 152.526L17.0448 155.509L18.0645 157.179ZM21.6035 153.871L26.7447 162.289L28.4142 161.269L23.273 152.851L21.6035 153.871ZM28.0893 162.614L32.6837 159.808L31.664 158.138L27.0696 160.944L28.0893 162.614ZM33.0086 158.463L28.0832 150.399L26.4137 151.418L31.3391 159.483L33.0086 158.463ZM27.7583 151.743L32.6419 148.761L31.6222 147.091L26.7386 150.074L27.7583 151.743ZM31.2973 148.436L36.2227 156.5L37.8922 155.48L32.9668 147.416L31.2973 148.436ZM37.5672 156.825L46.6597 151.272L45.64 149.602L36.5476 155.155L37.5672 156.825ZM45.3151 150.947L48.965 156.923L50.6344 155.903L46.9846 149.927L45.3151 150.947Z" fill="#23262D"/>
<path d="M40.3183 138.128L20.187 145.338L22.726 152.427L16.9843 154.483L9.54524 133.714L15.2869 131.658L17.8258 138.746L37.9571 131.536L40.3183 138.128Z" fill="white"/>
<path d="M40.3183 138.128L20.187 145.338L22.726 152.427L16.9843 154.483L9.54524 133.714L15.2869 131.658L17.8258 138.746L37.9571 131.536L40.3183 138.128Z" fill="url(#paint12_linear_68:83)"/>
<path d="M40.3183 138.128L40.6481 139.049L41.5689 138.719L41.2391 137.798L40.3183 138.128ZM20.187 145.338L19.8572 144.418L18.9364 144.747L19.2662 145.668L20.187 145.338ZM22.726 152.427L23.0558 153.348L23.9767 153.018L23.6468 152.097L22.726 152.427ZM16.9843 154.483L16.0635 154.813L16.3933 155.734L17.3142 155.404L16.9843 154.483ZM9.54524 133.714L9.21542 132.793L8.29458 133.123L8.6244 134.044L9.54524 133.714ZM15.2869 131.658L16.2077 131.328L15.8779 130.407L14.9571 130.737L15.2869 131.658ZM17.8258 138.746L16.905 139.076L17.2348 139.997L18.1557 139.667L17.8258 138.746ZM37.9571 131.536L38.8779 131.206L38.5481 130.285L37.6272 130.615L37.9571 131.536ZM39.9885 137.207L19.8572 144.418L20.5169 146.259L40.6481 139.049L39.9885 137.207ZM19.2662 145.668L21.8052 152.757L23.6468 152.097L21.1079 145.009L19.2662 145.668ZM22.3962 151.506L16.6545 153.563L17.3142 155.404L23.0558 153.348L22.3962 151.506ZM17.9052 154.154L10.4661 133.384L8.6244 134.044L16.0635 154.813L17.9052 154.154ZM9.87507 134.635L15.6167 132.579L14.9571 130.737L9.21542 132.793L9.87507 134.635ZM14.3661 131.988L16.905 139.076L18.7467 138.416L16.2077 131.328L14.3661 131.988ZM18.1557 139.667L38.2869 132.456L37.6272 130.615L17.496 137.825L18.1557 139.667ZM37.0362 131.865L39.3974 138.458L41.2391 137.798L38.8779 131.206L37.0362 131.865Z" fill="#23262D"/>
<path d="M36.398 110.827L8.63808 107.711L9.83918 97.0112C10.1976 93.8187 11.1481 91.4251 12.691 89.8304C14.2089 88.2329 16.2024 87.5727 18.6716 87.8499L19.2328 87.9129C20.43 88.0473 21.4274 88.3865 22.225 88.9307C23.0254 89.4499 23.6566 90.1269 24.1185 90.9616C24.7932 89.9009 25.6519 89.1133 26.6946 88.599C27.7401 88.0597 28.9987 87.8726 30.4702 88.0378L30.994 88.0966C33.4881 88.3766 35.3231 89.4665 36.4989 91.3664C37.6775 93.2414 38.0848 95.8 37.7209 99.0424L36.398 110.827ZM15.1853 97.3083L14.7066 101.573L20.5803 102.233L21.059 97.9676C21.1738 96.945 21.007 96.1813 20.5586 95.6763C20.088 95.1436 19.3913 94.8255 18.4685 94.7219C17.5207 94.6155 16.7708 94.7713 16.2188 95.1892C15.6446 95.5793 15.3001 96.2857 15.1853 97.3083ZM26.3353 97.5371L25.7432 102.812L31.8414 103.497L32.4335 98.2216C32.6603 96.2014 31.7511 95.0764 29.7059 94.8468C27.6856 94.6201 26.5621 95.5168 26.3353 97.5371Z" fill="white"/>
<path d="M36.398 110.827L8.63808 107.711L9.83918 97.0112C10.1976 93.8187 11.1481 91.4251 12.691 89.8304C14.2089 88.2329 16.2024 87.5727 18.6716 87.8499L19.2328 87.9129C20.43 88.0473 21.4274 88.3865 22.225 88.9307C23.0254 89.4499 23.6566 90.1269 24.1185 90.9616C24.7932 89.9009 25.6519 89.1133 26.6946 88.599C27.7401 88.0597 28.9987 87.8726 30.4702 88.0378L30.994 88.0966C33.4881 88.3766 35.3231 89.4665 36.4989 91.3664C37.6775 93.2414 38.0848 95.8 37.7209 99.0424L36.398 110.827ZM15.1853 97.3083L14.7066 101.573L20.5803 102.233L21.059 97.9676C21.1738 96.945 21.007 96.1813 20.5586 95.6763C20.088 95.1436 19.3913 94.8255 18.4685 94.7219C17.5207 94.6155 16.7708 94.7713 16.2188 95.1892C15.6446 95.5793 15.3001 96.2857 15.1853 97.3083ZM26.3353 97.5371L25.7432 102.812L31.8414 103.497L32.4335 98.2216C32.6603 96.2014 31.7511 95.0764 29.7059 94.8468C27.6856 94.6201 26.5621 95.5168 26.3353 97.5371Z" fill="url(#paint13_linear_68:83)"/>
<path d="M36.398 110.827L36.2888 111.799L37.2609 111.908L37.37 110.936L36.398 110.827ZM8.63808 107.711L7.66606 107.602L7.55694 108.574L8.52896 108.683L8.63808 107.711ZM12.691 89.8304L13.394 90.5105L13.4001 90.5041L12.691 89.8304ZM22.225 88.9307L21.6738 89.7387L21.6832 89.7451L21.6927 89.7513L22.225 88.9307ZM24.1185 90.9616L23.2627 91.4352L24.06 92.8762L24.9438 91.4866L24.1185 90.9616ZM26.6946 88.599L27.1273 89.4762L27.1352 89.4723L27.143 89.4683L26.6946 88.599ZM36.4989 91.3664L35.6672 91.8812L35.6708 91.887L36.4989 91.3664ZM14.7066 101.573L13.7345 101.464L13.6254 102.436L14.5974 102.545L14.7066 101.573ZM20.5803 102.233L20.4712 103.205L21.4432 103.314L21.5523 102.342L20.5803 102.233ZM20.5586 95.6763L19.8255 96.3239L19.8272 96.3258L20.5586 95.6763ZM16.2188 95.1892L16.7685 95.9982L16.7892 95.9841L16.8091 95.969L16.2188 95.1892ZM25.7432 102.812L24.7711 102.703L24.662 103.675L25.634 103.784L25.7432 102.812ZM31.8414 103.497L31.7322 104.469L32.7043 104.578L32.8134 103.606L31.8414 103.497ZM36.5071 109.855L8.74719 106.739L8.52896 108.683L36.2888 111.799L36.5071 109.855ZM9.6101 107.82L10.8112 97.1204L8.86716 96.9021L7.66606 107.602L9.6101 107.82ZM10.8112 97.1204C11.1559 94.0497 12.0556 91.8938 13.394 90.5105L11.988 89.1503C10.2407 90.9564 9.23921 93.5878 8.86716 96.9021L10.8112 97.1204ZM13.4001 90.5041C14.678 89.1592 16.3533 88.5739 18.5625 88.8219L18.7807 86.8779C16.0515 86.5715 13.7398 87.3066 11.9819 89.1567L13.4001 90.5041ZM18.5625 88.8219L19.1237 88.8849L19.3419 86.9409L18.7807 86.8779L18.5625 88.8219ZM19.1237 88.8849C20.2009 89.0058 21.0367 89.304 21.6738 89.7387L22.7762 88.1227C21.8181 87.469 20.6591 87.0887 19.3419 86.9409L19.1237 88.8849ZM21.6927 89.7513C22.3584 90.1831 22.8785 90.7409 23.2627 91.4352L24.9743 90.4881C24.4347 89.5128 23.6924 88.7166 22.7573 88.1101L21.6927 89.7513ZM24.9438 91.4866C25.5305 90.5642 26.2583 89.9049 27.1273 89.4762L26.2619 87.7218C25.0455 88.3218 24.0559 89.2375 23.2932 90.4367L24.9438 91.4866ZM27.143 89.4683C27.9773 89.0379 29.0318 88.8606 30.3611 89.0098L30.5793 87.0658C28.9655 86.8846 27.5029 87.0815 26.2462 87.7297L27.143 89.4683ZM30.3611 89.0098L30.8849 89.0686L31.1031 87.1246L30.5793 87.0658L30.3611 89.0098ZM30.8849 89.0686C33.1226 89.3198 34.6702 90.2703 35.6672 91.8812L37.3306 90.8517C35.976 88.6628 33.8537 87.4334 31.1031 87.1246L30.8849 89.0686ZM35.6708 91.887C36.6871 93.5037 37.0994 95.8106 36.7488 98.9333L38.6929 99.1515C39.0703 95.7895 38.6679 92.979 37.327 90.8459L35.6708 91.887ZM36.7488 98.9333L35.4259 110.718L37.37 110.936L38.6929 99.1515L36.7488 98.9333ZM14.2133 97.1992L13.7345 101.464L15.6786 101.682L16.1573 97.4174L14.2133 97.1992ZM14.5974 102.545L20.4712 103.205L20.6894 101.261L14.8157 100.601L14.5974 102.545ZM21.5523 102.342L22.0311 98.0768L20.087 97.8585L19.6083 102.124L21.5523 102.342ZM22.0311 98.0768C22.1606 96.9227 22.0007 95.8272 21.2899 95.0268L19.8272 96.3258C20.0133 96.5354 20.1871 96.9674 20.087 97.8585L22.0311 98.0768ZM21.2916 95.0287C20.6163 94.2643 19.6657 93.872 18.5776 93.7499L18.3593 95.6939C19.1169 95.779 19.5597 96.023 19.8255 96.3239L21.2916 95.0287ZM18.5776 93.7499C17.4759 93.6262 16.4455 93.7907 15.6284 94.4093L16.8091 95.969C17.096 95.7519 17.5654 95.6048 18.3593 95.6939L18.5776 93.7499ZM15.669 94.3801C14.7632 94.9956 14.3443 96.0321 14.2133 97.1992L16.1573 97.4174C16.2559 96.5393 16.5259 96.163 16.7685 95.9982L15.669 94.3801ZM25.3633 97.428L24.7711 102.703L26.7152 102.921L27.3073 97.6462L25.3633 97.428ZM25.634 103.784L31.7322 104.469L31.9505 102.525L25.8523 101.84L25.634 103.784ZM32.8134 103.606L33.4055 98.3307L31.4615 98.1125L30.8693 103.388L32.8134 103.606ZM33.4055 98.3307C33.5361 97.1677 33.3586 96.0844 32.6824 95.2479C32.0082 94.4137 30.9844 94.0061 29.815 93.8748L29.5968 95.8189C30.4725 95.9172 30.926 96.1868 31.161 96.4776C31.394 96.7659 31.5577 97.2552 31.4615 98.1125L33.4055 98.3307ZM29.815 93.8748C28.655 93.7446 27.5739 93.9176 26.7379 94.5848C25.9019 95.2521 25.4935 96.268 25.3633 97.428L27.3073 97.6462C27.4039 96.7859 27.6707 96.3433 27.9582 96.1138C28.2457 95.8843 28.7365 95.7223 29.5968 95.8189L29.815 93.8748Z" fill="#23262D"/>
<path d="M38.3181 94.1563L12.2326 84.813L16.0791 74.074C17.2893 70.6951 18.9975 68.3078 21.2037 66.9119C23.3862 65.5076 25.9306 65.3259 28.8369 66.3669L29.404 66.57C31.2706 67.2386 32.6938 68.2149 33.6735 69.4989C34.6532 70.7829 35.1988 72.3113 35.3103 74.0841L46.6204 70.977L43.9038 78.5617L34.0859 80.9635L32.7402 84.7204L40.6793 87.564L38.3181 94.1563ZM21.7477 75.6645L20.1228 80.2011L27.672 82.9051L29.2969 78.3685C29.7116 77.2107 29.7109 76.1707 29.2947 75.2485C28.8634 74.2942 28.0688 73.6097 26.9111 73.1951C25.7533 72.7804 24.7048 72.8047 23.7657 73.2681C22.8351 73.7079 22.1624 74.5067 21.7477 75.6645Z" fill="white"/>
<path d="M38.3181 94.1563L12.2326 84.813L16.0791 74.074C17.2893 70.6951 18.9975 68.3078 21.2037 66.9119C23.3862 65.5076 25.9306 65.3259 28.8369 66.3669L29.404 66.57C31.2706 67.2386 32.6938 68.2149 33.6735 69.4989C34.6532 70.7829 35.1988 72.3113 35.3103 74.0841L46.6204 70.977L43.9038 78.5617L34.0859 80.9635L32.7402 84.7204L40.6793 87.564L38.3181 94.1563ZM21.7477 75.6645L20.1228 80.2011L27.672 82.9051L29.2969 78.3685C29.7116 77.2107 29.7109 76.1707 29.2947 75.2485C28.8634 74.2942 28.0688 73.6097 26.9111 73.1951C25.7533 72.7804 24.7048 72.8047 23.7657 73.2681C22.8351 73.7079 22.1624 74.5067 21.7477 75.6645Z" fill="url(#paint14_linear_68:83)"/>
<path d="M38.3181 94.1563L37.9883 95.0771L38.9091 95.407L39.2389 94.4861L38.3181 94.1563ZM12.2326 84.813L11.3117 84.4832L10.9819 85.404L11.9027 85.7338L12.2326 84.813ZM21.2037 66.9119L21.7267 67.7385L21.7329 67.7345L21.2037 66.9119ZM33.6735 69.4989L34.4511 68.9055L34.4511 68.9055L33.6735 69.4989ZM35.3103 74.0841L34.3341 74.1454L34.4096 75.3458L35.5694 75.0272L35.3103 74.0841ZM46.6204 70.977L47.5413 71.3069L48.1758 69.5354L46.3613 70.0338L46.6204 70.977ZM43.9038 78.5617L44.1362 79.5118L44.6472 79.3868L44.8246 78.8915L43.9038 78.5617ZM34.0859 80.9635L33.8534 80.0134L33.3424 80.1384L33.165 80.6337L34.0859 80.9635ZM32.7402 84.7204L31.8194 84.3906L31.4896 85.3114L32.4104 85.6413L32.7402 84.7204ZM40.6793 87.564L41.6002 87.8939L41.93 86.973L41.0091 86.6432L40.6793 87.564ZM20.1228 80.2011L19.2019 79.8713L18.8721 80.7921L19.7929 81.1219L20.1228 80.2011ZM27.672 82.9051L27.3422 83.8259L28.263 84.1557L28.5928 83.2349L27.672 82.9051ZM29.2947 75.2485L30.1863 74.8462L30.186 74.8456L29.2947 75.2485ZM23.7657 73.2681L24.1836 74.1525L24.1911 74.1489L24.1985 74.1453L23.7657 73.2681ZM38.6479 93.2355L12.5624 83.8922L11.9027 85.7338L37.9883 95.0771L38.6479 93.2355ZM13.1534 85.1428L16.9999 74.4038L15.1582 73.7442L11.3117 84.4832L13.1534 85.1428ZM16.9999 74.4038C18.1638 71.1543 19.763 68.9809 21.7267 67.7385L20.6807 66.0853C18.232 67.6346 16.4148 70.236 15.1582 73.7442L16.9999 74.4038ZM21.7329 67.7345C23.6101 66.5266 25.8261 66.3274 28.5071 67.2877L29.1667 65.446C26.0352 64.3244 23.1623 64.4885 20.6744 66.0894L21.7329 67.7345ZM28.5071 67.2877L29.0742 67.4908L29.7338 65.6491L29.1667 65.446L28.5071 67.2877ZM29.0742 67.4908C30.8037 68.1103 32.0543 68.9893 32.8959 70.0922L34.4511 68.9055C33.3332 67.4404 31.7375 66.3668 29.7338 65.6491L29.0742 67.4908ZM32.8959 70.0922C33.7466 71.2072 34.2335 72.5456 34.3341 74.1454L36.2865 74.0227C36.1641 72.0769 35.5598 70.3585 34.4511 68.9055L32.8959 70.0922ZM35.5694 75.0272L46.8795 71.9202L46.3613 70.0338L35.0512 73.1409L35.5694 75.0272ZM45.6996 70.6472L42.9829 78.2319L44.8246 78.8915L47.5413 71.3069L45.6996 70.6472ZM43.6713 77.6116L33.8534 80.0134L34.3183 81.9136L44.1362 79.5118L43.6713 77.6116ZM33.165 80.6337L31.8194 84.3906L33.6611 85.0502L35.0067 81.2934L33.165 80.6337ZM32.4104 85.6413L40.3495 88.4849L41.0091 86.6432L33.0701 83.7996L32.4104 85.6413ZM39.7585 87.2342L37.3973 93.8265L39.2389 94.4861L41.6002 87.8939L39.7585 87.2342ZM20.8269 75.3347L19.2019 79.8713L21.0436 80.5309L22.6685 75.9943L20.8269 75.3347ZM19.7929 81.1219L27.3422 83.8259L28.0018 81.9842L20.4526 79.2803L19.7929 81.1219ZM28.5928 83.2349L30.2177 78.6983L28.3761 78.0386L26.7511 82.5752L28.5928 83.2349ZM30.2177 78.6983C30.6984 77.3564 30.7283 76.0473 30.1863 74.8462L28.4032 75.6508C28.6934 76.2941 28.7248 77.065 28.3761 78.0386L30.2177 78.6983ZM30.186 74.8456C29.6264 73.6076 28.6011 72.7614 27.2409 72.2742L26.5812 74.1159C27.5365 74.4581 28.1003 74.9808 28.4034 75.6514L30.186 74.8456ZM27.2409 72.2742C25.8806 71.787 24.5512 71.7898 23.3329 72.391L24.1985 74.1453C24.8584 73.8197 25.6259 73.7737 26.5812 74.1159L27.2409 72.2742ZM23.3478 72.3838C22.1378 72.9556 21.3108 73.9836 20.8269 75.3347L22.6685 75.9943C23.014 75.0298 23.5323 74.4603 24.1836 74.1525L23.3478 72.3838Z" fill="#23262D"/>
<path d="M43.2216 79.6134L25.2562 57.0272L31.4854 47.6966L59.4009 55.3789L55.3874 61.3906L48.988 59.5174L42.9051 68.6288L47.1096 73.7896L43.2216 79.6134ZM39.1074 64.0111L43.2254 57.8429L33.4228 54.9651L32.6494 56.1236L39.1074 64.0111Z" fill="white"/>
<path d="M43.2216 79.6134L25.2562 57.0272L31.4854 47.6966L59.4009 55.3789L55.3874 61.3906L48.988 59.5174L42.9051 68.6288L47.1096 73.7896L43.2216 79.6134ZM39.1074 64.0111L43.2254 57.8429L33.4228 54.9651L32.6494 56.1236L39.1074 64.0111Z" fill="url(#paint15_linear_68:83)"/>
<path d="M43.2216 79.6134L42.4561 80.2223L43.2907 81.2715L44.0351 80.1565L43.2216 79.6134ZM25.2562 57.0272L24.4427 56.4841L24.0465 57.0776L24.4907 57.636L25.2562 57.0272ZM31.4854 47.6966L31.745 46.7535L31.0641 46.5661L30.6719 47.1535L31.4854 47.6966ZM59.4009 55.3789L60.2144 55.922L60.9666 54.7953L59.6604 54.4359L59.4009 55.3789ZM55.3874 61.3906L55.1126 62.3293L55.802 62.5311L56.2009 61.9337L55.3874 61.3906ZM48.988 59.5174L49.2628 58.5786L48.5734 58.3768L48.1745 58.9743L48.988 59.5174ZM42.9051 68.6288L42.0916 68.0857L41.6905 68.6865L42.1468 69.2466L42.9051 68.6288ZM47.1096 73.7896L47.9231 74.3327L48.3242 73.7319L47.8679 73.1718L47.1096 73.7896ZM39.1074 64.0111L38.3506 64.6308L39.1875 65.6529L39.9209 64.5542L39.1074 64.0111ZM43.2254 57.8429L44.0389 58.386L44.7778 57.2793L43.5009 56.9044L43.2254 57.8429ZM33.4228 54.9651L33.6983 54.0266L33.0085 53.8241L32.6093 54.422L33.4228 54.9651ZM32.6494 56.1236L31.8359 55.5805L31.4337 56.1829L31.8925 56.7433L32.6494 56.1236ZM43.9871 79.0045L26.0217 56.4183L24.4907 57.636L42.4561 80.2223L43.9871 79.0045ZM26.0697 57.5703L32.2989 48.2397L30.6719 47.1535L24.4427 56.4841L26.0697 57.5703ZM31.2259 48.6396L59.1413 56.322L59.6604 54.4359L31.745 46.7535L31.2259 48.6396ZM58.5874 54.8358L54.5739 60.8475L56.2009 61.9337L60.2144 55.922L58.5874 54.8358ZM55.6622 60.4518L49.2628 58.5786L48.7132 60.4561L55.1126 62.3293L55.6622 60.4518ZM48.1745 58.9743L42.0916 68.0857L43.7186 69.1719L49.8015 60.0605L48.1745 58.9743ZM42.1468 69.2466L46.3513 74.4074L47.8679 73.1718L43.6634 68.011L42.1468 69.2466ZM46.2961 73.2465L42.4081 79.0703L44.0351 80.1565L47.9231 74.3327L46.2961 73.2465ZM39.9209 64.5542L44.0389 58.386L42.4119 57.2998L38.2939 63.468L39.9209 64.5542ZM43.5009 56.9044L33.6983 54.0266L33.1473 55.9036L42.9499 58.7815L43.5009 56.9044ZM32.6093 54.422L31.8359 55.5805L33.4628 56.6667L34.2363 55.5082L32.6093 54.422ZM31.8925 56.7433L38.3506 64.6308L39.8642 63.3915L33.4062 55.5039L31.8925 56.7433Z" fill="#23262D"/>
<path d="M55.9979 61.9317L36.6356 42.4281L41.605 37.4947L60.9673 56.9982L55.9979 61.9317Z" fill="white"/>
<path d="M55.9979 61.9317L36.6356 42.4281L41.605 37.4947L60.9673 56.9982L55.9979 61.9317Z" fill="url(#paint16_linear_68:83)"/>
<path d="M55.9979 61.9317L55.3038 62.6208L55.9929 63.3149L56.6871 62.6258L55.9979 61.9317ZM36.6356 42.4281L35.9465 41.734L35.2524 42.4231L35.9415 43.1173L36.6356 42.4281ZM41.605 37.4947L42.2992 36.8056L41.6101 36.1115L40.9159 36.8006L41.605 37.4947ZM60.9673 56.9982L61.6565 57.6924L62.3506 57.0033L61.6615 56.3091L60.9673 56.9982ZM56.6921 61.2425L37.3298 41.739L35.9415 43.1173L55.3038 62.6208L56.6921 61.2425ZM37.3248 43.1223L42.2941 38.1889L40.9159 36.8006L35.9465 41.734L37.3248 43.1223ZM40.9109 38.1839L60.2732 57.6874L61.6615 56.3091L42.2992 36.8056L40.9109 38.1839ZM60.2782 56.3041L55.3088 61.2375L56.6871 62.6258L61.6565 57.6924L60.2782 56.3041Z" fill="#23262D"/>
<path d="M63.2132 54.538L48.2058 31.5148L57.8251 25.2446L77.4537 38.6045L77.9268 38.2961L65.9621 19.9407L71.4498 16.3636L86.4571 39.3867L76.7748 45.698L57.1461 32.3382L56.6731 32.6466L68.6378 51.002L63.2132 54.538Z" fill="white"/>
<path d="M63.2132 54.538L48.2058 31.5148L57.8251 25.2446L77.4537 38.6045L77.9268 38.2961L65.9621 19.9407L71.4498 16.3636L86.4571 39.3867L76.7748 45.698L57.1461 32.3382L56.6731 32.6466L68.6378 51.002L63.2132 54.538Z" fill="url(#paint17_linear_68:83)"/>
<path d="M63.2132 54.538L62.3938 55.0721L62.9279 55.8915L63.7473 55.3574L63.2132 54.538ZM48.2058 31.5148L47.6717 30.6954L46.8523 31.2295L47.3864 32.0489L48.2058 31.5148ZM57.8251 25.2446L58.3755 24.436L57.8368 24.0694L57.291 24.4252L57.8251 25.2446ZM77.4537 38.6045L76.9034 39.4131L77.442 39.7797L77.9879 39.4239L77.4537 38.6045ZM77.9268 38.2961L78.4609 39.1155L79.2803 38.5814L78.7462 37.762L77.9268 38.2961ZM65.9621 19.9407L65.4279 19.1213L64.6085 19.6554L65.1426 20.4748L65.9621 19.9407ZM71.4498 16.3636L72.2692 15.8295L71.7351 15.01L70.9157 15.5442L71.4498 16.3636ZM86.4571 39.3867L86.9912 40.2062L87.8106 39.672L87.2765 38.8526L86.4571 39.3867ZM76.7748 45.698L76.2244 46.5066L76.763 46.8733L77.3089 46.5175L76.7748 45.698ZM57.1461 32.3382L57.6965 31.5296L57.1579 31.163L56.612 31.5188L57.1461 32.3382ZM56.6731 32.6466L56.1389 31.8271L55.3195 32.3613L55.8536 33.1807L56.6731 32.6466ZM68.6378 51.002L69.1719 51.8214L69.9914 51.2873L69.4572 50.4679L68.6378 51.002ZM64.0326 54.0039L49.0253 30.9807L47.3864 32.0489L62.3938 55.0721L64.0326 54.0039ZM48.74 32.3342L58.3592 26.0641L57.291 24.4252L47.6717 30.6954L48.74 32.3342ZM57.2748 26.0532L76.9034 39.4131L78.0041 37.7959L58.3755 24.436L57.2748 26.0532ZM77.9879 39.4239L78.4609 39.1155L77.3927 37.4767L76.9196 37.7851L77.9879 39.4239ZM78.7462 37.762L66.7815 19.4066L65.1426 20.4748L77.1074 38.8302L78.7462 37.762ZM66.4962 20.7601L71.9839 17.183L70.9157 15.5442L65.4279 19.1213L66.4962 20.7601ZM70.6304 16.8977L85.6377 39.9209L87.2765 38.8526L72.2692 15.8295L70.6304 16.8977ZM85.923 38.5673L76.2406 44.8786L77.3089 46.5175L86.9912 40.2062L85.923 38.5673ZM77.3251 44.8894L57.6965 31.5296L56.5958 33.1468L76.2244 46.5066L77.3251 44.8894ZM56.612 31.5188L56.1389 31.8271L57.2072 33.466L57.6803 33.1576L56.612 31.5188ZM55.8536 33.1807L67.8184 51.5361L69.4572 50.4679L57.4925 32.1124L55.8536 33.1807ZM68.1037 50.1826L62.6791 53.7186L63.7473 55.3574L69.1719 51.8214L68.1037 50.1826Z" fill="#23262D"/>
<path d="M92.223 40.8631C89.8655 41.6479 87.7066 41.9169 85.7463 41.6701C83.7781 41.3994 82.0243 40.7797 80.485 39.8108C78.9377 38.8181 77.6405 37.6231 76.5934 36.2258C75.5463 34.8286 74.777 33.3917 74.2855 31.9153L74.0239 31.1295C73.4769 29.4863 73.2038 27.7917 73.2045 26.0457C73.221 24.2678 73.563 22.5536 74.2303 20.9031C74.9215 19.2446 75.9737 17.7568 77.3869 16.4399C78.8002 15.1229 80.626 14.0919 82.8645 13.3467C85.2458 12.554 87.5039 12.3049 89.6388 12.5994C91.7895 12.8621 93.694 13.6169 95.3523 14.8636C97.0027 16.0865 98.2759 17.7259 99.1719 19.7819L92.528 21.9936C91.8459 20.7393 90.8224 19.8897 89.4575 19.4447C88.0846 18.9759 86.5766 19.015 84.9335 19.562C82.8618 20.2517 81.4684 21.4694 80.7534 23.2152C80.0622 24.9531 80.1051 26.9889 80.882 29.3226C81.6588 31.6563 82.8685 33.3036 84.5111 34.2646C86.1536 35.2256 88.0345 35.3533 90.1539 34.6478C91.8209 34.0929 93.0911 33.2203 93.9646 32.0302C94.8619 30.8321 95.2037 29.5147 94.99 28.0781L101.634 25.8663C102.07 27.8904 102.009 29.8944 101.453 31.8783C100.897 33.8623 99.8522 35.6516 98.3198 37.2463C96.7795 38.8172 94.7472 40.0228 92.223 40.8631Z" fill="white"/>
<path d="M92.223 40.8631C89.8655 41.6479 87.7066 41.9169 85.7463 41.6701C83.7781 41.3994 82.0243 40.7797 80.485 39.8108C78.9377 38.8181 77.6405 37.6231 76.5934 36.2258C75.5463 34.8286 74.777 33.3917 74.2855 31.9153L74.0239 31.1295C73.4769 29.4863 73.2038 27.7917 73.2045 26.0457C73.221 24.2678 73.563 22.5536 74.2303 20.9031C74.9215 19.2446 75.9737 17.7568 77.3869 16.4399C78.8002 15.1229 80.626 14.0919 82.8645 13.3467C85.2458 12.554 87.5039 12.3049 89.6388 12.5994C91.7895 12.8621 93.694 13.6169 95.3523 14.8636C97.0027 16.0865 98.2759 17.7259 99.1719 19.7819L92.528 21.9936C91.8459 20.7393 90.8224 19.8897 89.4575 19.4447C88.0846 18.9759 86.5766 19.015 84.9335 19.562C82.8618 20.2517 81.4684 21.4694 80.7534 23.2152C80.0622 24.9531 80.1051 26.9889 80.882 29.3226C81.6588 31.6563 82.8685 33.3036 84.5111 34.2646C86.1536 35.2256 88.0345 35.3533 90.1539 34.6478C91.8209 34.0929 93.0911 33.2203 93.9646 32.0302C94.8619 30.8321 95.2037 29.5147 94.99 28.0781L101.634 25.8663C102.07 27.8904 102.009 29.8944 101.453 31.8783C100.897 33.8623 99.8522 35.6516 98.3198 37.2463C96.7795 38.8172 94.7472 40.0228 92.223 40.8631Z" fill="url(#paint18_linear_68:83)"/>
<path d="M85.7463 41.6701L85.613 42.6391L85.6241 42.6405L85.7463 41.6701ZM80.485 39.8108L79.9568 40.6341L79.9639 40.6386L80.485 39.8108ZM76.5934 36.2258L77.3761 35.6393L77.3761 35.6393L76.5934 36.2258ZM73.2045 26.0457L72.2263 26.0365L72.2263 26.0453L73.2045 26.0457ZM74.2303 20.9031L73.3274 20.5268L73.3235 20.5364L74.2303 20.9031ZM77.3869 16.4399L76.7201 15.7243L77.3869 16.4399ZM89.6388 12.5994L89.5051 13.5683L89.5126 13.5693L89.5201 13.5703L89.6388 12.5994ZM95.3523 14.8636L94.7645 15.6454L94.77 15.6495L95.3523 14.8636ZM99.1719 19.7819L99.4809 20.7099L100.496 20.372L100.069 19.3911L99.1719 19.7819ZM92.528 21.9936L91.6687 22.4609L92.06 23.1803L92.837 22.9217L92.528 21.9936ZM89.4575 19.4447L89.1414 20.3704L89.1543 20.3747L89.4575 19.4447ZM80.7534 23.2152L79.8482 22.8445L79.8445 22.8537L80.7534 23.2152ZM84.5111 34.2646L85.005 33.4204L84.5111 34.2646ZM93.9646 32.0302L93.1817 31.4438L93.1761 31.4514L93.9646 32.0302ZM94.99 28.0781L94.681 27.15L93.9016 27.4095L94.0225 28.222L94.99 28.0781ZM101.634 25.8663L102.59 25.6605L102.36 24.5936L101.325 24.9383L101.634 25.8663ZM101.453 31.8783L100.511 31.6142L101.453 31.8783ZM98.3198 37.2463L99.0182 37.9312L99.0251 37.924L98.3198 37.2463ZM91.914 39.935C89.6605 40.6852 87.6513 40.9241 85.8685 40.6996L85.6241 42.6405C87.7619 42.9097 90.0704 42.6105 92.5319 41.7911L91.914 39.935ZM85.8795 40.7011C84.0363 40.4476 82.4171 39.8712 81.006 38.983L79.9639 40.6386C81.6315 41.6882 83.5199 42.3513 85.613 42.6391L85.8795 40.7011ZM81.0131 38.9876C79.5589 38.0546 78.3496 36.9382 77.3761 35.6393L75.8107 36.8124C76.9315 38.308 78.3165 39.5817 79.9568 40.6341L81.0131 38.9876ZM77.3761 35.6393C76.3845 34.316 75.6681 32.9717 75.2136 31.6063L73.3575 32.2242C73.8859 33.8118 74.7081 35.3412 75.8107 36.8124L77.3761 35.6393ZM75.2136 31.6063L74.952 30.8205L73.0959 31.4384L73.3575 32.2242L75.2136 31.6063ZM74.952 30.8205C74.4385 29.278 74.1819 27.6879 74.1826 26.046L72.2263 26.0453C72.2256 27.8956 72.5154 29.6947 73.0959 31.4384L74.952 30.8205ZM74.1825 26.0548C74.198 24.3997 74.5157 22.8068 75.1371 21.2697L73.3235 20.5364C72.6103 22.3005 72.2441 24.136 72.2264 26.0365L74.1825 26.0548ZM75.1332 21.2793C75.7668 19.7589 76.7347 18.3847 78.0537 17.1555L76.7201 15.7243C75.2127 17.129 74.0761 18.7302 73.3274 20.5268L75.1332 21.2793ZM78.0537 17.1555C79.3442 15.953 81.0393 14.9852 83.1734 14.2748L82.5555 12.4187C80.2128 13.1986 78.2561 14.2929 76.7201 15.7243L78.0537 17.1555ZM83.1734 14.2748C85.4357 13.5217 87.5416 13.2974 89.5051 13.5683L89.7724 11.6304C87.4662 11.3123 85.0559 11.5863 82.5555 12.4187L83.1734 14.2748ZM89.5201 13.5703C91.5085 13.8132 93.2496 14.5064 94.7645 15.6454L95.9401 14.0818C94.1385 12.7273 92.0705 11.911 89.7574 11.6285L89.5201 13.5703ZM94.77 15.6495C96.2704 16.7612 97.4411 18.2588 98.2753 20.1727L100.069 19.3911C99.1106 17.193 97.735 15.4117 95.9347 14.0777L94.77 15.6495ZM98.863 18.8538L92.2191 21.0656L92.837 22.9217L99.4809 20.7099L98.863 18.8538ZM93.3873 21.5263C92.5851 20.0511 91.3618 19.0368 89.7607 18.5148L89.1543 20.3747C90.283 20.7427 91.1068 21.4276 91.6687 22.4609L93.3873 21.5263ZM89.7736 18.5191C88.1612 17.9685 86.4301 18.0329 84.6246 18.6339L85.2425 20.49C86.7232 19.9971 88.0081 19.9833 89.1414 20.3704L89.7736 18.5191ZM84.6246 18.6339C82.3296 19.3979 80.6888 20.7921 79.8482 22.8445L81.6585 23.5859C82.248 22.1467 83.3939 21.1054 85.2425 20.49L84.6246 18.6339ZM79.8445 22.8537C79.0444 24.8655 79.1274 27.1489 79.9539 29.6315L81.81 29.0136C81.0827 26.8289 81.08 25.0407 81.6623 23.5767L79.8445 22.8537ZM79.9539 29.6315C80.7833 32.1229 82.1157 33.9964 84.0171 35.1089L85.005 33.4204C83.6214 32.6108 82.5344 31.1896 81.81 29.0136L79.9539 29.6315ZM84.0171 35.1089C85.9457 36.2372 88.1274 36.3533 90.4629 35.5758L89.845 33.7197C87.9417 34.3533 86.3615 34.214 85.005 33.4204L84.0171 35.1089ZM90.4629 35.5758C92.2846 34.9694 93.7384 33.9915 94.7531 32.6089L93.1761 31.4514C92.4438 32.4492 91.3571 33.2163 89.845 33.7197L90.4629 35.5758ZM94.7475 32.6165C95.796 31.2166 96.2109 29.6378 95.9575 27.9342L94.0225 28.222C94.1965 29.3916 93.9278 30.4476 93.1817 31.4438L94.7475 32.6165ZM95.2989 29.0061L101.943 26.7944L101.325 24.9383L94.681 27.15L95.2989 29.0061ZM100.678 26.0722C101.08 27.9415 101.024 29.7842 100.511 31.6142L102.395 32.1424C102.994 30.0046 103.059 27.8392 102.59 25.6605L100.678 26.0722ZM100.511 31.6142C100.002 33.4316 99.0436 35.0814 97.6145 36.5686L99.0251 37.924C100.661 36.2219 101.792 34.293 102.395 32.1424L100.511 31.6142ZM97.6214 36.5615C96.2102 38.0007 94.3214 39.1336 91.914 39.935L92.5319 41.7911C95.1729 40.9119 97.3487 39.6337 99.0182 37.9311L97.6214 36.5615Z" fill="#23262D"/>
<path d="M97.5346 38.6212L95.7335 11.1979L102.721 10.7389L103.414 21.2951L113.858 20.6091L113.164 10.053L120.152 9.59407L121.953 37.0174L114.965 37.4764L114.257 26.6949L103.814 27.3808L104.522 38.1623L97.5346 38.6212Z" fill="white"/>
<path d="M97.5346 38.6212L95.7335 11.1979L102.721 10.7389L103.414 21.2951L113.858 20.6091L113.164 10.053L120.152 9.59407L121.953 37.0174L114.965 37.4764L114.257 26.6949L103.814 27.3808L104.522 38.1623L97.5346 38.6212Z" fill="url(#paint19_linear_68:83)"/>
<path d="M97.5346 38.6212L96.5586 38.6853L96.6227 39.6614L97.5987 39.5973L97.5346 38.6212ZM95.7335 11.1979L95.6694 10.2218L94.6933 10.2859L94.7574 11.262L95.7335 11.1979ZM102.721 10.7389L103.697 10.6748L103.633 9.69881L102.657 9.76291L102.721 10.7389ZM103.414 21.2951L102.438 21.3592L102.502 22.3352L103.478 22.2711L103.414 21.2951ZM113.858 20.6091L113.922 21.5851L114.898 21.521L114.834 20.545L113.858 20.6091ZM113.164 10.053L113.1 9.07698L112.124 9.14109L112.188 10.1171L113.164 10.053ZM120.152 9.59407L121.128 9.52997L121.063 8.55394L120.087 8.61805L120.152 9.59407ZM121.953 37.0174L122.017 37.9935L122.993 37.9294L122.929 36.9533L121.953 37.0174ZM114.965 37.4764L113.989 37.5405L114.053 38.5165L115.029 38.4524L114.965 37.4764ZM114.257 26.6949L115.233 26.6308L115.169 25.6547L114.193 25.7188L114.257 26.6949ZM103.814 27.3808L103.75 26.4048L102.774 26.4689L102.838 27.4449L103.814 27.3808ZM104.522 38.1623L104.586 39.1383L105.562 39.0742L105.498 38.0982L104.522 38.1623ZM98.5107 38.5571L96.7095 11.1338L94.7574 11.262L96.5586 38.6853L98.5107 38.5571ZM95.7976 12.1739L102.785 11.715L102.657 9.76291L95.6694 10.2218L95.7976 12.1739ZM101.745 10.803L102.438 21.3592L104.39 21.2309L103.697 10.6748L101.745 10.803ZM103.478 22.2711L113.922 21.5851L113.793 19.6331L103.35 20.319L103.478 22.2711ZM114.834 20.545L114.14 9.9889L112.188 10.1171L112.882 20.6732L114.834 20.545ZM113.228 11.029L120.216 10.5701L120.087 8.61805L113.1 9.07698L113.228 11.029ZM119.176 9.65818L120.977 37.0816L122.929 36.9533L121.128 9.52997L119.176 9.65818ZM121.889 36.0414L114.901 36.5004L115.029 38.4524L122.017 37.9935L121.889 36.0414ZM115.941 37.4123L115.233 26.6308L113.281 26.759L113.989 37.5405L115.941 37.4123ZM114.193 25.7188L103.75 26.4048L103.878 28.3568L114.321 27.6709L114.193 25.7188ZM102.838 27.4449L103.546 38.2264L105.498 38.0982L104.79 27.3167L102.838 27.4449ZM104.458 37.1863L97.4705 37.6452L97.5987 39.5973L104.586 39.1383L104.458 37.1863Z" fill="#23262D"/>
<path d="M118.024 38.1843L121.823 10.9657L128.758 11.9336L124.959 39.1523L118.024 38.1843Z" fill="white"/>
<path d="M118.024 38.1843L121.823 10.9657L128.758 11.9336L124.959 39.1523L118.024 38.1843Z" fill="url(#paint20_linear_68:83)"/>
<path d="M118.024 38.1843L117.055 38.0491L116.92 39.0178L117.889 39.153L118.024 38.1843ZM121.823 10.9657L121.958 9.99694L120.989 9.86173L120.854 10.8305L121.823 10.9657ZM128.758 11.9336L129.727 12.0688L129.862 11.1001L128.893 10.9649L128.758 11.9336ZM124.959 39.1523L124.824 40.121L125.793 40.2562L125.928 39.2875L124.959 39.1523ZM118.993 38.3195L122.792 11.1009L120.854 10.8305L117.055 38.0491L118.993 38.3195ZM121.688 11.9344L128.623 12.9024L128.893 10.9649L121.958 9.99694L121.688 11.9344ZM127.789 11.7984L123.99 39.0171L125.928 39.2875L129.727 12.0688L127.789 11.7984ZM125.094 38.1835L118.159 37.2156L117.889 39.153L124.824 40.121L125.094 38.1835Z" fill="#23262D"/>
<path d="M128.531 39.8362L136.916 13.664L143.585 15.8005L137.06 36.1645L146.956 39.3347L145.095 45.1427L128.531 39.8362Z" fill="white"/>
<path d="M128.531 39.8362L136.916 13.664L143.585 15.8005L137.06 36.1645L146.956 39.3347L145.095 45.1427L128.531 39.8362Z" fill="url(#paint21_linear_68:83)"/>
<path d="M128.531 39.8362L127.6 39.5377L127.301 40.4692L128.233 40.7676L128.531 39.8362ZM136.916 13.664L137.214 12.7325L136.283 12.4341L135.985 13.3656L136.916 13.664ZM143.585 15.8005L144.516 16.0989L144.814 15.1674L143.883 14.869L143.585 15.8005ZM137.06 36.1645L136.129 35.8661L135.83 36.7976L136.762 37.096L137.06 36.1645ZM146.956 39.3347L147.887 39.6331L148.186 38.7016L147.254 38.4032L146.956 39.3347ZM145.095 45.1428L144.796 46.0742L145.728 46.3727L146.026 45.4412L145.095 45.1428ZM129.463 40.1346L137.847 13.9625L135.985 13.3656L127.6 39.5377L129.463 40.1346ZM136.618 14.5955L143.286 16.7319L143.883 14.869L137.214 12.7325L136.618 14.5955ZM142.653 15.502L136.129 35.8661L137.992 36.4629L144.516 16.0989L142.653 15.502ZM136.762 37.096L146.657 40.2662L147.254 38.4032L137.359 35.233L136.762 37.096ZM146.024 39.0363L144.163 44.8443L146.026 45.4412L147.887 39.6331L146.024 39.0363ZM145.393 44.2113L128.83 38.9047L128.233 40.7676L144.796 46.0742L145.393 44.2113Z" fill="#23262D"/>
<path d="M141.796 44.3602L155.966 20.374L164.977 25.6972C167.116 26.961 168.807 28.3677 170.049 29.9174C171.312 31.4799 172.165 33.1205 172.607 34.8392C173.062 36.5364 173.144 38.2468 172.855 39.9705C172.565 41.6943 171.955 43.3449 171.023 44.9223L170.602 45.6355C169.746 47.0833 168.634 48.3499 167.264 49.4354C165.906 50.4992 164.356 51.2739 162.611 51.7593C160.88 52.2231 159.006 52.3112 156.99 52.0237C155.007 51.7273 152.947 50.9472 150.807 49.6834L141.796 44.3602ZM161.905 31.4904L158.663 29.5756L151.157 42.2818L154.399 44.1966C156.451 45.4093 158.389 45.7813 160.211 45.3126C162.054 44.8567 163.557 43.6455 164.718 41.679C165.944 39.6045 166.286 37.6932 165.745 35.945C165.237 34.188 163.958 32.7031 161.905 31.4904Z" fill="white"/>
<path d="M141.796 44.3602L155.966 20.374L164.977 25.6972C167.116 26.961 168.807 28.3677 170.049 29.9174C171.312 31.4799 172.165 33.1205 172.607 34.8392C173.062 36.5364 173.144 38.2468 172.855 39.9705C172.565 41.6943 171.955 43.3449 171.023 44.9223L170.602 45.6355C169.746 47.0833 168.634 48.3499 167.264 49.4354C165.906 50.4992 164.356 51.2739 162.611 51.7593C160.88 52.2231 159.006 52.3112 156.99 52.0237C155.007 51.7273 152.947 50.9472 150.807 49.6834L141.796 44.3602ZM161.905 31.4904L158.663 29.5756L151.157 42.2818L154.399 44.1966C156.451 45.4093 158.389 45.7813 160.211 45.3126C162.054 44.8567 163.557 43.6455 164.718 41.679C165.944 39.6045 166.286 37.6932 165.745 35.945C165.237 34.188 163.958 32.7031 161.905 31.4904Z" fill="url(#paint22_linear_68:83)"/>
<path d="M141.796 44.3602L140.954 43.8627L140.457 44.7049L141.299 45.2024L141.796 44.3602ZM155.966 20.374L156.464 19.5318L155.621 19.0343L155.124 19.8765L155.966 20.374ZM170.049 29.9174L169.285 30.529L169.288 30.5324L170.049 29.9174ZM172.607 34.8392L171.659 35.083L171.662 35.0925L172.607 34.8392ZM172.855 39.9705L171.89 39.8085L172.855 39.9705ZM167.264 49.4354L167.867 50.2052L167.871 50.202L167.264 49.4354ZM162.611 51.7593L162.864 52.7041L162.874 52.7016L162.611 51.7593ZM156.99 52.0237L156.845 52.9911L156.851 52.992L156.99 52.0237ZM158.663 29.5756L159.161 28.7334L158.319 28.2359L157.821 29.0781L158.663 29.5756ZM151.157 42.2818L150.315 41.7843L149.818 42.6265L150.66 43.124L151.157 42.2818ZM160.211 45.3126L159.976 44.3631L159.967 44.3653L160.211 45.3126ZM165.745 35.945L164.805 36.2162L164.807 36.2253L164.81 36.2344L165.745 35.945ZM142.639 44.8577L156.808 20.8715L155.124 19.8765L140.954 43.8627L142.639 44.8577ZM155.469 21.2161L164.48 26.5393L165.475 24.855L156.464 19.5318L155.469 21.2161ZM164.48 26.5393C166.542 27.7575 168.134 29.0915 169.285 30.529L170.812 29.3058C169.48 27.6439 167.691 26.1644 165.475 24.855L164.48 26.5393ZM169.288 30.5324C170.475 32.0003 171.257 33.5168 171.659 35.0829L173.554 34.5955C173.073 32.7242 172.149 30.9595 170.809 29.3025L169.288 30.5324ZM171.662 35.0925C172.081 36.655 172.156 38.2238 171.89 39.8085L173.82 40.1325C174.132 38.2698 174.043 36.4178 173.552 34.586L171.662 35.0925ZM171.89 39.8085C171.622 41.4082 171.054 42.9457 170.181 44.4249L171.865 45.4198C172.855 43.7441 173.509 41.9803 173.82 40.1325L171.89 39.8085ZM170.181 44.4249L169.759 45.138L171.444 46.1329L171.865 45.4198L170.181 44.4249ZM169.759 45.138C168.968 46.4784 167.936 47.6548 166.656 48.6687L167.871 50.202C169.331 49.045 170.525 47.6882 171.444 46.1329L169.759 45.138ZM166.66 48.6656C165.409 49.6461 163.976 50.3643 162.349 50.8169L162.874 52.7016C164.736 52.1834 166.404 51.3524 167.867 50.2052L166.66 48.6656ZM162.358 50.8144C160.771 51.2398 159.031 51.3268 157.128 51.0553L156.851 52.992C158.981 53.2956 160.989 53.2064 162.864 52.7041L162.358 50.8144ZM157.134 51.0563C155.303 50.7824 153.361 50.0559 151.305 48.8413L150.31 50.5256C152.533 51.8386 154.712 52.6722 156.845 52.991L157.134 51.0563ZM151.305 48.8413L142.294 43.5181L141.299 45.2024L150.31 50.5256L151.305 48.8413ZM162.402 30.6482L159.161 28.7334L158.166 30.4177L161.407 32.3325L162.402 30.6482ZM157.821 29.0781L150.315 41.7843L151.999 42.7793L159.505 30.0731L157.821 29.0781ZM150.66 43.124L153.901 45.0388L154.896 43.3545L151.655 41.4396L150.66 43.124ZM153.901 45.0388C156.114 46.3463 158.319 46.8094 160.454 46.2599L159.967 44.3653C158.459 44.7533 156.788 44.4723 154.896 43.3545L153.901 45.0388ZM160.446 46.2621C162.594 45.7306 164.294 44.3199 165.561 42.1765L163.876 41.1815C162.819 42.9711 161.514 43.9827 159.976 44.3631L160.446 46.2621ZM165.561 42.1765C166.88 39.9438 167.326 37.7441 166.679 35.6557L164.81 36.2344C165.246 37.6423 165.008 39.2653 163.876 41.1815L165.561 42.1765ZM166.684 35.6738C166.089 33.6111 164.603 31.9481 162.402 30.6482L161.407 32.3325C163.313 33.4581 164.386 34.7648 164.805 36.2162L166.684 35.6738Z" fill="#23262D"/>
<path d="M157.703 53.9474L177.207 34.5851L185.297 42.7339L176.193 64.6629L176.59 65.0637L192.14 49.6269L196.755 54.2757L177.251 73.638L169.109 65.4358L178.213 43.5067L177.815 43.106L162.265 58.5428L157.703 53.9474Z" fill="white"/>
<path d="M157.703 53.9474L177.207 34.5851L185.297 42.7339L176.193 64.6629L176.59 65.0637L192.14 49.6269L196.755 54.2757L177.251 73.638L169.109 65.4358L178.213 43.5067L177.815 43.106L162.265 58.5428L157.703 53.9474Z" fill="url(#paint23_linear_68:83)"/>
<path d="M157.703 53.9474L157.014 53.2533L156.32 53.9424L157.009 54.6366L157.703 53.9474ZM177.207 34.5851L177.901 33.896L177.212 33.2019L176.518 33.891L177.207 34.5851ZM185.297 42.7339L186.2 43.1089L186.45 42.5071L185.991 42.0447L185.297 42.7339ZM176.193 64.6629L175.289 64.2879L175.039 64.8896L175.498 65.352L176.193 64.6629ZM176.59 65.0637L175.896 65.7528L176.585 66.4469L177.28 65.7578L176.59 65.0637ZM192.14 49.6269L192.834 48.9378L192.145 48.2436L191.451 48.9327L192.14 49.6269ZM196.755 54.2757L197.444 54.9698L198.138 54.2807L197.449 53.5865L196.755 54.2757ZM177.251 73.638L176.557 74.3271L177.246 75.0212L177.941 74.3321L177.251 73.638ZM169.109 65.4358L168.205 65.0608L167.955 65.6625L168.414 66.1249L169.109 65.4358ZM178.213 43.5067L179.116 43.8818L179.366 43.28L178.907 42.8176L178.213 43.5067ZM177.815 43.106L178.509 42.4169L177.82 41.7227L177.126 42.4118L177.815 43.106ZM162.265 58.5428L161.571 59.2319L162.26 59.9261L162.955 59.2369L162.265 58.5428ZM158.393 54.6416L177.896 35.2793L176.518 33.891L157.014 53.2533L158.393 54.6416ZM176.513 35.2743L184.603 43.423L185.991 42.0447L177.901 33.896L176.513 35.2743ZM184.393 42.3588L175.289 64.2879L177.096 65.038L186.2 43.1089L184.393 42.3588ZM175.498 65.352L175.896 65.7528L177.285 64.3746L176.887 63.9738L175.498 65.352ZM177.28 65.7578L192.829 50.321L191.451 48.9327L175.901 64.3695L177.28 65.7578ZM191.446 50.316L196.061 54.9648L197.449 53.5865L192.834 48.9378L191.446 50.316ZM196.066 53.5815L176.562 72.9438L177.941 74.3321L197.444 54.9698L196.066 53.5815ZM177.946 72.9488L169.803 64.7467L168.414 66.1249L176.557 74.3271L177.946 72.9488ZM170.012 65.8108L179.116 43.8818L177.309 43.1317L168.205 65.0608L170.012 65.8108ZM178.907 42.8176L178.509 42.4169L177.121 43.7951L177.519 44.1959L178.907 42.8176ZM177.126 42.4118L161.576 57.8486L162.955 59.2369L178.504 43.8001L177.126 42.4118ZM162.96 57.8537L158.398 53.2583L157.009 54.6366L161.571 59.2319L162.96 57.8537Z" fill="#23262D"/>
<path d="M171.2 68.4434L194.654 54.1185L203.445 68.5122L198.562 71.4949L193.421 63.0772L188.826 65.8833L193.752 73.9476L188.868 76.9303L183.943 68.866L174.85 74.4193L171.2 68.4434Z" fill="white"/>
<path d="M171.2 68.4434L194.654 54.1185L203.445 68.5122L198.562 71.4949L193.421 63.0772L188.826 65.8833L193.752 73.9476L188.868 76.9303L183.943 68.866L174.85 74.4193L171.2 68.4434Z" fill="url(#paint24_linear_68:83)"/>
<path d="M171.2 68.4434L170.691 67.6086L169.856 68.1185L170.366 68.9532L171.2 68.4434ZM194.654 54.1185L195.489 53.6087L194.979 52.774L194.144 53.2838L194.654 54.1185ZM203.445 68.5122L203.955 69.3469L204.79 68.8371L204.28 68.0023L203.445 68.5122ZM198.562 71.4949L197.727 72.0047L198.237 72.8395L199.072 72.3296L198.562 71.4949ZM193.421 63.0772L194.255 62.5673L193.746 61.7326L192.911 62.2424L193.421 63.0772ZM188.826 65.8833L188.316 65.0485L187.482 65.5584L187.992 66.3931L188.826 65.8833ZM193.752 73.9476L194.261 74.7823L195.096 74.2725L194.586 73.4377L193.752 73.9476ZM188.868 76.9303L188.033 77.4401L188.543 78.2748L189.378 77.765L188.868 76.9303ZM183.943 68.866L184.777 68.3561L184.268 67.5214L183.433 68.0312L183.943 68.866ZM174.85 74.4193L174.016 74.9291L174.525 75.7639L175.36 75.254L174.85 74.4193ZM171.71 69.2781L195.164 54.9533L194.144 53.2838L170.691 67.6086L171.71 69.2781ZM193.82 54.6284L202.611 69.022L204.28 68.0023L195.489 53.6087L193.82 54.6284ZM202.936 67.6774L198.052 70.6601L199.072 72.3296L203.955 69.3469L202.936 67.6774ZM199.397 70.985L194.255 62.5673L192.586 63.587L197.727 72.0047L199.397 70.985ZM192.911 62.2424L188.316 65.0485L189.336 66.718L193.93 63.9119L192.911 62.2424ZM187.992 66.3931L192.917 74.4574L194.586 73.4377L189.661 65.3734L187.992 66.3931ZM193.242 73.1128L188.358 76.0955L189.378 77.765L194.261 74.7823L193.242 73.1128ZM189.703 76.4204L184.777 68.3561L183.108 69.3758L188.033 77.4401L189.703 76.4204ZM183.433 68.0312L174.34 73.5846L175.36 75.254L184.453 69.7007L183.433 68.0312ZM175.685 73.9095L172.035 67.9335L170.366 68.9532L174.016 74.9291L175.685 73.9095Z" fill="#23262D"/>
<path d="M180.682 86.7282L200.813 79.5176L198.274 72.4291L204.016 70.3726L211.455 91.1418L205.713 93.1983L203.174 86.1099L183.043 93.3205L180.682 86.7282Z" fill="white"/>
<path d="M180.682 86.7282L200.813 79.5176L198.274 72.4291L204.016 70.3726L211.455 91.1418L205.713 93.1983L203.174 86.1099L183.043 93.3205L180.682 86.7282Z" fill="url(#paint25_linear_68:83)"/>
<path d="M180.682 86.7282L180.352 85.8074L179.431 86.1372L179.761 87.058L180.682 86.7282ZM200.813 79.5176L201.143 80.4384L202.063 80.1086L201.734 79.1878L200.813 79.5176ZM198.274 72.4291L197.944 71.5083L197.023 71.8381L197.353 72.759L198.274 72.4291ZM204.016 70.3726L204.936 70.0428L204.607 69.1219L203.686 69.4518L204.016 70.3726ZM211.455 91.1418L211.784 92.0626L212.705 91.7328L212.375 90.812L211.455 91.1418ZM205.713 93.1983L204.792 93.5282L205.122 94.449L206.043 94.1192L205.713 93.1983ZM203.174 86.1099L204.095 85.78L203.765 84.8592L202.844 85.189L203.174 86.1099ZM183.043 93.3205L182.122 93.6503L182.452 94.5711L183.373 94.2413L183.043 93.3205ZM181.011 87.649L201.143 80.4384L200.483 78.5968L180.352 85.8074L181.011 87.649ZM201.734 79.1878L199.195 72.0993L197.353 72.759L199.892 79.8474L201.734 79.1878ZM198.604 73.35L204.345 71.2934L203.686 69.4518L197.944 71.5083L198.604 73.35ZM203.095 70.7024L210.534 91.4716L212.375 90.812L204.936 70.0428L203.095 70.7024ZM211.125 90.221L205.383 92.2775L206.043 94.1192L211.784 92.0626L211.125 90.221ZM206.634 92.8685L204.095 85.78L202.253 86.4397L204.792 93.5282L206.634 92.8685ZM202.844 85.189L182.713 92.3996L183.373 94.2413L203.504 87.0307L202.844 85.189ZM183.964 92.9906L181.602 86.3984L179.761 87.058L182.122 93.6503L183.964 92.9906Z" fill="#23262D"/>
<defs>
<linearGradient id="paint0_linear_68:83" x1="210.158" y1="114.094" x2="206.974" y2="140.411" gradientUnits="userSpaceOnUse">
<stop offset="0.267495" stop-color="#FFC6CE"/>
<stop offset="1" stop-color="#64D6EE"/>
</linearGradient>
<linearGradient id="paint1_linear_68:83" x1="207.324" y1="136.567" x2="197.824" y2="162.364" gradientUnits="userSpaceOnUse">
<stop offset="0.267495" stop-color="#FFC6CE"/>
<stop offset="1" stop-color="#64D6EE"/>
</linearGradient>
<linearGradient id="paint2_linear_68:83" x1="198.886" y1="158.972" x2="182.298" y2="183.311" gradientUnits="userSpaceOnUse">
<stop offset="0.267495" stop-color="#FFC6CE"/>
<stop offset="1" stop-color="#64D6EE"/>
</linearGradient>
<linearGradient id="paint3_linear_68:83" x1="184.771" y1="178.777" x2="175.676" y2="187.732" gradientUnits="userSpaceOnUse">
<stop offset="0.267495" stop-color="#FFC6CE"/>
<stop offset="1" stop-color="#64D6EE"/>
</linearGradient>
<linearGradient id="paint4_linear_68:83" x1="173.869" y1="189.889" x2="145.709" y2="207.813" gradientUnits="userSpaceOnUse">
<stop offset="0.267495" stop-color="#FFC6CE"/>
<stop offset="1" stop-color="#64D6EE"/>
</linearGradient>
<linearGradient id="paint5_linear_68:83" x1="151.791" y1="203.661" x2="122.82" y2="212.988" gradientUnits="userSpaceOnUse">
<stop offset="0.267495" stop-color="#FFC6CE"/>
<stop offset="1" stop-color="#64D6EE"/>
</linearGradient>
<linearGradient id="paint6_linear_68:83" x1="127.895" y1="211.176" x2="97.5068" y2="212.87" gradientUnits="userSpaceOnUse">
<stop offset="0.267495" stop-color="#FFC6CE"/>
<stop offset="1" stop-color="#64D6EE"/>
</linearGradient>
<linearGradient id="paint7_linear_68:83" x1="102.329" y1="212.003" x2="89.6954" y2="210.186" gradientUnits="userSpaceOnUse">
<stop offset="0.267495" stop-color="#FFC6CE"/>
<stop offset="1" stop-color="#64D6EE"/>
</linearGradient>
<linearGradient id="paint8_linear_68:83" x1="87.4401" y1="209.847" x2="66.9166" y2="203.113" gradientUnits="userSpaceOnUse">
<stop offset="0.267495" stop-color="#FFC6CE"/>
<stop offset="1" stop-color="#64D6EE"/>
</linearGradient>
<linearGradient id="paint9_linear_68:83" x1="68.7198" y1="203.72" x2="43.5047" y2="188.497" gradientUnits="userSpaceOnUse">
<stop offset="0.267495" stop-color="#FFC6CE"/>
<stop offset="1" stop-color="#64D6EE"/>
</linearGradient>
<linearGradient id="paint10_linear_68:83" x1="47.3916" y1="190.624" x2="24.132" y2="166.681" gradientUnits="userSpaceOnUse">
<stop offset="0.267495" stop-color="#FFC6CE"/>
<stop offset="1" stop-color="#64D6EE"/>
</linearGradient>
<linearGradient id="paint11_linear_68:83" x1="29.7649" y1="171.914" x2="18.6358" y2="153.401" gradientUnits="userSpaceOnUse">
<stop offset="0.267495" stop-color="#FFC6CE"/>
<stop offset="1" stop-color="#64D6EE"/>
</linearGradient>
<linearGradient id="paint12_linear_68:83" x1="19.4081" y1="154.415" x2="11.6325" y2="132.171" gradientUnits="userSpaceOnUse">
<stop offset="0.267495" stop-color="#FFC6CE"/>
<stop offset="1" stop-color="#64D6EE"/>
</linearGradient>
<linearGradient id="paint13_linear_68:83" x1="10.8422" y1="110.762" x2="14.0263" y2="84.4449" gradientUnits="userSpaceOnUse">
<stop offset="0.267495" stop-color="#FFC6CE"/>
<stop offset="1" stop-color="#64D6EE"/>
</linearGradient>
<linearGradient id="paint14_linear_68:83" x1="13.6756" y1="88.2891" x2="23.1765" y2="62.4923" gradientUnits="userSpaceOnUse">
<stop offset="0.267495" stop-color="#FFC6CE"/>
<stop offset="1" stop-color="#64D6EE"/>
</linearGradient>
<linearGradient id="paint15_linear_68:83" x1="22.1145" y1="65.8841" x2="38.7026" y2="41.5452" gradientUnits="userSpaceOnUse">
<stop offset="0.267495" stop-color="#FFC6CE"/>
<stop offset="1" stop-color="#64D6EE"/>
</linearGradient>
<linearGradient id="paint16_linear_68:83" x1="36.229" y1="46.0796" x2="45.3244" y2="37.1247" gradientUnits="userSpaceOnUse">
<stop offset="0.267495" stop-color="#FFC6CE"/>
<stop offset="1" stop-color="#64D6EE"/>
</linearGradient>
<linearGradient id="paint17_linear_68:83" x1="47.1306" y1="34.967" x2="75.2913" y2="17.0432" gradientUnits="userSpaceOnUse">
<stop offset="0.267495" stop-color="#FFC6CE"/>
<stop offset="1" stop-color="#64D6EE"/>
</linearGradient>
<linearGradient id="paint18_linear_68:83" x1="69.2089" y1="21.1947" x2="98.1804" y2="11.8676" gradientUnits="userSpaceOnUse">
<stop offset="0.267495" stop-color="#FFC6CE"/>
<stop offset="1" stop-color="#64D6EE"/>
</linearGradient>
<linearGradient id="paint19_linear_68:83" x1="93.1046" y1="13.6803" x2="123.493" y2="11.9862" gradientUnits="userSpaceOnUse">
<stop offset="0.267495" stop-color="#FFC6CE"/>
<stop offset="1" stop-color="#64D6EE"/>
</linearGradient>
<linearGradient id="paint20_linear_68:83" x1="118.671" y1="12.8529" x2="131.305" y2="14.6697" gradientUnits="userSpaceOnUse">
<stop offset="0.267495" stop-color="#FFC6CE"/>
<stop offset="1" stop-color="#64D6EE"/>
</linearGradient>
<linearGradient id="paint21_linear_68:83" x1="133.56" y1="15.009" x2="154.083" y2="21.7435" gradientUnits="userSpaceOnUse">
<stop offset="0.267495" stop-color="#FFC6CE"/>
<stop offset="1" stop-color="#64D6EE"/>
</linearGradient>
<linearGradient id="paint22_linear_68:83" x1="152.28" y1="21.1359" x2="177.495" y2="36.3591" gradientUnits="userSpaceOnUse">
<stop offset="0.267495" stop-color="#FFC6CE"/>
<stop offset="1" stop-color="#64D6EE"/>
</linearGradient>
<linearGradient id="paint23_linear_68:83" x1="173.608" y1="34.2319" x2="196.868" y2="58.1752" gradientUnits="userSpaceOnUse">
<stop offset="0.267495" stop-color="#FFC6CE"/>
<stop offset="1" stop-color="#64D6EE"/>
</linearGradient>
<linearGradient id="paint24_linear_68:83" x1="191.235" y1="52.9424" x2="202.364" y2="71.4549" gradientUnits="userSpaceOnUse">
<stop offset="0.267495" stop-color="#FFC6CE"/>
<stop offset="1" stop-color="#64D6EE"/>
</linearGradient>
<linearGradient id="paint25_linear_68:83" x1="201.592" y1="70.4409" x2="209.367" y2="92.6848" gradientUnits="userSpaceOnUse">
<stop offset="0.267495" stop-color="#FFC6CE"/>
<stop offset="1" stop-color="#64D6EE"/>
</linearGradient>
</defs>
</svg>
