<svg width="280" height="85" viewBox="0 0 280 85" fill="none" xmlns="http://www.w3.org/2000/svg">
<path d="M1.968 19V1.48H12.816V4.744H5.808V8.464H12.432V11.728H5.808V15.736H12.984V19H1.968ZM14.538 19L18.402 12.328L14.682 5.848H18.834L21.21 10.312H21.594L23.826 5.848H27.738L24.258 12.232L28.482 19H24.306L21.474 14.224H21.09L18.426 19H14.538ZM36.0154 19.456C34.8794 19.456 33.8874 19.272 33.0394 18.904C32.2074 18.52 31.5114 18.008 30.9514 17.368C30.3914 16.728 29.9754 16.008 29.7034 15.208C29.4314 14.392 29.2954 13.552 29.2954 12.688V12.232C29.2954 11.032 29.5434 9.912 30.0394 8.872C30.5514 7.832 31.3034 6.992 32.2954 6.352C33.3034 5.712 34.5354 5.392 35.9914 5.392C37.1754 5.392 38.2234 5.624 39.1354 6.088C40.0474 6.536 40.7754 7.168 41.3194 7.984C41.8634 8.8 42.1674 9.736 42.2314 10.792H38.4634C38.3994 10.2 38.1594 9.704 37.7434 9.304C37.3274 8.888 36.7434 8.68 35.9914 8.68C35.0154 8.68 34.2954 9.032 33.8314 9.736C33.3674 10.424 33.1354 11.336 33.1354 12.472C33.1354 13.544 33.3514 14.432 33.7834 15.136C34.2314 15.824 34.9754 16.168 36.0154 16.168C36.7834 16.168 37.3834 15.968 37.8154 15.568C38.2474 15.168 38.5034 14.64 38.5834 13.984H42.3274C42.2634 15.072 41.9514 16.032 41.3914 16.864C40.8474 17.68 40.1034 18.32 39.1594 18.784C38.2314 19.232 37.1834 19.456 36.0154 19.456ZM44.9513 19V4.312H43.3913V1.48H48.8153V19H44.9513ZM56.7936 19.408C55.2736 19.408 54.1056 18.92 53.2896 17.944C52.4736 16.968 52.0656 15.48 52.0656 13.48V5.848H55.9056V13.672C55.9056 14.376 56.1056 14.936 56.5056 15.352C56.9056 15.768 57.4416 15.976 58.1136 15.976C58.8016 15.976 59.3616 15.76 59.7936 15.328C60.2256 14.896 60.4416 14.312 60.4416 13.576V5.848H64.2816V19H61.2336V15.928C60.6896 18.248 59.2656 19.408 56.9616 19.408H56.7936ZM72.8143 19.408C70.9423 19.408 69.4783 19.024 68.4223 18.256C67.3663 17.488 66.8063 16.408 66.7423 15.016H70.1503C70.1983 15.432 70.4463 15.808 70.8943 16.144C71.3423 16.464 72.0063 16.624 72.8863 16.624C73.5423 16.624 74.0943 16.512 74.5423 16.288C74.9903 16.064 75.2143 15.728 75.2143 15.28C75.2143 14.896 75.0463 14.592 74.7103 14.368C74.3743 14.128 73.7743 13.96 72.9103 13.864L71.8783 13.768C70.2943 13.592 69.1023 13.152 68.3023 12.448C67.5183 11.744 67.1263 10.824 67.1263 9.688C67.1263 8.76 67.3583 7.984 67.8223 7.36C68.3023 6.736 68.9503 6.264 69.7663 5.944C70.5823 5.624 71.5183 5.464 72.5743 5.464C74.2703 5.464 75.6303 5.84 76.6543 6.592C77.6943 7.328 78.2463 8.4 78.3103 9.808H74.9023C74.8383 9.392 74.6063 9.032 74.2063 8.728C73.8223 8.424 73.2623 8.272 72.5263 8.272C71.9343 8.272 71.4623 8.384 71.1103 8.608C70.7583 8.832 70.5823 9.136 70.5823 9.52C70.5823 9.888 70.7343 10.168 71.0383 10.36C71.3423 10.552 71.8383 10.688 72.5263 10.768L73.5583 10.864C75.1583 11.04 76.4063 11.496 77.3023 12.232C78.2143 12.952 78.6703 13.912 78.6703 15.112C78.6703 16.44 78.1423 17.488 77.0863 18.256C76.0303 19.024 74.6063 19.408 72.8143 19.408ZM83.2703 4.552C82.5503 4.552 82.0143 4.368 81.6623 4C81.3263 3.616 81.1583 3.136 81.1583 2.56C81.1583 1.968 81.3263 1.488 81.6623 1.12C82.0143 0.735999 82.5503 0.543999 83.2703 0.543999C83.9903 0.543999 84.5183 0.735999 84.8543 1.12C85.2063 1.488 85.3823 1.968 85.3823 2.56C85.3823 3.136 85.2063 3.616 84.8543 4C84.5183 4.368 83.9903 4.552 83.2703 4.552ZM81.7823 19V8.68H80.0303V5.848H85.6223V19H81.7823ZM91.7179 19L87.7819 5.848H91.7419L94.5499 15.808H95.1019L97.5259 5.848H101.222L97.8139 19H91.7179ZM109.214 19.456C108.094 19.456 107.102 19.264 106.238 18.88C105.39 18.496 104.678 17.984 104.102 17.344C103.526 16.688 103.094 15.96 102.806 15.16C102.518 14.344 102.374 13.512 102.374 12.664V12.184C102.374 11.32 102.518 10.48 102.806 9.664C103.094 8.848 103.526 8.12 104.102 7.48C104.678 6.84 105.374 6.336 106.19 5.968C107.022 5.584 107.982 5.392 109.07 5.392C110.478 5.392 111.662 5.712 112.622 6.352C113.598 6.976 114.342 7.8 114.854 8.824C115.366 9.848 115.622 10.952 115.622 12.136V13.432H105.998C106.126 14.328 106.446 15.04 106.958 15.568C107.486 16.08 108.238 16.336 109.214 16.336C109.902 16.336 110.47 16.208 110.918 15.952C111.382 15.68 111.694 15.336 111.854 14.92H115.382C115.094 16.264 114.398 17.36 113.294 18.208C112.206 19.04 110.846 19.456 109.214 19.456ZM109.07 8.512C108.238 8.512 107.558 8.752 107.03 9.232C106.518 9.696 106.19 10.368 106.046 11.248H111.95C111.822 10.368 111.51 9.696 111.014 9.232C110.534 8.752 109.886 8.512 109.07 8.512ZM126.949 19.336C125.525 19.336 124.373 18.968 123.493 18.232C122.629 17.496 122.197 16.456 122.197 15.112C122.197 14.152 122.445 13.368 122.941 12.76C123.437 12.136 124.133 11.68 125.029 11.392C125.925 11.088 126.957 10.936 128.125 10.936H130.501V10.888C130.501 9.544 129.829 8.872 128.485 8.872C128.133 8.872 127.669 8.888 127.093 8.92C126.517 8.936 125.917 8.96 125.293 8.992C124.685 9.008 124.141 9.032 123.661 9.064V5.824C124.221 5.776 124.909 5.736 125.725 5.704C126.541 5.656 127.293 5.632 127.981 5.632C129.997 5.632 131.533 6.064 132.589 6.928C133.661 7.776 134.197 9.112 134.197 10.936V19H131.149V16.528C130.861 17.44 130.365 18.136 129.661 18.616C128.957 19.096 128.053 19.336 126.949 19.336ZM128.101 16.672C128.725 16.672 129.269 16.496 129.733 16.144C130.197 15.792 130.453 15.12 130.501 14.128V13.072H128.101C127.429 13.072 126.909 13.24 126.541 13.576C126.189 13.912 126.013 14.352 126.013 14.896C126.013 15.424 126.189 15.856 126.541 16.192C126.909 16.512 127.429 16.672 128.101 16.672ZM143.359 19.456C142.223 19.456 141.231 19.272 140.383 18.904C139.551 18.52 138.855 18.008 138.295 17.368C137.735 16.728 137.319 16.008 137.047 15.208C136.775 14.392 136.639 13.552 136.639 12.688V12.232C136.639 11.032 136.887 9.912 137.383 8.872C137.895 7.832 138.647 6.992 139.639 6.352C140.647 5.712 141.879 5.392 143.335 5.392C144.519 5.392 145.567 5.624 146.479 6.088C147.391 6.536 148.119 7.168 148.663 7.984C149.207 8.8 149.511 9.736 149.575 10.792H145.807C145.743 10.2 145.503 9.704 145.087 9.304C144.671 8.888 144.087 8.68 143.335 8.68C142.359 8.68 141.639 9.032 141.175 9.736C140.711 10.424 140.479 11.336 140.479 12.472C140.479 13.544 140.695 14.432 141.127 15.136C141.575 15.824 142.319 16.168 143.359 16.168C144.127 16.168 144.727 15.968 145.159 15.568C145.591 15.168 145.847 14.64 145.927 13.984H149.671C149.607 15.072 149.295 16.032 148.735 16.864C148.191 17.68 147.447 18.32 146.503 18.784C145.575 19.232 144.527 19.456 143.359 19.456ZM158.031 19.456C156.895 19.456 155.903 19.272 155.055 18.904C154.223 18.52 153.527 18.008 152.967 17.368C152.407 16.728 151.991 16.008 151.719 15.208C151.447 14.392 151.311 13.552 151.311 12.688V12.232C151.311 11.032 151.559 9.912 152.055 8.872C152.567 7.832 153.319 6.992 154.311 6.352C155.319 5.712 156.551 5.392 158.007 5.392C159.191 5.392 160.239 5.624 161.151 6.088C162.063 6.536 162.791 7.168 163.335 7.984C163.879 8.8 164.183 9.736 164.247 10.792H160.479C160.415 10.2 160.175 9.704 159.759 9.304C159.343 8.888 158.759 8.68 158.007 8.68C157.031 8.68 156.311 9.032 155.847 9.736C155.383 10.424 155.151 11.336 155.151 12.472C155.151 13.544 155.367 14.432 155.799 15.136C156.247 15.824 156.991 16.168 158.031 16.168C158.799 16.168 159.399 15.968 159.831 15.568C160.263 15.168 160.519 14.64 160.599 13.984H164.343C164.279 15.072 163.967 16.032 163.407 16.864C162.863 17.68 162.119 18.32 161.175 18.784C160.247 19.232 159.199 19.456 158.031 19.456ZM172.823 19.456C171.703 19.456 170.711 19.264 169.847 18.88C168.999 18.496 168.287 17.984 167.711 17.344C167.135 16.688 166.703 15.96 166.415 15.16C166.127 14.344 165.983 13.512 165.983 12.664V12.184C165.983 11.32 166.127 10.48 166.415 9.664C166.703 8.848 167.135 8.12 167.711 7.48C168.287 6.84 168.983 6.336 169.799 5.968C170.631 5.584 171.591 5.392 172.679 5.392C174.087 5.392 175.271 5.712 176.231 6.352C177.207 6.976 177.951 7.8 178.463 8.824C178.975 9.848 179.231 10.952 179.231 12.136V13.432H169.607C169.735 14.328 170.055 15.04 170.567 15.568C171.095 16.08 171.847 16.336 172.823 16.336C173.511 16.336 174.079 16.208 174.527 15.952C174.991 15.68 175.303 15.336 175.463 14.92H178.991C178.703 16.264 178.007 17.36 176.903 18.208C175.815 19.04 174.455 19.456 172.823 19.456ZM172.679 8.512C171.847 8.512 171.167 8.752 170.639 9.232C170.127 9.696 169.799 10.368 169.655 11.248H175.559C175.431 10.368 175.119 9.696 174.623 9.232C174.143 8.752 173.495 8.512 172.679 8.512ZM186.767 19.408C184.895 19.408 183.431 19.024 182.375 18.256C181.319 17.488 180.759 16.408 180.695 15.016H184.103C184.151 15.432 184.399 15.808 184.847 16.144C185.295 16.464 185.959 16.624 186.839 16.624C187.495 16.624 188.047 16.512 188.495 16.288C188.943 16.064 189.167 15.728 189.167 15.28C189.167 14.896 188.999 14.592 188.663 14.368C188.327 14.128 187.727 13.96 186.863 13.864L185.831 13.768C184.247 13.592 183.055 13.152 182.255 12.448C181.471 11.744 181.079 10.824 181.079 9.688C181.079 8.76 181.311 7.984 181.775 7.36C182.255 6.736 182.903 6.264 183.719 5.944C184.535 5.624 185.471 5.464 186.527 5.464C188.223 5.464 189.583 5.84 190.607 6.592C191.647 7.328 192.199 8.4 192.263 9.808H188.855C188.791 9.392 188.559 9.032 188.159 8.728C187.775 8.424 187.215 8.272 186.479 8.272C185.887 8.272 185.415 8.384 185.063 8.608C184.711 8.832 184.535 9.136 184.535 9.52C184.535 9.888 184.687 10.168 184.991 10.36C185.295 10.552 185.791 10.688 186.479 10.768L187.511 10.864C189.111 11.04 190.359 11.496 191.255 12.232C192.167 12.952 192.623 13.912 192.623 15.112C192.623 16.44 192.095 17.488 191.039 18.256C189.983 19.024 188.559 19.408 186.767 19.408ZM200.103 19.408C198.231 19.408 196.767 19.024 195.711 18.256C194.655 17.488 194.095 16.408 194.031 15.016H197.439C197.487 15.432 197.735 15.808 198.183 16.144C198.631 16.464 199.295 16.624 200.175 16.624C200.831 16.624 201.383 16.512 201.831 16.288C202.279 16.064 202.503 15.728 202.503 15.28C202.503 14.896 202.335 14.592 201.999 14.368C201.663 14.128 201.063 13.96 200.199 13.864L199.167 13.768C197.583 13.592 196.391 13.152 195.591 12.448C194.807 11.744 194.415 10.824 194.415 9.688C194.415 8.76 194.647 7.984 195.111 7.36C195.591 6.736 196.239 6.264 197.055 5.944C197.871 5.624 198.807 5.464 199.863 5.464C201.559 5.464 202.919 5.84 203.943 6.592C204.983 7.328 205.535 8.4 205.599 9.808H202.191C202.127 9.392 201.895 9.032 201.495 8.728C201.111 8.424 200.551 8.272 199.815 8.272C199.223 8.272 198.751 8.384 198.399 8.608C198.047 8.832 197.871 9.136 197.871 9.52C197.871 9.888 198.023 10.168 198.327 10.36C198.631 10.552 199.127 10.688 199.815 10.768L200.847 10.864C202.447 11.04 203.695 11.496 204.591 12.232C205.503 12.952 205.959 13.912 205.959 15.112C205.959 16.44 205.431 17.488 204.375 18.256C203.319 19.024 201.895 19.408 200.103 19.408ZM219.462 19.168C218.134 19.168 217.062 19.008 216.246 18.688C215.43 18.352 214.83 17.8 214.446 17.032C214.078 16.248 213.894 15.192 213.894 13.864V8.656H211.902V5.848H213.894V2.296H217.47V5.848H221.31V8.656H217.47V14.008C217.47 14.632 217.63 15.112 217.95 15.448C218.286 15.768 218.758 15.928 219.366 15.928H221.31V19.168H219.462ZM230.254 19.456C228.718 19.456 227.406 19.144 226.318 18.52C225.246 17.896 224.43 17.08 223.87 16.072C223.31 15.048 223.03 13.936 223.03 12.736V12.184C223.03 10.952 223.318 9.824 223.894 8.8C224.486 7.76 225.318 6.936 226.39 6.328C227.478 5.704 228.766 5.392 230.254 5.392C231.742 5.392 233.03 5.704 234.118 6.328C235.206 6.936 236.038 7.76 236.614 8.8C237.206 9.824 237.502 10.952 237.502 12.184V12.736C237.502 13.936 237.214 15.048 236.638 16.072C236.078 17.08 235.262 17.896 234.19 18.52C233.118 19.144 231.806 19.456 230.254 19.456ZM230.254 16.216C231.358 16.216 232.198 15.864 232.774 15.16C233.366 14.44 233.662 13.544 233.662 12.472C233.662 11.368 233.358 10.456 232.75 9.736C232.158 9 231.326 8.632 230.254 8.632C229.182 8.632 228.35 9 227.758 9.736C227.166 10.456 226.87 11.368 226.87 12.472C226.87 13.544 227.158 14.44 227.734 15.16C228.31 15.864 229.15 16.216 230.254 16.216ZM7.656 49.456C6.52 49.456 5.528 49.272 4.68 48.904C3.848 48.52 3.152 48.008 2.592 47.368C2.032 46.728 1.616 46.008 1.344 45.208C1.072 44.392 0.936 43.552 0.936 42.688V42.232C0.936 41.032 1.184 39.912 1.68 38.872C2.192 37.832 2.944 36.992 3.936 36.352C4.944 35.712 6.176 35.392 7.632 35.392C8.816 35.392 9.864 35.624 10.776 36.088C11.688 36.536 12.416 37.168 12.96 37.984C13.504 38.8 13.808 39.736 13.872 40.792H10.104C10.04 40.2 9.8 39.704 9.384 39.304C8.968 38.888 8.384 38.68 7.632 38.68C6.656 38.68 5.936 39.032 5.472 39.736C5.008 40.424 4.776 41.336 4.776 42.472C4.776 43.544 4.992 44.432 5.424 45.136C5.872 45.824 6.616 46.168 7.656 46.168C8.424 46.168 9.024 45.968 9.456 45.568C9.888 45.168 10.144 44.64 10.224 43.984H13.968C13.904 45.072 13.592 46.032 13.032 46.864C12.488 47.68 11.744 48.32 10.8 48.784C9.872 49.232 8.824 49.456 7.656 49.456ZM22.8319 49.456C21.2959 49.456 19.9839 49.144 18.8959 48.52C17.8239 47.896 17.0079 47.08 16.4479 46.072C15.8879 45.048 15.6079 43.936 15.6079 42.736V42.184C15.6079 40.952 15.8959 39.824 16.4719 38.8C17.0639 37.76 17.8959 36.936 18.9679 36.328C20.0559 35.704 21.3439 35.392 22.8319 35.392C24.3199 35.392 25.6079 35.704 26.6959 36.328C27.7839 36.936 28.6159 37.76 29.1919 38.8C29.7839 39.824 30.0799 40.952 30.0799 42.184V42.736C30.0799 43.936 29.7919 45.048 29.2159 46.072C28.6559 47.08 27.8399 47.896 26.7679 48.52C25.6959 49.144 24.3839 49.456 22.8319 49.456ZM22.8319 46.216C23.9359 46.216 24.7759 45.864 25.3519 45.16C25.9439 44.44 26.2399 43.544 26.2399 42.472C26.2399 41.368 25.9359 40.456 25.3279 39.736C24.7359 39 23.9039 38.632 22.8319 38.632C21.7599 38.632 20.9279 39 20.3359 39.736C19.7439 40.456 19.4479 41.368 19.4479 42.472C19.4479 43.544 19.7359 44.44 20.3119 45.16C20.8879 45.864 21.7279 46.216 22.8319 46.216ZM32.7598 49V35.848H35.8078V39.184C36.3198 36.688 37.7438 35.44 40.0798 35.44H40.2478C42.2798 35.44 43.6238 36.392 44.2798 38.296C44.9518 36.392 46.3038 35.44 48.3358 35.44H48.5038C49.9918 35.44 51.1278 35.952 51.9118 36.976C52.6958 38 53.0878 39.512 53.0878 41.512V49H49.2478V41.296C49.2478 40.576 49.0558 39.992 48.6718 39.544C48.3038 39.096 47.7758 38.872 47.0878 38.872C46.3998 38.872 45.8558 39.104 45.4558 39.568C45.0558 40.032 44.8558 40.632 44.8558 41.368V49H40.9918V41.296C40.9918 40.576 40.7998 39.992 40.4158 39.544C40.0478 39.096 39.5278 38.872 38.8558 38.872C38.1518 38.872 37.5998 39.104 37.1998 39.568C36.7998 40.032 36.5998 40.632 36.5998 41.368V49H32.7598ZM56.3614 49V35.848H59.4094V39.184C59.9214 36.688 61.3454 35.44 63.6814 35.44H63.8494C65.8814 35.44 67.2254 36.392 67.8814 38.296C68.5534 36.392 69.9054 35.44 71.9374 35.44H72.1054C73.5934 35.44 74.7294 35.952 75.5134 36.976C76.2974 38 76.6894 39.512 76.6894 41.512V49H72.8494V41.296C72.8494 40.576 72.6574 39.992 72.2734 39.544C71.9054 39.096 71.3774 38.872 70.6894 38.872C70.0014 38.872 69.4574 39.104 69.0574 39.568C68.6574 40.032 68.4574 40.632 68.4574 41.368V49H64.5934V41.296C64.5934 40.576 64.4014 39.992 64.0174 39.544C63.6494 39.096 63.1294 38.872 62.4574 38.872C61.7534 38.872 61.2014 39.104 60.8014 39.568C60.4014 40.032 60.2014 40.632 60.2014 41.368V49H56.3614ZM84.4029 49.408C82.8829 49.408 81.7149 48.92 80.8989 47.944C80.0829 46.968 79.6749 45.48 79.6749 43.48V35.848H83.5149V43.672C83.5149 44.376 83.7149 44.936 84.1149 45.352C84.5149 45.768 85.0509 45.976 85.7229 45.976C86.4109 45.976 86.9709 45.76 87.4029 45.328C87.8349 44.896 88.0509 44.312 88.0509 43.576V35.848H91.8909V49H88.8429V45.928C88.2989 48.248 86.8749 49.408 84.5709 49.408H84.4029ZM95.4317 49V35.848H98.4797V39.208C99.0077 36.696 100.488 35.44 102.92 35.44H103.088C104.608 35.44 105.776 35.944 106.592 36.952C107.408 37.944 107.816 39.456 107.816 41.488V49H103.976V41.272C103.976 40.568 103.768 39.992 103.352 39.544C102.936 39.096 102.376 38.872 101.672 38.872C100.952 38.872 100.368 39.104 99.9197 39.568C99.4877 40.016 99.2717 40.608 99.2717 41.344V49H95.4317ZM113.2 34.552C112.48 34.552 111.944 34.368 111.592 34C111.256 33.616 111.088 33.136 111.088 32.56C111.088 31.968 111.256 31.488 111.592 31.12C111.944 30.736 112.48 30.544 113.2 30.544C113.92 30.544 114.448 30.736 114.784 31.12C115.136 31.488 115.312 31.968 115.312 32.56C115.312 33.136 115.136 33.616 114.784 34C114.448 34.368 113.92 34.552 113.2 34.552ZM111.712 49V38.68H109.96V35.848H115.552V49H111.712ZM125.08 49.168C123.752 49.168 122.68 49.008 121.864 48.688C121.048 48.352 120.448 47.8 120.064 47.032C119.696 46.248 119.512 45.192 119.512 43.864V38.656H117.52V35.848H119.512V32.296H123.088V35.848H126.928V38.656H123.088V44.008C123.088 44.632 123.248 45.112 123.568 45.448C123.904 45.768 124.376 45.928 124.984 45.928H126.928V49.168H125.08ZM131.91 48.712L127.878 35.848H131.742L134.646 45.712H135.126L137.526 35.848H141.174L137.502 50.056C137.23 51.08 136.862 51.896 136.398 52.504C135.95 53.112 135.342 53.544 134.574 53.8C133.822 54.072 132.87 54.208 131.718 54.208H129.366V50.944H132.102C132.71 50.944 133.182 50.824 133.518 50.584C133.87 50.344 134.126 49.912 134.286 49.288L134.406 48.712H131.91ZM154.26 49.456C153.14 49.456 152.148 49.264 151.284 48.88C150.436 48.496 149.724 47.984 149.148 47.344C148.572 46.688 148.14 45.96 147.852 45.16C147.564 44.344 147.42 43.512 147.42 42.664V42.184C147.42 41.32 147.564 40.48 147.852 39.664C148.14 38.848 148.572 38.12 149.148 37.48C149.724 36.84 150.42 36.336 151.236 35.968C152.068 35.584 153.028 35.392 154.116 35.392C155.524 35.392 156.708 35.712 157.668 36.352C158.644 36.976 159.388 37.8 159.9 38.824C160.412 39.848 160.668 40.952 160.668 42.136V43.432H151.044C151.172 44.328 151.492 45.04 152.004 45.568C152.532 46.08 153.284 46.336 154.26 46.336C154.948 46.336 155.516 46.208 155.964 45.952C156.428 45.68 156.74 45.336 156.9 44.92H160.428C160.14 46.264 159.444 47.36 158.34 48.208C157.252 49.04 155.892 49.456 154.26 49.456ZM154.116 38.512C153.284 38.512 152.604 38.752 152.076 39.232C151.564 39.696 151.236 40.368 151.092 41.248H156.996C156.868 40.368 156.556 39.696 156.06 39.232C155.58 38.752 154.932 38.512 154.116 38.512ZM165.64 49L161.704 35.848H165.664L168.472 45.808H169.024L171.448 35.848H175.144L171.736 49H165.64ZM183.135 49.456C182.015 49.456 181.023 49.264 180.159 48.88C179.311 48.496 178.599 47.984 178.023 47.344C177.447 46.688 177.015 45.96 176.727 45.16C176.439 44.344 176.295 43.512 176.295 42.664V42.184C176.295 41.32 176.439 40.48 176.727 39.664C177.015 38.848 177.447 38.12 178.023 37.48C178.599 36.84 179.295 36.336 180.111 35.968C180.943 35.584 181.903 35.392 182.991 35.392C184.399 35.392 185.583 35.712 186.543 36.352C187.519 36.976 188.263 37.8 188.775 38.824C189.287 39.848 189.543 40.952 189.543 42.136V43.432H179.919C180.047 44.328 180.367 45.04 180.879 45.568C181.407 46.08 182.159 46.336 183.135 46.336C183.823 46.336 184.391 46.208 184.839 45.952C185.303 45.68 185.615 45.336 185.775 44.92H189.303C189.015 46.264 188.319 47.36 187.215 48.208C186.127 49.04 184.767 49.456 183.135 49.456ZM182.991 38.512C182.159 38.512 181.479 38.752 180.951 39.232C180.439 39.696 180.111 40.368 179.967 41.248H185.871C185.743 40.368 185.431 39.696 184.935 39.232C184.455 38.752 183.807 38.512 182.991 38.512ZM192.088 49V35.848H195.136V39.208C195.664 36.696 197.144 35.44 199.576 35.44H199.744C201.264 35.44 202.432 35.944 203.248 36.952C204.064 37.944 204.472 39.456 204.472 41.488V49H200.632V41.272C200.632 40.568 200.424 39.992 200.008 39.544C199.592 39.096 199.032 38.872 198.328 38.872C197.608 38.872 197.024 39.104 196.576 39.568C196.144 40.016 195.928 40.608 195.928 41.344V49H192.088ZM213.72 49.168C212.392 49.168 211.32 49.008 210.504 48.688C209.688 48.352 209.088 47.8 208.704 47.032C208.336 46.248 208.152 45.192 208.152 43.864V38.656H206.16V35.848H208.152V32.296H211.728V35.848H215.568V38.656H211.728V44.008C211.728 44.632 211.888 45.112 212.208 45.448C212.544 45.768 213.016 45.928 213.624 45.928H215.568V49.168H213.72ZM223.049 49.408C221.177 49.408 219.713 49.024 218.657 48.256C217.601 47.488 217.041 46.408 216.977 45.016H220.385C220.433 45.432 220.681 45.808 221.129 46.144C221.577 46.464 222.241 46.624 223.121 46.624C223.777 46.624 224.329 46.512 224.777 46.288C225.225 46.064 225.449 45.728 225.449 45.28C225.449 44.896 225.281 44.592 224.945 44.368C224.609 44.128 224.009 43.96 223.145 43.864L222.113 43.768C220.529 43.592 219.337 43.152 218.537 42.448C217.753 41.744 217.361 40.824 217.361 39.688C217.361 38.76 217.593 37.984 218.057 37.36C218.537 36.736 219.185 36.264 220.001 35.944C220.817 35.624 221.753 35.464 222.809 35.464C224.505 35.464 225.865 35.84 226.889 36.592C227.929 37.328 228.481 38.4 228.545 39.808H225.137C225.073 39.392 224.841 39.032 224.441 38.728C224.057 38.424 223.497 38.272 222.761 38.272C222.169 38.272 221.697 38.384 221.345 38.608C220.993 38.832 220.817 39.136 220.817 39.52C220.817 39.888 220.969 40.168 221.273 40.36C221.577 40.552 222.073 40.688 222.761 40.768L223.793 40.864C225.393 41.04 226.641 41.496 227.537 42.232C228.449 42.952 228.905 43.912 228.905 45.112C228.905 46.44 228.377 47.488 227.321 48.256C226.265 49.024 224.841 49.408 223.049 49.408ZM240.176 49.336C238.752 49.336 237.6 48.968 236.72 48.232C235.856 47.496 235.424 46.456 235.424 45.112C235.424 44.152 235.672 43.368 236.168 42.76C236.664 42.136 237.36 41.68 238.256 41.392C239.152 41.088 240.184 40.936 241.352 40.936H243.728V40.888C243.728 39.544 243.056 38.872 241.712 38.872C241.36 38.872 240.896 38.888 240.32 38.92C239.744 38.936 239.144 38.96 238.52 38.992C237.912 39.008 237.368 39.032 236.888 39.064V35.824C237.448 35.776 238.136 35.736 238.952 35.704C239.768 35.656 240.52 35.632 241.208 35.632C243.224 35.632 244.76 36.064 245.816 36.928C246.888 37.776 247.424 39.112 247.424 40.936V49H244.376V46.528C244.088 47.44 243.592 48.136 242.888 48.616C242.184 49.096 241.28 49.336 240.176 49.336ZM241.328 46.672C241.952 46.672 242.496 46.496 242.96 46.144C243.424 45.792 243.68 45.12 243.728 44.128V43.072H241.328C240.656 43.072 240.136 43.24 239.768 43.576C239.416 43.912 239.24 44.352 239.24 44.896C239.24 45.424 239.416 45.856 239.768 46.192C240.136 46.512 240.656 46.672 241.328 46.672ZM250.682 49V35.848H253.73V39.208C254.258 36.696 255.738 35.44 258.17 35.44H258.338C259.858 35.44 261.026 35.944 261.842 36.952C262.658 37.944 263.066 39.456 263.066 41.488V49H259.226V41.272C259.226 40.568 259.018 39.992 258.602 39.544C258.186 39.096 257.626 38.872 256.922 38.872C256.202 38.872 255.618 39.104 255.17 39.568C254.738 40.016 254.522 40.608 254.522 41.344V49H250.682ZM271.762 49.432C270.53 49.432 269.442 49.144 268.498 48.568C267.57 47.976 266.842 47.176 266.314 46.168C265.786 45.16 265.522 44.024 265.522 42.76V42.208C265.522 40.944 265.77 39.8 266.266 38.776C266.762 37.752 267.466 36.944 268.378 36.352C269.306 35.76 270.386 35.464 271.618 35.464C273.538 35.464 274.954 36.192 275.866 37.648V31.48H279.73V49H276.682V46.24C276.25 47.28 275.61 48.072 274.762 48.616C273.914 49.16 272.914 49.432 271.762 49.432ZM272.722 46.216C273.602 46.216 274.362 45.92 275.002 45.328C275.642 44.736 275.962 43.896 275.962 42.808V41.92C275.962 41.232 275.81 40.648 275.506 40.168C275.202 39.672 274.802 39.296 274.306 39.04C273.81 38.784 273.274 38.656 272.698 38.656C271.722 38.656 270.922 39.008 270.298 39.712C269.674 40.416 269.362 41.336 269.362 42.472C269.362 43.624 269.674 44.536 270.298 45.208C270.938 45.88 271.746 46.216 272.722 46.216ZM1.752 79V65.848H4.8V70.312C4.944 68.824 5.4 67.68 6.168 66.88C6.952 66.08 8.016 65.68 9.36 65.68H9.864V68.992H8.904C7.832 68.992 7.008 69.28 6.432 69.856C5.872 70.432 5.592 71.248 5.592 72.304V79H1.752ZM17.8073 79.456C16.6873 79.456 15.6953 79.264 14.8313 78.88C13.9833 78.496 13.2713 77.984 12.6953 77.344C12.1193 76.688 11.6873 75.96 11.3993 75.16C11.1113 74.344 10.9673 73.512 10.9673 72.664V72.184C10.9673 71.32 11.1113 70.48 11.3993 69.664C11.6873 68.848 12.1193 68.12 12.6953 67.48C13.2713 66.84 13.9673 66.336 14.7833 65.968C15.6153 65.584 16.5753 65.392 17.6633 65.392C19.0713 65.392 20.2553 65.712 21.2153 66.352C22.1913 66.976 22.9353 67.8 23.4473 68.824C23.9593 69.848 24.2153 70.952 24.2153 72.136V73.432H14.5913C14.7193 74.328 15.0393 75.04 15.5513 75.568C16.0793 76.08 16.8313 76.336 17.8073 76.336C18.4953 76.336 19.0633 76.208 19.5113 75.952C19.9753 75.68 20.2873 75.336 20.4473 74.92H23.9753C23.6873 76.264 22.9913 77.36 21.8873 78.208C20.7993 79.04 19.4393 79.456 17.8073 79.456ZM17.6633 68.512C16.8313 68.512 16.1513 68.752 15.6233 69.232C15.1113 69.696 14.7833 70.368 14.6393 71.248H20.5433C20.4153 70.368 20.1033 69.696 19.6073 69.232C19.1273 68.752 18.4793 68.512 17.6633 68.512ZM30.5038 79.336C29.0798 79.336 27.9278 78.968 27.0478 78.232C26.1838 77.496 25.7518 76.456 25.7518 75.112C25.7518 74.152 25.9998 73.368 26.4958 72.76C26.9918 72.136 27.6878 71.68 28.5838 71.392C29.4798 71.088 30.5118 70.936 31.6798 70.936H34.0558V70.888C34.0558 69.544 33.3838 68.872 32.0398 68.872C31.6878 68.872 31.2238 68.888 30.6478 68.92C30.0718 68.936 29.4718 68.96 28.8478 68.992C28.2398 69.008 27.6958 69.032 27.2158 69.064V65.824C27.7758 65.776 28.4638 65.736 29.2798 65.704C30.0958 65.656 30.8478 65.632 31.5358 65.632C33.5518 65.632 35.0878 66.064 36.1438 66.928C37.2158 67.776 37.7518 69.112 37.7518 70.936V79H34.7038V76.528C34.4158 77.44 33.9198 78.136 33.2158 78.616C32.5118 79.096 31.6078 79.336 30.5038 79.336ZM31.6558 76.672C32.2798 76.672 32.8238 76.496 33.2878 76.144C33.7518 75.792 34.0078 75.12 34.0558 74.128V73.072H31.6558C30.9838 73.072 30.4638 73.24 30.0958 73.576C29.7438 73.912 29.5678 74.352 29.5678 74.896C29.5678 75.424 29.7438 75.856 30.0958 76.192C30.4638 76.512 30.9838 76.672 31.6558 76.672ZM41.1778 79V64.312H39.6178V61.48H45.0418V79H41.1778ZM47.8841 73.912V70.504H57.9881V73.912H47.8841ZM62.7407 79L59.2127 65.848H62.9807L65.4527 75.808H65.9807L67.7807 66.28H71.9807L74.0447 75.808H74.5487L76.7807 65.848H80.3087L77.1407 79H71.7887L69.8207 70.36L68.0687 79H62.7407ZM88.785 79.456C87.249 79.456 85.937 79.144 84.849 78.52C83.777 77.896 82.961 77.08 82.401 76.072C81.841 75.048 81.561 73.936 81.561 72.736V72.184C81.561 70.952 81.849 69.824 82.425 68.8C83.017 67.76 83.849 66.936 84.921 66.328C86.009 65.704 87.297 65.392 88.785 65.392C90.273 65.392 91.561 65.704 92.649 66.328C93.737 66.936 94.569 67.76 95.145 68.8C95.737 69.824 96.033 70.952 96.033 72.184V72.736C96.033 73.936 95.745 75.048 95.169 76.072C94.609 77.08 93.793 77.896 92.721 78.52C91.649 79.144 90.337 79.456 88.785 79.456ZM88.785 76.216C89.889 76.216 90.729 75.864 91.305 75.16C91.897 74.44 92.193 73.544 92.193 72.472C92.193 71.368 91.889 70.456 91.281 69.736C90.689 69 89.857 68.632 88.785 68.632C87.713 68.632 86.881 69 86.289 69.736C85.697 70.456 85.401 71.368 85.401 72.472C85.401 73.544 85.689 74.44 86.265 75.16C86.841 75.864 87.681 76.216 88.785 76.216ZM98.7129 79V65.848H101.761V70.312C101.905 68.824 102.361 67.68 103.129 66.88C103.913 66.08 104.977 65.68 106.321 65.68H106.825V68.992H105.865C104.793 68.992 103.969 69.28 103.393 69.856C102.833 70.432 102.553 71.248 102.553 72.304V79H98.7129ZM108.983 79V64.312H107.423V61.48H112.847V79H108.983ZM121.809 79.432C120.577 79.432 119.489 79.144 118.545 78.568C117.617 77.976 116.889 77.176 116.361 76.168C115.833 75.16 115.569 74.024 115.569 72.76V72.208C115.569 70.944 115.817 69.8 116.313 68.776C116.809 67.752 117.513 66.944 118.425 66.352C119.353 65.76 120.433 65.464 121.665 65.464C123.585 65.464 125.001 66.192 125.913 67.648V61.48H129.777V79H126.729V76.24C126.297 77.28 125.657 78.072 124.809 78.616C123.961 79.16 122.961 79.432 121.809 79.432ZM122.769 76.216C123.649 76.216 124.409 75.92 125.049 75.328C125.689 74.736 126.009 73.896 126.009 72.808V71.92C126.009 71.232 125.857 70.648 125.553 70.168C125.249 69.672 124.849 69.296 124.353 69.04C123.857 68.784 123.321 68.656 122.745 68.656C121.769 68.656 120.969 69.008 120.345 69.712C119.721 70.416 119.409 71.336 119.409 72.472C119.409 73.624 119.721 74.536 120.345 75.208C120.985 75.88 121.793 76.216 122.769 76.216ZM138.299 83.8V65.848H141.347V69.184C141.731 67.968 142.371 67.048 143.267 66.424C144.179 65.784 145.243 65.464 146.459 65.464C147.675 65.464 148.731 65.76 149.627 66.352C150.539 66.928 151.243 67.72 151.739 68.728C152.251 69.736 152.507 70.872 152.507 72.136V72.688C152.507 73.952 152.267 75.096 151.787 76.12C151.307 77.144 150.619 77.952 149.723 78.544C148.827 79.136 147.739 79.432 146.459 79.432C145.563 79.432 144.739 79.264 143.987 78.928C143.235 78.592 142.619 78.08 142.139 77.392V83.8H138.299ZM145.379 76.216C146.355 76.216 147.139 75.864 147.731 75.16C148.339 74.456 148.643 73.536 148.643 72.4C148.643 71.28 148.339 70.376 147.731 69.688C147.139 69 146.355 68.656 145.379 68.656C144.787 68.656 144.235 68.792 143.723 69.064C143.227 69.336 142.819 69.728 142.499 70.24C142.195 70.752 142.043 71.36 142.043 72.064V72.952C142.043 73.64 142.203 74.232 142.523 74.728C142.859 75.208 143.283 75.576 143.795 75.832C144.307 76.088 144.835 76.216 145.379 76.216ZM155.174 79V65.848H158.222V70.312C158.366 68.824 158.822 67.68 159.59 66.88C160.374 66.08 161.438 65.68 162.782 65.68H163.286V68.992H162.326C161.254 68.992 160.43 69.28 159.854 69.856C159.294 70.432 159.014 71.248 159.014 72.304V79H155.174ZM171.229 79.456C170.109 79.456 169.117 79.264 168.253 78.88C167.405 78.496 166.693 77.984 166.117 77.344C165.541 76.688 165.109 75.96 164.821 75.16C164.533 74.344 164.389 73.512 164.389 72.664V72.184C164.389 71.32 164.533 70.48 164.821 69.664C165.109 68.848 165.541 68.12 166.117 67.48C166.693 66.84 167.389 66.336 168.205 65.968C169.037 65.584 169.997 65.392 171.085 65.392C172.493 65.392 173.677 65.712 174.637 66.352C175.613 66.976 176.357 67.8 176.869 68.824C177.381 69.848 177.637 70.952 177.637 72.136V73.432H168.013C168.141 74.328 168.461 75.04 168.973 75.568C169.501 76.08 170.253 76.336 171.229 76.336C171.917 76.336 172.485 76.208 172.933 75.952C173.397 75.68 173.709 75.336 173.869 74.92H177.397C177.109 76.264 176.413 77.36 175.309 78.208C174.221 79.04 172.861 79.456 171.229 79.456ZM171.085 68.512C170.253 68.512 169.573 68.752 169.045 69.232C168.533 69.696 168.205 70.368 168.061 71.248H173.965C173.837 70.368 173.525 69.696 173.029 69.232C172.549 68.752 171.901 68.512 171.085 68.512ZM182.609 79L178.673 65.848H182.633L185.441 75.808H185.993L188.417 65.848H192.113L188.705 79H182.609ZM196.497 64.552C195.777 64.552 195.241 64.368 194.889 64C194.553 63.616 194.385 63.136 194.385 62.56C194.385 61.968 194.553 61.488 194.889 61.12C195.241 60.736 195.777 60.544 196.497 60.544C197.217 60.544 197.745 60.736 198.081 61.12C198.433 61.488 198.609 61.968 198.609 62.56C198.609 63.136 198.433 63.616 198.081 64C197.745 64.368 197.217 64.552 196.497 64.552ZM195.009 79V68.68H193.257V65.848H198.849V79H195.009ZM202.568 79V64.312H201.008V61.48H206.432V79H202.568ZM215.995 79.456C214.875 79.456 213.883 79.264 213.019 78.88C212.171 78.496 211.459 77.984 210.883 77.344C210.307 76.688 209.875 75.96 209.587 75.16C209.299 74.344 209.155 73.512 209.155 72.664V72.184C209.155 71.32 209.299 70.48 209.587 69.664C209.875 68.848 210.307 68.12 210.883 67.48C211.459 66.84 212.155 66.336 212.971 65.968C213.803 65.584 214.763 65.392 215.851 65.392C217.259 65.392 218.443 65.712 219.403 66.352C220.379 66.976 221.123 67.8 221.635 68.824C222.147 69.848 222.403 70.952 222.403 72.136V73.432H212.779C212.907 74.328 213.227 75.04 213.739 75.568C214.267 76.08 215.019 76.336 215.995 76.336C216.683 76.336 217.251 76.208 217.699 75.952C218.163 75.68 218.475 75.336 218.635 74.92H222.163C221.875 76.264 221.179 77.36 220.075 78.208C218.987 79.04 217.627 79.456 215.995 79.456ZM215.851 68.512C215.019 68.512 214.339 68.752 213.811 69.232C213.299 69.696 212.971 70.368 212.827 71.248H218.731C218.603 70.368 218.291 69.696 217.795 69.232C217.315 68.752 216.667 68.512 215.851 68.512ZM230.131 84.232C229.475 84.232 228.811 84.208 228.139 84.16C227.467 84.112 226.859 84.048 226.315 83.968V80.728C226.875 80.808 227.491 80.872 228.163 80.92C228.835 80.984 229.459 81.016 230.035 81.016C231.587 81.016 232.707 80.744 233.395 80.2C234.099 79.672 234.451 78.832 234.451 77.68V76.528C234.035 77.36 233.443 78 232.675 78.448C231.923 78.88 231.035 79.096 230.011 79.096C228.811 79.096 227.771 78.816 226.891 78.256C226.011 77.68 225.331 76.896 224.851 75.904C224.371 74.912 224.131 73.8 224.131 72.568V72.016C224.131 70.768 224.387 69.656 224.899 68.68C225.411 67.688 226.123 66.904 227.035 66.328C227.963 65.752 229.035 65.464 230.251 65.464C231.387 65.464 232.363 65.736 233.179 66.28C233.995 66.824 234.611 67.608 235.027 68.632V65.848H238.075V77.44C238.075 79.872 237.419 81.608 236.107 82.648C234.811 83.704 232.819 84.232 230.131 84.232ZM231.211 75.856C232.091 75.856 232.835 75.568 233.443 74.992C234.067 74.4 234.379 73.576 234.379 72.52V71.824C234.379 71.136 234.227 70.56 233.923 70.096C233.635 69.616 233.251 69.256 232.771 69.016C232.291 68.76 231.779 68.632 231.235 68.632C230.259 68.632 229.467 68.968 228.859 69.64C228.267 70.296 227.971 71.176 227.971 72.28C227.971 73.4 228.275 74.28 228.883 74.92C229.491 75.544 230.267 75.856 231.211 75.856ZM247.424 79.456C246.304 79.456 245.312 79.264 244.448 78.88C243.6 78.496 242.888 77.984 242.312 77.344C241.736 76.688 241.304 75.96 241.016 75.16C240.728 74.344 240.584 73.512 240.584 72.664V72.184C240.584 71.32 240.728 70.48 241.016 69.664C241.304 68.848 241.736 68.12 242.312 67.48C242.888 66.84 243.584 66.336 244.4 65.968C245.232 65.584 246.192 65.392 247.28 65.392C248.688 65.392 249.872 65.712 250.832 66.352C251.808 66.976 252.552 67.8 253.064 68.824C253.576 69.848 253.832 70.952 253.832 72.136V73.432H244.208C244.336 74.328 244.656 75.04 245.168 75.568C245.696 76.08 246.448 76.336 247.424 76.336C248.112 76.336 248.68 76.208 249.128 75.952C249.592 75.68 249.904 75.336 250.064 74.92H253.592C253.304 76.264 252.608 77.36 251.504 78.208C250.416 79.04 249.056 79.456 247.424 79.456ZM247.28 68.512C246.448 68.512 245.768 68.752 245.24 69.232C244.728 69.696 244.4 70.368 244.256 71.248H250.16C250.032 70.368 249.72 69.696 249.224 69.232C248.744 68.752 248.096 68.512 247.28 68.512ZM261.369 79.408C259.497 79.408 258.033 79.024 256.977 78.256C255.921 77.488 255.361 76.408 255.297 75.016H258.705C258.753 75.432 259.001 75.808 259.449 76.144C259.897 76.464 260.561 76.624 261.441 76.624C262.097 76.624 262.649 76.512 263.097 76.288C263.545 76.064 263.769 75.728 263.769 75.28C263.769 74.896 263.601 74.592 263.265 74.368C262.929 74.128 262.329 73.96 261.465 73.864L260.433 73.768C258.849 73.592 257.657 73.152 256.857 72.448C256.073 71.744 255.681 70.824 255.681 69.688C255.681 68.76 255.913 67.984 256.377 67.36C256.857 66.736 257.505 66.264 258.321 65.944C259.137 65.624 260.073 65.464 261.129 65.464C262.825 65.464 264.185 65.84 265.209 66.592C266.249 67.328 266.801 68.4 266.865 69.808H263.457C263.393 69.392 263.161 69.032 262.761 68.728C262.377 68.424 261.817 68.272 261.081 68.272C260.489 68.272 260.017 68.384 259.665 68.608C259.313 68.832 259.137 69.136 259.137 69.52C259.137 69.888 259.289 70.168 259.593 70.36C259.897 70.552 260.393 70.688 261.081 70.768L262.113 70.864C263.713 71.04 264.961 71.496 265.857 72.232C266.769 72.952 267.225 73.912 267.225 75.112C267.225 76.44 266.697 77.488 265.641 78.256C264.585 79.024 263.161 79.408 261.369 79.408Z" fill="url(#paint0_linear_239:770)"/>
<defs>
<linearGradient id="paint0_linear_239:770" x1="-1.1107e-06" y1="16.7237" x2="313.301" y2="33.4353" gradientUnits="userSpaceOnUse">
<stop offset="0.267495" stop-color="#FFC6CE"/>
<stop offset="1" stop-color="#64D6EE"/>
</linearGradient>
</defs>
</svg>
