<svg width="177" height="27" viewBox="0 0 177 27" fill="none" xmlns="http://www.w3.org/2000/svg">
<path d="M27.32 25.52C27.3733 25.52 27.4 25.6 27.4 25.76C27.4 25.92 27.3733 26 27.32 26H20.2C19.6133 26 18.52 24.9467 16.92 22.84C15.32 20.7067 13.3867 17.7333 11.12 13.92C10.9067 13.9467 10.6 13.96 10.2 13.96C9.16 13.96 8.42667 13.9467 8 13.92V22.76C8 23.5867 8.06667 24.1867 8.2 24.56C8.33333 24.9333 8.58667 25.1867 8.96 25.32C9.36 25.4533 9.98667 25.52 10.84 25.52C10.8933 25.52 10.92 25.6 10.92 25.76C10.92 25.92 10.8933 26 10.84 26C9.96 26 9.26667 25.9867 8.76 25.96L5.72 25.92L2.8 25.96C2.26667 25.9867 1.54667 26 0.64 26C0.56 26 0.52 25.92 0.52 25.76C0.52 25.6 0.56 25.52 0.64 25.52C1.49333 25.52 2.10667 25.4533 2.48 25.32C2.88 25.1867 3.14667 24.9333 3.28 24.56C3.44 24.16 3.52 23.56 3.52 22.76V4.24C3.52 3.44 3.45333 2.85333 3.32 2.48C3.18667 2.10667 2.92 1.85333 2.52 1.72C2.12 1.56 1.50667 1.48 0.68 1.48C0.626667 1.48 0.6 1.4 0.6 1.24C0.6 1.08 0.626667 1 0.68 1L2.8 1.04C4.02667 1.09333 5 1.12 5.72 1.12C6.62667 1.12 7.57333 1.08 8.56 1C8.90667 0.973332 9.33333 0.946665 9.84 0.919999C10.3733 0.893332 10.96 0.879999 11.6 0.879999C14.0267 0.879999 15.9067 1.33333 17.24 2.24C18.5733 3.12 19.24 4.36 19.24 5.96C19.24 7.42667 18.84 8.76 18.04 9.96C17.24 11.1333 16.1733 12.08 14.84 12.8C16.9733 16 18.76 18.5067 20.2 20.32C21.64 22.1333 22.92 23.4533 24.04 24.28C25.16 25.1067 26.2533 25.52 27.32 25.52ZM8 12.8C8.64 12.9067 9.41333 12.96 10.32 12.96C11.8667 12.96 12.9733 12.5333 13.64 11.68C14.3333 10.8 14.68 9.4 14.68 7.48C14.68 5.29333 14.36 3.78667 13.72 2.96C13.08 2.13333 12.16 1.72 10.96 1.72C9.89333 1.72 9.13333 1.92 8.68 2.32C8.22667 2.72 8 3.38667 8 4.32V12.8ZM46.7697 19.64C46.7697 19.5867 46.823 19.56 46.9297 19.56C47.0097 19.56 47.0764 19.5867 47.1297 19.64C47.2097 19.6667 47.2497 19.6933 47.2497 19.72C46.983 21.8 46.8497 23.6933 46.8497 25.4C46.8497 25.6133 46.8097 25.7733 46.7297 25.88C46.6497 25.96 46.4897 26 46.2497 26H28.5697C28.4897 26 28.4497 25.92 28.4497 25.76C28.4497 25.6 28.4897 25.52 28.5697 25.52C29.423 25.52 30.0364 25.4533 30.4097 25.32C30.8097 25.1867 31.0764 24.9333 31.2097 24.56C31.343 24.16 31.4097 23.56 31.4097 22.76V4.24C31.4097 3.44 31.343 2.85333 31.2097 2.48C31.0764 2.10667 30.8097 1.85333 30.4097 1.72C30.0097 1.56 29.3964 1.48 28.5697 1.48C28.4897 1.48 28.4497 1.4 28.4497 1.24C28.4497 1.08 28.4897 1 28.5697 1H45.5297C45.7964 1 45.9297 1.12 45.9297 1.36L46.0097 6.68C46.0097 6.73333 45.9297 6.77333 45.7697 6.8C45.6364 6.82667 45.5564 6.8 45.5297 6.72C45.103 5.17333 44.383 4.02667 43.3697 3.28C42.3564 2.53333 41.023 2.16 39.3697 2.16H38.1697C37.3697 2.16 36.783 2.33333 36.4097 2.68C36.0364 3.02667 35.8497 3.56 35.8497 4.28V12.44H39.1697C40.7164 12.44 41.903 12.1733 42.7297 11.64C43.5564 11.1067 43.9697 10.36 43.9697 9.4C43.9697 9.32 44.0364 9.28 44.1697 9.28C44.3297 9.28 44.4097 9.32 44.4097 9.4L44.3697 13L44.4097 14.92C44.463 15.8267 44.4897 16.5467 44.4897 17.08C44.4897 17.1333 44.4097 17.16 44.2497 17.16C44.0897 17.16 44.0097 17.1333 44.0097 17.08C44.0097 15.9867 43.583 15.1333 42.7297 14.52C41.903 13.88 40.703 13.56 39.1297 13.56H35.8497V22.6C35.8497 23.3733 35.9964 23.9467 36.2897 24.32C36.583 24.6933 37.0497 24.88 37.6897 24.88H39.0097C41.0897 24.88 42.7564 24.4533 44.0097 23.6C45.263 22.7467 46.183 21.4267 46.7697 19.64ZM62.04 26.16C61.1867 26.16 60.1733 26.12 59 26.04C58.5733 26.0133 58.04 25.9867 57.4 25.96C56.7867 25.9333 56.0933 25.92 55.32 25.92L52.36 25.96C51.8267 25.9867 51.1067 26 50.2 26C50.1467 26 50.12 25.92 50.12 25.76C50.12 25.6 50.1467 25.52 50.2 25.52C51.0533 25.52 51.68 25.4533 52.08 25.32C52.48 25.1867 52.7467 24.9333 52.88 24.56C53.04 24.16 53.12 23.56 53.12 22.76V4.24C53.12 3.44 53.04 2.85333 52.88 2.48C52.7467 2.10667 52.48 1.85333 52.08 1.72C51.7067 1.56 51.1067 1.48 50.28 1.48C50.2 1.48 50.16 1.4 50.16 1.24C50.16 1.08 50.2 1 50.28 1L52.4 1.04C53.6267 1.09333 54.6 1.12 55.32 1.12C56.4133 1.12 57.5333 1.08 58.68 1C60.0667 0.946666 61 0.919999 61.48 0.919999C64.1733 0.919999 66.56 1.45333 68.64 2.52C70.7467 3.58667 72.3733 5.04 73.52 6.88C74.6667 8.72 75.24 10.7867 75.24 13.08C75.24 15.6667 74.64 17.96 73.44 19.96C72.2667 21.9333 70.6667 23.4667 68.64 24.56C66.64 25.6267 64.44 26.16 62.04 26.16ZM61.64 25.24C63.3467 25.24 64.8533 24.8133 66.16 23.96C67.4667 23.08 68.48 21.7867 69.2 20.08C69.9467 18.3733 70.32 16.3333 70.32 13.96C70.32 11.6933 69.9733 9.64 69.28 7.8C68.5867 5.93333 67.6 4.46667 66.32 3.4C65.04 2.33333 63.56 1.8 61.88 1.8C60.2267 1.8 59.0933 1.96 58.48 2.28C57.8667 2.6 57.56 3.28 57.56 4.32V22.32C57.56 23.3867 57.84 24.1467 58.4 24.6C58.96 25.0267 60.04 25.24 61.64 25.24ZM97.0431 19.64C97.0431 19.5867 97.0965 19.56 97.2031 19.56C97.2831 19.56 97.3498 19.5867 97.4031 19.64C97.4831 19.6667 97.5231 19.6933 97.5231 19.72C97.2565 21.8 97.1231 23.6933 97.1231 25.4C97.1231 25.6133 97.0831 25.7733 97.0031 25.88C96.9231 25.96 96.7631 26 96.5231 26H78.8431C78.7631 26 78.7231 25.92 78.7231 25.76C78.7231 25.6 78.7631 25.52 78.8431 25.52C79.6965 25.52 80.3098 25.4533 80.6831 25.32C81.0831 25.1867 81.3498 24.9333 81.4831 24.56C81.6165 24.16 81.6831 23.56 81.6831 22.76V4.24C81.6831 3.44 81.6165 2.85333 81.4831 2.48C81.3498 2.10667 81.0831 1.85333 80.6831 1.72C80.2831 1.56 79.6698 1.48 78.8431 1.48C78.7631 1.48 78.7231 1.4 78.7231 1.24C78.7231 1.08 78.7631 1 78.8431 1H95.8031C96.0698 1 96.2031 1.12 96.2031 1.36L96.2831 6.68C96.2831 6.73333 96.2031 6.77333 96.0431 6.8C95.9098 6.82667 95.8298 6.8 95.8031 6.72C95.3765 5.17333 94.6565 4.02667 93.6431 3.28C92.6298 2.53333 91.2965 2.16 89.6431 2.16H88.4431C87.6431 2.16 87.0565 2.33333 86.6831 2.68C86.3098 3.02667 86.1231 3.56 86.1231 4.28V12.44H89.4431C90.9898 12.44 92.1765 12.1733 93.0031 11.64C93.8298 11.1067 94.2431 10.36 94.2431 9.4C94.2431 9.32 94.3098 9.28 94.4431 9.28C94.6031 9.28 94.6831 9.32 94.6831 9.4L94.6431 13L94.6831 14.92C94.7365 15.8267 94.7631 16.5467 94.7631 17.08C94.7631 17.1333 94.6831 17.16 94.5231 17.16C94.3631 17.16 94.2831 17.1333 94.2831 17.08C94.2831 15.9867 93.8565 15.1333 93.0031 14.52C92.1765 13.88 90.9765 13.56 89.4031 13.56H86.1231V22.6C86.1231 23.3733 86.2698 23.9467 86.5631 24.32C86.8565 24.6933 87.3231 24.88 87.9631 24.88H89.2831C91.3631 24.88 93.0298 24.4533 94.2831 23.6C95.5365 22.7467 96.4565 21.4267 97.0431 19.64ZM119.113 19.64C119.113 19.5867 119.167 19.56 119.273 19.56C119.353 19.56 119.42 19.5867 119.473 19.64C119.553 19.6667 119.593 19.6933 119.593 19.72C119.327 21.8 119.193 23.6933 119.193 25.4C119.193 25.6133 119.153 25.7733 119.073 25.88C118.993 25.96 118.833 26 118.593 26H100.913C100.833 26 100.793 25.92 100.793 25.76C100.793 25.6 100.833 25.52 100.913 25.52C101.767 25.52 102.38 25.4533 102.753 25.32C103.153 25.1867 103.42 24.9333 103.553 24.56C103.687 24.16 103.753 23.56 103.753 22.76V4.24C103.753 3.44 103.687 2.85333 103.553 2.48C103.42 2.10667 103.153 1.85333 102.753 1.72C102.353 1.56 101.74 1.48 100.913 1.48C100.833 1.48 100.793 1.4 100.793 1.24C100.793 1.08 100.833 1 100.913 1H117.873C118.14 1 118.273 1.12 118.273 1.36L118.353 6.68C118.353 6.73333 118.273 6.77333 118.113 6.8C117.98 6.82667 117.9 6.8 117.873 6.72C117.447 5.17333 116.727 4.02667 115.713 3.28C114.7 2.53333 113.367 2.16 111.713 2.16H110.513C109.713 2.16 109.127 2.33333 108.753 2.68C108.38 3.02667 108.193 3.56 108.193 4.28V12.44H111.513C113.06 12.44 114.247 12.1733 115.073 11.64C115.9 11.1067 116.313 10.36 116.313 9.4C116.313 9.32 116.38 9.28 116.513 9.28C116.673 9.28 116.753 9.32 116.753 9.4L116.713 13L116.753 14.92C116.807 15.8267 116.833 16.5467 116.833 17.08C116.833 17.1333 116.753 17.16 116.593 17.16C116.433 17.16 116.353 17.1333 116.353 17.08C116.353 15.9867 115.927 15.1333 115.073 14.52C114.247 13.88 113.047 13.56 111.473 13.56H108.193V22.6C108.193 23.3733 108.34 23.9467 108.633 24.32C108.927 24.6933 109.393 24.88 110.033 24.88H111.353C113.433 24.88 115.1 24.4533 116.353 23.6C117.607 22.7467 118.527 21.4267 119.113 19.64ZM141.184 19.64C141.184 19.5867 141.237 19.56 141.344 19.56C141.424 19.56 141.49 19.5867 141.544 19.64C141.624 19.6667 141.664 19.6933 141.664 19.72C141.397 21.8 141.264 23.6933 141.264 25.4C141.264 25.6133 141.224 25.7733 141.144 25.88C141.064 25.96 140.904 26 140.664 26H122.984C122.904 26 122.864 25.92 122.864 25.76C122.864 25.6 122.904 25.52 122.984 25.52C123.837 25.52 124.45 25.4533 124.824 25.32C125.224 25.1867 125.49 24.9333 125.624 24.56C125.757 24.16 125.824 23.56 125.824 22.76V4.24C125.824 3.44 125.757 2.85333 125.624 2.48C125.49 2.10667 125.224 1.85333 124.824 1.72C124.424 1.56 123.81 1.48 122.984 1.48C122.904 1.48 122.864 1.4 122.864 1.24C122.864 1.08 122.904 1 122.984 1H139.944C140.21 1 140.344 1.12 140.344 1.36L140.424 6.68C140.424 6.73333 140.344 6.77333 140.184 6.8C140.05 6.82667 139.97 6.8 139.944 6.72C139.517 5.17333 138.797 4.02667 137.784 3.28C136.77 2.53333 135.437 2.16 133.784 2.16H132.584C131.784 2.16 131.197 2.33333 130.824 2.68C130.45 3.02667 130.264 3.56 130.264 4.28V12.44H133.584C135.13 12.44 136.317 12.1733 137.144 11.64C137.97 11.1067 138.384 10.36 138.384 9.4C138.384 9.32 138.45 9.28 138.584 9.28C138.744 9.28 138.824 9.32 138.824 9.4L138.784 13L138.824 14.92C138.877 15.8267 138.904 16.5467 138.904 17.08C138.904 17.1333 138.824 17.16 138.664 17.16C138.504 17.16 138.424 17.1333 138.424 17.08C138.424 15.9867 137.997 15.1333 137.144 14.52C136.317 13.88 135.117 13.56 133.544 13.56H130.264V22.6C130.264 23.3733 130.41 23.9467 130.704 24.32C130.997 24.6933 131.464 24.88 132.104 24.88H133.424C135.504 24.88 137.17 24.4533 138.424 23.6C139.677 22.7467 140.597 21.4267 141.184 19.64ZM176.734 25.52C176.787 25.52 176.814 25.6 176.814 25.76C176.814 25.92 176.787 26 176.734 26C175.827 26 175.107 25.9867 174.574 25.96L171.614 25.92L168.614 25.96C168.107 25.9867 167.414 26 166.534 26C166.454 26 166.414 25.92 166.414 25.76C166.414 25.6 166.454 25.52 166.534 25.52C167.654 25.52 168.414 25.3867 168.814 25.12C169.214 24.8533 169.414 24.2933 169.414 23.44L169.374 22.76L168.534 6.4L160.294 25.72C160.241 25.8267 160.134 25.88 159.974 25.88C159.814 25.88 159.707 25.8267 159.654 25.72L149.534 6.48L149.214 20.92C149.187 22.36 149.467 23.4933 150.054 24.32C150.667 25.12 151.521 25.52 152.614 25.52C152.694 25.52 152.734 25.6 152.734 25.76C152.734 25.92 152.694 26 152.614 26C151.894 26 151.334 25.9867 150.934 25.96L148.734 25.92L146.214 25.96C145.787 25.9867 145.214 26 144.494 26C144.414 26 144.374 25.92 144.374 25.76C144.374 25.6 144.414 25.52 144.494 25.52C145.587 25.52 146.454 25.1067 147.094 24.28C147.734 23.4533 148.067 22.3333 148.094 20.92L148.454 4.36L148.414 4.32C147.881 3.33333 147.321 2.61333 146.734 2.16C146.174 1.70667 145.521 1.48 144.774 1.48C144.694 1.48 144.654 1.4 144.654 1.24C144.654 1.08 144.694 1 144.774 1L146.654 1.04C147.027 1.06667 147.507 1.08 148.094 1.08L150.214 1.04C150.454 1.01333 150.761 1 151.134 1C151.481 1 151.747 1.12 151.934 1.36C152.121 1.6 152.467 2.17333 152.974 3.08L161.694 19.44L169.294 2C169.454 1.62667 169.614 1.37333 169.774 1.24C169.961 1.08 170.201 1 170.494 1C170.734 1 171.001 1.01333 171.294 1.04C171.614 1.06667 171.974 1.08 172.374 1.08L174.734 1.04C175.107 1.01333 175.641 1 176.334 1C176.414 1 176.454 1.08 176.454 1.24C176.454 1.4 176.414 1.48 176.334 1.48C175.081 1.48 174.174 1.73333 173.614 2.24C173.054 2.74666 172.801 3.53333 172.854 4.6L173.814 22.76C173.867 23.5867 173.961 24.1867 174.094 24.56C174.254 24.9333 174.521 25.1867 174.894 25.32C175.294 25.4533 175.907 25.52 176.734 25.52Z" fill="url(#paint0_linear_239:703)"/>
<defs>
<linearGradient id="paint0_linear_239:703" x1="-1" y1="0.0526308" x2="310.081" y2="31.1648" gradientUnits="userSpaceOnUse">
<stop offset="0.267495" stop-color="#FFC6CE"/>
<stop offset="1" stop-color="#64D6EE"/>
</linearGradient>
</defs>
</svg>
