<svg width="290" height="100" viewBox="60 90 290 100" fill="none" xmlns="http://www.w3.org/2000/svg">
<g filter="url(#filter0_d_263:6038)">
<path d="M71.3506 128V98.8H78.7906V110.04H89.9106V98.8H97.3506V128H89.9106V116.52H78.7906V128H71.3506ZM113.945 128.8C111.358 128.8 109.145 128.293 107.305 127.28C105.465 126.24 104.065 124.867 103.105 123.16C102.145 121.453 101.665 119.573 101.665 117.52V116.56C101.665 114.4 102.158 112.467 103.145 110.76C104.158 109.027 105.585 107.653 107.425 106.64C109.265 105.627 111.438 105.12 113.945 105.12C116.451 105.12 118.625 105.627 120.465 106.64C122.305 107.653 123.718 109.027 124.705 110.76C125.718 112.467 126.225 114.4 126.225 116.56V117.52C126.225 119.573 125.745 121.453 124.785 123.16C123.825 124.867 122.425 126.24 120.585 127.28C118.771 128.293 116.558 128.8 113.945 128.8ZM113.945 122.72C115.598 122.72 116.838 122.187 117.665 121.12C118.518 120.053 118.945 118.693 118.945 117.04C118.945 115.333 118.505 113.933 117.625 112.84C116.771 111.747 115.545 111.2 113.945 111.2C112.345 111.2 111.105 111.747 110.225 112.84C109.371 113.933 108.945 115.333 108.945 117.04C108.945 118.693 109.358 120.053 110.185 121.12C111.038 122.187 112.291 122.72 113.945 122.72ZM130.21 136V105.92H135.97V111.56C136.61 109.533 137.677 107.987 139.17 106.92C140.664 105.827 142.45 105.28 144.53 105.28C146.557 105.28 148.317 105.76 149.81 106.72C151.304 107.68 152.464 109 153.29 110.68C154.117 112.36 154.53 114.28 154.53 116.44V117.4C154.53 119.56 154.144 121.493 153.37 123.2C152.624 124.907 151.504 126.253 150.01 127.24C148.544 128.227 146.73 128.72 144.57 128.72C143.05 128.72 141.677 128.453 140.45 127.92C139.25 127.387 138.264 126.573 137.49 125.48V136H130.21ZM142.37 122.72C143.81 122.72 144.984 122.187 145.89 121.12C146.797 120.027 147.25 118.627 147.25 116.92C147.25 115.213 146.797 113.853 145.89 112.84C145.01 111.8 143.837 111.28 142.37 111.28C141.49 111.28 140.664 111.48 139.89 111.88C139.144 112.28 138.53 112.867 138.05 113.64C137.57 114.413 137.33 115.347 137.33 116.44V117.8C137.33 118.84 137.584 119.733 138.09 120.48C138.597 121.2 139.237 121.76 140.01 122.16C140.784 122.533 141.57 122.72 142.37 122.72ZM170.695 104.16C169.388 104.16 168.415 103.827 167.775 103.16C167.161 102.467 166.855 101.587 166.855 100.52C166.855 99.4533 167.161 98.5867 167.775 97.92C168.415 97.2267 169.388 96.88 170.695 96.88C172.028 96.88 173.001 97.2267 173.615 97.92C174.228 98.5867 174.535 99.4533 174.535 100.52C174.535 101.587 174.228 102.467 173.615 103.16C173.001 103.827 172.028 104.16 170.695 104.16ZM167.735 128V111.2H164.935V105.92H175.015V128H167.735ZM180.367 128V105.92H186.127V111.72C186.553 109.533 187.393 107.907 188.647 106.84C189.9 105.747 191.527 105.2 193.527 105.2H193.847C196.353 105.2 198.287 106.04 199.647 107.72C201.033 109.373 201.727 111.92 201.727 115.36V128H194.447V115.16C194.447 114.147 194.14 113.32 193.527 112.68C192.94 112.013 192.127 111.68 191.087 111.68C190.047 111.68 189.207 112.013 188.567 112.68C187.953 113.32 187.647 114.173 187.647 115.24V128H180.367ZM225.781 128.8C223.194 128.8 220.981 128.293 219.141 127.28C217.301 126.24 215.901 124.867 214.941 123.16C213.981 121.453 213.501 119.573 213.501 117.52V116.56C213.501 114.4 213.994 112.467 214.981 110.76C215.994 109.027 217.421 107.653 219.261 106.64C221.101 105.627 223.274 105.12 225.781 105.12C228.287 105.12 230.461 105.627 232.301 106.64C234.141 107.653 235.554 109.027 236.541 110.76C237.554 112.467 238.061 114.4 238.061 116.56V117.52C238.061 119.573 237.581 121.453 236.621 123.16C235.661 124.867 234.261 126.24 232.421 127.28C230.607 128.293 228.394 128.8 225.781 128.8ZM225.781 122.72C227.434 122.72 228.674 122.187 229.501 121.12C230.354 120.053 230.781 118.693 230.781 117.04C230.781 115.333 230.341 113.933 229.461 112.84C228.607 111.747 227.381 111.2 225.781 111.2C224.181 111.2 222.941 111.747 222.061 112.84C221.207 113.933 220.781 115.333 220.781 117.04C220.781 118.693 221.194 120.053 222.021 121.12C222.874 122.187 224.127 122.72 225.781 122.72ZM242.046 128V105.92H247.806V111.72C248.233 109.533 249.073 107.907 250.326 106.84C251.58 105.747 253.206 105.2 255.206 105.2H255.526C258.033 105.2 259.966 106.04 261.326 107.72C262.713 109.373 263.406 111.92 263.406 115.36V128H256.126V115.16C256.126 114.147 255.82 113.32 255.206 112.68C254.62 112.013 253.806 111.68 252.766 111.68C251.726 111.68 250.886 112.013 250.246 112.68C249.633 113.32 249.326 114.173 249.326 115.24V128H242.046ZM286.98 128.32C284.58 128.32 282.66 128.027 281.22 127.44C279.807 126.853 278.78 125.88 278.14 124.52C277.5 123.16 277.18 121.32 277.18 119V111.2H273.98V105.92H277.22V100.16H283.94V105.92H289.98V111.2H283.9V119.2C283.9 121.227 284.914 122.24 286.94 122.24H289.98V128.32H286.98ZM293.882 128V98.8H301.162V109.48C302.309 106.627 304.429 105.2 307.522 105.2H307.842C310.242 105.2 312.069 106.067 313.322 107.8C314.602 109.533 315.242 112.08 315.242 115.44V128H307.962V115.16C307.962 114.147 307.656 113.32 307.042 112.68C306.429 112.013 305.616 111.68 304.602 111.68C303.589 111.68 302.762 112.013 302.122 112.68C301.482 113.32 301.162 114.173 301.162 115.24V128H293.882ZM330.492 128.8C328.626 128.8 326.972 128.48 325.532 127.84C324.092 127.2 322.879 126.333 321.892 125.24C320.906 124.147 320.146 122.92 319.612 121.56C319.106 120.2 318.852 118.8 318.852 117.36V116.56C318.852 115.067 319.106 113.64 319.612 112.28C320.146 110.893 320.892 109.667 321.852 108.6C322.839 107.533 324.039 106.693 325.452 106.08C326.866 105.44 328.466 105.12 330.252 105.12C332.626 105.12 334.639 105.653 336.292 106.72C337.946 107.787 339.212 109.2 340.092 110.96C340.972 112.693 341.412 114.587 341.412 116.64V118.96H325.732C325.972 120.213 326.479 121.2 327.252 121.92C328.026 122.613 329.106 122.96 330.492 122.96C332.519 122.96 333.812 122.32 334.372 121.04H341.012C340.692 122.533 340.052 123.867 339.092 125.04C338.159 126.213 336.959 127.133 335.492 127.8C334.052 128.467 332.386 128.8 330.492 128.8ZM330.252 110.96C329.052 110.96 328.052 111.307 327.252 112C326.479 112.667 325.972 113.68 325.732 115.04H334.572C334.119 112.32 332.679 110.96 330.252 110.96ZM168.347 178V161.68H165.867V156.4H168.347V156C168.347 150.88 171.307 148.32 177.227 148.32H180.067V153.68H177.067C175.733 153.68 175.067 154.347 175.067 155.68V156.4H180.387V161.68H175.067V178H168.347ZM190.579 178.72C188.072 178.72 186.126 177.907 184.739 176.28C183.379 174.627 182.699 172.107 182.699 168.72V155.92H189.979V168.92C189.979 169.907 190.272 170.707 190.859 171.32C191.446 171.933 192.232 172.24 193.219 172.24C194.206 172.24 195.006 171.933 195.619 171.32C196.232 170.707 196.539 169.88 196.539 168.84V155.92H203.819V178H198.059V172.8C197.606 174.827 196.779 176.32 195.579 177.28C194.379 178.24 192.819 178.72 190.899 178.72H190.579ZM209.195 178V155.92H214.955V161.72C215.381 159.533 216.221 157.907 217.475 156.84C218.728 155.747 220.355 155.2 222.355 155.2H222.675C225.181 155.2 227.115 156.04 228.475 157.72C229.861 159.373 230.555 161.92 230.555 165.36V178H223.275V165.16C223.275 164.147 222.968 163.32 222.355 162.68C221.768 162.013 220.955 161.68 219.915 161.68C218.875 161.68 218.035 162.013 217.395 162.68C216.781 163.32 216.475 164.173 216.475 165.24V178H209.195ZM235.565 167.76V148.8H243.005V167.76H235.565ZM235.045 178V171.04H243.525V178H235.045Z" fill="url(#paint0_linear_263:6038)"/>
<path d="M71.3506 128H70.3506V129H71.3506V128ZM71.3506 98.8V97.8H70.3506V98.8H71.3506ZM78.7906 98.8H79.7906V97.8H78.7906V98.8ZM78.7906 110.04H77.7906V111.04H78.7906V110.04ZM89.9106 110.04V111.04H90.9106V110.04H89.9106ZM89.9106 98.8V97.8H88.9106V98.8H89.9106ZM97.3506 98.8H98.3506V97.8H97.3506V98.8ZM97.3506 128V129H98.3506V128H97.3506ZM89.9106 128H88.9106V129H89.9106V128ZM89.9106 116.52H90.9106V115.52H89.9106V116.52ZM78.7906 116.52V115.52H77.7906V116.52H78.7906ZM78.7906 128V129H79.7906V128H78.7906ZM72.3506 128V98.8H70.3506V128H72.3506ZM71.3506 99.8H78.7906V97.8H71.3506V99.8ZM77.7906 98.8V110.04H79.7906V98.8H77.7906ZM78.7906 111.04H89.9106V109.04H78.7906V111.04ZM90.9106 110.04V98.8H88.9106V110.04H90.9106ZM89.9106 99.8H97.3506V97.8H89.9106V99.8ZM96.3506 98.8V128H98.3506V98.8H96.3506ZM97.3506 127H89.9106V129H97.3506V127ZM90.9106 128V116.52H88.9106V128H90.9106ZM89.9106 115.52H78.7906V117.52H89.9106V115.52ZM77.7906 116.52V128H79.7906V116.52H77.7906ZM78.7906 127H71.3506V129H78.7906V127ZM107.305 127.28L106.813 128.151L106.822 128.156L107.305 127.28ZM103.105 123.16L102.233 123.65L103.105 123.16ZM103.145 110.76L102.281 110.255L102.279 110.259L103.145 110.76ZM107.425 106.64L106.942 105.764L107.425 106.64ZM120.465 106.64L120.947 105.764H120.947L120.465 106.64ZM124.705 110.76L123.836 111.255L123.84 111.263L123.845 111.271L124.705 110.76ZM124.785 123.16L125.656 123.65L124.785 123.16ZM120.585 127.28L121.073 128.153L121.077 128.151L120.585 127.28ZM117.665 121.12L116.884 120.495L116.879 120.501L116.874 120.507L117.665 121.12ZM117.625 112.84L116.836 113.455L116.841 113.461L116.846 113.467L117.625 112.84ZM110.225 112.84L109.446 112.213L109.441 112.219L109.436 112.225L110.225 112.84ZM110.185 121.12L109.394 121.733L109.399 121.739L109.404 121.745L110.185 121.12ZM113.945 127.8C111.488 127.8 109.449 127.319 107.787 126.404L106.822 128.156C108.841 129.267 111.228 129.8 113.945 129.8V127.8ZM107.797 126.409C106.103 125.452 104.84 124.205 103.976 122.67L102.233 123.65C103.29 125.529 104.827 127.028 106.813 128.151L107.797 126.409ZM103.976 122.67C103.105 121.12 102.665 119.41 102.665 117.52H100.665C100.665 119.736 101.185 121.787 102.233 123.65L103.976 122.67ZM102.665 117.52V116.56H100.665V117.52H102.665ZM102.665 116.56C102.665 114.558 103.12 112.801 104.01 111.261L102.279 110.259C101.196 112.133 100.665 114.242 100.665 116.56H102.665ZM104.008 111.265C104.926 109.695 106.218 108.446 107.907 107.516L106.942 105.764C104.952 106.86 103.39 108.359 102.281 110.255L104.008 111.265ZM107.907 107.516C109.573 106.598 111.574 106.12 113.945 106.12V104.12C111.302 104.12 108.956 104.655 106.942 105.764L107.907 107.516ZM113.945 106.12C116.315 106.12 118.316 106.598 119.982 107.516L120.947 105.764C118.933 104.655 116.587 104.12 113.945 104.12V106.12ZM119.982 107.516C121.67 108.445 122.945 109.69 123.836 111.255L125.574 110.265C124.491 108.363 122.94 106.861 120.947 105.764L119.982 107.516ZM123.845 111.271C124.758 112.809 125.225 114.563 125.225 116.56H127.225C127.225 114.237 126.678 112.124 125.565 110.249L123.845 111.271ZM125.225 116.56V117.52H127.225V116.56H125.225ZM125.225 117.52C125.225 119.41 124.785 121.12 123.913 122.67L125.656 123.65C126.705 121.787 127.225 119.736 127.225 117.52H125.225ZM123.913 122.67C123.05 124.205 121.787 125.452 120.093 126.409L121.077 128.151C123.062 127.028 124.6 125.529 125.656 123.65L123.913 122.67ZM120.097 126.407C118.466 127.318 116.431 127.8 113.945 127.8V129.8C116.685 129.8 119.076 129.268 121.073 128.153L120.097 126.407ZM113.945 123.72C115.83 123.72 117.396 123.099 118.455 121.733L116.874 120.507C116.28 121.275 115.366 121.72 113.945 121.72V123.72ZM118.446 121.745C119.469 120.466 119.945 118.871 119.945 117.04H117.945C117.945 118.516 117.567 119.641 116.884 120.495L118.446 121.745ZM119.945 117.04C119.945 115.156 119.456 113.52 118.404 112.213L116.846 113.467C117.554 114.347 117.945 115.511 117.945 117.04H119.945ZM118.413 112.225C117.34 110.849 115.799 110.2 113.945 110.2V112.2C115.29 112.2 116.203 112.644 116.836 113.455L118.413 112.225ZM113.945 110.2C112.09 110.2 110.544 110.849 109.446 112.213L111.004 113.467C111.666 112.644 112.6 112.2 113.945 112.2V110.2ZM109.436 112.225C108.417 113.531 107.945 115.163 107.945 117.04H109.945C109.945 115.504 110.326 114.335 111.013 113.455L109.436 112.225ZM107.945 117.04C107.945 118.864 108.403 120.454 109.394 121.733L110.975 120.507C110.313 119.653 109.945 118.523 109.945 117.04H107.945ZM109.404 121.745C110.487 123.099 112.058 123.72 113.945 123.72V121.72C112.524 121.72 111.589 121.274 110.966 120.495L109.404 121.745ZM130.21 136H129.21V137H130.21V136ZM130.21 105.92V104.92H129.21V105.92H130.21ZM135.97 105.92H136.97V104.92H135.97V105.92ZM135.97 111.56H134.97L136.924 111.861L135.97 111.56ZM139.17 106.92L139.752 107.734L139.761 107.727L139.17 106.92ZM149.81 106.72L150.351 105.879L149.81 106.72ZM153.29 110.68L152.393 111.122L153.29 110.68ZM153.37 123.2L152.459 122.787L152.454 122.799L153.37 123.2ZM150.01 127.24L149.459 126.406L149.452 126.41L150.01 127.24ZM140.45 127.92L140.044 128.834L140.052 128.837L140.45 127.92ZM137.49 125.48L138.307 124.903L136.49 122.334V125.48H137.49ZM137.49 136V137H138.49V136H137.49ZM145.89 121.12L146.652 121.768L146.66 121.758L145.89 121.12ZM145.89 112.84L145.127 113.486L145.136 113.496L145.145 113.507L145.89 112.84ZM139.89 111.88L139.431 110.992L139.424 110.995L139.418 110.999L139.89 111.88ZM138.05 113.64L138.9 114.167L138.05 113.64ZM138.09 120.48L137.263 121.042L137.268 121.049L137.273 121.055L138.09 120.48ZM140.01 122.16L139.551 123.048L139.563 123.055L139.576 123.061L140.01 122.16ZM131.21 136V105.92H129.21V136H131.21ZM130.21 106.92H135.97V104.92H130.21V106.92ZM134.97 105.92V111.56H136.97V105.92H134.97ZM136.924 111.861C137.509 110.007 138.462 108.655 139.752 107.734L138.589 106.106C136.892 107.318 135.711 109.059 135.017 111.259L136.924 111.861ZM139.761 107.727C141.062 106.774 142.635 106.28 144.53 106.28V104.28C142.265 104.28 140.265 104.879 138.58 106.113L139.761 107.727ZM144.53 106.28C146.393 106.28 147.959 106.719 149.27 107.561L150.351 105.879C148.674 104.801 146.721 104.28 144.53 104.28V106.28ZM149.27 107.561C150.601 108.417 151.642 109.595 152.393 111.122L154.188 110.238C153.285 108.405 152.006 106.943 150.351 105.879L149.27 107.561ZM152.393 111.122C153.142 112.644 153.53 114.41 153.53 116.44H155.53C155.53 114.15 155.091 112.076 154.188 110.238L152.393 111.122ZM153.53 116.44V117.4H155.53V116.44H153.53ZM153.53 117.4C153.53 119.439 153.166 121.229 152.459 122.787L154.281 123.613C155.122 121.758 155.53 119.681 155.53 117.4H153.53ZM152.454 122.799C151.781 124.337 150.785 125.53 149.459 126.406L150.562 128.074C152.223 126.977 153.466 125.477 154.286 123.601L152.454 122.799ZM149.452 126.41C148.184 127.263 146.576 127.72 144.57 127.72V129.72C146.885 129.72 148.903 129.19 150.568 128.07L149.452 126.41ZM144.57 127.72C143.169 127.72 141.934 127.475 140.849 127.003L140.052 128.837C141.42 129.432 142.932 129.72 144.57 129.72V127.72ZM140.856 127.006C139.824 126.547 138.978 125.852 138.307 124.903L136.674 126.057C137.549 127.295 138.676 128.226 140.044 128.834L140.856 127.006ZM136.49 125.48V136H138.49V125.48H136.49ZM137.49 135H130.21V137H137.49V135ZM142.37 123.72C144.094 123.72 145.549 123.065 146.652 121.768L145.128 120.472C144.418 121.308 143.527 121.72 142.37 121.72V123.72ZM146.66 121.758C147.744 120.451 148.25 118.811 148.25 116.92H146.25C146.25 118.442 145.85 119.602 145.121 120.482L146.66 121.758ZM148.25 116.92C148.25 115.032 147.745 113.413 146.636 112.173L145.145 113.507C145.849 114.293 146.25 115.394 146.25 116.92H148.25ZM146.654 112.194C145.568 110.911 144.106 110.28 142.37 110.28V112.28C143.568 112.28 144.453 112.689 145.127 113.486L146.654 112.194ZM142.37 110.28C141.332 110.28 140.348 110.518 139.431 110.992L140.35 112.768C140.979 112.442 141.648 112.28 142.37 112.28V110.28ZM139.418 110.999C138.505 111.488 137.766 112.202 137.201 113.113L138.9 114.167C139.295 113.532 139.782 113.072 140.363 112.761L139.418 110.999ZM137.201 113.113C136.604 114.074 136.33 115.198 136.33 116.44H138.33C138.33 115.495 138.536 114.753 138.9 114.167L137.201 113.113ZM136.33 116.44V117.8H138.33V116.44H136.33ZM136.33 117.8C136.33 119.009 136.627 120.105 137.263 121.042L138.918 119.918C138.54 119.362 138.33 118.671 138.33 117.8H136.33ZM137.273 121.055C137.871 121.906 138.633 122.573 139.551 123.048L140.47 121.272C139.841 120.947 139.323 120.494 138.908 119.905L137.273 121.055ZM139.576 123.061C140.474 123.494 141.409 123.72 142.37 123.72V121.72C141.732 121.72 141.093 121.572 140.445 121.259L139.576 123.061ZM167.775 103.16L167.026 103.823L167.039 103.838L167.053 103.853L167.775 103.16ZM167.775 97.92L167.04 97.2417L167.039 97.2429L167.775 97.92ZM173.615 97.92L172.866 98.5826L172.872 98.5899L172.879 98.5971L173.615 97.92ZM173.615 103.16L174.351 103.837L174.357 103.83L174.364 103.823L173.615 103.16ZM167.735 128H166.735V129H167.735V128ZM167.735 111.2H168.735V110.2H167.735V111.2ZM164.935 111.2H163.935V112.2H164.935V111.2ZM164.935 105.92V104.92H163.935V105.92H164.935ZM175.015 105.92H176.015V104.92H175.015V105.92ZM175.015 128V129H176.015V128H175.015ZM170.695 103.16C169.546 103.16 168.881 102.868 168.496 102.467L167.053 103.853C167.949 104.785 169.23 105.16 170.695 105.16V103.16ZM168.524 102.497C168.096 102.015 167.855 101.382 167.855 100.52H165.855C165.855 101.791 166.226 102.919 167.026 103.823L168.524 102.497ZM167.855 100.52C167.855 99.6568 168.097 99.047 168.511 98.5971L167.039 97.2429C166.226 98.1263 165.855 99.2498 165.855 100.52H167.855ZM168.509 98.5983C168.896 98.1793 169.556 97.88 170.695 97.88V95.88C169.22 95.88 167.933 96.274 167.04 97.2417L168.509 98.5983ZM170.695 97.88C171.871 97.88 172.514 98.1846 172.866 98.5826L174.364 97.2574C173.489 96.2688 172.185 95.88 170.695 95.88V97.88ZM172.879 98.5971C173.293 99.047 173.535 99.6568 173.535 100.52H175.535C175.535 99.2498 175.163 98.1263 174.351 97.2429L172.879 98.5971ZM173.535 100.52C173.535 101.382 173.293 102.015 172.866 102.497L174.364 103.823C175.163 102.919 175.535 101.791 175.535 100.52H173.535ZM172.879 102.483C172.529 102.863 171.881 103.16 170.695 103.16V105.16C172.175 105.16 173.473 104.79 174.351 103.837L172.879 102.483ZM168.735 128V111.2H166.735V128H168.735ZM167.735 110.2H164.935V112.2H167.735V110.2ZM165.935 111.2V105.92H163.935V111.2H165.935ZM164.935 106.92H175.015V104.92H164.935V106.92ZM174.015 105.92V128H176.015V105.92H174.015ZM175.015 127H167.735V129H175.015V127ZM180.367 128H179.367V129H180.367V128ZM180.367 105.92V104.92H179.367V105.92H180.367ZM186.127 105.92H187.127V104.92H186.127V105.92ZM186.127 111.72H185.127L187.108 111.912L186.127 111.72ZM188.647 106.84L189.295 107.602L189.304 107.594L188.647 106.84ZM199.647 107.72L198.869 108.349L198.875 108.356L198.88 108.363L199.647 107.72ZM201.727 128V129H202.727V128H201.727ZM194.447 128H193.447V129H194.447V128ZM193.527 112.68L192.776 113.341L192.79 113.357L192.805 113.372L193.527 112.68ZM188.567 112.68L187.845 111.987L187.845 111.988L188.567 112.68ZM187.647 128V129H188.647V128H187.647ZM181.367 128V105.92H179.367V128H181.367ZM180.367 106.92H186.127V104.92H180.367V106.92ZM185.127 105.92V111.72H187.127V105.92H185.127ZM187.108 111.912C187.507 109.869 188.266 108.477 189.295 107.602L187.998 106.078C186.52 107.336 185.6 109.198 185.145 111.528L187.108 111.912ZM189.304 107.594C190.34 106.69 191.717 106.2 193.527 106.2V104.2C191.336 104.2 189.46 104.803 187.989 106.086L189.304 107.594ZM193.527 106.2H193.847V104.2H193.527V106.2ZM193.847 106.2C196.105 106.2 197.731 106.943 198.869 108.349L200.424 107.091C198.842 105.137 196.601 104.2 193.847 104.2V106.2ZM198.88 108.363C200.049 109.756 200.727 112.024 200.727 115.36H202.727C202.727 111.816 202.018 108.991 200.413 107.077L198.88 108.363ZM200.727 115.36V128H202.727V115.36H200.727ZM201.727 127H194.447V129H201.727V127ZM195.447 128V115.16H193.447V128H195.447ZM195.447 115.16C195.447 113.929 195.066 112.841 194.249 111.988L192.805 113.372C193.214 113.799 193.447 114.365 193.447 115.16H195.447ZM194.277 112.019C193.468 111.099 192.36 110.68 191.087 110.68V112.68C191.893 112.68 192.412 112.927 192.776 113.341L194.277 112.019ZM191.087 110.68C189.812 110.68 188.698 111.099 187.845 111.987L189.288 113.373C189.715 112.928 190.281 112.68 191.087 112.68V110.68ZM187.845 111.988C187.018 112.851 186.647 113.971 186.647 115.24H188.647C188.647 114.375 188.889 113.789 189.289 113.372L187.845 111.988ZM186.647 115.24V128H188.647V115.24H186.647ZM187.647 127H180.367V129H187.647V127ZM219.141 127.28L218.649 128.151L218.658 128.156L219.141 127.28ZM214.941 123.16L214.069 123.65L214.941 123.16ZM214.981 110.76L214.117 110.255L214.115 110.259L214.981 110.76ZM219.261 106.64L218.778 105.764L219.261 106.64ZM232.301 106.64L232.783 105.764L232.301 106.64ZM236.541 110.76L235.672 111.255L235.676 111.263L235.681 111.271L236.541 110.76ZM236.621 123.16L237.492 123.65L236.621 123.16ZM232.421 127.28L232.908 128.153L232.913 128.151L232.421 127.28ZM229.501 121.12L228.72 120.495L228.715 120.501L228.71 120.507L229.501 121.12ZM229.461 112.84L228.672 113.455L228.677 113.461L228.682 113.467L229.461 112.84ZM222.061 112.84L221.282 112.213L221.277 112.219L221.272 112.225L222.061 112.84ZM222.021 121.12L221.23 121.733L221.235 121.739L221.24 121.745L222.021 121.12ZM225.781 127.8C223.324 127.8 221.285 127.319 219.623 126.404L218.658 128.156C220.676 129.267 223.064 129.8 225.781 129.8V127.8ZM219.633 126.409C217.938 125.452 216.676 124.205 215.812 122.67L214.069 123.65C215.126 125.529 216.663 127.028 218.649 128.151L219.633 126.409ZM215.812 122.67C214.941 121.12 214.501 119.41 214.501 117.52H212.501C212.501 119.736 213.021 121.787 214.069 123.65L215.812 122.67ZM214.501 117.52V116.56H212.501V117.52H214.501ZM214.501 116.56C214.501 114.558 214.956 112.801 215.846 111.261L214.115 110.259C213.032 112.133 212.501 114.242 212.501 116.56H214.501ZM215.844 111.265C216.762 109.695 218.054 108.446 219.743 107.516L218.778 105.764C216.788 106.86 215.226 108.359 214.117 110.255L215.844 111.265ZM219.743 107.516C221.409 106.598 223.41 106.12 225.781 106.12V104.12C223.138 104.12 220.792 104.655 218.778 105.764L219.743 107.516ZM225.781 106.12C228.151 106.12 230.152 106.598 231.818 107.516L232.783 105.764C230.769 104.655 228.423 104.12 225.781 104.12V106.12ZM231.818 107.516C233.506 108.445 234.781 109.69 235.672 111.255L237.41 110.265C236.327 108.363 234.776 106.861 232.783 105.764L231.818 107.516ZM235.681 111.271C236.594 112.809 237.061 114.563 237.061 116.56H239.061C239.061 114.237 238.514 112.124 237.4 110.249L235.681 111.271ZM237.061 116.56V117.52H239.061V116.56H237.061ZM237.061 117.52C237.061 119.41 236.621 121.12 235.749 122.67L237.492 123.65C238.541 121.787 239.061 119.736 239.061 117.52H237.061ZM235.749 122.67C234.886 124.205 233.623 125.452 231.929 126.409L232.913 128.151C234.898 127.028 236.436 125.529 237.492 123.65L235.749 122.67ZM231.933 126.407C230.302 127.318 228.267 127.8 225.781 127.8V129.8C228.521 129.8 230.912 129.268 232.908 128.153L231.933 126.407ZM225.781 123.72C227.666 123.72 229.232 123.099 230.291 121.733L228.71 120.507C228.116 121.275 227.202 121.72 225.781 121.72V123.72ZM230.281 121.745C231.305 120.466 231.781 118.871 231.781 117.04H229.781C229.781 118.516 229.403 119.641 228.72 120.495L230.281 121.745ZM231.781 117.04C231.781 115.156 231.292 113.52 230.24 112.213L228.682 113.467C229.39 114.347 229.781 115.511 229.781 117.04H231.781ZM230.249 112.225C229.175 110.849 227.635 110.2 225.781 110.2V112.2C227.126 112.2 228.039 112.644 228.672 113.455L230.249 112.225ZM225.781 110.2C223.926 110.2 222.38 110.849 221.282 112.213L222.84 113.467C223.502 112.644 224.436 112.2 225.781 112.2V110.2ZM221.272 112.225C220.253 113.531 219.781 115.163 219.781 117.04H221.781C221.781 115.504 222.162 114.335 222.849 113.455L221.272 112.225ZM219.781 117.04C219.781 118.864 220.239 120.454 221.23 121.733L222.811 120.507C222.149 119.653 221.781 118.523 221.781 117.04H219.781ZM221.24 121.745C222.323 123.099 223.894 123.72 225.781 123.72V121.72C224.36 121.72 223.425 121.274 222.801 120.495L221.24 121.745ZM242.046 128H241.046V129H242.046V128ZM242.046 105.92V104.92H241.046V105.92H242.046ZM247.806 105.92H248.806V104.92H247.806V105.92ZM247.806 111.72H246.806L248.788 111.912L247.806 111.72ZM250.326 106.84L250.974 107.602L250.984 107.594L250.326 106.84ZM261.326 107.72L260.549 108.349L260.554 108.356L260.56 108.363L261.326 107.72ZM263.406 128V129H264.406V128H263.406ZM256.126 128H255.126V129H256.126V128ZM255.206 112.68L254.456 113.341L254.47 113.357L254.484 113.372L255.206 112.68ZM250.246 112.68L249.525 111.987L249.524 111.988L250.246 112.68ZM249.326 128V129H250.326V128H249.326ZM243.046 128V105.92H241.046V128H243.046ZM242.046 106.92H247.806V104.92H242.046V106.92ZM246.806 105.92V111.72H248.806V105.92H246.806ZM248.788 111.912C249.186 109.869 249.946 108.477 250.974 107.602L249.678 106.078C248.2 107.336 247.28 109.198 246.825 111.528L248.788 111.912ZM250.984 107.594C252.02 106.69 253.397 106.2 255.206 106.2V104.2C253.016 104.2 251.14 104.803 249.669 106.086L250.984 107.594ZM255.206 106.2H255.526V104.2H255.206V106.2ZM255.526 106.2C257.785 106.2 259.41 106.943 260.549 108.349L262.104 107.091C260.522 105.137 258.281 104.2 255.526 104.2V106.2ZM260.56 108.363C261.729 109.756 262.406 112.024 262.406 115.36H264.406C264.406 111.816 263.697 108.991 262.092 107.077L260.56 108.363ZM262.406 115.36V128H264.406V115.36H262.406ZM263.406 127H256.126V129H263.406V127ZM257.126 128V115.16H255.126V128H257.126ZM257.126 115.16C257.126 113.929 256.746 112.841 255.928 111.988L254.484 113.372C254.893 113.799 255.126 114.365 255.126 115.16H257.126ZM255.957 112.019C255.147 111.099 254.039 110.68 252.766 110.68V112.68C253.573 112.68 254.092 112.927 254.456 113.341L255.957 112.019ZM252.766 110.68C251.491 110.68 250.378 111.099 249.525 111.987L250.968 113.373C251.395 112.928 251.961 112.68 252.766 112.68V110.68ZM249.524 111.988C248.697 112.851 248.326 113.971 248.326 115.24H250.326C250.326 114.375 250.568 113.789 250.968 113.372L249.524 111.988ZM248.326 115.24V128H250.326V115.24H248.326ZM249.326 127H242.046V129H249.326V127ZM281.22 127.44L280.837 128.364L280.843 128.366L281.22 127.44ZM278.14 124.52L277.235 124.946L278.14 124.52ZM277.18 111.2H278.18V110.2H277.18V111.2ZM273.98 111.2H272.98V112.2H273.98V111.2ZM273.98 105.92V104.92H272.98V105.92H273.98ZM277.22 105.92V106.92H278.22V105.92H277.22ZM277.22 100.16V99.16H276.22V100.16H277.22ZM283.94 100.16H284.94V99.16H283.94V100.16ZM283.94 105.92H282.94V106.92H283.94V105.92ZM289.98 105.92H290.98V104.92H289.98V105.92ZM289.98 111.2V112.2H290.98V111.2H289.98ZM283.9 111.2V110.2H282.9V111.2H283.9ZM289.98 122.24H290.98V121.24H289.98V122.24ZM289.98 128.32V129.32H290.98V128.32H289.98ZM286.98 127.32C284.647 127.32 282.871 127.033 281.598 126.514L280.843 128.366C282.45 129.021 284.514 129.32 286.98 129.32V127.32ZM281.604 126.516C280.415 126.023 279.577 125.225 279.045 124.094L277.235 124.946C277.983 126.535 279.199 127.684 280.837 128.364L281.604 126.516ZM279.045 124.094C278.493 122.92 278.18 121.245 278.18 119H276.18C276.18 121.395 276.508 123.4 277.235 124.946L279.045 124.094ZM278.18 119V111.2H276.18V119H278.18ZM277.18 110.2H273.98V112.2H277.18V110.2ZM274.98 111.2V105.92H272.98V111.2H274.98ZM273.98 106.92H277.22V104.92H273.98V106.92ZM278.22 105.92V100.16H276.22V105.92H278.22ZM277.22 101.16H283.94V99.16H277.22V101.16ZM282.94 100.16V105.92H284.94V100.16H282.94ZM283.94 106.92H289.98V104.92H283.94V106.92ZM288.98 105.92V111.2H290.98V105.92H288.98ZM289.98 110.2H283.9V112.2H289.98V110.2ZM282.9 111.2V119.2H284.9V111.2H282.9ZM282.9 119.2C282.9 120.367 283.193 121.427 283.953 122.187C284.714 122.947 285.773 123.24 286.94 123.24V121.24C286.081 121.24 285.62 121.026 285.367 120.773C285.114 120.52 284.9 120.059 284.9 119.2H282.9ZM286.94 123.24H289.98V121.24H286.94V123.24ZM288.98 122.24V128.32H290.98V122.24H288.98ZM289.98 127.32H286.98V129.32H289.98V127.32ZM293.882 128H292.882V129H293.882V128ZM293.882 98.8V97.8H292.882V98.8H293.882ZM301.162 98.8H302.162V97.8H301.162V98.8ZM301.162 109.48H300.162L302.09 109.853L301.162 109.48ZM313.322 107.8L312.512 108.386L312.518 108.394L313.322 107.8ZM315.242 128V129H316.242V128H315.242ZM307.962 128H306.962V129H307.962V128ZM307.042 112.68L306.306 113.357L306.313 113.365L306.32 113.372L307.042 112.68ZM302.122 112.68L302.829 113.387L302.837 113.38L302.844 113.373L302.122 112.68ZM301.162 128V129H302.162V128H301.162ZM294.882 128V98.8H292.882V128H294.882ZM293.882 99.8H301.162V97.8H293.882V99.8ZM300.162 98.8V109.48H302.162V98.8H300.162ZM302.09 109.853C302.604 108.574 303.308 107.68 304.171 107.1C305.033 106.519 306.132 106.2 307.522 106.2V104.2C305.819 104.2 304.311 104.594 303.054 105.44C301.796 106.287 300.867 107.533 300.234 109.107L302.09 109.853ZM307.522 106.2H307.842V104.2H307.522V106.2ZM307.842 106.2C309.967 106.2 311.472 106.947 312.512 108.386L314.133 107.214C312.666 105.186 310.518 104.2 307.842 104.2V106.2ZM312.518 108.394C313.617 109.883 314.242 112.182 314.242 115.44H316.242C316.242 111.978 315.587 109.183 314.127 107.206L312.518 108.394ZM314.242 115.44V128H316.242V115.44H314.242ZM315.242 127H307.962V129H315.242V127ZM308.962 128V115.16H306.962V128H308.962ZM308.962 115.16C308.962 113.929 308.582 112.841 307.764 111.988L306.32 113.372C306.729 113.799 306.962 114.365 306.962 115.16H308.962ZM307.778 112.003C306.952 111.105 305.858 110.68 304.602 110.68V112.68C305.373 112.68 305.906 112.922 306.306 113.357L307.778 112.003ZM304.602 110.68C303.346 110.68 302.249 111.104 301.401 111.987L302.844 113.373C303.276 112.922 303.832 112.68 304.602 112.68V110.68ZM301.415 111.973C300.554 112.834 300.162 113.959 300.162 115.24H302.162C302.162 114.388 302.41 113.806 302.829 113.387L301.415 111.973ZM300.162 115.24V128H302.162V115.24H300.162ZM301.162 127H293.882V129H301.162V127ZM325.532 127.84L325.126 128.754L325.532 127.84ZM321.892 125.24L322.635 124.57L321.892 125.24ZM319.612 121.56L318.675 121.909L318.678 121.917L318.681 121.925L319.612 121.56ZM319.612 112.28L318.679 111.921L318.675 111.931L319.612 112.28ZM321.852 108.6L321.118 107.921L321.109 107.931L321.852 108.6ZM325.452 106.08L325.85 106.997L325.858 106.994L325.865 106.991L325.452 106.08ZM336.292 106.72L335.75 107.56L336.292 106.72ZM340.092 110.96L339.198 111.407L339.201 111.413L340.092 110.96ZM341.412 118.96V119.96H342.412V118.96H341.412ZM325.732 118.96V117.96H324.523L324.75 119.148L325.732 118.96ZM327.252 121.92L326.571 122.652L326.578 122.658L326.585 122.665L327.252 121.92ZM334.372 121.04V120.04H333.718L333.456 120.639L334.372 121.04ZM341.012 121.04L341.99 121.25L342.249 120.04H341.012V121.04ZM339.092 125.04L338.318 124.407L338.31 124.417L339.092 125.04ZM335.492 127.8L335.078 126.89L335.072 126.893L335.492 127.8ZM327.252 112L327.905 112.757L327.907 112.756L327.252 112ZM325.732 115.04L324.747 114.866L324.54 116.04H325.732V115.04ZM334.572 115.04V116.04H335.753L335.559 114.876L334.572 115.04ZM330.492 127.8C328.74 127.8 327.229 127.5 325.938 126.926L325.126 128.754C326.715 129.46 328.511 129.8 330.492 129.8V127.8ZM325.938 126.926C324.617 126.339 323.521 125.552 322.635 124.57L321.15 125.91C322.237 127.114 323.567 128.061 325.126 128.754L325.938 126.926ZM322.635 124.57C321.728 123.565 321.032 122.442 320.543 121.195L318.681 121.925C319.259 123.398 320.083 124.728 321.15 125.91L322.635 124.57ZM320.549 121.211C320.084 119.962 319.852 118.68 319.852 117.36H317.852C317.852 118.92 318.127 120.438 318.675 121.909L320.549 121.211ZM319.852 117.36V116.56H317.852V117.36H319.852ZM319.852 116.56C319.852 115.182 320.085 113.874 320.549 112.629L318.675 111.931C318.126 113.406 317.852 114.951 317.852 116.56H319.852ZM320.546 112.639C321.037 111.362 321.72 110.242 322.595 109.269L321.109 107.931C320.064 109.092 319.254 110.424 318.679 111.921L320.546 112.639ZM322.586 109.279C323.473 108.32 324.556 107.559 325.85 106.997L325.054 105.163C323.521 105.828 322.205 106.746 321.118 107.921L322.586 109.279ZM325.865 106.991C327.13 106.418 328.586 106.12 330.252 106.12V104.12C328.345 104.12 326.601 104.462 325.04 105.169L325.865 106.991ZM330.252 106.12C332.473 106.12 334.289 106.618 335.75 107.56L336.834 105.88C334.989 104.689 332.778 104.12 330.252 104.12V106.12ZM335.75 107.56C337.253 108.53 338.398 109.807 339.198 111.407L340.987 110.513C340.027 108.593 338.638 107.043 336.834 105.88L335.75 107.56ZM339.201 111.413C340.005 112.998 340.412 114.735 340.412 116.64H342.412C342.412 114.438 341.939 112.389 340.984 110.507L339.201 111.413ZM340.412 116.64V118.96H342.412V116.64H340.412ZM341.412 117.96H325.732V119.96H341.412V117.96ZM324.75 119.148C325.021 120.566 325.612 121.759 326.571 122.652L327.934 121.188C327.346 120.641 326.923 119.861 326.714 118.772L324.75 119.148ZM326.585 122.665C327.596 123.571 328.943 123.96 330.492 123.96V121.96C329.268 121.96 328.456 121.656 327.92 121.175L326.585 122.665ZM330.492 123.96C332.709 123.96 334.5 123.243 335.288 121.441L333.456 120.639C333.125 121.397 332.329 121.96 330.492 121.96V123.96ZM334.372 122.04H341.012V120.04H334.372V122.04ZM340.034 120.83C339.747 122.17 339.177 123.357 338.318 124.407L339.866 125.673C340.928 124.376 341.637 122.897 341.99 121.25L340.034 120.83ZM338.31 124.417C337.482 125.458 336.412 126.283 335.078 126.89L335.906 128.71C337.506 127.983 338.836 126.969 339.875 125.663L338.31 124.417ZM335.072 126.893C333.787 127.488 332.268 127.8 330.492 127.8V129.8C332.503 129.8 334.318 129.446 335.912 128.707L335.072 126.893ZM330.252 109.96C328.846 109.96 327.603 110.372 326.597 111.244L327.907 112.756C328.501 112.241 329.259 111.96 330.252 111.96V109.96ZM326.599 111.243C325.598 112.105 325.013 113.359 324.747 114.866L326.717 115.214C326.931 114.001 327.359 113.228 327.905 112.757L326.599 111.243ZM325.732 116.04H334.572V114.04H325.732V116.04ZM335.559 114.876C335.31 113.383 334.769 112.132 333.839 111.253C332.893 110.36 331.66 109.96 330.252 109.96V111.96C331.271 111.96 331.971 112.24 332.466 112.707C332.975 113.188 333.381 113.977 333.586 115.204L335.559 114.876ZM168.347 178H167.347V179H168.347V178ZM168.347 161.68H169.347V160.68H168.347V161.68ZM165.867 161.68H164.867V162.68H165.867V161.68ZM165.867 156.4V155.4H164.867V156.4H165.867ZM168.347 156.4V157.4H169.347V156.4H168.347ZM180.067 148.32H181.067V147.32H180.067V148.32ZM180.067 153.68V154.68H181.067V153.68H180.067ZM175.067 156.4H174.067V157.4H175.067V156.4ZM180.387 156.4H181.387V155.4H180.387V156.4ZM180.387 161.68V162.68H181.387V161.68H180.387ZM175.067 161.68V160.68H174.067V161.68H175.067ZM175.067 178V179H176.067V178H175.067ZM169.347 178V161.68H167.347V178H169.347ZM168.347 160.68H165.867V162.68H168.347V160.68ZM166.867 161.68V156.4H164.867V161.68H166.867ZM165.867 157.4H168.347V155.4H165.867V157.4ZM169.347 156.4V156H167.347V156.4H169.347ZM169.347 156C169.347 153.635 170.023 152.032 171.221 150.996C172.446 149.937 174.388 149.32 177.227 149.32V147.32C174.145 147.32 171.647 147.983 169.912 149.484C168.15 151.008 167.347 153.245 167.347 156H169.347ZM177.227 149.32H180.067V147.32H177.227V149.32ZM179.067 148.32V153.68H181.067V148.32H179.067ZM180.067 152.68H177.067V154.68H180.067V152.68ZM177.067 152.68C176.246 152.68 175.446 152.886 174.859 153.473C174.272 154.06 174.067 154.859 174.067 155.68H176.067C176.067 155.167 176.194 154.967 176.274 154.887C176.353 154.807 176.554 154.68 177.067 154.68V152.68ZM174.067 155.68V156.4H176.067V155.68H174.067ZM175.067 157.4H180.387V155.4H175.067V157.4ZM179.387 156.4V161.68H181.387V156.4H179.387ZM180.387 160.68H175.067V162.68H180.387V160.68ZM174.067 161.68V178H176.067V161.68H174.067ZM175.067 177H168.347V179H175.067V177ZM184.739 176.28L183.967 176.915L183.972 176.922L183.978 176.929L184.739 176.28ZM182.699 155.92V154.92H181.699V155.92H182.699ZM189.979 155.92H190.979V154.92H189.979V155.92ZM190.859 171.32L191.582 170.629L190.859 171.32ZM196.539 155.92V154.92H195.539V155.92H196.539ZM203.819 155.92H204.819V154.92H203.819V155.92ZM203.819 178V179H204.819V178H203.819ZM198.059 178H197.059V179H198.059V178ZM198.059 172.8H199.059L197.083 172.582L198.059 172.8ZM195.579 177.28L194.954 176.499L195.579 177.28ZM190.579 177.72C188.309 177.72 186.663 176.996 185.5 175.631L183.978 176.929C185.588 178.818 187.836 179.72 190.579 179.72V177.72ZM185.511 175.645C184.363 174.249 183.699 172.002 183.699 168.72H181.699C181.699 172.212 182.395 175.005 183.967 176.915L185.511 175.645ZM183.699 168.72V155.92H181.699V168.72H183.699ZM182.699 156.92H189.979V154.92H182.699V156.92ZM188.979 155.92V168.92H190.979V155.92H188.979ZM188.979 168.92C188.979 170.119 189.343 171.182 190.136 172.011L191.582 170.629C191.202 170.232 190.979 169.694 190.979 168.92H188.979ZM190.136 172.011C190.943 172.854 192.008 173.24 193.219 173.24V171.24C192.457 171.24 191.949 171.013 191.582 170.629L190.136 172.011ZM193.219 173.24C194.431 173.24 195.499 172.854 196.326 172.027L194.912 170.613C194.512 171.012 193.98 171.24 193.219 171.24V173.24ZM196.326 172.027C197.164 171.19 197.539 170.089 197.539 168.84H195.539C195.539 169.671 195.301 170.224 194.912 170.613L196.326 172.027ZM197.539 168.84V155.92H195.539V168.84H197.539ZM196.539 156.92H203.819V154.92H196.539V156.92ZM202.819 155.92V178H204.819V155.92H202.819ZM203.819 177H198.059V179H203.819V177ZM199.059 178V172.8H197.059V178H199.059ZM197.083 172.582C196.662 174.464 195.923 175.724 194.954 176.499L196.204 178.061C197.635 176.916 198.549 175.189 199.035 173.018L197.083 172.582ZM194.954 176.499C193.972 177.285 192.65 177.72 190.899 177.72V179.72C192.988 179.72 194.786 179.195 196.204 178.061L194.954 176.499ZM190.899 177.72H190.579V179.72H190.899V177.72ZM209.195 178H208.195V179H209.195V178ZM209.195 155.92V154.92H208.195V155.92H209.195ZM214.955 155.92H215.955V154.92H214.955V155.92ZM214.955 161.72H213.955L215.936 161.912L214.955 161.72ZM217.475 156.84L218.123 157.602L218.132 157.594L217.475 156.84ZM228.475 157.72L227.697 158.349L227.703 158.356L227.708 158.363L228.475 157.72ZM230.555 178V179H231.555V178H230.555ZM223.275 178H222.275V179H223.275V178ZM222.355 162.68L221.604 163.341L221.618 163.357L221.633 163.372L222.355 162.68ZM217.395 162.68L216.673 161.987L216.673 161.988L217.395 162.68ZM216.475 178V179H217.475V178H216.475ZM210.195 178V155.92H208.195V178H210.195ZM209.195 156.92H214.955V154.92H209.195V156.92ZM213.955 155.92V161.72H215.955V155.92H213.955ZM215.936 161.912C216.335 159.869 217.094 158.477 218.123 157.602L216.827 156.078C215.349 157.336 214.428 159.198 213.973 161.528L215.936 161.912ZM218.132 157.594C219.168 156.69 220.545 156.2 222.355 156.2V154.2C220.164 154.2 218.288 154.803 216.817 156.086L218.132 157.594ZM222.355 156.2H222.675V154.2H222.355V156.2ZM222.675 156.2C224.934 156.2 226.559 156.943 227.697 158.349L229.252 157.091C227.671 155.137 225.429 154.2 222.675 154.2V156.2ZM227.708 158.363C228.877 159.756 229.555 162.024 229.555 165.36H231.555C231.555 161.816 230.846 158.991 229.241 157.077L227.708 158.363ZM229.555 165.36V178H231.555V165.36H229.555ZM230.555 177H223.275V179H230.555V177ZM224.275 178V165.16H222.275V178H224.275ZM224.275 165.16C224.275 163.929 223.894 162.841 223.077 161.988L221.633 163.372C222.042 163.799 222.275 164.365 222.275 165.16H224.275ZM223.105 162.019C222.296 161.099 221.188 160.68 219.915 160.68V162.68C220.721 162.68 221.24 162.927 221.604 163.341L223.105 162.019ZM219.915 160.68C218.64 160.68 217.526 161.099 216.673 161.987L218.116 163.373C218.543 162.928 219.109 162.68 219.915 162.68V160.68ZM216.673 161.988C215.846 162.851 215.475 163.971 215.475 165.24H217.475C217.475 164.375 217.717 163.789 218.117 163.372L216.673 161.988ZM215.475 165.24V178H217.475V165.24H215.475ZM216.475 177H209.195V179H216.475V177ZM235.565 167.76H234.565V168.76H235.565V167.76ZM235.565 148.8V147.8H234.565V148.8H235.565ZM243.005 148.8H244.005V147.8H243.005V148.8ZM243.005 167.76V168.76H244.005V167.76H243.005ZM235.045 178H234.045V179H235.045V178ZM235.045 171.04V170.04H234.045V171.04H235.045ZM243.525 171.04H244.525V170.04H243.525V171.04ZM243.525 178V179H244.525V178H243.525ZM236.565 167.76V148.8H234.565V167.76H236.565ZM235.565 149.8H243.005V147.8H235.565V149.8ZM242.005 148.8V167.76H244.005V148.8H242.005ZM243.005 166.76H235.565V168.76H243.005V166.76ZM236.045 178V171.04H234.045V178H236.045ZM235.045 172.04H243.525V170.04H235.045V172.04ZM242.525 171.04V178H244.525V171.04H242.525ZM243.525 177H235.045V179H243.525V177Z" fill="#22262A"/>
</g>
<defs>
<filter id="filter0_d_263:6038" x="-28.6494" y="0.880005" width="470.062" height="281.84" filterUnits="userSpaceOnUse" color-interpolation-filters="sRGB">
<feFlood flood-opacity="0" result="BackgroundImageFix"/>
<feColorMatrix in="SourceAlpha" type="matrix" values="0 0 0 0 0 0 0 0 0 0 0 0 0 0 0 0 0 0 127 0" result="hardAlpha"/>
<feOffset dy="4"/>
<feGaussianBlur stdDeviation="50"/>
<feComposite in2="hardAlpha" operator="out"/>
<feColorMatrix type="matrix" values="0 0 0 0 0 0 0 0 0 0 0 0 0 0 0 0 0 0 0.25 0"/>
<feBlend mode="normal" in2="BackgroundImageFix" result="effect1_dropShadow_263:6038"/>
<feBlend mode="normal" in="SourceGraphic" in2="effect1_dropShadow_263:6038" result="shape"/>
</filter>
<linearGradient id="paint0_linear_263:6038" x1="40" y1="112.026" x2="364.193" y2="128.125" gradientUnits="userSpaceOnUse">
<stop offset="0.267495" stop-color="#FFC6CE"/>
<stop offset="1" stop-color="#64D6EE"/>
</linearGradient>
</defs>
</svg>
