<svg width="205" height="208" viewBox="0 0 205 208" fill="none" xmlns="http://www.w3.org/2000/svg">
<path d="M176.602 106.029L204.362 109.145L203.161 119.845C202.803 123.037 201.852 125.431 200.309 127.026C198.791 128.623 196.798 129.283 194.329 129.006L193.767 128.943C192.57 128.809 191.573 128.47 190.775 127.925C189.975 127.406 189.344 126.729 188.882 125.894C188.207 126.955 187.348 127.743 186.305 128.257C185.26 128.796 184.001 128.983 182.53 128.818L182.006 128.759C179.512 128.479 177.677 127.39 176.501 125.49C175.323 123.615 174.915 121.056 175.279 117.814L176.602 106.029ZM197.815 119.548L198.294 115.283L192.42 114.623L191.941 118.888C191.826 119.911 191.993 120.675 192.442 121.18C192.912 121.712 193.609 122.031 194.532 122.134C195.479 122.241 196.229 122.085 196.781 121.667C197.356 121.277 197.7 120.57 197.815 119.548ZM186.665 119.319L187.257 114.044L181.159 113.359L180.567 118.634C180.34 120.655 181.249 121.78 183.294 122.009C185.315 122.236 186.438 121.339 186.665 119.319Z" fill="white"/>
<path d="M176.602 106.029L204.362 109.145L203.161 119.845C202.803 123.037 201.852 125.431 200.309 127.026C198.791 128.623 196.798 129.283 194.329 129.006L193.767 128.943C192.57 128.809 191.573 128.47 190.775 127.925C189.975 127.406 189.344 126.729 188.882 125.894C188.207 126.955 187.348 127.743 186.305 128.257C185.26 128.796 184.001 128.983 182.53 128.818L182.006 128.759C179.512 128.479 177.677 127.39 176.501 125.49C175.323 123.615 174.915 121.056 175.279 117.814L176.602 106.029ZM197.815 119.548L198.294 115.283L192.42 114.623L191.941 118.888C191.826 119.911 191.993 120.675 192.442 121.18C192.912 121.712 193.609 122.031 194.532 122.134C195.479 122.241 196.229 122.085 196.781 121.667C197.356 121.277 197.7 120.57 197.815 119.548ZM186.665 119.319L187.257 114.044L181.159 113.359L180.567 118.634C180.34 120.655 181.249 121.78 183.294 122.009C185.315 122.236 186.438 121.339 186.665 119.319Z" fill="url(#paint0_linear_258:680)"/>
<path d="M176.602 106.029L176.711 105.057L175.739 104.948L175.63 105.92L176.602 106.029ZM204.362 109.145L205.334 109.254L205.443 108.282L204.471 108.173L204.362 109.145ZM200.309 127.026L199.606 126.346L199.6 126.352L200.309 127.026ZM190.775 127.925L191.326 127.117L191.317 127.111L191.307 127.105L190.775 127.925ZM188.882 125.894L189.737 125.421L188.94 123.98L188.056 125.369L188.882 125.894ZM186.305 128.257L185.873 127.38L185.865 127.384L185.857 127.388L186.305 128.257ZM176.501 125.49L177.333 124.975L177.329 124.969L176.501 125.49ZM198.294 115.283L199.266 115.392L199.375 114.42L198.403 114.311L198.294 115.283ZM192.42 114.623L192.529 113.651L191.557 113.542L191.448 114.514L192.42 114.623ZM192.442 121.18L193.175 120.532L193.173 120.53L192.442 121.18ZM196.781 121.667L196.232 120.858L196.211 120.872L196.191 120.887L196.781 121.667ZM187.257 114.044L188.229 114.153L188.338 113.181L187.366 113.072L187.257 114.044ZM181.159 113.359L181.268 112.387L180.296 112.278L180.187 113.25L181.159 113.359ZM176.493 107.001L204.253 110.117L204.471 108.173L176.711 105.057L176.493 107.001ZM203.39 109.036L202.189 119.736L204.133 119.954L205.334 109.254L203.39 109.036ZM202.189 119.736C201.844 122.806 200.944 124.962 199.606 126.346L201.012 127.706C202.759 125.9 203.761 123.268 204.133 119.954L202.189 119.736ZM199.6 126.352C198.322 127.697 196.647 128.282 194.438 128.034L194.219 129.978C196.949 130.285 199.26 129.55 201.018 127.699L199.6 126.352ZM194.438 128.034L193.876 127.971L193.658 129.915L194.219 129.978L194.438 128.034ZM193.876 127.971C192.799 127.85 191.963 127.552 191.326 127.117L190.224 128.733C191.182 129.387 192.341 129.767 193.658 129.915L193.876 127.971ZM191.307 127.105C190.642 126.673 190.122 126.115 189.737 125.421L188.026 126.368C188.565 127.343 189.308 128.139 190.243 128.746L191.307 127.105ZM188.056 125.369C187.47 126.292 186.742 126.951 185.873 127.38L186.738 129.134C187.955 128.534 188.944 127.619 189.707 126.419L188.056 125.369ZM185.857 127.388C185.023 127.818 183.968 127.995 182.639 127.846L182.421 129.79C184.035 129.971 185.497 129.775 186.754 129.126L185.857 127.388ZM182.639 127.846L182.115 127.787L181.897 129.731L182.421 129.79L182.639 127.846ZM182.115 127.787C179.878 127.536 178.33 126.586 177.333 124.975L175.669 126.004C177.024 128.193 179.146 129.423 181.897 129.731L182.115 127.787ZM177.329 124.969C176.313 123.352 175.901 121.045 176.251 117.923L174.307 117.705C173.93 121.067 174.332 123.877 175.673 126.01L177.329 124.969ZM176.251 117.923L177.574 106.138L175.63 105.92L174.307 117.705L176.251 117.923ZM198.787 119.657L199.266 115.392L197.322 115.174L196.843 119.439L198.787 119.657ZM198.403 114.311L192.529 113.651L192.311 115.595L198.184 116.255L198.403 114.311ZM191.448 114.514L190.969 118.779L192.913 118.998L193.392 114.733L191.448 114.514ZM190.969 118.779C190.84 119.933 190.999 121.029 191.71 121.829L193.173 120.53C192.987 120.321 192.813 119.889 192.913 118.998L190.969 118.779ZM191.708 121.827C192.384 122.592 193.334 122.984 194.423 123.106L194.641 121.162C193.883 121.077 193.44 120.833 193.175 120.532L191.708 121.827ZM194.423 123.106C195.524 123.23 196.555 123.065 197.372 122.447L196.191 120.887C195.904 121.104 195.435 121.251 194.641 121.162L194.423 123.106ZM197.331 122.476C198.237 121.86 198.656 120.824 198.787 119.657L196.843 119.439C196.744 120.317 196.474 120.693 196.232 120.858L197.331 122.476ZM187.637 119.428L188.229 114.153L186.285 113.935L185.693 119.21L187.637 119.428ZM187.366 113.072L181.268 112.387L181.05 114.331L187.148 115.016L187.366 113.072ZM180.187 113.25L179.595 118.525L181.539 118.744L182.131 113.468L180.187 113.25ZM179.595 118.525C179.464 119.688 179.642 120.772 180.318 121.608C180.992 122.442 182.016 122.85 183.185 122.981L183.403 121.037C182.528 120.939 182.074 120.669 181.839 120.379C181.606 120.09 181.442 119.601 181.539 118.744L179.595 118.525ZM183.185 122.981C184.345 123.111 185.426 122.939 186.262 122.271C187.098 121.604 187.507 120.588 187.637 119.428L185.693 119.21C185.596 120.07 185.329 120.513 185.042 120.742C184.754 120.972 184.264 121.134 183.403 121.037L183.185 122.981Z" fill="#22262A"/>
<path d="M174.682 122.7L200.768 132.043L196.921 142.782C195.711 146.161 194.003 148.548 191.796 149.944C189.614 151.348 187.069 151.53 184.163 150.489L183.596 150.286C181.729 149.618 180.306 148.641 179.327 147.357C178.347 146.073 177.801 144.545 177.69 142.772L166.38 145.879L169.096 138.294L178.914 135.893L180.26 132.136L172.321 129.292L174.682 122.7ZM191.252 141.192L192.877 136.655L185.328 133.951L183.703 138.488C183.288 139.645 183.289 140.685 183.705 141.608C184.137 142.562 184.931 143.246 186.089 143.661C187.247 144.076 188.295 144.051 189.234 143.588C190.165 143.148 190.838 142.349 191.252 141.192Z" fill="white"/>
<path d="M174.682 122.7L200.768 132.043L196.921 142.782C195.711 146.161 194.003 148.548 191.796 149.944C189.614 151.348 187.069 151.53 184.163 150.489L183.596 150.286C181.729 149.618 180.306 148.641 179.327 147.357C178.347 146.073 177.801 144.545 177.69 142.772L166.38 145.879L169.096 138.294L178.914 135.893L180.26 132.136L172.321 129.292L174.682 122.7ZM191.252 141.192L192.877 136.655L185.328 133.951L183.703 138.488C183.288 139.645 183.289 140.685 183.705 141.608C184.137 142.562 184.931 143.246 186.089 143.661C187.247 144.076 188.295 144.051 189.234 143.588C190.165 143.148 190.838 142.349 191.252 141.192Z" fill="url(#paint1_linear_258:680)"/>
<path d="M174.682 122.7L175.012 121.779L174.091 121.449L173.761 122.37L174.682 122.7ZM200.768 132.043L201.688 132.373L202.018 131.452L201.097 131.122L200.768 132.043ZM191.796 149.944L191.273 149.118L191.267 149.122L191.796 149.944ZM179.327 147.357L178.549 147.951L178.549 147.951L179.327 147.357ZM177.69 142.772L178.666 142.711L178.59 141.51L177.431 141.829L177.69 142.772ZM166.38 145.879L165.459 145.549L164.824 147.321L166.639 146.822L166.38 145.879ZM169.096 138.294L168.864 137.344L168.353 137.469L168.175 137.965L169.096 138.294ZM178.914 135.893L179.147 136.843L179.658 136.718L179.835 136.222L178.914 135.893ZM180.26 132.136L181.181 132.465L181.51 131.545L180.59 131.215L180.26 132.136ZM172.321 129.292L171.4 128.962L171.07 129.883L171.991 130.213L172.321 129.292ZM192.877 136.655L193.798 136.985L194.128 136.064L193.207 135.734L192.877 136.655ZM185.328 133.951L185.658 133.03L184.737 132.7L184.407 133.621L185.328 133.951ZM183.705 141.608L182.814 142.01L182.814 142.01L183.705 141.608ZM189.234 143.588L188.816 142.704L188.809 142.707L188.802 142.711L189.234 143.588ZM174.352 123.621L200.438 132.964L201.097 131.122L175.012 121.779L174.352 123.621ZM199.847 131.713L196 142.452L197.842 143.112L201.688 132.373L199.847 131.713ZM196 142.452C194.836 145.702 193.237 147.875 191.273 149.118L192.319 150.771C194.768 149.221 196.585 146.62 197.842 143.112L196 142.452ZM191.267 149.122C189.39 150.329 187.174 150.529 184.493 149.568L183.833 151.41C186.965 152.532 189.838 152.368 192.326 150.767L191.267 149.122ZM184.493 149.568L183.926 149.365L183.266 151.207L183.833 151.41L184.493 149.568ZM183.926 149.365C182.196 148.746 180.946 147.867 180.104 146.764L178.549 147.951C179.667 149.416 181.263 150.489 183.266 151.207L183.926 149.365ZM180.104 146.764C179.253 145.649 178.767 144.31 178.666 142.711L176.714 142.833C176.836 144.779 177.44 146.498 178.549 147.951L180.104 146.764ZM177.431 141.829L166.121 144.936L166.639 146.822L177.949 143.715L177.431 141.829ZM167.3 146.209L170.017 138.624L168.175 137.965L165.459 145.549L167.3 146.209ZM169.329 139.245L179.147 136.843L178.682 134.942L168.864 137.344L169.329 139.245ZM179.835 136.222L181.181 132.465L179.339 131.806L177.993 135.563L179.835 136.222ZM180.59 131.215L172.651 128.371L171.991 130.213L179.93 133.057L180.59 131.215ZM173.242 129.622L175.603 123.03L173.761 122.37L171.4 128.962L173.242 129.622ZM192.173 141.521L193.798 136.985L191.956 136.325L190.332 140.862L192.173 141.521ZM193.207 135.734L185.658 133.03L184.998 134.872L192.547 137.576L193.207 135.734ZM184.407 133.621L182.782 138.158L184.624 138.817L186.249 134.281L184.407 133.621ZM182.782 138.158C182.302 139.5 182.272 140.809 182.814 142.01L184.597 141.205C184.307 140.562 184.275 139.791 184.624 138.817L182.782 138.158ZM182.814 142.01C183.374 143.248 184.399 144.095 185.759 144.582L186.419 142.74C185.464 142.398 184.9 141.875 184.597 141.205L182.814 142.01ZM185.759 144.582C187.119 145.069 188.449 145.066 189.667 144.465L188.802 142.711C188.142 143.036 187.374 143.082 186.419 142.74L185.759 144.582ZM189.652 144.472C190.862 143.901 191.689 142.872 192.173 141.521L190.332 140.862C189.986 141.826 189.468 142.396 188.816 142.704L189.652 144.472Z" fill="#22262A"/>
<path d="M169.779 137.243L187.744 159.829L181.515 169.16L153.599 161.477L157.613 155.466L164.012 157.339L170.095 148.227L165.891 143.067L169.779 137.243ZM173.893 152.845L169.775 159.013L179.577 161.891L180.351 160.733L173.893 152.845Z" fill="white"/>
<path d="M169.779 137.243L187.744 159.829L181.515 169.16L153.599 161.477L157.613 155.466L164.012 157.339L170.095 148.227L165.891 143.067L169.779 137.243ZM173.893 152.845L169.775 159.013L179.577 161.891L180.351 160.733L173.893 152.845Z" fill="url(#paint2_linear_258:680)"/>
<path d="M169.779 137.243L170.544 136.634L169.709 135.585L168.965 136.7L169.779 137.243ZM187.744 159.829L188.557 160.372L188.954 159.779L188.509 159.22L187.744 159.829ZM181.515 169.16L181.255 170.103L181.936 170.29L182.328 169.703L181.515 169.16ZM153.599 161.477L152.786 160.934L152.034 162.061L153.34 162.42L153.599 161.477ZM157.613 155.466L157.888 154.527L157.198 154.325L156.799 154.923L157.613 155.466ZM164.012 157.339L163.737 158.278L164.427 158.479L164.826 157.882L164.012 157.339ZM170.095 148.227L170.909 148.771L171.31 148.17L170.853 147.61L170.095 148.227ZM165.891 143.067L165.077 142.523L164.676 143.124L165.132 143.684L165.891 143.067ZM173.893 152.845L174.649 152.225L173.813 151.203L173.079 152.302L173.893 152.845ZM169.775 159.013L168.961 158.47L168.222 159.577L169.499 159.952L169.775 159.013ZM179.577 161.891L179.302 162.83L179.992 163.032L180.391 162.434L179.577 161.891ZM180.351 160.733L181.164 161.276L181.566 160.673L181.108 160.113L180.351 160.733ZM169.013 137.852L186.978 160.438L188.509 159.22L170.544 136.634L169.013 137.852ZM186.93 159.286L180.701 168.617L182.328 169.703L188.557 160.372L186.93 159.286ZM181.774 168.217L153.859 160.534L153.34 162.42L181.255 170.103L181.774 168.217ZM154.413 162.02L158.426 156.009L156.799 154.923L152.786 160.934L154.413 162.02ZM157.338 156.404L163.737 158.278L164.287 156.4L157.888 154.527L157.338 156.404ZM164.826 157.882L170.909 148.771L169.282 147.684L163.199 156.796L164.826 157.882ZM170.853 147.61L166.649 142.449L165.132 143.684L169.337 148.845L170.853 147.61ZM166.704 143.61L170.592 137.786L168.965 136.7L165.077 142.523L166.704 143.61ZM173.079 152.302L168.961 158.47L170.588 159.556L174.706 153.388L173.079 152.302ZM169.499 159.952L179.302 162.83L179.853 160.953L170.05 158.075L169.499 159.952ZM180.391 162.434L181.164 161.276L179.537 160.19L178.764 161.348L180.391 162.434ZM181.108 160.113L174.649 152.225L173.136 153.465L179.594 161.352L181.108 160.113Z" fill="#22262A"/>
<path d="M157.002 154.925L176.364 174.428L171.395 179.361L152.033 159.858L157.002 154.925Z" fill="white"/>
<path d="M157.002 154.925L176.364 174.428L171.395 179.361L152.033 159.858L157.002 154.925Z" fill="url(#paint3_linear_258:680)"/>
<path d="M157.002 154.925L157.696 154.235L157.007 153.541L156.313 154.23L157.002 154.925ZM176.364 174.428L177.054 175.122L177.748 174.433L177.059 173.739L176.364 174.428ZM171.395 179.361L170.701 180.051L171.39 180.745L172.084 180.056L171.395 179.361ZM152.033 159.858L151.344 159.164L150.65 159.853L151.339 160.547L152.033 159.858ZM156.308 155.614L175.67 175.117L177.059 173.739L157.696 154.235L156.308 155.614ZM175.675 173.734L170.706 178.667L172.084 180.056L177.054 175.122L175.675 173.734ZM172.089 178.672L152.727 159.169L151.339 160.547L170.701 180.051L172.089 178.672ZM152.722 160.552L157.691 155.619L156.313 154.23L151.344 159.164L152.722 160.552Z" fill="#22262A"/>
<path d="M149.787 162.318L164.794 185.341L155.175 191.612L135.546 178.252L135.073 178.56L147.038 196.916L141.55 200.493L126.543 177.469L136.225 171.158L155.854 184.518L156.327 184.21L144.362 165.854L149.787 162.318Z" fill="white"/>
<path d="M149.787 162.318L164.794 185.341L155.175 191.612L135.546 178.252L135.073 178.56L147.038 196.916L141.55 200.493L126.543 177.469L136.225 171.158L155.854 184.518L156.327 184.21L144.362 165.854L149.787 162.318Z" fill="url(#paint4_linear_258:680)"/>
<path d="M149.787 162.318L150.606 161.784L150.072 160.965L149.253 161.499L149.787 162.318ZM164.794 185.341L165.328 186.161L166.148 185.627L165.613 184.807L164.794 185.341ZM155.175 191.612L154.624 192.42L155.163 192.787L155.709 192.431L155.175 191.612ZM135.546 178.252L136.097 177.443L135.558 177.076L135.012 177.432L135.546 178.252ZM135.073 178.56L134.539 177.741L133.72 178.275L134.254 179.094L135.073 178.56ZM147.038 196.916L147.572 197.735L148.391 197.201L147.857 196.381L147.038 196.916ZM141.55 200.493L140.731 201.027L141.265 201.846L142.084 201.312L141.55 200.493ZM126.543 177.469L126.009 176.65L125.189 177.184L125.723 178.004L126.543 177.469ZM136.225 171.158L136.775 170.35L136.237 169.983L135.691 170.339L136.225 171.158ZM155.854 184.518L155.303 185.327L155.842 185.693L156.388 185.337L155.854 184.518ZM156.327 184.21L156.861 185.029L157.68 184.495L157.146 183.676L156.327 184.21ZM144.362 165.854L143.828 165.035L143.009 165.569L143.543 166.388L144.362 165.854ZM148.967 162.852L163.975 185.876L165.613 184.807L150.606 161.784L148.967 162.852ZM164.26 184.522L154.641 190.792L155.709 192.431L165.328 186.161L164.26 184.522ZM155.725 190.803L136.097 177.443L134.996 179.06L154.624 192.42L155.725 190.803ZM135.012 177.432L134.539 177.741L135.607 179.379L136.08 179.071L135.012 177.432ZM134.254 179.094L146.218 197.45L147.857 196.381L135.892 178.026L134.254 179.094ZM146.504 196.096L141.016 199.673L142.084 201.312L147.572 197.735L146.504 196.096ZM142.37 199.958L127.362 176.935L125.723 178.004L140.731 201.027L142.37 199.958ZM127.077 178.289L136.759 171.978L135.691 170.339L126.009 176.65L127.077 178.289ZM135.675 171.967L155.303 185.327L156.404 183.709L136.775 170.35L135.675 171.967ZM156.388 185.337L156.861 185.029L155.793 183.39L155.32 183.699L156.388 185.337ZM157.146 183.676L145.181 165.32L143.543 166.388L155.507 184.744L157.146 183.676ZM144.896 166.674L150.321 163.138L149.253 161.499L143.828 165.035L144.896 166.674Z" fill="#22262A"/>
<path d="M120.777 175.993C123.135 175.208 125.294 174.939 127.254 175.186C129.222 175.457 130.976 176.076 132.515 177.045C134.062 178.038 135.36 179.233 136.407 180.63C137.454 182.028 138.223 183.464 138.715 184.941L138.976 185.727C139.523 187.37 139.796 189.064 139.796 190.81C139.779 192.588 139.437 194.302 138.77 195.953C138.079 197.612 137.026 199.099 135.613 200.416C134.2 201.733 132.374 202.764 130.136 203.509C127.754 204.302 125.496 204.551 123.361 204.257C121.211 203.994 119.306 203.239 117.648 201.993C115.997 200.77 114.724 199.13 113.828 197.074L120.472 194.862C121.154 196.117 122.178 196.966 123.543 197.411C124.915 197.88 126.423 197.841 128.067 197.294C130.138 196.604 131.532 195.387 132.247 193.641C132.938 191.903 132.895 189.867 132.118 187.534C131.341 185.2 130.132 183.552 128.489 182.591C126.846 181.63 124.966 181.503 122.846 182.208C121.179 182.763 119.909 183.636 119.035 184.826C118.138 186.024 117.796 187.341 118.01 188.778L111.366 190.99C110.93 188.966 110.991 186.962 111.547 184.978C112.103 182.994 113.148 181.204 114.68 179.61C116.221 178.039 118.253 176.833 120.777 175.993Z" fill="white"/>
<path d="M120.777 175.993C123.135 175.208 125.294 174.939 127.254 175.186C129.222 175.457 130.976 176.076 132.515 177.045C134.062 178.038 135.36 179.233 136.407 180.63C137.454 182.028 138.223 183.464 138.715 184.941L138.976 185.727C139.523 187.37 139.796 189.064 139.796 190.81C139.779 192.588 139.437 194.302 138.77 195.953C138.079 197.612 137.026 199.099 135.613 200.416C134.2 201.733 132.374 202.764 130.136 203.509C127.754 204.302 125.496 204.551 123.361 204.257C121.211 203.994 119.306 203.239 117.648 201.993C115.997 200.77 114.724 199.13 113.828 197.074L120.472 194.862C121.154 196.117 122.178 196.966 123.543 197.411C124.915 197.88 126.423 197.841 128.067 197.294C130.138 196.604 131.532 195.387 132.247 193.641C132.938 191.903 132.895 189.867 132.118 187.534C131.341 185.2 130.132 183.552 128.489 182.591C126.846 181.63 124.966 181.503 122.846 182.208C121.179 182.763 119.909 183.636 119.035 184.826C118.138 186.024 117.796 187.341 118.01 188.778L111.366 190.99C110.93 188.966 110.991 186.962 111.547 184.978C112.103 182.994 113.148 181.204 114.68 179.61C116.221 178.039 118.253 176.833 120.777 175.993Z" fill="url(#paint5_linear_258:680)"/>
<path d="M127.254 175.186L127.387 174.217L127.376 174.216L127.254 175.186ZM132.515 177.045L133.043 176.222L133.036 176.217L132.515 177.045ZM136.407 180.63L135.624 181.217L135.624 181.217L136.407 180.63ZM139.796 190.81L140.774 190.82L140.774 190.811L139.796 190.81ZM138.77 195.953L139.673 196.329L139.677 196.32L138.77 195.953ZM135.613 200.416L136.28 201.132L135.613 200.416ZM123.361 204.257L123.495 203.288L123.487 203.287L123.48 203.286L123.361 204.257ZM117.648 201.993L118.236 201.211L118.23 201.207L117.648 201.993ZM113.828 197.074L113.519 196.146L112.504 196.484L112.931 197.465L113.828 197.074ZM120.472 194.862L121.331 194.395L120.94 193.676L120.163 193.934L120.472 194.862ZM123.543 197.411L123.859 196.486L123.846 196.481L123.543 197.411ZM132.247 193.641L133.152 194.012L133.156 194.002L132.247 193.641ZM128.489 182.591L127.995 183.436L128.489 182.591ZM119.035 184.826L119.818 185.412L119.824 185.405L119.035 184.826ZM118.01 188.778L118.319 189.706L119.098 189.447L118.978 188.634L118.01 188.778ZM111.366 190.99L110.41 191.196L110.64 192.262L111.675 191.918L111.366 190.99ZM111.547 184.978L112.489 185.242L111.547 184.978ZM114.68 179.61L113.982 178.925L113.975 178.932L114.68 179.61ZM121.086 176.921C123.34 176.171 125.349 175.932 127.132 176.156L127.376 174.216C125.238 173.946 122.93 174.246 120.468 175.065L121.086 176.921ZM127.121 176.155C128.964 176.408 130.583 176.985 131.994 177.873L133.036 176.217C131.369 175.168 129.48 174.505 127.387 174.217L127.121 176.155ZM131.987 177.869C133.441 178.802 134.651 179.918 135.624 181.217L137.189 180.044C136.069 178.548 134.684 177.274 133.043 176.222L131.987 177.869ZM135.624 181.217C136.616 182.54 137.332 183.884 137.786 185.25L139.643 184.632C139.114 183.044 138.292 181.515 137.189 180.044L135.624 181.217ZM137.786 185.25L138.048 186.036L139.904 185.418L139.643 184.632L137.786 185.25ZM138.048 186.036C138.562 187.578 138.818 189.168 138.817 190.81L140.774 190.811C140.774 188.96 140.485 187.161 139.904 185.418L138.048 186.036ZM138.818 190.801C138.802 192.456 138.484 194.049 137.863 195.586L139.677 196.32C140.39 194.556 140.756 192.72 140.774 190.82L138.818 190.801ZM137.867 195.577C137.233 197.097 136.265 198.471 134.946 199.701L136.28 201.132C137.787 199.727 138.924 198.126 139.673 196.329L137.867 195.577ZM134.946 199.701C133.656 200.903 131.961 201.871 129.827 202.581L130.445 204.437C132.787 203.658 134.744 202.563 136.28 201.132L134.946 199.701ZM129.827 202.581C127.564 203.334 125.458 203.559 123.495 203.288L123.228 205.226C125.534 205.544 127.944 205.27 130.445 204.437L129.827 202.581ZM123.48 203.286C121.492 203.043 119.751 202.35 118.236 201.211L117.06 202.774C118.862 204.129 120.93 204.945 123.243 205.228L123.48 203.286ZM118.23 201.207C116.73 200.095 115.559 198.597 114.725 196.683L112.931 197.465C113.889 199.663 115.265 201.444 117.065 202.778L118.23 201.207ZM114.137 198.002L120.781 195.791L120.163 193.934L113.519 196.146L114.137 198.002ZM119.613 195.33C120.415 196.805 121.638 197.819 123.239 198.341L123.846 196.481C122.717 196.113 121.893 195.428 121.331 194.395L119.613 195.33ZM123.226 198.337C124.839 198.888 126.57 198.823 128.375 198.222L127.758 196.366C126.277 196.859 124.992 196.873 123.859 196.486L123.226 198.337ZM128.375 198.222C130.67 197.458 132.311 196.064 133.152 194.012L131.342 193.27C130.752 194.709 129.606 195.751 127.758 196.366L128.375 198.222ZM133.156 194.002C133.956 191.991 133.873 189.707 133.046 187.225L131.19 187.842C131.917 190.027 131.92 191.815 131.338 193.279L133.156 194.002ZM133.046 187.225C132.217 184.733 130.884 182.86 128.983 181.747L127.995 183.436C129.379 184.245 130.466 185.666 131.19 187.842L133.046 187.225ZM128.983 181.747C127.054 180.619 124.873 180.503 122.537 181.28L123.155 183.136C125.058 182.503 126.639 182.642 127.995 183.436L128.983 181.747ZM122.537 181.28C120.715 181.887 119.262 182.865 118.247 184.247L119.824 185.405C120.556 184.407 121.643 183.64 123.155 183.136L122.537 181.28ZM118.253 184.24C117.204 185.64 116.789 187.218 117.043 188.922L118.978 188.634C118.804 187.464 119.072 186.408 119.818 185.412L118.253 184.24ZM117.701 187.85L111.057 190.062L111.675 191.918L118.319 189.706L117.701 187.85ZM112.322 190.784C111.92 188.915 111.976 187.072 112.489 185.242L110.605 184.714C110.006 186.852 109.941 189.017 110.41 191.196L112.322 190.784ZM112.489 185.242C112.999 183.424 113.956 181.775 115.386 180.287L113.975 178.932C112.339 180.634 111.208 182.563 110.605 184.714L112.489 185.242ZM115.379 180.295C116.79 178.855 118.679 177.722 121.086 176.921L120.468 175.065C117.827 175.944 115.651 177.222 113.982 178.925L115.379 180.295Z" fill="#22262A"/>
<path d="M115.465 178.235L117.267 205.658L110.279 206.117L109.586 195.561L99.1425 196.247L99.8358 206.803L92.8485 207.262L91.0473 179.839L98.0347 179.38L98.7428 190.161L109.186 189.475L108.478 178.694L115.465 178.235Z" fill="white"/>
<path d="M115.465 178.235L117.267 205.658L110.279 206.117L109.586 195.561L99.1425 196.247L99.8358 206.803L92.8485 207.262L91.0473 179.839L98.0347 179.38L98.7428 190.161L109.186 189.475L108.478 178.694L115.465 178.235Z" fill="url(#paint6_linear_258:680)"/>
<path d="M115.465 178.235L116.441 178.171L116.377 177.195L115.401 177.259L115.465 178.235ZM117.267 205.658L117.331 206.634L118.307 206.57L118.243 205.594L117.267 205.658ZM110.279 206.117L109.303 206.181L109.367 207.157L110.343 207.093L110.279 206.117ZM109.586 195.561L110.562 195.497L110.498 194.521L109.522 194.585L109.586 195.561ZM99.1425 196.247L99.0784 195.271L98.1024 195.335L98.1665 196.311L99.1425 196.247ZM99.8358 206.803L99.9 207.779L100.876 207.715L100.812 206.739L99.8358 206.803ZM92.8485 207.262L91.8725 207.326L91.9366 208.302L92.9126 208.238L92.8485 207.262ZM91.0473 179.839L90.9832 178.863L90.0072 178.927L90.0713 179.903L91.0473 179.839ZM98.0347 179.38L99.0107 179.316L98.9466 178.34L97.9706 178.404L98.0347 179.38ZM98.7428 190.161L97.7668 190.225L97.8309 191.201L98.8069 191.137L98.7428 190.161ZM109.186 189.475L109.25 190.451L110.226 190.387L110.162 189.411L109.186 189.475ZM108.478 178.694L108.414 177.718L107.438 177.782L107.502 178.758L108.478 178.694ZM114.489 178.299L116.291 205.722L118.243 205.594L116.441 178.171L114.489 178.299ZM117.202 204.682L110.215 205.141L110.343 207.093L117.331 206.634L117.202 204.682ZM111.255 206.053L110.562 195.497L108.61 195.625L109.303 206.181L111.255 206.053ZM109.522 194.585L99.0784 195.271L99.2066 197.223L109.65 196.537L109.522 194.585ZM98.1665 196.311L98.8598 206.867L100.812 206.739L100.119 196.183L98.1665 196.311ZM99.7717 205.827L92.7844 206.286L92.9126 208.238L99.9 207.779L99.7717 205.827ZM93.8245 207.198L92.0234 179.775L90.0713 179.903L91.8725 207.326L93.8245 207.198ZM91.1114 180.815L98.0988 180.356L97.9706 178.404L90.9832 178.863L91.1114 180.815ZM97.0586 179.444L97.7668 190.225L99.7188 190.097L99.0107 179.316L97.0586 179.444ZM98.8069 191.137L109.25 190.451L109.122 188.499L98.6787 189.185L98.8069 191.137ZM110.162 189.411L109.454 178.63L107.502 178.758L108.21 189.539L110.162 189.411ZM108.542 179.67L115.53 179.211L115.401 177.259L108.414 177.718L108.542 179.67Z" fill="#22262A"/>
<path d="M94.976 178.672L91.1771 205.89L84.2419 204.922L88.0409 177.704L94.976 178.672Z" fill="white"/>
<path d="M94.976 178.672L91.1771 205.89L84.2419 204.922L88.0409 177.704L94.976 178.672Z" fill="url(#paint7_linear_258:680)"/>
<path d="M94.976 178.672L95.9448 178.807L96.08 177.838L95.1113 177.703L94.976 178.672ZM91.1771 205.89L91.0418 206.859L92.0106 206.994L92.1458 206.026L91.1771 205.89ZM84.2419 204.922L83.2732 204.787L83.138 205.756L84.1067 205.891L84.2419 204.922ZM88.0409 177.704L88.1761 176.735L87.2074 176.6L87.0722 177.569L88.0409 177.704ZM94.0073 178.537L90.2083 205.755L92.1458 206.026L95.9448 178.807L94.0073 178.537ZM91.3123 204.922L84.3771 203.954L84.1067 205.891L91.0418 206.859L91.3123 204.922ZM85.2106 205.058L89.0096 177.839L87.0722 177.569L83.2732 204.787L85.2106 205.058ZM87.9057 178.673L94.8408 179.641L95.1113 177.703L88.1761 176.735L87.9057 178.673Z" fill="#22262A"/>
<path d="M84.4687 177.02L76.0838 203.192L69.4153 201.056L75.9394 180.692L66.0442 177.522L67.905 171.713L84.4687 177.02Z" fill="white"/>
<path d="M84.4687 177.02L76.0838 203.192L69.4153 201.056L75.9394 180.692L66.0442 177.522L67.905 171.713L84.4687 177.02Z" fill="url(#paint8_linear_258:680)"/>
<path d="M84.4687 177.02L85.4002 177.318L85.6986 176.387L84.7671 176.089L84.4687 177.02ZM76.0838 203.192L75.7854 204.124L76.7169 204.422L77.0153 203.491L76.0838 203.192ZM69.4153 201.056L68.4838 200.757L68.1854 201.689L69.1169 201.987L69.4153 201.056ZM75.9394 180.692L76.8709 180.99L77.1694 180.059L76.2379 179.76L75.9394 180.692ZM66.0442 177.522L65.1127 177.223L64.8143 178.155L65.7458 178.453L66.0442 177.522ZM67.905 171.713L68.2034 170.782L67.2719 170.484L66.9735 171.415L67.905 171.713ZM83.5372 176.722L75.1523 202.894L77.0153 203.491L85.4002 177.318L83.5372 176.722ZM76.3822 202.261L69.7137 200.124L69.1169 201.987L75.7854 204.124L76.3822 202.261ZM70.3468 201.354L76.8709 180.99L75.0079 180.393L68.4838 200.757L70.3468 201.354ZM76.2379 179.76L66.3427 176.59L65.7458 178.453L75.641 181.623L76.2379 179.76ZM66.9757 177.82L68.8365 172.012L66.9735 171.415L65.1127 177.223L66.9757 177.82ZM67.6066 172.645L84.1703 177.952L84.7671 176.089L68.2034 170.782L67.6066 172.645Z" fill="#22262A"/>
<path d="M71.2037 172.496L57.034 196.482L48.023 191.159C45.8837 189.895 44.1932 188.488 42.9515 186.939C41.6883 185.376 40.8355 183.736 40.3934 182.017C39.9384 180.32 39.8557 178.609 40.1452 176.886C40.4347 175.162 41.0454 173.511 41.9773 171.934L42.3986 171.221C43.2539 169.773 44.3665 168.506 45.7365 167.421C47.0937 166.357 48.6445 165.582 50.3887 165.097C52.1202 164.633 53.9942 164.545 56.0106 164.833C57.9927 165.129 60.0533 165.909 62.1927 167.173L71.2037 172.496ZM51.0955 185.366L54.3368 187.281L61.8429 174.574L58.6016 172.66C56.5487 171.447 54.6113 171.075 52.7895 171.544C50.946 172 49.4434 173.211 48.2818 175.177C47.0563 177.252 46.7142 179.163 47.2556 180.911C47.7626 182.668 49.0426 184.153 51.0955 185.366Z" fill="white"/>
<path d="M71.2037 172.496L57.034 196.482L48.023 191.159C45.8837 189.895 44.1932 188.488 42.9515 186.939C41.6883 185.376 40.8355 183.736 40.3934 182.017C39.9384 180.32 39.8557 178.609 40.1452 176.886C40.4347 175.162 41.0454 173.511 41.9773 171.934L42.3986 171.221C43.2539 169.773 44.3665 168.506 45.7365 167.421C47.0937 166.357 48.6445 165.582 50.3887 165.097C52.1202 164.633 53.9942 164.545 56.0106 164.833C57.9927 165.129 60.0533 165.909 62.1927 167.173L71.2037 172.496ZM51.0955 185.366L54.3368 187.281L61.8429 174.574L58.6016 172.66C56.5487 171.447 54.6113 171.075 52.7895 171.544C50.946 172 49.4434 173.211 48.2818 175.177C47.0563 177.252 46.7142 179.163 47.2556 180.911C47.7626 182.668 49.0426 184.153 51.0955 185.366Z" fill="url(#paint9_linear_258:680)"/>
<path d="M71.2037 172.496L72.0459 172.993L72.5434 172.151L71.7012 171.654L71.2037 172.496ZM57.034 196.482L56.5365 197.324L57.3787 197.822L57.8762 196.98L57.034 196.482ZM42.9515 186.939L43.7149 186.327L43.7122 186.324L42.9515 186.939ZM40.3934 182.017L41.3407 181.773L41.3381 181.764L40.3934 182.017ZM40.1452 176.886L41.1098 177.048L40.1452 176.886ZM45.7365 167.421L45.1331 166.651L45.1291 166.654L45.7365 167.421ZM50.3887 165.097L50.1356 164.152L50.1265 164.155L50.3887 165.097ZM56.0106 164.833L56.1553 163.865L56.1487 163.864L56.0106 164.833ZM54.3368 187.281L53.8393 188.123L54.6815 188.62L55.179 187.778L54.3368 187.281ZM61.8429 174.574L62.6851 175.072L63.1826 174.23L62.3404 173.732L61.8429 174.574ZM52.7895 171.544L53.0243 172.493L53.0332 172.491L52.7895 171.544ZM47.2556 180.911L48.1954 180.64L48.1928 180.631L48.19 180.622L47.2556 180.911ZM70.3616 171.998L56.1919 195.985L57.8762 196.98L72.0459 172.993L70.3616 171.998ZM57.5315 195.64L48.5205 190.317L47.5255 192.001L56.5365 197.324L57.5315 195.64ZM48.5205 190.317C46.4584 189.099 44.8666 187.765 43.7149 186.327L42.1882 187.55C43.5198 189.212 45.3089 190.692 47.5255 192.001L48.5205 190.317ZM43.7122 186.324C42.5253 184.856 41.7436 183.339 41.3406 181.773L39.4461 182.261C39.9275 184.132 40.8512 185.897 42.1909 187.554L43.7122 186.324ZM41.3381 181.764C40.9193 180.201 40.8437 178.632 41.1098 177.048L39.1806 176.724C38.8677 178.586 38.9575 180.438 39.4486 182.27L41.3381 181.764ZM41.1098 177.048C41.3785 175.448 41.9457 173.911 42.8195 172.431L41.1352 171.436C40.1452 173.112 39.491 174.876 39.1806 176.724L41.1098 177.048ZM42.8195 172.431L43.2407 171.718L41.5564 170.723L41.1352 171.436L42.8195 172.431ZM43.2407 171.718C44.0326 170.378 45.0643 169.201 46.3439 168.187L45.1291 166.654C43.6688 167.811 42.4752 169.168 41.5564 170.723L43.2407 171.718ZM46.3399 168.191C47.5908 167.21 49.0244 166.492 50.651 166.039L50.1265 164.155C48.2646 164.673 46.5966 165.504 45.1331 166.651L46.3399 168.191ZM50.6418 166.042C52.2296 165.616 53.969 165.529 55.8725 165.801L56.1487 163.864C54.0194 163.561 52.0109 163.65 50.1357 164.152L50.6418 166.042ZM55.866 165.8C57.6975 166.074 59.6391 166.8 61.6952 168.015L62.6902 166.331C60.4675 165.018 58.2879 164.184 56.1553 163.865L55.866 165.8ZM61.6952 168.015L70.7062 173.338L71.7012 171.654L62.6902 166.331L61.6952 168.015ZM50.598 186.208L53.8393 188.123L54.8343 186.438L51.593 184.524L50.598 186.208ZM55.179 187.778L62.6851 175.072L61.0008 174.077L53.4947 186.783L55.179 187.778ZM62.3404 173.732L59.0991 171.817L58.1041 173.502L61.3454 175.417L62.3404 173.732ZM59.0991 171.817C56.8856 170.51 54.6816 170.047 52.5457 170.596L53.0332 172.491C54.541 172.103 56.2117 172.384 58.1041 173.502L59.0991 171.817ZM52.5546 170.594C50.4057 171.126 48.7058 172.536 47.4396 174.68L49.1239 175.675C50.1811 173.885 51.4863 172.873 53.0243 172.493L52.5546 170.594ZM47.4396 174.68C46.1206 176.912 45.6745 179.112 46.3213 181.201L48.19 180.622C47.7539 179.214 47.9919 177.591 49.1239 175.675L47.4396 174.68ZM46.3158 181.182C46.9111 183.245 48.3976 184.908 50.598 186.208L51.593 184.524C49.6876 183.398 48.6142 182.091 48.1954 180.64L46.3158 181.182Z" fill="#22262A"/>
<path d="M55.2967 162.909L35.7932 182.271L27.7035 174.122L36.8076 152.193L36.4097 151.792L20.8604 167.229L16.2452 162.58L35.7487 143.218L43.8915 151.42L34.7874 173.349L35.1853 173.75L50.7346 158.313L55.2967 162.909Z" fill="white"/>
<path d="M55.2967 162.909L35.7932 182.271L27.7035 174.122L36.8076 152.193L36.4097 151.792L20.8604 167.229L16.2452 162.58L35.7487 143.218L43.8915 151.42L34.7874 173.349L35.1853 173.75L50.7346 158.313L55.2967 162.909Z" fill="url(#paint10_linear_258:680)"/>
<path d="M55.2967 162.909L55.9858 163.603L56.68 162.914L55.9909 162.22L55.2967 162.909ZM35.7932 182.271L35.0991 182.96L35.7882 183.654L36.4823 182.965L35.7932 182.271ZM27.7035 174.122L26.8001 173.747L26.5503 174.349L27.0093 174.811L27.7035 174.122ZM36.8076 152.193L37.711 152.568L37.9608 151.966L37.5017 151.504L36.8076 152.193ZM36.4097 151.792L37.1039 151.103L36.4148 150.409L35.7206 151.098L36.4097 151.792ZM20.8604 167.229L20.1662 167.918L20.8553 168.612L21.5495 167.923L20.8604 167.229ZM16.2452 162.58L15.5561 161.886L14.862 162.575L15.5511 163.27L16.2452 162.58ZM35.7487 143.218L36.4429 142.529L35.7538 141.835L35.0596 142.524L35.7487 143.218ZM43.8915 151.42L44.7949 151.795L45.0447 151.194L44.5857 150.731L43.8915 151.42ZM34.7874 173.349L33.884 172.974L33.6342 173.576L34.0933 174.038L34.7874 173.349ZM35.1853 173.75L34.4911 174.439L35.1802 175.133L35.8744 174.444L35.1853 173.75ZM50.7346 158.313L51.4288 157.624L50.7397 156.93L50.0455 157.619L50.7346 158.313ZM54.6076 162.214L35.1041 181.577L36.4823 182.965L55.9858 163.603L54.6076 162.214ZM36.4873 181.582L28.3976 173.433L27.0093 174.811L35.0991 182.96L36.4873 181.582ZM28.6068 174.497L37.711 152.568L35.9042 151.818L26.8001 173.747L28.6068 174.497ZM37.5017 151.504L37.1039 151.103L35.7156 152.482L36.1134 152.882L37.5017 151.504ZM35.7206 151.098L20.1712 166.535L21.5495 167.923L37.0989 152.487L35.7206 151.098ZM21.5545 166.54L16.9394 161.891L15.5511 163.27L20.1662 167.918L21.5545 166.54ZM16.9344 163.275L36.4379 143.912L35.0596 142.524L15.5561 161.886L16.9344 163.275ZM35.0546 143.907L43.1974 152.109L44.5857 150.731L36.4429 142.529L35.0546 143.907ZM42.9882 151.045L33.884 172.974L35.6908 173.724L44.7949 151.795L42.9882 151.045ZM34.0933 174.038L34.4911 174.439L35.8794 173.061L35.4816 172.66L34.0933 174.038ZM35.8744 174.444L51.4238 159.007L50.0455 157.619L34.4961 173.056L35.8744 174.444ZM50.0405 159.002L54.6026 163.598L55.9909 162.22L51.4288 157.624L50.0405 159.002Z" fill="#22262A"/>
<path d="M41.7997 148.413L18.3458 162.738L9.55468 148.344L14.4382 145.361L19.5795 153.779L24.1739 150.973L19.2485 142.909L24.132 139.926L29.0574 147.99L38.1498 142.437L41.7997 148.413Z" fill="white"/>
<path d="M41.7997 148.413L18.3458 162.738L9.55468 148.344L14.4382 145.361L19.5795 153.779L24.1739 150.973L19.2485 142.909L24.132 139.926L29.0574 147.99L38.1498 142.437L41.7997 148.413Z" fill="url(#paint11_linear_258:680)"/>
<path d="M41.7997 148.413L42.3095 149.247L43.1443 148.738L42.6344 147.903L41.7997 148.413ZM18.3458 162.738L17.5111 163.247L18.0209 164.082L18.8556 163.572L18.3458 162.738ZM9.55468 148.344L9.04485 147.509L8.2101 148.019L8.71994 148.854L9.55468 148.344ZM14.4382 145.361L15.273 144.851L14.7631 144.017L13.9284 144.526L14.4382 145.361ZM19.5795 153.779L18.7447 154.289L19.2546 155.123L20.0893 154.614L19.5795 153.779ZM24.1739 150.973L24.6837 151.808L25.5184 151.298L25.0086 150.463L24.1739 150.973ZM19.2485 142.909L18.7386 142.074L17.9039 142.584L18.4137 143.418L19.2485 142.909ZM24.132 139.926L24.9668 139.416L24.4569 138.581L23.6222 139.091L24.132 139.926ZM29.0574 147.99L28.2227 148.5L28.7325 149.335L29.5672 148.825L29.0574 147.99ZM38.1498 142.437L38.9846 141.927L38.4747 141.092L37.64 141.602L38.1498 142.437ZM41.2899 147.578L17.836 161.903L18.8556 163.572L42.3095 149.247L41.2899 147.578ZM19.1805 162.228L10.3894 147.834L8.71994 148.854L17.5111 163.247L19.1805 162.228ZM10.0645 149.179L14.9481 146.196L13.9284 144.526L9.04485 147.509L10.0645 149.179ZM13.6035 145.871L18.7447 154.289L20.4142 153.269L15.273 144.851L13.6035 145.871ZM20.0893 154.614L24.6837 151.808L23.664 150.138L19.0696 152.944L20.0893 154.614ZM25.0086 150.463L20.0832 142.399L18.4137 143.418L23.3391 151.483L25.0086 150.463ZM19.7583 143.743L24.6419 140.761L23.6222 139.091L18.7386 142.074L19.7583 143.743ZM23.2973 140.436L28.2227 148.5L29.8922 147.48L24.9668 139.416L23.2973 140.436ZM29.5672 148.825L38.6597 143.272L37.64 141.602L28.5476 147.155L29.5672 148.825ZM37.3151 142.947L40.965 148.923L42.6344 147.903L38.9846 141.927L37.3151 142.947Z" fill="#22262A"/>
<path d="M32.3182 130.128L12.187 137.338L14.7259 144.427L8.98427 146.483L1.54518 125.714L7.28683 123.658L9.82577 130.746L29.957 123.536L32.3182 130.128Z" fill="white"/>
<path d="M32.3182 130.128L12.187 137.338L14.7259 144.427L8.98427 146.483L1.54518 125.714L7.28683 123.658L9.82577 130.746L29.957 123.536L32.3182 130.128Z" fill="url(#paint12_linear_258:680)"/>
<path d="M32.3182 130.128L32.648 131.049L33.5689 130.719L33.2391 129.798L32.3182 130.128ZM12.187 137.338L11.8572 136.418L10.9363 136.747L11.2661 137.668L12.187 137.338ZM14.7259 144.427L15.0558 145.348L15.9766 145.018L15.6468 144.097L14.7259 144.427ZM8.98427 146.483L8.06344 146.813L8.39326 147.734L9.3141 147.404L8.98427 146.483ZM1.54518 125.714L1.21535 124.793L0.294516 125.123L0.624341 126.044L1.54518 125.714ZM7.28683 123.658L8.20767 123.328L7.87785 122.407L6.95701 122.737L7.28683 123.658ZM9.82577 130.746L8.90493 131.076L9.23476 131.997L10.1556 131.667L9.82577 130.746ZM29.957 123.536L30.8778 123.206L30.548 122.285L29.6272 122.615L29.957 123.536ZM31.9884 129.207L11.8572 136.418L12.5168 138.259L32.648 131.049L31.9884 129.207ZM11.2661 137.668L13.8051 144.757L15.6468 144.097L13.1078 137.009L11.2661 137.668ZM14.3961 143.506L8.65445 145.563L9.3141 147.404L15.0558 145.348L14.3961 143.506ZM9.90511 146.154L2.46602 125.384L0.624341 126.044L8.06344 146.813L9.90511 146.154ZM1.875 126.635L7.61666 124.579L6.95701 122.737L1.21535 124.793L1.875 126.635ZM6.36599 123.988L8.90493 131.076L10.7466 130.416L8.20767 123.328L6.36599 123.988ZM10.1556 131.667L30.2868 124.456L29.6272 122.615L9.49595 129.825L10.1556 131.667ZM29.0362 123.865L31.3974 130.458L33.2391 129.798L30.8778 123.206L29.0362 123.865Z" fill="#22262A"/>
<path d="M28.398 102.827L0.638077 99.7111L1.83918 89.0112C2.19755 85.8187 3.14815 83.4251 4.69097 81.8304C6.20886 80.2329 8.2024 79.5727 10.6716 79.8499L11.2328 79.9129C12.43 80.0473 13.4274 80.3865 14.225 80.9307C15.0254 81.4499 15.6566 82.1269 16.1185 82.9616C16.7932 81.9009 17.6519 81.1133 18.6946 80.599C19.7401 80.0597 20.9987 79.8726 22.4702 80.0378L22.994 80.0966C25.4881 80.3766 27.3231 81.4665 28.4989 83.3664C29.6775 85.2414 30.0848 87.8 29.7209 91.0424L28.398 102.827ZM7.18532 89.3083L6.70655 93.5733L12.5803 94.2326L13.059 89.9676C13.1738 88.945 13.007 88.1813 12.5586 87.6763C12.088 87.1436 11.3913 86.8255 10.4685 86.7219C9.52068 86.6155 8.77078 86.7713 8.21875 87.1892C7.64459 87.5793 7.30011 88.2857 7.18532 89.3083ZM18.3353 89.5371L17.7432 94.8122L23.8414 95.4967L24.4335 90.2216C24.6603 88.2014 23.7511 87.0764 21.7059 86.8468C19.6856 86.6201 18.5621 87.5168 18.3353 89.5371Z" fill="white"/>
<path d="M28.398 102.827L0.638077 99.7111L1.83918 89.0112C2.19755 85.8187 3.14815 83.4251 4.69097 81.8304C6.20886 80.2329 8.2024 79.5727 10.6716 79.8499L11.2328 79.9129C12.43 80.0473 13.4274 80.3865 14.225 80.9307C15.0254 81.4499 15.6566 82.1269 16.1185 82.9616C16.7932 81.9009 17.6519 81.1133 18.6946 80.599C19.7401 80.0597 20.9987 79.8726 22.4702 80.0378L22.994 80.0966C25.4881 80.3766 27.3231 81.4665 28.4989 83.3664C29.6775 85.2414 30.0848 87.8 29.7209 91.0424L28.398 102.827ZM7.18532 89.3083L6.70655 93.5733L12.5803 94.2326L13.059 89.9676C13.1738 88.945 13.007 88.1813 12.5586 87.6763C12.088 87.1436 11.3913 86.8255 10.4685 86.7219C9.52068 86.6155 8.77078 86.7713 8.21875 87.1892C7.64459 87.5793 7.30011 88.2857 7.18532 89.3083ZM18.3353 89.5371L17.7432 94.8122L23.8414 95.4967L24.4335 90.2216C24.6603 88.2014 23.7511 87.0764 21.7059 86.8468C19.6856 86.6201 18.5621 87.5168 18.3353 89.5371Z" fill="url(#paint13_linear_258:680)"/>
<path d="M28.398 102.827L28.2888 103.799L29.2609 103.908L29.37 102.936L28.398 102.827ZM0.638077 99.7111L-0.333943 99.602L-0.443056 100.574L0.528964 100.683L0.638077 99.7111ZM4.69098 81.8304L5.39399 82.5105L5.40006 82.5041L4.69098 81.8304ZM14.225 80.9307L13.6738 81.7387L13.6832 81.7451L13.6927 81.7513L14.225 80.9307ZM16.1185 82.9616L15.2627 83.4352L16.06 84.8762L16.9438 83.4866L16.1185 82.9616ZM18.6946 80.599L19.1273 81.4762L19.1352 81.4723L19.143 81.4683L18.6946 80.599ZM28.4989 83.3664L27.6672 83.8812L27.6708 83.887L28.4989 83.3664ZM6.70655 93.5733L5.73453 93.4642L5.62542 94.4362L6.59744 94.5453L6.70655 93.5733ZM12.5803 94.2326L12.4712 95.2047L13.4432 95.3138L13.5523 94.3418L12.5803 94.2326ZM12.5586 87.6763L11.8255 88.3239L11.8272 88.3258L12.5586 87.6763ZM8.21875 87.1892L8.76849 87.9982L8.78918 87.9841L8.80912 87.969L8.21875 87.1892ZM17.7432 94.8122L16.7711 94.7031L16.662 95.6751L17.634 95.7842L17.7432 94.8122ZM23.8414 95.4967L23.7322 96.4688L24.7043 96.5779L24.8134 95.6058L23.8414 95.4967ZM28.5071 101.855L0.74719 98.7391L0.528964 100.683L28.2888 103.799L28.5071 101.855ZM1.6101 99.8203L2.8112 89.1204L0.867161 88.9021L-0.333943 99.602L1.6101 99.8203ZM2.8112 89.1204C3.1559 86.0497 4.05563 83.8938 5.39396 82.5105L3.98799 81.1503C2.24067 82.9564 1.23921 85.5878 0.867161 88.9021L2.8112 89.1204ZM5.40006 82.5041C6.67797 81.1592 8.35327 80.5739 10.5625 80.8219L10.7807 78.8779C8.05154 78.5715 5.73975 79.3066 3.98189 81.1567L5.40006 82.5041ZM10.5625 80.8219L11.1237 80.8849L11.3419 78.9409L10.7807 78.8779L10.5625 80.8219ZM11.1237 80.8849C12.2009 81.0058 13.0367 81.304 13.6738 81.7387L14.7762 80.1227C13.8181 79.469 12.6591 79.0887 11.3419 78.9409L11.1237 80.8849ZM13.6927 81.7513C14.3584 82.1831 14.8785 82.7409 15.2627 83.4352L16.9743 82.4881C16.4347 81.5128 15.6924 80.7166 14.7573 80.1101L13.6927 81.7513ZM16.9438 83.4866C17.5305 82.5642 18.2583 81.9049 19.1273 81.4762L18.2619 79.7218C17.0455 80.3218 16.0559 81.2375 15.2932 82.4367L16.9438 83.4866ZM19.143 81.4683C19.9773 81.0379 21.0318 80.8606 22.3611 81.0098L22.5793 79.0658C20.9655 78.8846 19.5029 79.0815 18.2462 79.7297L19.143 81.4683ZM22.3611 81.0098L22.8849 81.0686L23.1031 79.1246L22.5793 79.0658L22.3611 81.0098ZM22.8849 81.0686C25.1226 81.3198 26.6702 82.2703 27.6672 83.8812L29.3306 82.8517C27.976 80.6628 25.8537 79.4334 23.1031 79.1246L22.8849 81.0686ZM27.6708 83.887C28.6871 85.5037 29.0994 87.8106 28.7488 90.9333L30.6929 91.1515C31.0703 87.7895 30.6679 84.979 29.327 82.8459L27.6708 83.887ZM28.7488 90.9333L27.4259 102.718L29.37 102.936L30.6929 91.1515L28.7488 90.9333ZM6.2133 89.1992L5.73453 93.4642L7.67857 93.6824L8.15734 89.4174L6.2133 89.1992ZM6.59744 94.5453L12.4712 95.2047L12.6894 93.2606L6.81567 92.6013L6.59744 94.5453ZM13.5523 94.3418L14.0311 90.0768L12.087 89.8585L11.6083 94.1235L13.5523 94.3418ZM14.0311 90.0768C14.1606 88.9227 14.0007 87.8272 13.2899 87.0268L11.8272 88.3258C12.0133 88.5354 12.1871 88.9674 12.087 89.8585L14.0311 90.0768ZM13.2916 87.0287C12.6163 86.2643 11.6657 85.872 10.5776 85.7499L10.3593 87.6939C11.1169 87.779 11.5597 88.023 11.8255 88.3239L13.2916 87.0287ZM10.5776 85.7499C9.47592 85.6262 8.44554 85.7907 7.62838 86.4093L8.80912 87.969C9.09601 87.7519 9.56544 87.6048 10.3593 87.6939L10.5776 85.7499ZM7.66902 86.3801C6.76323 86.9956 6.3443 88.0321 6.2133 89.1992L8.15734 89.4174C8.25591 88.5393 8.52594 88.163 8.76849 87.9982L7.66902 86.3801ZM17.3633 89.428L16.7711 94.7031L18.7152 94.9213L19.3073 89.6462L17.3633 89.428ZM17.634 95.7842L23.7322 96.4688L23.9505 94.5247L17.8523 93.8402L17.634 95.7842ZM24.8134 95.6058L25.4055 90.3307L23.4615 90.1125L22.8693 95.3876L24.8134 95.6058ZM25.4055 90.3307C25.5361 89.1677 25.3586 88.0844 24.6824 87.2479C24.0082 86.4137 22.9844 86.0061 21.815 85.8748L21.5968 87.8189C22.4725 87.9172 22.926 88.1868 23.161 88.4776C23.394 88.7659 23.5577 89.2552 23.4615 90.1125L25.4055 90.3307ZM21.815 85.8748C20.655 85.7446 19.5739 85.9176 18.7379 86.5848C17.9019 87.2521 17.4935 88.268 17.3633 89.428L19.3073 89.6462C19.4039 88.7859 19.6707 88.3433 19.9582 88.1138C20.2457 87.8843 20.7365 87.7223 21.5968 87.8189L21.815 85.8748Z" fill="#22262A"/>
<path d="M30.3182 86.1563L4.23262 76.813L8.07911 66.074C9.28934 62.6951 10.9975 60.3078 13.2037 58.9119C15.3863 57.5076 17.9307 57.3259 20.837 58.3669L21.404 58.57C23.2707 59.2386 24.6938 60.2149 25.6736 61.4989C26.6533 62.7829 27.1989 64.3113 27.3104 66.0841L38.6205 62.977L35.9038 70.5617L26.0859 72.9635L24.7403 76.7204L32.6794 79.564L30.3182 86.1563ZM13.7478 67.6645L12.1228 72.2011L19.672 74.9051L21.297 70.3685C21.7117 69.2107 21.7109 68.1707 21.2948 67.2485C20.8634 66.2942 20.0689 65.6097 18.9111 65.1951C17.7533 64.7804 16.7049 64.8047 15.7658 65.2681C14.8351 65.7079 14.1625 66.5067 13.7478 67.6645Z" fill="white"/>
<path d="M30.3182 86.1563L4.23262 76.813L8.07911 66.074C9.28934 62.6951 10.9975 60.3078 13.2037 58.9119C15.3863 57.5076 17.9307 57.3259 20.837 58.3669L21.404 58.57C23.2707 59.2386 24.6938 60.2149 25.6736 61.4989C26.6533 62.7829 27.1989 64.3113 27.3104 66.0841L38.6205 62.977L35.9038 70.5617L26.0859 72.9635L24.7403 76.7204L32.6794 79.564L30.3182 86.1563ZM13.7478 67.6645L12.1228 72.2011L19.672 74.9051L21.297 70.3685C21.7117 69.2107 21.7109 68.1707 21.2948 67.2485C20.8634 66.2942 20.0689 65.6097 18.9111 65.1951C17.7533 64.7804 16.7049 64.8047 15.7658 65.2681C14.8351 65.7079 14.1625 66.5067 13.7478 67.6645Z" fill="url(#paint14_linear_258:680)"/>
<path d="M30.3182 86.1563L29.9883 87.0771L30.9092 87.407L31.239 86.4861L30.3182 86.1563ZM4.23262 76.813L3.31178 76.4832L2.98196 77.404L3.9028 77.7338L4.23262 76.813ZM13.2037 58.9119L13.7267 59.7385L13.733 59.7345L13.2037 58.9119ZM25.6736 61.4989L26.4512 60.9055L26.4512 60.9055L25.6736 61.4989ZM27.3104 66.0841L26.3342 66.1454L26.4096 67.3458L27.5695 67.0272L27.3104 66.0841ZM38.6205 62.977L39.5413 63.3069L40.1758 61.5354L38.3614 62.0338L38.6205 62.977ZM35.9038 70.5617L36.1363 71.5118L36.6473 71.3868L36.8247 70.8915L35.9038 70.5617ZM26.0859 72.9635L25.8535 72.0134L25.3425 72.1384L25.1651 72.6337L26.0859 72.9635ZM24.7403 76.7204L23.8195 76.3906L23.4896 77.3114L24.4105 77.6413L24.7403 76.7204ZM32.6794 79.564L33.6002 79.8939L33.93 78.973L33.0092 78.6432L32.6794 79.564ZM12.1228 72.2011L11.202 71.8713L10.8722 72.7921L11.793 73.1219L12.1228 72.2011ZM19.672 74.9051L19.3422 75.8259L20.2631 76.1557L20.5929 75.2349L19.672 74.9051ZM21.2948 67.2485L22.1863 66.8462L22.1861 66.8456L21.2948 67.2485ZM15.7658 65.2681L16.1837 66.1525L16.1912 66.1489L16.1986 66.1453L15.7658 65.2681ZM30.648 85.2355L4.56245 75.8922L3.9028 77.7338L29.9883 87.0771L30.648 85.2355ZM5.15346 77.1428L8.99995 66.4038L7.15828 65.7442L3.31178 76.4832L5.15346 77.1428ZM8.99995 66.4038C10.1638 63.1543 11.763 60.9809 13.7267 59.7385L12.6808 58.0853C10.2321 59.6346 8.41484 62.236 7.15828 65.7442L8.99995 66.4038ZM13.733 59.7345C15.6102 58.5266 17.8261 58.3274 20.5071 59.2877L21.1668 57.446C18.0353 56.3244 15.1624 56.4885 12.6745 58.0894L13.733 59.7345ZM20.5071 59.2877L21.0742 59.4908L21.7339 57.6491L21.1668 57.446L20.5071 59.2877ZM21.0742 59.4908C22.8038 60.1103 24.0544 60.9893 24.8959 62.0922L26.4512 60.9055C25.3333 59.4404 23.7376 58.3668 21.7339 57.6491L21.0742 59.4908ZM24.8959 62.0922C25.7467 63.2072 26.2335 64.5456 26.3342 66.1454L28.2865 66.0227C28.1642 64.0769 27.5599 62.3585 26.4512 60.9055L24.8959 62.0922ZM27.5695 67.0272L38.8796 63.9202L38.3614 62.0338L27.0513 65.1409L27.5695 67.0272ZM37.6997 62.6472L34.983 70.2319L36.8247 70.8915L39.5413 63.3069L37.6997 62.6472ZM35.6714 69.6116L25.8535 72.0134L26.3184 73.9136L36.1363 71.5118L35.6714 69.6116ZM25.1651 72.6337L23.8195 76.3906L25.6611 77.0502L27.0068 73.2934L25.1651 72.6337ZM24.4105 77.6413L32.3495 80.4849L33.0092 78.6432L25.0701 75.7996L24.4105 77.6413ZM31.7585 79.2342L29.3973 85.8265L31.239 86.4861L33.6002 79.8939L31.7585 79.2342ZM12.8269 67.3347L11.202 71.8713L13.0437 72.5309L14.6686 67.9943L12.8269 67.3347ZM11.793 73.1219L19.3422 75.8259L20.0019 73.9842L12.4527 71.2803L11.793 73.1219ZM20.5929 75.2349L22.2178 70.6983L20.3761 70.0386L18.7512 74.5752L20.5929 75.2349ZM22.2178 70.6983C22.6984 69.3564 22.7284 68.0473 22.1863 66.8462L20.4032 67.6508C20.6935 68.2941 20.7249 69.065 20.3761 70.0386L22.2178 70.6983ZM22.1861 66.8456C21.6265 65.6076 20.6012 64.7614 19.2409 64.2742L18.5813 66.1159C19.5366 66.4581 20.1004 66.9808 20.4035 67.6514L22.1861 66.8456ZM19.2409 64.2742C17.8807 63.787 16.5513 63.7898 15.3329 64.391L16.1986 66.1453C16.8585 65.8197 17.626 65.7737 18.5813 66.1159L19.2409 64.2742ZM15.3479 64.3838C14.1379 64.9556 13.3108 65.9836 12.8269 67.3347L14.6686 67.9943C15.0141 67.0298 15.5324 66.4603 16.1837 66.1525L15.3479 64.3838Z" fill="#22262A"/>
<path d="M35.2216 71.6134L17.2562 49.0272L23.4854 39.6966L51.4009 47.3789L47.3874 53.3906L40.988 51.5174L34.9051 60.6288L39.1096 65.7896L35.2216 71.6134ZM31.1074 56.0111L35.2254 49.8429L25.4228 46.9651L24.6494 48.1236L31.1074 56.0111Z" fill="white"/>
<path d="M35.2216 71.6134L17.2562 49.0272L23.4854 39.6966L51.4009 47.3789L47.3874 53.3906L40.988 51.5174L34.9051 60.6288L39.1096 65.7896L35.2216 71.6134ZM31.1074 56.0111L35.2254 49.8429L25.4228 46.9651L24.6494 48.1236L31.1074 56.0111Z" fill="url(#paint15_linear_258:680)"/>
<path d="M35.2216 71.6134L34.4561 72.2223L35.2907 73.2715L36.0351 72.1565L35.2216 71.6134ZM17.2562 49.0272L16.4427 48.4841L16.0465 49.0776L16.4907 49.636L17.2562 49.0272ZM23.4854 39.6966L23.745 38.7535L23.0641 38.5661L22.6719 39.1535L23.4854 39.6966ZM51.4009 47.3789L52.2144 47.922L52.9666 46.7953L51.6604 46.4359L51.4009 47.3789ZM47.3874 53.3906L47.1126 54.3293L47.802 54.5311L48.2009 53.9337L47.3874 53.3906ZM40.988 51.5174L41.2628 50.5786L40.5734 50.3768L40.1745 50.9743L40.988 51.5174ZM34.9051 60.6288L34.0916 60.0857L33.6905 60.6865L34.1468 61.2466L34.9051 60.6288ZM39.1096 65.7896L39.9231 66.3327L40.3242 65.7319L39.8679 65.1718L39.1096 65.7896ZM31.1074 56.0111L30.3506 56.6308L31.1875 57.6529L31.9209 56.5542L31.1074 56.0111ZM35.2254 49.8429L36.0389 50.386L36.7778 49.2793L35.5009 48.9044L35.2254 49.8429ZM25.4228 46.9651L25.6983 46.0266L25.0085 45.8241L24.6093 46.422L25.4228 46.9651ZM24.6494 48.1236L23.8359 47.5805L23.4337 48.1829L23.8925 48.7433L24.6494 48.1236ZM35.9871 71.0045L18.0217 48.4183L16.4907 49.636L34.4561 72.2223L35.9871 71.0045ZM18.0697 49.5703L24.2989 40.2397L22.6719 39.1535L16.4427 48.4841L18.0697 49.5703ZM23.2259 40.6396L51.1413 48.322L51.6604 46.4359L23.745 38.7535L23.2259 40.6396ZM50.5874 46.8358L46.5739 52.8475L48.2009 53.9337L52.2144 47.922L50.5874 46.8358ZM47.6622 52.4518L41.2628 50.5786L40.7132 52.4561L47.1126 54.3293L47.6622 52.4518ZM40.1745 50.9743L34.0916 60.0857L35.7186 61.1719L41.8015 52.0605L40.1745 50.9743ZM34.1468 61.2466L38.3513 66.4074L39.8679 65.1718L35.6634 60.011L34.1468 61.2466ZM38.2961 65.2465L34.4081 71.0703L36.0351 72.1565L39.9231 66.3327L38.2961 65.2465ZM31.9209 56.5542L36.0389 50.386L34.4119 49.2998L30.2939 55.468L31.9209 56.5542ZM35.5009 48.9044L25.6983 46.0266L25.1473 47.9036L34.9499 50.7815L35.5009 48.9044ZM24.6093 46.422L23.8359 47.5805L25.4628 48.6667L26.2363 47.5082L24.6093 46.422ZM23.8925 48.7433L30.3506 56.6308L31.8642 55.3915L25.4062 47.5039L23.8925 48.7433Z" fill="#22262A"/>
<path d="M47.9979 53.9317L28.6356 34.4281L33.605 29.4947L52.9673 48.9982L47.9979 53.9317Z" fill="white"/>
<path d="M47.9979 53.9317L28.6356 34.4281L33.605 29.4947L52.9673 48.9982L47.9979 53.9317Z" fill="url(#paint16_linear_258:680)"/>
<path d="M47.9979 53.9317L47.3038 54.6208L47.9929 55.3149L48.6871 54.6258L47.9979 53.9317ZM28.6356 34.4281L27.9465 33.734L27.2524 34.4231L27.9415 35.1173L28.6356 34.4281ZM33.605 29.4947L34.2992 28.8056L33.6101 28.1115L32.9159 28.8006L33.605 29.4947ZM52.9673 48.9982L53.6565 49.6924L54.3506 49.0033L53.6615 48.3091L52.9673 48.9982ZM48.6921 53.2425L29.3298 33.739L27.9415 35.1173L47.3038 54.6208L48.6921 53.2425ZM29.3248 35.1223L34.2941 30.1889L32.9159 28.8006L27.9465 33.734L29.3248 35.1223ZM32.9109 30.1839L52.2732 49.6874L53.6615 48.3091L34.2992 28.8056L32.9109 30.1839ZM52.2782 48.3041L47.3088 53.2375L48.6871 54.6258L53.6565 49.6924L52.2782 48.3041Z" fill="#22262A"/>
<path d="M55.2132 46.538L40.2058 23.5148L49.8251 17.2446L69.4537 30.6045L69.9268 30.2961L57.9621 11.9407L63.4498 8.36359L78.4571 31.3867L68.7748 37.698L49.1461 24.3382L48.6731 24.6466L60.6378 43.002L55.2132 46.538Z" fill="white"/>
<path d="M55.2132 46.538L40.2058 23.5148L49.8251 17.2446L69.4537 30.6045L69.9268 30.2961L57.9621 11.9407L63.4498 8.36359L78.4571 31.3867L68.7748 37.698L49.1461 24.3382L48.6731 24.6466L60.6378 43.002L55.2132 46.538Z" fill="url(#paint17_linear_258:680)"/>
<path d="M55.2132 46.538L54.3938 47.0721L54.9279 47.8915L55.7473 47.3574L55.2132 46.538ZM40.2058 23.5148L39.6717 22.6954L38.8523 23.2295L39.3864 24.0489L40.2058 23.5148ZM49.8251 17.2446L50.3755 16.436L49.8368 16.0694L49.291 16.4252L49.8251 17.2446ZM69.4537 30.6045L68.9034 31.4131L69.442 31.7797L69.9879 31.4239L69.4537 30.6045ZM69.9268 30.2961L70.4609 31.1155L71.2803 30.5814L70.7462 29.762L69.9268 30.2961ZM57.9621 11.9407L57.4279 11.1213L56.6085 11.6554L57.1426 12.4748L57.9621 11.9407ZM63.4498 8.36359L64.2692 7.82946L63.7351 7.01005L62.9157 7.54417L63.4498 8.36359ZM78.4571 31.3867L78.9912 32.2062L79.8106 31.672L79.2765 30.8526L78.4571 31.3867ZM68.7748 37.698L68.2244 38.5066L68.763 38.8733L69.3089 38.5175L68.7748 37.698ZM49.1461 24.3382L49.6965 23.5296L49.1579 23.163L48.612 23.5188L49.1461 24.3382ZM48.6731 24.6466L48.1389 23.8271L47.3195 24.3613L47.8536 25.1807L48.6731 24.6466ZM60.6378 43.002L61.1719 43.8214L61.9914 43.2873L61.4572 42.4679L60.6378 43.002ZM56.0326 46.0039L41.0253 22.9807L39.3864 24.0489L54.3938 47.0721L56.0326 46.0039ZM40.74 24.3342L50.3592 18.0641L49.291 16.4252L39.6717 22.6954L40.74 24.3342ZM49.2748 18.0532L68.9034 31.4131L70.0041 29.7959L50.3755 16.436L49.2748 18.0532ZM69.9879 31.4239L70.4609 31.1155L69.3927 29.4767L68.9196 29.7851L69.9879 31.4239ZM70.7462 29.762L58.7815 11.4066L57.1426 12.4748L69.1074 30.8302L70.7462 29.762ZM58.4962 12.7601L63.9839 9.183L62.9157 7.54417L57.4279 11.1213L58.4962 12.7601ZM62.6304 8.89771L77.6377 31.9209L79.2765 30.8526L64.2692 7.82946L62.6304 8.89771ZM77.923 30.5673L68.2406 36.8786L69.3089 38.5175L78.9912 32.2062L77.923 30.5673ZM69.3251 36.8894L49.6965 23.5296L48.5958 25.1468L68.2244 38.5066L69.3251 36.8894ZM48.612 23.5188L48.1389 23.8271L49.2072 25.466L49.6803 25.1576L48.612 23.5188ZM47.8536 25.1807L59.8184 43.5361L61.4572 42.4679L49.4925 24.1124L47.8536 25.1807ZM60.1037 42.1826L54.6791 45.7186L55.7473 47.3574L61.1719 43.8214L60.1037 42.1826Z" fill="#22262A"/>
<path d="M84.223 32.8631C81.8655 33.6479 79.7066 33.9169 77.7463 33.6701C75.7781 33.3994 74.0244 32.7797 72.485 31.8108C70.9378 30.8181 69.6406 29.6231 68.5935 28.2258C67.5464 26.8286 66.7771 25.3917 66.2856 23.9153L66.024 23.1295C65.477 21.4863 65.2038 19.7917 65.2045 18.0457C65.2211 16.2678 65.563 14.5536 66.2304 12.9031C66.9215 11.2446 67.9737 9.75683 69.387 8.43989C70.8002 7.12295 72.6261 6.09189 74.8645 5.34672C77.2459 4.55398 79.504 4.30486 81.6388 4.59936C83.7896 4.86211 85.6941 5.61685 87.3524 6.86357C89.0027 8.08647 90.2759 9.72591 91.172 11.7819L84.5281 13.9936C83.846 12.7393 82.8225 11.8897 81.4576 11.4447C80.0847 10.9759 78.5767 11.015 76.9336 11.562C74.8618 12.2517 73.4684 13.4694 72.7535 15.2152C72.0623 16.9531 72.1051 18.9889 72.882 21.3226C73.6589 23.6563 74.8686 25.3036 76.5111 26.2646C78.1537 27.2256 80.0346 27.3533 82.154 26.6478C83.8209 26.0929 85.0911 25.2203 85.9646 24.0302C86.862 22.8321 87.2038 21.5147 86.99 20.0781L93.634 17.8663C94.0697 19.8904 94.0094 21.8944 93.453 23.8783C92.8967 25.8623 91.8523 27.6516 90.3199 29.2463C88.7795 30.8172 86.7472 32.0228 84.223 32.8631Z" fill="white"/>
<path d="M84.223 32.8631C81.8655 33.6479 79.7066 33.9169 77.7463 33.6701C75.7781 33.3994 74.0244 32.7797 72.485 31.8108C70.9378 30.8181 69.6406 29.6231 68.5935 28.2258C67.5464 26.8286 66.7771 25.3917 66.2856 23.9153L66.024 23.1295C65.477 21.4863 65.2038 19.7917 65.2045 18.0457C65.2211 16.2678 65.563 14.5536 66.2304 12.9031C66.9215 11.2446 67.9737 9.75683 69.387 8.43989C70.8002 7.12295 72.6261 6.09189 74.8645 5.34672C77.2459 4.55398 79.504 4.30486 81.6388 4.59936C83.7896 4.86211 85.6941 5.61685 87.3524 6.86357C89.0027 8.08647 90.2759 9.72591 91.172 11.7819L84.5281 13.9936C83.846 12.7393 82.8225 11.8897 81.4576 11.4447C80.0847 10.9759 78.5767 11.015 76.9336 11.562C74.8618 12.2517 73.4684 13.4694 72.7535 15.2152C72.0623 16.9531 72.1051 18.9889 72.882 21.3226C73.6589 23.6563 74.8686 25.3036 76.5111 26.2646C78.1537 27.2256 80.0346 27.3533 82.154 26.6478C83.8209 26.0929 85.0911 25.2203 85.9646 24.0302C86.862 22.8321 87.2038 21.5147 86.99 20.0781L93.634 17.8663C94.0697 19.8904 94.0094 21.8944 93.453 23.8783C92.8967 25.8623 91.8523 27.6516 90.3199 29.2463C88.7795 30.8172 86.7472 32.0228 84.223 32.8631Z" fill="url(#paint18_linear_258:680)"/>
<path d="M77.7463 33.6701L77.6131 34.6391L77.6242 34.6405L77.7463 33.6701ZM72.485 31.8108L71.9568 32.6341L71.964 32.6386L72.485 31.8108ZM68.5935 28.2258L69.3762 27.6393L69.3762 27.6393L68.5935 28.2258ZM65.2045 18.0457L64.2264 18.0365L64.2264 18.0453L65.2045 18.0457ZM66.2304 12.9031L65.3275 12.5268L65.3236 12.5364L66.2304 12.9031ZM69.387 8.43989L68.7202 7.7243L69.387 8.43989ZM81.6388 4.59936L81.5052 5.56831L81.5127 5.56934L81.5202 5.57026L81.6388 4.59936ZM87.3524 6.86357L86.7646 7.64541L86.77 7.64946L87.3524 6.86357ZM91.172 11.7819L91.4809 12.7099L92.4961 12.372L92.0687 11.3911L91.172 11.7819ZM84.5281 13.9936L83.6688 14.4609L84.06 15.1803L84.837 14.9217L84.5281 13.9936ZM81.4576 11.4447L81.1414 12.3704L81.1544 12.3747L81.4576 11.4447ZM72.7535 15.2152L71.8483 14.8445L71.8446 14.8537L72.7535 15.2152ZM76.5111 26.2646L77.0051 25.4204L76.5111 26.2646ZM85.9646 24.0302L85.1817 23.4438L85.1761 23.4514L85.9646 24.0302ZM86.99 20.0781L86.6811 19.15L85.9017 19.4095L86.0226 20.222L86.99 20.0781ZM93.634 17.8663L94.5902 17.6605L94.3605 16.5936L93.325 16.9383L93.634 17.8663ZM93.453 23.8783L92.5112 23.6142L93.453 23.8783ZM90.3199 29.2463L91.0183 29.9312L91.0251 29.924L90.3199 29.2463ZM83.9141 31.935C81.6606 32.6852 79.6513 32.9241 77.8685 32.6996L77.6242 34.6405C79.7619 34.9097 82.0705 34.6105 84.532 33.7911L83.9141 31.935ZM77.8796 32.7011C76.0364 32.4476 74.4171 31.8712 73.0061 30.983L71.964 32.6386C73.6316 33.6882 75.5199 34.3513 77.6131 34.6391L77.8796 32.7011ZM73.0132 30.9876C71.559 30.0546 70.3496 28.9382 69.3762 27.6393L67.8107 28.8124C68.9315 30.308 70.3165 31.5817 71.9568 32.6341L73.0132 30.9876ZM69.3762 27.6393C68.3845 26.316 67.6681 24.9717 67.2136 23.6063L65.3575 24.2242C65.886 25.8118 66.7082 27.3412 67.8107 28.8124L69.3762 27.6393ZM67.2136 23.6063L66.952 22.8205L65.0959 23.4384L65.3575 24.2242L67.2136 23.6063ZM66.952 22.8205C66.4385 21.278 66.182 19.6879 66.1826 18.046L64.2264 18.0453C64.2257 19.8956 64.5154 21.6947 65.0959 23.4384L66.952 22.8205ZM66.1826 18.0548C66.198 16.3997 66.5157 14.8068 67.1372 13.2697L65.3236 12.5364C64.6103 14.3005 64.2441 16.136 64.2264 18.0365L66.1826 18.0548ZM67.1332 13.2793C67.7668 11.7589 68.7347 10.3847 70.0538 9.15548L68.7202 7.7243C67.2127 9.129 66.0762 10.7302 65.3275 12.5268L67.1332 13.2793ZM70.0538 9.15548C71.3443 7.95297 73.0394 6.98522 75.1735 6.27477L74.5556 4.41867C72.2128 5.19857 70.2562 6.29293 68.7202 7.7243L70.0538 9.15548ZM75.1735 6.27477C77.4358 5.52166 79.5417 5.29745 81.5052 5.56831L81.7725 3.63041C79.4663 3.31227 77.056 3.5863 74.5556 4.41867L75.1735 6.27477ZM81.5202 5.57026C83.5086 5.81318 85.2496 6.50641 86.7646 7.64539L87.9402 6.08175C86.1386 4.72729 84.0706 3.91105 81.7574 3.62845L81.5202 5.57026ZM86.77 7.64946C88.2704 8.76122 89.4412 10.2588 90.2753 12.1727L92.0687 11.3911C91.1107 9.19302 89.7351 7.41173 87.9347 6.07769L86.77 7.64946ZM90.863 10.8538L84.2191 13.0656L84.837 14.9217L91.4809 12.7099L90.863 10.8538ZM85.3874 13.5263C84.5851 12.0511 83.3619 11.0368 81.7607 10.5148L81.1544 12.3747C82.2831 12.7427 83.1069 13.4276 83.6688 14.4609L85.3874 13.5263ZM81.7736 10.5191C80.1612 9.96847 78.4302 10.0329 76.6246 10.6339L77.2425 12.49C78.7232 11.9971 80.0081 11.9833 81.1415 12.3704L81.7736 10.5191ZM76.6246 10.6339C74.3297 11.3979 72.6889 12.7921 71.8483 14.8445L73.6586 15.5859C74.248 14.1467 75.394 13.1054 77.2425 12.49L76.6246 10.6339ZM71.8446 14.8537C71.0445 16.8655 71.1275 19.1489 71.954 21.6315L73.8101 21.0136C73.0828 18.8289 73.0801 17.0407 73.6623 15.5767L71.8446 14.8537ZM71.954 21.6315C72.7833 24.1229 74.1158 25.9964 76.0172 27.1089L77.0051 25.4204C75.6214 24.6108 74.5344 23.1896 73.8101 21.0136L71.954 21.6315ZM76.0172 27.1089C77.9457 28.2372 80.1275 28.3533 82.4629 27.5758L81.845 25.7197C79.9417 26.3533 78.3616 26.214 77.0051 25.4204L76.0172 27.1089ZM82.4629 27.5758C84.2846 26.9694 85.7384 25.9915 86.7532 24.6089L85.1761 23.4514C84.4438 24.4492 83.3572 25.2163 81.845 25.7197L82.4629 27.5758ZM86.7475 24.6165C87.796 23.2166 88.211 21.6378 87.9575 19.9342L86.0226 20.222C86.1966 21.3916 85.9279 22.4476 85.1818 23.4438L86.7475 24.6165ZM87.299 21.0061L93.9429 18.7944L93.325 16.9383L86.6811 19.15L87.299 21.0061ZM92.6777 18.0722C93.0802 19.9415 93.0244 21.7842 92.5112 23.6142L94.3948 24.1424C94.9943 22.0046 95.0592 19.8392 94.5902 17.6605L92.6777 18.0722ZM92.5112 23.6142C92.0016 25.4316 91.0437 27.0814 89.6146 28.5686L91.0251 29.924C92.6609 28.2219 93.7917 26.293 94.3948 24.1424L92.5112 23.6142ZM89.6215 28.5615C88.2103 30.0007 86.3215 31.1336 83.9141 31.935L84.532 33.7911C87.173 32.9119 89.3488 31.6337 91.0183 29.9311L89.6215 28.5615Z" fill="#22262A"/>
<path d="M89.5347 30.6212L87.7335 3.19786L94.7208 2.73893L95.4142 13.2951L105.858 12.6091L105.164 2.053L112.152 1.59407L113.953 29.0174L106.965 29.4764L106.257 18.6949L95.8139 19.3808L96.522 30.1623L89.5347 30.6212Z" fill="white"/>
<path d="M89.5347 30.6212L87.7335 3.19786L94.7208 2.73893L95.4142 13.2951L105.858 12.6091L105.164 2.053L112.152 1.59407L113.953 29.0174L106.965 29.4764L106.257 18.6949L95.8139 19.3808L96.522 30.1623L89.5347 30.6212Z" fill="url(#paint19_linear_258:680)"/>
<path d="M89.5347 30.6212L88.5587 30.6853L88.6228 31.6614L89.5988 31.5973L89.5347 30.6212ZM87.7335 3.19786L87.6694 2.22184L86.6934 2.28595L86.7575 3.26197L87.7335 3.19786ZM94.7208 2.73893L95.6969 2.67483L95.6328 1.69881L94.6567 1.76291L94.7208 2.73893ZM95.4142 13.2951L94.4382 13.3592L94.5023 14.3352L95.4783 14.2711L95.4142 13.2951ZM105.858 12.6091L105.922 13.5851L106.898 13.521L106.834 12.545L105.858 12.6091ZM105.164 2.053L105.1 1.07698L104.124 1.14109L104.188 2.11711L105.164 2.053ZM112.152 1.59407L113.128 1.52997L113.064 0.553945L112.087 0.61805L112.152 1.59407ZM113.953 29.0174L114.017 29.9935L114.993 29.9294L114.929 28.9533L113.953 29.0174ZM106.965 29.4764L105.989 29.5405L106.054 30.5165L107.03 30.4524L106.965 29.4764ZM106.257 18.6949L107.233 18.6308L107.169 17.6547L106.193 17.7188L106.257 18.6949ZM95.8139 19.3808L95.7498 18.4048L94.7738 18.4689L94.8379 19.4449L95.8139 19.3808ZM96.522 30.1623L96.5861 31.1383L97.5622 31.0742L97.4981 30.0982L96.522 30.1623ZM90.5107 30.5571L88.7095 3.13376L86.7575 3.26197L88.5587 30.6853L90.5107 30.5571ZM87.7976 4.17389L94.785 3.71495L94.6567 1.76291L87.6694 2.22184L87.7976 4.17389ZM93.7448 2.80304L94.4382 13.3592L96.3902 13.2309L95.6969 2.67483L93.7448 2.80304ZM95.4783 14.2711L105.922 13.5851L105.793 11.6331L95.3501 12.319L95.4783 14.2711ZM106.834 12.545L106.14 1.9889L104.188 2.11711L104.882 12.6732L106.834 12.545ZM105.228 3.02903L112.216 2.57009L112.087 0.61805L105.1 1.07698L105.228 3.02903ZM111.176 1.65818L112.977 29.0816L114.929 28.9533L113.128 1.52997L111.176 1.65818ZM113.889 28.0414L106.901 28.5004L107.03 30.4524L114.017 29.9935L113.889 28.0414ZM107.941 29.4123L107.233 18.6308L105.281 18.759L105.989 29.5405L107.941 29.4123ZM106.193 17.7188L95.7498 18.4048L95.878 20.3568L106.321 19.6709L106.193 17.7188ZM94.8379 19.4449L95.546 30.2264L97.4981 30.0982L96.7899 19.3167L94.8379 19.4449ZM96.4579 29.1863L89.4706 29.6452L89.5988 31.5973L96.5861 31.1383L96.4579 29.1863Z" fill="#22262A"/>
<path d="M110.024 30.1843L113.823 2.96568L120.758 3.93364L116.959 31.1523L110.024 30.1843Z" fill="white"/>
<path d="M110.024 30.1843L113.823 2.96568L120.758 3.93364L116.959 31.1523L110.024 30.1843Z" fill="url(#paint20_linear_258:680)"/>
<path d="M110.024 30.1843L109.055 30.0491L108.92 31.0178L109.889 31.153L110.024 30.1843ZM113.823 2.96568L113.958 1.99694L112.99 1.86173L112.854 2.83047L113.823 2.96568ZM120.758 3.93364L121.727 4.06885L121.862 3.10011L120.893 2.9649L120.758 3.93364ZM116.959 31.1523L116.824 32.121L117.793 32.2562L117.928 31.2875L116.959 31.1523ZM110.993 30.3195L114.792 3.10089L112.854 2.83047L109.055 30.0491L110.993 30.3195ZM113.688 3.93441L120.623 4.90237L120.893 2.9649L113.958 1.99694L113.688 3.93441ZM119.789 3.79843L115.991 31.0171L117.928 31.2875L121.727 4.06885L119.789 3.79843ZM117.094 30.1835L110.159 29.2156L109.889 31.153L116.824 32.121L117.094 30.1835Z" fill="#22262A"/>
<path d="M120.531 31.8362L128.916 5.66404L135.584 7.80046L129.06 28.1645L138.956 31.3347L137.095 37.1427L120.531 31.8362Z" fill="white"/>
<path d="M120.531 31.8362L128.916 5.66404L135.584 7.80046L129.06 28.1645L138.956 31.3347L137.095 37.1427L120.531 31.8362Z" fill="url(#paint21_linear_258:680)"/>
<path d="M120.531 31.8362L119.6 31.5377L119.301 32.4692L120.233 32.7676L120.531 31.8362ZM128.916 5.66404L129.214 4.73255L128.283 4.43412L127.984 5.36561L128.916 5.66404ZM135.584 7.80046L136.516 8.09888L136.814 7.1674L135.883 6.86897L135.584 7.80046ZM129.06 28.1645L128.129 27.8661L127.83 28.7976L128.762 29.096L129.06 28.1645ZM138.956 31.3347L139.887 31.6331L140.185 30.7016L139.254 30.4032L138.956 31.3347ZM137.095 37.1428L136.796 38.0742L137.728 38.3727L138.026 37.4412L137.095 37.1428ZM121.463 32.1346L129.847 5.96246L127.984 5.36561L119.6 31.5377L121.463 32.1346ZM128.618 6.59553L135.286 8.73195L135.883 6.86897L129.214 4.73255L128.618 6.59553ZM134.653 7.50203L128.129 27.8661L129.992 28.4629L136.516 8.09888L134.653 7.50203ZM128.762 29.096L138.657 32.2662L139.254 30.4032L129.359 27.233L128.762 29.096ZM138.024 31.0363L136.163 36.8443L138.026 37.4412L139.887 31.6331L138.024 31.0363ZM137.393 36.2113L120.829 30.9047L120.233 32.7676L136.796 38.0742L137.393 36.2113Z" fill="#22262A"/>
<path d="M133.796 36.3602L147.966 12.374L156.977 17.6972C159.116 18.961 160.807 20.3677 162.049 21.9174C163.312 23.4799 164.165 25.1205 164.607 26.8392C165.062 28.5364 165.144 30.2468 164.855 31.9705C164.565 33.6943 163.955 35.3449 163.023 36.9223L162.602 37.6355C161.746 39.0833 160.634 40.3499 159.264 41.4354C157.906 42.4992 156.356 43.2739 154.611 43.7593C152.88 44.2231 151.006 44.3112 148.99 44.0237C147.007 43.7273 144.947 42.9472 142.807 41.6834L133.796 36.3602ZM153.905 23.4904L150.663 21.5756L143.157 34.2818L146.399 36.1966C148.451 37.4093 150.389 37.7813 152.211 37.3126C154.054 36.8567 155.557 35.6455 156.718 33.679C157.944 31.6045 158.286 29.6932 157.745 27.945C157.237 26.188 155.958 24.7031 153.905 23.4904Z" fill="white"/>
<path d="M133.796 36.3602L147.966 12.374L156.977 17.6972C159.116 18.961 160.807 20.3677 162.049 21.9174C163.312 23.4799 164.165 25.1205 164.607 26.8392C165.062 28.5364 165.144 30.2468 164.855 31.9705C164.565 33.6943 163.955 35.3449 163.023 36.9223L162.602 37.6355C161.746 39.0833 160.634 40.3499 159.264 41.4354C157.906 42.4992 156.356 43.2739 154.611 43.7593C152.88 44.2231 151.006 44.3112 148.99 44.0237C147.007 43.7273 144.947 42.9472 142.807 41.6834L133.796 36.3602ZM153.905 23.4904L150.663 21.5756L143.157 34.2818L146.399 36.1966C148.451 37.4093 150.389 37.7813 152.211 37.3126C154.054 36.8567 155.557 35.6455 156.718 33.679C157.944 31.6045 158.286 29.6932 157.745 27.945C157.237 26.188 155.958 24.7031 153.905 23.4904Z" fill="url(#paint22_linear_258:680)"/>
<path d="M133.796 36.3602L132.954 35.8627L132.457 36.7049L133.299 37.2024L133.796 36.3602ZM147.966 12.374L148.464 11.5318L147.621 11.0343L147.124 11.8765L147.966 12.374ZM162.049 21.9174L161.285 22.529L161.288 22.5324L162.049 21.9174ZM164.607 26.8392L163.659 27.083L163.662 27.0925L164.607 26.8392ZM164.855 31.9705L163.89 31.8085L164.855 31.9705ZM159.264 41.4354L159.867 42.2052L159.871 42.202L159.264 41.4354ZM154.611 43.7593L154.864 44.7041L154.874 44.7016L154.611 43.7593ZM148.99 44.0237L148.845 44.9911L148.851 44.992L148.99 44.0237ZM150.663 21.5756L151.161 20.7334L150.319 20.2359L149.821 21.0781L150.663 21.5756ZM143.157 34.2818L142.315 33.7843L141.818 34.6265L142.66 35.124L143.157 34.2818ZM152.211 37.3126L151.976 36.3631L151.967 36.3653L152.211 37.3126ZM157.745 27.945L156.805 28.2162L156.807 28.2253L156.81 28.2344L157.745 27.945ZM134.639 36.8577L148.808 12.8715L147.124 11.8765L132.954 35.8627L134.639 36.8577ZM147.469 13.2161L156.48 18.5393L157.475 16.855L148.464 11.5318L147.469 13.2161ZM156.48 18.5393C158.542 19.7575 160.134 21.0915 161.285 22.529L162.812 21.3058C161.48 19.6439 159.691 18.1644 157.475 16.855L156.48 18.5393ZM161.288 22.5324C162.475 24.0003 163.257 25.5168 163.659 27.0829L165.554 26.5955C165.073 24.7242 164.149 22.9595 162.809 21.3025L161.288 22.5324ZM163.662 27.0925C164.081 28.655 164.156 30.2238 163.89 31.8085L165.82 32.1325C166.132 30.2698 166.043 28.4178 165.552 26.586L163.662 27.0925ZM163.89 31.8085C163.622 33.4082 163.054 34.9457 162.181 36.4249L163.865 37.4198C164.855 35.7441 165.509 33.9803 165.82 32.1325L163.89 31.8085ZM162.181 36.4249L161.759 37.138L163.444 38.1329L163.865 37.4198L162.181 36.4249ZM161.759 37.138C160.968 38.4784 159.936 39.6548 158.656 40.6687L159.871 42.202C161.331 41.045 162.525 39.6882 163.444 38.1329L161.759 37.138ZM158.66 40.6656C157.409 41.6461 155.976 42.3643 154.349 42.8169L154.874 44.7016C156.736 44.1834 158.404 43.3524 159.867 42.2052L158.66 40.6656ZM154.358 42.8144C152.771 43.2398 151.031 43.3268 149.128 43.0553L148.851 44.992C150.981 45.2956 152.989 45.2064 154.864 44.7041L154.358 42.8144ZM149.134 43.0563C147.303 42.7824 145.361 42.0559 143.305 40.8413L142.31 42.5256C144.533 43.8386 146.712 44.6722 148.845 44.991L149.134 43.0563ZM143.305 40.8413L134.294 35.5181L133.299 37.2024L142.31 42.5256L143.305 40.8413ZM154.402 22.6482L151.161 20.7334L150.166 22.4177L153.407 24.3325L154.402 22.6482ZM149.821 21.0781L142.315 33.7843L143.999 34.7793L151.505 22.0731L149.821 21.0781ZM142.66 35.124L145.901 37.0388L146.896 35.3545L143.655 33.4396L142.66 35.124ZM145.901 37.0388C148.114 38.3463 150.319 38.8094 152.454 38.2599L151.967 36.3653C150.459 36.7533 148.788 36.4723 146.896 35.3545L145.901 37.0388ZM152.446 38.2621C154.594 37.7306 156.294 36.3199 157.561 34.1765L155.876 33.1815C154.819 34.9711 153.514 35.9827 151.976 36.3631L152.446 38.2621ZM157.561 34.1765C158.88 31.9438 159.326 29.7441 158.679 27.6557L156.81 28.2344C157.246 29.6423 157.008 31.2653 155.876 33.1815L157.561 34.1765ZM158.684 27.6738C158.089 25.6111 156.603 23.9481 154.402 22.6482L153.407 24.3325C155.313 25.4581 156.386 26.7648 156.805 28.2162L158.684 27.6738Z" fill="#22262A"/>
<path d="M149.703 45.9474L169.207 26.5851L177.297 34.7339L168.193 56.6629L168.59 57.0637L184.14 41.6269L188.755 46.2757L169.251 65.638L161.109 57.4358L170.213 35.5067L169.815 35.106L154.265 50.5428L149.703 45.9474Z" fill="white"/>
<path d="M149.703 45.9474L169.207 26.5851L177.297 34.7339L168.193 56.6629L168.59 57.0637L184.14 41.6269L188.755 46.2757L169.251 65.638L161.109 57.4358L170.213 35.5067L169.815 35.106L154.265 50.5428L149.703 45.9474Z" fill="url(#paint23_linear_258:680)"/>
<path d="M149.703 45.9474L149.014 45.2533L148.32 45.9424L149.009 46.6366L149.703 45.9474ZM169.207 26.5851L169.901 25.896L169.212 25.2019L168.518 25.891L169.207 26.5851ZM177.297 34.7339L178.2 35.1089L178.45 34.5071L177.991 34.0447L177.297 34.7339ZM168.193 56.6629L167.289 56.2879L167.039 56.8896L167.498 57.352L168.193 56.6629ZM168.59 57.0637L167.896 57.7528L168.585 58.4469L169.28 57.7578L168.59 57.0637ZM184.14 41.6269L184.834 40.9378L184.145 40.2436L183.451 40.9327L184.14 41.6269ZM188.755 46.2757L189.444 46.9698L190.138 46.2807L189.449 45.5865L188.755 46.2757ZM169.251 65.638L168.557 66.3271L169.246 67.0212L169.941 66.3321L169.251 65.638ZM161.109 57.4358L160.205 57.0608L159.955 57.6625L160.414 58.1249L161.109 57.4358ZM170.213 35.5067L171.116 35.8818L171.366 35.28L170.907 34.8176L170.213 35.5067ZM169.815 35.106L170.509 34.4169L169.82 33.7227L169.126 34.4118L169.815 35.106ZM154.265 50.5428L153.571 51.2319L154.26 51.9261L154.955 51.2369L154.265 50.5428ZM150.393 46.6416L169.896 27.2793L168.518 25.891L149.014 45.2533L150.393 46.6416ZM168.513 27.2743L176.603 35.423L177.991 34.0447L169.901 25.896L168.513 27.2743ZM176.393 34.3588L167.289 56.2879L169.096 57.038L178.2 35.1089L176.393 34.3588ZM167.498 57.352L167.896 57.7528L169.285 56.3746L168.887 55.9738L167.498 57.352ZM169.28 57.7578L184.829 42.321L183.451 40.9327L167.901 56.3695L169.28 57.7578ZM183.446 42.316L188.061 46.9648L189.449 45.5865L184.834 40.9378L183.446 42.316ZM188.066 45.5815L168.562 64.9438L169.941 66.3321L189.444 46.9698L188.066 45.5815ZM169.946 64.9488L161.803 56.7467L160.414 58.1249L168.557 66.3271L169.946 64.9488ZM162.012 57.8108L171.116 35.8818L169.309 35.1317L160.205 57.0608L162.012 57.8108ZM170.907 34.8176L170.509 34.4169L169.121 35.7951L169.519 36.1959L170.907 34.8176ZM169.126 34.4118L153.576 49.8486L154.955 51.2369L170.504 35.8001L169.126 34.4118ZM154.96 49.8537L150.398 45.2583L149.009 46.6366L153.571 51.2319L154.96 49.8537Z" fill="#22262A"/>
<path d="M163.2 60.4434L186.654 46.1185L195.445 60.5122L190.562 63.4949L185.421 55.0772L180.826 57.8833L185.752 65.9476L180.868 68.9303L175.943 60.866L166.85 66.4193L163.2 60.4434Z" fill="white"/>
<path d="M163.2 60.4434L186.654 46.1185L195.445 60.5122L190.562 63.4949L185.421 55.0772L180.826 57.8833L185.752 65.9476L180.868 68.9303L175.943 60.866L166.85 66.4193L163.2 60.4434Z" fill="url(#paint24_linear_258:680)"/>
<path d="M163.2 60.4434L162.691 59.6086L161.856 60.1185L162.366 60.9532L163.2 60.4434ZM186.654 46.1185L187.489 45.6087L186.979 44.774L186.144 45.2838L186.654 46.1185ZM195.445 60.5122L195.955 61.3469L196.79 60.8371L196.28 60.0023L195.445 60.5122ZM190.562 63.4949L189.727 64.0047L190.237 64.8395L191.072 64.3296L190.562 63.4949ZM185.421 55.0772L186.255 54.5673L185.746 53.7326L184.911 54.2424L185.421 55.0772ZM180.826 57.8833L180.316 57.0485L179.482 57.5584L179.992 58.3931L180.826 57.8833ZM185.752 65.9476L186.261 66.7823L187.096 66.2725L186.586 65.4377L185.752 65.9476ZM180.868 68.9303L180.033 69.4401L180.543 70.2748L181.378 69.765L180.868 68.9303ZM175.943 60.866L176.777 60.3561L176.268 59.5214L175.433 60.0312L175.943 60.866ZM166.85 66.4193L166.016 66.9291L166.525 67.7639L167.36 67.254L166.85 66.4193ZM163.71 61.2781L187.164 46.9533L186.144 45.2838L162.691 59.6086L163.71 61.2781ZM185.82 46.6284L194.611 61.022L196.28 60.0023L187.489 45.6087L185.82 46.6284ZM194.936 59.6774L190.052 62.6601L191.072 64.3296L195.955 61.3469L194.936 59.6774ZM191.397 62.985L186.255 54.5673L184.586 55.587L189.727 64.0047L191.397 62.985ZM184.911 54.2424L180.316 57.0485L181.336 58.718L185.93 55.9119L184.911 54.2424ZM179.992 58.3931L184.917 66.4574L186.586 65.4377L181.661 57.3734L179.992 58.3931ZM185.242 65.1128L180.358 68.0955L181.378 69.765L186.261 66.7823L185.242 65.1128ZM181.703 68.4204L176.777 60.3561L175.108 61.3758L180.033 69.4401L181.703 68.4204ZM175.433 60.0312L166.34 65.5846L167.36 67.254L176.453 61.7007L175.433 60.0312ZM167.685 65.9095L164.035 59.9335L162.366 60.9532L166.016 66.9291L167.685 65.9095Z" fill="#22262A"/>
<path d="M172.682 78.7282L192.813 71.5176L190.274 64.4291L196.015 62.3726L203.455 83.1418L197.713 85.1983L195.174 78.1099L175.043 85.3205L172.682 78.7282Z" fill="white"/>
<path d="M172.682 78.7282L192.813 71.5176L190.274 64.4291L196.015 62.3726L203.455 83.1418L197.713 85.1983L195.174 78.1099L175.043 85.3205L172.682 78.7282Z" fill="url(#paint25_linear_258:680)"/>
<path d="M172.682 78.7282L172.352 77.8074L171.431 78.1372L171.761 79.058L172.682 78.7282ZM192.813 71.5176L193.143 72.4384L194.063 72.1086L193.734 71.1878L192.813 71.5176ZM190.274 64.4291L189.944 63.5083L189.023 63.8381L189.353 64.759L190.274 64.4291ZM196.015 62.3726L196.936 62.0428L196.606 61.1219L195.686 61.4518L196.015 62.3726ZM203.455 83.1418L203.784 84.0626L204.705 83.7328L204.375 82.812L203.455 83.1418ZM197.713 85.1983L196.792 85.5282L197.122 86.449L198.043 86.1192L197.713 85.1983ZM195.174 78.1099L196.095 77.78L195.765 76.8592L194.844 77.189L195.174 78.1099ZM175.043 85.3205L174.122 85.6503L174.452 86.5711L175.373 86.2413L175.043 85.3205ZM173.011 79.649L193.143 72.4384L192.483 70.5968L172.352 77.8074L173.011 79.649ZM193.734 71.1878L191.195 64.0993L189.353 64.759L191.892 71.8474L193.734 71.1878ZM190.604 65.35L196.345 63.2934L195.686 61.4518L189.944 63.5083L190.604 65.35ZM195.095 62.7024L202.534 83.4716L204.375 82.812L196.936 62.0428L195.095 62.7024ZM203.125 82.221L197.383 84.2775L198.043 86.1192L203.784 84.0626L203.125 82.221ZM198.634 84.8685L196.095 77.78L194.253 78.4397L196.792 85.5282L198.634 84.8685ZM194.844 77.189L174.713 84.3996L175.373 86.2413L195.504 79.0307L194.844 77.189ZM175.964 84.9906L173.602 78.3984L171.761 79.058L174.122 85.6503L175.964 84.9906Z" fill="#22262A"/>
<defs>
<linearGradient id="paint0_linear_258:680" x1="202.158" y1="106.094" x2="198.974" y2="132.411" gradientUnits="userSpaceOnUse">
<stop offset="0.267495" stop-color="#FFC6CE"/>
<stop offset="1" stop-color="#64D6EE"/>
</linearGradient>
<linearGradient id="paint1_linear_258:680" x1="199.324" y1="128.567" x2="189.824" y2="154.364" gradientUnits="userSpaceOnUse">
<stop offset="0.267495" stop-color="#FFC6CE"/>
<stop offset="1" stop-color="#64D6EE"/>
</linearGradient>
<linearGradient id="paint2_linear_258:680" x1="190.886" y1="150.972" x2="174.298" y2="175.311" gradientUnits="userSpaceOnUse">
<stop offset="0.267495" stop-color="#FFC6CE"/>
<stop offset="1" stop-color="#64D6EE"/>
</linearGradient>
<linearGradient id="paint3_linear_258:680" x1="176.771" y1="170.777" x2="167.676" y2="179.732" gradientUnits="userSpaceOnUse">
<stop offset="0.267495" stop-color="#FFC6CE"/>
<stop offset="1" stop-color="#64D6EE"/>
</linearGradient>
<linearGradient id="paint4_linear_258:680" x1="165.869" y1="181.889" x2="137.709" y2="199.813" gradientUnits="userSpaceOnUse">
<stop offset="0.267495" stop-color="#FFC6CE"/>
<stop offset="1" stop-color="#64D6EE"/>
</linearGradient>
<linearGradient id="paint5_linear_258:680" x1="143.791" y1="195.661" x2="114.82" y2="204.988" gradientUnits="userSpaceOnUse">
<stop offset="0.267495" stop-color="#FFC6CE"/>
<stop offset="1" stop-color="#64D6EE"/>
</linearGradient>
<linearGradient id="paint6_linear_258:680" x1="119.895" y1="203.176" x2="89.5068" y2="204.87" gradientUnits="userSpaceOnUse">
<stop offset="0.267495" stop-color="#FFC6CE"/>
<stop offset="1" stop-color="#64D6EE"/>
</linearGradient>
<linearGradient id="paint7_linear_258:680" x1="94.3294" y1="204.003" x2="81.6954" y2="202.186" gradientUnits="userSpaceOnUse">
<stop offset="0.267495" stop-color="#FFC6CE"/>
<stop offset="1" stop-color="#64D6EE"/>
</linearGradient>
<linearGradient id="paint8_linear_258:680" x1="79.4401" y1="201.847" x2="58.9166" y2="195.113" gradientUnits="userSpaceOnUse">
<stop offset="0.267495" stop-color="#FFC6CE"/>
<stop offset="1" stop-color="#64D6EE"/>
</linearGradient>
<linearGradient id="paint9_linear_258:680" x1="60.7198" y1="195.72" x2="35.5047" y2="180.497" gradientUnits="userSpaceOnUse">
<stop offset="0.267495" stop-color="#FFC6CE"/>
<stop offset="1" stop-color="#64D6EE"/>
</linearGradient>
<linearGradient id="paint10_linear_258:680" x1="39.3916" y1="182.624" x2="16.1321" y2="158.681" gradientUnits="userSpaceOnUse">
<stop offset="0.267495" stop-color="#FFC6CE"/>
<stop offset="1" stop-color="#64D6EE"/>
</linearGradient>
<linearGradient id="paint11_linear_258:680" x1="21.7649" y1="163.914" x2="10.6358" y2="145.401" gradientUnits="userSpaceOnUse">
<stop offset="0.267495" stop-color="#FFC6CE"/>
<stop offset="1" stop-color="#64D6EE"/>
</linearGradient>
<linearGradient id="paint12_linear_258:680" x1="11.408" y1="146.415" x2="3.63245" y2="124.171" gradientUnits="userSpaceOnUse">
<stop offset="0.267495" stop-color="#FFC6CE"/>
<stop offset="1" stop-color="#64D6EE"/>
</linearGradient>
<linearGradient id="paint13_linear_258:680" x1="2.84222" y1="102.762" x2="6.0263" y2="76.4449" gradientUnits="userSpaceOnUse">
<stop offset="0.267495" stop-color="#FFC6CE"/>
<stop offset="1" stop-color="#64D6EE"/>
</linearGradient>
<linearGradient id="paint14_linear_258:680" x1="5.67571" y1="80.2891" x2="15.1766" y2="54.4923" gradientUnits="userSpaceOnUse">
<stop offset="0.267495" stop-color="#FFC6CE"/>
<stop offset="1" stop-color="#64D6EE"/>
</linearGradient>
<linearGradient id="paint15_linear_258:680" x1="14.1145" y1="57.8841" x2="30.7026" y2="33.5452" gradientUnits="userSpaceOnUse">
<stop offset="0.267495" stop-color="#FFC6CE"/>
<stop offset="1" stop-color="#64D6EE"/>
</linearGradient>
<linearGradient id="paint16_linear_258:680" x1="28.229" y1="38.0796" x2="37.3244" y2="29.1247" gradientUnits="userSpaceOnUse">
<stop offset="0.267495" stop-color="#FFC6CE"/>
<stop offset="1" stop-color="#64D6EE"/>
</linearGradient>
<linearGradient id="paint17_linear_258:680" x1="39.1306" y1="26.967" x2="67.2913" y2="9.04319" gradientUnits="userSpaceOnUse">
<stop offset="0.267495" stop-color="#FFC6CE"/>
<stop offset="1" stop-color="#64D6EE"/>
</linearGradient>
<linearGradient id="paint18_linear_258:680" x1="61.2089" y1="13.1947" x2="90.1804" y2="3.86761" gradientUnits="userSpaceOnUse">
<stop offset="0.267495" stop-color="#FFC6CE"/>
<stop offset="1" stop-color="#64D6EE"/>
</linearGradient>
<linearGradient id="paint19_linear_258:680" x1="85.1047" y1="5.68033" x2="115.493" y2="3.98617" gradientUnits="userSpaceOnUse">
<stop offset="0.267495" stop-color="#FFC6CE"/>
<stop offset="1" stop-color="#64D6EE"/>
</linearGradient>
<linearGradient id="paint20_linear_258:680" x1="110.671" y1="4.85287" x2="123.305" y2="6.66971" gradientUnits="userSpaceOnUse">
<stop offset="0.267495" stop-color="#FFC6CE"/>
<stop offset="1" stop-color="#64D6EE"/>
</linearGradient>
<linearGradient id="paint21_linear_258:680" x1="125.56" y1="7.009" x2="146.083" y2="13.7435" gradientUnits="userSpaceOnUse">
<stop offset="0.267495" stop-color="#FFC6CE"/>
<stop offset="1" stop-color="#64D6EE"/>
</linearGradient>
<linearGradient id="paint22_linear_258:680" x1="144.28" y1="13.1359" x2="169.495" y2="28.3591" gradientUnits="userSpaceOnUse">
<stop offset="0.267495" stop-color="#FFC6CE"/>
<stop offset="1" stop-color="#64D6EE"/>
</linearGradient>
<linearGradient id="paint23_linear_258:680" x1="165.608" y1="26.2319" x2="188.868" y2="50.1752" gradientUnits="userSpaceOnUse">
<stop offset="0.267495" stop-color="#FFC6CE"/>
<stop offset="1" stop-color="#64D6EE"/>
</linearGradient>
<linearGradient id="paint24_linear_258:680" x1="183.235" y1="44.9424" x2="194.364" y2="63.4549" gradientUnits="userSpaceOnUse">
<stop offset="0.267495" stop-color="#FFC6CE"/>
<stop offset="1" stop-color="#64D6EE"/>
</linearGradient>
<linearGradient id="paint25_linear_258:680" x1="193.592" y1="62.4409" x2="201.367" y2="84.6848" gradientUnits="userSpaceOnUse">
<stop offset="0.267495" stop-color="#FFC6CE"/>
<stop offset="1" stop-color="#64D6EE"/>
</linearGradient>
</defs>
</svg>
