<svg width="292" height="54" viewBox="0 0 292 54" fill="none" xmlns="http://www.w3.org/2000/svg">
<path d="M1.968 19.096V1.336H8.472C10.056 1.336 11.44 1.568 12.624 2.032C13.808 2.496 14.792 3.128 15.576 3.928C16.376 4.728 16.976 5.648 17.376 6.688C17.776 7.712 17.976 8.792 17.976 9.928V10.456C17.976 11.528 17.776 12.576 17.376 13.6C16.976 14.624 16.376 15.552 15.576 16.384C14.792 17.216 13.808 17.88 12.624 18.376C11.44 18.856 10.056 19.096 8.472 19.096H1.968ZM8.688 5.008H5.904V15.424H8.688C10.336 15.424 11.632 14.944 12.576 13.984C13.52 13.024 13.992 11.76 13.992 10.192C13.992 8.544 13.52 7.272 12.576 6.376C11.632 5.464 10.336 5.008 8.688 5.008ZM26.526 19.456C25.406 19.456 24.414 19.264 23.55 18.88C22.702 18.496 21.99 17.984 21.414 17.344C20.838 16.688 20.406 15.96 20.118 15.16C19.83 14.344 19.686 13.512 19.686 12.664V12.184C19.686 11.32 19.83 10.48 20.118 9.664C20.406 8.848 20.838 8.12 21.414 7.48C21.99 6.84 22.686 6.336 23.502 5.968C24.334 5.584 25.294 5.392 26.382 5.392C27.79 5.392 28.974 5.712 29.934 6.352C30.91 6.976 31.654 7.8 32.166 8.824C32.678 9.848 32.934 10.952 32.934 12.136V13.432H23.31C23.438 14.328 23.758 15.04 24.27 15.568C24.798 16.08 25.55 16.336 26.526 16.336C27.214 16.336 27.782 16.208 28.23 15.952C28.694 15.68 29.006 15.336 29.166 14.92H32.694C32.406 16.264 31.71 17.36 30.606 18.208C29.518 19.04 28.158 19.456 26.526 19.456ZM26.382 8.512C25.55 8.512 24.87 8.752 24.342 9.232C23.83 9.696 23.502 10.368 23.358 11.248H29.262C29.134 10.368 28.822 9.696 28.326 9.232C27.846 8.752 27.198 8.512 26.382 8.512ZM41.4546 19.168C40.1266 19.168 39.0546 19.008 38.2386 18.688C37.4226 18.352 36.8226 17.8 36.4386 17.032C36.0706 16.248 35.8866 15.192 35.8866 13.864V8.656H33.8946V5.848H35.8866V2.296H39.4626V5.848H43.3026V8.656H39.4626V14.008C39.4626 14.632 39.6226 15.112 39.9426 15.448C40.2786 15.768 40.7506 15.928 41.3586 15.928H43.3026V19.168H41.4546ZM51.8619 19.456C50.7419 19.456 49.7499 19.264 48.8859 18.88C48.0379 18.496 47.3259 17.984 46.7499 17.344C46.1739 16.688 45.7419 15.96 45.4539 15.16C45.1659 14.344 45.0219 13.512 45.0219 12.664V12.184C45.0219 11.32 45.1659 10.48 45.4539 9.664C45.7419 8.848 46.1739 8.12 46.7499 7.48C47.3259 6.84 48.0219 6.336 48.8379 5.968C49.6699 5.584 50.6299 5.392 51.7179 5.392C53.1259 5.392 54.3099 5.712 55.2699 6.352C56.2459 6.976 56.9899 7.8 57.5019 8.824C58.0139 9.848 58.2699 10.952 58.2699 12.136V13.432H48.6459C48.7739 14.328 49.0939 15.04 49.6059 15.568C50.1339 16.08 50.8859 16.336 51.8619 16.336C52.5499 16.336 53.1179 16.208 53.5659 15.952C54.0299 15.68 54.3419 15.336 54.5019 14.92H58.0299C57.7419 16.264 57.0459 17.36 55.9419 18.208C54.8539 19.04 53.4939 19.456 51.8619 19.456ZM51.7179 8.512C50.8859 8.512 50.2059 8.752 49.6779 9.232C49.1659 9.696 48.8379 10.368 48.6939 11.248H54.5979C54.4699 10.368 54.1579 9.696 53.6619 9.232C53.1819 8.752 52.5339 8.512 51.7179 8.512ZM60.8145 19V5.848H63.8625V10.312C64.0065 8.824 64.4625 7.68 65.2305 6.88C66.0145 6.08 67.0785 5.68 68.4225 5.68H68.9265V8.992H67.9665C66.8945 8.992 66.0705 9.28 65.4945 9.856C64.9345 10.432 64.6545 11.248 64.6545 12.304V19H60.8145ZM70.9161 19V5.848H73.9641V9.184C74.4761 6.688 75.9001 5.44 78.2361 5.44H78.4041C80.4361 5.44 81.7801 6.392 82.4361 8.296C83.1081 6.392 84.4601 5.44 86.4921 5.44H86.6601C88.1481 5.44 89.2841 5.952 90.0681 6.976C90.8521 8 91.2441 9.512 91.2441 11.512V19H87.4041V11.296C87.4041 10.576 87.2121 9.992 86.8281 9.544C86.4601 9.096 85.9321 8.872 85.2441 8.872C84.5561 8.872 84.0121 9.104 83.6121 9.568C83.2121 10.032 83.0121 10.632 83.0121 11.368V19H79.1481V11.296C79.1481 10.576 78.9561 9.992 78.5721 9.544C78.2041 9.096 77.6841 8.872 77.0121 8.872C76.3081 8.872 75.7561 9.104 75.3561 9.568C74.9561 10.032 74.7561 10.632 74.7561 11.368V19H70.9161ZM96.6296 4.552C95.9096 4.552 95.3736 4.368 95.0216 4C94.6856 3.616 94.5176 3.136 94.5176 2.56C94.5176 1.968 94.6856 1.488 95.0216 1.12C95.3736 0.735999 95.9096 0.543999 96.6296 0.543999C97.3496 0.543999 97.8776 0.735999 98.2136 1.12C98.5656 1.488 98.7416 1.968 98.7416 2.56C98.7416 3.136 98.5656 3.616 98.2136 4C97.8776 4.368 97.3496 4.552 96.6296 4.552ZM95.1416 19V8.68H93.3896V5.848H98.9816V19H95.1416ZM102.533 19V5.848H105.581V9.208C106.109 6.696 107.589 5.44 110.021 5.44H110.189C111.709 5.44 112.877 5.944 113.693 6.952C114.509 7.944 114.917 9.456 114.917 11.488V19H111.077V11.272C111.077 10.568 110.869 9.992 110.453 9.544C110.037 9.096 109.477 8.872 108.773 8.872C108.053 8.872 107.469 9.104 107.021 9.568C106.589 10.016 106.373 10.608 106.373 11.344V19H102.533ZM124.214 19.456C123.094 19.456 122.102 19.264 121.238 18.88C120.39 18.496 119.678 17.984 119.102 17.344C118.526 16.688 118.094 15.96 117.806 15.16C117.518 14.344 117.374 13.512 117.374 12.664V12.184C117.374 11.32 117.518 10.48 117.806 9.664C118.094 8.848 118.526 8.12 119.102 7.48C119.678 6.84 120.374 6.336 121.19 5.968C122.022 5.584 122.982 5.392 124.07 5.392C125.478 5.392 126.662 5.712 127.622 6.352C128.598 6.976 129.342 7.8 129.854 8.824C130.366 9.848 130.622 10.952 130.622 12.136V13.432H120.998C121.126 14.328 121.446 15.04 121.958 15.568C122.486 16.08 123.238 16.336 124.214 16.336C124.902 16.336 125.47 16.208 125.918 15.952C126.382 15.68 126.694 15.336 126.854 14.92H130.382C130.094 16.264 129.398 17.36 128.294 18.208C127.206 19.04 125.846 19.456 124.214 19.456ZM124.07 8.512C123.238 8.512 122.558 8.752 122.03 9.232C121.518 9.696 121.19 10.368 121.046 11.248H126.95C126.822 10.368 126.51 9.696 126.014 9.232C125.534 8.752 124.886 8.512 124.07 8.512ZM144.181 19.168C142.853 19.168 141.781 19.008 140.965 18.688C140.149 18.352 139.549 17.8 139.165 17.032C138.797 16.248 138.613 15.192 138.613 13.864V8.656H136.621V5.848H138.613V2.296H142.189V5.848H146.029V8.656H142.189V14.008C142.189 14.632 142.349 15.112 142.669 15.448C143.005 15.768 143.477 15.928 144.085 15.928H146.029V19.168H144.181ZM148.611 19V1.48H152.451V8.008C153.155 6.296 154.451 5.44 156.339 5.44H156.507C157.963 5.44 159.075 5.96 159.843 7C160.611 8.024 160.995 9.528 160.995 11.512V19H157.155V11.272C157.155 10.552 156.939 9.976 156.507 9.544C156.091 9.096 155.539 8.872 154.851 8.872C154.131 8.872 153.547 9.112 153.099 9.592C152.667 10.056 152.451 10.664 152.451 11.416V19H148.611ZM170.292 19.456C169.172 19.456 168.18 19.264 167.316 18.88C166.468 18.496 165.756 17.984 165.18 17.344C164.604 16.688 164.172 15.96 163.884 15.16C163.596 14.344 163.452 13.512 163.452 12.664V12.184C163.452 11.32 163.596 10.48 163.884 9.664C164.172 8.848 164.604 8.12 165.18 7.48C165.756 6.84 166.452 6.336 167.268 5.968C168.1 5.584 169.06 5.392 170.148 5.392C171.556 5.392 172.74 5.712 173.7 6.352C174.676 6.976 175.42 7.8 175.932 8.824C176.444 9.848 176.7 10.952 176.7 12.136V13.432H167.076C167.204 14.328 167.524 15.04 168.036 15.568C168.564 16.08 169.316 16.336 170.292 16.336C170.98 16.336 171.548 16.208 171.996 15.952C172.46 15.68 172.772 15.336 172.932 14.92H176.46C176.172 16.264 175.476 17.36 174.372 18.208C173.284 19.04 171.924 19.456 170.292 19.456ZM170.148 8.512C169.316 8.512 168.636 8.752 168.108 9.232C167.596 9.696 167.268 10.368 167.124 11.248H173.028C172.9 10.368 172.588 9.696 172.092 9.232C171.612 8.752 170.964 8.512 170.148 8.512ZM184.283 19V5.848H187.331V9.208C187.859 6.696 189.339 5.44 191.771 5.44H191.939C193.459 5.44 194.627 5.944 195.443 6.952C196.259 7.944 196.667 9.456 196.667 11.488V19H192.827V11.272C192.827 10.568 192.619 9.992 192.203 9.544C191.787 9.096 191.227 8.872 190.523 8.872C189.803 8.872 189.219 9.104 188.771 9.568C188.339 10.016 188.123 10.608 188.123 11.344V19H184.283ZM205.964 19.456C204.844 19.456 203.852 19.264 202.988 18.88C202.14 18.496 201.428 17.984 200.852 17.344C200.276 16.688 199.844 15.96 199.556 15.16C199.268 14.344 199.124 13.512 199.124 12.664V12.184C199.124 11.32 199.268 10.48 199.556 9.664C199.844 8.848 200.276 8.12 200.852 7.48C201.428 6.84 202.124 6.336 202.94 5.968C203.772 5.584 204.732 5.392 205.82 5.392C207.228 5.392 208.412 5.712 209.372 6.352C210.348 6.976 211.092 7.8 211.604 8.824C212.116 9.848 212.372 10.952 212.372 12.136V13.432H202.748C202.876 14.328 203.196 15.04 203.708 15.568C204.236 16.08 204.988 16.336 205.964 16.336C206.652 16.336 207.22 16.208 207.668 15.952C208.132 15.68 208.444 15.336 208.604 14.92H212.132C211.844 16.264 211.148 17.36 210.044 18.208C208.956 19.04 207.596 19.456 205.964 19.456ZM205.82 8.512C204.988 8.512 204.308 8.752 203.78 9.232C203.268 9.696 202.94 10.368 202.796 11.248H208.7C208.572 10.368 208.26 9.696 207.764 9.232C207.284 8.752 206.636 8.512 205.82 8.512ZM213.382 19L217.246 12.328L213.526 5.848H217.678L220.054 10.312H220.438L222.67 5.848H226.582L223.102 12.232L227.326 19H223.15L220.318 14.224H219.934L217.27 19H213.382ZM235.142 19.168C233.814 19.168 232.742 19.008 231.926 18.688C231.11 18.352 230.51 17.8 230.126 17.032C229.758 16.248 229.574 15.192 229.574 13.864V8.656H227.582V5.848H229.574V2.296H233.15V5.848H236.99V8.656H233.15V14.008C233.15 14.632 233.31 15.112 233.63 15.448C233.966 15.768 234.438 15.928 235.046 15.928H236.99V19.168H235.142ZM244.827 19V1.48H251.283L257.883 15.808H258.219V1.48H261.915V19H255.411L248.811 4.672H248.475V19H244.827ZM265.851 19V1.48H276.363V4.744H269.787V8.68H276.075V11.944H269.787V19H265.851ZM282.971 19V4.912H278.051V1.48H291.851V4.912H286.907V19H282.971ZM7.176 49.432C5.944 49.432 4.856 49.144 3.912 48.568C2.984 47.976 2.256 47.176 1.728 46.168C1.2 45.16 0.936 44.024 0.936 42.76V42.208C0.936 40.944 1.184 39.8 1.68 38.776C2.176 37.752 2.88 36.944 3.792 36.352C4.72 35.76 5.8 35.464 7.032 35.464C8.952 35.464 10.368 36.192 11.28 37.648V31.48H15.144V49H12.096V46.24C11.664 47.28 11.024 48.072 10.176 48.616C9.328 49.16 8.328 49.432 7.176 49.432ZM8.136 46.216C9.016 46.216 9.776 45.92 10.416 45.328C11.056 44.736 11.376 43.896 11.376 42.808V41.92C11.376 41.232 11.224 40.648 10.92 40.168C10.616 39.672 10.216 39.296 9.72 39.04C9.224 38.784 8.688 38.656 8.112 38.656C7.136 38.656 6.336 39.008 5.712 39.712C5.088 40.416 4.776 41.336 4.776 42.472C4.776 43.624 5.088 44.536 5.712 45.208C6.352 45.88 7.16 46.216 8.136 46.216ZM18.627 49V35.848H21.675V40.312C21.819 38.824 22.275 37.68 23.043 36.88C23.827 36.08 24.891 35.68 26.235 35.68H26.739V38.992H25.779C24.707 38.992 23.883 39.28 23.307 39.856C22.747 40.432 22.467 41.248 22.467 42.304V49H18.627ZM35.0663 49.456C33.5303 49.456 32.2183 49.144 31.1303 48.52C30.0583 47.896 29.2423 47.08 28.6823 46.072C28.1223 45.048 27.8423 43.936 27.8423 42.736V42.184C27.8423 40.952 28.1303 39.824 28.7063 38.8C29.2983 37.76 30.1303 36.936 31.2023 36.328C32.2903 35.704 33.5783 35.392 35.0663 35.392C36.5543 35.392 37.8423 35.704 38.9303 36.328C40.0183 36.936 40.8503 37.76 41.4263 38.8C42.0183 39.824 42.3143 40.952 42.3143 42.184V42.736C42.3143 43.936 42.0263 45.048 41.4503 46.072C40.8903 47.08 40.0743 47.896 39.0023 48.52C37.9303 49.144 36.6183 49.456 35.0663 49.456ZM35.0663 46.216C36.1703 46.216 37.0103 45.864 37.5863 45.16C38.1783 44.44 38.4743 43.544 38.4743 42.472C38.4743 41.368 38.1703 40.456 37.5623 39.736C36.9703 39 36.1383 38.632 35.0663 38.632C33.9943 38.632 33.1623 39 32.5703 39.736C31.9783 40.456 31.6823 41.368 31.6823 42.472C31.6823 43.544 31.9703 44.44 32.5463 45.16C33.1223 45.864 33.9623 46.216 35.0663 46.216ZM44.9942 53.8V35.848H48.0422V39.184C48.4262 37.968 49.0662 37.048 49.9622 36.424C50.8742 35.784 51.9382 35.464 53.1542 35.464C54.3702 35.464 55.4262 35.76 56.3222 36.352C57.2342 36.928 57.9382 37.72 58.4342 38.728C58.9462 39.736 59.2022 40.872 59.2022 42.136V42.688C59.2022 43.952 58.9622 45.096 58.4822 46.12C58.0022 47.144 57.3142 47.952 56.4182 48.544C55.5222 49.136 54.4342 49.432 53.1542 49.432C52.2582 49.432 51.4342 49.264 50.6822 48.928C49.9302 48.592 49.3142 48.08 48.8342 47.392V53.8H44.9942ZM52.0742 46.216C53.0502 46.216 53.8342 45.864 54.4262 45.16C55.0342 44.456 55.3382 43.536 55.3382 42.4C55.3382 41.28 55.0342 40.376 54.4262 39.688C53.8342 39 53.0502 38.656 52.0742 38.656C51.4822 38.656 50.9302 38.792 50.4182 39.064C49.9222 39.336 49.5142 39.728 49.1942 40.24C48.8902 40.752 48.7382 41.36 48.7382 42.064V42.952C48.7382 43.64 48.8982 44.232 49.2182 44.728C49.5542 45.208 49.9782 45.576 50.4902 45.832C51.0022 46.088 51.5302 46.216 52.0742 46.216ZM70.6523 49.336C69.2283 49.336 68.0763 48.968 67.1963 48.232C66.3323 47.496 65.9003 46.456 65.9003 45.112C65.9003 44.152 66.1483 43.368 66.6443 42.76C67.1403 42.136 67.8363 41.68 68.7323 41.392C69.6283 41.088 70.6603 40.936 71.8283 40.936H74.2043V40.888C74.2043 39.544 73.5323 38.872 72.1883 38.872C71.8363 38.872 71.3723 38.888 70.7963 38.92C70.2203 38.936 69.6203 38.96 68.9963 38.992C68.3883 39.008 67.8443 39.032 67.3643 39.064V35.824C67.9243 35.776 68.6123 35.736 69.4283 35.704C70.2443 35.656 70.9963 35.632 71.6843 35.632C73.7003 35.632 75.2363 36.064 76.2923 36.928C77.3643 37.776 77.9003 39.112 77.9003 40.936V49H74.8523V46.528C74.5643 47.44 74.0683 48.136 73.3643 48.616C72.6603 49.096 71.7563 49.336 70.6523 49.336ZM71.8043 46.672C72.4283 46.672 72.9723 46.496 73.4363 46.144C73.9003 45.792 74.1563 45.12 74.2043 44.128V43.072H71.8043C71.1323 43.072 70.6123 43.24 70.2443 43.576C69.8923 43.912 69.7163 44.352 69.7163 44.896C69.7163 45.424 69.8923 45.856 70.2443 46.192C70.6123 46.512 71.1323 46.672 71.8043 46.672ZM81.1583 49V35.848H84.2063V39.208C84.7343 36.696 86.2143 35.44 88.6463 35.44H88.8143C90.3343 35.44 91.5023 35.944 92.3183 36.952C93.1343 37.944 93.5423 39.456 93.5423 41.488V49H89.7023V41.272C89.7023 40.568 89.4943 39.992 89.0783 39.544C88.6623 39.096 88.1023 38.872 87.3983 38.872C86.6783 38.872 86.0943 39.104 85.6463 39.568C85.2143 40.016 84.9983 40.608 84.9983 41.344V49H81.1583ZM102.239 49.432C101.007 49.432 99.9185 49.144 98.9745 48.568C98.0465 47.976 97.3185 47.176 96.7905 46.168C96.2625 45.16 95.9985 44.024 95.9985 42.76V42.208C95.9985 40.944 96.2465 39.8 96.7425 38.776C97.2385 37.752 97.9425 36.944 98.8545 36.352C99.7825 35.76 100.863 35.464 102.095 35.464C104.015 35.464 105.431 36.192 106.343 37.648V31.48H110.207V49H107.159V46.24C106.727 47.28 106.087 48.072 105.239 48.616C104.391 49.16 103.391 49.432 102.239 49.432ZM103.199 46.216C104.079 46.216 104.839 45.92 105.479 45.328C106.119 44.736 106.439 43.896 106.439 42.808V41.92C106.439 41.232 106.287 40.648 105.983 40.168C105.679 39.672 105.279 39.296 104.783 39.04C104.287 38.784 103.751 38.656 103.175 38.656C102.199 38.656 101.399 39.008 100.775 39.712C100.151 40.416 99.8385 41.336 99.8385 42.472C99.8385 43.624 100.151 44.536 100.775 45.208C101.415 45.88 102.223 46.216 103.199 46.216ZM119.017 49V38.92H117.457V36.112H119.017V35.728C119.017 32.736 120.721 31.24 124.129 31.24H125.809V34.12H123.961C123.049 34.12 122.593 34.576 122.593 35.488V36.112H126.001V38.92H122.593V49H119.017ZM133.87 49.456C132.75 49.456 131.758 49.264 130.894 48.88C130.046 48.496 129.334 47.984 128.758 47.344C128.182 46.688 127.75 45.96 127.462 45.16C127.174 44.344 127.03 43.512 127.03 42.664V42.184C127.03 41.32 127.174 40.48 127.462 39.664C127.75 38.848 128.182 38.12 128.758 37.48C129.334 36.84 130.03 36.336 130.846 35.968C131.678 35.584 132.638 35.392 133.726 35.392C135.134 35.392 136.318 35.712 137.278 36.352C138.254 36.976 138.998 37.8 139.51 38.824C140.022 39.848 140.278 40.952 140.278 42.136V43.432H130.654C130.782 44.328 131.102 45.04 131.614 45.568C132.142 46.08 132.894 46.336 133.87 46.336C134.558 46.336 135.126 46.208 135.574 45.952C136.038 45.68 136.35 45.336 136.51 44.92H140.038C139.75 46.264 139.054 47.36 137.95 48.208C136.862 49.04 135.502 49.456 133.87 49.456ZM133.726 38.512C132.894 38.512 132.214 38.752 131.686 39.232C131.174 39.696 130.846 40.368 130.702 41.248H136.606C136.478 40.368 136.166 39.696 135.67 39.232C135.19 38.752 134.542 38.512 133.726 38.512ZM146.566 49.336C145.142 49.336 143.99 48.968 143.11 48.232C142.246 47.496 141.814 46.456 141.814 45.112C141.814 44.152 142.062 43.368 142.558 42.76C143.054 42.136 143.75 41.68 144.646 41.392C145.542 41.088 146.574 40.936 147.742 40.936H150.118V40.888C150.118 39.544 149.446 38.872 148.102 38.872C147.75 38.872 147.286 38.888 146.71 38.92C146.134 38.936 145.534 38.96 144.91 38.992C144.302 39.008 143.758 39.032 143.278 39.064V35.824C143.838 35.776 144.526 35.736 145.342 35.704C146.158 35.656 146.91 35.632 147.598 35.632C149.614 35.632 151.15 36.064 152.206 36.928C153.278 37.776 153.814 39.112 153.814 40.936V49H150.766V46.528C150.478 47.44 149.982 48.136 149.278 48.616C148.574 49.096 147.67 49.336 146.566 49.336ZM147.718 46.672C148.342 46.672 148.886 46.496 149.35 46.144C149.814 45.792 150.07 45.12 150.118 44.128V43.072H147.718C147.046 43.072 146.526 43.24 146.158 43.576C145.806 43.912 145.63 44.352 145.63 44.896C145.63 45.424 145.806 45.856 146.158 46.192C146.526 46.512 147.046 46.672 147.718 46.672ZM163.048 49.168C161.72 49.168 160.648 49.008 159.832 48.688C159.016 48.352 158.416 47.8 158.032 47.032C157.664 46.248 157.48 45.192 157.48 43.864V38.656H155.488V35.848H157.48V32.296H161.056V35.848H164.896V38.656H161.056V44.008C161.056 44.632 161.216 45.112 161.536 45.448C161.872 45.768 162.344 45.928 162.952 45.928H164.896V49.168H163.048ZM171.919 49.408C170.399 49.408 169.231 48.92 168.415 47.944C167.599 46.968 167.191 45.48 167.191 43.48V35.848H171.031V43.672C171.031 44.376 171.231 44.936 171.631 45.352C172.031 45.768 172.567 45.976 173.239 45.976C173.927 45.976 174.487 45.76 174.919 45.328C175.351 44.896 175.567 44.312 175.567 43.576V35.848H179.407V49H176.359V45.928C175.815 48.248 174.391 49.408 172.087 49.408H171.919ZM182.947 49V35.848H185.995V40.312C186.139 38.824 186.595 37.68 187.363 36.88C188.147 36.08 189.211 35.68 190.555 35.68H191.059V38.992H190.099C189.027 38.992 188.203 39.28 187.627 39.856C187.067 40.432 186.787 41.248 186.787 42.304V49H182.947ZM199.003 49.456C197.883 49.456 196.891 49.264 196.027 48.88C195.179 48.496 194.467 47.984 193.891 47.344C193.315 46.688 192.883 45.96 192.595 45.16C192.307 44.344 192.163 43.512 192.163 42.664V42.184C192.163 41.32 192.307 40.48 192.595 39.664C192.883 38.848 193.315 38.12 193.891 37.48C194.467 36.84 195.163 36.336 195.979 35.968C196.811 35.584 197.771 35.392 198.859 35.392C200.267 35.392 201.451 35.712 202.411 36.352C203.387 36.976 204.131 37.8 204.643 38.824C205.155 39.848 205.411 40.952 205.411 42.136V43.432H195.787C195.915 44.328 196.235 45.04 196.747 45.568C197.275 46.08 198.027 46.336 199.003 46.336C199.691 46.336 200.259 46.208 200.707 45.952C201.171 45.68 201.483 45.336 201.643 44.92H205.171C204.883 46.264 204.187 47.36 203.083 48.208C201.995 49.04 200.635 49.456 199.003 49.456ZM198.859 38.512C198.027 38.512 197.347 38.752 196.819 39.232C196.307 39.696 195.979 40.368 195.835 41.248H201.739C201.611 40.368 201.299 39.696 200.803 39.232C200.323 38.752 199.675 38.512 198.859 38.512ZM212.947 49.408C211.075 49.408 209.611 49.024 208.555 48.256C207.499 47.488 206.939 46.408 206.875 45.016H210.283C210.331 45.432 210.579 45.808 211.027 46.144C211.475 46.464 212.139 46.624 213.019 46.624C213.675 46.624 214.227 46.512 214.675 46.288C215.123 46.064 215.347 45.728 215.347 45.28C215.347 44.896 215.179 44.592 214.843 44.368C214.507 44.128 213.907 43.96 213.043 43.864L212.011 43.768C210.427 43.592 209.235 43.152 208.435 42.448C207.651 41.744 207.259 40.824 207.259 39.688C207.259 38.76 207.491 37.984 207.955 37.36C208.435 36.736 209.083 36.264 209.899 35.944C210.715 35.624 211.651 35.464 212.707 35.464C214.403 35.464 215.763 35.84 216.787 36.592C217.827 37.328 218.379 38.4 218.443 39.808H215.035C214.971 39.392 214.739 39.032 214.339 38.728C213.955 38.424 213.395 38.272 212.659 38.272C212.067 38.272 211.595 38.384 211.243 38.608C210.891 38.832 210.715 39.136 210.715 39.52C210.715 39.888 210.867 40.168 211.171 40.36C211.475 40.552 211.971 40.688 212.659 40.768L213.691 40.864C215.291 41.04 216.539 41.496 217.435 42.232C218.347 42.952 218.803 43.912 218.803 45.112C218.803 46.44 218.275 47.488 217.219 48.256C216.163 49.024 214.739 49.408 212.947 49.408Z" fill="url(#paint0_linear_239:773)"/>
<defs>
<linearGradient id="paint0_linear_239:773" x1="-1.1107e-06" y1="9.81579" x2="312.194" y2="34.7946" gradientUnits="userSpaceOnUse">
<stop offset="0.267495" stop-color="#FFC6CE"/>
<stop offset="1" stop-color="#64D6EE"/>
</linearGradient>
</defs>
</svg>
