<svg width="101" height="28" viewBox="0 0 101 28" fill="none" xmlns="http://www.w3.org/2000/svg">
<path d="M26.6 2C26.68 2 26.72 2.08 26.72 2.24C26.72 2.4 26.68 2.48 26.6 2.48C25.64 2.48 24.72 2.90667 23.84 3.76C22.96 4.61333 22.2533 5.76 21.72 7.2L14.32 26.96C14.2933 27.0667 14.1467 27.12 13.88 27.12C13.6133 27.12 13.4667 27.0667 13.44 26.96L3.24 5.32C2.76 4.36 2.28 3.65333 1.8 3.2C1.32 2.72 0.786667 2.48 0.2 2.48C0.12 2.48 0.08 2.4 0.08 2.24C0.08 2.08 0.12 2 0.2 2C0.6 2 0.88 2.01333 1.04 2.04C1.57333 2.09333 2.26667 2.12 3.12 2.12C5.41333 2.12 7.36 2.09333 8.96 2.04C9.38667 2.01333 9.92 2 10.56 2C10.64 2 10.68 2.08 10.68 2.24C10.68 2.4 10.64 2.48 10.56 2.48C9.76 2.48 9.13333 2.65333 8.68 3C8.25333 3.32 8.04 3.78667 8.04 4.4C8.04 4.85333 8.18667 5.4 8.48 6.04L15.4 20.8L20.6 7.08C20.8667 6.33333 21 5.69333 21 5.16C21 4.33333 20.7467 3.68 20.24 3.2C19.76 2.72 19.0533 2.48 18.12 2.48C18.04 2.48 18 2.4 18 2.24C18 2.08 18.04 2 18.12 2L20.08 2.04C21.2 2.09333 22.2 2.12 23.08 2.12C23.5867 2.12 24.2133 2.09333 24.96 2.04L26.6 2ZM39.8744 27.48C37.3944 27.48 35.181 26.9067 33.2344 25.76C31.3144 24.5867 29.821 23.0133 28.7544 21.04C27.7144 19.04 27.1944 16.8667 27.1944 14.52C27.1944 11.7733 27.8877 9.42667 29.2744 7.48C30.661 5.50667 32.4344 4.02667 34.5944 3.04C36.781 2.05333 39.0077 1.56 41.2744 1.56C43.8077 1.56 46.0344 2.16 47.9544 3.36C49.8744 4.53333 51.341 6.09333 52.3544 8.04C53.3944 9.98667 53.9144 12.0533 53.9144 14.24C53.9144 16.6667 53.2744 18.8933 51.9944 20.92C50.7144 22.9467 48.9944 24.5467 46.8344 25.72C44.701 26.8933 42.381 27.48 39.8744 27.48ZM41.1944 26.48C42.6877 26.48 44.021 26.0533 45.1944 25.2C46.3944 24.32 47.3277 23.0533 47.9944 21.4C48.661 19.72 48.9944 17.72 48.9944 15.4C48.9944 12.9467 48.621 10.76 47.8744 8.84C47.1277 6.89333 46.0477 5.37333 44.6344 4.28C43.221 3.18667 41.5677 2.64 39.6744 2.64C37.2477 2.64 35.381 3.56 34.0744 5.4C32.7677 7.21333 32.1144 9.76 32.1144 13.04C32.1144 15.6267 32.501 17.9467 33.2744 20C34.0744 22.0267 35.1544 23.6133 36.5144 24.76C37.901 25.9067 39.461 26.48 41.1944 26.48ZM63.5675 2.92C60.3942 2.92 58.1142 4.98666 56.7275 9.12C56.7008 9.2 56.6208 9.24 56.4875 9.24C56.3542 9.21333 56.2875 9.16 56.2875 9.08C56.3942 8.01333 56.5142 6.64 56.6475 4.96C56.7808 3.25333 56.8475 1.97333 56.8475 1.12C56.8475 0.986666 56.9142 0.92 57.0475 0.92C57.2075 0.92 57.2875 0.986666 57.2875 1.12C57.2875 1.70667 58.0475 2 59.5675 2C61.8608 2.08 64.5408 2.12 67.6075 2.12C69.1808 2.12 70.8475 2.09333 72.6075 2.04L75.3275 2C76.3408 2 77.0742 1.93333 77.5275 1.8C78.0075 1.66666 78.3142 1.4 78.4475 0.999999C78.4742 0.893332 78.5542 0.839998 78.6875 0.839998C78.8475 0.839998 78.9275 0.893332 78.9275 0.999999C78.8475 1.8 78.7542 3.08 78.6475 4.84C78.5675 6.6 78.5275 8.01333 78.5275 9.08C78.5275 9.16 78.4608 9.2 78.3275 9.2C78.1942 9.2 78.1142 9.16 78.0875 9.08C77.6875 7.02667 76.9408 5.49333 75.8475 4.48C74.7542 3.44 73.4075 2.92 71.8075 2.92C71.0342 2.92 70.5142 3.09333 70.2475 3.44C70.0075 3.76 69.8875 4.38667 69.8875 5.32V23.76C69.8875 24.5867 69.9675 25.1867 70.1275 25.56C70.2875 25.9333 70.5942 26.1867 71.0475 26.32C71.5008 26.4533 72.2208 26.52 73.2075 26.52C73.2875 26.52 73.3275 26.6 73.3275 26.76C73.3275 26.92 73.2875 27 73.2075 27C72.2475 27 71.4875 26.9867 70.9275 26.96L67.6075 26.92L64.3675 26.96C63.8075 26.9867 63.0342 27 62.0475 27C61.9675 27 61.9275 26.92 61.9275 26.76C61.9275 26.6 61.9675 26.52 62.0475 26.52C63.0075 26.52 63.7142 26.4533 64.1675 26.32C64.6475 26.1867 64.9675 25.9333 65.1275 25.56C65.3142 25.16 65.4075 24.56 65.4075 23.76V5.24C65.4075 4.33333 65.2875 3.72 65.0475 3.4C64.8075 3.08 64.3142 2.92 63.5675 2.92ZM100.231 20.64C100.231 20.5867 100.284 20.56 100.391 20.56C100.471 20.56 100.537 20.5867 100.591 20.64C100.671 20.6667 100.711 20.6933 100.711 20.72C100.444 22.8 100.311 24.6933 100.311 26.4C100.311 26.6133 100.271 26.7733 100.191 26.88C100.111 26.96 99.9506 27 99.7106 27H82.0306C81.9506 27 81.9106 26.92 81.9106 26.76C81.9106 26.6 81.9506 26.52 82.0306 26.52C82.884 26.52 83.4973 26.4533 83.8706 26.32C84.2706 26.1867 84.5373 25.9333 84.6706 25.56C84.804 25.16 84.8706 24.56 84.8706 23.76V5.24C84.8706 4.44 84.804 3.85333 84.6706 3.48C84.5373 3.10667 84.2706 2.85333 83.8706 2.72C83.4706 2.56 82.8573 2.48 82.0306 2.48C81.9506 2.48 81.9106 2.4 81.9106 2.24C81.9106 2.08 81.9506 2 82.0306 2H98.9906C99.2573 2 99.3906 2.12 99.3906 2.36L99.4706 7.68C99.4706 7.73333 99.3906 7.77333 99.2306 7.8C99.0973 7.82667 99.0173 7.8 98.9906 7.72C98.564 6.17333 97.844 5.02667 96.8306 4.28C95.8173 3.53333 94.484 3.16 92.8306 3.16H91.6306C90.8306 3.16 90.244 3.33333 89.8706 3.68C89.4973 4.02667 89.3106 4.56 89.3106 5.28V13.44H92.6306C94.1773 13.44 95.364 13.1733 96.1906 12.64C97.0173 12.1067 97.4306 11.36 97.4306 10.4C97.4306 10.32 97.4973 10.28 97.6306 10.28C97.7906 10.28 97.8706 10.32 97.8706 10.4L97.8306 14L97.8706 15.92C97.924 16.8267 97.9506 17.5467 97.9506 18.08C97.9506 18.1333 97.8706 18.16 97.7106 18.16C97.5506 18.16 97.4706 18.1333 97.4706 18.08C97.4706 16.9867 97.044 16.1333 96.1906 15.52C95.364 14.88 94.164 14.56 92.5906 14.56H89.3106V23.6C89.3106 24.3733 89.4573 24.9467 89.7506 25.32C90.044 25.6933 90.5106 25.88 91.1506 25.88H92.4706C94.5506 25.88 96.2173 25.4533 97.4706 24.6C98.724 23.7467 99.644 22.4267 100.231 20.64Z" fill="url(#paint0_linear_239:772)"/>
<defs>
<linearGradient id="paint0_linear_239:772" x1="-1.1107e-06" y1="1.05263" x2="311.081" y2="32.1648" gradientUnits="userSpaceOnUse">
<stop offset="0.267495" stop-color="#FFC6CE"/>
<stop offset="1" stop-color="#64D6EE"/>
</linearGradient>
</defs>
</svg>
