<svg width="587" height="650" viewBox="-10 0 587 650" fill="none" xmlns="http://www.w3.org/2000/svg">
<path d="M66.819 240.174L18.5688 223.348L29.2178 192.811L39.2645 196.315L32.7644 214.954L41.423 217.973L47.5773 200.326L57.6239 203.829L51.4696 221.477L60.9213 224.773L67.5597 205.737L77.6063 209.241L66.819 240.174Z" fill="#22262A"/>
<path d="M84.6518 195.695L49.7536 176.643L43.0452 188.931L33.0918 183.498L52.7473 147.493L62.7007 152.927L55.9923 165.215L90.8906 184.267L84.6518 195.695Z" fill="#22262A"/>
<path d="M98.8056 170.071L59.5906 137.308L67.9384 127.316L83.0335 139.928L95.5103 124.994L80.4152 112.382L88.763 102.39L127.978 135.153L119.63 145.145L104.213 132.264L91.736 147.198L107.153 160.079L98.8056 170.071Z" fill="#22262A"/>
<path d="M133.007 131.377L100.807 91.6989L125.918 71.3199L132.623 79.5816L117.295 92.0207L123.073 99.141L137.586 87.3636L144.291 95.6253L129.778 107.403L136.086 115.175L151.74 102.472L158.445 110.733L133.007 131.377Z" fill="#22262A"/>
<path d="M163.021 107.416L138.627 62.0367L157.309 51.9943C163.187 48.8347 168.519 47.6643 173.303 48.4831C178.066 49.2609 181.806 52.1777 184.524 57.2335L185.054 58.22C186.8 61.4673 187.55 64.5874 187.304 67.5803C187.059 70.5733 185.909 73.3634 183.856 75.9505L203.344 85.7403L190.15 92.8329L173.6 83.9271L167.065 87.4402L174.489 101.251L163.021 107.416ZM163.158 61.2482L155.266 65.4905L162.325 78.6234L170.217 74.381C172.232 73.2983 173.525 71.8612 174.099 70.0695C174.691 68.2146 174.446 66.2801 173.363 64.266C172.28 62.2519 170.802 60.9802 168.928 60.4511C167.096 59.8998 165.172 60.1655 163.158 61.2482Z" fill="#22262A"/>
<path d="M205.701 85.7302L189.994 37.1042L220.768 27.1634L224.039 37.2883L205.254 43.356L208.073 52.0821L225.858 46.3371L229.129 56.462L211.344 62.207L214.421 71.7323L233.605 65.5355L236.875 75.6604L205.701 85.7302Z" fill="#22262A"/>
<path d="M263.47 73.0187C258.604 73.6023 254.372 73.1934 250.773 71.7921C247.22 70.3852 244.366 68.1425 242.211 65.0639C240.05 61.9391 238.697 58.1062 238.152 53.5655L234.559 23.6102L247.487 22.0595L251.113 52.2928C251.474 55.3045 252.595 57.5907 254.474 59.1513C256.399 60.7064 258.914 61.2977 262.019 60.9254C265.123 60.553 267.407 59.4096 268.869 57.4951C270.326 55.5343 270.871 53.0249 270.504 49.9668L266.878 19.7335L279.805 18.1828L283.398 48.1381C284.215 54.9493 282.917 60.5807 279.502 65.0323C276.135 69.4784 270.79 72.1405 263.47 73.0187Z" fill="#22262A"/>
<path d="M290.565 68.1679L296.91 17.4633L314.831 19.7059L321.903 47.7512L323.292 47.925L336.988 22.4787L355.255 24.7647L348.91 75.4692L336.13 73.8699L340.893 35.8068L326.364 62.2775L314.625 60.8085L307.093 31.9297L302.373 69.6455L290.565 68.1679Z" fill="#22262A"/>
<path d="M390.639 94.084C386.461 92.1113 383.213 89.7002 380.894 86.8507C378.595 83.959 377.033 80.8733 376.208 77.5935C375.403 74.2716 375.194 70.9989 375.58 67.7754C375.967 64.5519 376.778 61.632 378.014 59.0157L378.671 57.6231C380.046 54.7114 381.855 52.0822 384.099 49.7355C386.404 47.3665 389.066 45.5009 392.083 44.1388C395.142 42.7966 398.468 42.1477 402.059 42.1922C405.651 42.2367 409.43 43.1954 413.397 45.0685C417.616 47.0611 420.972 49.6264 423.465 52.7642C426.019 55.8798 427.61 59.3406 428.238 63.1467C428.887 66.9105 428.493 70.75 427.057 74.6651L415.284 69.1057C415.978 66.5433 415.693 64.0864 414.429 61.735C413.185 59.3415 411.108 57.4573 408.196 56.0823C404.525 54.3488 401.087 54.1965 397.884 55.6254C394.722 57.0743 392.165 59.8664 390.212 64.0019C388.26 68.1374 387.77 71.9059 388.745 75.3075C389.719 78.7092 392.084 81.2967 395.839 83.0701C398.793 84.465 401.622 84.9232 404.325 84.4449C407.07 83.9866 409.221 82.6543 410.779 80.4483L422.553 86.0077C420.539 89.2886 417.884 91.9056 414.588 93.8585C411.292 95.8114 407.589 96.8758 403.481 97.0517C399.392 97.1854 395.112 96.1962 390.639 94.084Z" fill="#22262A"/>
<path d="M416.143 106.155L446.202 64.8308L456.731 72.4894L433.343 104.643L448.967 116.008L442.297 125.178L416.143 106.155Z" fill="#22262A"/>
<path d="M460.817 146.005C457.661 142.567 455.499 139.04 454.332 135.423C453.2 131.775 452.823 128.224 453.202 124.773C453.614 121.289 454.577 118.093 456.088 115.185C457.599 112.277 459.42 109.845 461.552 107.888L462.686 106.847C465.058 104.669 467.773 102.968 470.831 101.745C473.923 100.489 477.186 99.869 480.62 99.8835C484.055 99.8979 487.474 100.655 490.878 102.154C494.313 103.688 497.562 106.122 500.623 109.457C503.653 112.757 505.77 116.166 506.974 119.686C508.21 123.24 508.688 126.728 508.41 130.151C508.132 133.574 507.236 136.773 505.722 139.747C504.273 142.723 502.363 145.301 499.991 147.478L498.857 148.52C496.726 150.477 494.131 152.067 491.073 153.291C488.047 154.549 484.781 155.235 481.275 155.35C477.804 155.433 474.299 154.754 470.76 153.315C467.256 151.845 463.941 149.408 460.817 146.005ZM469.789 137.767C471.809 139.967 474.026 141.416 476.44 142.113C478.854 142.811 481.281 142.832 483.72 142.176C486.159 141.521 488.41 140.246 490.472 138.353C492.672 136.333 494.186 134.151 495.012 131.809C495.873 129.434 496.009 127.029 495.419 124.593C494.896 122.159 493.64 119.86 491.651 117.694C488.653 114.428 485.256 112.764 481.461 112.701C477.731 112.641 474.233 114.11 470.968 117.109C468.905 119.002 467.443 121.136 466.582 123.511C465.721 125.885 465.536 128.305 466.025 130.77C466.514 133.235 467.769 135.567 469.789 137.767Z" fill="#22262A"/>
<path d="M492.366 189.761C490.1 185.734 488.847 181.888 488.605 178.223C488.403 174.534 488.915 171.114 490.14 167.961C491.405 164.786 493.128 161.996 495.309 159.591C497.49 157.186 499.841 155.274 502.363 153.855L503.705 153.1C506.511 151.52 509.508 150.423 512.696 149.807C515.947 149.21 519.197 149.228 522.446 149.863C525.718 150.539 528.805 151.934 531.709 154.049C534.612 156.163 537.139 159.132 539.29 162.955C541.579 167.022 542.831 171.056 543.048 175.058C543.328 179.077 542.623 182.82 540.933 186.288C539.284 189.732 536.741 192.636 533.305 194.998L526.92 183.651C528.968 181.963 530.158 179.794 530.488 177.145C530.859 174.473 530.255 171.734 528.676 168.928C526.685 165.39 523.969 163.276 520.53 162.588C517.113 161.94 513.412 162.738 509.426 164.98C505.441 167.223 502.861 170.013 501.687 173.351C500.513 176.689 500.944 180.168 502.981 183.788C504.583 186.635 506.624 188.645 509.106 189.819C511.61 191.034 514.135 191.193 516.682 190.295L523.067 201.642C519.526 203.152 515.847 203.75 512.028 203.436C508.21 203.121 504.575 201.847 501.122 199.613C497.71 197.356 494.792 194.072 492.366 189.761Z" fill="#22262A"/>
<path d="M507.119 214.908L556.092 200.319L559.809 212.797L536.865 219.632L564.985 230.173L569.262 244.529L543.44 234.838L521.308 262.539L516.831 247.512L534.971 224.798L533.712 220.571L510.836 227.386L507.119 214.908Z" fill="#22262A"/>
</svg>
