<svg width="93" height="101" viewBox="0 0 93 101" fill="none" xmlns="http://www.w3.org/2000/svg">
<path d="M80.0747 66.245L87.697 70.1369L86.94 71.6196L80.6228 68.3942L79.0501 71.4744L77.7449 70.808L80.0747 66.245Z" fill="#22262A"/>
<path d="M73.927 74.9912C74.2797 74.573 74.6613 74.266 75.0718 74.0703C75.4772 73.8805 75.8876 73.7819 76.303 73.7743C76.7192 73.7778 77.1221 73.8517 77.5115 73.9961C77.8959 74.1465 78.2435 74.3527 78.5542 74.6147L78.7245 74.7583C79.0471 75.0304 79.3149 75.3432 79.528 75.6967C79.7361 76.0562 79.8739 76.4383 79.9416 76.843C80.0042 77.2537 79.9757 77.6693 79.8561 78.09C79.7426 78.5156 79.5169 78.9286 79.1793 79.3289C78.7359 79.8547 78.249 80.1955 77.7187 80.3515C77.1944 80.5126 76.6684 80.524 76.1408 80.3857C75.6142 80.2585 75.1358 80.0135 74.7056 79.6507L74.2575 79.2728L77.3414 75.6163C76.9237 75.3356 76.5102 75.2016 76.1008 75.2142C75.6864 75.2327 75.3053 75.4482 74.9577 75.8604C74.7057 76.1591 74.5589 76.4545 74.5171 76.7465C74.4763 77.0495 74.5228 77.3034 74.6567 77.5084L73.6892 78.6555C73.2781 78.1247 73.0889 77.5306 73.1218 76.8733C73.1547 76.216 73.4231 75.5887 73.927 74.9912ZM78.1487 78.4597C78.446 78.1072 78.5842 77.7432 78.5634 77.3678C78.5426 76.9924 78.3842 76.6287 78.088 76.2767L76.0246 78.7233C76.4114 78.9678 76.7891 79.0716 77.1576 79.0347C77.521 79.0039 77.8514 78.8122 78.1487 78.4597Z" fill="#22262A"/>
<path d="M67.9031 80.3321C68.4705 79.9163 69.0307 79.7286 69.5836 79.7691C70.1303 79.8142 70.5953 80.0984 70.9788 80.6216C71.39 81.1826 71.491 81.7434 71.2816 82.3039C71.0705 82.8753 70.6214 83.4128 69.9342 83.9164L68.8846 84.6857L68.9193 84.733C69.3489 85.3193 69.8601 85.3952 70.4527 84.9609C70.6103 84.8454 70.7971 84.7036 71.0131 84.5356C71.2291 84.3676 71.446 84.1941 71.6637 84.0152C71.8797 83.8472 72.0713 83.6922 72.2386 83.5502L73.0564 84.666C72.8559 84.842 72.6122 85.0449 72.3251 85.2747C72.0318 85.5091 71.759 85.7187 71.5069 85.9035C70.7189 86.481 70.0085 86.7546 69.3757 86.7242C68.7412 86.7047 68.1629 86.3387 67.6408 85.6264L65.3052 82.4397L66.3454 81.6773L67.0662 82.6608C66.7542 81.7459 67.0332 80.9697 67.9031 80.3321ZM68.2205 81.5385C68.044 81.6679 67.9 81.8219 67.7886 82.0004C67.6818 82.1853 67.6358 82.3935 67.6504 82.625C67.6634 82.8674 67.7652 83.132 67.9559 83.4186L68.3094 83.9009L69.3779 83.1177C69.6805 82.8959 69.8583 82.6493 69.9113 82.3779C69.9626 82.1174 69.9028 81.8705 69.7319 81.6373C69.5563 81.3977 69.3366 81.2632 69.0727 81.2337C68.8072 81.2152 68.5231 81.3168 68.2205 81.5385Z" fill="#22262A"/>
<path d="M62.0762 83.8393L64.6992 89.6399L63.5241 90.1713L62.6691 88.2805C63.105 89.6617 62.7105 90.6293 61.4856 91.1832L61.2719 91.2798L60.6874 89.9872L61.0933 89.8037C61.599 89.575 61.9259 89.2642 62.0742 88.8712C62.2224 88.4782 62.1838 88.0324 61.9584 87.5339L60.5913 84.5108L62.0762 83.8393Z" fill="#22262A"/>
<path d="M55.5852 86.1229L56.8875 92.3544L55.6251 92.6182L55.3037 91.0804C55.2774 92.2916 54.6866 93.0179 53.5313 93.2594L53.4625 93.2738C52.7204 93.4288 52.1077 93.3054 51.6244 92.9033C51.1412 92.5013 50.8012 91.8297 50.6046 90.8887L49.8587 87.3197L51.4539 86.9863L52.2285 90.6931C52.3084 91.0756 52.4841 91.3623 52.7556 91.5531C53.027 91.7439 53.3502 91.8001 53.725 91.7217C54.1152 91.6402 54.4071 91.4514 54.6008 91.1555C54.7868 90.8611 54.8382 90.515 54.7551 90.1171L53.99 86.4563L55.5852 86.1229Z" fill="#22262A"/>
<path d="M41.4377 86.9154L39.5244 95.2572L37.3075 94.7487L36.3591 89.2868L36.1534 89.2397L32.9309 93.7449L30.6798 93.2285L32.5931 84.8867L34.2044 85.2563L32.6894 91.8612L35.8593 87.4281L37.5162 87.8081L38.4451 93.1452L39.9522 86.5746L41.4377 86.9154Z" fill="#22262A"/>
<path d="M26.4775 80.9144C27.1236 81.296 27.5912 81.7491 27.8803 82.2739C28.1655 82.8055 28.2987 83.3561 28.2798 83.926C28.2543 84.4918 28.0984 85.017 27.8122 85.5015L27.687 85.7135C27.3889 86.2183 26.9949 86.6164 26.5049 86.908C26.0083 87.1956 25.4604 87.3395 24.8612 87.3396C24.2553 87.3358 23.6394 87.149 23.0135 86.7794C22.3944 86.4137 21.9402 85.9685 21.6511 85.4437C21.3552 84.9149 21.2167 84.3656 21.2355 83.7958C21.2476 83.222 21.4028 82.6827 21.7009 82.178L21.8261 81.966C22.1122 81.4814 22.5003 81.0934 22.9902 80.8018C23.4734 80.5062 24.0166 80.355 24.6198 80.3482C25.2189 80.348 25.8382 80.5368 26.4775 80.9144ZM25.768 82.1156C25.2566 81.8136 24.7708 81.7445 24.3109 81.9086C23.8402 82.0754 23.4578 82.4078 23.1636 82.9058C22.8695 83.4038 22.7664 83.9011 22.8543 84.3978C22.9422 84.8945 23.2317 85.2879 23.723 85.5781C24.221 85.8722 24.7087 85.9379 25.1861 85.7751C25.6635 85.6123 26.0493 85.2818 26.3434 84.7838C26.6376 84.2858 26.7474 83.7925 26.673 83.3037C26.5879 82.8177 26.2862 82.4217 25.768 82.1156Z" fill="#22262A"/>
<path d="M21.2848 77.0247L16.8789 81.6197L15.948 80.7272L17.3842 79.2294C16.2647 80.1484 15.2199 80.1427 14.2495 79.2123L14.0803 79.05L15.0621 78.0261L15.3836 78.3344C15.7842 78.7185 16.1944 78.9061 16.6144 78.8973C17.0343 78.8884 17.4336 78.6866 17.8122 78.2917L20.1085 75.8968L21.2848 77.0247Z" fill="#22262A"/>
<path d="M15.5648 69.7196C15.8735 70.1713 16.0673 70.6211 16.1461 71.0689C16.2206 71.5103 16.2059 71.9322 16.1022 72.3344C15.9875 72.7346 15.8086 73.1031 15.5653 73.4397C15.3177 73.7699 15.026 74.0497 14.6905 74.279L14.5066 74.4047C14.1581 74.6428 13.7851 74.8173 13.3875 74.9281C12.9855 75.0325 12.5804 75.0631 12.1724 75.0201C11.7599 74.9707 11.367 74.8321 10.9937 74.6045C10.6139 74.3812 10.2762 74.0534 9.98077 73.6211C9.59269 73.0532 9.39438 72.4929 9.38586 71.9402C9.37087 71.3919 9.5005 70.882 9.77473 70.4106C10.0381 69.9372 10.4021 69.5417 10.8667 69.2241L11.3507 68.8934L14.0496 72.8426C14.4317 72.5151 14.6714 72.1525 14.7688 71.7547C14.8617 71.3504 14.756 70.9256 14.4517 70.4804C14.2312 70.1577 13.9858 69.9372 13.7156 69.819C13.4346 69.6986 13.1774 69.6756 12.9442 69.7498L12.0974 68.5108C12.7189 68.2565 13.3419 68.2331 13.9664 68.4405C14.591 68.648 15.1238 69.0743 15.5648 69.7196ZM11.0939 72.8603C11.3541 73.241 11.6678 73.4716 12.0351 73.5519C12.4024 73.6322 12.7953 73.5767 13.2136 73.3855L11.4077 70.743C11.0687 71.0504 10.8677 71.3866 10.8047 71.7515C10.7373 72.11 10.8337 72.4796 11.0939 72.8603Z" fill="#22262A"/>
<path d="M80.0747 66.245L87.697 70.1369L86.94 71.6196L80.6228 68.3942L79.0501 71.4744L77.7449 70.808L80.0747 66.245Z" fill="#22262A"/>
<path d="M13.053 34.1147L5.43065 30.2229L6.18769 28.7402L12.5049 31.9656L14.0776 28.8854L15.3828 29.5518L13.053 34.1147Z" fill="#22262A"/>
<path d="M19.2004 25.3686C18.8477 25.7868 18.4661 26.0938 18.0556 26.2895C17.6502 26.4793 17.2398 26.5779 16.8245 26.5855C16.4082 26.582 16.0053 26.5081 15.6159 26.3637C15.2315 26.2133 14.884 26.0071 14.5733 25.7451L14.403 25.6014C14.0804 25.3293 13.8125 25.0165 13.5994 24.663C13.3914 24.3035 13.2535 23.9214 13.1859 23.5167C13.1233 23.106 13.1517 22.6904 13.2713 22.2698C13.3849 21.8442 13.6105 21.4312 13.9481 21.0309C14.3915 20.5051 14.8784 20.1642 15.4087 20.0082C15.9331 19.8472 16.459 19.8358 16.9866 19.974C17.5132 20.1012 17.9916 20.3462 18.4218 20.709L18.8699 21.0869L15.7861 24.7435C16.2037 25.0241 16.6172 25.1582 17.0266 25.1456C17.441 25.127 17.8221 24.9116 18.1698 24.4993C18.4217 24.2006 18.5686 23.9053 18.6103 23.6133C18.6512 23.3103 18.6046 23.0563 18.4707 22.8514L19.4382 21.7043C19.8494 22.2351 20.0385 22.8291 20.0056 23.4864C19.9727 24.1437 19.7043 24.7711 19.2004 25.3686ZM14.9787 21.9001C14.6814 22.2526 14.5432 22.6166 14.564 22.992C14.5848 23.3674 14.7433 23.7311 15.0394 24.0831L17.1029 21.6364C16.716 21.392 16.3384 21.2882 15.9699 21.325C15.6064 21.3559 15.276 21.5476 14.9787 21.9001Z" fill="#22262A"/>
<path d="M25.2243 20.0277C24.6569 20.4435 24.0968 20.6312 23.5438 20.5907C22.9972 20.5456 22.5321 20.2614 22.1486 19.7382C21.7374 19.1772 21.6365 18.6164 21.8459 18.0559C22.057 17.4845 22.5061 16.947 23.1932 16.4434L24.2428 15.6741L24.2082 15.6268C23.7785 15.0405 23.2674 14.9646 22.6748 15.3989C22.5172 15.5144 22.3304 15.6562 22.1143 15.8242C21.8983 15.9922 21.6815 16.1657 21.4638 16.3446C21.2477 16.5126 21.0561 16.6676 20.8888 16.8096L20.071 15.6938C20.2715 15.5178 20.5153 15.3149 20.8023 15.0851C21.0957 14.8508 21.3684 14.6412 21.6206 14.4563C22.4086 13.8788 23.119 13.6052 23.7518 13.6356C24.3862 13.6551 24.9645 14.0211 25.4866 14.7334L27.8222 17.9201L26.7821 18.6825L26.0613 17.699C26.3732 18.6139 26.0942 19.3901 25.2243 20.0277ZM24.907 18.8213C25.0835 18.6919 25.2274 18.5379 25.3388 18.3594C25.4456 18.1745 25.4917 17.9663 25.477 17.7348C25.4641 17.4924 25.3622 17.2278 25.1715 16.9412L24.8181 16.4589L23.7495 17.2421C23.447 17.4639 23.2692 17.7105 23.2161 17.9819C23.1648 18.2424 23.2246 18.4893 23.3956 18.7225C23.5711 18.9621 23.7909 19.0966 24.0547 19.1261C24.3203 19.1446 24.6044 19.043 24.907 18.8213Z" fill="#22262A"/>
<path d="M31.0512 16.5204L28.4282 10.7199L29.6033 10.1885L30.4583 12.0793C30.0224 10.6981 30.417 9.73051 31.6419 9.1766L31.8555 9.07999L32.44 10.3726L32.0341 10.5561C31.5285 10.7848 31.2015 11.0956 31.0533 11.4886C30.905 11.8816 30.9436 12.3273 31.169 12.8259L32.5361 15.849L31.0512 16.5204Z" fill="#22262A"/>
<path d="M37.5425 14.2368L36.2402 8.00539L37.5026 7.74158L37.8239 9.27936C37.8503 8.06816 38.4411 7.34184 39.5963 7.10042L39.6652 7.08603C40.4073 6.93094 41.02 7.05442 41.5032 7.45647C41.9865 7.85852 42.3265 8.53006 42.5231 9.47109L43.269 13.0401L41.6738 13.3735L40.8992 9.66673C40.8192 9.2842 40.6436 8.99753 40.3721 8.80673C40.1007 8.61592 39.7775 8.55969 39.4027 8.63804C39.0125 8.71958 38.7206 8.90834 38.5269 9.20432C38.3409 9.49871 38.2895 9.84482 38.3726 10.2426L39.1376 13.9035L37.5425 14.2368Z" fill="#22262A"/>
<path d="M51.6897 13.4444L53.603 5.10259L55.8199 5.61106L56.7683 11.0729L56.974 11.1201L60.1965 6.61491L62.4476 7.13125L60.5343 15.4731L58.9231 15.1035L60.438 8.49862L57.2682 12.9317L55.6112 12.5516L54.6823 7.21453L53.1752 13.7851L51.6897 13.4444Z" fill="#22262A"/>
<path d="M66.6502 19.4454C66.0041 19.0638 65.5365 18.6106 65.2474 18.0858C64.9622 17.5543 64.829 17.0036 64.8479 16.4338C64.8734 15.868 65.0293 15.3428 65.3155 14.8582L65.4407 14.6463C65.7388 14.1415 66.1328 13.7434 66.6228 13.4518C67.1194 13.1642 67.6673 13.0203 68.2665 13.0202C68.8724 13.024 69.4883 13.2108 70.1142 13.5804C70.7333 13.9461 71.1875 14.3913 71.4766 14.9161C71.7725 15.4449 71.911 15.9942 71.8922 16.564C71.88 17.1378 71.7249 17.6771 71.4268 18.1818L71.3016 18.3938C71.0154 18.8783 70.6274 19.2664 70.1375 19.558C69.6543 19.8536 69.1111 20.0048 68.5079 20.0116C67.9087 20.0118 67.2895 19.823 66.6502 19.4454ZM67.3597 18.2441C67.8711 18.5462 68.3568 18.6153 68.8168 18.4512C69.2875 18.2844 69.6699 17.952 69.964 17.454C70.2582 16.956 70.3613 16.4587 70.2734 15.962C70.1855 15.4653 69.896 15.0718 69.4047 14.7817C68.9067 14.4875 68.419 14.4219 67.9416 14.5847C67.4641 14.7475 67.0784 15.0779 66.7842 15.5759C66.4901 16.0739 66.3803 16.5673 66.4547 17.0561C66.5398 17.5421 66.8415 17.9381 67.3597 18.2441Z" fill="#22262A"/>
<path d="M71.8426 23.3351L76.2486 18.7401L77.1794 19.6326L75.7433 21.1304C76.8627 20.2114 77.9076 20.2171 78.8779 21.1475L79.0472 21.3098L78.0654 22.3337L77.7438 22.0254C77.3433 21.6413 76.933 21.4537 76.5131 21.4625C76.0931 21.4713 75.6939 21.6732 75.3152 22.0681L73.0189 24.463L71.8426 23.3351Z" fill="#22262A"/>
<path d="M77.5629 30.6401C77.2542 30.1884 77.0604 29.7387 76.9815 29.2908C76.9071 28.8494 76.9217 28.4276 77.0255 28.0254C77.1401 27.6251 77.3191 27.2567 77.5624 26.9201C77.81 26.5899 78.1016 26.3101 78.4372 26.0808L78.6211 25.9551C78.9696 25.7169 79.3426 25.5425 79.7402 25.4317C80.1422 25.3273 80.5473 25.2966 80.9553 25.3396C81.3678 25.3891 81.7607 25.5276 82.134 25.7553C82.5138 25.9786 82.8514 26.3064 83.1469 26.7387C83.535 27.3066 83.7333 27.8669 83.7418 28.4196C83.7568 28.9679 83.6272 29.4777 83.353 29.9492C83.0896 30.4226 82.7256 30.8181 82.261 31.1356L81.777 31.4664L79.0781 27.5172C78.696 27.8446 78.4562 28.2073 78.3589 28.6051C78.266 29.0094 78.3717 29.4342 78.676 29.8794C78.8965 30.2021 79.1419 30.4225 79.412 30.5408C79.6931 30.6612 79.9502 30.6842 80.1835 30.61L81.0302 31.8489C80.4088 32.1032 79.7858 32.1267 79.1613 31.9192C78.5367 31.7118 78.0039 31.2854 77.5629 30.6401ZM82.0338 27.4995C81.7736 27.1187 81.4598 26.8882 81.0925 26.8079C80.7253 26.7276 80.3324 26.783 79.914 26.9743L81.72 29.6168C82.0589 29.3093 82.2599 28.9732 82.323 28.6082C82.3904 28.2498 82.294 27.8802 82.0338 27.4995Z" fill="#22262A"/>
<path d="M13.053 34.1147L5.43065 30.2229L6.18769 28.7402L12.5049 31.9656L14.0776 28.8854L15.3828 29.5518L13.053 34.1147Z" fill="#22262A"/>
</svg>
