<svg width="245" height="28" viewBox="0 0 245 28" fill="none" xmlns="http://www.w3.org/2000/svg">
<path d="M7.64 23.6C7.64 24.4533 7.73333 25.08 7.92 25.48C8.10667 25.8533 8.45333 26.12 8.96 26.28C9.49333 26.44 10.3333 26.52 11.48 26.52C11.56 26.52 11.6 26.6 11.6 26.76C11.6 26.92 11.56 27 11.48 27C10.3867 27 9.53333 26.9867 8.92 26.96L5.44 26.92L2.52 26.96C1.98667 26.9867 1.26667 27 0.36 27C0.28 27 0.24 26.92 0.24 26.76C0.24 26.6 0.28 26.52 0.36 26.52C1.21333 26.52 1.82667 26.4533 2.2 26.32C2.6 26.1867 2.86667 25.9333 3 25.56C3.13333 25.16 3.2 24.56 3.2 23.76V5.24C3.2 4.44 3.13333 3.85333 3 3.48C2.86667 3.10667 2.6 2.85333 2.2 2.72C1.8 2.56 1.18667 2.48 0.36 2.48C0.28 2.48 0.24 2.4 0.24 2.24C0.24 2.08 0.28 2 0.36 2L2.48 2.04C3.70667 2.09333 4.68 2.12 5.4 2.12C6.04 2.12 6.8 2.08 7.68 2C8.02667 1.97333 8.46667 1.94666 9 1.92C9.53333 1.89333 10.1467 1.88 10.84 1.88C13.56 1.88 15.7067 2.45333 17.28 3.6C18.8533 4.72 19.64 6.46667 19.64 8.84C19.64 10.4933 19.2133 11.8933 18.36 13.04C17.5067 14.1867 16.4 15.0533 15.04 15.64C13.7067 16.2267 12.3333 16.52 10.92 16.52C10.2 16.52 9.57333 16.4533 9.04 16.32C8.98667 16.32 8.96 16.2533 8.96 16.12C8.96 16.04 8.97333 15.96 9 15.88C9.05333 15.8 9.10667 15.7733 9.16 15.8C9.56 15.9067 10.0133 15.96 10.52 15.96C11.7467 15.96 12.76 15.3867 13.56 14.24C14.3867 13.0933 14.8 11.4667 14.8 9.36C14.8 7.25333 14.3467 5.62667 13.44 4.48C12.56 3.33333 11.2667 2.76 9.56 2.76C8.81333 2.76 8.30667 2.93333 8.04 3.28C7.77333 3.62666 7.64 4.30666 7.64 5.32V23.6ZM47.4847 26.52C47.618 26.52 47.6847 26.6 47.6847 26.76C47.6847 26.92 47.618 27 47.4847 27C46.9514 27 46.1247 26.9733 45.0047 26.92C43.8314 26.8667 42.9914 26.84 42.4847 26.84C41.818 26.84 41.0047 26.8667 40.0447 26.92C39.138 26.9733 38.418 27 37.8847 27C37.778 27 37.7247 26.92 37.7247 26.76C37.7247 26.6 37.778 26.52 37.8847 26.52C38.578 26.52 39.0714 26.4533 39.3647 26.32C39.6847 26.16 39.8447 25.8933 39.8447 25.52C39.8447 25.0667 39.578 24.3067 39.0447 23.24L36.3247 17.84H26.4847L24.9247 21.32C24.578 22.0933 24.4047 22.8133 24.4047 23.48C24.4047 24.44 24.738 25.1867 25.4047 25.72C26.098 26.2533 27.018 26.52 28.1647 26.52C28.298 26.52 28.3647 26.6 28.3647 26.76C28.3647 26.92 28.298 27 28.1647 27C27.6847 27 26.9914 26.9733 26.0847 26.92C25.0714 26.8667 24.1914 26.84 23.4447 26.84C22.7247 26.84 21.858 26.8667 20.8447 26.92C19.938 26.9733 19.2047 27 18.6447 27C18.538 27 18.4847 26.92 18.4847 26.76C18.4847 26.6 18.538 26.52 18.6447 26.52C19.3914 26.52 20.018 26.3733 20.5247 26.08C21.0314 25.76 21.538 25.2133 22.0447 24.44C22.5514 23.64 23.1514 22.4667 23.8447 20.92L32.5247 1.84C32.578 1.76 32.698 1.72 32.8847 1.72C33.098 1.72 33.218 1.76 33.2447 1.84L43.2447 21.52C44.178 23.4133 44.9514 24.72 45.5647 25.44C46.178 26.16 46.818 26.52 47.4847 26.52ZM27.0047 16.72H35.7247L31.1247 7.6L27.0047 16.72ZM75.7575 26.52C75.8108 26.52 75.8375 26.6 75.8375 26.76C75.8375 26.92 75.8108 27 75.7575 27H68.6375C68.0508 27 66.9575 25.9467 65.3575 23.84C63.7575 21.7067 61.8242 18.7333 59.5575 14.92C59.3442 14.9467 59.0375 14.96 58.6375 14.96C57.5975 14.96 56.8642 14.9467 56.4375 14.92V23.76C56.4375 24.5867 56.5042 25.1867 56.6375 25.56C56.7708 25.9333 57.0242 26.1867 57.3975 26.32C57.7975 26.4533 58.4242 26.52 59.2775 26.52C59.3308 26.52 59.3575 26.6 59.3575 26.76C59.3575 26.92 59.3308 27 59.2775 27C58.3975 27 57.7042 26.9867 57.1975 26.96L54.1575 26.92L51.2375 26.96C50.7042 26.9867 49.9842 27 49.0775 27C48.9975 27 48.9575 26.92 48.9575 26.76C48.9575 26.6 48.9975 26.52 49.0775 26.52C49.9308 26.52 50.5442 26.4533 50.9175 26.32C51.3175 26.1867 51.5842 25.9333 51.7175 25.56C51.8775 25.16 51.9575 24.56 51.9575 23.76V5.24C51.9575 4.44 51.8908 3.85333 51.7575 3.48C51.6242 3.10667 51.3575 2.85333 50.9575 2.72C50.5575 2.56 49.9442 2.48 49.1175 2.48C49.0642 2.48 49.0375 2.4 49.0375 2.24C49.0375 2.08 49.0642 2 49.1175 2L51.2375 2.04C52.4642 2.09333 53.4375 2.12 54.1575 2.12C55.0642 2.12 56.0108 2.08 56.9975 2C57.3442 1.97333 57.7708 1.94666 58.2775 1.92C58.8108 1.89333 59.3975 1.88 60.0375 1.88C62.4642 1.88 64.3442 2.33333 65.6775 3.24C67.0108 4.12 67.6775 5.36 67.6775 6.96C67.6775 8.42667 67.2775 9.76 66.4775 10.96C65.6775 12.1333 64.6108 13.08 63.2775 13.8C65.4108 17 67.1975 19.5067 68.6375 21.32C70.0775 23.1333 71.3575 24.4533 72.4775 25.28C73.5975 26.1067 74.6908 26.52 75.7575 26.52ZM56.4375 13.8C57.0775 13.9067 57.8508 13.96 58.7575 13.96C60.3042 13.96 61.4108 13.5333 62.0775 12.68C62.7708 11.8 63.1175 10.4 63.1175 8.48C63.1175 6.29333 62.7975 4.78667 62.1575 3.96C61.5175 3.13333 60.5975 2.72 59.3975 2.72C58.3308 2.72 57.5708 2.92 57.1175 3.32C56.6642 3.72 56.4375 4.38667 56.4375 5.32V13.8ZM80.9659 2.92C77.7926 2.92 75.5126 4.98666 74.1259 9.12C74.0993 9.2 74.0193 9.24 73.8859 9.24C73.7526 9.21333 73.6859 9.16 73.6859 9.08C73.7926 8.01333 73.9126 6.64 74.0459 4.96C74.1793 3.25333 74.2459 1.97333 74.2459 1.12C74.2459 0.986666 74.3126 0.92 74.4459 0.92C74.6059 0.92 74.6859 0.986666 74.6859 1.12C74.6859 1.70667 75.4459 2 76.9659 2C79.2593 2.08 81.9393 2.12 85.0059 2.12C86.5793 2.12 88.2459 2.09333 90.0059 2.04L92.7259 2C93.7393 2 94.4726 1.93333 94.9259 1.8C95.4059 1.66666 95.7126 1.4 95.8459 0.999999C95.8726 0.893332 95.9526 0.839998 96.0859 0.839998C96.2459 0.839998 96.3259 0.893332 96.3259 0.999999C96.2459 1.8 96.1526 3.08 96.0459 4.84C95.9659 6.6 95.9259 8.01333 95.9259 9.08C95.9259 9.16 95.8593 9.2 95.7259 9.2C95.5926 9.2 95.5126 9.16 95.4859 9.08C95.0859 7.02667 94.3393 5.49333 93.2459 4.48C92.1526 3.44 90.8059 2.92 89.2059 2.92C88.4326 2.92 87.9126 3.09333 87.6459 3.44C87.4059 3.76 87.2859 4.38667 87.2859 5.32V23.76C87.2859 24.5867 87.3659 25.1867 87.5259 25.56C87.6859 25.9333 87.9926 26.1867 88.4459 26.32C88.8993 26.4533 89.6193 26.52 90.6059 26.52C90.6859 26.52 90.7259 26.6 90.7259 26.76C90.7259 26.92 90.6859 27 90.6059 27C89.6459 27 88.8859 26.9867 88.3259 26.96L85.0059 26.92L81.7659 26.96C81.2059 26.9867 80.4326 27 79.4459 27C79.3659 27 79.3259 26.92 79.3259 26.76C79.3259 26.6 79.3659 26.52 79.4459 26.52C80.4059 26.52 81.1126 26.4533 81.5659 26.32C82.0459 26.1867 82.3659 25.9333 82.5259 25.56C82.7126 25.16 82.8059 24.56 82.8059 23.76V5.24C82.8059 4.33333 82.6859 3.72 82.4459 3.4C82.2059 3.08 81.7126 2.92 80.9659 2.92ZM106.869 23.76C106.869 24.5867 106.936 25.1867 107.069 25.56C107.202 25.9333 107.456 26.1867 107.829 26.32C108.229 26.4533 108.856 26.52 109.709 26.52C109.789 26.52 109.829 26.6 109.829 26.76C109.829 26.92 109.789 27 109.709 27C108.829 27 108.136 26.9867 107.629 26.96L104.589 26.92L101.629 26.96C101.096 26.9867 100.376 27 99.4691 27C99.4157 27 99.3891 26.92 99.3891 26.76C99.3891 26.6 99.4157 26.52 99.4691 26.52C100.322 26.52 100.949 26.4533 101.349 26.32C101.749 26.1867 102.016 25.9333 102.149 25.56C102.309 25.16 102.389 24.56 102.389 23.76V5.24C102.389 4.44 102.309 3.85333 102.149 3.48C102.016 3.10667 101.749 2.85333 101.349 2.72C100.949 2.56 100.322 2.48 99.4691 2.48C99.4157 2.48 99.3891 2.4 99.3891 2.24C99.3891 2.08 99.4157 2 99.4691 2L101.629 2.04C102.856 2.09333 103.842 2.12 104.589 2.12C105.416 2.12 106.442 2.09333 107.669 2.04L109.709 2C109.789 2 109.829 2.08 109.829 2.24C109.829 2.4 109.789 2.48 109.709 2.48C108.882 2.48 108.269 2.56 107.869 2.72C107.469 2.88 107.202 3.16 107.069 3.56C106.936 3.93333 106.869 4.52 106.869 5.32V23.76ZM128.541 1.56C129.794 1.56 131.061 1.66667 132.341 1.88C133.648 2.06667 134.688 2.32 135.461 2.64C135.701 2.72 135.848 2.82667 135.901 2.96C135.981 3.06667 136.034 3.26667 136.061 3.56L136.581 9.12C136.581 9.2 136.514 9.25333 136.381 9.28C136.248 9.30667 136.154 9.26667 136.101 9.16C135.354 6.97333 134.288 5.30667 132.901 4.16C131.514 2.98667 129.848 2.4 127.901 2.4C126.088 2.4 124.461 2.89333 123.021 3.88C121.608 4.84 120.488 6.22666 119.661 8.04C118.861 9.85333 118.461 11.9733 118.461 14.4C118.461 16.8533 118.874 19.0133 119.701 20.88C120.554 22.72 121.714 24.1467 123.181 25.16C124.674 26.1467 126.381 26.64 128.301 26.64C130.141 26.64 131.688 26.1467 132.941 25.16C134.194 24.1467 135.381 22.4933 136.501 20.2C136.528 20.12 136.608 20.0933 136.741 20.12C136.874 20.1467 136.941 20.2 136.941 20.28L136.341 25.24C136.288 25.56 136.234 25.7733 136.181 25.88C136.128 25.96 135.981 26.0533 135.741 26.16C133.288 27.04 130.808 27.48 128.301 27.48C125.448 27.48 122.888 26.9467 120.621 25.88C118.381 24.7867 116.621 23.2667 115.341 21.32C114.061 19.3733 113.421 17.16 113.421 14.68C113.421 12.1467 114.074 9.89333 115.381 7.92C116.714 5.92 118.528 4.36 120.821 3.24C123.141 2.12 125.714 1.56 128.541 1.56ZM147.768 23.76C147.768 24.5867 147.834 25.1867 147.968 25.56C148.101 25.9333 148.354 26.1867 148.728 26.32C149.128 26.4533 149.754 26.52 150.608 26.52C150.688 26.52 150.728 26.6 150.728 26.76C150.728 26.92 150.688 27 150.608 27C149.728 27 149.034 26.9867 148.528 26.96L145.488 26.92L142.528 26.96C141.994 26.9867 141.274 27 140.368 27C140.314 27 140.288 26.92 140.288 26.76C140.288 26.6 140.314 26.52 140.368 26.52C141.221 26.52 141.848 26.4533 142.248 26.32C142.648 26.1867 142.914 25.9333 143.048 25.56C143.208 25.16 143.288 24.56 143.288 23.76V5.24C143.288 4.44 143.208 3.85333 143.048 3.48C142.914 3.10667 142.648 2.85333 142.248 2.72C141.848 2.56 141.221 2.48 140.368 2.48C140.314 2.48 140.288 2.4 140.288 2.24C140.288 2.08 140.314 2 140.368 2L142.528 2.04C143.754 2.09333 144.741 2.12 145.488 2.12C146.314 2.12 147.341 2.09333 148.568 2.04L150.608 2C150.688 2 150.728 2.08 150.728 2.24C150.728 2.4 150.688 2.48 150.608 2.48C149.781 2.48 149.168 2.56 148.768 2.72C148.368 2.88 148.101 3.16 147.968 3.56C147.834 3.93333 147.768 4.52 147.768 5.32V23.76ZM160.999 23.6C160.999 24.4533 161.093 25.08 161.279 25.48C161.466 25.8533 161.813 26.12 162.319 26.28C162.853 26.44 163.693 26.52 164.839 26.52C164.919 26.52 164.959 26.6 164.959 26.76C164.959 26.92 164.919 27 164.839 27C163.746 27 162.893 26.9867 162.279 26.96L158.799 26.92L155.879 26.96C155.346 26.9867 154.626 27 153.719 27C153.639 27 153.599 26.92 153.599 26.76C153.599 26.6 153.639 26.52 153.719 26.52C154.573 26.52 155.186 26.4533 155.559 26.32C155.959 26.1867 156.226 25.9333 156.359 25.56C156.493 25.16 156.559 24.56 156.559 23.76V5.24C156.559 4.44 156.493 3.85333 156.359 3.48C156.226 3.10667 155.959 2.85333 155.559 2.72C155.159 2.56 154.546 2.48 153.719 2.48C153.639 2.48 153.599 2.4 153.599 2.24C153.599 2.08 153.639 2 153.719 2L155.839 2.04C157.066 2.09333 158.039 2.12 158.759 2.12C159.399 2.12 160.159 2.08 161.039 2C161.386 1.97333 161.826 1.94666 162.359 1.92C162.893 1.89333 163.506 1.88 164.199 1.88C166.919 1.88 169.066 2.45333 170.639 3.6C172.213 4.72 172.999 6.46667 172.999 8.84C172.999 10.4933 172.573 11.8933 171.719 13.04C170.866 14.1867 169.759 15.0533 168.399 15.64C167.066 16.2267 165.693 16.52 164.279 16.52C163.559 16.52 162.933 16.4533 162.399 16.32C162.346 16.32 162.319 16.2533 162.319 16.12C162.319 16.04 162.333 15.96 162.359 15.88C162.413 15.8 162.466 15.7733 162.519 15.8C162.919 15.9067 163.373 15.96 163.879 15.96C165.106 15.96 166.119 15.3867 166.919 14.24C167.746 13.0933 168.159 11.4667 168.159 9.36C168.159 7.25333 167.706 5.62667 166.799 4.48C165.919 3.33333 164.626 2.76 162.919 2.76C162.173 2.76 161.666 2.93333 161.399 3.28C161.133 3.62666 160.999 4.30666 160.999 5.32V23.6ZM200.844 26.52C200.977 26.52 201.044 26.6 201.044 26.76C201.044 26.92 200.977 27 200.844 27C200.311 27 199.484 26.9733 198.364 26.92C197.191 26.8667 196.351 26.84 195.844 26.84C195.177 26.84 194.364 26.8667 193.404 26.92C192.497 26.9733 191.777 27 191.244 27C191.137 27 191.084 26.92 191.084 26.76C191.084 26.6 191.137 26.52 191.244 26.52C191.937 26.52 192.431 26.4533 192.724 26.32C193.044 26.16 193.204 25.8933 193.204 25.52C193.204 25.0667 192.937 24.3067 192.404 23.24L189.684 17.84H179.844L178.284 21.32C177.937 22.0933 177.764 22.8133 177.764 23.48C177.764 24.44 178.097 25.1867 178.764 25.72C179.457 26.2533 180.377 26.52 181.524 26.52C181.657 26.52 181.724 26.6 181.724 26.76C181.724 26.92 181.657 27 181.524 27C181.044 27 180.351 26.9733 179.444 26.92C178.431 26.8667 177.551 26.84 176.804 26.84C176.084 26.84 175.217 26.8667 174.204 26.92C173.297 26.9733 172.564 27 172.004 27C171.897 27 171.844 26.92 171.844 26.76C171.844 26.6 171.897 26.52 172.004 26.52C172.751 26.52 173.377 26.3733 173.884 26.08C174.391 25.76 174.897 25.2133 175.404 24.44C175.911 23.64 176.511 22.4667 177.204 20.92L185.884 1.84C185.937 1.76 186.057 1.72 186.244 1.72C186.457 1.72 186.577 1.76 186.604 1.84L196.604 21.52C197.537 23.4133 198.311 24.72 198.924 25.44C199.537 26.16 200.177 26.52 200.844 26.52ZM180.364 16.72H189.084L184.484 7.6L180.364 16.72ZM206.864 2.92C203.691 2.92 201.411 4.98666 200.024 9.12C199.998 9.2 199.918 9.24 199.784 9.24C199.651 9.21333 199.584 9.16 199.584 9.08C199.691 8.01333 199.811 6.64 199.944 4.96C200.078 3.25333 200.144 1.97333 200.144 1.12C200.144 0.986666 200.211 0.92 200.344 0.92C200.504 0.92 200.584 0.986666 200.584 1.12C200.584 1.70667 201.344 2 202.864 2C205.158 2.08 207.838 2.12 210.904 2.12C212.478 2.12 214.144 2.09333 215.904 2.04L218.624 2C219.638 2 220.371 1.93333 220.824 1.8C221.304 1.66666 221.611 1.4 221.744 0.999999C221.771 0.893332 221.851 0.839998 221.984 0.839998C222.144 0.839998 222.224 0.893332 222.224 0.999999C222.144 1.8 222.051 3.08 221.944 4.84C221.864 6.6 221.824 8.01333 221.824 9.08C221.824 9.16 221.758 9.2 221.624 9.2C221.491 9.2 221.411 9.16 221.384 9.08C220.984 7.02667 220.238 5.49333 219.144 4.48C218.051 3.44 216.704 2.92 215.104 2.92C214.331 2.92 213.811 3.09333 213.544 3.44C213.304 3.76 213.184 4.38667 213.184 5.32V23.76C213.184 24.5867 213.264 25.1867 213.424 25.56C213.584 25.9333 213.891 26.1867 214.344 26.32C214.798 26.4533 215.518 26.52 216.504 26.52C216.584 26.52 216.624 26.6 216.624 26.76C216.624 26.92 216.584 27 216.504 27C215.544 27 214.784 26.9867 214.224 26.96L210.904 26.92L207.664 26.96C207.104 26.9867 206.331 27 205.344 27C205.264 27 205.224 26.92 205.224 26.76C205.224 26.6 205.264 26.52 205.344 26.52C206.304 26.52 207.011 26.4533 207.464 26.32C207.944 26.1867 208.264 25.9333 208.424 25.56C208.611 25.16 208.704 24.56 208.704 23.76V5.24C208.704 4.33333 208.584 3.72 208.344 3.4C208.104 3.08 207.611 2.92 206.864 2.92ZM243.528 20.64C243.528 20.5867 243.581 20.56 243.688 20.56C243.768 20.56 243.834 20.5867 243.887 20.64C243.968 20.6667 244.008 20.6933 244.008 20.72C243.741 22.8 243.608 24.6933 243.608 26.4C243.608 26.6133 243.568 26.7733 243.488 26.88C243.408 26.96 243.248 27 243.008 27H225.328C225.248 27 225.208 26.92 225.208 26.76C225.208 26.6 225.248 26.52 225.328 26.52C226.181 26.52 226.794 26.4533 227.168 26.32C227.568 26.1867 227.834 25.9333 227.968 25.56C228.101 25.16 228.168 24.56 228.168 23.76V5.24C228.168 4.44 228.101 3.85333 227.968 3.48C227.834 3.10667 227.568 2.85333 227.168 2.72C226.768 2.56 226.154 2.48 225.328 2.48C225.248 2.48 225.208 2.4 225.208 2.24C225.208 2.08 225.248 2 225.328 2H242.288C242.554 2 242.688 2.12 242.688 2.36L242.768 7.68C242.768 7.73333 242.688 7.77333 242.528 7.8C242.394 7.82667 242.314 7.8 242.288 7.72C241.861 6.17333 241.141 5.02667 240.128 4.28C239.114 3.53333 237.781 3.16 236.128 3.16H234.928C234.128 3.16 233.541 3.33333 233.168 3.68C232.794 4.02667 232.608 4.56 232.608 5.28V13.44H235.928C237.474 13.44 238.661 13.1733 239.488 12.64C240.314 12.1067 240.728 11.36 240.728 10.4C240.728 10.32 240.794 10.28 240.928 10.28C241.088 10.28 241.168 10.32 241.168 10.4L241.128 14L241.168 15.92C241.221 16.8267 241.248 17.5467 241.248 18.08C241.248 18.1333 241.168 18.16 241.008 18.16C240.848 18.16 240.768 18.1333 240.768 18.08C240.768 16.9867 240.341 16.1333 239.488 15.52C238.661 14.88 237.461 14.56 235.888 14.56H232.608V23.6C232.608 24.3733 232.754 24.9467 233.048 25.32C233.341 25.6933 233.808 25.88 234.448 25.88H235.768C237.848 25.88 239.514 25.4533 240.768 24.6C242.021 23.7467 242.941 22.4267 243.528 20.64Z" fill="url(#paint0_linear_239:769)"/>
<defs>
<linearGradient id="paint0_linear_239:769" x1="-1" y1="1.05263" x2="310.081" y2="32.1648" gradientUnits="userSpaceOnUse">
<stop offset="0.267495" stop-color="#FFC6CE"/>
<stop offset="1" stop-color="#64D6EE"/>
</linearGradient>
</defs>
</svg>
