<svg width="25" height="91" viewBox="0 0 25 91" fill="none" xmlns="http://www.w3.org/2000/svg">
<path d="M17.712 74.2661C17.712 74.2341 17.76 74.2181 17.856 74.2181C17.952 74.2181 18 74.2341 18 74.2661L18 78.5381C18 78.8901 17.368 79.5461 16.104 80.5061C14.824 81.4661 13.04 82.6261 10.752 83.9861C10.768 84.1141 10.776 84.2981 10.776 84.5381C10.776 85.1621 10.768 85.6021 10.752 85.8581L16.056 85.8581C16.552 85.8581 16.912 85.8181 17.136 85.7381C17.36 85.6581 17.512 85.5061 17.592 85.2821C17.672 85.0421 17.712 84.6661 17.712 84.1541C17.712 84.1221 17.76 84.1061 17.856 84.1061C17.952 84.1061 18 84.1221 18 84.1541C18 84.6821 17.992 85.0981 17.976 85.4021L17.952 87.2261L17.976 88.9781C17.992 89.2981 18 89.7301 18 90.2741C18 90.3221 17.952 90.3461 17.856 90.3461C17.76 90.3461 17.712 90.3221 17.712 90.2741C17.712 89.7621 17.672 89.3941 17.592 89.1701C17.512 88.9301 17.36 88.7701 17.136 88.6901C16.896 88.5941 16.536 88.5461 16.056 88.5461L4.944 88.5461C4.464 88.5461 4.112 88.5861 3.888 88.6661C3.664 88.7461 3.512 88.9061 3.432 89.1461C3.336 89.3861 3.288 89.7541 3.288 90.2501C3.288 90.2821 3.24 90.2981 3.144 90.2981C3.048 90.2981 3 90.2821 3 90.2501L3.024 88.9781C3.056 88.2421 3.072 87.6581 3.072 87.2261C3.072 86.6821 3.048 86.1141 3 85.5221C2.984 85.3141 2.968 85.0581 2.952 84.7541C2.936 84.4341 2.928 84.0821 2.928 83.6981C2.928 82.2421 3.2 81.1141 3.744 80.3141C4.272 79.5141 5.016 79.1141 5.976 79.1141C6.856 79.1141 7.656 79.3541 8.376 79.8341C9.08 80.3141 9.648 80.9541 10.08 81.7541C12 80.4741 13.504 79.4021 14.592 78.5381C15.68 77.6741 16.472 76.9061 16.968 76.2341C17.464 75.5621 17.712 74.9061 17.712 74.2661ZM10.08 85.8581C10.144 85.4741 10.176 85.0101 10.176 84.4661C10.176 83.5381 9.92 82.8741 9.408 82.4741C8.88 82.0581 8.04 81.8501 6.888 81.8501C5.576 81.8501 4.672 82.0421 4.176 82.4261C3.68 82.8101 3.432 83.3621 3.432 84.0821C3.432 84.7221 3.552 85.1781 3.792 85.4501C4.032 85.7221 4.432 85.8581 4.992 85.8581L10.08 85.8581ZM18.312 69.2341C18.312 70.2261 18.088 71.0981 17.64 71.8501C17.176 72.5861 16.56 73.1541 15.792 73.5541C15.008 73.9541 14.16 74.1541 13.248 74.1541C12.208 74.1541 11.328 73.8901 10.608 73.3621C9.872 72.8341 9.328 72.1621 8.976 71.3461C8.608 70.5301 8.424 69.6901 8.424 68.8261C8.424 67.8341 8.656 66.9701 9.12 66.2341C9.584 65.4981 10.2 64.9381 10.968 64.5541C11.72 64.1541 12.528 63.9541 13.392 63.9541C14.352 63.9541 15.208 64.1941 15.96 64.6741C16.696 65.1541 17.272 65.8021 17.688 66.6181C18.104 67.4181 18.312 68.2901 18.312 69.2341ZM17.808 68.5141C17.808 67.8901 17.504 67.4181 16.896 67.0981C16.272 66.7621 15.384 66.5941 14.232 66.5941C13.112 66.5941 12.152 66.7381 11.352 67.0261C10.552 67.3141 9.952 67.6901 9.552 68.1541C9.136 68.6181 8.928 69.1141 8.928 69.6421C8.928 70.9221 10.072 71.5621 12.36 71.5621C13.432 71.5621 14.384 71.4261 15.216 71.1541C16.032 70.8821 16.672 70.5141 17.136 70.0501C17.584 69.5861 17.808 69.0741 17.808 68.5141ZM16.704 53.1239C16.704 53.0599 16.744 53.0199 16.824 53.0039C16.888 52.9719 16.936 52.9879 16.968 53.0519L18.144 55.5239C18.176 55.5879 18.192 55.6679 18.192 55.7639C18.192 56.0199 18.056 56.2679 17.784 56.5079C17.512 56.7319 17.144 56.8919 16.68 56.9879L17.4 58.0199C17.672 58.3879 17.872 58.7319 18 59.0519C18.112 59.3719 18.168 59.7319 18.168 60.1319C18.168 60.8199 18.016 61.3399 17.712 61.6919C17.408 62.0439 16.984 62.2199 16.44 62.2199C16.008 62.2199 15.664 62.1159 15.408 61.9079C15.136 61.6999 14.928 61.4439 14.784 61.1399C14.624 60.8199 14.448 60.3799 14.256 59.8199L14.04 59.2199L13.248 57.0599L11.88 57.0599C10.856 57.0599 10.112 57.1479 9.648 57.3239C9.184 57.4839 8.952 57.7639 8.952 58.1639C8.952 59.0119 9.608 59.4919 10.92 59.6039C11.4 59.6519 11.744 59.7959 11.952 60.0359C12.16 60.2599 12.264 60.5799 12.264 60.9959C12.264 61.3959 12.184 61.6919 12.024 61.8839C11.848 62.0599 11.624 62.1479 11.352 62.1479C10.872 62.1479 10.416 61.8679 9.984 61.3079C9.536 60.7479 9.176 60.0759 8.904 59.2919C8.632 58.4919 8.496 57.7879 8.496 57.1799C8.496 56.4759 8.72 55.9079 9.168 55.4759C9.6 55.0279 10.264 54.8039 11.16 54.8039L15.408 54.8039C15.872 54.8039 16.232 54.7239 16.488 54.5639C16.744 54.3879 16.872 54.1479 16.872 53.8439C16.872 53.6199 16.816 53.3879 16.704 53.1479L16.704 53.1239ZM16.272 57.0359C16.208 57.0519 16.104 57.0599 15.96 57.0599L13.656 57.0599L14.136 58.0919C14.152 58.1399 14.216 58.2999 14.328 58.5719C14.424 58.8439 14.592 59.0839 14.832 59.2919C15.072 59.4839 15.352 59.5799 15.672 59.5799C16.056 59.5799 16.36 59.4599 16.584 59.2199C16.792 58.9639 16.896 58.6759 16.896 58.3559C16.896 58.0999 16.808 57.8359 16.632 57.5639L16.272 57.0359ZM16.44 41.0064C16.44 40.9584 16.48 40.9184 16.56 40.8864C16.64 40.8384 16.688 40.8304 16.704 40.8624L18.312 44.1744L18.336 44.2944C18.336 44.4384 18.184 44.5744 17.88 44.7024C17.576 44.8144 17.16 44.8864 16.632 44.9184C17.752 46.1024 18.312 47.3104 18.312 48.5424C18.312 49.2464 18.128 49.8864 17.76 50.4624C17.392 51.0224 16.856 51.4704 16.152 51.8064C15.432 52.1424 14.592 52.3104 13.632 52.3104C12.416 52.3104 11.424 52.0304 10.656 51.4704C9.872 50.8944 9.304 50.1904 8.952 49.3584C8.6 48.5104 8.424 47.6624 8.424 46.8144C8.424 46.2224 8.52 45.5984 8.712 44.9424L3.864 44.9424C3.304 44.9424 2.904 44.9984 2.664 45.1104C2.424 45.2064 2.304 45.3824 2.304 45.6384C2.304 45.8464 2.392 46.1424 2.568 46.5264L2.568 46.5504C2.568 46.6144 2.528 46.6704 2.448 46.7184C2.352 46.7504 2.296 46.7504 2.28 46.7184L0.623997 43.1904L0.599997 43.0944C0.599997 43.0144 0.639997 42.9264 0.719997 42.8304C0.783997 42.7344 0.847997 42.6864 0.911998 42.6864L15.216 42.6864C15.76 42.6864 16.144 42.6384 16.368 42.5424C16.592 42.4304 16.704 42.2544 16.704 42.0144C16.704 41.8064 16.616 41.4784 16.44 41.0304L16.44 41.0064ZM17.16 47.2224C17.16 46.4224 16.824 45.6624 16.152 44.9424L16.032 44.9424L10.2 44.9424C9.8 45.2304 9.512 45.5584 9.336 45.9264C9.144 46.2784 9.048 46.6944 9.048 47.1744C9.048 48.0384 9.352 48.7024 9.96 49.1664C10.552 49.6144 11.52 49.8384 12.864 49.8384C14.208 49.8384 15.264 49.5984 16.032 49.1184C16.784 48.6384 17.16 48.0064 17.16 47.2224ZM17.712 22.628C17.712 22.564 17.76 22.532 17.856 22.532C17.952 22.532 18 22.564 18 22.628C18 23.044 17.992 23.372 17.976 23.612L17.952 25.052L17.976 26.444C17.992 26.7 18 27.036 18 27.452C18 27.5 17.952 27.524 17.856 27.524C17.76 27.524 17.712 27.5 17.712 27.452C17.712 26.956 17.6 26.62 17.376 26.444C17.136 26.252 16.696 26.156 16.056 26.156L12.6 26.156C11.736 26.156 11.096 26.308 10.68 26.612C10.264 26.9 10.056 27.348 10.056 27.956C10.056 28.372 10.144 28.78 10.32 29.18C10.496 29.58 10.736 29.924 11.04 30.212L11.184 30.212L16.056 30.212C16.696 30.212 17.136 30.124 17.376 29.948C17.6 29.756 17.712 29.412 17.712 28.916C17.712 28.852 17.76 28.82 17.856 28.82C17.952 28.82 18 28.852 18 28.916C18 29.332 17.992 29.66 17.976 29.9L17.952 31.34L17.976 32.732C17.992 32.988 18 33.324 18 33.74C18 33.788 17.952 33.812 17.856 33.812C17.76 33.812 17.712 33.788 17.712 33.74C17.712 33.244 17.6 32.908 17.376 32.732C17.136 32.54 16.696 32.444 16.056 32.444L12.6 32.444C11.736 32.444 11.096 32.596 10.68 32.9C10.264 33.188 10.056 33.636 10.056 34.244C10.056 34.628 10.136 35.012 10.296 35.396C10.44 35.764 10.648 36.092 10.92 36.38L16.056 36.38C16.696 36.38 17.136 36.292 17.376 36.116C17.6 35.924 17.712 35.58 17.712 35.084C17.712 35.036 17.76 35.012 17.856 35.012C17.952 35.012 18 35.036 18 35.084C18 35.5 17.992 35.828 17.976 36.068L17.952 37.508L17.976 38.924C17.992 39.164 18 39.492 18 39.908C18 39.956 17.952 39.98 17.856 39.98C17.76 39.98 17.712 39.956 17.712 39.908C17.712 39.412 17.6 39.076 17.376 38.9C17.136 38.724 16.696 38.636 16.056 38.636L11.544 38.636C11.048 38.636 10.688 38.7 10.464 38.828C10.224 38.94 10.104 39.124 10.104 39.38C10.104 39.652 10.216 40.036 10.44 40.532L10.44 40.58C10.44 40.628 10.4 40.668 10.32 40.7C10.24 40.716 10.192 40.708 10.176 40.676L8.544 37.34C8.512 37.244 8.496 37.188 8.496 37.172C8.496 36.996 8.672 36.828 9.024 36.668C9.36 36.508 9.816 36.412 10.392 36.38C9.096 35.292 8.448 34.124 8.448 32.876C8.448 32.124 8.632 31.524 9 31.076C9.368 30.628 9.896 30.356 10.584 30.26C9.16 29.156 8.448 27.932 8.448 26.588C8.448 25.724 8.696 25.068 9.192 24.62C9.688 24.156 10.44 23.924 11.448 23.924L16.056 23.924C16.696 23.924 17.136 23.836 17.376 23.66C17.6 23.468 17.712 23.124 17.712 22.628ZM16.704 12.1317C16.704 12.0677 16.744 12.0277 16.824 12.0117C16.888 11.9797 16.936 11.9957 16.968 12.0597L18.144 14.5317C18.176 14.5957 18.192 14.6757 18.192 14.7717C18.192 15.0277 18.056 15.2757 17.784 15.5157C17.512 15.7397 17.144 15.8997 16.68 15.9957L17.4 17.0277C17.672 17.3957 17.872 17.7397 18 18.0597C18.112 18.3797 18.168 18.7397 18.168 19.1397C18.168 19.8277 18.016 20.3477 17.712 20.6997C17.408 21.0517 16.984 21.2277 16.44 21.2277C16.008 21.2277 15.664 21.1237 15.408 20.9157C15.136 20.7077 14.928 20.4517 14.784 20.1477C14.624 19.8277 14.448 19.3877 14.256 18.8277L14.04 18.2277L13.248 16.0677L11.88 16.0677C10.856 16.0677 10.112 16.1557 9.648 16.3317C9.184 16.4917 8.952 16.7717 8.952 17.1717C8.952 18.0197 9.608 18.4997 10.92 18.6117C11.4 18.6597 11.744 18.8037 11.952 19.0437C12.16 19.2677 12.264 19.5877 12.264 20.0037C12.264 20.4037 12.184 20.6997 12.024 20.8917C11.848 21.0677 11.624 21.1557 11.352 21.1557C10.872 21.1557 10.416 20.8757 9.984 20.3157C9.536 19.7557 9.176 19.0837 8.904 18.2997C8.632 17.4997 8.496 16.7957 8.496 16.1877C8.496 15.4837 8.72 14.9157 9.168 14.4837C9.6 14.0357 10.264 13.8117 11.16 13.8117L15.408 13.8117C15.872 13.8117 16.232 13.7317 16.488 13.5717C16.744 13.3957 16.872 13.1557 16.872 12.8517C16.872 12.6277 16.816 12.3957 16.704 12.1557L16.704 12.1317ZM16.272 16.0437C16.208 16.0597 16.104 16.0677 15.96 16.0677L13.656 16.0677L14.136 17.0997C14.152 17.1477 14.216 17.3077 14.328 17.5797C14.424 17.8517 14.592 18.0917 14.832 18.2997C15.072 18.4917 15.352 18.5877 15.672 18.5877C16.056 18.5877 16.36 18.4677 16.584 18.2277C16.792 17.9717 16.896 17.6837 16.896 17.3637C16.896 17.1077 16.808 16.8437 16.632 16.5717L16.272 16.0437ZM18.312 5.82218C18.312 6.60618 18.224 7.29418 18.048 7.88618L22.656 7.88618C23.136 7.88618 23.488 7.83818 23.712 7.74218C23.936 7.63018 24.088 7.43018 24.168 7.14218C24.264 6.83818 24.312 6.37418 24.312 5.75018C24.312 5.70218 24.36 5.67818 24.456 5.67818C24.552 5.67818 24.6 5.70218 24.6 5.75018C24.6 6.34218 24.592 6.80618 24.576 7.14218L24.552 9.03818L24.576 10.4542C24.592 10.6942 24.6 11.0302 24.6 11.4622C24.6 11.5102 24.552 11.5342 24.456 11.5342C24.36 11.5342 24.312 11.5102 24.312 11.4622C24.312 11.0782 24.264 10.7982 24.168 10.6222C24.088 10.4302 23.936 10.3022 23.712 10.2382C23.488 10.1582 23.136 10.1182 22.656 10.1182L11.544 10.1182C11.032 10.1182 10.664 10.1742 10.44 10.2862C10.216 10.3982 10.104 10.5982 10.104 10.8862C10.104 11.1422 10.216 11.5102 10.44 11.9902L10.44 12.0382C10.44 12.0862 10.4 12.1262 10.32 12.1582C10.24 12.2062 10.192 12.2142 10.176 12.1822L8.52 8.77418C8.504 8.74218 8.496 8.70218 8.496 8.65418C8.496 8.49418 8.632 8.35018 8.904 8.22218C9.176 8.07818 9.544 7.98218 10.008 7.93418C8.952 6.76618 8.424 5.56618 8.424 4.33418C8.424 3.66218 8.6 3.03818 8.952 2.46218C9.304 1.87018 9.816 1.39818 10.488 1.04618C11.16 0.694181 11.944 0.51818 12.84 0.51818C14.12 0.51818 15.176 0.78218 16.008 1.31018C16.824 1.83818 17.416 2.51018 17.784 3.32618C18.136 4.12618 18.312 4.95818 18.312 5.82218ZM9.768 5.91818C9.768 6.63818 10.024 7.29418 10.536 7.88618L10.728 7.88618L16.512 7.88618C16.912 7.53418 17.216 7.16618 17.424 6.78218C17.616 6.39818 17.712 5.92618 17.712 5.36618C17.712 3.75018 16.336 2.94218 13.584 2.94218C12.368 2.94218 11.432 3.23018 10.776 3.80618C10.104 4.36618 9.768 5.07018 9.768 5.91818Z" fill="url(#paint0_linear_313:565)"/>
<defs>
<linearGradient id="paint0_linear_313:565" x1="2.67763" y1="91.2581" x2="6.96695" y2="1.13194" gradientUnits="userSpaceOnUse">
<stop offset="0.267495" stop-color="#FFC6CE"/>
<stop offset="1" stop-color="#64D6EE"/>
</linearGradient>
</defs>
</svg>
