<svg width="187" height="27" viewBox="0 0 187 27" fill="none" xmlns="http://www.w3.org/2000/svg">
<path d="M18.84 19.64C18.84 19.5867 18.8933 19.56 19 19.56C19.08 19.56 19.1467 19.5867 19.2 19.64C19.28 19.6667 19.32 19.6933 19.32 19.72C19.0533 21.8 18.92 23.6933 18.92 25.4C18.92 25.6133 18.88 25.7733 18.8 25.88C18.72 25.96 18.56 26 18.32 26H0.64C0.56 26 0.52 25.92 0.52 25.76C0.52 25.6 0.56 25.52 0.64 25.52C1.49333 25.52 2.10667 25.4533 2.48 25.32C2.88 25.1867 3.14667 24.9333 3.28 24.56C3.41333 24.16 3.48 23.56 3.48 22.76V4.24C3.48 3.44 3.41333 2.85333 3.28 2.48C3.14667 2.10667 2.88 1.85333 2.48 1.72C2.08 1.56 1.46667 1.48 0.64 1.48C0.56 1.48 0.52 1.4 0.52 1.24C0.52 1.08 0.56 1 0.64 1H17.6C17.8667 1 18 1.12 18 1.36L18.08 6.68C18.08 6.73333 18 6.77333 17.84 6.8C17.7067 6.82667 17.6267 6.8 17.6 6.72C17.1733 5.17333 16.4533 4.02667 15.44 3.28C14.4267 2.53333 13.0933 2.16 11.44 2.16H10.24C9.44 2.16 8.85333 2.33333 8.48 2.68C8.10667 3.02667 7.92 3.56 7.92 4.28V12.44H11.24C12.7867 12.44 13.9733 12.1733 14.8 11.64C15.6267 11.1067 16.04 10.36 16.04 9.4C16.04 9.32 16.1067 9.28 16.24 9.28C16.4 9.28 16.48 9.32 16.48 9.4L16.44 13L16.48 14.92C16.5333 15.8267 16.56 16.5467 16.56 17.08C16.56 17.1333 16.48 17.16 16.32 17.16C16.16 17.16 16.08 17.1333 16.08 17.08C16.08 15.9867 15.6533 15.1333 14.8 14.52C13.9733 13.88 12.7733 13.56 11.2 13.56H7.92V22.6C7.92 23.3733 8.06667 23.9467 8.36 24.32C8.65333 24.6933 9.12 24.88 9.76 24.88H11.08C13.16 24.88 14.8267 24.4533 16.08 23.6C17.3333 22.7467 18.2533 21.4267 18.84 19.64ZM49.9903 1C50.0436 1 50.0703 1.08 50.0703 1.24C50.0703 1.4 50.0436 1.48 49.9903 1.48C48.9236 1.48 48.0836 1.90667 47.4703 2.76C46.857 3.58667 46.5503 4.70667 46.5503 6.12V26.6C46.5503 26.68 46.4836 26.7333 46.3503 26.76C46.2436 26.7867 46.1636 26.7733 46.1103 26.72L27.3503 5.36V20.92C27.3503 22.3333 27.6436 23.4533 28.2303 24.28C28.817 25.1067 29.6303 25.52 30.6703 25.52C30.7236 25.52 30.7503 25.6 30.7503 25.76C30.7503 25.92 30.7236 26 30.6703 26C29.9236 26 29.3503 25.9867 28.9503 25.96L26.7903 25.92L24.3103 25.96C23.857 25.9867 23.2036 26 22.3503 26C22.2703 26 22.2303 25.92 22.2303 25.76C22.2303 25.6 22.2703 25.52 22.3503 25.52C23.5236 25.52 24.4436 25.1067 25.1103 24.28C25.8036 23.4533 26.1503 22.3333 26.1503 20.92V4C25.2703 3.04 24.5103 2.38667 23.8703 2.04C23.257 1.66667 22.617 1.48 21.9503 1.48C21.897 1.48 21.8703 1.4 21.8703 1.24C21.8703 1.08 21.897 1 21.9503 1L23.6303 1.04C23.977 1.06667 24.4836 1.08 25.1503 1.08L28.1903 1.04C28.5636 1.01333 29.017 1 29.5503 1C29.7636 1 29.9236 1.05333 30.0303 1.16C30.137 1.26666 30.3236 1.49333 30.5903 1.84C31.0436 2.45333 31.3636 2.86667 31.5503 3.08L45.3903 19.04V6.12C45.3903 4.68 45.097 3.54667 44.5103 2.72C43.9236 1.89333 43.1103 1.48 42.0703 1.48C42.017 1.48 41.9903 1.4 41.9903 1.24C41.9903 1.08 42.017 1 42.0703 1L43.7903 1.04C44.6436 1.09333 45.3636 1.12 45.9503 1.12C46.4836 1.12 47.2303 1.09333 48.1903 1.04L49.9903 1ZM79.7644 25.52C79.8444 25.52 79.8844 25.6 79.8844 25.76C79.8844 25.92 79.8444 26 79.7644 26C78.831 26 78.0844 25.9867 77.5244 25.96L74.4444 25.92L70.8444 25.96C70.3644 25.9867 69.711 26 68.8844 26C68.8044 26 68.7644 25.92 68.7644 25.76C68.7644 25.6 68.8044 25.52 68.8844 25.52C69.871 25.52 70.591 25.4533 71.0444 25.32C71.4977 25.1867 71.8044 24.9333 71.9644 24.56C72.1244 24.1867 72.2044 23.5867 72.2044 22.76V13.56H59.2844V22.76C59.2844 23.56 59.3644 24.16 59.5244 24.56C59.6844 24.9333 59.991 25.1867 60.4444 25.32C60.8977 25.4533 61.6177 25.52 62.6044 25.52C62.6577 25.52 62.6844 25.6 62.6844 25.76C62.6844 25.92 62.6577 26 62.6044 26C61.671 26 60.9244 25.9867 60.3644 25.96L56.8844 25.92L53.8844 25.96C53.351 25.9867 52.6177 26 51.6844 26C51.631 26 51.6044 25.92 51.6044 25.76C51.6044 25.6 51.631 25.52 51.6844 25.52C52.6177 25.52 53.2977 25.4533 53.7244 25.32C54.151 25.1867 54.4444 24.9333 54.6044 24.56C54.7644 24.16 54.8444 23.56 54.8444 22.76V4.24C54.8444 3.44 54.7644 2.85333 54.6044 2.48C54.4444 2.10667 54.151 1.85333 53.7244 1.72C53.3244 1.56 52.671 1.48 51.7644 1.48C51.6844 1.48 51.6444 1.4 51.6444 1.24C51.6444 1.08 51.6844 1 51.7644 1L53.9244 1.04C55.151 1.09333 56.1377 1.12 56.8844 1.12C57.8977 1.12 59.071 1.09333 60.4044 1.04L62.6044 1C62.6577 1 62.6844 1.08 62.6844 1.24C62.6844 1.4 62.6577 1.48 62.6044 1.48C61.6444 1.48 60.9377 1.56 60.4844 1.72C60.031 1.88 59.711 2.16 59.5244 2.56C59.3644 2.93333 59.2844 3.52 59.2844 4.32V12.44H72.2044V4.32C72.2044 3.52 72.1244 2.93333 71.9644 2.56C71.8044 2.16 71.4977 1.88 71.0444 1.72C70.591 1.56 69.871 1.48 68.8844 1.48C68.8044 1.48 68.7644 1.4 68.7644 1.24C68.7644 1.08 68.8044 1 68.8844 1L70.8444 1.04C72.1777 1.09333 73.3777 1.12 74.4444 1.12C75.1644 1.12 76.191 1.09333 77.5244 1.04L79.7644 1C79.8444 1 79.8844 1.08 79.8844 1.24C79.8844 1.4 79.8444 1.48 79.7644 1.48C78.8577 1.48 78.1777 1.56 77.7244 1.72C77.2977 1.85333 77.0044 2.10667 76.8444 2.48C76.711 2.85333 76.6444 3.44 76.6444 4.24V22.76C76.6444 23.56 76.711 24.16 76.8444 24.56C77.0044 24.9333 77.2977 25.1867 77.7244 25.32C78.151 25.4533 78.831 25.52 79.7644 25.52ZM109.711 25.52C109.845 25.52 109.911 25.6 109.911 25.76C109.911 25.92 109.845 26 109.711 26C109.178 26 108.351 25.9733 107.231 25.92C106.058 25.8667 105.218 25.84 104.711 25.84C104.045 25.84 103.231 25.8667 102.271 25.92C101.365 25.9733 100.645 26 100.111 26C100.005 26 99.9513 25.92 99.9513 25.76C99.9513 25.6 100.005 25.52 100.111 25.52C100.805 25.52 101.298 25.4533 101.591 25.32C101.911 25.16 102.071 24.8933 102.071 24.52C102.071 24.0667 101.805 23.3067 101.271 22.24L98.5513 16.84H88.7113L87.1513 20.32C86.8046 21.0933 86.6313 21.8133 86.6313 22.48C86.6313 23.44 86.9646 24.1867 87.6313 24.72C88.3246 25.2533 89.2446 25.52 90.3913 25.52C90.5246 25.52 90.5913 25.6 90.5913 25.76C90.5913 25.92 90.5246 26 90.3913 26C89.9113 26 89.2179 25.9733 88.3113 25.92C87.2979 25.8667 86.4179 25.84 85.6713 25.84C84.9513 25.84 84.0846 25.8667 83.0713 25.92C82.1646 25.9733 81.4313 26 80.8712 26C80.7646 26 80.7112 25.92 80.7112 25.76C80.7112 25.6 80.7646 25.52 80.8712 25.52C81.6179 25.52 82.2446 25.3733 82.7513 25.08C83.2579 24.76 83.7646 24.2133 84.2713 23.44C84.7779 22.64 85.3779 21.4667 86.0713 19.92L94.7513 0.84C94.8046 0.759999 94.9246 0.719999 95.1113 0.719999C95.3246 0.719999 95.4446 0.759999 95.4713 0.84L105.471 20.52C106.405 22.4133 107.178 23.72 107.791 24.44C108.405 25.16 109.045 25.52 109.711 25.52ZM89.2313 15.72H97.9513L93.3513 6.6L89.2313 15.72ZM138.584 1C138.637 1 138.664 1.08 138.664 1.24C138.664 1.4 138.637 1.48 138.584 1.48C137.517 1.48 136.677 1.90667 136.064 2.76C135.451 3.58667 135.144 4.70667 135.144 6.12V26.6C135.144 26.68 135.077 26.7333 134.944 26.76C134.837 26.7867 134.757 26.7733 134.704 26.72L115.944 5.36V20.92C115.944 22.3333 116.237 23.4533 116.824 24.28C117.411 25.1067 118.224 25.52 119.264 25.52C119.317 25.52 119.344 25.6 119.344 25.76C119.344 25.92 119.317 26 119.264 26C118.517 26 117.944 25.9867 117.544 25.96L115.384 25.92L112.904 25.96C112.451 25.9867 111.797 26 110.944 26C110.864 26 110.824 25.92 110.824 25.76C110.824 25.6 110.864 25.52 110.944 25.52C112.117 25.52 113.037 25.1067 113.704 24.28C114.397 23.4533 114.744 22.3333 114.744 20.92V4C113.864 3.04 113.104 2.38667 112.464 2.04C111.851 1.66667 111.211 1.48 110.544 1.48C110.491 1.48 110.464 1.4 110.464 1.24C110.464 1.08 110.491 1 110.544 1L112.224 1.04C112.571 1.06667 113.077 1.08 113.744 1.08L116.784 1.04C117.157 1.01333 117.611 1 118.144 1C118.357 1 118.517 1.05333 118.624 1.16C118.731 1.26666 118.917 1.49333 119.184 1.84C119.637 2.45333 119.957 2.86667 120.144 3.08L133.984 19.04V6.12C133.984 4.68 133.691 3.54667 133.104 2.72C132.517 1.89333 131.704 1.48 130.664 1.48C130.611 1.48 130.584 1.4 130.584 1.24C130.584 1.08 130.611 1 130.664 1L132.384 1.04C133.237 1.09333 133.957 1.12 134.544 1.12C135.077 1.12 135.824 1.09333 136.784 1.04L138.584 1ZM156.158 0.559999C157.411 0.559999 158.678 0.666665 159.958 0.879999C161.265 1.06667 162.305 1.32 163.078 1.64C163.318 1.72 163.465 1.82667 163.518 1.96C163.598 2.06667 163.651 2.26667 163.678 2.56L164.198 8.12C164.198 8.2 164.131 8.25333 163.998 8.28C163.865 8.30667 163.771 8.26667 163.718 8.16C162.971 5.97333 161.905 4.30667 160.518 3.16C159.131 1.98667 157.465 1.4 155.518 1.4C153.705 1.4 152.078 1.89333 150.638 2.88C149.225 3.84 148.105 5.22666 147.278 7.04C146.478 8.85333 146.078 10.9733 146.078 13.4C146.078 15.8533 146.491 18.0133 147.318 19.88C148.171 21.72 149.331 23.1467 150.798 24.16C152.291 25.1467 153.998 25.64 155.918 25.64C157.758 25.64 159.305 25.1467 160.558 24.16C161.811 23.1467 162.998 21.4933 164.118 19.2C164.145 19.12 164.225 19.0933 164.358 19.12C164.491 19.1467 164.558 19.2 164.558 19.28L163.958 24.24C163.905 24.56 163.851 24.7733 163.798 24.88C163.745 24.96 163.598 25.0533 163.358 25.16C160.905 26.04 158.425 26.48 155.918 26.48C153.065 26.48 150.505 25.9467 148.238 24.88C145.998 23.7867 144.238 22.2667 142.958 20.32C141.678 18.3733 141.038 16.16 141.038 13.68C141.038 11.1467 141.691 8.89333 142.998 6.92C144.331 4.92 146.145 3.36 148.438 2.24C150.758 1.12 153.331 0.559999 156.158 0.559999ZM186.145 19.64C186.145 19.5867 186.198 19.56 186.305 19.56C186.385 19.56 186.451 19.5867 186.505 19.64C186.585 19.6667 186.625 19.6933 186.625 19.72C186.358 21.8 186.225 23.6933 186.225 25.4C186.225 25.6133 186.185 25.7733 186.105 25.88C186.025 25.96 185.865 26 185.625 26H167.945C167.865 26 167.825 25.92 167.825 25.76C167.825 25.6 167.865 25.52 167.945 25.52C168.798 25.52 169.411 25.4533 169.785 25.32C170.185 25.1867 170.451 24.9333 170.585 24.56C170.718 24.16 170.785 23.56 170.785 22.76V4.24C170.785 3.44 170.718 2.85333 170.585 2.48C170.451 2.10667 170.185 1.85333 169.785 1.72C169.385 1.56 168.771 1.48 167.945 1.48C167.865 1.48 167.825 1.4 167.825 1.24C167.825 1.08 167.865 1 167.945 1H184.905C185.171 1 185.305 1.12 185.305 1.36L185.385 6.68C185.385 6.73333 185.305 6.77333 185.145 6.8C185.011 6.82667 184.931 6.8 184.905 6.72C184.478 5.17333 183.758 4.02667 182.745 3.28C181.731 2.53333 180.398 2.16 178.745 2.16H177.545C176.745 2.16 176.158 2.33333 175.785 2.68C175.411 3.02667 175.225 3.56 175.225 4.28V12.44H178.545C180.091 12.44 181.278 12.1733 182.105 11.64C182.931 11.1067 183.345 10.36 183.345 9.4C183.345 9.32 183.411 9.28 183.545 9.28C183.705 9.28 183.785 9.32 183.785 9.4L183.745 13L183.785 14.92C183.838 15.8267 183.865 16.5467 183.865 17.08C183.865 17.1333 183.785 17.16 183.625 17.16C183.465 17.16 183.385 17.1333 183.385 17.08C183.385 15.9867 182.958 15.1333 182.105 14.52C181.278 13.88 180.078 13.56 178.505 13.56H175.225V22.6C175.225 23.3733 175.371 23.9467 175.665 24.32C175.958 24.6933 176.425 24.88 177.065 24.88H178.385C180.465 24.88 182.131 24.4533 183.385 23.6C184.638 22.7467 185.558 21.4267 186.145 19.64Z" fill="url(#paint0_linear_239:766)"/>
<defs>
<linearGradient id="paint0_linear_239:766" x1="-1" y1="0.0526308" x2="310.081" y2="31.1648" gradientUnits="userSpaceOnUse">
<stop offset="0.267495" stop-color="#FFC6CE"/>
<stop offset="1" stop-color="#64D6EE"/>
</linearGradient>
</defs>
</svg>
