<svg width="19" height="55" viewBox="0 0 19 55" fill="none" xmlns="http://www.w3.org/2000/svg">
<path d="M5.424 51.824C6 51.824 6.512 51.68 6.96 51.392C7.408 51.088 7.8 50.72 8.136 50.288C8.472 49.856 8.88 49.272 9.36 48.536C9.872 47.736 10.32 47.096 10.704 46.616C11.088 46.136 11.56 45.728 12.12 45.392C12.664 45.056 13.296 44.888 14.016 44.888C14.848 44.888 15.592 45.112 16.248 45.56C16.888 46.008 17.392 46.632 17.76 47.432C18.112 48.216 18.288 49.096 18.288 50.072C18.288 50.792 18.192 51.544 18 52.328C17.792 53.112 17.568 53.64 17.328 53.912C17.264 53.992 17.208 54.056 17.16 54.104C17.096 54.136 17 54.152 16.872 54.152L13.056 54.224L13.032 54.224C12.968 54.224 12.936 54.184 12.936 54.104C12.92 54.024 12.944 53.976 13.008 53.96C13.984 53.48 14.776 53.064 15.384 52.712C15.992 52.344 16.528 51.888 16.992 51.344C17.456 50.784 17.688 50.152 17.688 49.448C17.688 48.808 17.52 48.28 17.184 47.864C16.832 47.448 16.24 47.24 15.408 47.24C14.704 47.24 14.088 47.4 13.56 47.72C13.032 48.024 12.584 48.4 12.216 48.848C11.848 49.296 11.408 49.912 10.896 50.696C10.4 51.464 9.976 52.064 9.624 52.496C9.272 52.912 8.848 53.272 8.352 53.576C7.856 53.88 7.272 54.032 6.6 54.032C5.752 54.032 5.04 53.792 4.464 53.312C3.872 52.816 3.44 52.184 3.168 51.416C2.88 50.648 2.736 49.84 2.736 48.992C2.736 48.432 2.792 47.864 2.904 47.288C3 46.712 3.12 46.248 3.264 45.896C3.328 45.752 3.4 45.656 3.48 45.608C3.544 45.56 3.632 45.536 3.744 45.536L7.272 45.536C7.32 45.536 7.36 45.576 7.392 45.656C7.408 45.736 7.392 45.784 7.344 45.8L6.888 45.992C5.88 46.392 5.024 46.864 4.32 47.408C3.616 47.936 3.264 48.68 3.264 49.64C3.264 50.28 3.448 50.808 3.816 51.224C4.184 51.624 4.72 51.824 5.424 51.824ZM18.288 38.0324C18.288 39.0884 18.064 39.9844 17.616 40.7204C17.152 41.4404 16.56 41.9844 15.84 42.3524C15.104 42.7044 14.336 42.8804 13.536 42.8804C12.528 42.8804 11.648 42.6004 10.896 42.0404C10.128 41.4804 9.544 40.7684 9.144 39.9044C8.728 39.0244 8.52 38.1284 8.52 37.2164C8.52 36.4484 8.68 35.7604 9 35.1524C9.32 34.5284 9.76 34.2164 10.32 34.2164C10.624 34.2164 10.888 34.3364 11.112 34.5764C11.32 34.8004 11.424 35.1204 11.424 35.5364C11.424 35.9204 11.328 36.2244 11.136 36.4484C10.928 36.6724 10.616 36.8564 10.2 37.0004C9.752 37.1444 9.448 37.2884 9.288 37.4324C9.112 37.5604 9.024 37.8004 9.024 38.1524C9.024 38.8404 9.368 39.3924 10.056 39.8084C10.728 40.2084 11.624 40.4084 12.744 40.4084C14.072 40.4084 15.136 40.1124 15.936 39.5204C16.72 38.9284 17.112 37.9844 17.112 36.6884C17.112 36.2564 17.064 35.8884 16.968 35.5844C16.872 35.2644 16.712 34.8644 16.488 34.3844L16.488 34.3604C16.488 34.3124 16.512 34.2724 16.56 34.2404C16.608 34.1924 16.648 34.1844 16.68 34.2164C17.224 34.8084 17.632 35.4004 17.904 35.9924C18.16 36.5844 18.288 37.2644 18.288 38.0324ZM8.496 26.2771C8.496 25.9091 8.632 25.5571 8.904 25.2211C9.16 24.8691 9.472 24.6931 9.84 24.6931C10.176 24.6931 10.456 24.7971 10.68 25.0051C10.888 25.2131 10.992 25.4851 10.992 25.8211C10.992 26.0611 10.944 26.2611 10.848 26.4211C10.752 26.5651 10.608 26.7171 10.416 26.8771C10.256 27.0211 10.144 27.1491 10.08 27.2611C10 27.3571 9.96 27.4771 9.96 27.6211C9.96 27.7811 10.024 27.9571 10.152 28.1491C10.264 28.3251 10.512 28.6051 10.896 28.9891L16.056 28.9891C16.696 28.9891 17.136 28.8371 17.376 28.5331C17.6 28.2291 17.712 27.6691 17.712 26.8531C17.712 26.7891 17.76 26.7571 17.856 26.7571C17.952 26.7571 18 26.7891 18 26.8531C18 27.4131 17.992 27.8531 17.976 28.1731L17.952 30.1171L17.976 31.5331C17.992 31.7731 18 32.1011 18 32.5171C18 32.5651 17.952 32.5891 17.856 32.5891C17.76 32.5891 17.712 32.5651 17.712 32.5171C17.712 32.0211 17.6 31.6851 17.376 31.5091C17.136 31.3331 16.696 31.2451 16.056 31.2451L11.544 31.2451C11.048 31.2451 10.688 31.3091 10.464 31.4371C10.224 31.5491 10.104 31.7331 10.104 31.9891C10.104 32.2611 10.216 32.6451 10.44 33.1411L10.44 33.1891C10.44 33.2371 10.4 33.2771 10.32 33.3091C10.24 33.3251 10.192 33.3171 10.176 33.2851L8.544 29.9491C8.512 29.8531 8.496 29.7971 8.496 29.7811C8.496 29.6051 8.664 29.4451 9 29.3011C9.32 29.1411 9.76 29.0451 10.32 29.0131C9.648 28.3571 9.176 27.8211 8.904 27.4051C8.632 26.9731 8.496 26.5971 8.496 26.2771ZM18.312 18.9526C18.312 19.9446 18.088 20.8166 17.64 21.5686C17.176 22.3046 16.56 22.8726 15.792 23.2726C15.008 23.6726 14.16 23.8726 13.248 23.8726C12.208 23.8726 11.328 23.6086 10.608 23.0806C9.872 22.5526 9.328 21.8806 8.976 21.0646C8.608 20.2486 8.424 19.4086 8.424 18.5446C8.424 17.5526 8.656 16.6886 9.12 15.9526C9.584 15.2166 10.2 14.6566 10.968 14.2726C11.72 13.8726 12.528 13.6726 13.392 13.6726C14.352 13.6726 15.208 13.9126 15.96 14.3926C16.696 14.8726 17.272 15.5206 17.688 16.3366C18.104 17.1366 18.312 18.0086 18.312 18.9526ZM17.808 18.2326C17.808 17.6086 17.504 17.1366 16.896 16.8166C16.272 16.4806 15.384 16.3126 14.232 16.3126C13.112 16.3126 12.152 16.4566 11.352 16.7446C10.552 17.0326 9.952 17.4086 9.552 17.8726C9.136 18.3366 8.928 18.8326 8.928 19.3606C8.928 20.6406 10.072 21.2806 12.36 21.2806C13.432 21.2806 14.384 21.1446 15.216 20.8726C16.032 20.6006 16.672 20.2326 17.136 19.7686C17.584 19.3046 17.808 18.7926 17.808 18.2326ZM18 12.0584C18 12.0904 17.952 12.1064 17.856 12.1064C17.76 12.1064 17.712 12.0904 17.712 12.0584C17.712 11.5624 17.6 11.2264 17.376 11.0504C17.136 10.8584 16.696 10.7624 16.056 10.7624L3.864 10.7384C3.304 10.7384 2.904 10.7944 2.664 10.9064C2.424 11.0024 2.304 11.1784 2.304 11.4344C2.304 11.6424 2.392 11.9464 2.568 12.3464L2.568 12.3704C2.568 12.4184 2.528 12.4664 2.448 12.5144C2.352 12.5464 2.296 12.5464 2.28 12.5144L0.623997 8.98644L0.599997 8.89044C0.599997 8.81044 0.639997 8.72244 0.719997 8.62644C0.783997 8.53044 0.847997 8.48244 0.911998 8.48244L16.056 8.48244C16.696 8.48244 17.136 8.39444 17.376 8.21844C17.6 8.04244 17.712 7.70644 17.712 7.21044C17.712 7.14644 17.76 7.11444 17.856 7.11444C17.952 7.11444 18 7.14644 18 7.21044C18 7.61044 17.992 7.93044 17.976 8.17044L17.952 9.63444L17.976 11.0744C17.992 11.3144 18 11.6424 18 12.0584ZM18 5.63656C18 5.66856 17.952 5.68456 17.856 5.68456C17.76 5.68456 17.712 5.66856 17.712 5.63656C17.712 5.14056 17.6 4.80456 17.376 4.62856C17.136 4.43656 16.696 4.34056 16.056 4.34056L3.864 4.31656C3.304 4.31656 2.904 4.37256 2.664 4.48456C2.424 4.58056 2.304 4.75656 2.304 5.01256C2.304 5.22056 2.392 5.52456 2.568 5.92456L2.568 5.94856C2.568 5.99656 2.528 6.04456 2.448 6.09256C2.352 6.12456 2.296 6.12456 2.28 6.09256L0.623997 2.56456L0.599997 2.46856C0.599997 2.38856 0.639997 2.30056 0.719997 2.20456C0.783997 2.10856 0.847997 2.06056 0.911997 2.06056L16.056 2.06056C16.696 2.06056 17.136 1.97256 17.376 1.79656C17.6 1.62056 17.712 1.28456 17.712 0.788561C17.712 0.724561 17.76 0.692561 17.856 0.692561C17.952 0.692561 18 0.724561 18 0.788561C18 1.18856 17.992 1.50856 17.976 1.74856L17.952 3.21256L17.976 4.65256C17.992 4.89256 18 5.22056 18 5.63656Z" fill="url(#paint0_linear_313:241)"/>
<defs>
<linearGradient id="paint0_linear_313:241" x1="2.67763" y1="56" x2="4.26913" y2="1.06247" gradientUnits="userSpaceOnUse">
<stop offset="0.267495" stop-color="#FFC6CE"/>
<stop offset="1" stop-color="#64D6EE"/>
</linearGradient>
</defs>
</svg>
