<svg width="827" height="269" viewBox="0 0 827 269" fill="none" xmlns="http://www.w3.org/2000/svg">
<g filter="url(#filter0_d_258:2778)">
<path d="M100.393 151V99.9H113.413V119.57H132.873V99.9H145.893V151H132.873V130.91H113.413V151H100.393ZM174.932 152.4C170.406 152.4 166.532 151.513 163.312 149.74C160.092 147.92 157.642 145.517 155.962 142.53C154.282 139.543 153.442 136.253 153.442 132.66V130.98C153.442 127.2 154.306 123.817 156.032 120.83C157.806 117.797 160.302 115.393 163.522 113.62C166.742 111.847 170.546 110.96 174.932 110.96C179.319 110.96 183.122 111.847 186.342 113.62C189.562 115.393 192.036 117.797 193.762 120.83C195.536 123.817 196.422 127.2 196.422 130.98V132.66C196.422 136.253 195.582 139.543 193.902 142.53C192.222 145.517 189.772 147.92 186.552 149.74C183.379 151.513 179.506 152.4 174.932 152.4ZM174.932 141.76C177.826 141.76 179.996 140.827 181.442 138.96C182.936 137.093 183.682 134.713 183.682 131.82C183.682 128.833 182.912 126.383 181.372 124.47C179.879 122.557 177.732 121.6 174.932 121.6C172.132 121.6 169.962 122.557 168.422 124.47C166.929 126.383 166.182 128.833 166.182 131.82C166.182 134.713 166.906 137.093 168.352 138.96C169.846 140.827 172.039 141.76 174.932 141.76ZM203.397 165V112.36H213.477V122.23C214.597 118.683 216.464 115.977 219.077 114.11C221.691 112.197 224.817 111.24 228.457 111.24C232.004 111.24 235.084 112.08 237.697 113.76C240.311 115.44 242.341 117.75 243.787 120.69C245.234 123.63 245.957 126.99 245.957 130.77V132.45C245.957 136.23 245.281 139.613 243.927 142.6C242.621 145.587 240.661 147.943 238.047 149.67C235.481 151.397 232.307 152.26 228.527 152.26C225.867 152.26 223.464 151.793 221.317 150.86C219.217 149.927 217.491 148.503 216.137 146.59V165H203.397ZM224.677 141.76C227.197 141.76 229.251 140.827 230.837 138.96C232.424 137.047 233.217 134.597 233.217 131.61C233.217 128.623 232.424 126.243 230.837 124.47C229.297 122.65 227.244 121.74 224.677 121.74C223.137 121.74 221.691 122.09 220.337 122.79C219.031 123.49 217.957 124.517 217.117 125.87C216.277 127.223 215.857 128.857 215.857 130.77V133.15C215.857 134.97 216.301 136.533 217.187 137.84C218.074 139.1 219.194 140.08 220.547 140.78C221.901 141.433 223.277 141.76 224.677 141.76ZM274.245 109.28C271.958 109.28 270.255 108.697 269.135 107.53C268.062 106.317 267.525 104.777 267.525 102.91C267.525 101.043 268.062 99.5267 269.135 98.36C270.255 97.1467 271.958 96.54 274.245 96.54C276.578 96.54 278.282 97.1467 279.355 98.36C280.428 99.5267 280.965 101.043 280.965 102.91C280.965 104.777 280.428 106.317 279.355 107.53C278.282 108.697 276.578 109.28 274.245 109.28ZM269.065 151V121.6H264.165V112.36H281.805V151H269.065ZM291.171 151V112.36H301.251V122.51C301.997 118.683 303.467 115.837 305.661 113.97C307.854 112.057 310.701 111.1 314.201 111.1H314.761C319.147 111.1 322.531 112.57 324.911 115.51C327.337 118.403 328.551 122.86 328.551 128.88V151H315.811V128.53C315.811 126.757 315.274 125.31 314.201 124.19C313.174 123.023 311.751 122.44 309.931 122.44C308.111 122.44 306.641 123.023 305.521 124.19C304.447 125.31 303.911 126.803 303.911 128.67V151H291.171ZM370.645 152.4C366.119 152.4 362.245 151.513 359.025 149.74C355.805 147.92 353.355 145.517 351.675 142.53C349.995 139.543 349.155 136.253 349.155 132.66V130.98C349.155 127.2 350.019 123.817 351.745 120.83C353.519 117.797 356.015 115.393 359.235 113.62C362.455 111.847 366.259 110.96 370.645 110.96C375.032 110.96 378.835 111.847 382.055 113.62C385.275 115.393 387.749 117.797 389.475 120.83C391.249 123.817 392.135 127.2 392.135 130.98V132.66C392.135 136.253 391.295 139.543 389.615 142.53C387.935 145.517 385.485 147.92 382.265 149.74C379.092 151.513 375.219 152.4 370.645 152.4ZM370.645 141.76C373.539 141.76 375.709 140.827 377.155 138.96C378.649 137.093 379.395 134.713 379.395 131.82C379.395 128.833 378.625 126.383 377.085 124.47C375.592 122.557 373.445 121.6 370.645 121.6C367.845 121.6 365.675 122.557 364.135 124.47C362.642 126.383 361.895 128.833 361.895 131.82C361.895 134.713 362.619 137.093 364.065 138.96C365.559 140.827 367.752 141.76 370.645 141.76ZM399.11 151V112.36H409.19V122.51C409.937 118.683 411.407 115.837 413.6 113.97C415.793 112.057 418.64 111.1 422.14 111.1H422.7C427.087 111.1 430.47 112.57 432.85 115.51C435.277 118.403 436.49 122.86 436.49 128.88V151H423.75V128.53C423.75 126.757 423.213 125.31 422.14 124.19C421.113 123.023 419.69 122.44 417.87 122.44C416.05 122.44 414.58 123.023 413.46 124.19C412.387 125.31 411.85 126.803 411.85 128.67V151H399.11ZM477.745 151.56C473.545 151.56 470.185 151.047 467.665 150.02C465.191 148.993 463.395 147.29 462.275 144.91C461.155 142.53 460.595 139.31 460.595 135.25V121.6H454.995V112.36H460.665V102.28H472.425V112.36H482.995V121.6H472.355V135.6C472.355 139.147 474.128 140.92 477.675 140.92H482.995V151.56H477.745ZM489.823 151V99.9H502.563V118.59C504.57 113.597 508.28 111.1 513.693 111.1H514.253C518.453 111.1 521.65 112.617 523.843 115.65C526.083 118.683 527.203 123.14 527.203 129.02V151H514.463V128.53C514.463 126.757 513.926 125.31 512.853 124.19C511.78 123.023 510.356 122.44 508.583 122.44C506.81 122.44 505.363 123.023 504.243 124.19C503.123 125.31 502.563 126.803 502.563 128.67V151H489.823ZM553.891 152.4C550.624 152.4 547.731 151.84 545.211 150.72C542.691 149.6 540.567 148.083 538.841 146.17C537.114 144.257 535.784 142.11 534.851 139.73C533.964 137.35 533.521 134.9 533.521 132.38V130.98C533.521 128.367 533.964 125.87 534.851 123.49C535.784 121.063 537.091 118.917 538.771 117.05C540.497 115.183 542.597 113.713 545.071 112.64C547.544 111.52 550.344 110.96 553.471 110.96C557.624 110.96 561.147 111.893 564.041 113.76C566.934 115.627 569.151 118.1 570.691 121.18C572.231 124.213 573.001 127.527 573.001 131.12V135.18H545.561C545.981 137.373 546.867 139.1 548.221 140.36C549.574 141.573 551.464 142.18 553.891 142.18C557.437 142.18 559.701 141.06 560.681 138.82H572.301C571.741 141.433 570.621 143.767 568.941 145.82C567.307 147.873 565.207 149.483 562.641 150.65C560.121 151.817 557.204 152.4 553.891 152.4ZM553.471 121.18C551.371 121.18 549.621 121.787 548.221 123C546.867 124.167 545.981 125.94 545.561 128.32H561.031C560.237 123.56 557.717 121.18 553.471 121.18ZM594.843 151V122.44H590.503V113.2H594.843V112.5C594.843 103.54 600.023 99.06 610.383 99.06H615.353V108.44H610.103C607.769 108.44 606.603 109.607 606.603 111.94V113.2H615.913V122.44H606.603V151H594.843ZM633.75 152.26C629.363 152.26 625.956 150.837 623.53 147.99C621.15 145.097 619.96 140.687 619.96 134.76V112.36H632.7V135.11C632.7 136.837 633.213 138.237 634.24 139.31C635.266 140.383 636.643 140.92 638.37 140.92C640.096 140.92 641.496 140.383 642.57 139.31C643.643 138.237 644.18 136.79 644.18 134.97V112.36H656.92V151H646.84V141.9C646.046 145.447 644.6 148.06 642.5 149.74C640.4 151.42 637.67 152.26 634.31 152.26H633.75ZM666.327 151V112.36H676.407V122.51C677.154 118.683 678.624 115.837 680.817 113.97C683.01 112.057 685.857 111.1 689.357 111.1H689.917C694.304 111.1 697.687 112.57 700.067 115.51C702.494 118.403 703.707 122.86 703.707 128.88V151H690.967V128.53C690.967 126.757 690.43 125.31 689.357 124.19C688.33 123.023 686.907 122.44 685.087 122.44C683.267 122.44 681.797 123.023 680.677 124.19C679.604 125.31 679.067 126.803 679.067 128.67V151H666.327ZM712.474 133.08V99.9H725.494V133.08H712.474ZM711.564 151V138.82H726.404V151H711.564Z" fill="url(#paint0_linear_258:2778)"/>
<path d="M100.393 151H99.3928V152H100.393V151ZM100.393 99.9V98.9H99.3928V99.9H100.393ZM113.413 99.9H114.413V98.9H113.413V99.9ZM113.413 119.57H112.413V120.57H113.413V119.57ZM132.873 119.57V120.57H133.873V119.57H132.873ZM132.873 99.9V98.9H131.873V99.9H132.873ZM145.893 99.9H146.893V98.9H145.893V99.9ZM145.893 151V152H146.893V151H145.893ZM132.873 151H131.873V152H132.873V151ZM132.873 130.91H133.873V129.91H132.873V130.91ZM113.413 130.91V129.91H112.413V130.91H113.413ZM113.413 151V152H114.413V151H113.413ZM101.393 151V99.9H99.3928V151H101.393ZM100.393 100.9H113.413V98.9H100.393V100.9ZM112.413 99.9V119.57H114.413V99.9H112.413ZM113.413 120.57H132.873V118.57H113.413V120.57ZM133.873 119.57V99.9H131.873V119.57H133.873ZM132.873 100.9H145.893V98.9H132.873V100.9ZM144.893 99.9V151H146.893V99.9H144.893ZM145.893 150H132.873V152H145.893V150ZM133.873 151V130.91H131.873V151H133.873ZM132.873 129.91H113.413V131.91H132.873V129.91ZM112.413 130.91V151H114.413V130.91H112.413ZM113.413 150H100.393V152H113.413V150ZM163.312 149.74L162.82 150.611L162.83 150.616L163.312 149.74ZM155.962 142.53L155.091 143.02L155.962 142.53ZM156.032 120.83L155.169 120.325L155.167 120.329L156.032 120.83ZM163.522 113.62L163.04 112.744L163.522 113.62ZM186.342 113.62L186.825 112.744L186.342 113.62ZM193.762 120.83L192.893 121.325L192.898 121.333L192.903 121.341L193.762 120.83ZM193.902 142.53L194.774 143.02L193.902 142.53ZM186.552 149.74L187.04 150.613L187.044 150.611L186.552 149.74ZM181.442 138.96L180.662 138.335L180.657 138.341L180.652 138.347L181.442 138.96ZM181.372 124.47L180.584 125.085L180.589 125.091L180.593 125.097L181.372 124.47ZM168.422 124.47L167.643 123.843L167.639 123.849L167.634 123.855L168.422 124.47ZM168.352 138.96L167.562 139.573L167.567 139.579L167.572 139.585L168.352 138.96ZM174.932 151.4C170.536 151.4 166.837 150.539 163.795 148.864L162.83 150.616C166.228 152.487 170.276 153.4 174.932 153.4V151.4ZM163.804 148.869C160.73 147.132 158.417 144.855 156.834 142.04L155.091 143.02C156.867 146.179 159.455 148.708 162.82 150.611L163.804 148.869ZM156.834 142.04C155.242 139.21 154.442 136.09 154.442 132.66H152.442C152.442 136.416 153.322 139.877 155.091 143.02L156.834 142.04ZM154.442 132.66V130.98H152.442V132.66H154.442ZM154.442 130.98C154.442 127.358 155.268 124.151 156.898 121.331L155.167 120.329C153.344 123.483 152.442 127.042 152.442 130.98H154.442ZM156.896 121.335C158.574 118.465 160.935 116.186 164.005 114.496L163.04 112.744C159.669 114.6 157.038 117.129 155.169 120.325L156.896 121.335ZM164.005 114.496C167.051 112.818 170.682 111.96 174.932 111.96V109.96C170.41 109.96 166.434 110.875 163.04 112.744L164.005 114.496ZM174.932 111.96C179.183 111.96 182.814 112.818 185.86 114.496L186.825 112.744C183.431 110.875 179.455 109.96 174.932 109.96V111.96ZM185.86 114.496C188.927 116.185 191.263 118.46 192.893 121.325L194.631 120.335C192.809 117.133 190.197 114.601 186.825 112.744L185.86 114.496ZM192.903 121.341C194.576 124.159 195.422 127.363 195.422 130.98H197.422C197.422 127.037 196.495 123.474 194.622 120.319L192.903 121.341ZM195.422 130.98V132.66H197.422V130.98H195.422ZM195.422 132.66C195.422 136.09 194.622 139.21 193.031 142.04L194.774 143.02C196.542 139.877 197.422 136.416 197.422 132.66H195.422ZM193.031 142.04C191.447 144.855 189.135 147.132 186.06 148.869L187.044 150.611C190.41 148.708 192.997 146.179 194.774 143.02L193.031 142.04ZM186.065 148.867C183.074 150.538 179.378 151.4 174.932 151.4V153.4C179.633 153.4 183.684 152.488 187.04 150.613L186.065 148.867ZM174.932 142.76C178.058 142.76 180.554 141.739 182.233 139.573L180.652 138.347C179.437 139.915 177.594 140.76 174.932 140.76V142.76ZM182.223 139.585C183.886 137.506 184.682 134.891 184.682 131.82H182.682C182.682 134.536 181.985 136.681 180.662 138.335L182.223 139.585ZM184.682 131.82C184.682 128.656 183.863 125.97 182.151 123.843L180.593 125.097C181.961 126.797 182.682 129.011 182.682 131.82H184.682ZM182.161 123.855C180.447 121.659 177.987 120.6 174.932 120.6V122.6C177.478 122.6 179.311 123.454 180.584 125.085L182.161 123.855ZM174.932 120.6C171.877 120.6 169.401 121.659 167.643 123.843L169.201 125.097C170.523 123.454 172.387 122.6 174.932 122.6V120.6ZM167.634 123.855C165.974 125.981 165.182 128.663 165.182 131.82H167.182C167.182 129.004 167.884 126.785 169.211 125.085L167.634 123.855ZM165.182 131.82C165.182 134.884 165.951 137.494 167.562 139.573L169.143 138.347C167.86 136.693 167.182 134.543 167.182 131.82H165.182ZM167.572 139.585C169.295 141.739 171.806 142.76 174.932 142.76V140.76C172.272 140.76 170.397 139.914 169.133 138.335L167.572 139.585ZM203.397 165H202.397V166H203.397V165ZM203.397 112.36V111.36H202.397V112.36H203.397ZM213.477 112.36H214.477V111.36H213.477V112.36ZM213.477 122.23H212.477L214.431 122.531L213.477 122.23ZM219.077 114.11L219.659 114.924L219.668 114.917L219.077 114.11ZM237.697 113.76L238.238 112.919L237.697 113.76ZM243.787 120.69L242.89 121.132L243.787 120.69ZM243.927 142.6L243.016 142.187L243.011 142.199L243.927 142.6ZM238.047 149.67L237.496 148.836L237.489 148.84L238.047 149.67ZM221.317 150.86L220.911 151.774L220.918 151.777L221.317 150.86ZM216.137 146.59L216.954 146.013L215.137 143.444V146.59H216.137ZM216.137 165V166H217.137V165H216.137ZM230.837 138.96L231.599 139.608L231.607 139.598L230.837 138.96ZM230.837 124.47L230.074 125.116L230.083 125.126L230.092 125.137L230.837 124.47ZM220.337 122.79L219.878 121.902L219.871 121.905L219.865 121.909L220.337 122.79ZM217.117 125.87L217.967 126.397L217.117 125.87ZM217.187 137.84L216.36 138.402L216.365 138.409L216.369 138.415L217.187 137.84ZM220.547 140.78L220.088 141.668L220.1 141.675L220.112 141.681L220.547 140.78ZM204.397 165V112.36H202.397V165H204.397ZM203.397 113.36H213.477V111.36H203.397V113.36ZM212.477 112.36V122.23H214.477V112.36H212.477ZM214.431 122.531C215.496 119.157 217.248 116.645 219.658 114.924L218.496 113.296C215.679 115.308 213.698 118.209 212.524 121.929L214.431 122.531ZM219.668 114.917C222.089 113.144 225.002 112.24 228.457 112.24V110.24C224.632 110.24 221.292 111.249 218.486 113.303L219.668 114.917ZM228.457 112.24C231.84 112.24 234.726 113.039 237.156 114.601L238.238 112.919C235.441 111.121 232.168 110.24 228.457 110.24V112.24ZM237.156 114.601C239.608 116.177 241.519 118.345 242.89 121.132L244.684 120.248C243.162 117.155 241.013 114.703 238.238 112.919L237.156 114.601ZM242.89 121.132C244.259 123.914 244.957 127.12 244.957 130.77H246.957C246.957 126.86 246.208 123.346 244.684 120.248L242.89 121.132ZM244.957 130.77V132.45H246.957V130.77H244.957ZM244.957 132.45C244.957 136.109 244.303 139.349 243.016 142.187L244.838 143.013C246.258 139.878 246.957 136.351 246.957 132.45H244.957ZM243.011 142.199C241.778 145.017 239.942 147.22 237.496 148.836L238.598 150.504C241.379 148.667 243.463 146.157 244.843 143.001L243.011 142.199ZM237.489 148.84C235.121 150.433 232.153 151.26 228.527 151.26V153.26C232.462 153.26 235.84 152.36 238.605 150.5L237.489 148.84ZM228.527 151.26C225.986 151.26 223.721 150.815 221.716 149.943L220.918 151.777C223.207 152.772 225.749 153.26 228.527 153.26V151.26ZM221.723 149.946C219.791 149.087 218.205 147.782 216.954 146.013L215.321 147.167C216.776 149.225 218.643 150.766 220.911 151.774L221.723 149.946ZM215.137 146.59V165H217.137V146.59H215.137ZM216.137 164H203.397V166H216.137V164ZM224.677 142.76C227.481 142.76 229.816 141.705 231.599 139.608L230.075 138.312C228.685 139.948 226.913 140.76 224.677 140.76V142.76ZM231.607 139.598C233.371 137.471 234.217 134.781 234.217 131.61H232.217C232.217 134.412 231.477 136.622 230.067 138.322L231.607 139.598ZM234.217 131.61C234.217 128.442 233.372 125.803 231.582 123.803L230.092 125.137C231.476 126.683 232.217 128.804 232.217 131.61H234.217ZM231.601 123.824C229.855 121.761 227.512 120.74 224.677 120.74V122.74C226.975 122.74 228.74 123.539 230.074 125.116L231.601 123.824ZM224.677 120.74C222.979 120.74 221.375 121.128 219.878 121.902L220.797 123.678C222.006 123.052 223.295 122.74 224.677 122.74V120.74ZM219.865 121.909C218.392 122.698 217.193 123.852 216.268 125.343L217.967 126.397C218.721 125.182 219.669 124.282 220.809 123.671L219.865 121.909ZM216.268 125.343C215.311 126.884 214.857 128.708 214.857 130.77H216.857C216.857 129.005 217.243 127.563 217.967 126.397L216.268 125.343ZM214.857 130.77V133.15H216.857V130.77H214.857ZM214.857 133.15C214.857 135.139 215.344 136.905 216.36 138.402L218.015 137.278C217.257 136.162 216.857 134.801 216.857 133.15H214.857ZM216.369 138.415C217.348 139.806 218.59 140.893 220.088 141.668L221.007 139.892C219.798 139.267 218.8 138.394 218.005 137.265L216.369 138.415ZM220.112 141.681C221.591 142.394 223.116 142.76 224.677 142.76V140.76C223.439 140.76 222.21 140.472 220.982 139.879L220.112 141.681ZM269.135 107.53L268.386 108.193L268.399 108.208L268.413 108.223L269.135 107.53ZM269.135 98.36L268.4 97.6817L268.399 97.6829L269.135 98.36ZM279.355 98.36L278.606 99.0226L278.612 99.0299L278.619 99.0371L279.355 98.36ZM279.355 107.53L280.091 108.207L280.097 108.2L280.104 108.193L279.355 107.53ZM269.065 151H268.065V152H269.065V151ZM269.065 121.6H270.065V120.6H269.065V121.6ZM264.165 121.6H263.165V122.6H264.165V121.6ZM264.165 112.36V111.36H263.165V112.36H264.165ZM281.805 112.36H282.805V111.36H281.805V112.36ZM281.805 151V152H282.805V151H281.805ZM274.245 108.28C272.116 108.28 270.721 107.738 269.856 106.837L268.413 108.223C269.789 109.655 271.801 110.28 274.245 110.28V108.28ZM269.884 106.867C268.997 105.865 268.525 104.572 268.525 102.91H266.525C266.525 104.981 267.126 106.769 268.386 108.193L269.884 106.867ZM268.525 102.91C268.525 101.247 268.997 99.987 269.871 99.0371L268.399 97.6829C267.126 99.0663 266.525 100.84 266.525 102.91H268.525ZM269.87 99.0383C270.736 98.0993 272.126 97.54 274.245 97.54V95.54C271.79 95.54 269.773 96.194 268.4 97.6817L269.87 99.0383ZM274.245 97.54C276.421 97.54 277.794 98.1046 278.606 99.0226L280.104 97.6974C278.769 96.1888 276.736 95.54 274.245 95.54V97.54ZM278.619 99.0371C279.493 99.987 279.965 101.247 279.965 102.91H281.965C281.965 100.84 281.363 99.0663 280.091 97.6829L278.619 99.0371ZM279.965 102.91C279.965 104.572 279.493 105.865 278.606 106.867L280.104 108.193C281.363 106.769 281.965 104.981 281.965 102.91H279.965ZM278.619 106.853C277.809 107.733 276.432 108.28 274.245 108.28V110.28C276.725 110.28 278.754 109.66 280.091 108.207L278.619 106.853ZM270.065 151V121.6H268.065V151H270.065ZM269.065 120.6H264.165V122.6H269.065V120.6ZM265.165 121.6V112.36H263.165V121.6H265.165ZM264.165 113.36H281.805V111.36H264.165V113.36ZM280.805 112.36V151H282.805V112.36H280.805ZM281.805 150H269.065V152H281.805V150ZM291.171 151H290.171V152H291.171V151ZM291.171 112.36V111.36H290.171V112.36H291.171ZM301.251 112.36H302.251V111.36H301.251V112.36ZM301.251 122.51H300.251L302.232 122.702L301.251 122.51ZM305.661 113.97L306.309 114.732L306.318 114.724L305.661 113.97ZM324.911 115.51L324.133 116.139L324.139 116.146L324.144 116.153L324.911 115.51ZM328.551 151V152H329.551V151H328.551ZM315.811 151H314.811V152H315.811V151ZM314.201 124.19L313.45 124.851L313.464 124.867L313.479 124.882L314.201 124.19ZM305.521 124.19L304.799 123.497L304.799 123.498L305.521 124.19ZM303.911 151V152H304.911V151H303.911ZM292.171 151V112.36H290.171V151H292.171ZM291.171 113.36H301.251V111.36H291.171V113.36ZM300.251 112.36V122.51H302.251V112.36H300.251ZM302.232 122.702C302.951 119.019 304.34 116.407 306.309 114.732L305.013 113.208C302.595 115.266 301.044 118.348 300.269 122.318L302.232 122.702ZM306.318 114.724C308.294 113 310.891 112.1 314.201 112.1V110.1C310.51 110.1 307.414 111.113 305.003 113.216L306.318 114.724ZM314.201 112.1H314.761V110.1H314.201V112.1ZM314.761 112.1C318.9 112.1 321.975 113.473 324.133 116.139L325.688 114.881C323.086 111.667 319.395 110.1 314.761 110.1V112.1ZM324.144 116.153C326.353 118.786 327.551 122.964 327.551 128.88H329.551C329.551 122.756 328.322 118.021 325.677 114.867L324.144 116.153ZM327.551 128.88V151H329.551V128.88H327.551ZM328.551 150H315.811V152H328.551V150ZM316.811 151V128.53H314.811V151H316.811ZM316.811 128.53C316.811 126.539 316.2 124.831 314.923 123.498L313.479 124.882C314.348 125.789 314.811 126.975 314.811 128.53H316.811ZM314.951 123.529C313.702 122.109 311.984 121.44 309.931 121.44V123.44C311.517 123.44 312.646 123.937 313.45 124.851L314.951 123.529ZM309.931 121.44C307.876 121.44 306.132 122.109 304.799 123.497L306.242 124.883C307.149 123.938 308.345 123.44 309.931 123.44V121.44ZM304.799 123.498C303.512 124.841 302.911 126.601 302.911 128.67H304.911C304.911 127.005 305.383 125.779 306.243 124.882L304.799 123.498ZM302.911 128.67V151H304.911V128.67H302.911ZM303.911 150H291.171V152H303.911V150ZM359.025 149.74L358.533 150.611L358.543 150.616L359.025 149.74ZM351.675 142.53L350.804 143.02L351.675 142.53ZM351.745 120.83L350.882 120.325L350.88 120.329L351.745 120.83ZM359.235 113.62L358.753 112.744L359.235 113.62ZM382.055 113.62L382.538 112.744L382.055 113.62ZM389.475 120.83L388.606 121.325L388.611 121.333L388.615 121.341L389.475 120.83ZM389.615 142.53L390.487 143.02L389.615 142.53ZM382.265 149.74L382.753 150.613L382.757 150.611L382.265 149.74ZM377.155 138.96L376.374 138.335L376.37 138.341L376.365 138.347L377.155 138.96ZM377.085 124.47L376.297 125.085L376.302 125.091L376.306 125.097L377.085 124.47ZM364.135 124.47L363.356 123.843L363.352 123.849L363.347 123.855L364.135 124.47ZM364.065 138.96L363.275 139.573L363.28 139.579L363.284 139.585L364.065 138.96ZM370.645 151.4C366.249 151.4 362.549 150.539 359.508 148.864L358.543 150.616C361.941 152.487 365.989 153.4 370.645 153.4V151.4ZM359.517 148.869C356.443 147.132 354.13 144.855 352.547 142.04L350.804 143.02C352.58 146.179 355.167 148.708 358.533 150.611L359.517 148.869ZM352.547 142.04C350.955 139.21 350.155 136.09 350.155 132.66H348.155C348.155 136.416 349.035 139.877 350.804 143.02L352.547 142.04ZM350.155 132.66V130.98H348.155V132.66H350.155ZM350.155 130.98C350.155 127.358 350.981 124.151 352.611 121.331L350.88 120.329C349.057 123.483 348.155 127.042 348.155 130.98H350.155ZM352.609 121.335C354.286 118.465 356.648 116.186 359.718 114.496L358.753 112.744C355.382 114.6 352.751 117.129 350.882 120.325L352.609 121.335ZM359.718 114.496C362.764 112.818 366.395 111.96 370.645 111.96V109.96C366.122 109.96 362.147 110.875 358.753 112.744L359.718 114.496ZM370.645 111.96C374.896 111.96 378.527 112.818 381.573 114.496L382.538 112.744C379.144 110.875 375.168 109.96 370.645 109.96V111.96ZM381.573 114.496C384.64 116.185 386.976 118.46 388.606 121.325L390.344 120.335C388.521 117.133 385.91 114.601 382.538 112.744L381.573 114.496ZM388.615 121.341C390.289 124.159 391.135 127.363 391.135 130.98H393.135C393.135 127.037 392.208 123.474 390.335 120.319L388.615 121.341ZM391.135 130.98V132.66H393.135V130.98H391.135ZM391.135 132.66C391.135 136.09 390.335 139.21 388.744 142.04L390.487 143.02C392.255 139.877 393.135 136.416 393.135 132.66H391.135ZM388.744 142.04C387.16 144.855 384.847 147.132 381.773 148.869L382.757 150.611C386.123 148.708 388.71 146.179 390.487 143.02L388.744 142.04ZM381.777 148.867C378.787 150.538 375.091 151.4 370.645 151.4V153.4C375.346 153.4 379.397 152.488 382.753 150.613L381.777 148.867ZM370.645 142.76C373.771 142.76 376.267 141.739 377.946 139.573L376.365 138.347C375.15 139.915 373.307 140.76 370.645 140.76V142.76ZM377.936 139.585C379.599 137.506 380.395 134.891 380.395 131.82H378.395C378.395 134.536 377.698 136.681 376.374 138.335L377.936 139.585ZM380.395 131.82C380.395 128.656 379.576 125.97 377.864 123.843L376.306 125.097C377.674 126.797 378.395 129.011 378.395 131.82H380.395ZM377.874 123.855C376.16 121.659 373.7 120.6 370.645 120.6V122.6C373.191 122.6 375.024 123.454 376.297 125.085L377.874 123.855ZM370.645 120.6C367.59 120.6 365.114 121.659 363.356 123.843L364.914 125.097C366.236 123.454 368.1 122.6 370.645 122.6V120.6ZM363.347 123.855C361.687 125.981 360.895 128.663 360.895 131.82H362.895C362.895 129.004 363.597 126.785 364.924 125.085L363.347 123.855ZM360.895 131.82C360.895 134.884 361.664 137.494 363.275 139.573L364.856 138.347C363.573 136.693 362.895 134.543 362.895 131.82H360.895ZM363.284 139.585C365.008 141.739 367.519 142.76 370.645 142.76V140.76C367.985 140.76 366.109 139.914 364.846 138.335L363.284 139.585ZM399.11 151H398.11V152H399.11V151ZM399.11 112.36V111.36H398.11V112.36H399.11ZM409.19 112.36H410.19V111.36H409.19V112.36ZM409.19 122.51H408.19L410.172 122.702L409.19 122.51ZM413.6 113.97L414.248 114.732L414.257 114.724L413.6 113.97ZM432.85 115.51L432.073 116.139L432.078 116.146L432.084 116.153L432.85 115.51ZM436.49 151V152H437.49V151H436.49ZM423.75 151H422.75V152H423.75V151ZM422.14 124.19L421.389 124.851L421.403 124.867L421.418 124.882L422.14 124.19ZM413.46 124.19L412.739 123.497L412.738 123.498L413.46 124.19ZM411.85 151V152H412.85V151H411.85ZM400.11 151V112.36H398.11V151H400.11ZM399.11 113.36H409.19V111.36H399.11V113.36ZM408.19 112.36V122.51H410.19V112.36H408.19ZM410.172 122.702C410.89 119.019 412.28 116.407 414.248 114.732L412.952 113.208C410.534 115.266 408.983 118.348 408.209 122.318L410.172 122.702ZM414.257 114.724C416.233 113 418.831 112.1 422.14 112.1V110.1C418.45 110.1 415.353 111.113 412.943 113.216L414.257 114.724ZM422.14 112.1H422.7V110.1H422.14V112.1ZM422.7 112.1C426.839 112.1 429.914 113.473 432.073 116.139L433.627 114.881C431.026 111.667 427.335 110.1 422.7 110.1V112.1ZM432.084 116.153C434.293 118.786 435.49 122.964 435.49 128.88H437.49C437.49 122.756 436.261 118.021 433.616 114.867L432.084 116.153ZM435.49 128.88V151H437.49V128.88H435.49ZM436.49 150H423.75V152H436.49V150ZM424.75 151V128.53H422.75V151H424.75ZM424.75 128.53C424.75 126.539 424.14 124.831 422.862 123.498L421.418 124.882C422.287 125.789 422.75 126.975 422.75 128.53H424.75ZM422.891 123.529C421.641 122.109 419.923 121.44 417.87 121.44V123.44C419.457 123.44 420.586 123.937 421.389 124.851L422.891 123.529ZM417.87 121.44C415.815 121.44 414.072 122.109 412.739 123.497L414.181 124.883C415.088 123.938 416.285 123.44 417.87 123.44V121.44ZM412.738 123.498C411.451 124.841 410.85 126.601 410.85 128.67H412.85C412.85 127.005 413.322 125.779 414.182 124.882L412.738 123.498ZM410.85 128.67V151H412.85V128.67H410.85ZM411.85 150H399.11V152H411.85V150ZM467.665 150.02L467.281 150.944L467.287 150.946L467.665 150.02ZM462.275 144.91L461.37 145.336L462.275 144.91ZM460.595 121.6H461.595V120.6H460.595V121.6ZM454.995 121.6H453.995V122.6H454.995V121.6ZM454.995 112.36V111.36H453.995V112.36H454.995ZM460.665 112.36V113.36H461.665V112.36H460.665ZM460.665 102.28V101.28H459.665V102.28H460.665ZM472.425 102.28H473.425V101.28H472.425V102.28ZM472.425 112.36H471.425V113.36H472.425V112.36ZM482.995 112.36H483.995V111.36H482.995V112.36ZM482.995 121.6V122.6H483.995V121.6H482.995ZM472.355 121.6V120.6H471.355V121.6H472.355ZM482.995 140.92H483.995V139.92H482.995V140.92ZM482.995 151.56V152.56H483.995V151.56H482.995ZM477.745 150.56C473.611 150.56 470.395 150.053 468.042 149.094L467.287 150.946C469.974 152.041 473.478 152.56 477.745 152.56V150.56ZM468.048 149.096C465.8 148.163 464.192 146.635 463.18 144.484L461.37 145.336C462.598 147.945 464.583 149.824 467.281 150.944L468.048 149.096ZM463.18 144.484C462.147 142.29 461.595 139.235 461.595 135.25H459.595C459.595 139.385 460.162 142.77 461.37 145.336L463.18 144.484ZM461.595 135.25V121.6H459.595V135.25H461.595ZM460.595 120.6H454.995V122.6H460.595V120.6ZM455.995 121.6V112.36H453.995V121.6H455.995ZM454.995 113.36H460.665V111.36H454.995V113.36ZM461.665 112.36V102.28H459.665V112.36H461.665ZM460.665 103.28H472.425V101.28H460.665V103.28ZM471.425 102.28V112.36H473.425V102.28H471.425ZM472.425 113.36H482.995V111.36H472.425V113.36ZM481.995 112.36V121.6H483.995V112.36H481.995ZM482.995 120.6H472.355V122.6H482.995V120.6ZM471.355 121.6V135.6H473.355V121.6H471.355ZM471.355 135.6C471.355 137.527 471.837 139.157 472.978 140.297C474.118 141.437 475.747 141.92 477.675 141.92V139.92C476.056 139.92 475.025 139.516 474.392 138.883C473.759 138.25 473.355 137.219 473.355 135.6H471.355ZM477.675 141.92H482.995V139.92H477.675V141.92ZM481.995 140.92V151.56H483.995V140.92H481.995ZM482.995 150.56H477.745V152.56H482.995V150.56ZM489.823 151H488.823V152H489.823V151ZM489.823 99.9V98.9H488.823V99.9H489.823ZM502.563 99.9H503.563V98.9H502.563V99.9ZM502.563 118.59H501.563L503.491 118.963L502.563 118.59ZM523.843 115.65L523.033 116.236L523.039 116.244L523.843 115.65ZM527.203 151V152H528.203V151H527.203ZM514.463 151H513.463V152H514.463V151ZM512.853 124.19L512.117 124.867L512.124 124.875L512.131 124.882L512.853 124.19ZM504.243 124.19L504.95 124.897L504.957 124.89L504.964 124.883L504.243 124.19ZM502.563 151V152H503.563V151H502.563ZM490.823 151V99.9H488.823V151H490.823ZM489.823 100.9H502.563V98.9H489.823V100.9ZM501.563 99.9V118.59H503.563V99.9H501.563ZM503.491 118.963C504.435 116.614 505.751 114.918 507.409 113.802C509.067 112.686 511.143 112.1 513.693 112.1V110.1C510.83 110.1 508.344 110.762 506.292 112.143C504.24 113.524 502.698 115.573 501.635 118.217L503.491 118.963ZM513.693 112.1H514.253V110.1H513.693V112.1ZM514.253 112.1C518.177 112.1 521.052 113.497 523.033 116.236L524.653 115.064C522.247 111.736 518.729 110.1 514.253 110.1V112.1ZM523.039 116.244C525.098 119.033 526.203 123.242 526.203 129.02H528.203C528.203 123.038 527.068 118.333 524.647 115.056L523.039 116.244ZM526.203 129.02V151H528.203V129.02H526.203ZM527.203 150H514.463V152H527.203V150ZM515.463 151V128.53H513.463V151H515.463ZM515.463 128.53C515.463 126.539 514.853 124.831 513.575 123.498L512.131 124.882C513 125.789 513.463 126.975 513.463 128.53H515.463ZM513.589 123.513C512.303 122.115 510.599 121.44 508.583 121.44V123.44C510.113 123.44 511.257 123.932 512.117 124.867L513.589 123.513ZM508.583 121.44C506.566 121.44 504.849 122.114 503.522 123.497L504.964 124.883C505.877 123.932 507.053 123.44 508.583 123.44V121.44ZM503.536 123.483C502.195 124.824 501.563 126.589 501.563 128.67H503.563C503.563 127.018 504.051 125.796 504.95 124.897L503.536 123.483ZM501.563 128.67V151H503.563V128.67H501.563ZM502.563 150H489.823V152H502.563V150ZM545.211 150.72L544.804 151.634L545.211 150.72ZM538.841 146.17L539.583 145.5L538.841 146.17ZM534.85 139.73L533.913 140.079L533.916 140.087L533.92 140.095L534.85 139.73ZM534.85 123.49L533.917 123.131L533.913 123.141L534.85 123.49ZM538.771 117.05L538.036 116.371L538.027 116.381L538.771 117.05ZM545.07 112.64L545.469 113.557L545.476 113.554L545.483 113.551L545.07 112.64ZM564.04 113.76L563.498 114.6L564.04 113.76ZM570.69 121.18L569.796 121.627L569.799 121.633L570.69 121.18ZM573.001 135.18V136.18H574.001V135.18H573.001ZM545.561 135.18V134.18H544.351L544.578 135.368L545.561 135.18ZM548.22 140.36L547.539 141.092L547.546 141.098L547.553 141.105L548.22 140.36ZM560.681 138.82V137.82H560.026L559.764 138.419L560.681 138.82ZM572.301 138.82L573.278 139.03L573.537 137.82H572.301V138.82ZM568.94 145.82L568.166 145.187L568.158 145.197L568.94 145.82ZM562.641 150.65L562.227 149.74L562.22 149.743L562.641 150.65ZM548.22 123L548.873 123.757L548.875 123.756L548.22 123ZM545.561 128.32L544.576 128.146L544.369 129.32H545.561V128.32ZM561.031 128.32V129.32H562.211L562.017 128.156L561.031 128.32ZM553.891 151.4C550.738 151.4 547.987 150.86 545.617 149.806L544.804 151.634C547.474 152.82 550.509 153.4 553.891 153.4V151.4ZM545.617 149.806C543.215 148.739 541.209 147.302 539.583 145.5L538.098 146.84C539.925 148.864 542.166 150.461 544.804 151.634L545.617 149.806ZM539.583 145.5C537.936 143.675 536.67 141.632 535.781 139.365L533.92 140.095C534.897 142.588 536.291 144.838 538.098 146.84L539.583 145.5ZM535.788 139.381C534.942 137.112 534.521 134.78 534.521 132.38H532.521C532.521 135.02 532.985 137.588 533.913 140.079L535.788 139.381ZM534.521 132.38V130.98H532.521V132.38H534.521ZM534.521 130.98C534.521 128.482 534.944 126.104 535.788 123.839L533.913 123.141C532.984 125.636 532.521 128.251 532.521 130.98H534.521ZM535.784 123.849C536.675 121.532 537.918 119.492 539.514 117.719L538.027 116.381C536.263 118.342 534.893 120.594 533.917 123.131L535.784 123.849ZM539.505 117.729C541.131 115.97 543.115 114.579 545.469 113.557L544.672 111.723C542.08 112.848 539.863 114.396 538.036 116.371L539.505 117.729ZM545.483 113.551C547.809 112.498 550.465 111.96 553.47 111.96V109.96C550.223 109.96 547.279 110.542 544.658 111.729L545.483 113.551ZM553.47 111.96C557.472 111.96 560.797 112.858 563.498 114.6L564.583 112.92C561.497 110.929 557.776 109.96 553.47 109.96V111.96ZM563.498 114.6C566.241 116.37 568.336 118.707 569.796 121.627L571.585 120.733C569.965 117.493 567.626 114.883 564.583 112.92L563.498 114.6ZM569.799 121.633C571.264 124.518 572.001 127.675 572.001 131.12H574.001C574.001 127.378 573.197 123.909 571.582 120.727L569.799 121.633ZM572.001 131.12V135.18H574.001V131.12H572.001ZM573.001 134.18H545.561V136.18H573.001V134.18ZM544.578 135.368C545.03 137.726 546 139.659 547.539 141.092L548.902 139.628C547.734 138.541 546.931 137.021 546.543 134.992L544.578 135.368ZM547.553 141.105C549.144 142.531 551.301 143.18 553.891 143.18V141.18C551.626 141.18 550.004 140.616 548.888 139.615L547.553 141.105ZM553.891 143.18C557.627 143.18 560.388 141.983 561.597 139.221L559.764 138.419C559.013 140.137 557.247 141.18 553.891 141.18V143.18ZM560.681 139.82H572.301V137.82H560.681V139.82ZM571.323 138.61C570.796 141.07 569.745 143.257 568.167 145.187L569.714 146.453C571.496 144.276 572.685 141.797 573.278 139.03L571.323 138.61ZM568.158 145.197C566.63 147.118 564.66 148.633 562.227 149.74L563.054 151.56C565.754 150.333 567.984 148.629 569.723 146.443L568.158 145.197ZM562.22 149.743C559.855 150.838 557.086 151.4 553.891 151.4V153.4C557.321 153.4 560.386 152.796 563.061 151.557L562.22 149.743ZM553.47 120.18C551.164 120.18 549.172 120.852 547.566 122.244L548.875 123.756C550.069 122.721 551.577 122.18 553.47 122.18V120.18ZM547.568 122.243C545.987 123.605 545.022 125.619 544.576 128.146L546.545 128.494C546.939 126.261 547.748 124.728 548.873 123.757L547.568 122.243ZM545.561 129.32H561.031V127.32H545.561V129.32ZM562.017 128.156C561.598 125.643 560.702 123.627 559.232 122.238C557.747 120.835 555.789 120.18 553.47 120.18V122.18C555.399 122.18 556.824 122.715 557.859 123.692C558.909 124.683 559.67 126.237 560.044 128.484L562.017 128.156ZM594.843 151H593.843V152H594.843V151ZM594.843 122.44H595.843V121.44H594.843V122.44ZM590.503 122.44H589.503V123.44H590.503V122.44ZM590.503 113.2V112.2H589.503V113.2H590.503ZM594.843 113.2V114.2H595.843V113.2H594.843ZM615.353 99.06H616.353V98.06H615.353V99.06ZM615.353 108.44V109.44H616.353V108.44H615.353ZM606.603 113.2H605.603V114.2H606.603V113.2ZM615.913 113.2H616.913V112.2H615.913V113.2ZM615.913 122.44V123.44H616.913V122.44H615.913ZM606.603 122.44V121.44H605.603V122.44H606.603ZM606.603 151V152H607.603V151H606.603ZM595.843 151V122.44H593.843V151H595.843ZM594.843 121.44H590.503V123.44H594.843V121.44ZM591.503 122.44V113.2H589.503V122.44H591.503ZM590.503 114.2H594.843V112.2H590.503V114.2ZM595.843 113.2V112.5H593.843V113.2H595.843ZM595.843 112.5C595.843 108.215 597.075 105.172 599.382 103.176C601.717 101.157 605.324 100.06 610.383 100.06V98.06C605.081 98.06 600.918 99.2031 598.074 101.664C595.201 104.148 593.843 107.825 593.843 112.5H595.843ZM610.383 100.06H615.353V98.06H610.383V100.06ZM614.353 99.06V108.44H616.353V99.06H614.353ZM615.353 107.44H610.103V109.44H615.353V107.44ZM610.103 107.44C608.782 107.44 607.608 107.771 606.771 108.608C605.934 109.445 605.603 110.619 605.603 111.94H607.603C607.603 110.927 607.855 110.352 608.185 110.022C608.514 109.692 609.09 109.44 610.103 109.44V107.44ZM605.603 111.94V113.2H607.603V111.94H605.603ZM606.603 114.2H615.913V112.2H606.603V114.2ZM614.913 113.2V122.44H616.913V113.2H614.913ZM615.913 121.44H606.603V123.44H615.913V121.44ZM605.603 122.44V151H607.603V122.44H605.603ZM606.603 150H594.843V152H606.603V150ZM623.53 147.99L622.757 148.625L622.763 148.632L622.769 148.639L623.53 147.99ZM619.96 112.36V111.36H618.96V112.36H619.96ZM632.7 112.36H633.7V111.36H632.7V112.36ZM634.24 139.31L634.962 138.619L634.24 139.31ZM644.18 112.36V111.36H643.18V112.36H644.18ZM656.92 112.36H657.92V111.36H656.92V112.36ZM656.92 151V152H657.92V151H656.92ZM646.84 151H645.84V152H646.84V151ZM646.84 141.9H647.84L645.864 141.682L646.84 141.9ZM642.5 149.74L641.875 148.959L642.5 149.74ZM633.75 151.26C629.6 151.26 626.494 149.926 624.291 147.341L622.769 148.639C625.419 151.748 629.126 153.26 633.75 153.26V151.26ZM624.302 147.355C622.133 144.719 620.96 140.582 620.96 134.76H618.96C618.96 140.792 620.166 145.475 622.757 148.625L624.302 147.355ZM620.96 134.76V112.36H618.96V134.76H620.96ZM619.96 113.36H632.7V111.36H619.96V113.36ZM631.7 112.36V135.11H633.7V112.36H631.7ZM631.7 135.11C631.7 137.049 632.283 138.712 633.517 140.001L634.962 138.619C634.142 137.762 633.7 136.624 633.7 135.11H631.7ZM633.517 140.001C634.763 141.304 636.418 141.92 638.37 141.92V139.92C636.868 139.92 635.769 139.463 634.962 138.619L633.517 140.001ZM638.37 141.92C640.322 141.92 641.99 141.304 643.277 140.017L641.862 138.603C641.003 139.462 639.871 139.92 638.37 139.92V141.92ZM643.277 140.017C644.574 138.72 645.18 136.999 645.18 134.97H643.18C643.18 136.581 642.712 137.754 641.862 138.603L643.277 140.017ZM645.18 134.97V112.36H643.18V134.97H645.18ZM644.18 113.36H656.92V111.36H644.18V113.36ZM655.92 112.36V151H657.92V112.36H655.92ZM656.92 150H646.84V152H656.92V150ZM647.84 151V141.9H645.84V151H647.84ZM645.864 141.682C645.103 145.084 643.744 147.464 641.875 148.959L643.124 150.521C645.456 148.656 646.99 145.809 647.815 142.118L645.864 141.682ZM641.875 148.959C639.993 150.465 637.5 151.26 634.31 151.26V153.26C637.839 153.26 640.806 152.375 643.124 150.521L641.875 148.959ZM634.31 151.26H633.75V153.26H634.31V151.26ZM666.327 151H665.327V152H666.327V151ZM666.327 112.36V111.36H665.327V112.36H666.327ZM676.407 112.36H677.407V111.36H676.407V112.36ZM676.407 122.51H675.407L677.388 122.702L676.407 122.51ZM680.817 113.97L681.465 114.732L681.474 114.724L680.817 113.97ZM700.067 115.51L699.29 116.139L699.295 116.146L699.301 116.153L700.067 115.51ZM703.707 151V152H704.707V151H703.707ZM690.967 151H689.967V152H690.967V151ZM689.357 124.19L688.606 124.851L688.62 124.867L688.635 124.882L689.357 124.19ZM680.677 124.19L679.956 123.497L679.955 123.498L680.677 124.19ZM679.067 151V152H680.067V151H679.067ZM667.327 151V112.36H665.327V151H667.327ZM666.327 113.36H676.407V111.36H666.327V113.36ZM675.407 112.36V122.51H677.407V112.36H675.407ZM677.388 122.702C678.107 119.019 679.496 116.407 681.465 114.732L680.169 113.208C677.751 115.266 676.2 118.348 675.425 122.318L677.388 122.702ZM681.474 114.724C683.45 113 686.047 112.1 689.357 112.1V110.1C685.667 110.1 682.57 111.113 680.16 113.216L681.474 114.724ZM689.357 112.1H689.917V110.1H689.357V112.1ZM689.917 112.1C694.056 112.1 697.131 113.473 699.29 116.139L700.844 114.881C698.243 111.667 694.551 110.1 689.917 110.1V112.1ZM699.301 116.153C701.509 118.786 702.707 122.964 702.707 128.88H704.707C704.707 122.756 703.478 118.021 700.833 114.867L699.301 116.153ZM702.707 128.88V151H704.707V128.88H702.707ZM703.707 150H690.967V152H703.707V150ZM691.967 151V128.53H689.967V151H691.967ZM691.967 128.53C691.967 126.539 691.356 124.831 690.079 123.498L688.635 124.882C689.504 125.789 689.967 126.975 689.967 128.53H691.967ZM690.108 123.529C688.858 122.109 687.14 121.44 685.087 121.44V123.44C686.674 123.44 687.802 123.937 688.606 124.851L690.108 123.529ZM685.087 121.44C683.032 121.44 681.289 122.109 679.956 123.497L681.398 124.883C682.305 123.938 683.502 123.44 685.087 123.44V121.44ZM679.955 123.498C678.668 124.841 678.067 126.601 678.067 128.67H680.067C680.067 127.005 680.539 125.779 681.399 124.882L679.955 123.498ZM678.067 128.67V151H680.067V128.67H678.067ZM679.067 150H666.327V152H679.067V150ZM712.474 133.08H711.474V134.08H712.474V133.08ZM712.474 99.9V98.9H711.474V99.9H712.474ZM725.494 99.9H726.494V98.9H725.494V99.9ZM725.494 133.08V134.08H726.494V133.08H725.494ZM711.564 151H710.564V152H711.564V151ZM711.564 138.82V137.82H710.564V138.82H711.564ZM726.404 138.82H727.404V137.82H726.404V138.82ZM726.404 151V152H727.404V151H726.404ZM713.474 133.08V99.9H711.474V133.08H713.474ZM712.474 100.9H725.494V98.9H712.474V100.9ZM724.494 99.9V133.08H726.494V99.9H724.494ZM725.494 132.08H712.474V134.08H725.494V132.08ZM712.564 151V138.82H710.564V151H712.564ZM711.564 139.82H726.404V137.82H711.564V139.82ZM725.404 138.82V151H727.404V138.82H725.404ZM726.404 150H711.564V152H726.404V150Z" fill="#22262A"/>
</g>
<defs>
<filter id="filter0_d_258:2778" x="0.392822" y="0.540039" width="826.012" height="268.46" filterUnits="userSpaceOnUse" color-interpolation-filters="sRGB">
<feFlood flood-opacity="0" result="BackgroundImageFix"/>
<feColorMatrix in="SourceAlpha" type="matrix" values="0 0 0 0 0 0 0 0 0 0 0 0 0 0 0 0 0 0 127 0" result="hardAlpha"/>
<feOffset dy="4"/>
<feGaussianBlur stdDeviation="50"/>
<feComposite in2="hardAlpha" operator="out"/>
<feColorMatrix type="matrix" values="0 0 0 0 0 0 0 0 0 0 0 0 0 0 0 0 0 0 0.25 0"/>
<feBlend mode="normal" in2="BackgroundImageFix" result="effect1_dropShadow_258:2778"/>
<feBlend mode="normal" in="SourceGraphic" in2="effect1_dropShadow_258:2778" result="shape"/>
</filter>
<linearGradient id="paint0_linear_258:2778" x1="94.7762" y1="103.263" x2="711.978" y2="170.182" gradientUnits="userSpaceOnUse">
<stop offset="0.267495" stop-color="#FFC6CE"/>
<stop offset="1" stop-color="#64D6EE"/>
</linearGradient>
</defs>
</svg>
