<svg width="17" height="82" viewBox="0 0 17 82" fill="none" xmlns="http://www.w3.org/2000/svg">
<path d="M0.735999 72.0101C0.735999 71.2581 0.799999 70.4981 0.927999 69.7301C1.04 68.9461 1.192 68.3221 1.384 67.8581C1.432 67.7141 1.496 67.6261 1.576 67.5941C1.64 67.5461 1.76 67.5141 1.936 67.4981L5.272 67.1861C5.32 67.1861 5.352 67.2261 5.368 67.3061C5.384 67.3861 5.36 67.4421 5.296 67.4741C3.984 67.9221 2.984 68.5621 2.296 69.3941C1.592 70.2261 1.24 71.2261 1.24 72.3941C1.24 73.4821 1.536 74.4581 2.128 75.3221C2.704 76.1701 3.536 76.8421 4.624 77.3381C5.712 77.8181 6.984 78.0581 8.44 78.0581C9.912 78.0581 11.208 77.8101 12.328 77.3141C13.432 76.8021 14.288 76.1061 14.896 75.2261C15.488 74.3301 15.784 73.3061 15.784 72.1541C15.784 71.0501 15.488 70.1221 14.896 69.3701C14.288 68.6181 13.296 67.9061 11.92 67.2341C11.872 67.2181 11.856 67.1701 11.872 67.0901C11.888 67.0101 11.92 66.9701 11.968 66.9701L14.944 67.3301C15.136 67.3621 15.264 67.3941 15.328 67.4261C15.376 67.4581 15.432 67.5461 15.496 67.6901C16.024 69.1621 16.288 70.6501 16.288 72.1541C16.288 73.8661 15.968 75.4021 15.328 76.7621C14.672 78.1061 13.76 79.1621 12.592 79.9301C11.424 80.6981 10.096 81.0821 8.608 81.0821C7.088 81.0821 5.736 80.6901 4.552 79.9061C3.352 79.1061 2.416 78.0181 1.744 76.6421C1.072 75.2501 0.735999 73.7061 0.735999 72.0101ZM16.312 60.2341C16.312 61.2261 16.088 62.0981 15.64 62.8501C15.176 63.5861 14.56 64.1541 13.792 64.5541C13.008 64.9541 12.16 65.1541 11.248 65.1541C10.208 65.1541 9.328 64.8901 8.608 64.3621C7.872 63.8341 7.328 63.1621 6.976 62.3461C6.608 61.5301 6.424 60.6901 6.424 59.8261C6.424 58.8341 6.656 57.9701 7.12 57.2341C7.584 56.4981 8.2 55.9381 8.968 55.5541C9.72 55.1541 10.528 54.9541 11.392 54.9541C12.352 54.9541 13.208 55.1941 13.96 55.6741C14.696 56.1541 15.272 56.8021 15.688 57.6181C16.104 58.4181 16.312 59.2901 16.312 60.2341ZM15.808 59.5141C15.808 58.8901 15.504 58.4181 14.896 58.0981C14.272 57.7621 13.384 57.5941 12.232 57.5941C11.112 57.5941 10.152 57.7381 9.352 58.0261C8.552 58.3141 7.952 58.6901 7.552 59.1541C7.136 59.6181 6.928 60.1141 6.928 60.6421C6.928 61.9221 8.072 62.5621 10.36 62.5621C11.432 62.5621 12.384 62.4261 13.216 62.1541C14.032 61.8821 14.672 61.5141 15.136 61.0501C15.584 60.5861 15.808 60.0741 15.808 59.5141ZM15.712 41.9639C15.712 41.9159 15.76 41.8919 15.856 41.8919C15.952 41.8919 16 41.9159 16 41.9639C16 42.3799 15.992 42.7079 15.976 42.9479L15.952 44.3879L15.976 45.7799C15.992 46.0359 16 46.3719 16 46.7879C16 46.8359 15.952 46.8599 15.856 46.8599C15.76 46.8599 15.712 46.8359 15.712 46.7879C15.712 46.2919 15.6 45.9559 15.376 45.7799C15.136 45.6039 14.696 45.5159 14.056 45.5159L10.6 45.5159C9.736 45.5159 9.096 45.6759 8.68 45.9959C8.264 46.2999 8.056 46.7879 8.056 47.4599C8.056 47.8439 8.136 48.2439 8.296 48.6599C8.456 49.0599 8.672 49.4119 8.944 49.7159L14.056 49.7159C14.696 49.7159 15.136 49.6279 15.376 49.4519C15.6 49.2599 15.712 48.9159 15.712 48.4199C15.712 48.3719 15.76 48.3479 15.856 48.3479C15.952 48.3479 16 48.3719 16 48.4199C16 48.8359 15.992 49.1639 15.976 49.4039L15.952 50.8439L15.976 52.2599C15.992 52.4999 16 52.8279 16 53.2439C16 53.2919 15.952 53.3159 15.856 53.3159C15.76 53.3159 15.712 53.2919 15.712 53.2439C15.712 52.7479 15.6 52.4119 15.376 52.2359C15.136 52.0599 14.696 51.9719 14.056 51.9719L9.544 51.9719C9.048 51.9719 8.688 52.0359 8.464 52.1639C8.224 52.2759 8.104 52.4599 8.104 52.7159C8.104 52.9879 8.216 53.3719 8.44 53.8679L8.44 53.9159C8.44 53.9639 8.4 54.0039 8.32 54.0359C8.24 54.0519 8.192 54.0439 8.176 54.0119L6.544 50.6759C6.512 50.5799 6.496 50.5239 6.496 50.5079C6.496 50.3319 6.672 50.1639 7.024 50.0039C7.36 49.8439 7.824 49.7479 8.416 49.7159C7.104 48.6119 6.448 47.3959 6.448 46.0679C6.448 45.2039 6.728 44.5239 7.288 44.0279C7.832 43.5159 8.552 43.2599 9.448 43.2599L14.056 43.2599C14.696 43.2599 15.136 43.1719 15.376 42.9959C15.6 42.8039 15.712 42.4599 15.712 41.9639ZM15.712 29.3311C15.712 29.2831 15.76 29.2591 15.856 29.2591C15.952 29.2591 16 29.2831 16 29.3311C16 29.7471 15.992 30.0751 15.976 30.3151L15.952 31.7551L15.976 33.1471C15.992 33.4031 16 33.7391 16 34.1551C16 34.2031 15.952 34.2271 15.856 34.2271C15.76 34.2271 15.712 34.2031 15.712 34.1551C15.712 33.6591 15.6 33.3231 15.376 33.1471C15.136 32.9711 14.696 32.8831 14.056 32.8831L10.6 32.8831C9.736 32.8831 9.096 33.0431 8.68 33.3631C8.264 33.6671 8.056 34.1551 8.056 34.8271C8.056 35.2111 8.136 35.6111 8.296 36.0271C8.456 36.4271 8.672 36.7791 8.944 37.0831L14.056 37.0831C14.696 37.0831 15.136 36.9951 15.376 36.8191C15.6 36.6271 15.712 36.2831 15.712 35.7871C15.712 35.7391 15.76 35.7151 15.856 35.7151C15.952 35.7151 16 35.7391 16 35.7871C16 36.2031 15.992 36.5311 15.976 36.7711L15.952 38.2111L15.976 39.6271C15.992 39.8671 16 40.1951 16 40.6111C16 40.6591 15.952 40.6831 15.856 40.6831C15.76 40.6831 15.712 40.6591 15.712 40.6111C15.712 40.1151 15.6 39.7791 15.376 39.6031C15.136 39.4271 14.696 39.3391 14.056 39.3391L9.544 39.3391C9.048 39.3391 8.688 39.4031 8.464 39.5311C8.224 39.6431 8.104 39.8271 8.104 40.0831C8.104 40.3551 8.216 40.7391 8.44 41.2351L8.44 41.2831C8.44 41.3311 8.4 41.3711 8.32 41.4031C8.24 41.4191 8.192 41.4111 8.176 41.3791L6.544 38.0431C6.512 37.9471 6.496 37.8911 6.496 37.8751C6.496 37.6991 6.672 37.5311 7.024 37.3711C7.36 37.2111 7.824 37.1151 8.416 37.0831C7.104 35.9791 6.448 34.7631 6.448 33.4351C6.448 32.5711 6.728 31.8911 7.288 31.3951C7.832 30.8831 8.552 30.6271 9.448 30.6271L14.056 30.6271C14.696 30.6271 15.136 30.5391 15.376 30.3631C15.6 30.1711 15.712 29.8271 15.712 29.3311ZM14.416 19.6023C14.416 19.5703 14.448 19.5383 14.512 19.5063C14.576 19.4583 14.624 19.4503 14.656 19.4823C15.232 20.0743 15.648 20.6743 15.904 21.2823C16.16 21.8903 16.288 22.5543 16.288 23.2743C16.288 24.2823 16.08 25.1543 15.664 25.8903C15.232 26.6263 14.664 27.1863 13.96 27.5703C13.24 27.9543 12.464 28.1463 11.632 28.1463C10.704 28.1463 9.848 27.9143 9.064 27.4503C8.28 26.9863 7.664 26.3463 7.216 25.5303C6.752 24.6983 6.52 23.7623 6.52 22.7223C6.52 21.7303 6.744 20.9623 7.192 20.4183C7.64 19.8743 8.336 19.6023 9.28 19.6023C9.776 19.6023 10.024 19.6903 10.024 19.8663L10.048 25.6983C10.16 25.7143 10.344 25.7223 10.6 25.7223C12.008 25.7223 13.112 25.4023 13.912 24.7623C14.712 24.1063 15.112 23.1703 15.112 21.9543C15.112 21.5223 15.064 21.1543 14.968 20.8503C14.872 20.5463 14.696 20.1463 14.44 19.6503L14.416 19.6023ZM7 23.6343C7 24.1623 7.232 24.6023 7.696 24.9543C8.144 25.3063 8.768 25.5383 9.568 25.6503L9.52 22.1703C8.704 22.1863 8.08 22.3063 7.648 22.5303C7.216 22.7543 7 23.1223 7 23.6343ZM16.288 13.4077C16.288 14.4637 16.064 15.3597 15.616 16.0957C15.152 16.8157 14.56 17.3597 13.84 17.7277C13.104 18.0797 12.336 18.2557 11.536 18.2557C10.528 18.2557 9.648 17.9757 8.896 17.4157C8.128 16.8557 7.544 16.1437 7.144 15.2797C6.728 14.3997 6.52 13.5037 6.52 12.5917C6.52 11.8237 6.68 11.1357 7 10.5277C7.32 9.90368 7.76 9.59168 8.32 9.59168C8.624 9.59168 8.888 9.71168 9.112 9.95168C9.32 10.1757 9.424 10.4957 9.424 10.9117C9.424 11.2957 9.328 11.5997 9.136 11.8237C8.928 12.0477 8.616 12.2317 8.2 12.3757C7.752 12.5197 7.448 12.6637 7.288 12.8077C7.112 12.9357 7.024 13.1757 7.024 13.5277C7.024 14.2157 7.368 14.7677 8.056 15.1837C8.728 15.5837 9.624 15.7837 10.744 15.7837C12.072 15.7837 13.136 15.4877 13.936 14.8957C14.72 14.3037 15.112 13.3597 15.112 12.0637C15.112 11.6317 15.064 11.2637 14.968 10.9597C14.872 10.6397 14.712 10.2397 14.488 9.75968L14.488 9.73568C14.488 9.68768 14.512 9.64768 14.56 9.61568C14.608 9.56768 14.648 9.55968 14.68 9.59168C15.224 10.1837 15.632 10.7757 15.904 11.3677C16.16 11.9597 16.288 12.6397 16.288 13.4077ZM14.32 1.05237C14.32 0.988368 14.352 0.940368 14.416 0.908368C14.48 0.860368 14.528 0.860368 14.56 0.908368C15.152 1.50037 15.592 2.07637 15.88 2.63637C16.152 3.19637 16.288 3.78837 16.288 4.41237C16.288 5.11637 16.12 5.71637 15.784 6.21237C15.448 6.70837 14.88 6.95637 14.08 6.95637L8.752 6.95637C8.256 6.95637 7.912 7.04437 7.72 7.22037C7.528 7.39637 7.432 7.71637 7.432 8.18037C7.432 8.19637 7.408 8.22037 7.36 8.25237C7.312 8.26837 7.264 8.27637 7.216 8.27637C7.152 8.27637 7.104 8.26837 7.072 8.25237C7.024 8.23637 7 8.21237 7 8.18037C6.968 7.36437 6.792 6.70837 6.472 6.21237C6.152 5.70037 5.664 5.30837 5.008 5.03637C4.944 5.00437 4.912 4.94037 4.912 4.84437C4.912 4.73237 4.944 4.67637 5.008 4.67637L6.928 4.67637C6.912 3.74837 6.84 2.70837 6.712 1.55637C6.712 1.52437 6.776 1.49237 6.904 1.46037C7.016 1.41237 7.144 1.38837 7.288 1.38837C7.448 1.38837 7.608 1.42037 7.768 1.48437C7.912 1.53237 7.976 1.58837 7.96 1.65237C7.736 2.69237 7.616 3.70037 7.6 4.67637L13.288 4.67637C13.896 4.67637 14.344 4.52437 14.632 4.22037C14.92 3.90037 15.064 3.48437 15.064 2.97237C15.064 2.33237 14.824 1.70837 14.344 1.10037L14.32 1.05237Z" fill="url(#paint0_linear_313:774)"/>
<defs>
<linearGradient id="paint0_linear_313:774" x1="0.677631" y1="82.2581" x2="4.08675" y2="1.89092" gradientUnits="userSpaceOnUse">
<stop offset="0.267495" stop-color="#FFC6CE"/>
<stop offset="1" stop-color="#64D6EE"/>
</linearGradient>
</defs>
</svg>
