<svg width="184" height="184" viewBox="0 0 184 184" fill="none" xmlns="http://www.w3.org/2000/svg">
<path d="M166.686 95.1314C166.261 95.0985 165.944 95.1342 165.735 95.2384C165.54 95.3437 165.389 95.5594 165.284 95.8856C165.177 96.225 165.095 96.767 165.038 97.5115C165.035 97.5513 164.993 97.5682 164.914 97.562C164.834 97.5559 164.795 97.5328 164.799 97.493C164.841 96.9479 164.88 96.523 164.917 96.2183L165.071 94.485L165.153 93.1674C165.158 92.9271 165.177 92.5942 165.21 92.1688C165.212 92.1423 165.253 92.132 165.333 92.1382C165.413 92.1444 165.451 92.1607 165.449 92.1873C165.409 92.7058 165.413 93.0872 165.461 93.3317C165.508 93.5894 165.622 93.7653 165.802 93.8595C165.994 93.9679 166.289 94.0376 166.688 94.0684L175.921 94.7821C176.319 94.8129 176.615 94.789 176.809 94.7103C177.001 94.6449 177.14 94.4885 177.226 94.2411C177.324 94.008 177.394 93.6322 177.434 93.1137C177.436 93.0871 177.477 93.0769 177.556 93.0831C177.636 93.0892 177.675 93.1056 177.673 93.1322L177.577 94.1078C177.508 94.664 177.46 95.1017 177.436 95.4207C177.411 95.7398 177.403 96.1069 177.411 96.5221C177.371 97.5621 177.347 98.1286 177.34 98.2217C177.249 99.3915 176.903 100.321 176.302 101.01C175.713 101.7 174.868 102.002 173.764 101.917C172.874 101.848 172.139 101.571 171.562 101.085C170.998 100.6 170.595 100.007 170.355 99.3066C170.114 98.6193 170.021 97.9167 170.077 97.1989C170.108 96.8001 170.166 96.4769 170.252 96.2295C170.255 96.1896 170.29 96.1723 170.356 96.1774C170.396 96.1805 170.436 96.1902 170.475 96.2066C170.512 96.2362 170.524 96.2639 170.508 96.2894C170.439 96.498 170.394 96.7352 170.373 97.0011C170.3 97.945 170.524 98.7647 171.045 99.4603C171.566 100.169 172.371 100.566 173.461 100.65C174.166 100.704 174.781 100.612 175.308 100.371C175.848 100.132 176.27 99.7772 176.574 99.3059C176.89 98.8489 177.071 98.3279 177.116 97.743C177.158 97.198 177.161 96.8104 177.126 96.5803C177.09 96.3502 176.976 96.1742 176.785 96.0525C176.606 95.945 176.278 95.8728 175.799 95.8358L166.686 95.1314Z" fill="#22262A"/>
<path d="M161.314 116.457C161.304 116.495 161.26 116.504 161.183 116.484C161.105 116.463 161.072 116.433 161.082 116.395L161.68 114.153C161.766 113.831 162.468 113.349 163.785 112.707C165.111 112.081 166.885 111.382 169.106 110.608C169.136 110.133 169.199 109.715 169.296 109.355C169.309 109.303 169.403 109.031 169.575 108.539L165.17 107.363C164.77 107.257 164.47 107.218 164.269 107.247C164.065 107.289 163.899 107.418 163.773 107.632C163.647 107.847 163.515 108.212 163.377 108.727C163.367 108.766 163.323 108.775 163.246 108.754C163.168 108.734 163.135 108.704 163.145 108.665C163.248 108.279 163.337 107.971 163.412 107.743L163.782 106.434L164.103 105.154C164.152 104.918 164.232 104.594 164.342 104.182C164.349 104.156 164.391 104.154 164.468 104.175C164.545 104.195 164.581 104.218 164.574 104.244C164.436 104.759 164.369 105.142 164.371 105.391C164.37 105.653 164.448 105.853 164.604 105.991C164.773 106.133 165.051 106.255 165.438 106.358L174.384 108.747C174.771 108.85 175.066 108.88 175.271 108.838C175.472 108.809 175.637 108.681 175.767 108.453C175.906 108.242 176.043 107.885 176.177 107.383C176.187 107.344 176.231 107.335 176.308 107.356C176.386 107.376 176.419 107.406 176.409 107.445L176.142 108.367C175.979 108.875 175.852 109.297 175.763 109.632C175.687 109.915 175.623 110.181 175.571 110.429C175.515 110.69 175.469 110.913 175.434 111.097C175.349 111.571 175.258 111.988 175.162 112.349C174.904 113.315 174.466 113.999 173.848 114.4C173.24 114.817 172.55 114.922 171.777 114.716C171.094 114.534 170.524 114.161 170.067 113.597C169.624 113.037 169.332 112.373 169.192 111.604C167.325 112.292 165.853 112.893 164.778 113.407C163.702 113.92 162.894 114.415 162.353 114.891C161.812 115.368 161.465 115.89 161.314 116.457ZM170.02 108.658C169.885 109.008 169.762 109.39 169.652 109.802C169.367 110.871 169.383 111.69 169.701 112.257C170.028 112.841 170.642 113.254 171.544 113.495C172.536 113.759 173.323 113.707 173.904 113.338C174.482 112.982 174.893 112.346 175.138 111.432C175.268 110.942 175.269 110.577 175.14 110.335C175.012 110.094 174.657 109.896 174.078 109.741L170.02 108.658Z" fill="#22262A"/>
<path d="M157.351 124.188C157.922 123.087 158.685 122.237 159.642 121.637C160.605 121.054 161.647 120.753 162.768 120.734C163.896 120.732 164.98 121.002 166.022 121.542C167.241 122.174 168.123 123.021 168.668 124.085C169.225 125.154 169.474 126.282 169.415 127.468C169.35 128.666 169.056 129.768 168.535 130.774C167.952 131.898 167.173 132.749 166.199 133.325C165.236 133.907 164.206 134.199 163.109 134.201C162.005 134.215 160.968 133.97 159.998 133.467C158.92 132.909 158.079 132.112 157.474 131.078C156.869 130.043 156.555 128.912 156.531 127.683C156.501 126.466 156.774 125.301 157.351 124.188ZM157.375 125.012C156.939 125.852 156.742 126.711 156.783 127.588C156.823 128.465 157.121 129.296 157.677 130.079C158.232 130.862 159.036 131.527 160.09 132.073C161.202 132.65 162.304 132.943 163.395 132.953C164.492 132.981 165.489 132.724 166.385 132.183C167.276 131.653 167.991 130.867 168.531 129.826C169.243 128.453 169.372 127.16 168.918 125.949C168.465 124.738 167.504 123.752 166.036 122.991C164.935 122.42 163.813 122.109 162.669 122.056C161.53 122.022 160.492 122.257 159.554 122.762C158.617 123.267 157.89 124.017 157.375 125.012Z" fill="#22262A"/>
<path d="M159.511 144.653C159.495 144.674 159.455 144.66 159.391 144.612C159.327 144.564 159.303 144.529 159.319 144.508C159.592 144.146 159.762 143.856 159.826 143.638C159.891 143.419 159.868 143.218 159.757 143.033C159.648 142.868 159.434 142.664 159.115 142.423L149.924 135.478C148.903 134.706 148.266 133.857 148.013 132.931C147.753 132.015 147.96 131.11 148.635 130.217C148.9 129.866 149.164 129.639 149.426 129.536C149.685 129.414 149.905 129.421 150.086 129.558C150.224 129.663 150.303 129.79 150.324 129.939C150.353 130.078 150.311 130.222 150.199 130.37C150.078 130.53 149.954 130.628 149.826 130.665C149.697 130.702 149.529 130.725 149.321 130.735C149.129 130.724 148.969 130.737 148.841 130.774C148.713 130.81 148.593 130.903 148.48 131.052C148.167 131.467 148.163 131.958 148.471 132.524C148.767 133.083 149.421 133.744 150.432 134.507L159.798 141.586C160.117 141.827 160.383 141.961 160.596 141.988C160.802 142.027 161.015 141.954 161.237 141.771C161.47 141.596 161.767 141.269 162.129 140.79C162.145 140.769 162.185 140.782 162.249 140.83C162.312 140.879 162.336 140.913 162.32 140.935L161.617 141.832C161.226 142.305 160.93 142.675 160.729 142.941C160.528 143.207 160.285 143.55 160.001 143.97L159.511 144.653Z" fill="#22262A"/>
<path d="M143.461 148.114C143.489 148.142 143.47 148.18 143.404 148.227C143.347 148.283 143.305 148.297 143.277 148.269C142.768 147.59 142.197 146.935 141.565 146.303C141.49 146.228 141.452 146.152 141.452 146.077C141.452 146.02 141.495 145.95 141.58 145.865L147.42 140.024C147.439 140.005 147.477 140.024 147.533 140.081C147.59 140.137 147.609 140.175 147.59 140.194C147.222 140.562 146.977 140.854 146.855 141.071C146.723 141.297 146.694 141.504 146.77 141.693C146.845 141.9 147.024 142.146 147.307 142.428L153.855 148.976C154.138 149.259 154.378 149.433 154.576 149.499C154.765 149.575 154.972 149.547 155.199 149.415C155.425 149.301 155.722 149.061 156.089 148.693C156.108 148.674 156.146 148.693 156.203 148.75C156.259 148.806 156.278 148.844 156.259 148.863L150.659 154.463C150.574 154.548 150.489 154.548 150.404 154.463L148.665 152.78C148.637 152.752 148.651 152.71 148.707 152.653C148.754 152.606 148.792 152.597 148.82 152.625C149.301 153.106 149.81 153.36 150.348 153.389C150.885 153.417 151.361 153.224 151.776 152.809L152.752 151.833C153.11 151.475 153.351 151.187 153.473 150.97C153.596 150.753 153.624 150.546 153.558 150.348C153.483 150.159 153.303 149.924 153.021 149.641L150.15 146.77L148.283 148.637C147.849 149.07 147.618 149.443 147.59 149.754C147.571 150.075 147.741 150.414 148.099 150.772C148.118 150.791 148.099 150.829 148.043 150.885C147.986 150.942 147.948 150.961 147.929 150.942L146.826 149.811C146.553 149.537 146.346 149.339 146.204 149.217L145.525 148.566C145.506 148.547 145.525 148.509 145.582 148.453C145.638 148.396 145.676 148.378 145.695 148.396C146.119 148.821 146.506 149.028 146.855 149.019C147.203 149.009 147.604 148.778 148.057 148.326L149.881 146.501L146.614 143.234C146.341 142.961 146.11 142.787 145.921 142.711C145.733 142.655 145.535 142.683 145.327 142.796C145.11 142.919 144.818 143.164 144.45 143.531L143.149 144.833C142.772 145.21 142.617 145.695 142.683 146.289C142.739 146.893 142.999 147.501 143.461 148.114Z" fill="#22262A"/>
<path d="M140.246 163.127C139.521 163.626 138.891 163.98 138.354 164.188C137.824 164.407 137.211 164.562 136.513 164.654C136.417 164.656 136.352 164.644 136.319 164.618C136.282 164.611 136.208 164.54 136.099 164.405L134.608 162.664C134.585 162.631 134.603 162.586 134.661 162.53C134.716 162.492 134.761 162.486 134.794 162.511C135.664 163.256 136.533 163.661 137.404 163.725C138.281 163.8 139.176 163.524 140.087 162.896C141.053 162.231 141.764 161.441 142.22 160.528C142.665 159.623 142.829 158.651 142.713 157.614C142.594 156.595 142.191 155.586 141.502 154.586C140.859 153.653 140.038 152.932 139.039 152.422C138.037 151.93 136.996 151.7 135.916 151.732C134.833 151.782 133.864 152.102 133.007 152.692C131.185 153.947 130.637 155.644 131.366 157.782C131.381 157.804 131.361 157.834 131.306 157.871C131.229 157.924 131.179 157.934 131.157 157.901L130.085 156.065C130.006 155.926 129.965 155.832 129.965 155.784C129.964 155.736 129.981 155.667 130.017 155.578C130.384 154.888 130.782 154.314 131.211 153.856C131.622 153.395 132.173 152.926 132.865 152.45C134.007 151.663 135.183 151.184 136.394 151.014C137.601 150.863 138.74 151.025 139.813 151.5C140.893 151.987 141.803 152.768 142.545 153.844C143.256 154.876 143.631 155.961 143.671 157.1C143.71 158.238 143.433 159.328 142.839 160.369C142.241 161.428 141.377 162.348 140.246 163.127Z" fill="#22262A"/>
<path d="M129.068 169.089C129.838 168.753 130.32 168.325 130.514 167.803C130.709 167.282 130.662 166.524 130.374 165.53C130.363 165.506 130.394 165.477 130.468 165.445C130.541 165.413 130.583 165.41 130.594 165.434C130.689 165.785 130.863 166.335 131.116 167.083C131.375 167.842 131.585 168.406 131.745 168.772C131.771 168.833 131.748 168.88 131.675 168.912C131.601 168.944 131.551 168.929 131.525 168.868C131.407 168.599 131.025 168.606 130.377 168.889C129.31 169.311 128.074 169.828 126.668 170.441C125.947 170.756 125.189 171.101 124.393 171.477L123.154 172.04C122.714 172.232 122.404 172.403 122.223 172.555C122.042 172.707 121.961 172.888 121.979 173.098C121.988 173.152 121.962 173.192 121.901 173.219C121.84 173.246 121.799 173.234 121.778 173.186C121.665 172.827 121.473 172.286 121.2 171.561C120.933 170.848 120.703 170.272 120.511 169.832C120.501 169.808 120.532 169.78 120.605 169.748C120.679 169.716 120.721 169.712 120.731 169.736C121.014 170.384 121.3 170.856 121.589 171.152C121.878 171.447 122.216 171.605 122.603 171.626C122.99 171.646 123.471 171.531 124.045 171.28C124.68 171.003 125.116 170.784 125.351 170.623C125.592 170.474 125.726 170.299 125.755 170.098C125.771 169.902 125.691 169.602 125.515 169.199L121.829 160.748C121.664 160.369 121.501 160.112 121.341 159.979C121.18 159.845 120.959 159.803 120.675 159.854C120.392 159.905 119.976 160.051 119.426 160.29C119.401 160.301 119.373 160.27 119.341 160.196C119.309 160.123 119.305 160.081 119.33 160.07C119.733 159.895 120.053 159.762 120.291 159.673L121.71 159.076L123.041 158.473C123.28 158.355 123.613 158.202 124.041 158.015C124.065 158.005 124.093 158.036 124.125 158.109C124.157 158.183 124.161 158.225 124.137 158.235C123.587 158.475 123.197 158.682 122.967 158.855C122.737 159.028 122.616 159.219 122.606 159.427C122.588 159.653 122.659 159.949 122.819 160.316L126.521 168.803C126.697 169.207 126.866 169.46 127.028 169.564C127.195 169.681 127.415 169.701 127.687 169.626C127.948 169.556 128.408 169.377 129.068 169.089Z" fill="#22262A"/>
<path d="M102.058 177.579C101.185 177.687 100.462 177.71 99.8903 177.646C99.3198 177.596 98.7039 177.451 98.0426 177.21C97.9567 177.167 97.9046 177.127 97.8865 177.089C97.8567 177.065 97.8246 176.969 97.79 176.798L97.2714 174.565C97.2665 174.525 97.3029 174.494 97.3806 174.471C97.4468 174.463 97.489 174.478 97.5071 174.516C97.9343 175.578 98.519 176.339 99.2611 176.797C100.005 177.269 100.926 177.437 102.024 177.301C103.188 177.157 104.184 176.785 105.009 176.186C105.822 175.588 106.417 174.802 106.793 173.828C107.158 172.87 107.266 171.788 107.116 170.584C106.977 169.459 106.582 168.44 105.931 167.527C105.269 166.628 104.452 165.943 103.48 165.472C102.497 165.017 101.489 164.853 100.457 164.981C98.2601 165.253 96.9912 166.505 96.6498 168.737C96.6531 168.764 96.6217 168.781 96.5555 168.789C96.4629 168.801 96.4141 168.787 96.4092 168.747L96.3072 166.623C96.3008 166.463 96.3083 166.361 96.3298 166.318C96.3514 166.275 96.3986 166.223 96.4714 166.16C97.1152 165.717 97.7332 165.392 98.3255 165.184C98.9029 164.965 99.6084 164.804 100.442 164.7C101.818 164.53 103.082 164.648 104.235 165.056C105.375 165.479 106.312 166.149 107.043 167.066C107.777 167.996 108.224 169.11 108.384 170.407C108.538 171.65 108.37 172.786 107.88 173.815C107.389 174.843 106.64 175.681 105.632 176.33C104.613 176.994 103.421 177.41 102.058 177.579Z" fill="#22262A"/>
<path d="M86.3199 165.093C87.555 165.203 88.632 165.586 89.5507 166.244C90.4549 166.913 91.129 167.763 91.5728 168.793C92.0022 169.835 92.1649 170.94 92.061 172.109C91.9393 173.477 91.4901 174.615 90.7132 175.523C89.9352 176.444 88.9865 177.103 87.867 177.499C86.7343 177.893 85.6035 178.04 84.4746 177.94C83.2129 177.828 82.1305 177.43 81.2275 176.748C80.3232 176.078 79.6619 175.236 79.2434 174.222C78.8117 173.206 78.6442 172.154 78.7411 171.065C78.8486 169.856 79.2659 168.776 79.9932 167.823C80.7204 166.871 81.6479 166.15 82.7756 165.661C83.8901 165.171 85.0715 164.982 86.3199 165.093ZM85.5673 165.428C84.6244 165.344 83.7549 165.487 82.9589 165.858C82.1629 166.229 81.508 166.82 80.9941 167.631C80.4803 168.442 80.1708 169.439 80.0657 170.621C79.9546 171.869 80.1017 173 80.5069 174.013C80.8976 175.038 81.5136 175.863 82.355 176.487C83.1831 177.109 84.1816 177.472 85.3503 177.576C86.8909 177.713 88.1353 177.342 89.0836 176.462C90.0319 175.583 90.5793 174.32 90.7258 172.673C90.8356 171.438 90.6975 170.281 90.3115 169.203C89.9111 168.136 89.2992 167.265 88.4758 166.59C87.6524 165.914 86.6829 165.527 85.5673 165.428Z" fill="#22262A"/>
<path d="M59.7943 172.17C59.7562 172.158 59.7494 172.113 59.7738 172.037C59.7982 171.961 59.8294 171.929 59.8675 171.941C60.4135 172.116 60.8435 172.107 61.1575 171.913C61.4588 171.716 61.7132 171.293 61.9206 170.646L65.1608 160.532C65.1689 160.507 65.2068 160.498 65.2743 160.506C65.3419 160.513 65.3843 160.534 65.4015 160.567L70.6178 173.915L70.8257 174.381L73.6204 165.658C73.8278 165.01 73.8664 164.518 73.7359 164.183C73.6014 163.859 73.2675 163.612 72.7342 163.442C72.6961 163.429 72.6893 163.385 72.7137 163.309C72.7381 163.233 72.7694 163.201 72.8075 163.213C73.1122 163.311 73.3451 163.392 73.5061 163.458L74.4142 163.77L75.3536 164.05C75.5227 164.09 75.7723 164.163 76.1025 164.269C76.1279 164.277 76.1284 164.319 76.104 164.395C76.0796 164.471 76.0547 164.505 76.0293 164.497C75.4833 164.322 75.068 164.329 74.7835 164.518C74.499 164.707 74.2509 165.132 74.0394 165.792L71.1165 174.915C71.4389 175.438 71.835 175.775 72.3048 175.926C72.3429 175.938 72.3498 175.982 72.3254 176.058C72.3009 176.135 72.2697 176.167 72.2316 176.154L71.552 175.916C71.4164 175.858 71.2216 175.789 70.9677 175.707C70.7518 175.638 70.572 175.588 70.4283 175.556C70.2846 175.524 70.1746 175.495 70.0984 175.471C70.0095 175.442 69.9478 175.395 69.9133 175.328C69.862 175.269 69.8207 175.158 69.7892 174.994C69.7228 174.721 69.6396 174.456 69.5396 174.2L65.0123 162.438L62.3396 170.78C62.1322 171.428 62.0873 171.917 62.205 172.249C62.3228 172.581 62.6483 172.832 63.1816 173.003C63.207 173.011 63.2075 173.053 63.1831 173.129C63.1587 173.206 63.1338 173.24 63.1084 173.232L62.3907 172.981C62.0179 172.833 61.7172 172.723 61.4887 172.65C61.2728 172.58 60.9577 172.494 60.5432 172.389L59.7943 172.17Z" fill="#22262A"/>
<path d="M48.5034 166.75C47.7392 166.314 47.1471 165.899 46.7269 165.505C46.3001 165.123 45.8939 164.638 45.5084 164.049C45.4654 163.963 45.448 163.9 45.4563 163.858C45.4463 163.822 45.4786 163.725 45.5529 163.568L46.4751 161.469C46.495 161.434 46.5429 161.431 46.619 161.459C46.6769 161.492 46.7017 161.529 46.6935 161.571C46.3994 162.677 46.4121 163.637 46.7315 164.448C47.0443 165.272 47.6813 165.958 48.6423 166.507C49.6612 167.089 50.6808 167.387 51.7012 167.401C52.71 167.409 53.6568 167.136 54.5414 166.582C55.4078 166.033 56.1419 165.231 56.7435 164.178C57.3055 163.193 57.5996 162.141 57.6257 161.019C57.6337 159.903 57.3894 158.865 56.893 157.906C56.3784 156.952 55.6695 156.217 54.7664 155.702C52.8444 154.604 51.0782 154.847 49.4678 156.43C49.4546 156.453 49.4191 156.448 49.3612 156.415C49.2801 156.369 49.2495 156.328 49.2693 156.294L50.4596 154.532C50.5505 154.4 50.6174 154.323 50.6604 154.301C50.7034 154.28 50.7729 154.266 50.8688 154.259C51.6494 154.29 52.3391 154.4 52.9378 154.588C53.5316 154.758 54.1932 155.052 54.9226 155.468C56.1268 156.156 57.068 157.008 57.7464 158.025C58.4066 159.047 58.755 160.144 58.7917 161.317C58.8219 162.501 58.5129 163.66 57.865 164.795C57.2435 165.883 56.4284 166.692 55.4197 167.222C54.4111 167.751 53.3089 167.974 52.1132 167.89C50.8993 167.811 49.696 167.431 48.5034 166.75Z" fill="#22262A"/>
<path d="M39.8878 148.439C39.862 148.469 39.8229 148.453 39.7704 148.392C39.7093 148.34 39.6916 148.299 39.7175 148.268C40.3514 147.704 40.9567 147.081 41.5335 146.399C41.6023 146.317 41.6743 146.274 41.7495 146.267C41.8059 146.263 41.8799 146.299 41.9715 146.376L48.2796 151.709C48.2999 151.726 48.2843 151.765 48.2326 151.826C48.181 151.888 48.145 151.909 48.1246 151.892C47.7275 151.557 47.4158 151.337 47.1895 151.233C46.953 151.12 46.7439 151.109 46.5623 151.2C46.3619 151.293 46.1326 151.492 45.8744 151.797L39.8962 158.869C39.638 159.174 39.4843 159.428 39.435 159.631C39.3756 159.825 39.4211 160.03 39.5715 160.244C39.7032 160.46 39.9676 160.736 40.3647 161.072C40.385 161.089 40.3694 161.128 40.3178 161.189C40.2661 161.25 40.2301 161.272 40.2097 161.255L34.1613 156.142C34.0697 156.065 34.0626 155.98 34.1401 155.888L35.6719 154.014C35.6977 153.984 35.7411 153.994 35.8022 154.046C35.8531 154.089 35.8657 154.126 35.8399 154.156C35.4009 154.676 35.1897 155.204 35.2064 155.742C35.2231 156.28 35.4555 156.738 35.9035 157.117L36.9574 158.008C37.3443 158.335 37.6509 158.551 37.8773 158.655C38.1036 158.759 38.3126 158.77 38.5044 158.687C38.686 158.596 38.906 158.398 39.1642 158.093L41.7853 154.992L39.7691 153.288C39.3007 152.892 38.9103 152.693 38.5979 152.691C38.2769 152.699 37.9529 152.896 37.6258 153.283C37.6086 153.303 37.5694 153.288 37.5083 153.236C37.4472 153.184 37.4253 153.148 37.4425 153.128L38.4778 151.934C38.7274 151.639 38.9074 151.416 39.0177 151.265L39.6093 150.534C39.6265 150.513 39.6657 150.529 39.7268 150.581C39.7879 150.632 39.8098 150.668 39.7926 150.689C39.4052 151.147 39.2308 151.55 39.2694 151.896C39.3079 152.243 39.5715 152.623 40.0603 153.036L42.0306 154.702L45.0132 151.174C45.2628 150.878 45.4174 150.634 45.4768 150.44C45.5174 150.247 45.4727 150.052 45.3426 149.855C45.2024 149.649 44.9337 149.378 44.5366 149.042L43.1314 147.854C42.7241 147.51 42.2272 147.396 41.6409 147.511C41.0443 147.618 40.46 147.927 39.8878 148.439Z" fill="#22262A"/>
<path d="M35.9932 142.809C36.318 142.532 36.5177 142.283 36.5921 142.062C36.6564 141.85 36.611 141.591 36.4558 141.285C36.2919 140.969 35.9679 140.527 35.4838 139.959C35.4579 139.928 35.4754 139.887 35.5363 139.835C35.5972 139.783 35.6406 139.773 35.6665 139.803C36.021 140.219 36.2925 140.548 36.4812 140.79L37.5941 142.128L38.4652 143.12C38.631 143.294 38.8522 143.544 39.1288 143.869C39.1461 143.889 39.1243 143.925 39.0634 143.977C39.0025 144.029 38.9634 144.044 38.9461 144.024C38.6089 143.628 38.3372 143.361 38.1308 143.221C37.9158 143.071 37.7113 143.027 37.5173 143.087C37.3045 143.145 37.0459 143.304 36.7414 143.564L29.6914 149.568C29.3869 149.827 29.1938 150.053 29.1122 150.245C29.022 150.427 29.0336 150.636 29.1471 150.872C29.2418 151.106 29.4577 151.422 29.7949 151.817C29.8121 151.838 29.7903 151.874 29.7294 151.926C29.6685 151.978 29.6294 151.993 29.6121 151.973L28.992 151.214C28.6492 150.77 28.3741 150.427 28.1666 150.183C27.9591 149.939 27.7061 149.673 27.4077 149.384C26.703 148.619 26.3203 148.2 26.2598 148.129C25.4991 147.236 25.0891 146.333 25.0298 145.42C24.9604 144.516 25.3469 143.705 26.1895 142.988C26.8696 142.408 27.5858 142.087 28.338 142.025C29.0801 141.971 29.7832 142.108 30.4474 142.435C31.103 142.752 31.6642 143.185 32.131 143.733C32.3904 144.038 32.5768 144.308 32.6903 144.544C32.7162 144.575 32.7038 144.612 32.653 144.655C32.6226 144.681 32.5878 144.702 32.5487 144.717C32.501 144.723 32.4735 144.711 32.4664 144.682C32.3687 144.485 32.2334 144.285 32.0605 144.082C31.4467 143.362 30.7098 142.938 29.8497 142.813C28.9809 142.677 28.1304 142.963 27.298 143.672C26.76 144.131 26.3889 144.63 26.1847 145.172C25.9703 145.722 25.9216 146.272 26.0384 146.82C26.1364 147.367 26.3756 147.864 26.756 148.311C27.1104 148.727 27.3814 149.004 27.569 149.142C27.7566 149.28 27.9611 149.325 28.1825 149.276C28.3851 149.226 28.6692 149.046 29.0346 148.735L35.9932 142.809Z" fill="#22262A"/>
<path d="M19.4892 138.568C19.9138 139.293 20.3964 139.721 20.937 139.852C21.4776 139.984 22.2245 139.848 23.1777 139.444C23.2008 139.43 23.2325 139.458 23.2729 139.527C23.3133 139.596 23.3221 139.637 23.299 139.651C22.9615 139.787 22.4364 140.025 21.724 140.365C21 140.712 20.4654 140.986 20.1203 141.188C20.0627 141.222 20.0138 141.204 19.9733 141.135C19.9329 141.066 19.9414 141.015 19.999 140.981C20.2521 140.833 20.2 140.454 19.8428 139.844C19.2978 138.835 18.6377 137.668 17.8627 136.345C17.4651 135.666 17.0324 134.954 16.5646 134.208L15.8599 133.045C15.6173 132.631 15.4099 132.343 15.2378 132.181C15.0657 132.019 14.8766 131.96 14.6703 132.003C14.6175 132.019 14.5743 131.998 14.5406 131.94C14.5069 131.883 14.5131 131.84 14.5591 131.813C14.9014 131.659 15.4164 131.404 16.1039 131.048C16.7799 130.698 17.3249 130.402 17.7391 130.159C17.7621 130.146 17.7938 130.174 17.8343 130.243C17.8747 130.312 17.8834 130.353 17.8604 130.366C17.2507 130.724 16.816 131.063 16.5565 131.385C16.297 131.707 16.1801 132.061 16.2058 132.448C16.2314 132.835 16.4026 133.299 16.7194 133.839C17.0698 134.438 17.3388 134.844 17.5264 135.059C17.7024 135.28 17.8922 135.393 18.0956 135.397C18.2924 135.39 18.5806 135.276 18.9602 135.053L26.9158 130.393C27.2724 130.184 27.5077 129.992 27.6216 129.817C27.7355 129.642 27.7504 129.417 27.6664 129.142C27.5824 128.867 27.3888 128.47 27.0855 127.953C27.072 127.93 27.0998 127.898 27.1688 127.857C27.2378 127.817 27.2791 127.808 27.2926 127.831C27.515 128.211 27.6844 128.513 27.801 128.739L28.5621 130.078L29.3173 131.327C29.4636 131.551 29.6547 131.864 29.8906 132.266C29.9041 132.289 29.8763 132.321 29.8073 132.361C29.7382 132.402 29.697 132.411 29.6835 132.388C29.3802 131.87 29.1291 131.507 28.93 131.299C28.731 131.091 28.5273 130.994 28.3191 131.008C28.0926 131.017 27.8068 131.123 27.4616 131.325L19.4716 136.005C19.0919 136.228 18.86 136.425 18.7759 136.598C18.6802 136.778 18.6859 136.999 18.7929 137.261C18.8932 137.511 19.1253 137.947 19.4892 138.568Z" fill="#22262A"/>
<path d="M16.5382 88.7783C16.9636 88.8111 17.2806 88.7755 17.4893 88.6712C17.6847 88.566 17.8351 88.3503 17.9405 88.0241C18.047 87.6846 18.129 87.1427 18.1866 86.3982C18.1896 86.3583 18.2311 86.3415 18.3108 86.3476C18.3906 86.3538 18.4289 86.3768 18.4258 86.4167C18.3837 86.9618 18.3442 87.3866 18.3072 87.6914L18.1532 89.4246L18.0714 90.7423C18.0662 90.9826 18.0472 91.3154 18.0143 91.7408C18.0122 91.7674 17.9713 91.7776 17.8916 91.7715C17.8118 91.7653 17.7729 91.7489 17.775 91.7223C17.8151 91.2039 17.8111 90.8224 17.7632 90.578C17.7162 90.3203 17.6028 90.1444 17.4228 90.0502C17.2306 89.9417 16.9351 89.8721 16.5363 89.8413L7.30383 89.1276C6.90502 89.0968 6.60896 89.1207 6.41566 89.1994C6.22338 89.2647 6.08424 89.4212 5.99825 89.6686C5.89999 89.9017 5.83082 90.2775 5.79075 90.796C5.78869 90.8225 5.74778 90.8328 5.66802 90.8266C5.58826 90.8204 5.54941 90.804 5.55146 90.7775L5.64693 89.8019C5.71668 89.2456 5.76388 88.808 5.78854 88.4889C5.81321 88.1699 5.82153 87.8028 5.8135 87.3876C5.85377 86.3476 5.8775 85.7811 5.8847 85.688C5.97513 84.5182 6.32112 83.5887 6.92268 82.8997C7.51094 82.2097 8.35676 81.9073 9.46014 81.9926C10.3508 82.0614 11.085 82.3388 11.6626 82.8248C12.2269 83.3097 12.629 83.9025 12.8691 84.6031C13.1102 85.2904 13.203 85.9929 13.1475 86.7108C13.1166 87.1096 13.0582 87.4327 12.9722 87.6802C12.9692 87.72 12.9344 87.7374 12.8679 87.7323C12.828 87.7292 12.7887 87.7195 12.7498 87.7031C12.712 87.6734 12.7007 87.6458 12.7161 87.6202C12.7857 87.4117 12.8308 87.1744 12.8514 86.9086C12.9243 85.9647 12.7002 85.145 12.1789 84.4494C11.6586 83.7405 10.8535 83.344 9.76338 83.2597C9.05882 83.2052 8.44316 83.2981 7.91643 83.5382C7.37639 83.7773 6.95443 84.1325 6.65053 84.6038C6.33437 85.0608 6.15369 85.5818 6.10847 86.1667C6.06634 86.7117 6.06313 87.0993 6.09883 87.3294C6.13454 87.5595 6.24798 87.7354 6.43917 87.8572C6.61809 87.9646 6.94683 88.0368 7.4254 88.0738L16.5382 88.7783Z" fill="#22262A"/>
<path d="M21.9104 67.4531C21.9207 67.4145 21.9645 67.4055 22.0418 67.4261C22.1191 67.4467 22.1526 67.4764 22.1423 67.515L21.5439 69.7565C21.458 70.0786 20.7566 70.5607 19.4398 71.2028C18.1135 71.8286 16.3398 72.5282 14.1185 73.3015C14.0884 73.7764 14.0251 74.1943 13.9289 74.555C13.9151 74.6065 13.8218 74.8783 13.6491 75.3704L18.0548 76.5464C18.4542 76.653 18.7544 76.6917 18.9553 76.6626C19.1598 76.6205 19.3251 76.4922 19.4514 76.2775C19.5777 76.0628 19.7097 75.6978 19.8472 75.1825C19.8575 75.1439 19.9013 75.1349 19.9786 75.1555C20.0559 75.1761 20.0894 75.2058 20.0791 75.2444C19.9759 75.6309 19.887 75.9383 19.8122 76.1668L19.4421 77.4756L19.121 78.7561C19.072 78.9914 18.9925 79.3152 18.8825 79.7274C18.8756 79.7532 18.8335 79.7558 18.7562 79.7351C18.6789 79.7145 18.6437 79.6913 18.6506 79.6655C18.7881 79.1503 18.8556 78.7681 18.8531 78.519C18.854 78.257 18.7764 78.0569 18.6201 77.9186C18.4509 77.7768 18.1731 77.6544 17.7866 77.5512L8.83987 75.1631C8.4534 75.0599 8.15796 75.0294 7.95354 75.0714C7.75255 75.1006 7.58719 75.2289 7.45744 75.4565C7.31825 75.6678 7.18161 76.0246 7.0475 76.527C7.03718 76.5656 6.99338 76.5746 6.91609 76.554C6.83879 76.5334 6.8053 76.5037 6.81562 76.4651L7.08252 75.5427C7.24583 75.0343 7.37219 74.6126 7.46159 74.2777C7.53724 73.9943 7.60129 73.7285 7.65374 73.4803C7.70963 73.2192 7.75521 72.9968 7.79047 72.813C7.87561 72.3389 7.96632 71.9215 8.0626 71.5608C8.3205 70.5946 8.75826 69.9111 9.37589 69.5101C9.98407 69.0928 10.6746 68.9874 11.4476 69.1937C12.1303 69.3759 12.7001 69.7488 13.1569 70.3124C13.6008 70.8724 13.8927 71.5369 14.0325 72.3056C15.8998 71.6172 17.3712 71.0164 18.4467 70.503C19.5221 69.9897 20.3304 69.4947 20.8716 69.0182C21.4128 68.5416 21.7591 68.0199 21.9104 67.4531ZM13.2047 75.2518C13.3396 74.9014 13.4621 74.5201 13.5721 74.1078C13.8575 73.0386 13.8414 72.2201 13.5237 71.6523C13.1966 71.0682 12.5822 70.6558 11.6805 70.4151C10.6885 70.1503 9.90178 70.2025 9.32023 70.5717C8.74212 70.928 8.331 71.5634 8.08686 72.4781C7.95619 72.9676 7.95524 73.3331 8.08402 73.5744C8.21279 73.8158 8.56703 74.0139 9.14673 74.1686L13.2047 75.2518Z" fill="#22262A"/>
<path d="M25.8735 59.7214C25.3028 60.8223 24.539 61.6729 23.5821 62.2732C22.6194 62.8555 21.5774 63.1564 20.456 63.1758C19.3289 63.1773 18.2444 62.908 17.2027 62.368C15.9835 61.736 15.1013 60.8883 14.5562 59.8248C13.9993 58.7552 13.7504 57.6275 13.8094 56.4416C13.8746 55.2439 14.1679 54.1419 14.6895 53.1357C15.2724 52.0112 16.0511 51.1608 17.0256 50.5846C17.9882 50.0023 19.0182 49.7102 20.1155 49.7083C21.219 49.6945 22.256 49.9393 23.2267 50.4424C24.3039 51.0008 25.1451 51.7972 25.7502 52.8318C26.3553 53.8663 26.6698 54.998 26.6937 56.2268C26.7236 57.4438 26.4502 58.6087 25.8735 59.7214ZM25.8497 58.8981C26.2853 58.0576 26.4827 57.1988 26.4418 56.3215C26.4009 55.4443 26.1029 54.614 25.5478 53.8307C24.9927 53.0473 24.1884 52.3826 23.1348 51.8365C22.0221 51.2597 20.9201 50.9664 19.829 50.9564C18.7321 50.9285 17.7354 51.1853 16.839 51.7269C15.9487 52.2566 15.2335 53.0423 14.6936 54.084C13.9818 55.4571 13.8526 56.7493 14.3061 57.9606C14.7596 59.1718 15.7202 60.1578 17.1881 60.9187C18.289 61.4894 19.4115 61.8009 20.5558 61.8534C21.6943 61.8878 22.7324 61.6525 23.67 61.1473C24.6077 60.6422 25.3342 59.8924 25.8497 58.8981Z" fill="#22262A"/>
<path d="M23.7136 39.2572C23.7297 39.2359 23.7696 39.2494 23.8335 39.2976C23.8973 39.3458 23.9212 39.3806 23.9051 39.4019C23.6318 39.7635 23.4627 40.0536 23.3979 40.272C23.3331 40.4904 23.3564 40.6919 23.4677 40.8763C23.5764 41.042 23.7904 41.2455 24.1095 41.4866L33.3002 48.4321C34.3214 49.2039 34.9583 50.0529 35.211 50.9791C35.4716 51.8947 35.2643 52.7993 34.5891 53.6929C34.3238 54.0439 34.0603 54.271 33.7986 54.374C33.5395 54.4957 33.3195 54.4883 33.1387 54.3516C33.0004 54.2471 32.9208 54.1201 32.9001 53.9707C32.8712 53.8319 32.9131 53.6881 33.0256 53.5392C33.1462 53.3796 33.2706 53.2814 33.3987 53.2445C33.5268 53.2077 33.6949 53.1843 33.903 53.1744C34.0949 53.1857 34.255 53.173 34.3831 53.1361C34.5112 53.0993 34.6316 53.0064 34.7441 52.8574C35.0576 52.4426 35.0608 51.9519 34.7535 51.3855C34.4569 50.827 33.8033 50.166 32.7927 49.4023L23.4264 42.3241C23.1073 42.083 22.8411 41.9487 22.6279 41.9212C22.4227 41.8831 22.2091 41.9557 21.9871 42.1389C21.7545 42.314 21.4573 42.641 21.0955 43.1196C21.0794 43.1409 21.0395 43.1274 20.9757 43.0792C20.9118 43.031 20.888 42.9962 20.904 42.9749L21.6073 42.0775C21.9984 41.6043 22.2944 41.2347 22.4954 40.9687C22.6963 40.7028 22.9389 40.3597 23.2231 39.9394L23.7136 39.2572Z" fill="#22262A"/>
<path d="M39.7638 35.7957C39.7355 35.7674 39.7544 35.7297 39.8204 35.6825C39.877 35.626 39.9194 35.6118 39.9477 35.6401C40.4568 36.3189 41.0272 36.9742 41.6589 37.6059C41.7343 37.6813 41.772 37.7567 41.772 37.8321C41.772 37.8887 41.7296 37.9594 41.6447 38.0443L35.804 43.885C35.7852 43.9038 35.7475 43.885 35.6909 43.8284C35.6343 43.7718 35.6155 43.7341 35.6343 43.7153C36.002 43.3476 36.2472 43.0553 36.3697 42.8384C36.5017 42.6122 36.53 42.4048 36.4546 42.2162C36.3791 42.0088 36.2 41.7636 35.9172 41.4808L29.3694 34.933C29.0865 34.6502 28.8461 34.4757 28.6481 34.4097C28.4596 34.3343 28.2521 34.3626 28.0259 34.4946C27.7996 34.6077 27.5026 34.8481 27.1349 35.2158C27.116 35.2347 27.0783 35.2158 27.0218 35.1593C26.9652 35.1027 26.9463 35.065 26.9652 35.0461L32.5655 29.4458C32.6503 29.361 32.7352 29.361 32.82 29.4458L34.5595 31.1288C34.5878 31.157 34.5737 31.1995 34.5171 31.256C34.47 31.3032 34.4322 31.3126 34.404 31.2843C33.9231 30.8035 33.414 30.5489 32.8766 30.5206C32.3392 30.4924 31.8631 30.6856 31.4483 31.1005L30.4724 32.0763C30.1142 32.4345 29.8738 32.7221 29.7512 32.939C29.6286 33.1558 29.6004 33.3632 29.6663 33.5612C29.7418 33.7498 29.9209 33.9855 30.2037 34.2683L33.0746 37.1392L34.9414 35.2724C35.3751 34.8387 35.606 34.4663 35.6343 34.1552C35.6532 33.8346 35.4835 33.4952 35.1252 33.1369C35.1064 33.1181 35.1252 33.0804 35.1818 33.0238C35.2383 32.9672 35.2761 32.9484 35.2949 32.9672L36.398 34.0986C36.6714 34.372 36.8788 34.57 37.0203 34.6926L37.6991 35.3431C37.7179 35.362 37.6991 35.3997 37.6425 35.4563C37.5859 35.5128 37.5482 35.5317 37.5294 35.5128C37.1051 35.0886 36.7186 34.8811 36.3697 34.8906C36.0209 34.9 35.6202 35.131 35.1676 35.5835L33.3433 37.4079L36.6101 40.6747C36.8836 40.9481 37.1145 41.1225 37.3031 41.198C37.4917 41.2545 37.6897 41.2262 37.8971 41.1131C38.1139 40.9905 38.4062 40.7454 38.7739 40.3777L40.075 39.0766C40.4521 38.6995 40.6076 38.214 40.5416 37.62C40.4851 37.0166 40.2258 36.4085 39.7638 35.7957Z" fill="#22262A"/>
<path d="M42.9784 20.7828C43.703 20.2835 44.3337 19.9299 44.8705 19.722C45.3998 19.503 46.0132 19.3476 46.7108 19.2555C46.8069 19.2541 46.8718 19.266 46.9055 19.2914C46.9426 19.2982 47.0158 19.3692 47.1251 19.5044L48.6163 21.2457C48.639 21.2787 48.6212 21.3233 48.5629 21.3797C48.508 21.4175 48.4637 21.4237 48.43 21.3984C47.5606 20.6535 46.6908 20.2489 45.8207 20.1845C44.943 20.1092 44.0485 20.3855 43.1372 21.0133C42.171 21.679 41.4601 22.4684 41.0043 23.3815C40.5596 24.2871 40.3951 25.2586 40.5108 26.2961C40.63 27.315 41.0337 28.324 41.7221 29.3232C42.3652 30.2564 43.1862 30.978 44.1851 31.4879C45.1875 31.9793 46.2285 32.2093 47.3079 32.178C48.3908 32.1281 49.3604 31.8082 50.2168 31.2181C52.0395 29.9623 52.5867 28.2656 51.8587 26.128C51.8436 26.106 51.8635 26.0761 51.9184 26.0383C51.9952 25.9853 52.045 25.9753 52.0677 26.0083L53.1388 27.8448C53.2186 27.9841 53.2588 28.0778 53.2596 28.1259C53.2603 28.1739 53.2429 28.2426 53.2073 28.3319C52.8406 29.0218 52.4425 29.5956 52.0131 30.0533C51.6022 30.5145 51.051 30.9834 50.3592 31.46C49.2174 32.2468 48.0412 32.7252 46.8307 32.8954C45.6236 33.047 44.4839 32.885 43.4115 32.4096C42.3315 31.9231 41.4208 31.1419 40.6794 30.0659C39.9683 29.0338 39.593 27.9485 39.5534 26.81C39.5138 25.6715 39.7911 24.5818 40.3854 23.5408C40.9832 22.4813 41.8475 21.5619 42.9784 20.7828Z" fill="#22262A"/>
<path d="M54.1563 14.8207C53.3863 15.1565 52.9041 15.5851 52.7096 16.1063C52.5152 16.6276 52.5621 17.3853 52.8504 18.3797C52.861 18.4041 52.8297 18.4323 52.7564 18.4643C52.683 18.4963 52.641 18.5001 52.6304 18.4756C52.5353 18.1244 52.3611 17.5749 52.1076 16.8271C51.8489 16.0672 51.6395 15.5039 51.4796 15.1373C51.4529 15.0762 51.4763 15.0297 51.5496 14.9977C51.6229 14.9657 51.6729 14.9802 51.6996 15.0414C51.8169 15.3102 52.1994 15.3034 52.8471 15.0208C53.9141 14.599 55.1503 14.0815 56.5557 13.4685C57.2768 13.1539 58.0353 12.8085 58.8312 12.4322L60.0698 11.8701C60.5097 11.6782 60.8203 11.5063 61.0014 11.3546C61.1825 11.2029 61.2636 11.022 61.2447 10.812C61.2356 10.7578 61.2616 10.7174 61.3227 10.6907C61.3838 10.6641 61.4251 10.6752 61.4464 10.7241C61.559 11.0823 61.7516 11.6238 62.0241 12.3486C62.2913 13.0612 62.5209 13.6375 62.7128 14.0774C62.7235 14.1019 62.6921 14.1301 62.6188 14.1621C62.5455 14.194 62.5035 14.1978 62.4928 14.1734C62.2103 13.5257 61.9245 13.0539 61.6355 12.7581C61.3464 12.4624 61.0084 12.3044 60.6213 12.2841C60.2343 12.2638 59.7535 12.379 59.1791 12.6295C58.5436 12.9068 58.1082 13.1258 57.8729 13.2866C57.6323 13.4353 57.4977 13.6103 57.4692 13.8119C57.453 14.008 57.5328 14.3078 57.7088 14.7111L61.3953 23.162C61.5606 23.5409 61.7233 23.7972 61.8835 23.931C62.0436 24.0647 62.2654 24.1062 62.5487 24.0553C62.832 24.0045 63.2486 23.8591 63.7986 23.6192C63.823 23.6086 63.8512 23.6399 63.8832 23.7132C63.9152 23.7865 63.919 23.8285 63.8945 23.8392C63.4912 24.0151 63.1708 24.1476 62.9333 24.2367L61.5137 24.8341L60.1835 25.4362C59.9444 25.5551 59.611 25.7078 59.1833 25.8944C59.1588 25.905 59.1306 25.8737 59.0986 25.8004C59.0666 25.727 59.0629 25.6851 59.0873 25.6744C59.6373 25.4345 60.0272 25.228 60.2572 25.0549C60.4872 24.8819 60.6077 24.6911 60.6186 24.4827C60.6364 24.2568 60.5653 23.9605 60.4054 23.5938L56.7029 15.1063C56.5269 14.703 56.3581 14.4493 56.1964 14.3453C56.0293 14.2291 55.8094 14.2086 55.5368 14.2839C55.2764 14.3539 54.8162 14.5328 54.1563 14.8207Z" fill="#22262A"/>
<path d="M81.1656 6.33045C82.039 6.2222 82.7617 6.1998 83.3338 6.26324C83.9043 6.31345 84.5202 6.45879 85.1815 6.69928C85.2675 6.74237 85.3195 6.78294 85.3377 6.821C85.3674 6.84418 85.3996 6.94096 85.4341 7.11134L85.9527 9.3445C85.9577 9.3842 85.9212 9.41558 85.8435 9.43866C85.7773 9.44686 85.7352 9.43193 85.717 9.39387C85.2898 8.33169 84.7051 7.57116 83.9631 7.11229C83.2193 6.64019 82.2983 6.4722 81.2001 6.60832C80.0357 6.75265 79.0405 7.12454 78.2146 7.72401C77.402 8.32184 76.8075 9.10761 76.4311 10.0813C76.0662 11.0401 75.9584 12.1216 76.1077 13.3257C76.2471 14.4504 76.6421 15.4696 77.2928 16.3832C77.955 17.2819 78.7721 17.9666 79.744 18.4372C80.7276 18.8931 81.7354 19.057 82.7675 18.9291C84.964 18.6568 86.2329 17.4046 86.5743 15.1723C86.571 15.1458 86.6025 15.1285 86.6686 15.1203C86.7612 15.1088 86.81 15.1229 86.8149 15.1626L86.9169 17.2862C86.9234 17.4466 86.9158 17.5483 86.8943 17.5913C86.8727 17.6343 86.8255 17.6872 86.7527 17.7499C86.1089 18.1925 85.4909 18.5176 84.8986 18.7254C84.3212 18.9448 83.6157 19.1061 82.7821 19.2094C81.4059 19.38 80.1417 19.2613 78.9895 18.8532C77.8488 18.4303 76.9126 17.7604 76.1809 16.8434C75.4476 15.9132 75.0006 14.7998 74.8399 13.503C74.6857 12.2592 74.8539 11.1232 75.3445 10.0951C75.8351 9.06691 76.5843 8.22838 77.5921 7.57949C78.6116 6.91572 79.8027 6.49937 81.1656 6.33045Z" fill="#22262A"/>
<path d="M96.9043 18.8167C95.6692 18.7069 94.5923 18.3233 93.6736 17.666C92.7693 16.9966 92.0953 16.1469 91.6514 15.1169C91.2221 14.0747 91.0593 12.9693 91.1633 11.8006C91.2849 10.4326 91.7342 9.29463 92.511 8.38655C93.289 7.46518 94.2378 6.80663 95.3572 6.41091C96.4899 6.01636 97.6208 5.86929 98.7496 5.96968C100.011 6.08189 101.094 6.47933 101.997 7.16202C102.901 7.83142 103.562 8.67331 103.981 9.6877C104.413 10.7033 104.58 11.7556 104.483 12.8446C104.376 14.0532 103.958 15.1338 103.231 16.0864C102.504 17.0391 101.576 17.7598 100.449 18.2485C99.3342 18.7383 98.1527 18.9278 96.9043 18.8167ZM97.6569 18.4821C98.5999 18.5659 99.4694 18.4224 100.265 18.0514C101.061 17.6805 101.716 17.0895 102.23 16.2785C102.744 15.4675 103.053 14.471 103.159 13.289C103.27 12.0406 103.123 10.9098 102.717 9.8966C102.327 8.87129 101.711 8.04681 100.869 7.42316C100.041 6.80069 99.0427 6.43748 97.874 6.33354C96.3334 6.19653 95.0889 6.56776 94.1406 7.44721C93.1923 8.32666 92.6449 9.58981 92.4985 11.2366C92.3886 12.4718 92.5267 13.6285 92.9127 14.707C93.3132 15.7733 93.9251 16.6443 94.7485 17.3199C95.5719 17.9955 96.5413 18.3829 97.6569 18.4821Z" fill="#22262A"/>
<path d="M123.43 11.7394C123.468 11.7516 123.475 11.7958 123.451 11.872C123.426 11.9482 123.395 11.9801 123.357 11.9679C122.811 11.793 122.381 11.8023 122.067 11.9957C121.766 12.1932 121.511 12.6157 121.304 13.2633L118.064 23.3769C118.055 23.4023 118.018 23.4112 117.95 23.4036C117.882 23.3959 117.84 23.3753 117.823 23.3418L112.607 9.99391L112.399 9.52829L109.604 18.2515C109.397 18.8991 109.358 19.3908 109.488 19.7266C109.623 20.0497 109.957 20.2967 110.49 20.4676C110.528 20.4798 110.535 20.524 110.511 20.6002C110.486 20.6763 110.455 20.7083 110.417 20.6961C110.112 20.5985 109.879 20.5169 109.718 20.4513L108.81 20.1394L107.871 19.8594C107.702 19.8192 107.452 19.7463 107.122 19.6405C107.096 19.6323 107.096 19.5902 107.12 19.514C107.145 19.4378 107.17 19.4038 107.195 19.4119C107.741 19.5868 108.156 19.5799 108.441 19.391C108.725 19.2022 108.973 18.7776 109.185 18.1173L112.108 8.99408C111.785 8.47077 111.389 8.13385 110.92 7.98334C110.881 7.97113 110.875 7.92694 110.899 7.85075C110.923 7.77457 110.955 7.74258 110.993 7.75478L111.672 7.9935C111.808 8.05095 112.003 8.12035 112.257 8.20171C112.473 8.27086 112.652 8.32147 112.796 8.35352C112.94 8.38557 113.05 8.4138 113.126 8.43821C113.215 8.46668 113.277 8.51445 113.311 8.58151C113.362 8.63995 113.404 8.7512 113.435 8.91528C113.502 9.18859 113.585 9.45326 113.685 9.70931L118.212 21.4714L120.885 13.1291C121.092 12.4815 121.137 11.9918 121.019 11.6601C120.902 11.3283 120.576 11.077 120.043 10.9062C120.017 10.8981 120.017 10.8559 120.041 10.7797C120.066 10.7035 120.091 10.6695 120.116 10.6776L120.834 10.9286C121.206 11.076 121.507 11.1863 121.736 11.2595C121.952 11.3287 122.267 11.4157 122.681 11.5205L123.43 11.7394Z" fill="#22262A"/>
<path d="M134.721 17.1597C135.485 17.596 136.077 18.011 136.497 18.4044C136.924 18.7863 137.33 19.2716 137.716 19.8603C137.759 19.9462 137.776 20.0099 137.768 20.0513C137.778 20.0876 137.746 20.1844 137.671 20.3415L136.749 22.4405C136.729 22.4752 136.681 22.4785 136.605 22.4504C136.547 22.4174 136.523 22.3802 136.531 22.3388C136.825 21.2323 136.812 20.2731 136.493 19.4612C136.18 18.6377 135.543 17.9516 134.582 17.4028C133.563 16.821 132.544 16.5228 131.523 16.5082C130.514 16.5002 129.568 16.7734 128.683 17.3277C127.817 17.877 127.083 18.6785 126.481 19.7321C125.919 20.7163 125.625 21.769 125.599 22.8903C125.591 24.0066 125.835 25.0443 126.331 26.0033C126.846 26.9574 127.555 27.6923 128.458 28.2081C130.38 29.3056 132.146 29.0628 133.757 27.4796C133.77 27.4565 133.805 27.4614 133.863 27.4945C133.944 27.5408 133.975 27.5813 133.955 27.616L132.765 29.3777C132.674 29.51 132.607 29.5869 132.564 29.6084C132.521 29.6299 132.451 29.644 132.356 29.6507C131.575 29.6195 130.885 29.5097 130.287 29.3213C129.693 29.1512 129.031 28.8578 128.302 28.4413C127.098 27.7537 126.156 26.9014 125.478 25.8845C124.818 24.8627 124.469 23.7655 124.433 22.5929C124.403 21.4088 124.711 20.2494 125.359 19.1147C125.981 18.0264 126.796 17.2174 127.805 16.6879C128.813 16.1584 129.915 15.9356 131.111 16.0196C132.325 16.0986 133.528 16.4787 134.721 17.1597Z" fill="#22262A"/>
<path d="M143.337 35.4711C143.362 35.4406 143.401 35.4562 143.454 35.5181C143.515 35.5697 143.533 35.6108 143.507 35.6414C142.873 36.2054 142.268 36.8285 141.691 37.5107C141.622 37.5922 141.55 37.6361 141.475 37.6424C141.418 37.6471 141.344 37.6107 141.253 37.5333L134.945 32.2007C134.924 32.1835 134.94 32.1443 134.992 32.0832C135.043 32.0221 135.079 32.0002 135.1 32.0174C135.497 32.3531 135.809 32.573 136.035 32.677C136.271 32.7897 136.48 32.8005 136.662 32.7096C136.862 32.6171 137.092 32.4182 137.35 32.1127L143.328 25.0409C143.586 24.7355 143.74 24.4813 143.789 24.2785C143.849 24.0843 143.803 23.88 143.653 23.6655C143.521 23.4495 143.257 23.1736 142.86 22.8379C142.839 22.8207 142.855 22.7815 142.907 22.7204C142.958 22.6593 142.994 22.6374 143.015 22.6546L149.063 27.7677C149.155 27.8451 149.162 27.9297 149.084 28.0213L147.553 29.8953C147.527 29.9258 147.483 29.9153 147.422 29.8636C147.371 29.8206 147.359 29.7838 147.385 29.7533C147.824 29.234 148.035 28.7054 148.018 28.1675C148.001 27.6296 147.769 27.1713 147.321 26.7925L146.267 25.9016C145.88 25.5745 145.573 25.359 145.347 25.2549C145.121 25.1509 144.912 25.14 144.72 25.2223C144.538 25.3132 144.318 25.5114 144.06 25.8169L141.439 28.9175L143.455 30.6218C143.924 31.0178 144.314 31.2169 144.626 31.2191C144.947 31.2111 145.271 31.0136 145.599 30.6267C145.616 30.6063 145.655 30.622 145.716 30.6736C145.777 30.7253 145.799 30.7613 145.782 30.7816L144.747 31.9754C144.497 32.2706 144.317 32.4939 144.207 32.645L143.615 33.3758C143.598 33.3962 143.559 33.3805 143.498 33.3289C143.436 33.2772 143.415 33.2412 143.432 33.2209C143.819 32.7627 143.994 32.3601 143.955 32.0133C143.916 31.6665 143.653 31.2865 143.164 30.8733L141.194 29.2077L138.211 32.7359C137.962 33.0312 137.807 33.2759 137.748 33.4702C137.707 33.6628 137.752 33.8577 137.882 34.055C138.022 34.2608 138.291 34.5316 138.688 34.8673L140.093 36.0552C140.5 36.3995 140.997 36.514 141.584 36.3986C142.18 36.2918 142.764 35.9827 143.337 35.4711Z" fill="#22262A"/>
<path d="M147.231 41.1011C146.906 41.3778 146.707 41.6266 146.632 41.8476C146.568 42.06 146.613 42.319 146.769 42.6247C146.932 42.9405 147.256 43.3826 147.741 43.9511C147.766 43.9815 147.749 44.0227 147.688 44.0746C147.627 44.1264 147.584 44.1371 147.558 44.1067C147.203 43.6905 146.932 43.3613 146.743 43.1192L145.63 41.7815L144.759 40.7895C144.593 40.6154 144.372 40.366 144.096 40.0412C144.078 40.0209 144.1 39.9848 144.161 39.9329C144.222 39.881 144.261 39.8652 144.278 39.8856C144.615 40.2814 144.887 40.5491 145.094 40.6886C145.309 40.8383 145.513 40.883 145.707 40.8229C145.92 40.7643 146.178 40.6053 146.483 40.346L153.533 34.3422C153.837 34.0828 154.031 33.8571 154.112 33.665C154.202 33.4831 154.191 33.2741 154.077 33.038C153.983 32.8034 153.767 32.4881 153.43 32.0922C153.412 32.0719 153.434 32.0359 153.495 31.984C153.556 31.9321 153.595 31.9163 153.612 31.9366L154.232 32.6957C154.575 33.1394 154.85 33.483 155.058 33.7266C155.265 33.9702 155.518 34.2364 155.817 34.5252C156.521 35.291 156.904 35.7095 156.965 35.7805C157.725 36.6738 158.135 37.5769 158.195 38.4896C158.264 39.3937 157.877 40.2045 157.035 40.922C156.355 41.5012 155.639 41.8222 154.886 41.8849C154.144 41.9389 153.441 41.8021 152.777 41.4746C152.121 41.1573 151.56 40.7245 151.093 40.1763C150.834 39.8718 150.648 39.6015 150.534 39.3654C150.508 39.3349 150.521 39.2981 150.571 39.2549C150.602 39.2289 150.637 39.2081 150.676 39.1923C150.723 39.1867 150.751 39.1983 150.758 39.2273C150.856 39.4243 150.991 39.6243 151.164 39.8273C151.778 40.548 152.515 40.9712 153.375 41.0969C154.243 41.2327 155.094 40.9462 155.926 40.2373C156.464 39.7792 156.836 39.2792 157.04 38.7376C157.254 38.1872 157.303 37.6378 157.186 37.0893C157.088 36.5424 156.849 36.0455 156.468 35.5989C156.114 35.1827 155.843 34.9056 155.655 34.7676C155.468 34.6296 155.263 34.5849 155.042 34.6333C154.839 34.6833 154.555 34.8639 154.19 35.1751L147.231 41.1011Z" fill="#22262A"/>
<path d="M163.735 45.3413C163.311 44.6165 162.828 44.1884 162.287 44.0569C161.747 43.9255 161 44.0617 160.047 44.4656C160.024 44.479 159.992 44.4513 159.951 44.3822C159.911 44.3132 159.902 44.272 159.925 44.2585C160.263 44.1225 160.788 43.8845 161.5 43.5444C162.224 43.1976 162.759 42.9231 163.104 42.7209C163.162 42.6872 163.211 42.7049 163.251 42.7739C163.291 42.8429 163.283 42.8943 163.225 42.928C162.972 43.0762 163.024 43.4552 163.382 44.065C163.927 45.0746 164.587 46.241 165.362 47.564C165.759 48.2428 166.192 48.9551 166.66 49.7009L167.364 50.8643C167.607 51.2785 167.814 51.5665 167.987 51.7284C168.159 51.8903 168.348 51.9494 168.554 51.9059C168.607 51.8904 168.65 51.9115 168.684 51.969C168.717 52.0265 168.711 52.0687 168.665 52.0957C168.323 52.2499 167.808 52.5052 167.12 52.8615C166.445 53.2112 165.899 53.5073 165.485 53.7499C165.462 53.7634 165.431 53.7356 165.39 53.6666C165.35 53.5975 165.341 53.5563 165.364 53.5428C165.974 53.1856 166.408 52.846 166.668 52.524C166.927 52.202 167.044 51.8477 167.019 51.4609C166.993 51.0742 166.822 50.6105 166.505 50.0698C166.155 49.4715 165.886 49.0651 165.698 48.8504C165.522 48.629 165.332 48.5161 165.129 48.5117C164.932 48.5188 164.644 48.6335 164.264 48.8559L156.309 53.5162C155.952 53.7251 155.717 53.917 155.603 54.0919C155.489 54.2668 155.474 54.4919 155.558 54.7671C155.642 55.0424 155.836 55.4389 156.139 55.9567C156.152 55.9797 156.125 56.0114 156.056 56.0518C155.987 56.0923 155.945 56.101 155.932 56.078C155.709 55.6983 155.54 55.3958 155.423 55.1705L154.662 53.8316L153.907 52.5819C153.761 52.3586 153.57 52.0456 153.334 51.6429C153.32 51.6199 153.348 51.5882 153.417 51.5477C153.486 51.5073 153.527 51.4986 153.541 51.5216C153.844 52.0393 154.095 52.4021 154.294 52.61C154.493 52.8179 154.697 52.915 154.905 52.9011C155.132 52.8921 155.418 52.7865 155.763 52.5843L163.753 47.9038C164.132 47.6814 164.364 47.4838 164.448 47.3109C164.544 47.1312 164.538 46.9105 164.431 46.6487C164.331 46.3984 164.099 45.9626 163.735 45.3413Z" fill="#22262A"/>
</svg>
