<svg width="296" height="84" viewBox="0 0 296 84" fill="none" xmlns="http://www.w3.org/2000/svg">
<path d="M9.312 18.456C7.664 18.456 6.264 18.152 5.112 17.544C3.976 16.92 3.112 16.04 2.52 14.904C1.928 13.768 1.632 12.424 1.632 10.872V0.48H5.568V11.016C5.568 12.168 5.888 13.088 6.528 13.776C7.184 14.448 8.112 14.784 9.312 14.784C10.512 14.784 11.432 14.448 12.072 13.776C12.728 13.104 13.056 12.184 13.056 11.016V0.48H16.992V10.872C16.992 12.424 16.696 13.768 16.104 14.904C15.512 16.04 14.648 16.92 13.512 17.544C12.376 18.152 10.976 18.456 9.312 18.456ZM20.3848 22.8V4.848H23.4328V8.184C23.8168 6.968 24.4568 6.048 25.3528 5.424C26.2648 4.784 27.3288 4.464 28.5448 4.464C29.7608 4.464 30.8168 4.76 31.7128 5.352C32.6248 5.928 33.3288 6.72 33.8248 7.728C34.3368 8.736 34.5928 9.872 34.5928 11.136V11.688C34.5928 12.952 34.3528 14.096 33.8728 15.12C33.3928 16.144 32.7048 16.952 31.8088 17.544C30.9128 18.136 29.8248 18.432 28.5448 18.432C27.6488 18.432 26.8248 18.264 26.0728 17.928C25.3208 17.592 24.7048 17.08 24.2248 16.392V22.8H20.3848ZM27.4648 15.216C28.4408 15.216 29.2248 14.864 29.8168 14.16C30.4248 13.456 30.7288 12.536 30.7288 11.4C30.7288 10.28 30.4248 9.376 29.8168 8.688C29.2248 8 28.4408 7.656 27.4648 7.656C26.8728 7.656 26.3208 7.792 25.8088 8.064C25.3128 8.336 24.9048 8.728 24.5848 9.24C24.2808 9.752 24.1288 10.36 24.1288 11.064V11.952C24.1288 12.64 24.2888 13.232 24.6088 13.728C24.9448 14.208 25.3688 14.576 25.8808 14.832C26.3928 15.088 26.9208 15.216 27.4648 15.216ZM42.4438 23.232C41.7878 23.232 41.1238 23.208 40.4518 23.16C39.7798 23.112 39.1718 23.048 38.6278 22.968V19.728C39.1878 19.808 39.8038 19.872 40.4758 19.92C41.1478 19.984 41.7718 20.016 42.3478 20.016C43.8998 20.016 45.0198 19.744 45.7078 19.2C46.4118 18.672 46.7638 17.832 46.7638 16.68V15.528C46.3478 16.36 45.7558 17 44.9878 17.448C44.2358 17.88 43.3478 18.096 42.3238 18.096C41.1238 18.096 40.0838 17.816 39.2038 17.256C38.3238 16.68 37.6438 15.896 37.1638 14.904C36.6838 13.912 36.4438 12.8 36.4438 11.568V11.016C36.4438 9.768 36.6998 8.656 37.2118 7.68C37.7238 6.688 38.4358 5.904 39.3478 5.328C40.2758 4.752 41.3478 4.464 42.5638 4.464C43.6998 4.464 44.6758 4.736 45.4918 5.28C46.3078 5.824 46.9238 6.608 47.3398 7.632V4.848H50.3878V16.44C50.3878 18.872 49.7318 20.608 48.4198 21.648C47.1238 22.704 45.1318 23.232 42.4438 23.232ZM43.5238 14.856C44.4038 14.856 45.1478 14.568 45.7558 13.992C46.3798 13.4 46.6918 12.576 46.6918 11.52V10.824C46.6918 10.136 46.5398 9.56 46.2358 9.096C45.9478 8.616 45.5638 8.256 45.0838 8.016C44.6038 7.76 44.0918 7.632 43.5478 7.632C42.5718 7.632 41.7798 7.968 41.1718 8.64C40.5798 9.296 40.2838 10.176 40.2838 11.28C40.2838 12.4 40.5878 13.28 41.1958 13.92C41.8038 14.544 42.5798 14.856 43.5238 14.856ZM53.7129 18V4.848H56.7609V9.312C56.9049 7.824 57.3609 6.68 58.1289 5.88C58.9129 5.08 59.9769 4.68 61.3209 4.68H61.8249V7.992H60.8649C59.7929 7.992 58.9689 8.28 58.3929 8.856C57.8329 9.432 57.5529 10.248 57.5529 11.304V18H53.7129ZM67.4882 18.336C66.0642 18.336 64.9122 17.968 64.0322 17.232C63.1682 16.496 62.7362 15.456 62.7362 14.112C62.7362 13.152 62.9842 12.368 63.4802 11.76C63.9762 11.136 64.6722 10.68 65.5682 10.392C66.4642 10.088 67.4962 9.936 68.6642 9.936H71.0402V9.888C71.0402 8.544 70.3682 7.872 69.0242 7.872C68.6722 7.872 68.2082 7.888 67.6322 7.92C67.0562 7.936 66.4562 7.96 65.8322 7.992C65.2242 8.008 64.6802 8.032 64.2002 8.064V4.824C64.7602 4.776 65.4482 4.736 66.2642 4.704C67.0802 4.656 67.8322 4.632 68.5202 4.632C70.5362 4.632 72.0722 5.064 73.1282 5.928C74.2002 6.776 74.7362 8.112 74.7362 9.936V18H71.6882V15.528C71.4002 16.44 70.9042 17.136 70.2002 17.616C69.4962 18.096 68.5922 18.336 67.4882 18.336ZM68.6402 15.672C69.2642 15.672 69.8082 15.496 70.2722 15.144C70.7362 14.792 70.9922 14.12 71.0402 13.128V12.072H68.6402C67.9682 12.072 67.4482 12.24 67.0802 12.576C66.7282 12.912 66.5522 13.352 66.5522 13.896C66.5522 14.424 66.7282 14.856 67.0802 15.192C67.4482 15.512 67.9682 15.672 68.6402 15.672ZM83.4182 18.432C82.1862 18.432 81.0982 18.144 80.1542 17.568C79.2262 16.976 78.4982 16.176 77.9702 15.168C77.4422 14.16 77.1782 13.024 77.1782 11.76V11.208C77.1782 9.944 77.4262 8.8 77.9222 7.776C78.4182 6.752 79.1222 5.944 80.0342 5.352C80.9622 4.76 82.0422 4.464 83.2742 4.464C85.1942 4.464 86.6102 5.192 87.5222 6.648V0.48H91.3862V18H88.3382V15.24C87.9062 16.28 87.2662 17.072 86.4182 17.616C85.5702 18.16 84.5702 18.432 83.4182 18.432ZM84.3782 15.216C85.2582 15.216 86.0182 14.92 86.6582 14.328C87.2982 13.736 87.6182 12.896 87.6182 11.808V10.92C87.6182 10.232 87.4662 9.648 87.1622 9.168C86.8582 8.672 86.4582 8.296 85.9622 8.04C85.4662 7.784 84.9302 7.656 84.3542 7.656C83.3782 7.656 82.5782 8.008 81.9542 8.712C81.3302 9.416 81.0182 10.336 81.0182 11.472C81.0182 12.624 81.3302 13.536 81.9542 14.208C82.5942 14.88 83.4022 15.216 84.3782 15.216ZM100.893 18.456C99.7732 18.456 98.7812 18.264 97.9172 17.88C97.0692 17.496 96.3572 16.984 95.7812 16.344C95.2052 15.688 94.7732 14.96 94.4852 14.16C94.1972 13.344 94.0532 12.512 94.0532 11.664V11.184C94.0532 10.32 94.1972 9.48 94.4852 8.664C94.7732 7.848 95.2052 7.12 95.7812 6.48C96.3572 5.84 97.0532 5.336 97.8692 4.968C98.7012 4.584 99.6612 4.392 100.749 4.392C102.157 4.392 103.341 4.712 104.301 5.352C105.277 5.976 106.021 6.8 106.533 7.824C107.045 8.848 107.301 9.952 107.301 11.136V12.432H97.6772C97.8052 13.328 98.1252 14.04 98.6372 14.568C99.1652 15.08 99.9172 15.336 100.893 15.336C101.581 15.336 102.149 15.208 102.597 14.952C103.061 14.68 103.373 14.336 103.533 13.92H107.061C106.773 15.264 106.077 16.36 104.973 17.208C103.885 18.04 102.525 18.456 100.893 18.456ZM100.749 7.512C99.9172 7.512 99.2372 7.752 98.7092 8.232C98.1972 8.696 97.8692 9.368 97.7252 10.248H103.629C103.501 9.368 103.189 8.696 102.693 8.232C102.213 7.752 101.565 7.512 100.749 7.512ZM117.285 17.712L113.253 4.848H117.117L120.021 14.712H120.501L122.901 4.848H126.549L122.877 19.056C122.605 20.08 122.237 20.896 121.773 21.504C121.325 22.112 120.717 22.544 119.949 22.8C119.197 23.072 118.245 23.208 117.093 23.208H114.741V19.944H117.477C118.085 19.944 118.557 19.824 118.893 19.584C119.245 19.344 119.501 18.912 119.661 18.288L119.781 17.712H117.285ZM134.676 18.456C133.14 18.456 131.828 18.144 130.74 17.52C129.668 16.896 128.852 16.08 128.292 15.072C127.732 14.048 127.452 12.936 127.452 11.736V11.184C127.452 9.952 127.74 8.824 128.316 7.8C128.908 6.76 129.74 5.936 130.812 5.328C131.9 4.704 133.188 4.392 134.676 4.392C136.164 4.392 137.452 4.704 138.54 5.328C139.628 5.936 140.46 6.76 141.036 7.8C141.628 8.824 141.924 9.952 141.924 11.184V11.736C141.924 12.936 141.636 14.048 141.06 15.072C140.5 16.08 139.684 16.896 138.612 17.52C137.54 18.144 136.228 18.456 134.676 18.456ZM134.676 15.216C135.78 15.216 136.62 14.864 137.196 14.16C137.788 13.44 138.084 12.544 138.084 11.472C138.084 10.368 137.78 9.456 137.172 8.736C136.58 8 135.748 7.632 134.676 7.632C133.604 7.632 132.772 8 132.18 8.736C131.588 9.456 131.292 10.368 131.292 11.472C131.292 12.544 131.58 13.44 132.156 14.16C132.732 14.864 133.572 15.216 134.676 15.216ZM149.044 18.408C147.524 18.408 146.356 17.92 145.54 16.944C144.724 15.968 144.316 14.48 144.316 12.48V4.848H148.156V12.672C148.156 13.376 148.356 13.936 148.756 14.352C149.156 14.768 149.692 14.976 150.364 14.976C151.052 14.976 151.612 14.76 152.044 14.328C152.476 13.896 152.692 13.312 152.692 12.576V4.848H156.532V18H153.484V14.928C152.94 17.248 151.516 18.408 149.212 18.408H149.044ZM160.072 18V4.848H163.12V9.312C163.264 7.824 163.72 6.68 164.488 5.88C165.272 5.08 166.336 4.68 167.68 4.68H168.184V7.992H167.224C166.152 7.992 165.328 8.28 164.752 8.856C164.192 9.432 163.912 10.248 163.912 11.304V18H160.072ZM175.429 18V0.48H181.885L188.485 14.808H188.821V0.48H192.517V18H186.013L179.413 3.672H179.077V18H175.429ZM196.452 18V0.48H206.964V3.744H200.388V7.68H206.676V10.944H200.388V18H196.452ZM213.573 18V3.912H208.653V0.48H222.453V3.912H217.509V18H213.573ZM228.486 18.408C226.614 18.408 225.15 18.024 224.094 17.256C223.038 16.488 222.478 15.408 222.414 14.016H225.822C225.87 14.432 226.118 14.808 226.566 15.144C227.014 15.464 227.678 15.624 228.558 15.624C229.214 15.624 229.766 15.512 230.214 15.288C230.662 15.064 230.886 14.728 230.886 14.28C230.886 13.896 230.718 13.592 230.382 13.368C230.046 13.128 229.446 12.96 228.582 12.864L227.55 12.768C225.966 12.592 224.774 12.152 223.974 11.448C223.19 10.744 222.798 9.824 222.798 8.688C222.798 7.76 223.03 6.984 223.494 6.36C223.974 5.736 224.622 5.264 225.438 4.944C226.254 4.624 227.19 4.464 228.246 4.464C229.942 4.464 231.302 4.84 232.326 5.592C233.366 6.328 233.918 7.4 233.982 8.808H230.574C230.51 8.392 230.278 8.032 229.878 7.728C229.494 7.424 228.934 7.272 228.198 7.272C227.606 7.272 227.134 7.384 226.782 7.608C226.43 7.832 226.254 8.136 226.254 8.52C226.254 8.888 226.406 9.168 226.71 9.36C227.014 9.552 227.51 9.688 228.198 9.768L229.23 9.864C230.83 10.04 232.078 10.496 232.974 11.232C233.886 11.952 234.342 12.912 234.342 14.112C234.342 15.44 233.814 16.488 232.758 17.256C231.702 18.024 230.278 18.408 228.486 18.408ZM247.845 18.168C246.517 18.168 245.445 18.008 244.629 17.688C243.813 17.352 243.213 16.8 242.829 16.032C242.461 15.248 242.277 14.192 242.277 12.864V7.656H240.285V4.848H242.277V1.296H245.853V4.848H249.693V7.656H245.853V13.008C245.853 13.632 246.013 14.112 246.333 14.448C246.669 14.768 247.141 14.928 247.749 14.928H249.693V18.168H247.845ZM258.637 18.456C257.101 18.456 255.789 18.144 254.701 17.52C253.629 16.896 252.813 16.08 252.253 15.072C251.693 14.048 251.413 12.936 251.413 11.736V11.184C251.413 9.952 251.701 8.824 252.277 7.8C252.869 6.76 253.701 5.936 254.773 5.328C255.861 4.704 257.149 4.392 258.637 4.392C260.125 4.392 261.413 4.704 262.501 5.328C263.589 5.936 264.421 6.76 264.997 7.8C265.589 8.824 265.885 9.952 265.885 11.184V11.736C265.885 12.936 265.597 14.048 265.021 15.072C264.461 16.08 263.645 16.896 262.573 17.52C261.501 18.144 260.189 18.456 258.637 18.456ZM258.637 15.216C259.741 15.216 260.581 14.864 261.157 14.16C261.749 13.44 262.045 12.544 262.045 11.472C262.045 10.368 261.741 9.456 261.133 8.736C260.541 8 259.709 7.632 258.637 7.632C257.565 7.632 256.733 8 256.141 8.736C255.549 9.456 255.253 10.368 255.253 11.472C255.253 12.544 255.541 13.44 256.117 14.16C256.693 14.864 257.533 15.216 258.637 15.216ZM3.864 33.552C3.144 33.552 2.608 33.368 2.256 33C1.92 32.616 1.752 32.136 1.752 31.56C1.752 30.968 1.92 30.488 2.256 30.12C2.608 29.736 3.144 29.544 3.864 29.544C4.584 29.544 5.112 29.736 5.448 30.12C5.8 30.488 5.976 30.968 5.976 31.56C5.976 32.136 5.8 32.616 5.448 33C5.112 33.368 4.584 33.552 3.864 33.552ZM2.376 48V37.68H0.624V34.848H6.216V48H2.376ZM9.76763 48V34.848H12.8156V38.184C13.3276 35.688 14.7516 34.44 17.0876 34.44H17.2556C19.2876 34.44 20.6316 35.392 21.2876 37.296C21.9596 35.392 23.3116 34.44 25.3436 34.44H25.5116C26.9996 34.44 28.1356 34.952 28.9196 35.976C29.7036 37 30.0956 38.512 30.0956 40.512V48H26.2556V40.296C26.2556 39.576 26.0636 38.992 25.6796 38.544C25.3116 38.096 24.7836 37.872 24.0956 37.872C23.4076 37.872 22.8636 38.104 22.4636 38.568C22.0636 39.032 21.8636 39.632 21.8636 40.368V48H17.9996V40.296C17.9996 39.576 17.8076 38.992 17.4236 38.544C17.0556 38.096 16.5356 37.872 15.8636 37.872C15.1596 37.872 14.6076 38.104 14.2076 38.568C13.8076 39.032 13.6076 39.632 13.6076 40.368V48H9.76763ZM33.3692 52.8V34.848H36.4172V38.184C36.8012 36.968 37.4412 36.048 38.3372 35.424C39.2492 34.784 40.3132 34.464 41.5292 34.464C42.7452 34.464 43.8012 34.76 44.6972 35.352C45.6092 35.928 46.3132 36.72 46.8092 37.728C47.3212 38.736 47.5772 39.872 47.5772 41.136V41.688C47.5772 42.952 47.3372 44.096 46.8572 45.12C46.3772 46.144 45.6892 46.952 44.7932 47.544C43.8972 48.136 42.8092 48.432 41.5292 48.432C40.6332 48.432 39.8092 48.264 39.0572 47.928C38.3052 47.592 37.6892 47.08 37.2092 46.392V52.8H33.3692ZM40.4492 45.216C41.4252 45.216 42.2092 44.864 42.8012 44.16C43.4092 43.456 43.7132 42.536 43.7132 41.4C43.7132 40.28 43.4092 39.376 42.8012 38.688C42.2092 38 41.4252 37.656 40.4492 37.656C39.8572 37.656 39.3052 37.792 38.7932 38.064C38.2972 38.336 37.8892 38.728 37.5692 39.24C37.2652 39.752 37.1132 40.36 37.1132 41.064V41.952C37.1132 42.64 37.2732 43.232 37.5932 43.728C37.9292 44.208 38.3532 44.576 38.8652 44.832C39.3772 45.088 39.9052 45.216 40.4492 45.216ZM50.2442 48V34.848H53.2922V39.312C53.4362 37.824 53.8922 36.68 54.6602 35.88C55.4442 35.08 56.5082 34.68 57.8522 34.68H58.3562V37.992H57.3962C56.3242 37.992 55.5002 38.28 54.9242 38.856C54.3642 39.432 54.0842 40.248 54.0842 41.304V48H50.2442ZM66.6834 48.456C65.1474 48.456 63.8354 48.144 62.7474 47.52C61.6754 46.896 60.8594 46.08 60.2994 45.072C59.7394 44.048 59.4594 42.936 59.4594 41.736V41.184C59.4594 39.952 59.7474 38.824 60.3234 37.8C60.9154 36.76 61.7474 35.936 62.8194 35.328C63.9074 34.704 65.1954 34.392 66.6834 34.392C68.1714 34.392 69.4594 34.704 70.5474 35.328C71.6354 35.936 72.4674 36.76 73.0434 37.8C73.6354 38.824 73.9314 39.952 73.9314 41.184V41.736C73.9314 42.936 73.6434 44.048 73.0674 45.072C72.5074 46.08 71.6914 46.896 70.6194 47.52C69.5474 48.144 68.2354 48.456 66.6834 48.456ZM66.6834 45.216C67.7874 45.216 68.6274 44.864 69.2034 44.16C69.7954 43.44 70.0914 42.544 70.0914 41.472C70.0914 40.368 69.7874 39.456 69.1794 38.736C68.5874 38 67.7554 37.632 66.6834 37.632C65.6114 37.632 64.7794 38 64.1874 38.736C63.5954 39.456 63.2994 40.368 63.2994 41.472C63.2994 42.544 63.5874 43.44 64.1634 44.16C64.7394 44.864 65.5794 45.216 66.6834 45.216ZM78.8507 48L74.9147 34.848H78.8747L81.6827 44.808H82.2347L84.6587 34.848H88.3547L84.9467 48H78.8507ZM96.3463 48.456C95.2263 48.456 94.2343 48.264 93.3703 47.88C92.5223 47.496 91.8103 46.984 91.2343 46.344C90.6583 45.688 90.2263 44.96 89.9383 44.16C89.6503 43.344 89.5063 42.512 89.5063 41.664V41.184C89.5063 40.32 89.6503 39.48 89.9383 38.664C90.2263 37.848 90.6583 37.12 91.2343 36.48C91.8103 35.84 92.5063 35.336 93.3223 34.968C94.1543 34.584 95.1143 34.392 96.2023 34.392C97.6103 34.392 98.7943 34.712 99.7543 35.352C100.73 35.976 101.474 36.8 101.986 37.824C102.498 38.848 102.754 39.952 102.754 41.136V42.432H93.1303C93.2583 43.328 93.5783 44.04 94.0903 44.568C94.6183 45.08 95.3703 45.336 96.3463 45.336C97.0343 45.336 97.6023 45.208 98.0503 44.952C98.5143 44.68 98.8263 44.336 98.9863 43.92H102.514C102.226 45.264 101.53 46.36 100.426 47.208C99.3383 48.04 97.9783 48.456 96.3463 48.456ZM96.2023 37.512C95.3703 37.512 94.6903 37.752 94.1623 38.232C93.6503 38.696 93.3223 39.368 93.1783 40.248H99.0823C98.9543 39.368 98.6423 38.696 98.1463 38.232C97.6663 37.752 97.0183 37.512 96.2023 37.512ZM116.314 48.168C114.986 48.168 113.914 48.008 113.098 47.688C112.282 47.352 111.682 46.8 111.298 46.032C110.93 45.248 110.746 44.192 110.746 42.864V37.656H108.754V34.848H110.746V31.296H114.322V34.848H118.162V37.656H114.322V43.008C114.322 43.632 114.482 44.112 114.802 44.448C115.138 44.768 115.61 44.928 116.218 44.928H118.162V48.168H116.314ZM120.744 48V30.48H124.584V37.008C125.288 35.296 126.584 34.44 128.472 34.44H128.64C130.096 34.44 131.208 34.96 131.976 36C132.744 37.024 133.128 38.528 133.128 40.512V48H129.288V40.272C129.288 39.552 129.072 38.976 128.64 38.544C128.224 38.096 127.672 37.872 126.984 37.872C126.264 37.872 125.68 38.112 125.232 38.592C124.8 39.056 124.584 39.664 124.584 40.416V48H120.744ZM142.424 48.456C141.304 48.456 140.312 48.264 139.448 47.88C138.6 47.496 137.888 46.984 137.312 46.344C136.736 45.688 136.304 44.96 136.016 44.16C135.728 43.344 135.584 42.512 135.584 41.664V41.184C135.584 40.32 135.728 39.48 136.016 38.664C136.304 37.848 136.736 37.12 137.312 36.48C137.888 35.84 138.584 35.336 139.4 34.968C140.232 34.584 141.192 34.392 142.28 34.392C143.688 34.392 144.872 34.712 145.832 35.352C146.808 35.976 147.552 36.8 148.064 37.824C148.576 38.848 148.832 39.952 148.832 41.136V42.432H139.208C139.336 43.328 139.656 44.04 140.168 44.568C140.696 45.08 141.448 45.336 142.424 45.336C143.112 45.336 143.68 45.208 144.128 44.952C144.592 44.68 144.904 44.336 145.064 43.92H148.592C148.304 45.264 147.608 46.36 146.504 47.208C145.416 48.04 144.056 48.456 142.424 48.456ZM142.28 37.512C141.448 37.512 140.768 37.752 140.24 38.232C139.728 38.696 139.4 39.368 139.256 40.248H145.16C145.032 39.368 144.72 38.696 144.224 38.232C143.744 37.752 143.096 37.512 142.28 37.512ZM153.489 33.552C152.769 33.552 152.233 33.368 151.881 33C151.545 32.616 151.377 32.136 151.377 31.56C151.377 30.968 151.545 30.488 151.881 30.12C152.233 29.736 152.769 29.544 153.489 29.544C154.209 29.544 154.737 29.736 155.073 30.12C155.425 30.488 155.601 30.968 155.601 31.56C155.601 32.136 155.425 32.616 155.073 33C154.737 33.368 154.209 33.552 153.489 33.552ZM152.001 48V37.68H150.249V34.848H155.841V48H152.001ZM159.393 48V34.848H162.441V39.312C162.585 37.824 163.041 36.68 163.809 35.88C164.593 35.08 165.657 34.68 167.001 34.68H167.505V37.992H166.545C165.473 37.992 164.649 38.28 164.073 38.856C163.513 39.432 163.233 40.248 163.233 41.304V48H159.393ZM174.533 48V34.848H177.581V39.312C177.725 37.824 178.181 36.68 178.949 35.88C179.733 35.08 180.797 34.68 182.141 34.68H182.645V37.992H181.685C180.613 37.992 179.789 38.28 179.213 38.856C178.653 39.432 178.373 40.248 178.373 41.304V48H174.533ZM188.309 48.336C186.885 48.336 185.733 47.968 184.853 47.232C183.989 46.496 183.557 45.456 183.557 44.112C183.557 43.152 183.805 42.368 184.301 41.76C184.797 41.136 185.493 40.68 186.389 40.392C187.285 40.088 188.317 39.936 189.485 39.936H191.861V39.888C191.861 38.544 191.189 37.872 189.845 37.872C189.493 37.872 189.029 37.888 188.453 37.92C187.877 37.936 187.277 37.96 186.653 37.992C186.045 38.008 185.501 38.032 185.021 38.064V34.824C185.581 34.776 186.269 34.736 187.085 34.704C187.901 34.656 188.653 34.632 189.341 34.632C191.357 34.632 192.893 35.064 193.949 35.928C195.021 36.776 195.557 38.112 195.557 39.936V48H192.509V45.528C192.221 46.44 191.725 47.136 191.021 47.616C190.317 48.096 189.413 48.336 188.309 48.336ZM189.461 45.672C190.085 45.672 190.629 45.496 191.093 45.144C191.557 44.792 191.813 44.12 191.861 43.128V42.072H189.461C188.789 42.072 188.269 42.24 187.901 42.576C187.549 42.912 187.373 43.352 187.373 43.896C187.373 44.424 187.549 44.856 187.901 45.192C188.269 45.512 188.789 45.672 189.461 45.672ZM198.815 48V34.848H201.863V39.312C202.007 37.824 202.463 36.68 203.23 35.88C204.015 35.08 205.079 34.68 206.423 34.68H206.927V37.992H205.967C204.895 37.992 204.071 38.28 203.495 38.856C202.935 39.432 202.655 40.248 202.655 41.304V48H198.815ZM211.028 33.552C210.308 33.552 209.772 33.368 209.42 33C209.084 32.616 208.916 32.136 208.916 31.56C208.916 30.968 209.084 30.488 209.42 30.12C209.772 29.736 210.308 29.544 211.028 29.544C211.748 29.544 212.276 29.736 212.612 30.12C212.964 30.488 213.14 30.968 213.14 31.56C213.14 32.136 212.964 32.616 212.612 33C212.276 33.368 211.748 33.552 211.028 33.552ZM209.54 48V37.68H207.788V34.848H213.38V48H209.54ZM222.908 48.168C221.58 48.168 220.508 48.008 219.692 47.688C218.876 47.352 218.276 46.8 217.892 46.032C217.524 45.248 217.34 44.192 217.34 42.864V37.656H215.348V34.848H217.34V31.296H220.916V34.848H224.756V37.656H220.916V43.008C220.916 43.632 221.076 44.112 221.396 44.448C221.732 44.768 222.204 44.928 222.812 44.928H224.756V48.168H222.908ZM229.738 47.712L225.706 34.848H229.57L232.474 44.712H232.954L235.354 34.848H239.002L235.33 49.056C235.058 50.08 234.69 50.896 234.226 51.504C233.778 52.112 233.17 52.544 232.402 52.8C231.65 53.072 230.698 53.208 229.546 53.208H227.194V49.944H229.93C230.538 49.944 231.01 49.824 231.346 49.584C231.698 49.344 231.954 48.912 232.114 48.288L232.234 47.712H229.738ZM249.809 48.336C248.385 48.336 247.233 47.968 246.353 47.232C245.489 46.496 245.057 45.456 245.057 44.112C245.057 43.152 245.305 42.368 245.801 41.76C246.297 41.136 246.993 40.68 247.889 40.392C248.785 40.088 249.817 39.936 250.985 39.936H253.361V39.888C253.361 38.544 252.689 37.872 251.345 37.872C250.993 37.872 250.529 37.888 249.953 37.92C249.377 37.936 248.777 37.96 248.153 37.992C247.545 38.008 247.001 38.032 246.521 38.064V34.824C247.081 34.776 247.769 34.736 248.585 34.704C249.401 34.656 250.153 34.632 250.841 34.632C252.857 34.632 254.393 35.064 255.449 35.928C256.521 36.776 257.057 38.112 257.057 39.936V48H254.009V45.528C253.721 46.44 253.225 47.136 252.521 47.616C251.817 48.096 250.913 48.336 249.809 48.336ZM250.961 45.672C251.585 45.672 252.129 45.496 252.593 45.144C253.057 44.792 253.313 44.12 253.361 43.128V42.072H250.961C250.289 42.072 249.769 42.24 249.401 42.576C249.049 42.912 248.873 43.352 248.873 43.896C248.873 44.424 249.049 44.856 249.401 45.192C249.769 45.512 250.289 45.672 250.961 45.672ZM260.315 48V34.848H263.363V38.208C263.891 35.696 265.371 34.44 267.803 34.44H267.971C269.491 34.44 270.659 34.944 271.475 35.952C272.291 36.944 272.699 38.456 272.699 40.488V48H268.859V40.272C268.859 39.568 268.651 38.992 268.235 38.544C267.819 38.096 267.259 37.872 266.555 37.872C265.835 37.872 265.251 38.104 264.803 38.568C264.371 39.016 264.155 39.608 264.155 40.344V48H260.315ZM281.395 48.432C280.163 48.432 279.075 48.144 278.131 47.568C277.203 46.976 276.475 46.176 275.947 45.168C275.419 44.16 275.155 43.024 275.155 41.76V41.208C275.155 39.944 275.403 38.8 275.899 37.776C276.395 36.752 277.099 35.944 278.011 35.352C278.939 34.76 280.019 34.464 281.251 34.464C283.171 34.464 284.587 35.192 285.499 36.648V30.48H289.363V48H286.315V45.24C285.883 46.28 285.243 47.072 284.395 47.616C283.547 48.16 282.547 48.432 281.395 48.432ZM282.355 45.216C283.235 45.216 283.995 44.92 284.635 44.328C285.275 43.736 285.595 42.896 285.595 41.808V40.92C285.595 40.232 285.443 39.648 285.139 39.168C284.835 38.672 284.435 38.296 283.939 38.04C283.443 37.784 282.907 37.656 282.331 37.656C281.355 37.656 280.555 38.008 279.931 38.712C279.307 39.416 278.995 40.336 278.995 41.472C278.995 42.624 279.307 43.536 279.931 44.208C280.571 44.88 281.379 45.216 282.355 45.216ZM6.192 78.408C4.672 78.408 3.504 77.92 2.688 76.944C1.872 75.968 1.464 74.48 1.464 72.48V64.848H5.304V72.672C5.304 73.376 5.504 73.936 5.904 74.352C6.304 74.768 6.84 74.976 7.512 74.976C8.2 74.976 8.76 74.76 9.192 74.328C9.624 73.896 9.84 73.312 9.84 72.576V64.848H13.68V78H10.632V74.928C10.088 77.248 8.664 78.408 6.36 78.408H6.192ZM17.2208 78V64.848H20.2688V68.208C20.7968 65.696 22.2768 64.44 24.7088 64.44H24.8768C26.3968 64.44 27.5648 64.944 28.3808 65.952C29.1968 66.944 29.6048 68.456 29.6048 70.488V78H25.7648V70.272C25.7648 69.568 25.5568 68.992 25.1408 68.544C24.7248 68.096 24.1648 67.872 23.4608 67.872C22.7408 67.872 22.1568 68.104 21.7088 68.568C21.2768 69.016 21.0608 69.608 21.0608 70.344V78H17.2208ZM33.045 78V63.312H31.485V60.48H36.909V78H33.045ZM46.8553 78.456C45.3193 78.456 44.0073 78.144 42.9193 77.52C41.8473 76.896 41.0313 76.08 40.4713 75.072C39.9113 74.048 39.6313 72.936 39.6313 71.736V71.184C39.6313 69.952 39.9193 68.824 40.4953 67.8C41.0873 66.76 41.9193 65.936 42.9913 65.328C44.0793 64.704 45.3673 64.392 46.8553 64.392C48.3433 64.392 49.6313 64.704 50.7193 65.328C51.8073 65.936 52.6393 66.76 53.2153 67.8C53.8073 68.824 54.1033 69.952 54.1033 71.184V71.736C54.1033 72.936 53.8153 74.048 53.2393 75.072C52.6793 76.08 51.8633 76.896 50.7913 77.52C49.7193 78.144 48.4073 78.456 46.8553 78.456ZM46.8553 75.216C47.9593 75.216 48.7993 74.864 49.3753 74.16C49.9673 73.44 50.2633 72.544 50.2633 71.472C50.2633 70.368 49.9593 69.456 49.3513 68.736C48.7593 68 47.9273 67.632 46.8553 67.632C45.7833 67.632 44.9513 68 44.3593 68.736C43.7673 69.456 43.4713 70.368 43.4713 71.472C43.4713 72.544 43.7593 73.44 44.3353 74.16C44.9113 74.864 45.7513 75.216 46.8553 75.216ZM62.6873 78.456C61.5513 78.456 60.5593 78.272 59.7113 77.904C58.8793 77.52 58.1833 77.008 57.6233 76.368C57.0633 75.728 56.6473 75.008 56.3753 74.208C56.1033 73.392 55.9673 72.552 55.9673 71.688V71.232C55.9673 70.032 56.2153 68.912 56.7113 67.872C57.2233 66.832 57.9753 65.992 58.9673 65.352C59.9753 64.712 61.2073 64.392 62.6633 64.392C63.8473 64.392 64.8953 64.624 65.8073 65.088C66.7193 65.536 67.4473 66.168 67.9913 66.984C68.5353 67.8 68.8393 68.736 68.9033 69.792H65.1353C65.0713 69.2 64.8313 68.704 64.4153 68.304C63.9993 67.888 63.4153 67.68 62.6633 67.68C61.6873 67.68 60.9673 68.032 60.5033 68.736C60.0393 69.424 59.8073 70.336 59.8073 71.472C59.8073 72.544 60.0233 73.432 60.4553 74.136C60.9033 74.824 61.6473 75.168 62.6873 75.168C63.4553 75.168 64.0553 74.968 64.4873 74.568C64.9193 74.168 65.1753 73.64 65.2553 72.984H68.9993C68.9353 74.072 68.6233 75.032 68.0633 75.864C67.5193 76.68 66.7753 77.32 65.8313 77.784C64.9033 78.232 63.8553 78.456 62.6873 78.456ZM71.4551 78V60.48H75.2951V71.088L80.0711 64.848H84.1031L79.7831 70.464L85.0391 78H80.7191L76.5671 71.856H75.2951V78H71.4551ZM97.2463 78.432C96.0143 78.432 94.9263 78.144 93.9823 77.568C93.0543 76.976 92.3263 76.176 91.7983 75.168C91.2703 74.16 91.0063 73.024 91.0063 71.76V71.208C91.0063 69.944 91.2543 68.8 91.7503 67.776C92.2463 66.752 92.9503 65.944 93.8623 65.352C94.7903 64.76 95.8703 64.464 97.1023 64.464C99.0223 64.464 100.438 65.192 101.35 66.648V60.48H105.214V78H102.166V75.24C101.734 76.28 101.094 77.072 100.246 77.616C99.3983 78.16 98.3983 78.432 97.2463 78.432ZM98.2063 75.216C99.0863 75.216 99.8463 74.92 100.486 74.328C101.126 73.736 101.446 72.896 101.446 71.808V70.92C101.446 70.232 101.294 69.648 100.99 69.168C100.686 68.672 100.286 68.296 99.7903 68.04C99.2943 67.784 98.7583 67.656 98.1823 67.656C97.2063 67.656 96.4063 68.008 95.7823 68.712C95.1583 69.416 94.8463 70.336 94.8463 71.472C94.8463 72.624 95.1583 73.536 95.7823 74.208C96.4223 74.88 97.2303 75.216 98.2063 75.216ZM114.721 78.456C113.601 78.456 112.609 78.264 111.745 77.88C110.897 77.496 110.185 76.984 109.609 76.344C109.033 75.688 108.601 74.96 108.313 74.16C108.025 73.344 107.881 72.512 107.881 71.664V71.184C107.881 70.32 108.025 69.48 108.313 68.664C108.601 67.848 109.033 67.12 109.609 66.48C110.185 65.84 110.881 65.336 111.697 64.968C112.529 64.584 113.489 64.392 114.577 64.392C115.985 64.392 117.169 64.712 118.129 65.352C119.105 65.976 119.849 66.8 120.361 67.824C120.873 68.848 121.129 69.952 121.129 71.136V72.432H111.505C111.633 73.328 111.953 74.04 112.465 74.568C112.993 75.08 113.745 75.336 114.721 75.336C115.409 75.336 115.977 75.208 116.425 74.952C116.889 74.68 117.201 74.336 117.361 73.92H120.889C120.601 75.264 119.905 76.36 118.801 77.208C117.713 78.04 116.353 78.456 114.721 78.456ZM114.577 67.512C113.745 67.512 113.065 67.752 112.537 68.232C112.025 68.696 111.697 69.368 111.553 70.248H117.457C117.329 69.368 117.017 68.696 116.521 68.232C116.041 67.752 115.393 67.512 114.577 67.512ZM128.666 78.408C126.794 78.408 125.33 78.024 124.274 77.256C123.218 76.488 122.658 75.408 122.594 74.016H126.002C126.05 74.432 126.298 74.808 126.746 75.144C127.194 75.464 127.858 75.624 128.738 75.624C129.394 75.624 129.946 75.512 130.394 75.288C130.842 75.064 131.066 74.728 131.066 74.28C131.066 73.896 130.898 73.592 130.562 73.368C130.226 73.128 129.626 72.96 128.762 72.864L127.73 72.768C126.146 72.592 124.954 72.152 124.154 71.448C123.37 70.744 122.978 69.824 122.978 68.688C122.978 67.76 123.21 66.984 123.674 66.36C124.154 65.736 124.802 65.264 125.618 64.944C126.434 64.624 127.37 64.464 128.426 64.464C130.122 64.464 131.482 64.84 132.506 65.592C133.546 66.328 134.098 67.4 134.162 68.808H130.754C130.69 68.392 130.458 68.032 130.058 67.728C129.674 67.424 129.114 67.272 128.378 67.272C127.786 67.272 127.314 67.384 126.962 67.608C126.61 67.832 126.434 68.136 126.434 68.52C126.434 68.888 126.586 69.168 126.89 69.36C127.194 69.552 127.69 69.688 128.378 69.768L129.41 69.864C131.01 70.04 132.258 70.496 133.154 71.232C134.066 71.952 134.522 72.912 134.522 74.112C134.522 75.44 133.994 76.488 132.938 77.256C131.882 78.024 130.458 78.408 128.666 78.408ZM139.122 63.552C138.402 63.552 137.866 63.368 137.514 63C137.178 62.616 137.01 62.136 137.01 61.56C137.01 60.968 137.178 60.488 137.514 60.12C137.866 59.736 138.402 59.544 139.122 59.544C139.842 59.544 140.37 59.736 140.706 60.12C141.058 60.488 141.234 60.968 141.234 61.56C141.234 62.136 141.058 62.616 140.706 63C140.37 63.368 139.842 63.552 139.122 63.552ZM137.634 78V67.68H135.882V64.848H141.474V78H137.634ZM150.209 83.232C149.553 83.232 148.889 83.208 148.217 83.16C147.545 83.112 146.937 83.048 146.393 82.968V79.728C146.953 79.808 147.569 79.872 148.241 79.92C148.913 79.984 149.537 80.016 150.113 80.016C151.665 80.016 152.785 79.744 153.473 79.2C154.177 78.672 154.529 77.832 154.529 76.68V75.528C154.113 76.36 153.521 77 152.753 77.448C152.001 77.88 151.113 78.096 150.089 78.096C148.889 78.096 147.849 77.816 146.969 77.256C146.089 76.68 145.409 75.896 144.929 74.904C144.449 73.912 144.209 72.8 144.209 71.568V71.016C144.209 69.768 144.465 68.656 144.977 67.68C145.489 66.688 146.201 65.904 147.113 65.328C148.041 64.752 149.113 64.464 150.329 64.464C151.465 64.464 152.441 64.736 153.257 65.28C154.073 65.824 154.689 66.608 155.105 67.632V64.848H158.153V76.44C158.153 78.872 157.497 80.608 156.185 81.648C154.889 82.704 152.897 83.232 150.209 83.232ZM151.289 74.856C152.169 74.856 152.913 74.568 153.521 73.992C154.145 73.4 154.457 72.576 154.457 71.52V70.824C154.457 70.136 154.305 69.56 154.001 69.096C153.713 68.616 153.329 68.256 152.849 68.016C152.369 67.76 151.857 67.632 151.313 67.632C150.337 67.632 149.545 67.968 148.937 68.64C148.345 69.296 148.049 70.176 148.049 71.28C148.049 72.4 148.353 73.28 148.961 73.92C149.569 74.544 150.345 74.856 151.289 74.856ZM161.479 78V64.848H164.527V68.208C165.055 65.696 166.535 64.44 168.967 64.44H169.135C170.655 64.44 171.823 64.944 172.639 65.952C173.455 66.944 173.863 68.456 173.863 70.488V78H170.023V70.272C170.023 69.568 169.815 68.992 169.399 68.544C168.983 68.096 168.423 67.872 167.719 67.872C166.999 67.872 166.415 68.104 165.967 68.568C165.535 69.016 165.319 69.608 165.319 70.344V78H161.479ZM188.198 78.456C187.078 78.456 186.086 78.264 185.222 77.88C184.374 77.496 183.662 76.984 183.086 76.344C182.51 75.688 182.078 74.96 181.79 74.16C181.502 73.344 181.358 72.512 181.358 71.664V71.184C181.358 70.32 181.502 69.48 181.79 68.664C182.078 67.848 182.51 67.12 183.086 66.48C183.662 65.84 184.358 65.336 185.174 64.968C186.006 64.584 186.966 64.392 188.054 64.392C189.462 64.392 190.646 64.712 191.606 65.352C192.582 65.976 193.326 66.8 193.838 67.824C194.35 68.848 194.606 69.952 194.606 71.136V72.432H184.982C185.11 73.328 185.43 74.04 185.942 74.568C186.47 75.08 187.222 75.336 188.198 75.336C188.886 75.336 189.454 75.208 189.902 74.952C190.366 74.68 190.678 74.336 190.838 73.92H194.366C194.078 75.264 193.382 76.36 192.278 77.208C191.19 78.04 189.83 78.456 188.198 78.456ZM188.054 67.512C187.222 67.512 186.542 67.752 186.014 68.232C185.502 68.696 185.174 69.368 185.03 70.248H190.934C190.806 69.368 190.494 68.696 189.998 68.232C189.518 67.752 188.87 67.512 188.054 67.512ZM197.318 78V63.312H195.758V60.48H201.182V78H197.318ZM210.745 78.456C209.625 78.456 208.633 78.264 207.769 77.88C206.921 77.496 206.209 76.984 205.633 76.344C205.057 75.688 204.625 74.96 204.337 74.16C204.049 73.344 203.905 72.512 203.905 71.664V71.184C203.905 70.32 204.049 69.48 204.337 68.664C204.625 67.848 205.057 67.12 205.633 66.48C206.209 65.84 206.905 65.336 207.721 64.968C208.553 64.584 209.513 64.392 210.601 64.392C212.009 64.392 213.193 64.712 214.153 65.352C215.129 65.976 215.873 66.8 216.385 67.824C216.897 68.848 217.153 69.952 217.153 71.136V72.432H207.529C207.657 73.328 207.977 74.04 208.489 74.568C209.017 75.08 209.769 75.336 210.745 75.336C211.433 75.336 212.001 75.208 212.449 74.952C212.913 74.68 213.225 74.336 213.385 73.92H216.913C216.625 75.264 215.929 76.36 214.825 77.208C213.737 78.04 212.377 78.456 210.745 78.456ZM210.601 67.512C209.769 67.512 209.089 67.752 208.561 68.232C208.049 68.696 207.721 69.368 207.577 70.248H213.481C213.353 69.368 213.041 68.696 212.545 68.232C212.065 67.752 211.417 67.512 210.601 67.512ZM219.697 78V64.848H222.745V68.184C223.257 65.688 224.681 64.44 227.017 64.44H227.185C229.217 64.44 230.561 65.392 231.217 67.296C231.889 65.392 233.241 64.44 235.273 64.44H235.441C236.929 64.44 238.065 64.952 238.849 65.976C239.633 67 240.025 68.512 240.025 70.512V78H236.185V70.296C236.185 69.576 235.993 68.992 235.609 68.544C235.241 68.096 234.713 67.872 234.025 67.872C233.337 67.872 232.793 68.104 232.393 68.568C231.993 69.032 231.793 69.632 231.793 70.368V78H227.929V70.296C227.929 69.576 227.737 68.992 227.353 68.544C226.985 68.096 226.465 67.872 225.793 67.872C225.089 67.872 224.537 68.104 224.137 68.568C223.737 69.032 223.537 69.632 223.537 70.368V78H219.697ZM249.323 78.456C248.203 78.456 247.211 78.264 246.347 77.88C245.499 77.496 244.787 76.984 244.211 76.344C243.635 75.688 243.203 74.96 242.915 74.16C242.627 73.344 242.483 72.512 242.483 71.664V71.184C242.483 70.32 242.627 69.48 242.915 68.664C243.203 67.848 243.635 67.12 244.211 66.48C244.787 65.84 245.483 65.336 246.299 64.968C247.131 64.584 248.091 64.392 249.179 64.392C250.587 64.392 251.771 64.712 252.731 65.352C253.707 65.976 254.451 66.8 254.963 67.824C255.475 68.848 255.731 69.952 255.731 71.136V72.432H246.107C246.235 73.328 246.555 74.04 247.067 74.568C247.595 75.08 248.347 75.336 249.323 75.336C250.011 75.336 250.579 75.208 251.027 74.952C251.491 74.68 251.803 74.336 251.963 73.92H255.491C255.203 75.264 254.507 76.36 253.403 77.208C252.315 78.04 250.955 78.456 249.323 78.456ZM249.179 67.512C248.347 67.512 247.667 67.752 247.139 68.232C246.627 68.696 246.299 69.368 246.155 70.248H252.059C251.931 69.368 251.619 68.696 251.123 68.232C250.643 67.752 249.995 67.512 249.179 67.512ZM258.275 78V64.848H261.323V68.208C261.851 65.696 263.331 64.44 265.763 64.44H265.931C267.451 64.44 268.619 64.944 269.435 65.952C270.251 66.944 270.659 68.456 270.659 70.488V78H266.819V70.272C266.819 69.568 266.611 68.992 266.195 68.544C265.779 68.096 265.219 67.872 264.515 67.872C263.795 67.872 263.211 68.104 262.763 68.568C262.331 69.016 262.115 69.608 262.115 70.344V78H258.275ZM279.908 78.168C278.58 78.168 277.508 78.008 276.692 77.688C275.876 77.352 275.276 76.8 274.892 76.032C274.524 75.248 274.34 74.192 274.34 72.864V67.656H272.348V64.848H274.34V61.296H277.916V64.848H281.756V67.656H277.916V73.008C277.916 73.632 278.076 74.112 278.396 74.448C278.732 74.768 279.204 74.928 279.812 74.928H281.756V78.168H279.908ZM289.236 78.408C287.364 78.408 285.9 78.024 284.844 77.256C283.788 76.488 283.228 75.408 283.164 74.016H286.572C286.62 74.432 286.868 74.808 287.316 75.144C287.764 75.464 288.428 75.624 289.308 75.624C289.964 75.624 290.516 75.512 290.964 75.288C291.412 75.064 291.636 74.728 291.636 74.28C291.636 73.896 291.468 73.592 291.132 73.368C290.796 73.128 290.196 72.96 289.332 72.864L288.3 72.768C286.716 72.592 285.524 72.152 284.724 71.448C283.94 70.744 283.548 69.824 283.548 68.688C283.548 67.76 283.78 66.984 284.244 66.36C284.724 65.736 285.372 65.264 286.188 64.944C287.004 64.624 287.94 64.464 288.996 64.464C290.692 64.464 292.052 64.84 293.076 65.592C294.116 66.328 294.668 67.4 294.732 68.808H291.324C291.26 68.392 291.028 68.032 290.628 67.728C290.244 67.424 289.684 67.272 288.948 67.272C288.356 67.272 287.884 67.384 287.532 67.608C287.18 67.832 287.004 68.136 287.004 68.52C287.004 68.888 287.156 69.168 287.46 69.36C287.764 69.552 288.26 69.688 288.948 69.768L289.98 69.864C291.58 70.04 292.828 70.496 293.724 71.232C294.636 71.952 295.092 72.912 295.092 74.112C295.092 75.44 294.564 76.488 293.508 77.256C292.452 78.024 291.028 78.408 289.236 78.408Z" fill="url(#paint0_linear_239:767)"/>
<defs>
<linearGradient id="paint0_linear_239:767" x1="-1.1107e-06" y1="15.7237" x2="313.301" y2="32.4353" gradientUnits="userSpaceOnUse">
<stop offset="0.267495" stop-color="#FFC6CE"/>
<stop offset="1" stop-color="#64D6EE"/>
</linearGradient>
</defs>
</svg>
