<svg width="50" height="40" viewBox="0 0 50 40" fill="none" xmlns="http://www.w3.org/2000/svg">
<path d="M49.4657 4.73812C48.0944 6.77777 46.4121 8.51647 44.4188 9.95423C44.4384 10.3398 44.4483 10.7757 44.4483 11.2617C44.4483 13.9623 44.0546 16.6662 43.2671 19.3733C42.4796 22.0805 41.2767 24.6717 39.6585 27.1471C38.0402 29.6224 36.1126 31.8153 33.8755 33.7258C31.6385 35.6363 28.9495 37.1596 25.8085 38.2958C22.6674 39.4319 19.3011 40 15.7095 40C10.1042 40 4.94222 38.4868 0.223633 35.4603C1.06113 35.5535 1.86435 35.6001 2.63331 35.6001C7.31611 35.6001 11.4986 34.1577 15.1808 31.273C12.9974 31.233 11.042 30.5609 9.31463 29.2567C7.58724 27.9525 6.3985 26.286 5.74839 24.2571C6.39098 24.3795 7.02519 24.4407 7.65103 24.4407C8.55188 24.4407 9.43831 24.3232 10.3103 24.0883C7.98023 23.6216 6.04723 22.4611 4.51131 20.6067C2.97544 18.7523 2.20751 16.612 2.20751 14.1857V14.0607C3.63772 14.8526 5.16327 15.2738 6.78415 15.3244C5.40383 14.4042 4.30944 13.2042 3.50099 11.7244C2.69248 10.2447 2.28823 8.64331 2.28823 6.92035C2.28823 5.10321 2.74358 3.4111 3.65427 1.84404C6.18819 4.95356 9.25856 7.43878 12.8654 9.29971C16.4723 11.1607 20.3418 12.1942 24.4739 12.4003C24.2976 11.6658 24.2093 10.8993 24.209 10.1009C24.209 7.31298 25.1956 4.93253 27.1688 2.95952C29.142 0.986506 31.5225 0 34.3104 0C37.2292 0 39.6878 1.06281 41.6861 3.18844C43.9692 2.7362 46.107 1.91821 48.0994 0.734479C47.3318 3.15021 45.8527 5.01378 43.6621 6.32519C45.6755 6.08594 47.61 5.55691 49.4656 4.73812H49.4657Z" fill="url(#paint0_linear_258:2777)"/>
<defs>
<linearGradient id="paint0_linear_258:2777" x1="0.223633" y1="9.21053" x2="48.5555" y2="10.1031" gradientUnits="userSpaceOnUse">
<stop offset="0.267495" stop-color="#FFC6CE"/>
<stop offset="1" stop-color="#64D6EE"/>
</linearGradient>
</defs>
</svg>
