<svg width="101" height="28" viewBox="0 0 101 28" fill="none" xmlns="http://www.w3.org/2000/svg">
<path d="M26.6 2C26.68 2 26.72 2.08 26.72 2.24C26.72 2.4 26.68 2.48 26.6 2.48C25.64 2.48 24.72 2.90667 23.84 3.76C22.96 4.61333 22.2533 5.76 21.72 7.2L14.32 26.96C14.2933 27.0667 14.1467 27.12 13.88 27.12C13.6133 27.12 13.4667 27.0667 13.44 26.96L3.24 5.32C2.76 4.36 2.28 3.65333 1.8 3.2C1.32 2.72 0.786667 2.48 0.2 2.48C0.12 2.48 0.08 2.4 0.08 2.24C0.08 2.08 0.12 2 0.2 2C0.6 2 0.88 2.01333 1.04 2.04C1.57333 2.09333 2.26667 2.12 3.12 2.12C5.41333 2.12 7.36 2.09333 8.96 2.04C9.38667 2.01333 9.92 2 10.56 2C10.64 2 10.68 2.08 10.68 2.24C10.68 2.4 10.64 2.48 10.56 2.48C9.76 2.48 9.13333 2.65333 8.68 3C8.25333 3.32 8.04 3.78667 8.04 4.4C8.04 4.85333 8.18667 5.4 8.48 6.04L15.4 20.8L20.6 7.08C20.8667 6.33333 21 5.69333 21 5.16C21 4.33333 20.7467 3.68 20.24 3.2C19.76 2.72 19.0533 2.48 18.12 2.48C18.04 2.48 18 2.4 18 2.24C18 2.08 18.04 2 18.12 2L20.08 2.04C21.2 2.09333 22.2 2.12 23.08 2.12C23.5867 2.12 24.2133 2.09333 24.96 2.04L26.6 2ZM39.8744 27.48C37.3944 27.48 35.181 26.9067 33.2344 25.76C31.3144 24.5867 29.821 23.0133 28.7544 21.04C27.7144 19.04 27.1944 16.8667 27.1944 14.52C27.1944 11.7733 27.8877 9.42667 29.2744 7.48C30.661 5.50667 32.4344 4.02667 34.5944 3.04C36.781 2.05333 39.0077 1.56 41.2744 1.56C43.8077 1.56 46.0344 2.16 47.9544 3.36C49.8744 4.53333 51.341 6.09333 52.3544 8.04C53.3944 9.98667 53.9144 12.0533 53.9144 14.24C53.9144 16.6667 53.2744 18.8933 51.9944 20.92C50.7144 22.9467 48.9944 24.5467 46.8344 25.72C44.701 26.8933 42.381 27.48 39.8744 27.48ZM41.1944 26.48C42.6877 26.48 44.021 26.0533 45.1944 25.2C46.3944 24.32 47.3277 23.0533 47.9944 21.4C48.661 19.72 48.9944 17.72 48.9944 15.4C48.9944 12.9467 48.621 10.76 47.8744 8.84C47.1277 6.89333 46.0477 5.37333 44.6344 4.28C43.221 3.18667 41.5677 2.64 39.6744 2.64C37.2477 2.64 35.381 3.56 34.0744 5.4C32.7677 7.21333 32.1144 9.76 32.1144 13.04C32.1144 15.6267 32.501 17.9467 33.2744 20C34.0744 22.0267 35.1544 23.6133 36.5144 24.76C37.901 25.9067 39.461 26.48 41.1944 26.48ZM63.5675 2.92C60.3942 2.92 58.1142 4.98666 56.7275 9.12C56.7008 9.2 56.6208 9.24 56.4875 9.24C56.3542 9.21333 56.2875 9.16 56.2875 9.08C56.3942 8.01333 56.5142 6.64 56.6475 4.96C56.7808 3.25333 56.8475 1.97333 56.8475 1.12C56.8475 0.986666 56.9142 0.92 57.0475 0.92C57.2075 0.92 57.2875 0.986666 57.2875 1.12C57.2875 1.70667 58.0475 2 59.5675 2C61.8608 2.08 64.5408 2.12 67.6075 2.12C69.1808 2.12 70.8475 2.09333 72.6075 2.04L75.3275 2C76.3408 2 77.0742 1.93333 77.5275 1.8C78.0075 1.66666 78.3142 1.4 78.4475 0.999999C78.4742 0.893332 78.5542 0.839998 78.6875 0.839998C78.8475 0.839998 78.9275 0.893332 78.9275 0.999999C78.8475 1.8 78.7542 3.08 78.6475 4.84C78.5675 6.6 78.5275 8.01333 78.5275 9.08C78.5275 9.16 78.4608 9.2 78.3275 9.2C78.1942 9.2 78.1142 9.16 78.0875 9.08C77.6875 7.02667 76.9408 5.49333 75.8475 4.48C74.7542 3.44 73.4075 2.92 71.8075 2.92C71.0342 2.92 70.5142 3.09333 70.2475 3.44C70.0075 3.76 69.8875 4.38667 69.8875 5.32V23.76C69.8875 24.5867 69.9675 25.1867 70.1275 25.56C70.2875 25.9333 70.5942 26.1867 71.0475 26.32C71.5008 26.4533 72.2208 26.52 73.2075 26.52C73.2875 26.52 73.3275 26.6 73.3275 26.76C73.3275 26.92 73.2875 27 73.2075 27C72.2475 27 71.4875 26.9867 70.9275 26.96L67.6075 26.92L64.3675 26.96C63.8075 26.9867 63.0342 27 62.0475 27C61.9675 27 61.9275 26.92 61.9275 26.76C61.9275 26.6 61.9675 26.52 62.0475 26.52C63.0075 26.52 63.7142 26.4533 64.1675 26.32C64.6475 26.1867 64.9675 25.9333 65.1275 25.56C65.3142 25.16 65.4075 24.56 65.4075 23.76V5.24C65.4075 4.33333 65.2875 3.72 65.0475 3.4C64.8075 3.08 64.3142 2.92 63.5675 2.92ZM100.231 20.64C100.231 20.5867 100.284 20.56 100.391 20.56C100.471 20.56 100.537 20.5867 100.591 20.64C100.671 20.6667 100.711 20.6933 100.711 20.72C100.444 22.8 100.311 24.6933 100.311 26.4C100.311 26.6133 100.271 26.7733 100.191 26.88C100.111 26.96 99.9506 27 99.7106 27H82.0306C81.9506 27 81.9106 26.92 81.9106 26.76C81.9106 26.6 81.9506 26.52 82.0306 26.52C82.884 26.52 83.4973 26.4533 83.8706 26.32C84.2706 26.1867 84.5373 25.9333 84.6706 25.56C84.804 25.16 84.8706 24.56 84.8706 23.76V5.24C84.8706 4.44 84.804 3.85333 84.6706 3.48C84.5373 3.10667 84.2706 2.85333 83.8706 2.72C83.4706 2.56 82.8573 2.48 82.0306 2.48C81.9506 2.48 81.9106 2.4 81.9106 2.24C81.9106 2.08 81.9506 2 82.0306 2H98.9906C99.2573 2 99.3906 2.12 99.3906 2.36L99.4706 7.68C99.4706 7.73333 99.3906 7.77333 99.2306 7.8C99.0973 7.82667 99.0173 7.8 98.9906 7.72C98.564 6.17333 97.844 5.02667 96.8306 4.28C95.8173 3.53333 94.484 3.16 92.8306 3.16H91.6306C90.8306 3.16 90.244 3.33333 89.8706 3.68C89.4973 4.02667 89.3106 4.56 89.3106 5.28V13.44H92.6306C94.1773 13.44 95.364 13.1733 96.1906 12.64C97.0173 12.1067 97.4306 11.36 97.4306 10.4C97.4306 10.32 97.4973 10.28 97.6306 10.28C97.7906 10.28 97.8706 10.32 97.8706 10.4L97.8306 14L97.8706 15.92C97.924 16.8267 97.9506 17.5467 97.9506 18.08C97.9506 18.1333 97.8706 18.16 97.7106 18.16C97.5506 18.16 97.4706 18.1333 97.4706 18.08C97.4706 16.9867 97.044 16.1333 96.1906 15.52C95.364 14.88 94.164 14.56 92.5906 14.56H89.3106V23.6C89.3106 24.3733 89.4573 24.9467 89.7506 25.32C90.044 25.6933 90.5106 25.88 91.1506 25.88H92.4706C94.5506 25.88 96.2173 25.4533 97.4706 24.6C98.724 23.7467 99.644 22.4267 100.231 20.64Z" fill="url(#paint0_linear_239:772)"/>
<path d="M26.6 2V0H26.5756L26.5512 0.000594139L26.6 2ZM21.72 7.2L23.593 7.90142L23.5955 7.89463L21.72 7.2ZM14.32 26.96L12.447 26.2586L12.4072 26.3648L12.3797 26.4749L14.32 26.96ZM13.44 26.96L15.3803 26.4749L15.3327 26.2847L15.2491 26.1073L13.44 26.96ZM3.24 5.32L5.04911 4.46728L5.03922 4.44631L5.02885 4.42557L3.24 5.32ZM1.8 3.2L0.385786 4.61421L0.405985 4.63441L0.426752 4.65402L1.8 3.2ZM1.04 2.04L0.711206 4.01279L0.775818 4.02356L0.840995 4.03007L1.04 2.04ZM8.96 2.04L9.02663 4.03889L9.05571 4.03792L9.08475 4.03611L8.96 2.04ZM8.68 3L9.88 4.6L9.88748 4.59439L9.8949 4.58871L8.68 3ZM8.48 6.04L6.66187 6.87331L6.66547 6.88117L6.66914 6.88899L8.48 6.04ZM15.4 20.8L13.5891 21.649L15.5953 25.928L17.2702 21.5088L15.4 20.8ZM20.6 7.08L22.4702 7.78881L22.477 7.77081L22.4835 7.75267L20.6 7.08ZM20.24 3.2L18.8258 4.61421L18.8449 4.63332L18.8645 4.6519L20.24 3.2ZM18.12 2L18.1608 0.000416756L18.1404 0H18.12V2ZM20.08 2.04L20.1751 0.042263L20.148 0.0409708L20.1208 0.0404158L20.08 2.04ZM24.96 2.04L24.9112 0.0405941L24.8643 0.0417385L24.8175 0.0450821L24.96 2.04ZM26.6 4C26.27 4 25.8921 3.91176 25.5431 3.67911C25.2066 3.45479 25.0098 3.1717 24.9011 2.95443C24.7122 2.57651 24.72 2.26215 24.72 2.24H28.72C28.72 2.05785 28.7078 1.62349 28.4789 1.16557C28.3502 0.908304 28.1284 0.595205 27.7619 0.350894C27.3829 0.098237 26.97 0 26.6 0V4ZM24.72 2.24C24.72 2.21785 24.7122 1.90349 24.9011 1.52556C25.0098 1.3083 25.2066 1.0252 25.5431 0.800893C25.8921 0.568235 26.27 0.479999 26.6 0.479999V4.48C26.97 4.48 27.3829 4.38176 27.7619 4.1291C28.1284 3.88479 28.3502 3.57169 28.4789 3.31443C28.7078 2.85651 28.72 2.42215 28.72 2.24H24.72ZM26.6 0.479999C24.9872 0.479999 23.593 1.2136 22.4477 2.3242L25.2323 5.1958C25.847 4.59974 26.2928 4.48 26.6 4.48V0.479999ZM22.4477 2.3242C21.3062 3.43112 20.456 4.85422 19.8445 6.50537L23.5955 7.89463C24.0506 6.66578 24.6138 5.79554 25.2323 5.1958L22.4477 2.3242ZM19.847 6.49858L12.447 26.2586L16.193 27.6614L23.593 7.90141L19.847 6.49858ZM12.3797 26.4749C12.589 25.6379 13.2381 25.298 13.5065 25.2004C13.7541 25.1104 13.9212 25.12 13.88 25.12V29.12C14.1055 29.12 14.4792 29.103 14.8735 28.9596C15.2885 28.8087 16.0244 28.3887 16.2603 27.4451L12.3797 26.4749ZM13.88 25.12C13.8799 25.12 13.8801 25.12 13.88 25.12C13.8799 25.12 13.8801 25.12 13.88 25.12C13.88 25.12 13.88 25.12 13.8801 25.12C13.8801 25.12 13.8802 25.12 13.8803 25.12C13.8804 25.12 13.8807 25.12 13.8811 25.12C13.8818 25.12 13.8829 25.12 13.8844 25.1201C13.8873 25.1202 13.8919 25.1203 13.8981 25.1207C13.9101 25.1213 13.9307 25.1229 13.9584 25.1264C14.0074 25.1328 14.1147 25.15 14.2535 25.2004C14.5219 25.298 15.171 25.6379 15.3803 26.4749L11.4997 27.4451C11.7356 28.3887 12.4715 28.8087 12.8865 28.9596C13.2808 29.103 13.6545 29.12 13.88 29.12V25.12ZM15.2491 26.1073L5.04911 4.46728L1.43089 6.17272L11.6309 27.8127L15.2491 26.1073ZM5.02885 4.42557C4.50125 3.37035 3.89654 2.42909 3.17325 1.74597L0.426752 4.65402C0.663457 4.87758 1.01876 5.34964 1.45115 6.21443L5.02885 4.42557ZM3.21421 1.78579C2.42292 0.994489 1.40096 0.479999 0.2 0.479999V4.48C0.205031 4.48 0.208031 4.48025 0.209334 4.48039C0.210033 4.48046 0.210461 4.48052 0.21066 4.48055C0.210858 4.48059 0.210939 4.4806 0.210942 4.4806C0.210945 4.4806 0.210983 4.48061 0.211093 4.48064C0.211203 4.48067 0.211494 4.48075 0.211999 4.48092C0.212914 4.48122 0.215283 4.48205 0.21927 4.48384C0.232481 4.48979 0.290062 4.51849 0.385786 4.61421L3.21421 1.78579ZM0.2 0.479999C0.529968 0.479999 0.907908 0.568237 1.2569 0.800897C1.59337 1.02521 1.79022 1.30831 1.89885 1.52557C2.08782 1.90349 2.08 2.21785 2.08 2.24H-1.92C-1.92 2.42215 -1.90782 2.8565 -1.67885 3.31443C-1.55022 3.57169 -1.32837 3.88479 -0.961898 4.1291C-0.582908 4.38176 -0.169968 4.48 0.2 4.48V0.479999ZM2.08 2.24C2.08 2.26215 2.08782 2.5765 1.89885 2.95443C1.79022 3.17169 1.59337 3.45479 1.2569 3.6791C0.907908 3.91176 0.529968 4 0.2 4V0C-0.169968 0 -0.582908 0.0982389 -0.961898 0.350898C-1.32837 0.595211 -1.55022 0.90831 -1.67885 1.16557C-1.90782 1.62349 -1.92 2.05785 -1.92 2.24H2.08ZM0.2 4C0.380425 4 0.516731 4.00306 0.614871 4.00774C0.724058 4.01294 0.744398 4.01832 0.711206 4.01279L1.36879 0.0672112C1.02732 0.0102987 0.596761 0 0.2 0V4ZM0.840995 4.03007C1.46726 4.0927 2.2341 4.12 3.12 4.12V0.119999C2.29924 0.119999 1.6794 0.0939636 1.239 0.0499249L0.840995 4.03007ZM3.12 4.12C5.42694 4.12 7.39723 4.0932 9.02663 4.03889L8.89337 0.04111C7.32277 0.093462 5.39972 0.119999 3.12 0.119999V4.12ZM9.08475 4.03611C9.45499 4.01297 9.94339 4 10.56 4V0C9.89662 0 9.31835 0.0137005 8.83525 0.0438938L9.08475 4.03611ZM10.56 4C10.23 4 9.8521 3.91176 9.50311 3.67911C9.16664 3.45479 8.96978 3.1717 8.86115 2.95443C8.67218 2.57651 8.68 2.26215 8.68 2.24H12.68C12.68 2.05785 12.6678 1.62349 12.4389 1.16557C12.3102 0.908304 12.0884 0.595205 11.7219 0.350894C11.3429 0.098237 10.93 0 10.56 0V4ZM8.68 2.24C8.68 2.21785 8.67218 1.90349 8.86115 1.52556C8.96978 1.3083 9.16664 1.0252 9.50311 0.800893C9.8521 0.568235 10.23 0.479999 10.56 0.479999V4.48C10.93 4.48 11.3429 4.38176 11.7219 4.1291C12.0884 3.88479 12.3102 3.57169 12.4389 3.31443C12.6678 2.85651 12.68 2.42215 12.68 2.24H8.68ZM10.56 0.479999C9.49336 0.479999 8.38315 0.709245 7.4651 1.41128L9.8949 4.58871C9.8951 4.58856 9.89681 4.58726 9.90056 4.58497C9.90434 4.58267 9.91067 4.57906 9.92013 4.5745C9.93899 4.56542 9.97191 4.5518 10.0232 4.53762C10.1284 4.50852 10.3005 4.48 10.56 4.48V0.479999ZM7.48 1.4C6.46947 2.1579 6.04 3.26472 6.04 4.4H10.04C10.04 4.32508 10.0526 4.34794 10.0189 4.42152C10.0026 4.45731 9.97979 4.49481 9.95142 4.52967C9.92331 4.56424 9.89706 4.5872 9.88 4.6L7.48 1.4ZM6.04 4.4C6.04 5.25589 6.30822 6.1017 6.66187 6.87331L10.2981 5.20669C10.0651 4.6983 10.04 4.45078 10.04 4.4H6.04ZM6.66914 6.88899L13.5891 21.649L17.2109 19.951L10.2909 5.191L6.66914 6.88899ZM17.2702 21.5088L22.4702 7.78881L18.7298 6.37118L13.5298 20.0912L17.2702 21.5088ZM22.4835 7.75267C22.7934 6.8849 23 6.00529 23 5.16H19C19 5.38137 18.9399 5.78176 18.7165 6.40733L22.4835 7.75267ZM23 5.16C23 3.89396 22.5941 2.6752 21.6155 1.74809L18.8645 4.6519C18.8992 4.6848 19 4.77271 19 5.16H23ZM21.6542 1.78579C20.6765 0.808035 19.3806 0.479999 18.12 0.479999V4.48C18.4204 4.48 18.6051 4.5192 18.7068 4.55376C18.7991 4.58509 18.8235 4.61193 18.8258 4.61421L21.6542 1.78579ZM18.12 0.479999C18.45 0.479999 18.8279 0.568237 19.1769 0.800898C19.5134 1.02521 19.7102 1.30831 19.8189 1.52557C20.0078 1.90349 20 2.21785 20 2.24H16C16 2.42215 16.0122 2.8565 16.2411 3.31443C16.3698 3.57169 16.5916 3.88479 16.9581 4.1291C17.3371 4.38176 17.75 4.48 18.12 4.48V0.479999ZM20 2.24C20 2.26215 20.0078 2.5765 19.8189 2.95443C19.7102 3.17169 19.5134 3.45479 19.1769 3.6791C18.8279 3.91176 18.45 4 18.12 4V0C17.75 0 17.3371 0.0982389 16.9581 0.3509C16.5916 0.595213 16.3698 0.908313 16.2411 1.16557C16.0122 1.6235 16 2.05785 16 2.24H20ZM18.0792 3.99958L20.0392 4.03958L20.1208 0.0404158L18.1608 0.000416756L18.0792 3.99958ZM19.9849 4.03774C21.1285 4.09219 22.1611 4.12 23.08 4.12V0.119999C22.2389 0.119999 21.2715 0.0944729 20.1751 0.042263L19.9849 4.03774ZM23.08 4.12C23.6508 4.12 24.3285 4.0902 25.1025 4.03492L24.8175 0.0450821C24.0982 0.0964603 23.5226 0.119999 23.08 0.119999V4.12ZM25.0088 4.0394L26.6488 3.99941L26.5512 0.000594139L24.9112 0.0405941L25.0088 4.0394ZM33.2344 25.76L32.1915 27.4666L32.2053 27.475L32.2193 27.4833L33.2344 25.76ZM28.7544 21.04L26.9799 21.9627L26.9873 21.9769L26.995 21.991L28.7544 21.04ZM29.2744 7.48L30.9034 8.64039L30.9108 8.62989L29.2744 7.48ZM34.5944 3.04L33.7718 1.21697L33.7634 1.22081L34.5944 3.04ZM47.9544 3.36L46.8944 5.056L46.9029 5.06132L46.9115 5.06656L47.9544 3.36ZM52.3544 8.04L50.5803 8.96347L50.5853 8.97297L50.5903 8.98243L52.3544 8.04ZM46.8344 25.72L45.8797 23.9625L45.8705 23.9676L46.8344 25.72ZM45.1944 25.2L46.3707 26.8175L46.3771 26.8128L45.1944 25.2ZM47.9944 21.4L49.8493 22.1479L49.8534 22.1377L47.9944 21.4ZM47.8744 8.84L46.007 9.55625L46.0104 9.56489L47.8744 8.84ZM44.6344 4.28L43.4106 5.86191H43.4106L44.6344 4.28ZM34.0744 5.4L35.697 6.56927L35.705 6.558L34.0744 5.4ZM33.2744 20L31.4027 20.7049L31.4083 20.7197L31.4141 20.7343L33.2744 20ZM36.5144 24.76L35.2252 26.289L35.2325 26.2952L35.2398 26.3013L36.5144 24.76ZM39.8744 25.48C37.7155 25.48 35.859 24.9848 34.2494 24.0367L32.2193 27.4833C34.5031 28.8285 37.0733 29.48 39.8744 29.48V25.48ZM34.2773 24.0534C32.6576 23.0637 31.412 21.7506 30.5138 20.089L26.995 21.991C28.2301 24.2761 29.9711 26.1097 32.1915 27.4666L34.2773 24.0534ZM30.5288 20.1173C29.6432 18.4141 29.1944 16.5591 29.1944 14.52H25.1944C25.1944 17.1743 25.7856 19.6659 26.9799 21.9627L30.5288 20.1173ZM29.1944 14.52C29.1944 12.125 29.7928 10.1994 30.9033 8.64036L27.6454 6.31963C25.9826 8.65395 25.1944 11.4217 25.1944 14.52H29.1944ZM30.9108 8.62989C32.0965 6.94245 33.5938 5.69584 35.4254 4.85919L33.7634 1.22081C31.275 2.35749 29.2256 4.07088 27.638 6.33011L30.9108 8.62989ZM35.417 4.86301C37.3605 3.98606 39.3078 3.56 41.2744 3.56V-0.440001C38.7077 -0.440001 36.2016 0.120605 33.7718 1.21699L35.417 4.86301ZM41.2744 3.56C43.4788 3.56 45.329 4.07765 46.8944 5.056L49.0144 1.664C46.7397 0.242345 44.1367 -0.440001 41.2744 -0.440001V3.56ZM46.9115 5.06656C48.5293 6.05525 49.7394 7.34794 50.5803 8.96347L54.1284 7.11653C52.9427 4.83873 51.2194 3.01141 48.9973 1.65343L46.9115 5.06656ZM50.5903 8.98243C51.4769 10.6419 51.9144 12.3853 51.9144 14.24H55.9144C55.9144 11.7214 55.3118 9.33139 54.1184 7.09757L50.5903 8.98243ZM51.9144 14.24C51.9144 16.2936 51.3789 18.1491 50.3034 19.852L53.6854 21.988C55.1699 19.6375 55.9144 17.0398 55.9144 14.24H51.9144ZM50.3034 19.852C49.2107 21.5821 47.7474 22.948 45.8797 23.9626L47.789 27.4774C50.2414 26.1453 52.2181 24.3112 53.6854 21.988L50.3034 19.852ZM45.8705 23.9676C44.0415 24.9736 42.0544 25.48 39.8744 25.48V29.48C42.7077 29.48 45.3606 28.8131 47.7982 27.4724L45.8705 23.9676ZM41.1944 28.48C43.0971 28.48 44.845 27.9271 46.3707 26.8175L44.018 23.5825C43.1971 24.1796 42.2783 24.48 41.1944 24.48V28.48ZM46.3771 26.8128C47.932 25.6725 49.0712 24.0776 49.8493 22.1479L46.1395 20.6521C45.5843 22.0291 44.8567 22.9675 44.0117 23.5872L46.3771 26.8128ZM49.8534 22.1377C50.6355 20.1667 50.9944 17.9042 50.9944 15.4H46.9944C46.9944 17.5358 46.6866 19.2733 46.1354 20.6623L49.8534 22.1377ZM50.9944 15.4C50.9944 12.745 50.5903 10.3057 49.7384 8.11511L46.0104 9.56489C46.6518 11.2143 46.9944 13.1484 46.9944 15.4H50.9944ZM49.7417 8.12375C48.8861 5.89291 47.6066 4.0507 45.8581 2.69809L43.4106 5.86191C44.4888 6.69596 45.3694 7.89375 46.007 9.55624L49.7417 8.12375ZM45.8581 2.69809C44.0727 1.31692 41.9824 0.639999 39.6744 0.639999V4.64C41.153 4.64 42.3694 5.05641 43.4106 5.86191L45.8581 2.69809ZM39.6744 0.639999C36.6571 0.639999 34.1574 1.8288 32.4437 4.242L35.705 6.558C36.6046 5.2912 37.8383 4.64 39.6744 4.64V0.639999ZM32.4518 4.23076C30.8092 6.51022 30.1144 9.52754 30.1144 13.04H34.1144C34.1144 9.99246 34.7262 7.91644 35.697 6.56924L32.4518 4.23076ZM30.1144 13.04C30.1144 15.8253 30.5308 18.3899 31.4027 20.7049L35.146 19.2951C34.4713 17.5034 34.1144 15.4281 34.1144 13.04H30.1144ZM31.4141 20.7343C32.3086 23.0006 33.561 24.8859 35.2252 26.289L37.8036 23.231C36.7477 22.3407 35.8401 21.0527 35.1347 19.2657L31.4141 20.7343ZM35.2398 26.3013C36.9702 27.7322 38.9769 28.48 41.1944 28.48V24.48C39.9452 24.48 38.8318 24.0811 37.7889 23.2187L35.2398 26.3013ZM56.7275 9.12L54.8314 8.48387L54.8301 8.48754L56.7275 9.12ZM56.4875 9.24L56.0953 11.2012L56.2895 11.24H56.4875V9.24ZM56.2875 9.08L54.2974 8.88099L54.2875 8.98025V9.08H56.2875ZM56.6475 4.96L58.6412 5.11823L58.6414 5.11578L56.6475 4.96ZM59.5675 2L59.6372 0.00121593L59.6024 0H59.5675V2ZM72.6075 2.04L72.5781 0.0402155L72.5625 0.0404453L72.5469 0.0409174L72.6075 2.04ZM75.3275 2V0H75.3128L75.2981 0.000216484L75.3275 2ZM77.5275 1.8L76.9922 -0.127038L76.9777 -0.122994L76.9632 -0.118731L77.5275 1.8ZM78.4475 0.999998L80.3449 1.63245L80.3692 1.55958L80.3878 1.48506L78.4475 0.999998ZM78.9275 0.999998L80.9176 1.199L80.9275 1.09975V0.999998H78.9275ZM78.6475 4.84L76.6512 4.71901L76.6503 4.73409L76.6496 4.74918L78.6475 4.84ZM78.0875 9.08L76.1244 9.46242L76.1492 9.58956L76.1901 9.71245L78.0875 9.08ZM75.8475 4.48L74.4691 5.92911L74.4785 5.93805L74.488 5.94686L75.8475 4.48ZM70.2475 3.44L68.6623 2.22058L68.6548 2.23024L68.6475 2.24L70.2475 3.44ZM70.1275 25.56L68.2892 26.3478V26.3478L70.1275 25.56ZM71.0475 26.32L70.4832 28.2387L71.0475 26.32ZM70.9275 26.96L71.0226 24.9623L70.9871 24.9606L70.9516 24.9601L70.9275 26.96ZM67.6075 26.92L67.6316 24.9201L67.6072 24.9198L67.5828 24.9202L67.6075 26.92ZM64.3675 26.96L64.3428 24.9602L64.3076 24.9606L64.2724 24.9623L64.3675 26.96ZM64.1675 26.32L63.6322 24.393L63.6177 24.397L63.6032 24.4013L64.1675 26.32ZM65.1275 25.56L63.3151 24.7142L63.3017 24.743L63.2892 24.7722L65.1275 25.56ZM63.5675 0.919998C61.5014 0.919998 59.6547 1.61007 58.1343 2.98816C56.6567 4.3275 55.5908 6.22027 54.8314 8.48388L58.6236 9.75612C59.2509 7.88639 60.0183 6.67917 60.8207 5.95184C61.5803 5.26326 62.4603 4.92 63.5675 4.92V0.919998ZM54.8301 8.48754C54.9955 7.99143 55.3506 7.62239 55.7531 7.42114C56.0934 7.25097 56.3835 7.24 56.4875 7.24V11.24C56.8963 11.24 58.1781 11.0928 58.6249 9.75246L54.8301 8.48754ZM56.8797 7.27884C56.9601 7.29491 57.2651 7.36084 57.5869 7.61826C57.7634 7.75946 57.9502 7.96327 58.0889 8.24057C58.2294 8.52171 58.2875 8.81278 58.2875 9.08H54.2875C54.2875 9.77303 54.617 10.3649 55.0881 10.7417C55.4766 11.0525 55.8816 11.1584 56.0953 11.2012L56.8797 7.27884ZM58.2776 9.27901C58.3861 8.19339 58.5074 6.80511 58.6412 5.11823L54.6538 4.80177C54.521 6.47489 54.4022 7.83327 54.2974 8.88099L58.2776 9.27901ZM58.6414 5.11578C58.7756 3.39782 58.8475 2.05432 58.8475 1.12H54.8475C54.8475 1.89234 54.786 3.10885 54.6536 4.80422L58.6414 5.11578ZM58.8475 1.12C58.8475 1.36162 58.7857 1.91019 58.3117 2.38421C57.8377 2.85824 57.2891 2.92 57.0475 2.92V-1.08C56.6725 -1.08 56.024 -0.984907 55.4833 -0.444215C54.9426 0.0964775 54.8475 0.745043 54.8475 1.12H58.8475ZM57.0475 2.92C56.899 2.92 56.4153 2.89661 55.9471 2.50644C55.4091 2.05807 55.2875 1.4672 55.2875 1.12H59.2875C59.2875 0.639463 59.1259 -0.0514021 58.5079 -0.566443C57.9597 -1.02328 57.356 -1.08 57.0475 -1.08V2.92ZM55.2875 1.12C55.2875 1.74185 55.5045 2.33535 55.9164 2.81224C56.2947 3.25036 56.757 3.49905 57.1373 3.64585C57.8678 3.92779 58.7367 4 59.5675 4V0C59.2474 0 59.0036 -0.0156946 58.8252 -0.0386505C58.6399 -0.0624981 58.5708 -0.0885 58.5777 -0.0858459C58.578 -0.0857134 58.7553 -0.0203571 58.9436 0.197761C59.0427 0.312458 59.1344 0.458203 59.1988 0.632018C59.263 0.805566 59.2875 0.973491 59.2875 1.12H55.2875ZM59.4978 3.99878C61.8206 4.07981 64.5248 4.12 67.6075 4.12V0.119999C64.5569 0.119999 61.9011 0.0801878 59.6372 0.00121593L59.4978 3.99878ZM67.6075 4.12C69.2032 4.12 70.8902 4.09296 72.6681 4.03908L72.5469 0.0409174C70.8048 0.093709 69.1584 0.119999 67.6075 0.119999V4.12ZM72.6369 4.03978L75.3569 3.99978L75.2981 0.000216484L72.5781 0.0402155L72.6369 4.03978ZM75.3275 4C76.3652 4 77.3446 3.93852 78.0918 3.71873L76.9632 -0.118731C76.8038 -0.0718546 76.3165 0 75.3275 0V4ZM78.0628 3.72703C79.0498 3.45287 79.9606 2.78519 80.3449 1.63245L76.5501 0.367543C76.5921 0.241549 76.6782 0.101177 76.8051 -0.00921345C76.9214 -0.110329 77.0088 -0.131648 76.9922 -0.127038L78.0628 3.72703ZM80.3878 1.48506C80.299 1.84022 80.0704 2.25511 79.6369 2.5441C79.244 2.80606 78.8681 2.84 78.6875 2.84V-1.16C78.3736 -1.16 77.891 -1.09939 77.4181 -0.7841C76.9046 -0.441779 76.6227 0.0531111 76.5072 0.514935L80.3878 1.48506ZM78.6875 2.84C78.6084 2.84 78.1994 2.83829 77.7581 2.5441C77.5109 2.37931 77.2809 2.13898 77.1236 1.82442C76.9705 1.51814 76.9275 1.22453 76.9275 0.999998H80.9275C80.9275 0.364057 80.6413 -0.341157 79.9769 -0.7841C79.4556 -1.13163 78.9266 -1.16 78.6875 -1.16V2.84ZM76.9374 0.800994C76.8533 1.64274 76.758 2.95607 76.6512 4.71901L80.6438 4.96099C80.7503 3.20393 80.8418 1.95726 80.9176 1.199L76.9374 0.800994ZM76.6496 4.74918C76.5689 6.52273 76.5275 7.96999 76.5275 9.08H80.5275C80.5275 8.05668 80.5661 6.67727 80.6454 4.93081L76.6496 4.74918ZM76.5275 9.08C76.5275 8.81675 76.5845 8.4892 76.7667 8.16121C76.9504 7.83055 77.205 7.60113 77.4485 7.45501C77.8759 7.19856 78.2595 7.2 78.3275 7.2V11.2C78.5289 11.2 79.0124 11.1814 79.5065 10.885C80.1633 10.4909 80.5275 9.79756 80.5275 9.08H76.5275ZM78.3275 7.2C78.4315 7.2 78.7216 7.21097 79.0619 7.38115C79.4644 7.58239 79.8195 7.95144 79.9849 8.44755L76.1901 9.71245C76.6369 11.0528 77.9187 11.2 78.3275 11.2V7.2ZM80.0506 8.69758C79.6013 6.39111 78.7145 4.41034 77.207 3.01314L74.488 5.94686C75.1671 6.57632 75.7737 7.66222 76.1244 9.46242L80.0506 8.69758ZM77.2259 3.03088C75.7368 1.6144 73.8865 0.919998 71.8075 0.919998V4.92C72.9285 4.92 73.7715 5.26559 74.4691 5.92911L77.2259 3.03088ZM71.8075 0.919998C70.8712 0.919998 69.519 1.10683 68.6623 2.22058L71.8327 4.65942C71.7544 4.76126 71.6696 4.8335 71.5979 4.88094C71.5287 4.92667 71.4799 4.94406 71.47 4.94736C71.4607 4.95046 71.4809 4.94278 71.5407 4.93477C71.5999 4.92683 71.6873 4.92 71.8075 4.92V0.919998ZM68.6475 2.24C68.268 2.74596 68.1 3.32036 68.0132 3.77385C67.9213 4.25365 67.8875 4.77934 67.8875 5.32H71.8875C71.8875 4.92732 71.9137 4.67301 71.9418 4.52614C71.9553 4.45568 71.9647 4.43443 71.9594 4.44839C71.9547 4.46079 71.9249 4.5368 71.8475 4.64L68.6475 2.24ZM67.8875 5.32V23.76H71.8875V5.32H67.8875ZM67.8875 23.76C67.8875 24.635 67.9604 25.5806 68.2892 26.3478L71.9658 24.7722C71.9832 24.8128 71.9565 24.7645 71.93 24.5657C71.905 24.3784 71.8875 24.1145 71.8875 23.76H67.8875ZM68.2892 26.3478C68.7238 27.3618 69.5621 27.9678 70.4832 28.2387L71.6118 24.4013C71.5967 24.3968 71.6607 24.4132 71.7513 24.4881C71.8488 24.5686 71.9231 24.6725 71.9658 24.7722L68.2892 26.3478ZM70.4832 28.2387C71.2277 28.4577 72.1904 28.52 73.2075 28.52V24.52C72.2513 24.52 71.774 24.449 71.6118 24.4013L70.4832 28.2387ZM73.2075 28.52C72.8775 28.52 72.4996 28.4318 72.1506 28.1991C71.8141 27.9748 71.6173 27.6917 71.5086 27.4744C71.3197 27.0965 71.3275 26.7821 71.3275 26.76H75.3275C75.3275 26.5779 75.3153 26.1435 75.0864 25.6856C74.9577 25.4283 74.7359 25.1152 74.3694 24.8709C73.9904 24.6182 73.5775 24.52 73.2075 24.52V28.52ZM71.3275 26.76C71.3275 26.7379 71.3197 26.4235 71.5086 26.0456C71.6173 25.8283 71.8141 25.5452 72.1506 25.3209C72.4996 25.0882 72.8775 25 73.2075 25V29C73.5775 29 73.9904 28.9018 74.3694 28.6491C74.7359 28.4048 74.9577 28.0917 75.0864 27.8344C75.3153 27.3765 75.3275 26.9421 75.3275 26.76H71.3275ZM73.2075 25C72.2604 25 71.5365 24.9867 71.0226 24.9623L70.8324 28.9577C71.4385 28.9866 72.2346 29 73.2075 29V25ZM70.9516 24.9601L67.6316 24.9201L67.5834 28.9199L70.9034 28.9599L70.9516 24.9601ZM67.5828 24.9202L64.3428 24.9602L64.3922 28.9598L67.6322 28.9198L67.5828 24.9202ZM64.2724 24.9623C63.7591 24.9867 63.0223 25 62.0475 25V29C63.046 29 63.8559 28.9866 64.4626 28.9577L64.2724 24.9623ZM62.0475 25C62.3775 25 62.7554 25.0882 63.1044 25.3209C63.4409 25.5452 63.6377 25.8283 63.7464 26.0456C63.9353 26.4235 63.9275 26.7379 63.9275 26.76H59.9275C59.9275 26.9422 59.9397 27.3765 60.1686 27.8344C60.2973 28.0917 60.5191 28.4048 60.8856 28.6491C61.2646 28.9018 61.6775 29 62.0475 29V25ZM63.9275 26.76C63.9275 26.7822 63.9353 27.0965 63.7464 27.4744C63.6377 27.6917 63.4409 27.9748 63.1044 28.1991C62.7554 28.4318 62.3775 28.52 62.0475 28.52V24.52C61.6775 24.52 61.2646 24.6182 60.8856 24.8709C60.5191 25.1152 60.2973 25.4283 60.1686 25.6856C59.9397 26.1435 59.9275 26.5779 59.9275 26.76H63.9275ZM62.0475 28.52C63.0442 28.52 63.9902 28.4568 64.7318 28.2387L63.6032 24.4013C63.4381 24.4498 62.9708 24.52 62.0475 24.52V28.52ZM64.7028 28.247C65.6214 27.9919 66.5128 27.4048 66.9658 26.3478L63.2892 24.7722C63.3409 24.6516 63.4267 24.5406 63.5261 24.4619C63.6159 24.3908 63.6705 24.3823 63.6322 24.393L64.7028 28.247ZM66.9399 26.4058C67.3133 25.6055 67.4075 24.6524 67.4075 23.76H63.4075C63.4075 24.0873 63.3881 24.3304 63.3613 24.5026C63.3335 24.6808 63.3052 24.7356 63.3151 24.7142L66.9399 26.4058ZM67.4075 23.76V5.24H63.4075V23.76H67.4075ZM67.4075 5.24C67.4075 4.70989 67.3734 4.1917 67.2803 3.71598C67.1917 3.26302 67.0218 2.699 66.6475 2.2L63.4475 4.6C63.3737 4.50154 63.3444 4.42875 63.339 4.41474C63.3332 4.3996 63.3418 4.41824 63.3547 4.48402C63.3816 4.62163 63.4075 4.86344 63.4075 5.24H67.4075ZM66.6475 2.2C65.8026 1.07348 64.4311 0.919998 63.5675 0.919998V4.92C63.6845 4.92 63.7683 4.92636 63.8241 4.93355C63.8805 4.94084 63.8958 4.9474 63.8805 4.94244C63.8507 4.93279 63.6391 4.85547 63.4475 4.6L66.6475 2.2ZM100.231 20.64L102.131 21.2639L102.231 20.96V20.64H100.231ZM100.591 20.64L99.1764 22.0542L99.5103 22.3881L99.9582 22.5374L100.591 20.64ZM100.711 20.72L102.694 20.9743L102.711 20.8477V20.72H100.711ZM100.191 26.88L101.605 28.2942L101.705 28.1937L101.791 28.08L100.191 26.88ZM83.8706 26.32L83.2382 24.4226L83.218 24.4294L83.198 24.4365L83.8706 26.32ZM84.6706 25.56L86.5541 26.2327L86.5613 26.2126L86.568 26.1925L84.6706 25.56ZM84.6706 3.48L82.7871 4.15267V4.15267L84.6706 3.48ZM83.8706 2.72L83.1278 4.57695L83.1824 4.59878L83.2382 4.61736L83.8706 2.72ZM99.3906 2.36H97.3906V2.37503L97.3909 2.39007L99.3906 2.36ZM99.4706 7.68H101.471V7.66496L101.47 7.64993L99.4706 7.68ZM99.2306 7.8L98.9018 5.82721L98.87 5.83251L98.8384 5.83884L99.2306 7.8ZM98.9906 7.72L97.0626 8.25186L97.0766 8.30256L97.0933 8.35245L98.9906 7.72ZM96.8306 4.28L95.6442 5.89011L96.8306 4.28ZM89.8706 3.68L91.2315 5.14559L91.2315 5.14559L89.8706 3.68ZM89.3106 13.44H87.3106V15.44H89.3106V13.44ZM96.1906 12.64L95.1064 10.9594L95.1064 10.9594L96.1906 12.64ZM97.8706 10.4L99.8705 10.4222L99.8706 10.4111V10.4H97.8706ZM97.8306 14L95.8307 13.9778L95.8304 14.0097L95.8311 14.0417L97.8306 14ZM97.8706 15.92L95.8711 15.9617L95.8718 15.9996L95.8741 16.0374L97.8706 15.92ZM96.1906 15.52L94.9663 17.1014L94.9944 17.1232L95.0234 17.144L96.1906 15.52ZM89.3106 14.56V12.56H87.3106V14.56H89.3106ZM89.7506 25.32L91.3233 24.0844V24.0844L89.7506 25.32ZM97.4706 24.6L96.345 22.9468L97.4706 24.6ZM102.231 20.64C102.231 20.9766 102.141 21.3604 101.905 21.7144C101.677 22.0559 101.389 22.2569 101.165 22.3689C100.774 22.5645 100.439 22.56 100.391 22.56V18.56C100.235 18.56 99.8208 18.5688 99.3762 18.7911C99.1256 18.9164 98.8175 19.1341 98.5765 19.4956C98.3272 19.8696 98.2306 20.2767 98.2306 20.64H102.231ZM100.391 22.56C100.205 22.56 99.9863 22.5283 99.7578 22.437C99.5271 22.3447 99.3314 22.2092 99.1764 22.0542L102.005 19.2258C101.552 18.7729 100.965 18.56 100.391 18.56V22.56ZM99.9582 22.5374C99.9359 22.5299 99.7699 22.4766 99.5712 22.3441C99.4687 22.2757 99.2799 22.1358 99.1031 21.9C98.9144 21.6483 98.7106 21.2443 98.7106 20.72H102.711C102.711 19.6449 101.931 19.1098 101.79 19.0159C101.551 18.8568 101.325 18.7767 101.223 18.7426L99.9582 22.5374ZM98.7269 20.4657C98.4517 22.6118 98.3106 24.5917 98.3106 26.4H102.311C102.311 24.795 102.436 22.9882 102.694 20.9743L98.7269 20.4657ZM98.3106 26.4C98.3106 26.3882 98.3111 26.312 98.3403 26.1949C98.3701 26.0758 98.4376 25.884 98.5906 25.68L101.791 28.08C102.245 27.4745 102.311 26.8056 102.311 26.4H98.3106ZM98.7764 25.4658C99.0842 25.158 99.4051 25.0598 99.5256 25.0297C99.6582 24.9966 99.7341 25 99.7106 25V29C99.9272 29 100.203 28.9834 100.496 28.9103C100.776 28.8402 101.217 28.682 101.605 28.2942L98.7764 25.4658ZM99.7106 25H82.0306V29H99.7106V25ZM82.0306 25C82.3606 25 82.7385 25.0882 83.0875 25.3209C83.424 25.5452 83.6208 25.8283 83.7295 26.0456C83.9184 26.4235 83.9106 26.7379 83.9106 26.76H79.9106C79.9106 26.9422 79.9228 27.3765 80.1518 27.8344C80.2804 28.0917 80.5023 28.4048 80.8687 28.6491C81.2477 28.9018 81.6607 29 82.0306 29V25ZM83.9106 26.76C83.9106 26.7822 83.9184 27.0965 83.7295 27.4744C83.6208 27.6917 83.424 27.9748 83.0875 28.1991C82.7385 28.4318 82.3606 28.52 82.0306 28.52V24.52C81.6607 24.52 81.2477 24.6182 80.8687 24.8709C80.5023 25.1152 80.2804 25.4283 80.1518 25.6856C79.9228 26.1435 79.9106 26.5779 79.9106 26.76H83.9106ZM82.0306 28.52C82.9109 28.52 83.8224 28.4609 84.5433 28.2035L83.198 24.4365C83.2167 24.4298 83.1413 24.4571 82.9145 24.4817C82.7009 24.5049 82.4102 24.52 82.0306 24.52V28.52ZM84.5031 28.2174C85.4433 27.904 86.1993 27.226 86.5541 26.2327L82.7871 24.8873C82.8175 24.8023 82.8818 24.6857 82.9931 24.58C83.1014 24.4772 83.2007 24.4351 83.2382 24.4226L84.5031 28.2174ZM86.568 26.1925C86.8055 25.4798 86.8706 24.6184 86.8706 23.76H82.8706C82.8706 24.5016 82.8024 24.8402 82.7733 24.9275L86.568 26.1925ZM86.8706 23.76V5.24H82.8706V23.76H86.8706ZM86.8706 5.24C86.8706 4.39521 86.8087 3.52016 86.5541 2.80733L82.7871 4.15267C82.7837 4.14314 82.8099 4.21846 82.8334 4.42582C82.8559 4.62324 82.8706 4.89094 82.8706 5.24H86.8706ZM86.5541 2.80733C86.1993 1.81399 85.4433 1.13602 84.5031 0.822631L83.2382 4.61736C83.2007 4.60487 83.1014 4.56283 82.9931 4.46C82.8818 4.35425 82.8175 4.23771 82.7871 4.15267L86.5541 2.80733ZM84.6134 0.863044C83.8486 0.557114 82.9216 0.479999 82.0306 0.479999V4.48C82.3843 4.48 82.6541 4.49739 82.8519 4.5232C83.0581 4.55008 83.1345 4.57962 83.1278 4.57695L84.6134 0.863044ZM82.0306 0.479999C82.3606 0.479999 82.7385 0.568237 83.0875 0.800897C83.424 1.02521 83.6208 1.30831 83.7295 1.52557C83.9184 1.90349 83.9106 2.21785 83.9106 2.24H79.9106C79.9106 2.42215 79.9228 2.8565 80.1518 3.31443C80.2804 3.57169 80.5023 3.88479 80.8687 4.1291C81.2477 4.38176 81.6607 4.48 82.0306 4.48V0.479999ZM83.9106 2.24C83.9106 2.26215 83.9184 2.5765 83.7295 2.95443C83.6208 3.17169 83.424 3.45479 83.0875 3.6791C82.7385 3.91176 82.3606 4 82.0306 4V0C81.6607 0 81.2477 0.0982389 80.8687 0.350898C80.5023 0.595211 80.2804 0.908311 80.1518 1.16557C79.9228 1.6235 79.9106 2.05785 79.9106 2.24H83.9106ZM82.0306 4H98.9906V0H82.0306V4ZM98.9906 4C98.8647 4 98.3967 3.97621 97.9527 3.57659C97.4686 3.14091 97.3906 2.60591 97.3906 2.36H101.391C101.391 1.87409 101.246 1.15909 100.629 0.603408C100.051 0.0837879 99.3833 0 98.9906 0V4ZM97.3909 2.39007L97.4709 7.71007L101.47 7.64993L101.39 2.32993L97.3909 2.39007ZM97.4706 7.68C97.4706 6.52584 98.3661 6.0362 98.5162 5.96114C98.6461 5.89621 98.7507 5.86424 98.8003 5.85046C98.855 5.83527 98.8918 5.82889 98.9018 5.82721L99.5594 9.77279C99.7038 9.74872 99.9971 9.69283 100.305 9.53885C100.535 9.4238 101.471 8.88749 101.471 7.68H97.4706ZM98.8384 5.83884C98.9252 5.82147 99.2693 5.75804 99.7031 5.90263C99.9425 5.98244 100.204 6.12479 100.435 6.35579C100.666 6.58678 100.808 6.84814 100.888 7.08755L97.0933 8.35245C97.3057 8.98966 97.801 9.48496 98.4382 9.69736C98.952 9.86863 99.4027 9.80519 99.6229 9.76116L98.8384 5.83884ZM100.919 7.18814C100.406 5.32955 99.4806 3.74834 98.017 2.66989L95.6442 5.89011C96.2073 6.30499 96.722 7.01712 97.0626 8.25186L100.919 7.18814ZM98.017 2.66989C96.5662 1.60089 94.7776 1.16 92.8306 1.16V5.16C94.1904 5.16 95.0683 5.46577 95.6442 5.89011L98.017 2.66989ZM92.8306 1.16H91.6306V5.16H92.8306V1.16ZM91.6306 1.16C90.602 1.16 89.415 1.37377 88.5097 2.21441L91.2315 5.14559C91.1509 5.22043 91.1013 5.22458 91.1573 5.20803C91.2202 5.18947 91.3671 5.16 91.6306 5.16V1.16ZM88.5097 2.21441C87.5837 3.0743 87.3106 4.23902 87.3106 5.28H91.3106C91.3106 5.08622 91.3365 5.00587 91.3383 5.0007C91.3385 5.00033 91.3319 5.01895 91.313 5.04875C91.2935 5.07933 91.2662 5.11337 91.2315 5.14559L88.5097 2.21441ZM87.3106 5.28V13.44H91.3106V5.28H87.3106ZM89.3106 15.44H92.6306V11.44H89.3106V15.44ZM92.6306 15.44C94.3599 15.44 95.9893 15.15 97.2749 14.3206L95.1064 10.9594C94.7387 11.1966 93.9947 11.44 92.6306 11.44V15.44ZM97.2749 14.3206C98.6553 13.43 99.4306 12.0595 99.4306 10.4H95.4306C95.4306 10.6605 95.3793 10.7833 95.1064 10.9594L97.2749 14.3206ZM99.4306 10.4C99.4306 10.6632 99.3737 10.9908 99.1914 11.3188C99.0077 11.6494 98.7531 11.8789 98.5096 12.025C98.0822 12.2814 97.6987 12.28 97.6306 12.28V8.28C97.4292 8.28 96.9457 8.29856 96.4516 8.59501C95.7948 8.98912 95.4306 9.68244 95.4306 10.4H99.4306ZM97.6306 12.28C97.6085 12.28 97.2941 12.2878 96.9162 12.0989C96.6989 11.9902 96.4158 11.7934 96.1915 11.4569C95.9589 11.1079 95.8706 10.73 95.8706 10.4H99.8706C99.8706 10.03 99.7724 9.61709 99.5197 9.2381C99.2754 8.87163 98.9623 8.64977 98.7051 8.52114C98.2471 8.29218 97.8128 8.28 97.6306 8.28V12.28ZM95.8708 10.3778L95.8307 13.9778L99.8305 14.0222L99.8705 10.4222L95.8708 10.3778ZM95.8311 14.0417L95.8711 15.9617L99.8702 15.8783L99.8302 13.9583L95.8311 14.0417ZM95.8741 16.0374C95.9265 16.928 95.9506 17.6036 95.9506 18.08H99.9506C99.9506 17.4898 99.9215 16.7253 99.8672 15.8026L95.8741 16.0374ZM95.9506 18.08C95.9506 17.5282 96.1816 17.0406 96.5214 16.7008C96.8121 16.4101 97.1163 16.2899 97.2582 16.2426C97.4154 16.1902 97.5393 16.1734 97.5948 16.1672C97.6572 16.1603 97.699 16.16 97.7106 16.16V20.16C97.849 20.16 98.1704 20.1549 98.5231 20.0374C98.8244 19.9369 99.9506 19.4352 99.9506 18.08H95.9506ZM97.7106 16.16C97.7223 16.16 97.764 16.1603 97.8265 16.1672C97.8819 16.1734 98.0059 16.1902 98.1631 16.2426C98.305 16.2899 98.6091 16.4101 98.8998 16.7008C99.2397 17.0406 99.4706 17.5282 99.4706 18.08H95.4706C95.4706 19.4352 96.5969 19.9369 96.8982 20.0374C97.2508 20.1549 97.5723 20.16 97.7106 20.16V16.16ZM99.4706 18.08C99.4706 16.3736 98.7585 14.9026 97.3579 13.896L95.0234 17.144C95.3294 17.364 95.4706 17.5998 95.4706 18.08H99.4706ZM97.415 13.9386C96.1001 12.9206 94.3939 12.56 92.5906 12.56V16.56C93.934 16.56 94.6278 16.8394 94.9663 17.1014L97.415 13.9386ZM92.5906 12.56H89.3106V16.56H92.5906V12.56ZM87.3106 14.56V23.6H91.3106V14.56H87.3106ZM87.3106 23.6C87.3106 24.561 87.4812 25.6688 88.178 26.5556L91.3233 24.0844C91.3852 24.1631 91.3791 24.196 91.3582 24.1143C91.3367 24.0303 91.3106 23.8675 91.3106 23.6H87.3106ZM88.178 26.5556C88.9724 27.5667 90.1257 27.88 91.1506 27.88V23.88C91.0184 23.88 91.0056 23.8599 91.0634 23.883C91.0943 23.8954 91.1392 23.9178 91.1895 23.9549C91.2404 23.9924 91.286 24.0369 91.3233 24.0844L88.178 26.5556ZM91.1506 27.88H92.4706V23.88H91.1506V27.88ZM92.4706 27.88C94.807 27.88 96.9084 27.4023 98.5962 26.2532L96.345 22.9468C95.5261 23.5043 94.2943 23.88 92.4706 23.88V27.88ZM98.5962 26.2532C100.295 25.0969 101.44 23.3669 102.131 21.2639L98.3304 20.0161C97.8476 21.4864 97.1534 22.3964 96.345 22.9468L98.5962 26.2532Z" fill="#22262A"/>
<defs>
<linearGradient id="paint0_linear_239:772" x1="-1.1107e-06" y1="1.05263" x2="311.081" y2="32.1648" gradientUnits="userSpaceOnUse">
<stop offset="0.267495" stop-color="#FFC6CE"/>
<stop offset="1" stop-color="#64D6EE"/>
</linearGradient>
</defs>
</svg>
